<?xml version="1.0" encoding="UTF-8"?>
<svg id="_레이어_1" data-name="레이어_1" xmlns="http://www.w3.org/2000/svg" version="1.1" viewBox="0 0 177.48 177.48">
  <!-- Generator: Adobe Illustrator 30.3.0, SVG Export Plug-In . SVG Version: 2.1.3 Build 182)  -->
  <defs>
    <style>
      .st0 {
        fill: #68b4fc;
      }

      .st1 {
        fill: #1069f3;
      }

      .st2 {
        fill: #0f71f9;
      }

      .st3 {
        fill: #0f74f8;
      }

      .st4 {
        fill: #1c76f8;
      }

      .st5 {
        fill: #8ecbfc;
      }

      .st6 {
        fill: #0f6ffa;
      }

      .st7 {
        fill: #daecfc;
      }

      .st8 {
        fill: #86c8fc;
      }

      .st9 {
        fill: #1372f7;
      }

      .st10 {
        fill: #92cefc;
      }

      .st11 {
        fill: #edf4fd;
      }

      .st12 {
        fill: #dcebfb;
      }

      .st13 {
        fill: #0b69f6;
      }

      .st14 {
        fill: #1264f3;
      }

      .st15 {
        fill: #1575f8;
      }

      .st16 {
        fill: #207cf7;
      }

      .st17 {
        fill: #1e6ff4;
      }

      .st18 {
        fill: #0a6ff8;
      }

      .st19 {
        fill: #197efb;
      }

      .st20 {
        fill: #0c76f2;
      }

      .st21 {
        fill: #1477fa;
      }

      .st22 {
        fill: #1067f5;
      }

      .st23 {
        fill: #1073f8;
      }

      .st24 {
        fill: #80c3fc;
      }

      .st25 {
        fill: #1a7afb;
      }

      .st26 {
        fill: #1573fc;
      }

      .st27 {
        fill: #1070f8;
      }

      .st28 {
        fill: #2784f9;
      }

      .st29 {
        fill: #1c73f9;
      }

      .st30 {
        fill: #0b6ffc;
      }

      .st31 {
        fill: #84c8fc;
      }

      .st32 {
        fill: #f6fafd;
      }

      .st33 {
        fill: #b6d6fa;
      }

      .st34 {
        fill: #0d6bf4;
      }

      .st35 {
        fill: #106cf4;
      }

      .st36 {
        fill: #1472f7;
      }

      .st37 {
        fill: #1372f8;
      }

      .st38 {
        fill: #f8fbfd;
      }

      .st39 {
        fill: #1272f7;
      }

      .st40 {
        fill: #1068f5;
      }

      .st41 {
        fill: #1775f5;
      }

      .st42 {
        fill: #0f6ef5;
      }

      .st43 {
        fill: #0e72fb;
      }
    </style>
  </defs>
  <path class="st31" d="M161.28,49.34c3.05-3.68,5.7-.98,2.69,2.77-1.52.71-1.67,4.88-.3,4.7,3.11-.42,5.48-.61,7.03.97l-1.17,3.13c-12.34-1.06-15.99.06-10.97,3.37l-.09,3.19c-1.5.09-3.8.34-4.37,1.53s-.34,2.74,0,3.62c-3.2.92-6.34-1.21-9.41-6.39-5.94-.1-9.24,1.35-9.89,4.36-2.7,2.95-5.56,3.93-8.57,2.95-.03,1.95-1.2,3.69-3.51,5.24-3.61-.92-6.55-.03-8.82,2.68-8.05.79-11.18,4.11-9.38,9.96,7.47.52,11.96,3.06,13.47,7.62,2.55-.87,4.37-.5,5.46,1.13,2.6-.88,6.54-.07,9.83,0,.34,2.54.75,5.49.29,7.24-.15,5.37,13.19,6.18,13.22,1.81,3.93-4.77,9.42-8.22,12.54-1.66-.12.71.22,1.97.28,2.71,5.67,3.36-1.27,8.28-6.45,7.65,7.27,2.16,6.93,11.63-1.88,11.23.14,7.23-7.14,13.08-11.82,5.78-2.53-1.59-3.32-4.86-2.36-9.81-3.02-.71-4.68-2.17-4.98-4.4l-1.83-.63c-.43-3.97-2.26-3.83-5.5.41-.92-1.4-.41-3.59-2.73-5.38-2.6,1.17-6.2,1.36-7.37-.67,0-2.42.96-3.56,2.89-3.41-7.26-3.49-14.44-7.11-21.53-10.86-5.28-2.05-3.01-6.41,1.1-8.96-.61-5.06.41-8.31,3.07-9.73-3.88-2.33-1.84-4.49,1.37-6.7l-1.79-2.48c2.05-4.34,1.8-4.48-.74-.43-7.68,4.25-4.02-9.2-1.79-13.85l9.7.13.98,5.75,16.96-.03c2.09-1.69,4.09-3.59,6-5.72l1.14-.1c.64-1.89,2.13-3.03,4.48-3.41-1.13-5.71-.2-9.49,2.79-11.33,3.65-7.12,12.89-1.33,12.04,5.65,3.27-.84,7.08-1.58,9.89.39Z"/>
  <path class="st28" d="M36.31,43.3c-.26,2.58-2.21,3.34-5.85,2.28.02,6.21-.69,12.1-2.11,17.66,1.37-5.27,17.07,0,18.8,1.92,2.03,2.25,1.18,5.93-2.14,6.08-3.3.01-7.95-1.27-11.49.65l-7.98,4.33c-.54,1.21-.88,3.97-1.99,4.36s-4.89.91-5.99-.15c-1.94-3.19-.41-7.89,0-12.24l-11.43-.25c-.49-3.54-.6-6.38-.11-9.92l9.96-.59-.34-6.79c-2.97-.27-5.21.57-8.79,1.48-1.48-1.2-1.43-7.65.61-7.89,6.69-.57,13.14.14,19.12-1.72l-.04-10.8c3.19-.63,6.17-.58,9.65.13l.08,11.44Z"/>
  <path class="st5" d="M96.07,100.16c-2.04,12.92-2.44,29.43,0,42.88,7.37,2.59,11.18,7.2,11.44,13.84,4.02.93,3.85,2.65-.04,3.86-1.91-.98-3.99-1.73-5.89.15l-2.66-2.09c.66-2.01-.59-3.24-3.75-3.69.21,12.08-3.19,17.01-10.21,14.77-2.65-4.42-3.98-9.71-4-15.87-4.62,6.42-14.67,3.22-18.81-2.08,2.08-.87,5.51-2.03,7.67-1.95.19-2.12,1.91-3.32,5.16-3.6-2.74.3-4.59.41-5.42-2.77,1.82-1.99,5.18-2.01,9.14-1.48-.28-6.8-.84-12.18.62-19.57-4.56.91-7.67,1.34-9.6-.87.86-4.67,8.19-2.87,11.66-1.59.38-5.75.76-11.49,1.14-17.21l1.94-.95.85-1c-.92-4.36,9.72-4.97,10.76-.79Z"/>
  <path class="st42" d="M154.11,72.61l5,1.49c1.58.47,1.77,5.84.35,6.39-6.29,2.45-10.46-2.31-13.7-7.65-1.94-2.23-9.2-1.84-11.76.01l-2.02,4.56c-.45,1.02-4.03.67-5.48.61-3.37-.13-3.18,2.26-3.24,3.87-.21,6.21,4.4,4.65,4.78,7.21.69,4.68-6.72,3.72-4.57,11.06-1.61.55-2.81,1.92-5.1,1.82-3.22-.14-3.36-3-4.24-5.56-3.29-1.18-10.13-.45-12.07-3.67-1.32-3.14-.38-7.82-.13-10.8l10.78-3.1c1.6-.46,2.89-3.81,4.19-3.59l6.07,1.03c.23-1.88.38-5.68,3.33-5.47,1.77.13,3.46.33,4.93.03s1.1-4.28,1.72-5.38l12.69-2.61,8.48,9.74Z"/>
  <path class="st10" d="M103.08,17.4l9.3-1.31-.52,3.13c-2-.03-2.76,1.24-2.27,3.81,3.04-.37,4.85.58,5.43,2.84-1.76,1.71-4.3,1.76-7.73,1.12l.19,9.05-10.32.19c-.49-1.37-.04-2.85,1.36-4.42,1.95-.76.68,1.29-3.78,6.15l-.16,32.3-2.73,2.08c-2.09,3.7-4.68,5.74-7.78,6.12l-2.91-1.3c.7-12.94.97-26.06.81-39.36-3.06-2.36-5.06-5.05-6.01-8.09-3.11.46-5.16-.36-6.14-2.48-2.58.52-6.8.83-8.59-1.24.39-3.09,2.36-3.42,5.18-2.72-.31-3.89.75-6.26,3.16-7.11,1.05,0,2.9,1.57,3.05,2.6,3.31.1,7.49.85,8.8,5.01-2.7-15.94,15.34-16.88,13.34-.98,2.68-2.37,5.45-4.15,8.3-5.36Z"/>
  <path class="st4" d="M114.72,114.44l-3.93-.09c-3.09.72-4.64,3.28-4.67,7.69l-8.8.07.06,20.02,9.66.58c-.19,3.79-.29,6.68.45,9.65,4.32.41,4.13,3.22.02,4.52-1.18-4.95-3.66-7.24-9.04-8.87l-6.47-6.36-.27-38.83c.46-1.32,3.42-2.17,4.33-2.66,1.15-.98,1.15-2.33,1.82-5.08,1.04,3.45,2.6,4.93,5.86,6.29l7.93,3.29c3.95,1.64,6.64,4.87,11.61,4.19,1.17.42,1.24,5.17.1,5.21l-8.67.37Z"/>
  <path class="st24" d="M53.79,107.26c2.12.94,3.63,3.36,4.52,7.24-1.41,1.55-5.4,1.86-7.61,1.01-1.23,1.91-2.35,2.4-4.26,1.64-.45,2.77-.87,4.59-4.19,4.36-3.56,1.77-5.48,10.99,0,10.44l1.8,2.89c-2.15,1.9-5.04,1.79-7.74,1.32-2.55,6.56-10.5.49-11.47-4.7-4.91,2.25-11.96,3.05-14.62-2.28-.17-1.78,2.89-1.51,3.94-1.71,2.89-.55,2.42-4.37,2.25-5.84-1.26-3.28,7.73-3.31,8.14-2.9.54.55-.83,1.87-1.27-.27-3.42-.13-7.38-.85-9.08-4.18-4.06.77-6.85-.09-8.35-2.6,4.73-3.67,11.6,1.44,11.49-4.72,1.8-5.98,11.56-1.67,14.37,2.34,1.49,2.13-.91,2.19.28-2.09,3.09-.08,7.84.64,11.33-.42.48-1.58.4-4.57,1.65-5.45,2.35-.19,3.16.7,3.04,2.87,3.31-.63,5.24.38,5.8,3.01Z"/>
  <path class="st16" d="M138.22,135c.21-1.39.63-1.4,1.26-.08,2.67.28,5.16.5,8.6-.23l.25-8.29,5.99-.33c1.74-.1,2.69-3.56,1.45-4.45-2.74.15-4.55-.17-5.16-1.99-.55-1.66-.63-4.64,2.01-4.61,1.87.02,4.25,0,5.47-1.15.84-.78,1.32-2.09,1.55-3.61l11.31.34.11,10.65-11.18.44c-.94.48-.86,4.61,0,5.09,1.15.65,3.43,1.06,6.43.46.39,2.82-.09,5.63-.76,8.4l-15.99-1-.22,13.37c-3.33.38-6.24.38-10.12-.29-.17-4.7.52-8.85-.97-12.71Z"/>
  <path class="st36" d="M84.08,78.44c.01,2.22-1.28,3.9-3.87,5.02-.13,2.94-1.14,4.94-3.01,5.99,3.23,7.15-5.11,9.47-7.24,3.45-1.3-.09-1.35-.59-.27-1.48-.93-3.71-2.06-11.69,1.83-12.41-4.64-1.65-7.26-4.26-7.87-7.84.63-4.21,5.81-3.95,6.65.11,1.15-4.43,5.75-3.47,4.9,1.23,7.56,2.25,5.46-12.81-4.11-7.38-.21,1.29-.63,1.28-1.25.06-3.11-.14-3.99-1.21-1.03-2.04-.22-4.1,2.87-5.61,9.26-4.53,2.09-2.03,1.37-18.48.39-22.57l-8.59.05-.04-8.91c2.19-.44,7.54-1.52,8.71,1.35s1.54,5.95,5.49,7.12l.04,42.77Z"/>
  <path class="st23" d="M101.58,160.89c-.96.18-5.12-.35-5.2,1.91l-.36,11.15-16.29.03-.5-12.31c-3.24.35-6.16-2.19-8.09-3.24-2.41,1.54-4.73,3.72-9.3,2.61-.45-2.66-.78-6.12.31-9.09,7.26-.88,10.93,6.28,14.18,2.46,1.52-1.79,4.75-5.13,7.62-2.93l.9,11.34c.16,2.02.05,3.6,1.53,4.69.89.65,4.68.41,4.8-.88l1.5-16.13,10.4,4.84c-1.22,1.99-1.31,4.17-1.51,5.57Z"/>
  <path class="st37" d="M97.18,36.22l.12,21.8c.02,3.06,8.03-.26,9.01,2.03.4.94-.03,3.57-1,3.89-.64.21-2.52.09-3.63-.17-3.74-.88-4.75.72-4.51,3.61.13,1.61-.53,4.37,1.93,4.48.52-.69.76-.51.74.43,1.98-1.1,7.59.07,5.87,3.29-.98,1.84-5.7,2.1-5.45,5.89-3.64,5.9-16.34-4.61-8.38-9.15l.49-36.98c3.14-1.17,6.62-2.93,5.01-8.01,3.09-1.18,6.21-1.1,9-.53-.05,3.81.31,5.59-1.48,8.51-2.62-1.51-7.7-1.06-7.69.9Z"/>
  <path class="st8" d="M69.85,65.2c-1.75,3.1-5.86,4.06-12.33,2.87,3.47-.58,5.52.45,6.14,3.11,3.09.93,5.1,3.25,8.43,4.88l3.34,1.64c.78.38.25,3.38-.61,3.58l-3.99.9c-1.98,2.42-1.07,6.69-1.14,9.25-5.46.69-6.47-7.15-1.28-8.53-3.54-2.93-11.14-3.79-10.88,2.62-1.15.87-2.41.86-3.75.15l-.12-7.51c-3.46.49-6.83.66-8.61-1.35,1.16-2.18,1.63-3.5-.04-5.57.02-1.33.68-3.74-.4-4.83-.79-.8-3.31-.53-4.98-1.1l-5.55-1.88c-1.24-.42-3.83.2-3.94,4.16-12.01-5.26,1.43-8.82-3.46-24.31,4.5-1.32,6.92.02,9.62.03,3.11,1.59,4.13,5.55,3.07,11.89,2.5.64,4.15,1.98,4.96,4.01,2.49,2.11,4.64,1.74,6.47-1.11,1.73-.1,1.43,4.13,1.62,5.79,4.44.55,10.85-.12,15.28-.53.68-2.12,1.53-5.32,3.06-5.33l7.65-.07.05-21.89c.51,0,1.47.28,1.47,1.48l-.02,21.74-10.03.14-.03,5.78Z"/>
  <path class="st25" d="M103.08,17.4c.89,3.58-8.21,9.45-9.51,9.12-3.3-.84-.47-8.81-2.03-11.09-.89-1.3-4.72-1.01-6.33-.53-2.35.71.46,8.92-1.63,11.33-.62.71-3.16.47-3.94-.15s-1.33-2.37-1.95-3.59c-2.94-.61-4.75-1.64-5.06-3.76,1.72-.78,6.48-1.11,6.66-3.63l.78-11.07,16.14-.14.35,12.37,6.52,1.14Z"/>
  <path class="st0" d="M85.32,100.96c-.15.34-.37.75-.85,1-1.31,3.38-2.11,3.47-4.67.92-1.19,2.01-2.56,3.15-4.11,3.43-2.11-2.43-4.42-2.34-6.92.26-2.65,4.45-12.86,5.96-14.97.68-1.86-2.48-4.18-3.49-6.96-3.02l-1.88-2.86c1.89-2.02,5.34-1.6,8.79-.95l-.07-6.38c3.65-2.52,4.45.57,4.58,4.25.87-1.33,2.16-2.69,3.88-4.08-.29-4.28,6.17-5.26,7.82-1.33l4.9.33c1.7.12,2.61-1.81,2.34-3.78l3.72,1.03c.92,3.91,2.39,7.4,4.4,10.47Z"/>
  <path class="st35" d="M84.47,101.96l-.32,40.25c-.01,1.59-2.41,1.8-3.23,1.19-.46-.33-.76-1.61-.77-2.72l-.2-18.73-10.23-.25.08-1.24-1.58-6.29c4.03,0,7.91-.36,11.64-1.07-5.1-.88-3-7.85-.08-10.22,1.43-.99,3.13-1.41,4.67-.92Z"/>
  <path class="st2" d="M36.31,136.18l.03,11.65c-3.53.98-6.57.99-9.83.09l-.24-12.64-15.48-.23-.57-5.85c2.62-.89,5.32.9,7.8,2.23,2.67-.93,5.42-4.06,9.89-3.43-.31,1.71-.47,5.91,1.14,6.87,2.42,1.44,5.3.97,7.26,1.3Z"/>
  <path class="st9" d="M161.09,47.09c2.82.05,2.87,1.18.19,2.25-1.49,1.74-4.2,2.26-7.48,1.47l-3.52,5.97c-1.84-4.07-1.83-8.27-2.13-13.05-3.48-.83-6.12-.56-8.81-.43v-11.69c3.59-.57,6.67-.44,9.83.18l.34,12.04c5.32-1.63,8.96-.38,11.57,3.27Z"/>
  <path class="st15" d="M159.35,107.55c-2.92-.32-5.88-.55-9.46.17l-.75,6.96-16.54-.51c-1.32-1.85.09-5.41.99-6.77l12.68-.37c1.47-6.03,7.85-10.5,12.97-6.65,1.48,1.57.41,5.51.12,7.17Z"/>
  <path class="st36" d="M68.41,82.89c.04,2.71-1.2,3.15-3.59,2.77,1.01,4.52.12,7.38-2.68,8.58.05,1.9.33,5.12-1.05,6.4-.99.92-4.91.9-5.49-1.11-.45-1.54-.15-5-1.92-5.47-2.51-.68-4.83-1.66-4.39-4.96.25-1.9,2.6-2.71,4.49-3.43,2.27-.85,1.14-5.34,1.59-6.87,7.85-1.05,13.82-.15,13.04,4.1Z"/>
  <path class="st29" d="M50.81,58.09c.33,1.53.66,4.85-.78,5.34-6.11,2.09-6.35-6.87-13.5-4.48l-.22-15.65c2.65-.07,5.39-.89,8.59.13l.14,14.29c2.41.73,4.05.48,5.78.37Z"/>
  <path class="st40" d="M170.7,57.78c.63,3.21.78,7.26-.15,10.32-4.88-.27-8.87.62-12.09-.64-3.25-1.27-7.39-5.72-5.08-8.37l5.2-1.39,1.98-4.71c.3,1.95.87,4.84,2.74,5.12,2.5.36,4.68.13,7.4-.34Z"/>
  <path class="st34" d="M31.98,107.25c1.11,3.59,15.05-1.26,11.6,5.07-.41.76-1.32.88-2.82,1.17l-10.47,1.96-1.6-6.23c-4.01-1.65-7.63-2.62-11.36-2.21-1.03-1.42-1.28-6.5.5-7.57,5.87-.93,12.61,2.84,14.15,7.82Z"/>
  <path class="st19" d="M16.4,121.65l-10.41-.03-.16-9.9c3.51,0,6.87-1.06,10.08.38,3.98,6.76,11.78-.53,10.43,9.08-3.16.87-6.7.48-9.94.48Z"/>
  <path class="st17" d="M75.68,106.31l.47,1.88c-2.21,1.43-4.37,3.09-6.5,4.97.12,1.76-1.3,1.95-4.26.55l-5.81.9-1.26-.11-6.03-.25c1.7-2.42,1.4-4.66,1.51-6.99,3.94.04,10.21,1.09,13.7-2.12,2.11-1.93,2.81-4.3,6.06-3.6,2.16.47,2.52,2.64,2.13,4.77Z"/>
  <path class="st43" d="M132.15,120.71l7.41,1.23c1.07,4.61.28,8.9-.08,12.98-.34-.04-.98-.08-1.26.08-1.13.68-4.89.85-5.55-.39l-.77-12.97c-2.37.52-6.34.83-7.08-1.16.84-4.54,6.71-4.3,7.33.23Z"/>
  <path class="st30" d="M139.35,43.29l.15,14.6c-3.04.81-5.23-.04-7.41.15l-.04-14.41,7.31-.33Z"/>
  <path class="st18" d="M42.26,121.52c3.15-1.86,3.68-.23,1.58,4.89.87,2.68,1.06,5.67.21,8.44l-7.27.07c-.27-4.58-1.29-8.74.04-12.9.42-1.32,4.5-1.04,5.44-.5Z"/>
  <path class="st20" d="M69.59,16.13l.25,11.07c-3.34-1.3-5.9-1.46-8.59-1.24l.29-9.81,8.04-.02Z"/>
  <path class="st33" d="M110.79,114.35c-5.09.73-2.43,7.67-4.67,7.69l.06-7.04c-2.52-1.51-5.72-1.17-8.59-.99l-.5-6.98,9.52.62c.13,3.6,1.9,5.29,4.17,6.69Z"/>
  <path class="st41" d="M115.03,25.87c-3.77.4-6.45.68-8.52-.44.35-2.68-.02-5.03.91-7.1.56-1.26,2.85-1.68,4.96-2.24,3.43-.91,3.37,3.03,2.65,9.78Z"/>
  <path class="st1" d="M107.48,160.74l.04-3.86c.04-1.44.34-3.1-.02-4.52,1.87-.9,6.47-1.59,7.33.64.69,1.78.66,6.7-.88,7.82-1.28.94-5.06.64-6.48-.09Z"/>
  <path class="st39" d="M50.71,115.52c.42,1.98.81,3.66,0,6.09-4.16-.4-6.31,1.76-6.86,4.81l-1.58-4.89,1.53-5.47c.93-3.34,5.14-1.21,6.92-.53Z"/>
  <path class="st3" d="M170.23,52.14l-6.26-.03c.06-1.12-1.6-2.59-2.69-2.77l-.19-2.25c-.07-.86,1.23-1.56,1.61-2.17,7.38-2.7,9.63-.15,7.53,7.22Z"/>
  <path class="st26" d="M69.82,149.99l-.26-6.37,10.68-.27c-1.27,6.43-6.14,6.8-10.43,6.64Z"/>
  <path class="st14" d="M45.05,76.81l-.04-5.57,8.72-.03c.28,2.05.42,3.23-.09,6.6-3.2-1.12-5.87-1.23-8.6-1Z"/>
  <path class="st21" d="M130.94,58.14c.66,1.32,1.31,3.76.61,4.92-1.08,1.78-5.03.8-6.62.8-.61-1.67-.77-5.43.84-5.5l5.16-.22Z"/>
  <path class="st0" d="M69.65,113.16c.57-4.39,9.33-4.24,10.22-.05,0,3.12-8.85,0-9.93,2.23-.68,1.41-.27,3.8-.13,5.14-1.71-.68-1.3-4.17-2.11-5.22-1.89-1.57-6.17-.48-8.12-.65,2.62-2.48,6.7-1.4,10.07-1.45Z"/>
  <path class="st31" d="M170.23,52.14l-.43-7.18-7.1-.04c1.17-1.9,5.77-2.44,7.74-1.23,2.01,1.23,1.51,7.39-.21,8.45Z"/>
  <path class="st38" d="M91.86,72.33l.72,6.14,7.67,3c.23,3.43.24,8.09-.46,11.9-1.81.63-3.71,1.93-3.84,3.06-.16,1.35-.1,2.6.13,3.72l-10.76.79c-1.23.32-5.05-.48-5.19-2.13-.35-4.24-1.52-6.52-2.93-9.38-.86-1.75-.69-5.7.73-7.74,1.12-1.62,3.88-2.58,6.16-3.27,1.38-.42,1.81-3.91,1.29-5.94,2.98-.81,4.47-.29,6.49-.17Z"/>
  <path class="st42" d="M120.64,65.05c7.91.01,4.42,6.87-12.99,6.94-.83-1.33.1-4.79-.56-6.96l13.55.02Z"/>
  <path class="st22" d="M131.54,101.97c1.43.42,1.05,5.26-.24,5.34l-5.73.35c-1.98.12-3.05-3.31-1.65-5.93,1.74-.27,4.72-.61,7.62.24Z"/>
  <path class="st38" d="M99.82,72.3c-.48.3-.84.07-.74-.43-.53-1.39-.97-5.95.5-6.7,1.16-.59,4.37-.12,5.75-.1,1.29.03,1.66,5.46.32,5.79l-5.83,1.44Z"/>
  <path class="st13" d="M132.15,120.71c-2.47-.41-4.99-.6-7.33-.23.04-1.12-.89-4.18.1-5.1,1.17-1.09,4.98-1.35,6.36-.66,1.72.87,1.34,4.39.87,5.99Z"/>
  <path class="st12" d="M114.95,82.65l-.06,11.39c-3.18-.04-5.48.03-7.66-.79-.6-2.64-.72-6.15.45-7.72.91-1.22,2.91-2.18,7.27-2.88Z"/>
  <path class="st6" d="M53.79,107.26l-8.79-.19-.05-5.69,9.14-.04c.59,2.57-.23,4.25-.31,5.92Z"/>
  <path class="st27" d="M69.85,65.2c4.28.32,4.45,4.8.45,6.1l-6.65-.11-9.76-.33.4-5.69,15.55.04Z"/>
  <path class="st7" d="M68.41,82.89c-.53,2.9-.58,6.26,1.28,8.53.14.33.18.99.27,1.48l-7.82,1.33-.31-11.68,6.58.33Z"/>
  <path class="st32" d="M75.21,72.52c-.76-1.06-3.61-1.21-4.9-1.23l-.45-6.1,1.25-.06c9.47-5.08,11.6,9,4.11,7.38Z"/>
  <path class="st8" d="M75.21,72.52c1.34.43,3.16-.12,3.18-1.03l.13-5.65c-2.24-1.14-4.98-.81-7.42-.71,1.94-1.88,5.42-1.99,8.66-1.05.2,2.96.88,6.71-.38,9.28-.8,1.63-3.52.06-4.17-.84Z"/>
  <path class="st11" d="M79.79,102.89l.08,10.22-10.22.05c-.19-1.53-.81-5.05,1.02-5.53l5.01-1.31c.74-.19.91-2.59,1.52-3.66.55-.95,1.79-.48,2.59.23Z"/>
</svg>