<?xml version="1.0" encoding="UTF-8"?>
<svg id="_레이어_1" data-name="레이어_1" xmlns="http://www.w3.org/2000/svg" version="1.1" viewBox="0 0 177.48 177.48">
  <!-- Generator: Adobe Illustrator 30.3.0, SVG Export Plug-In . SVG Version: 2.1.3 Build 182)  -->
  <defs>
    <style>
      .st0 {
        fill: #7fabf4;
      }

      .st1 {
        fill: #254090;
      }

      .st2 {
        fill: #18348c;
      }

      .st3 {
        fill: #588bed;
      }

      .st4 {
        fill: #b35e14;
      }

      .st5 {
        fill: #cd750d;
      }

      .st6 {
        fill: #be650a;
      }

      .st7 {
        fill: #1a378e;
      }

      .st8 {
        fill: #1b3383;
      }

      .st9 {
        fill: #7ba9f2;
      }

      .st10 {
        fill: #f6db68;
      }

      .st11 {
        fill: #f1a612;
      }

      .st12 {
        fill: #b95e0f;
      }

      .st13 {
        fill: #c2630e;
      }

      .st14 {
        fill: #fcf7be;
      }

      .st15 {
        fill: #ba6109;
      }

      .st16 {
        fill: #b4620b;
      }

      .st17 {
        fill: #78a4f1;
      }

      .st18 {
        fill: #fcf9ee;
      }

      .st19 {
        fill: #c26a07;
      }

      .st20 {
        fill: #c36e17;
      }

      .st21 {
        fill: #d16c0c;
      }

      .st22 {
        fill: #f8dd37;
      }

      .st23 {
        fill: #fcf8c1;
      }

      .st24 {
        fill: #fbf4ec;
      }

      .st25 {
        fill: #b9640a;
      }

      .st26 {
        fill: #fbee77;
      }

      .st27 {
        fill: #77a6f1;
      }

      .st28 {
        fill: #faf1e6;
      }

      .st29 {
        fill: #fcf4db;
      }

      .st30 {
        fill: #f5c729;
      }

      .st31 {
        fill: #c56806;
      }

      .st32 {
        fill: #f6cc24;
      }
    </style>
  </defs>
  <path class="st15" d="M103.89,45.06c5.18.23,5.7,9.31.9,10.8,5.13.98,4.09,11.26-.94,11.87l3.44,1.92c.06,9.85.13,19.71.19,29.57l-3.42,2.45c1.48.53,1.45,1.1-.05,1.72,5.15.13,4.71,9.62-.19,10.39,4.84.59,5.31,10.79.12,12.04l3.43,1.92c0,10.53,0,21.06,0,31.6l-3.43,2.4c5.39,1.41,4.61,11.86-1.13,11.99l-31.19.12c-5.25-.58-5.13-11.07-.22-12.18-1.34-.17-3.32-.59-3.43-1.56-.8-7.27-1.09-37.45.17-43.91l3.44-2.49c-5.19-.09-4.86-11.04.1-11.87l-3.44-1.93c-.05-9.89-.11-19.78-.16-29.68l3.42-2.46c-2.61-.61-4.18-3.1-4.74-7.47l-38.09-.9-2.4-3.49.45-9.5c2.7-9.87,15.7-4.54,15.58,5.64l24.93-.12c.39-10.45,9.45-15.06,16.08-5.88-1.03,6.23,1.01,8.46,6.13,6.69-1.06-8.95,10.26-16.51,14.45-7.68Z"/>
  <path class="st7" d="M71.69,101.84l-.1,11.87-1.55,3.43-40.38.32-.51,40.59,39.8.18,2.46,3.43.22,12.18-56.96.11-.93-71.76c-1.34-.35-3.34-.88-3.46-1.92-.4-3.44-.94-30.11-.4-31.6,1.48-4.04,3.74-4.71,5.26-.68l3.41,2-.35,28.7,50.97-.29,2.54,3.41Z"/>
  <path class="st2" d="M126.34,173.24l-23.53.51c1.13-3.85,1.13-7.96,1.13-11.99.07-1.49.8-2.5,1.87-3.43.84-.74,21.07-1.38,20.56,3.39l1.86-3.43,17.05-.27.08-40.63c-5.6.82-8.66-.3-9.18-3.35l-27.39.68c-1.22,4.11-3.48,2.95-4.96-.93l.19-10.39c17.56-.93,35.54-1.15,53.94-.66,2.57-2.24,3.24-2.1,1.78.71l.1,69.41-33.5.39Z"/>
  <path class="st1" d="M126.29,55.92c.58-5.19,10.92-4.94,11.92.02,1.57-4.97,9.05-4.61,10.46.29l21.59-.08.07,46.14-9.89.39.4,71.02-34.49-.46c10.46-2.56,21.07-.68,32.75-1.24l-.05-68.56-55.02-.05.05-1.72,1.57-3.42,50.08.32.75-26.85-50.18-.54-2.44-3.45.94-11.87c.18-1.31.47-3.17,1.47-3.43,3.56-.93,19.38-1.19,20.03,3.49Z"/>
  <path class="st32" d="M59.54,3.91c2.67,2.76,1.71,7.13,1.42,10.69,3.1.06,4.08,2.91,2.96,8.55,4.05-.75,6.6.31,7.66,3.2,2.13,2.05,4.1,4.75,5.91,8.09,1.1-1.21,2.95-.63,5.55,1.72,3,5.2,7.14,4.11,12.42-3.28l7.15-.28c6.24,5.73,6.66,9.89,1.28,12.46-2.27.1-6.93-1.18-9.43.75-1.9,1.47-1.25,6.56-1.24,9.08-3.48,2.14-11.11,2.47-12.56-.97-1.12-2.65.24-7.7-1.43-8.61-1.86-1-6.77-.84-7.36.95s-.68,4.8.16,9.08l-33.84.16-.17-9.22c-3.75-1.83-8.04-1.64-11.3.13-.54-.13-1.11-.86-1.21-1.42-4.9-1.32-3.54-8.73,1.35-8.95l.48-2.34c4.46-.56,7.84-2.43,10.12-5.59-1.59-.72-1.57-1.36.08-1.92.84-2.76,3.58-3.72,8.22-2.87,1.38-3.34-1.18-4.93-7.66-4.77-3.24,2.13-9.63.96-11.58-2.53,2.66-2.5,6.47-2.09,11.08-1.32-.58-4.85-.89-8.46,1.39-10.77,3.06-.36,4.22,1.94,3.46,6.9l12.93.8c.06-4.04,1.45-6.61,4.15-7.73Z"/>
  <path class="st8" d="M26.27,55.91l44.83,1.06.4,10.8c-.15,1.34-.57,3.35-1.52,3.44-9.99.94-43.58,1.84-52.36.23l-2.5-3.42c-.73-1.01-1.9-.38-1.88,1l.48,33.2-10.03-.04v-45.92s22.58-.35,22.58-.35Z"/>
  <path class="st11" d="M148.63,27.98c.26,3.07-2.36,4.27-7.86,3.59,1.67,6.63.81,11.1-2.6,13.4,5.15.66,4.95,9.83.05,10.96l-11.92-.02c-5.15-.06-4.88-9.62,0-10.49-2.55-.98-3.4-3.05-2.55-6.24-4.27.6-6.82-.42-7.65-3.07-3.38,5.73-13.13,1.44-15.13-3.91-4.41-.81-6.25-2.77-5.55-5.88l8.96.06c.68-5.18,8.84-2.71,11.88-.18l1.91-3.42c20.64,1.94,21.78-5.28.25-3.5l-2.38-3.4c.03,5.14-10.91,5-11.83,0,3.1-2.81,7.85-1.62,11.78-1.68l1.79-3.46,15.14-.22c-.24-3.91,1.14-6.1,4.12-6.57,2.37.79,1.71,6.95.89,9.87,4.11,1.44,6.61.89,10.1,1.06l.6,13.07Z"/>
  <path class="st5" d="M116.1,36.13c5.06.52,4.92,8.1.13,9.14-.76,5.19-11.3,4.78-12.33-.2-.16-1.97.68-5.55-.58-8.12-.9-1.82-4.71-1.38-6.75-.84-2.22.59-3.01,2.97-4.5,5.85-1.72,1.65-9.06.82-10.47-1.45-1.06-1.7-1.64-6.22-4.08-6.07-4.33-3.7-2.52-6.86,2.82-5.11-.28,1.65.27,4.05,1.42,4.79,1.95,1.25,8.87,1.1,10.41-.06,2.01-1.53-.15-7.39,3.27-7.71,2.17,1.81,5.1,1.59,8.23,1.69.56,3.18.8,4.7,2.04,7.27,4.26-.92,7.44.15,10.4.83Z"/>
  <path class="st20" d="M37.54,26.19c-.08.43-.28,1.43-.08,1.92l-1.33,3.27c-3.61-.26-6.69,1.29-9.26,4.67l-1.35,8.95-10.36-.22c-.09-6.24-.97-11.56.6-17.64,5.4,1.8,9.51.45,10.73-3.09,3.04-2.7,9.6-2.07,11.06,2.14Z"/>
  <path class="st6" d="M59.54,3.91c.26,4.34.58,7.94-1.04,11.36l-19.59-1.21.08-10.12,20.54-.02Z"/>
  <polygon class="st25" points="137.04 3.97 136.27 13.93 115.99 14.23 116.4 3.95 137.04 3.97"/>
  <path class="st4" d="M148.79,45.13c-5.34-.88-5.31-15.6-.16-17.15l11.32.63.07,15.7c-4.13,1.18-7.69.89-11.23.83Z"/>
  <path class="st5" d="M116.04,15.9c5.15-.08,5.09,9.37.22,10.32-3.61,2.87-7.91.2-11.88.18l-.18-10.49h11.83Z"/>
  <path class="st21" d="M71.58,26.35c-3.66.33-7.33.53-11.56-.23l.94-11.53c2.19.06,7.37-1.12,9.44.87,2.6,2.5,1.38,8,1.18,10.88Z"/>
  <path class="st16" d="M148.79,45.13l-.12,11.1c-3.77.01-6.77-.28-10.46-.29l-.05-10.96c.15-5.16,9.78-4.75,10.62.15Z"/>
  <path class="st13" d="M38.1,18.55c5.03.62,4.24,6.87-.56,7.64-3.97-.02-8.08.79-11.06-2.14-.35-2.77-.57-5.46.05-8.03,4.28-.74,8.83-.85,11.58,2.53Z"/>
  <path class="st12" d="M80.32,29.33c-1.66,1.22-2.54,3.06-2.82,5.11-1.18.07-3.86,1.38-5.27-.4-1.5-1.91-.79-5.6-.65-7.68l5.98-.41c1.55-.12,3.18.89,2.76,3.38Z"/>
  <polygon class="st9" points="71.58 113.72 71.4 161.68 25.67 161.67 26.27 113.78 71.58 113.72"/>
  <polygon class="st27" points="71.5 67.77 71.69 101.84 14.71 102.24 15.12 68.02 71.5 67.77"/>
  <polygon class="st17" points="104.07 101.68 103.85 67.74 159.97 68.28 159.37 102.04 104.07 101.68"/>
  <path class="st0" d="M126.37,161.71l-22.42.04v-35.93s1.78-3.3,1.78-3.3c4.6,1.21,5.02-.91,1.25-6.36,4.97-2.16,29.77-3.57,32.95-.45,1.3,1.28.74,34.85-.35,36.32-2.74,1.68-5.95,2.64-9.63,2.86.7,3.9-.49,6.17-3.58,6.81Z"/>
  <path class="st3" d="M126.37,161.71l.22-10.33,10.68-.88-.81-36.21-27.89,1.36c2.13,1.4,3.64,2.49,4.3,4.21.46,1.18.56,4.48-.64,5.19-2.68,1.58-5.9.93-8.29.78l-.12-12.04,44.97-.06-.1,47.94-22.33.04Z"/>
  <path class="st30" d="M80.55,76.75c1.64-.25,3.83.06,4.13,1.45,2.06,21,5.75,3.41,5.61-7.23l3.63-2.06-.35,92.26-13.32.35.46-55.83-.17-28.94Z"/>
  <path class="st23" d="M93.92,68.91l-1.98,21.82c-4.15.07-6.96.91-10.26,1.91.36-6.76.91-11.24-1.14-15.9l-.26-7.89,13.64.05Z"/>
  <path class="st22" d="M116.22,45.26c-.56-5.15,9.29-4.74,10.07.17v10.49s-21.51-.06-21.51-.06l-.9-10.8,12.33.2Z"/>
  <path class="st18" d="M37.54,26.19l.56-7.64c2.13-3.13,6.72-3.56,10.79-2.17.3,2.48.92,7.18-.65,9.15-2.72,2.67-7.83.67-10.71.66Z"/>
  <path class="st28" d="M59.59,35.51c-.22,3.47.51,6.45,1.17,9.17-4.16,1.53-8.91,1.75-10.79.11-3.17-2.78-.4-7.71-.63-10.29.53-5.12,9.9-3.94,10.25,1.01Z"/>
  <path class="st31" d="M63.09,35.47c2.87-.61,6.76-.6,7.72.91,1.37,2.15,1.46,7.39-.48,8.31-2.33,1.1-7.57,1.13-8.65-.75-1.29-2.23-1.76-7.8,1.41-8.47Z"/>
  <path class="st19" d="M59.59,35.51l-10.25-1.01c-.4-4.43-.64-7.53,2.62-7.95,2.29-.3,6.5-.69,7.34.89,1.05,1.98.44,5.87.29,8.08Z"/>
  <path class="st29" d="M37.46,28.11c.74,1.81.86,5.67-1.7,6.73-3.05,1.27-6.32.91-8.9,1.2l.08-7.82,10.51-.12Z"/>
  <path class="st26" d="M116.26,26.22l-.22-10.32,20.69-.24c1.17,3.25.88,9.63-1.43,10.68l-19.04-.12Z"/>
  <polygon class="st10" points="148.63 27.98 148.79 45.13 138.16 44.98 137.1 27.94 148.63 27.98"/>
  <path class="st24" d="M126.3,45.43l-10.07-.17-.13-9.14c2.38.54,7.06-2.24,10.08.8,2.22,2.23.12,6.46.12,8.5Z"/>
  <path class="st14" d="M91.67,149.85l-8.37,2.42,1.46,7.91-2.45.02-.3-36.1c3.18,1.74,5.87,2.3,9.84,2.32l-.18,23.42Z"/>
</svg>