<?xml version="1.0" encoding="UTF-8"?>
<svg id="_레이어_1" data-name="레이어_1" xmlns="http://www.w3.org/2000/svg" version="1.1" viewBox="0 0 177.48 177.48">
  <!-- Generator: Adobe Illustrator 30.3.0, SVG Export Plug-In . SVG Version: 2.1.3 Build 182)  -->
  <defs>
    <style>
      .st0 {
        fill: #70471b;
      }

      .st1 {
        fill: #7a5329;
      }

      .st2 {
        fill: #70471d;
      }

      .st3 {
        fill: #71471b;
      }

      .st4 {
        fill: #d89564;
      }

      .st5 {
        fill: #754b20;
      }

      .st6 {
        fill: #3c241c;
      }

      .st7 {
        fill: #fdfdfc;
      }

      .st8 {
        fill: #c78049;
      }

      .st9 {
        fill: #815426;
      }

      .st10 {
        fill: #6f471a;
      }

      .st11 {
        fill: #faafb3;
      }

      .st12 {
        fill: #f5afb3;
      }

      .st13 {
        fill: #2d1815;
      }

      .st14 {
        fill: #b56f39;
      }

      .st15 {
        fill: #77491d;
      }
    </style>
  </defs>
  <path class="st15" d="M146.57,139.63l-.41,1.35-16.75-1.47c-.25-2.88,1.54-4.17,5.38-3.86l8.78.19.06-94.51,2.75-1.64,8.96.55.03,98.91-8.81.47Z"/>
  <path class="st5" d="M136.61,30.25l-1.29,2.75c-30.75-.09-61.51-.19-92.27-.28l-1.66-2.76.12-8.97,94.97-.27.14,9.53Z"/>
  <path class="st3" d="M146.39,148.14c-.02.46-.54,1.36-1.56,1.35l-16.31-.2-.3,9.1-80.97.05c1.35-5.21.43-9.04-3.3-10.02.57-2.83,3-2.99,3.54.13l1.28-2.75,75.73.19c.62-4.27,2.26-6.43,4.91-6.48l16.58,1.76c-1.22,3.51-1.08,5.8.4,6.85Z"/>
  <path class="st2" d="M29.34,40.7l2.76,1.26c-.02,31.34.21,62.65.7,93.93l11.93-.12c2.79-.05,3.69,1.32,2.78,4.08-.11.47-.23.83-.36.84-20.31.82-21.95-1.26-.31,0,.29.02.56.39.83.86.95.66.84,1.08-.31,1.27l-1.02,3.76c-3.87-.25-7.25.4-10.16,1.94-1.53.28-4.85,1.23-6.38-.72-.55-1.6.79-5.85-1.07-7.82-1.37-1.46-4.84-.71-6.35-.76-.79-32.87-1-65.83-.62-98.88l7.59.38Z"/>
  <path class="st1" d="M41.38,29.96c7.94,7.91-4.41,18.95-12.04,10.74l-6.9.11-.07,98.39c-.79-.81-1.36-1.75-1.36-3.35l.04-96.12,8.25.21.27-9.8c4.05.01,7.55.79,11.14-.92-.79-3.47-.76-6.3.8-8.24.31,3.06.87,6.27-.12,8.97Z"/>
  <path class="st9" d="M146.39,39.71c.3,3.05-1.53,3.13-4.05,3.22-8.67.3-11.73-8.43-5.73-12.68l9.59.05c1.14,3.26.2,6.48.19,9.41Z"/>
  <path class="st0" d="M146.57,139.63l-.18,8.51c-5.61-.66-11.51,1.97-17.8-1.5,6.54-.95,11.85-.26,17.69-4.27l-16.87-2.84,17.16.11Z"/>
  <path class="st10" d="M47.49,148.56l-3.54-.13c-2.49-.09-5.32-.37-7.79.08.99-5.17,7.59-.87,11.18-5.71,4,.47,4.02,4.7.15,5.76Z"/>
  <path class="st7" d="M136.61,30.25c.2,2.22-.57,6.33.81,8.95,1.71,2.12,6.59.47,8.97.51l-.07,99.18c-6.06-.13-11.94-1.4-16.91.63-1.63,2.64-1.01,5.38-1.31,9.24l-80.61-.21-.15-5.76c0-.33.11-1.07.31-1.27-1.33-.61-1.43-1.16-.15-1.69-.53-.78-1.47-1.36-2.94-1.34l-14.8.17-.42-97.97c3.01-.05,7.54.27,10.89-1.27,1.08-2.31.36-7.32,1.15-9.48l95.22.29Z"/>
  <path class="st10" d="M47.5,139.85c1.21-.05,1.4,1.37.15,1.69l-17.22-1,17.06-.69Z"/>
  <path class="st12" d="M110.73,111.14c.08-2.62,2.31-3.6,6.69-2.95l.65-12.02,2.85-1.71c1.12,5.42.85,10.59-.3,17.25,5.74-.03,11.2-1.6,15.53.12,1.88,1.34,1.62,8.55-.62,8.58l-15.27.18-.26-9.53c-2.74,1.86-8.54,2.46-9.28.08Z"/>
  <path class="st11" d="M65.05,111.21c-.77,1.95-5.48,1.63-8.82.33l-.58,9.17-16.52-.02-.09-9,16.54-.1.43-7.61c2.39-.27,3.52,1.09,3.39,4.07,3.02.11,4.91,1.17,5.66,3.17Z"/>
  <path class="st13" d="M120.92,94.46l-.87,16.41-9.32.27.31-17.06c3.52-.64,6.35-.68,9.88.38Z"/>
  <path class="st6" d="M65.05,111.21l-8.5.38c.6-3.66-.57-5.53-.55-7.62l.08-9.99c3.22-.29,5.98-.58,8.95.46l.02,16.77Z"/>
  <polygon class="st14" points="98 129.2 81.82 129.14 81.76 120.67 97.77 120.78 98 129.2"/>
  <path class="st8" d="M81.91,117.11c0,4.04-1.63,3.77-3.76,3.7-2.45-.08-3.67-.69-3.42-4.41.08-1.15-.22-3.62.72-4.03,1.17-.52,2.93-.37,4.1-.35,1.79.04,2.36,2.28,2.36,5.1Z"/>
  <path class="st4" d="M102.26,115.75l-.16,4.11c-.03.88-2.23,1.46-3.18.82s-.63-2.65-.62-4.01l.02-3.39c0-.75.76-1.48,1.83-1.4,1.37.11,2.2,1.28,2.1,3.86Z"/>
</svg>