<?xml version="1.0" encoding="UTF-8"?>
<svg id="_레이어_1" data-name="레이어_1" xmlns="http://www.w3.org/2000/svg" version="1.1" viewBox="0 0 177.48 177.48">
  <!-- Generator: Adobe Illustrator 30.3.0, SVG Export Plug-In . SVG Version: 2.1.3 Build 182)  -->
  <defs>
    <style>
      .st0 {
        fill: #0672f2;
      }

      .st1 {
        fill: #baddfc;
      }

      .st2 {
        fill: #bfe1fc;
      }

      .st3 {
        fill: #0470f0;
      }

      .st4 {
        fill: #0676f2;
      }

      .st5 {
        fill: #c8e7fd;
      }

      .st6 {
        fill: #c1e2fc;
      }

      .st7 {
        fill: #b9e0fd;
      }

      .st8 {
        fill: #0574f5;
      }

      .st9 {
        fill: #bee0fc;
      }

      .st10 {
        fill: #0574f1;
      }

      .st11 {
        fill: #b4dbfc;
      }

      .st12 {
        fill: #bce0fd;
      }

      .st13 {
        fill: #b3dcfc;
      }

      .st14 {
        fill: #0874f3;
      }

      .st15 {
        fill: #0d78f0;
      }

      .st16 {
        fill: #157ef3;
      }

      .st17 {
        fill: #086fec;
      }

      .st18 {
        fill: #b2ddfd;
      }

      .st19 {
        fill: #0977f3;
      }

      .st20 {
        fill: #056fed;
      }

      .st21 {
        fill: #0571ef;
      }

      .st22 {
        fill: #0875f6;
      }

      .st23 {
        fill: #0a75f1;
      }

      .st24 {
        fill: #6faff4;
      }

      .st25 {
        fill: #6dadf3;
      }

      .st26 {
        fill: #0974f0;
      }

      .st27 {
        fill: #0370f1;
      }

      .st28 {
        fill: #056ded;
      }

      .st29 {
        fill: #fdfdfd;
      }
    </style>
  </defs>
  <path class="st4" d="M111.27,149.03c.67-3.24,10.26-3.17,11.26-.08.4-1.96,2.1-2.66,5.11-2.09-1.52-.88-1.1-1.85.09-3.17.15-1.02.86-1.87,2.12-2.55v-16.37s2.05-1.45,2.05-1.45c.82-.76,2.03-1.16,2.54-.4.72,1.07.77,17.2.52,19.6l-2.05,1.45c0,1.51.68,4.71-1.26,5.49-2.76,1.11-5.97.27-8.51.36l-.5,10.05-34.56.08-.45-5.02c-3.44-.72-6.83-.63-9.97.04l-.8,4.42c-3.9,0-7.72.19-11.47.58.43-3.78.74-7.52.94-11.22l.04-1.37c2.36-.85,5.12-1.15,8.29-.89,1.32-2.98,1.82-6.28,1.5-9.9.7-.06,1.33-.19,1.72-.56.46-.45.47-12.28.11-12.81-1.88-.8-2.56-3.12-2.01-6.98-3.56.58-5.78-.16-6.65-2.23.15,1.74-1.51,2.56-4.98,2.46,1.31,9.24-4.28,11.15-12.12,8.14-1.66-6.61-2.85-15.87,6.75-14.06-.17-4.75,1.08-7.69,3.74-8.82h14.41c2.53,1.63,3.5,4.55,2.92,8.77,4.28-.46,7.76.23,10.45,2.05.46,11.21.7,22.47.75,33.75l18.67.61,1.37,2.09Z"/>
  <path class="st15" d="M31.76,149.67c4.37.09,4.04,9.46.05,9.98l23.49-.14.66-1.9h7.43c-.83-4.33-.2-7.27,1.87-8.82.3-.9.66-.89,1.08-.01l.25,10c3.06.31,6.9.8,9.66.04.3-1.03.29-3.59,1.41-3.83l-.18,5.12-11.37-.14-.25,11.07-34.07.11-.15-11.69c-5.68,1.41-10.69.55-16.5.27l.11-13.99c.1-.92.43-.94.96-.12,1.75,1.06,2.43,3.19,2.05,6.38l2.43,2.19c.51,2.82,3.4,3.76,8.65,2.81-.46-3.88.35-6.32,2.43-7.33Z"/>
  <path class="st27" d="M15.14,99.7c.88.34.86.7-.04,1.08.92.13.93.46.09.98.56,10.99.72,22.08.48,33.29.83.15,1.49.34,1.6.7.5,1.66.58,10.2-2.04,9.98l-10.64-.08v-45.88s10.54-.07,10.54-.07Z"/>
  <path class="st26" d="M163.67,56.8c-2.74.77-2.49-9.43-2.03-10.91.11-.35.77-.54,1.58-.67-.32-7.18-.16-14.28.5-21.31-1.56-.07-2.46-1.47-2.69-4.19l-16.4.04-1.46-2.04.09-10.94,20.47-.06.41,10.74c3.99-.34,6.87-1.15,10.54-.32l-.06,39.48-10.95.17Z"/>
  <path class="st10" d="M66.24,47.05c2.15,1.46,2.19,9.25-.84,9.62-2.24.49-17.22,1.12-17.99.64-.51-.32,0-10.38.49-11.94l16.48.03.5-8.21c8.01-.18,15.95-.55,23.82-1.12-.59,3.52-.73,7.12-.43,10.79l-22.03.19Z"/>
  <path class="st16" d="M121.63,25.56l1.25-1.99c6.08.27,12.17.54,18.26.82l1.35,2.11-1.1,2.08-17.47.43c.61,4.9-.46,8.08-3.22,9.55l-29.84.16c.23,3.45-.03,6.69-.78,9.73l-2.24,1.07-20.18-.39-1.42-2.08,21.52-.62-.13-9.09-22.75-.15c.55-.6,1.27-1.03,2.39-1.02l21.18.19-.08-11.06,33.26.26Z"/>
  <path class="st3" d="M143.16,116.14c.51,3.26.26,6.33-2.38,9l-.11,18.9-7.76-.06-.03-19.57c0-.77-.47-1.21-.98-1.08-.74,3.96-7.98,2.02-10.4-.07-3.2-.62-2.99-9.43.08-10.28,7.1-.48,14.32-.64,21.68-.45,1.46-.74,1.42.47-.11,3.61Z"/>
  <path class="st8" d="M25.36,99.72c-2.81.88-7.34.86-10.22-.03l-.08-21.49c3.57-.62,7.2-.79,10.9-.49.17,7.49-.03,14.82-.6,22.01Z"/>
  <path class="st0" d="M163.65,100.22l-9.23.34c-2.33-.35-2.82-1.04-.51-1.44.59-.89-.25-19.11-.44-21.33-.05-.54,10.21-.3,10.44.18.46,7.45.37,14.87-.25,22.25Z"/>
  <path class="st23" d="M143.17,17.71c3.2.66,3.24,9.34-.69,8.78l-20.85-.93.08-8.12,21.46.27Z"/>
  <path class="st25" d="M163.73,67.9c-2.03,1.7-5.19,1.32-8.81.77-.86,2.75-.57,5.44-.52,8.67,3.5-.14,6.49-.58,9.99.37l.32,20c.02,1.08-.62,1.95-1.06,2.51v-21.92s-9.42-.08-9.42-.08l.19,22.35v12.41s-9.22.21-9.22.21c-1.07.26-1.66,2.35-2.03,2.96-.1-.65.38-1.78-.25-3.09l-21.32-.07c-.9.1-.9-.13-.08-.65.64-3.25,10.28-3.37,11.37-.3.6-3.21,9.42-3.08,10.31-.02,1.07-2.01,3.78-2.79,8.14-2.35.15-2.35.05-4.63-.31-6.84-4.05.71-6.71,0-7.98-2.13-1.11-2.79,1.47-3.82,7.72-3.07.72-5.55.96-11.37.72-17.45l-16.91-.08-1.46-2.05c-.71.03-.73-.25-.18-.79l.93-2.04,17.5.11c-.67-3.81.02-6.27,2.06-7.36-3.22-.73-2.92-10.3.19-11.21.03-.91.3-.9.79-.06l2.05,1.11.3,8.08c3.63-.71,5.96-.03,6.99,2.03Z"/>
  <path class="st22" d="M46.92,56.7c.72.97.85,2.57.39,4.78l.47,4.57c5.61,3.65-8.79,6.24-10.08,1.92-.83.56-1.24.06-1.08-.97l.04-10.28,10.26-.02Z"/>
  <path class="st17" d="M163.67,56.8l.06,11.1-9.29.02-.06-11.24c.52-3.15,8.51-2.94,9.28.12Z"/>
  <path class="st24" d="M36.63,67c.45-.02.94.54,1.08.97,1.44,1.5.88,2.05-1.04,1.06-2.25,1.06-4.8,1.4-7.65,1.02-2.3,4.84-.25,6.57,6.16,5.19l1.47,2c.57,2.16-.71,3.2-3.85,3.13l-4.36-.24v18.11s-2.03,1.49-2.03,1.49c-.32.59-.66.57-1.04,0l.24-21.6-10.54.09c2.82-1.76,6.42-1.04,10.48-.79-.16-3.62-.62-6.76.33-10.06l10.75-.36Z"/>
  <path class="st24" d="M65.41,56.67c1.11,1.45,1.05,2.69-.7,3.03l-14.64.09c.45,3.36-.31,5.45-2.29,6.26-1.65-2.85-.84-6.19-.86-9.35l-.05-10.26c0-.84.67-1.07,1.04-1.07l.03,11.33,17.47-.03Z"/>
  <path class="st29" d="M163.72,23.91c-.52,7.61-.79,15.33-.82,23.18l-7.14.78c.75,4.42.02,7.38-2.17,8.88-.95,2.11-3.6,2.95-7.94,2.54,1.03,5.33.08,8.18-2.84,8.55-2.46,1.24-7.02.8-9.89.23l-.88,2.06-18.94.32-.12,4.88c5.87.64,12.08.86,18.65.65l1.47,2.06,20.44.04-.14,21.57-9.29.03c-.79,0-1.1.58-1.08,1-1.27,1.95-3.95,2.52-8.01,1.72l-.1,8.2-2.04,1.43-11.37.3-1.2,2.03-17.11-.02c-.21,2.44-.05,4.74.46,6.9l16.39-.02,1.46,2.05c1.78.17,3.1.75,3.97,1.73,2.3,12.41-.5,13.01-12.36,12.32l.19,10.26-2.02,1.47-22.2-.72-.26-35.42-10.74-.32-.37-8.76h-16.14s-.1,8.83-.1,8.83l-7.98-.02-.13,10.76c2.87.55,5.68.48,8.82-.08l.18-9.08,6.99-.17c2.07.91,2.78,3.4,2.12,7.45l5.55-.25c1.33,5.31,1.51,10.95.54,16.93-2.88.18-5.77.1-8.68-.24.21,4.61-.99,8.24-3.6,10.87-.38,2.09-2.75,2.74-7.12,1.94-.68,2.48-.95,5.25-.79,8.31-6.5.64-13.05.69-19.64.13-1.74-1.21-2.34-3.54-1.8-6.97.12-3.72-2.9-5.41-9.05-5.08l-.59-1.38c-2.19-1.02-2.95-3.7-2.3-8.06l-7.44-.36-.85-1.39c.23-11.48.07-22.87-.48-34.17l-.09-.98c3.66-.36,7.43-.71,11.3-1.05l-.19-22c4.03.62,7.56,1.16,10.43-.5-3.14-.42-2.98-7.53.02-8.21.37-.17.87-.69,1.04-1.06h8.12c1.25-.01,2.33-1.29,1.97-1.92l.19-8.31h16.33c.83,0,1.09-.71,1.11-1.07.17-2.98-.38-6.23.84-9.62l22.54.43-.12-10.81,32.94-.18.17-9.49,20.7-.5c1.25-2.95.66-6.03.69-8.78l20.33-.06.22,6.25Z"/>
  <path class="st12" d="M131.9,123.33v20.3c-1.74.34-2.93.15-4.16.07-.68,1.3-1.85,1.89-3.52,1.76.21,1.66.03,2.59-1.68,3.49l-11.26.08-.25-13.75,13.21-.17-.7-9.59c-.08-1.15-1.42-1.91-2.02-2.27l10.4.07Z"/>
  <path class="st13" d="M66.34,148.77h-1.08c-.12-4.18,2.49-8.06,1.06-13.07l11.22.72.02-13.34c-2.97.48-5.26.74-8.23.18v-9.23s8.91.25,8.91.25c-.61,4.63.33,7.55.24,11.13l-.3,12.62c-.09,3.74.02,7.08-2.08,10.5l-9.77.24Z"/>
  <path class="st28" d="M127.74,143.7c.25.34.47,1.26,1.05,1.5.5.2,1.33.11,2.53-.39.73.53.94,2.57.36,4.08l-9.14.07c-.18-1.23-.75-3.37-.05-4.67.76-1.4,3.89-1.08,5.26-.58Z"/>
  <path class="st20" d="M26.27,145.73c2.71,1.01,4.54,2.32,5.49,3.94l-.37,9.38h-13.19c.82-1.26,1.16-2.22,1.02-3.33-.1-.83-1.87-1.73-2.6-2.24-1.17-2.68-.34-5.48-.42-7.87.57-3.19,9.29-2.95,10.06.12Z"/>
  <path class="st11" d="M26.27,145.73l-10.06-.12-.96.12-.04-43.97c.33-.05.94.38.94,1.09v32.43s9.83.38,9.83.38l.31,10.07Z"/>
  <path class="st7" d="M65.26,148.79l.31,10.87H31.81c.65-2.98,4.83-3.45,5.9-.49l17.66.19.18-10.72,9.72.14Z"/>
  <path class="st9" d="M37.71,159.17l-5.9.48c.69-3.59,1.57-7.34-.05-9.98l-5.26-1.08c-1.39-.28-.21-2.23-.23-2.86l9.86.29c2.35,4.36,2.1,8.9,1.57,13.14Z"/>
  <path class="st11" d="M25.36,99.72h1.04c0,.37-.15,1.03-1.01,1.03l-10.29.02.04-1.08,10.22.03Z"/>
  <path class="st21" d="M173.7,42.82c-4.15-2.08-6.87-2.1-8.8.56l.18-19.21,1.86-6.1,6.97-.19-.22,24.94Z"/>
  <path class="st6" d="M163.67,56.8l-9.28-.12-.79.06.15-11.22,9.01-.18-.21-19.44c-.01-1.18.47-1.91,1.18-1.99l-.05,32.89Z"/>
  <polygon class="st2" points="121.5 112.33 121.59 112.98 121.5 123.26 101.18 123.29 101.14 112.02 121.5 112.33"/>
  <path class="st1" d="M132.93,68.06c.85.36.77.67-.17.93,3.15.36,3.15,7.5.17,8.25l.18.79-22.17-.15v-9.45s21.99-.38,21.99-.38Z"/>
  <path class="st21" d="M153.41,67.95l.06,9.42-20.55-.12-.17-8.25c4.72-.49,9.56-.74,14.54-.75.85-3.37,4.72-3.28,6.11-.3Z"/>
  <path class="st18" d="M143.03,100.68c3.24.67,3.23,10.29.15,11.32l-10.31.02-.09-11.43c3.87-.66,7.04.05,10.25.08Z"/>
  <polygon class="st14" points="143.18 112.01 143.03 100.68 153.37 100.79 153.37 111.97 143.18 112.01"/>
  <path class="st5" d="M153.59,56.74l-.19,11.21c-1.93.16-4.28-.32-6.11.3-1.88.47-3.37.33-4.48-.41.79-.65.99-1.47.95-2.69l-.22-7.97,10.05-.43Z"/>
  <path class="st19" d="M36.67,69.03l-.02,8.21-10.33.38.11-9.59,8.26-.09c1.08-.01,1.8.39,1.99,1.1Z"/>
  <path class="st25" d="M142.81,67.83l4.48.41c-4.73,1.59-9.69.46-14.54.75l.17-.93,9.89-.23Z"/>
</svg>