<?xml version="1.0" encoding="UTF-8"?>
<svg id="_레이어_1" data-name="레이어_1" xmlns="http://www.w3.org/2000/svg" version="1.1" viewBox="0 0 177.48 177.48">
  <!-- Generator: Adobe Illustrator 30.3.0, SVG Export Plug-In . SVG Version: 2.1.3 Build 182)  -->
  <defs>
    <style>
      .st0 {
        fill: #0d5f0a;
      }

      .st1 {
        fill: #136b0b;
      }

      .st2 {
        fill: #0d7509;
      }

      .st3 {
        fill: #0f6c06;
      }

      .st4 {
        fill: #0d7303;
      }

      .st5 {
        fill: #53be27;
      }

      .st6 {
        fill: #116f0e;
      }

      .st7 {
        fill: #11710d;
      }

      .st8 {
        fill: #156a10;
      }

      .st9 {
        fill: #0f6c09;
      }

      .st10 {
        fill: #12730a;
      }

      .st11 {
        fill: #107105;
      }

      .st12 {
        fill: #0c6c08;
      }

      .st13 {
        fill: #10630d;
      }

      .st14 {
        fill: #076607;
      }

      .st15 {
        fill: #096d06;
      }

      .st16 {
        fill: #0d6a03;
      }

      .st17 {
        fill: #65c932;
      }

      .st18 {
        fill: #0d6f0a;
      }

      .st19 {
        fill: #086e06;
      }

      .st20 {
        fill: #14750c;
      }

      .st21 {
        fill: #086906;
      }

      .st22 {
        fill: #0e6805;
      }
    </style>
  </defs>
  <path class="st17" d="M39.77,15.55c.15-1.17.5-2.92,1.35-3.01,2.9-.32,28.53-.53,29.9.07,1.14.5,1.7,1.83,2.16,3.02,2.56-.4,3.62,1.48,3.18,5.63,3.48-1.17,6.02-.5,7.63,2.02l8.92-.55c.17-2.05-.84-6.01,1.35-7.39,2.43-.31,3.56,1.78,3.39,6.28,2.44.58,3.34-.71,2.69-3.88l2.96-2.05c.13-1.17.46-2.93,1.3-3.03,2.9-.37,28.54-.99,29.92-.41,1.15.48,1.73,1.8,2.21,2.99,3.25,1.21,4.37,5.2,3.36,11.97,3.55.33,5.87,1.59,6.95,3.79l1.19-.02,2.97,2.78c.43,7.55.26,15.08-.5,22.58,3.46.12,5.23,1.07,3.82,4.71-1.48-.16-5.22-.93-5.72,1.56-.32,1.91.37,5.47-1.79,6.03-1.96-1.03-3.24-2.71-3.82-5.03.13,2.57-.74,4.28-2.6,5.13-.1.4-.57.95-1,1.03l-1.76,2.98-26.86-.59-.11,3.09,26.85-.19,2.17,3c2.2-.02,7.39-2.35,8.11,1.49l1.39,7.43c4.75-.78,8.63-1.11,11.17,1.03-.84,3.28-3.76,4.21-8.76,2.8-.15,7.86-.49,15.82-1.01,23.86l-3.49,2.3c-.22,2.63-2.66,3.79-7.34,3.5.85,5.25-.25,8.51-3.3,9.79-.15,1.17-.51,2.92-1.36,3.01-6.02.63-20.74.59-26.81-.06l-2.16-3.02c-2.95-3.16-5.37-6.64-7.28-10.44-3.79.76-6.51-.03-8.16-2.38l-.79-26.74c-1.38-.38-2.29-.17-2.75.62l-.29,24.41c-1.53,3.03-4.68,4.73-9.47,5.09l-1.15,2.65c-3.32,1.42-5.55,3.72-6.68,6.91,1.06,2.98.22,7.95.2,11.97l-27.13.15c-1.57,0-2.67-.83-3.22-1.58l1.32-3.02h24.33c.7-1.38.63-3.47-.05-4.88l-23.37.19-2.14-3c-3.49.03-7.66,1.47-10.54-1.36-.09-2.42,2.26-3.62,7.04-3.59l-.05-5.17c-3.25.59-5.52-.11-6.79-2.12l-1.43-.98-3.05-1.65-.47-24.04c-4.65.73-7.53-.32-8.66-3.15,3.23-2.6,7.93-1.32,11.86-1.15.08-2.62,1.91-3.57,5.48-2.85.67-1.9-.57-2.58-3.7-2.03l-1.92-3.01c1.88-1.56,4.51-1.77,7.61-1.59l.81-8.73c-2.89-.58-3.22-1.89-2.71-4.42-2.65-.67-6.81-2.76-8.54-4.38-.98-.92.16-23.92.53-26.84l3.09-2.04c.16-4.78,1.08-13.24,2.52-15.67,3.45,2.19,4.37,6.32,2.76,12.41,2.89,1.64,3.94-1.78,3.16-10.25l3.07-1.98Z"/>
  <path class="st3" d="M106.31,130.21c-1.7,0-3.55-.67-6.43.31l-.13,30.07c-3.94.95-7.81.17-11.59-.09-4.47-1.32-3.99-4.51-2.2-8.17-3.48,1.14-6.24,1.47-6.89-2.56l-.6-20.57-8.73,1.14c-.62-1.73-3.69-5.95-.57-6.84l4.21-1.2c1.17-.33,1.43-3.47,1.92-4.76l8.72-1,.34-28.95,8.7-.05.36,29.67c2.97-.52,5.46-.56,7.1-.19,1.31.3,1.59,3.31,2.23,4.78,3.55,1.64,4.92,4.89,3.56,8.41Z"/>
  <path class="st5" d="M88.17,160.5c-3.11,11.39-13.21,14.27-18.8,2.97-2.59.27-3.9-.29-4.48-3.16,2.13-1.91,5.6-1.61,7.93-1.14,3.26-2.02,4.21-4.23,2.85-6.63l1.87-2.73,1.54-.05c1.7-.06,3.49.57,6.05-.01l.05-27.69,7.61.12c-.61,9.72,1.5,18.76-.84,27.52-2.89,2.75-5.31,5.56-3.79,10.8Z"/>
  <path class="st2" d="M136.67,14.5c1.27.16,1.29.4.05.74l-33.43.46.21-11.77h33.01c1.04,3.76-.09,7.29.15,10.57Z"/>
  <polygon class="st18" points="73.17 15.63 39.77 15.55 39.97 3.94 73.03 3.92 73.17 15.63"/>
  <path class="st20" d="M28.26,31.04l-.98,28.87c3.2,1.2,6.05.72,9.19.82l-.58,7.99-8.2-.06-.22-7.69-11.76-.25.06-29.74,12.49.07Z"/>
  <path class="st7" d="M154.51,61.05c-1.5-1.94-4.12-1.82-7.45-1.64,2.27-10.27.86-19.18,1.16-28.43l12.39.12-.07,29.44c-2.44.5-4.51.67-6.03.51Z"/>
  <path class="st14" d="M160.54,88.02l-.08,28.91-13.49,1.12c-1.24-.52-1.09-.87.32-1.07,1.98-9.18.89-18.51.81-30.05,4.75,1.32,8.58,1.47,12.45,1.09Z"/>
  <polygon class="st12" points="27.93 116.93 15.77 116.61 15.76 88.09 27.37 88.07 27.93 116.93"/>
  <path class="st21" d="M136.64,130.27c1.11.48,1.09,1.02,0,1.63l.07,9.76-30.84.04c-.61-4.19-.59-8.14.44-11.5l30.33.07Z"/>
  <path class="st19" d="M39.6,140.85l.1-10.71,28.56-.23c.59,4.22.54,7.06.1,10.95h-28.75Z"/>
  <path class="st6" d="M88.17,160.5c1.1,3.78.65,8.69.07,13.41l-23.75.09c-.53-5.24-.42-9.63.4-13.69l7.92.25c-.64,4.4,1.14,6.12,4,6.57,3.1.49,6.67.75,6.9-3.66.1-1.83.7-3.19,2.01-3.48.85-.18,1.88.26,2.44.5Z"/>
  <polygon class="st4" points="139.58 69.78 139.87 78.07 107.74 78.29 107.94 69.08 139.58 69.78"/>
  <polygon class="st10" points="147.03 31 137.17 31.27 136.72 15.24 136.67 14.5 146.9 15.7 147.03 31"/>
  <path class="st13" d="M147.28,116.98l-.32,1.07.02,12.23c-4.16-.23-7.65-.27-10.34,1.63v-1.63s.38-13.12.38-13.12l10.26-.17Z"/>
  <path class="st22" d="M39.77,15.55l-.39,15.24c-3.4.93-6.79.69-9.5-.73,1.83-5.91.92-10.26.9-14.69l8.99.18Z"/>
  <path class="st8" d="M29.16,128.79l.19-10.88c2.87-1.25,6.2-1.28,9.81-.36l.08,11.33-10.08-.1Z"/>
  <path class="st9" d="M83.98,23.28c-3.32.21-6.48,1.28-10.85,1.05l.04-8.71,10.57.15c.71,2.74.43,5.17.24,7.5Z"/>
  <path class="st15" d="M103.29,15.7c-.06,2.11.69,5.96-1.22,7.91-1.43,1.46-5.37,1.11-7.92.6l.1-8.87,9.04.35Z"/>
  <path class="st1" d="M27.62,86.93c-.23-2.63-.55-5.31-.15-7.9l8.87-.02-.37,8.27-8.35-.36Z"/>
  <path class="st7" d="M147,68.64c-1.96.51-4.5.17-6.42.11-.89-2.52-1-5.38-.21-8.3l7.98.41c-1.34,3.14-1.6,5.39-1.35,7.78Z"/>
  <path class="st6" d="M77.54,149.81c1.45,2.01,2.84,5.94.89,8.67-1.03,1.45-4.31.95-5.61.68-.22-2.48-1.07-6.18.69-8.69.8-1.15,3.17-.63,4.03-.66Z"/>
  <path class="st17" d="M136.71,141.67c-10.06,1.18-20.67,1.11-30.84.04l30.84-.04Z"/>
  <path class="st16" d="M92.83,59.35c-.02,2.34-6.79,2.27-8.7,1.19l-.33-35.48c3.23-.55,5.6-.57,9.37-.02l-.34,34.32Z"/>
  <path class="st11" d="M72.07,77.77l-34.92.23c-.48-3.82-.43-6.19-.03-9.13l34.54.9c1.51,1.5,1.66,5.24.41,8Z"/>
  <path class="st0" d="M140.28,79.92c.89-1.41,5.96-1.45,6.42.09.48,1.6,1.82,5.99.41,7.02-1.3.96-5.16.76-6.72.3-1.55-.45-1.79-4.77-.12-7.42Z"/>
</svg>