<?xml version="1.0" encoding="UTF-8"?>
<svg id="_레이어_1" data-name="레이어_1" xmlns="http://www.w3.org/2000/svg" version="1.1" viewBox="0 0 177.48 177.48">
  <!-- Generator: Adobe Illustrator 30.3.0, SVG Export Plug-In . SVG Version: 2.1.3 Build 182)  -->
  <defs>
    <style>
      .st0 {
        fill: #4d1f80;
      }

      .st1 {
        fill: #56288b;
      }

      .st2 {
        fill: #5e2d93;
      }

      .st3 {
        fill: #b176f2;
      }

      .st4 {
        fill: #492712;
      }

      .st5 {
        fill: #d09954;
      }

      .st6 {
        fill: #9c652e;
      }

      .st7 {
        fill: #512187;
      }

      .st8 {
        fill: #4f2171;
      }

      .st9 {
        fill: #5e2c92;
      }

      .st10 {
        fill: #512283;
      }

      .st11 {
        fill: #be86f7;
      }

      .st12 {
        fill: #dab2fb;
      }

      .st13 {
        fill: #542487;
      }

      .st14 {
        fill: #452813;
      }

      .st15 {
        fill: #f5ecfc;
      }
    </style>
  </defs>
  <path class="st6" d="M131.08,137.34c2.8,0,6.29-1.22,8.89,1.14-.01,2.34-2,3.43-5.96,3.27-1.32,4.63.43,6.49,5.25,5.58,3.7-.02,4.39,15.96,3.58,17.03-.16.22-3.61,3.17-4.01,3.41l-99.51.25-1.7-2.82c-3.95,1.15-3.46-13.78-2.99-14.44,2-2.83,4.92-3.86,8.5-4.27-.83-4.98.19-8.11,3.05-9.41.14-1.09.43-2.7,1.21-2.82,6.13-.98,19.95-1.45,22.15,5.36l40-.18c.51-2.71,2.23-3.78,4.73-4.87,1.48-.65,17.04-1.12,16.8,2.77Z"/>
  <path class="st4" d="M139.97,138.48l.44,9.9,8.62.08.06,16.99-8.2.28-.56,6.97-102.53.22c-.95-3.27-.23-5.43-.19-7.72l102.52-.26-.49-14.87-8.64-.19.26-11.27,8.71-.14Z"/>
  <path class="st8" d="M45.87,117.31c1.58,3.11,3.24,6.15,4.96,9.14l12.3-.1,2.67,2.36c3.68.73,3.94,1.55,1.23,4.16,5.19,2.24,10.9,2.25,17.13,0,9.21,1.21,18.06,1.28,26.57.21,1.65-3.25,4.78-4.68,9.37-4.28.83-3.65,9.06-5.13,10.89-1.24l.09,9.76-18.02.06c-.37,1.86-1.11,4.17-2.12,4.9l-44.41.16-1.03-5.32-19.32-.06c.01-2.73,1.13-6.51-.44-9.58-1.38-1.21-5.62-.75-7.95-.42l-.06-9.9c-.48-4.23,7.52-3.91,8.13.13Z"/>
  <path class="st2" d="M28.8,52.76l2.81,1.29-.39,42.17c8.16-1.17,11.18,4.31,9.06,16.43l-2.85,1.87c-3.93-.29-5.25-3.95-3.98-10.97-2.9-.22-4.43-1.44-4.61-3.66l-9.57-.64-.13-46.73,9.07-.18c-.3-5.62-1.7-11.39.66-15.75,4.56.49,4.15,14.89-.07,16.14Z"/>
  <path class="st9" d="M67.18,11.53l1.87.21c3.16,9.86-2.12,13.96-15.84,12.29.12,5.25-1.56,8.27-5.02,9.07-2.61-.48-4.59-.7-5.95-.66,1.86,4.51-1.09,5.27-5,5.63l-.65,14.6c-.28,4.48-7.55,4.56-7.81.08l.07-16.14c1.31-1.32,5-.94,6.96-1-.54-3.02-.99-5.92.37-6.61l6.1-3.12.43-4.86,6.32-1.27c2.41-.48,2.06-5.39,1.33-7.99l16.79-.23Z"/>
  <path class="st7" d="M112.35,11.55c-.13,1.1-.47,2.73-1.27,2.82-8.5.98-33.56,1.12-41.85-.02l-2.05-2.83.02-8.69h44.96s.19,8.71.19,8.71Z"/>
  <path class="st0" d="M150.32,99.41c.04-1.96-.36-3.95-1.18-5.96-1.1-.12-2.77-.48-2.83-1.25-.33-4.15-1.11-35.26-.06-36.77.71-1.03,1.57-1.75,2.82-2.04,2.23-.3,4.66-.63,7.3-1,1.33.05,1.96,1.09,1.95,2.67l-.2,44.06c-3.16.83-5.46.44-7.79.3Z"/>
  <path class="st1" d="M129.58,21.84l2,.55c.77,1.87,2.47,3.54,5.1,5.03,2.16.56,5.23.71,7.22,2.15-2.25,2.15-2.29,4.1-.11,5.83,4.04.83,5.81,4.19,5.31,10.06l.42,6.66,6.86.26c-1.74,2.04-4.88,1.12-7.3,1-.23,4.23-8,3.64-8.5-.42,1.33-3,1.47-8.64.24-13.26-4.71,4.47-7.26-2.05-7.85-7.05-5.18.85-8.04-2.09-8.57-8.81-11.71,1.61-16.68-1.92-14.9-10.6l2.86-1.71,15.62-.05c-.35,4.38.31,7.02,1.61,10.35Z"/>
  <path class="st10" d="M150.32,99.41c-1.72,4.93-1,10.77-.92,16.88-1.85,1.85-6.21.8-8.02,1.56-2.52,2.46-2,6.28-.88,9.3l-9.52.43c-6-3.42-2.22-14.77,6.13-12.18-.16-2.3.92-4.42,3.22-6.38-.64-3.4-.48-6.68.47-9.84,3.21-1.54,5.99-3.45,8.33-5.73l7.61.49c.94,6.5-4.97,1.32-6.42,5.47Z"/>
  <path class="st14" d="M46.18,137.08l-.3,12.59-8.44.28.18,15.24c-2.54,0-5.13,1.49-8.77.06v-16.6s8.69-.1,8.69-.1l-.09-11.55,8.73.09Z"/>
  <path class="st13" d="M37.44,114.53c2.97.35,3.09,1.61.3,2.66l-9.03-.03.14-17.25,7.52.83c.02,5-1.16,9.84,1.07,13.79Z"/>
  <path class="st0" d="M143.89,29.57c-.43,1.52-.63,3.68-.04,4.91s3.83,1.02,4.81,1.5c1.75,2.22.42,7.14.43,9.49l-2.42-7.66c-.71-2.24-7.75-1.09-8.62-5.26-.43-2.09.63-2.84,2.09-2.8l3.75-.17Z"/>
  <path class="st0" d="M136.67,27.42c-1.29.06-3.63.97-6.33,1.87-1.89-2.15-.15-5.54-.77-7.45,1.63-.76,4.78-1.71,6.25-.87,1.94,1.11,1.39,4.55.85,6.45Z"/>
  <path class="st5" d="M65.48,156.85l-18.07-.1c-1.77-.44-1.81-6.34-.14-7.28l18.45.47-.24,6.91Z"/>
  <path class="st11" d="M112.35,11.55l-.18,9.13,15.94.45.02,8.62,8.54.15c-.3,2.45-.59,4.93.06,7.08.4,1.33,2.56,1.73,4.09,2.73.77,3.84,1.83,10.7-.24,13.26l8.5.42.07,40.06c0,2.25.87,5.49-1.95,6.08-2.05.42-4.4.18-6.38-.34,0,5.47-.85,10.26-2.57,14.37-3.7.85-7.11,2.15-10.25,3.91-3.18-1.16-5.14-3.88-5.87-8.16-.96,7.03-7.07,8.86-10.54,3.61-2.78-.06-3.72-2.12-2.83-6.16-6.19,1.62-10.52.76-13.01-2.58-.33,1.09-.83,2.72-1.68,2.77-3.87.25-27.36-.53-29.02-1.78-.86-.65-1.36-1.62-1.78-2.58,1.62-4.05-3.31-7.12-5.53-5.33-.54.43.53,12.38,1.07,12.75l16.69.63c2.56,1.63,3.74,4.45,3.53,8.45l33.36.83c10.26,4.62,14.98,8.65.69,10.09-1.44,2.39-3.07,3.78-4.89,4.18-7.44.75-14.41-.25-20.89-3-5.21,3.49-14.61,4.74-20.26,1.7-.53-1.28-1.16-2.72-1.23-4.16-2.37.21-3.41-1.18-3.12-4.16l-12.96.13c-1.9-1.67-3.18-4.13-3.86-7.37l-8.13-.13c0-.77.08-1.99-.3-2.66l.2-15.49-9.27.15.43-46.44c2.29.29,5.22.39,7.81-.08.62-4.81.83-9.67.61-14.59,4.13-.39,6.72-1.13,5.03-5.64-.19-1.14.14-2.38.92-2.35l6.5.24.7-9.04,16.27-.48.54-9.28,45.16.02Z"/>
  <path class="st3" d="M95.74,104.17c2.32.33,3.45,2.37,3.38,6.11,6.1-1.21,10.25-.34,12.46,2.62l7.71-.26c.05-2.95-.32-5.74,1.25-8.59,4.88,1.98,4.61,6.78,6.37,9.97,1.08,1.96,5.45-.12,4.71-3.04,3.53-.11,5.95.64,8.57-1.41-1.3-4.19-1.45-8.26.62-10.38-.28,5.62.51,11.99-1.62,17.89-1.32,1.4-5.91,1.05-7.71.68l-.49,9.82-17.94,3.05c-1.17,2.78-2.46,5.19-6.2,5.17l-35.31-.14c-2.52,0-3.81-1.05-4.53-2.78,14.64,2.4,17.94-5.48,20.89-4.33l7.94,3.09c4.44,1.73,9.24.54,14.01,1.17,2-4.56,6.32-4.89,11.36-4.52-3.29-1.37-6.81-5.68-10.42-5.76l-32.64-.65c-2.46-.05-2.57-6.32-2.05-8.45l-19.76-.32-2.2-17.6-5.55-.38c-3.08-.21-2.91-4.78-1.75-7.38.88-1.98,4.08-4.01,6.85-1.77,2.11,1.71,2.12,5.5,2.42,8.34l9.37.61.67,8.29,29.59.95Z"/>
  <path class="st3" d="M65.8,128.72c-5.19,1.21-10.74.89-16.87.33-2.28-3.96-2.62-7.91-3.06-11.74l3.07,4.57,16.51-.18.34,7.02Z"/>
  <path class="st2" d="M36.61,52.68l-.02-15.17,4.29-1.06c1.08-.27,1.72-2.52,1.37-4,1.05.97,1.3,2.62,1.23,3.83-.14,2.16-3.42,2.29-5.63,2.37-.81,4.53,1.19,10.11-1.24,14.04Z"/>
  <path class="st0" d="M140.57,52.97l.24-13.26c2.29,1.5,1.52,5.37,1.28,8.48l1.36,3.62c.27.73-2.04,1.24-2.88,1.15Z"/>
  <path class="st15" d="M66.65,57.14c-3.44,1.08-6.74.55-10.5.73l-.33,9.2c-2.42.14-7.56,1.17-9.84-.43-2.89-2.03.25-6.8.62-9.15l2.94-18.32c3.37.7,6.18.73,7.91-.18,1.36-.72,1.82-3.92.98-7.12,8.05-1.4,16.92-3.51,24.95-1.04,1.91.74,2.33,7.36.52,8.43l-7.47-.45-.76,9.3h-9.31s.28,9.02.28,9.02Z"/>
  <path class="st12" d="M111.58,112.91l-15.65.25-.19-8.99c4.21.14,8.52.48,12.94-.23l-.54-9.39,9.7-.19c.13-3.34-.35-5.74.62-9.05,2.04.36,5-.33,4.94-1.45l-.23-4.52c-.18-3.47,2.34-3.04,4.24-3.02,1.56.02,4.39-.15,4.25,2.81l-.69,15.4-8.16.05c.14,3.39.3,5.69-.44,8.82l-9.35.41c-2.42,2.32-1.29,6.72-1.44,9.09Z"/>
</svg>