<?xml version="1.0" encoding="UTF-8"?>
<svg id="_레이어_1" data-name="레이어_1" xmlns="http://www.w3.org/2000/svg" version="1.1" viewBox="0 0 177.48 177.48">
  <!-- Generator: Adobe Illustrator 30.3.0, SVG Export Plug-In . SVG Version: 2.1.3 Build 182)  -->
  <defs>
    <style>
      .st0 {
        fill: #196a09;
      }

      .st1 {
        fill: #1e7a11;
      }

      .st2 {
        fill: #8e0806;
      }

      .st3 {
        fill: #930607;
      }

      .st4 {
        fill: #e0100b;
      }

      .st5 {
        fill: #5ac31f;
      }

      .st6 {
        fill: #186c13;
      }

      .st7 {
        fill: #950605;
      }

      .st8 {
        fill: #0d5e08;
      }

      .st9 {
        fill: #e9120d;
      }

      .st10 {
        fill: #fa7060;
      }

      .st11 {
        fill: #fa2a27;
      }

      .st12 {
        fill: #fb2c28;
      }

      .st13 {
        fill: #89e53d;
      }

      .st14 {
        fill: #fdf3f3;
      }

      .st15 {
        fill: #197611;
      }

      .st16 {
        fill: #940d0e;
      }

      .st17 {
        fill: #810b09;
      }

      .st18 {
        fill: #fde8e7;
      }

      .st19 {
        fill: #9a150c;
      }

      .st20 {
        fill: #177308;
      }

      .st21 {
        fill: #fbecec;
      }

      .st22 {
        fill: #8a0908;
      }

      .st23 {
        fill: #fdefea;
      }

      .st24 {
        fill: #8c0708;
      }

      .st25 {
        fill: #810608;
      }

      .st26 {
        fill: #166d09;
      }

      .st27 {
        fill: #8edf3e;
      }

      .st28 {
        fill: #890706;
      }

      .st29 {
        fill: #880e08;
      }

      .st30 {
        fill: #970909;
      }

      .st31 {
        fill: #fa817d;
      }

      .st32 {
        fill: #53bd1d;
      }

      .st33 {
        fill: #187a0b;
      }

      .st34 {
        fill: #3e911e;
      }
    </style>
  </defs>
  <path class="st12" d="M62.01,108.81c8.03-2.08,11.4.23,10.12,6.93,6.2,3.47,6.81,12.33-.27,14.82.74,6.12-1.23,9.21-7.8,9.32,1.85,7.07-2.43,9.21-8.83,8.52.1,2.96-.75,4.98-2.55,6.05.22,2.54-.8,2.61-1.58.14-9.25.99-12.81-1.1-10.67-6.25-4.07.55-6.57-.32-7.51-2.61.47,4.21-7.58,3.89-8.23-.11l-2.8-1.61.03-31.76c-3.46.61-5.46-.39-5.98-3,2.37-2.15,5.69-1.59,8.71-1.42.6-2.16,2.48-3.09,5.66-2.78-.48-3.89.99-6.93,4.41-9.14,1.03-.62,22.9.58,23.95,1.15,4.93,2.68,4.82,6.8,3.35,11.75Z"/>
  <path class="st33" d="M109.03,14.03c.18,2.73-.54,5.52.73,8.64,2.3-.69,5.23-.44,6.06.55.63.76.06,3.45-.21,5.08-.5,3.08,4.79,3.68,6.24,2.35,1.31-1.2,1.26-4.62.43-7.94l40.63-.35-.35,26.88c-3.99.99-7.86,1.04-11.59.14-.93-4.53-.03-7.39,2.69-8.57-2.53.21-3.57-2.04-3.12-6.73l-24.15.14c-.18,3.51-1.44,5.48-3.78,5.9-2.94,2.09-5.2,4.55-6.76,7.38.93,1.01,1.02,1.64-.38,1.79,5.55.19,8.33,1.83,8.34,4.91l19.42.41,1.9,2.84c.07-4.22,7.96-3.99,8.71,0l-8.76,2.82c-.33.58-.69,1.12-1.17,1.49-.8.62-18.6.01-20.3-.25l-1.93-2.78c-2.54,0-5.14-2.14-8.58-.95l.48,22.21c9,4.93.06,15.61,6.21,19.73,3.68.27,5.49,2.94,5.44,8.01-2.1.8-2.52,3.17-1.28,7.12,5.83,1.62-.53,9.19-4.19,4.03-.14.82-.56.87-1.2.25-2.33-.1-2.53-1.03-.21-1.66-2.78.1-4.39-2.13-4.85-6.7-2.59.3-4.17-.59-4.72-2.7l.18-25.13c-1.3-.61-3.76-1.99-4.03-3.09l1.03-29.52c-2.27-1.08-3.03-3.36-2.27-6.82-2.46.11-3.82-.22-4.31-3.03-5.01-.6-4.67-8.38.24-9.32-.35-2.07,1.22-3.11,4.72-3.12v-2.55c-5.3,2.43-6.01-9.66-4.89-12.11.2-.44,8.37-.12,9.59.67Z"/>
  <path class="st4" d="M77.95,107.82l1.07.15,2.33,2.13c.13,11.21-.04,22.47-.53,33.79l-2.86,1.83c-.86,2.19-2.9,3-6.12,2.43.49,3.12-.31,5.17-2.37,6.16l-1.33,1.03c-1.23,4.36-14.34,3.42-15.46-.88-.35-2.11-1.54-6.19.54-8.61,1.78-.73,6.03.7,8.7-1.26l-1.09-7.42c3.32-.17,5.84,0,8.3-1.27l-.08-6.35c-.02-1.48,3.25-1.87,4.96-3.46,2.37-2.22-.4-7.35-4.14-7.59-1.01-3.44-.52-5.59-.42-9.27l-7.43-.41c.65-5.59,14.48-6.25,15.94-.99Z"/>
  <path class="st27" d="M90.38,12.83l10.63.85c-1.54,2.03-2.06,4.67-1.58,7.89,3.04-.93,2.83,8.48,2.29,9.03-.19.19-3.84,3-4.19,3.2-.79.47-17.49,1.07-16.96-2.91-3.42,1.06-8.85,2.2-11.42-.88-.59-.71-1.85-17.3,2.09-17.04-.13-3.09-1.2-6.62,1.03-9.26,2.39-.17,3.35,1.95,2.9,6.38l13.28-.06,1.93,2.79Z"/>
  <path class="st3" d="M126.78,164.07c.28-3.97,13.12-3.61,16.36-2.94l1.93,2.79-.29,9.77-38.81.09-.61-9.19-7.09-1.28c-.42-3.15-.05-5.64.59-8.02-1.14-.39-1.11-.62.09-.69,5.23-7.2,10.93-1.1,11.24,6.68h14.66s1.94,2.79,1.94,2.79Z"/>
  <path class="st29" d="M59.8,90.72c2.12.2,3.05,2,2.77,5.41,3.92-.04,6.59.91,8,2.86,2.25-.26,4.48-.35,7.44.23l-.06,8.6c-5.09-.7-10.66-.86-15.94.99-2.4-.13-2.58-4.9-1.52-8.86l-27.5-1.32c.25,3.34.67,7.09-.63,8.34-2.01,1.73-5.72.97-7.72.86l-.13-9.58,8.33-.15.11-8.39c9.65.44,18.27-1.02,26.84,1.01Z"/>
  <path class="st5" d="M99.5,12.57c3.16-.09,6.85-.83,9.53,1.45l-8.65.08-.49,8.31,7.56.21c-.24,2.48-.94,5.64.55,8.16,1.54.43,5.87-.84,6.7,1.96.14,2.03,1.93,6.18-2.29,7.91-.39.17-5.94,2.11-6-1.31-.04-2.57.26-4.82-.39-6.42-.84-2.07-5.34-2.51-6.54-.4-1.37,2.42-.29,5.86-.12,7.92-.32,2.74-1.45,2.84-2.26.2-1.12,4.48-13.44,3.87-14.94-.19-.39,1.24-.89,1.24-1.51.06-4.21.49-3.94-7.64.06-8.34-1.26-.14-1.28-.58-.15-1.29l18.53.12-.32-17.07c-3.4.22-6.25.43-8.39-1.1-.71-4.2,8.36-4.28,9.12-.26Z"/>
  <path class="st16" d="M153.46,117.82c2.6.03,5.06.87,9.18.68l.32,36.3-9.73.82c.38,4.18-6.52,3.81-7.18-.15-.88-2.87.75-4.33,4.87-4.37l.09-13.35,2.81-1.87c-3.84-1-4.18-4.8-.17-5.93-2.54-.72-3.61-3.43-3.19-8.13-2.56.39-4.21.41-5.09-2.53-2.56.95-2.84-.12-.43-1.61.1-4.21,7.87-3.86,8.51.14Z"/>
  <path class="st32" d="M153.66,40.8l.12,9.4c2.98-1.38,5.71-1.49,8.78-.97-2.51,1.86-5.85,1.45-8.6,1-.84,2.18-2.94,2.93-6.3,2.27.4,2.52.34,4.09-2.54,4.93l-24.61-.52c.95-2.79.52-5.9-1.03-6.45-.94-.33-2.5.32-4.03-1.19,5.16-2.22,10.84-3.04,17.06-2.44-2.08-10.7,11.32-9.9,19.26-8.83l1.88,2.8Z"/>
  <path class="st15" d="M97.12,40.66l2.26-.2,6.37.27c1.62,3.56.32,6.55.22,9.58-1.15-.72-5.86-1.84-6.61.44-1.23,3.75.12,9.52-2.83,12.55-1.09.61-4.27.83-4.58,2.08-.43,1.68.27,4.12-.33,6.03-.35,1.11-3.18,1.76-3.89,2.67-.96,1.26.53,6.17-.79,6.5l-7.77,1.94c-1.44,4.35-5.57,4.24-7.26.1,1.43-1.93,4.93-1.13,6.8-1.69,3.09-.92.54-4.98,1.16-6.14,1.58-1.77,3.84-2.69,3.81-4.19l-.15-6.77c1.74-.3,5.2.06,5.67-.99l1.55-3.52c.8-1.82,3.63-2.36,3.43-4.14-.15-1.33.55-5.06-1.07-5.36l-12.19-.73-.25-8.54,1.51-.06c6.49,5.07,10.47,5.59,11.93,1.56l3.01-1.37Z"/>
  <path class="st24" d="M68.13,155.33l-.16,8.76-35.7-.44.21-8.59c.89-2.86,3.86-3.87,8.92-3.03,1.73,2.33,4.96,3.19,9.68,2.56.36,0,.93-.46,1.58-.14l15.46.88Z"/>
  <path class="st7" d="M98.88,118.86c1.09.3,2.71.76,2.81,1.63.67,6.29.59,18.96.05,25.35.93,4.57,0,7.49-2.79,8.76,0,.22-.03.47-.09.69l-8.41-.21-.09-36.16,8.54-1.07c1.24.15,1.19.49-.02,1.01Z"/>
  <path class="st30" d="M24.68,145.62l-8.57-.13-.18-36.24c2.86.35,5.4-.03,8.78-1l-.03,37.37Z"/>
  <path class="st17" d="M77.96,145.71l.73-22.42c.19-5.45-1.22-10.62.33-15.33l7.23.1v37.4s-8.29.25-8.29.25Z"/>
  <path class="st19" d="M151.48,108.79c-1.02,4.48-5.73,4.32-6.62-.08l-1.28,2.76-16.7-.49c.28,2.24-.52,3.3-2.94,3.85-1.99-4.7-1.01-10.98-4.16-15.13l25.07-1.41.37,9.24,6.26,1.26Z"/>
  <path class="st20" d="M99.5,12.57l-9.12.26-18.43.08.32-9.19,26.71-.02c1.06,3.69.65,6.26.51,8.88Z"/>
  <path class="st1" d="M71.24,12.98l.78,18.46,8.55-.55.15,1.29c-.51,2.39-2.45,3.34-5.82,2.84.57,2.98-.29,4.88-2.58,5.71-2.12-1.85-1.76-5.09-.22-9.03l-11.04-.57c-1.19-5.74-1.33-11.56-.44-17.46,3.51-1.25,7.29-.7,10.62-.69Z"/>
  <path class="st19" d="M108.78,108.05c1.77.01,6.55-1.06,7.17,1.09l2.4,8.31c-2.98,2.18-6.42,3.42-10.32,3.72l-2.09-2.63c.08,4.19-6.12,4.14-7.06.32l.02-1.01.11-9.86,9.76.07Z"/>
  <path class="st6" d="M145.08,60.25c.25.87.43,2.83-.34,3.95l-23.11.08c-.39-2.25-.14-3.81.05-5.57l17.91.06c2.37,0,4.08.71,5.5,1.49Z"/>
  <path class="st4" d="M51.09,154.6l-18.6.48c-2.16.06-5.32,1.3-6.93-.83-.19-2.42,1.19-3.43,4.14-3.02-.23-3.18.84-5.02,3.2-5.5,2.59.03,6.72-1.3,9.56.58,1.54,1.02.32,6-.91,7.36l9.52.92Z"/>
  <path class="st34" d="M70.57,98.99c-2.79.32-6.92,1.39-9.82-.81-1.8-1.36-1.23-5.4-.95-7.46l10.61.12.16,8.16Z"/>
  <path class="st22" d="M32.91,145.73l-.27,8.15-7.07.36c-1.74-2.31-.88-5.89-.88-8.62l8.23.11Z"/>
  <path class="st25" d="M153.23,155.62c.44,1.75,1.48,6.1-.18,7.73-2.02,1.97-5.99.67-7.99.56-4.94-.45-4.3-10.37.99-8.43l7.18.15Z"/>
  <path class="st2" d="M151.48,108.79c3.55.71,2.66,6.05,1.98,9.03l-8.51-.14c-4.21-.52-4.09-8.01-.09-8.97,2.13.07,4.1.9,6.62.08Z"/>
  <path class="st26" d="M80.72,32.19l-.06,8.34-8.34.21c-.06-1.85-.86-6.07.65-7.6,1.96-1.59,5.79-.88,7.75-.95Z"/>
  <path class="st28" d="M77.96,145.71c-.11,1.99,1.13,5.93-.67,8.09-1.6,1.92-6.07.9-7.83.5-.26-1.82-1.37-6.29.44-8.09,1.94-1.94,6.06-.44,8.06-.5Z"/>
  <path class="st8" d="M153.97,50.23l-.13,7.2h-8.71s-.41-7.61-.41-7.61c3.28-.63,6.27-.08,9.25.41Z"/>
  <path class="st0" d="M79.16,82.51c.61,1.87,1.7,5.72.44,7.41-2.19,1.22-5.93.42-8.21-.21l.51-7.1c2.17.02,5.15.43,7.26-.1Z"/>
  <path class="st27" d="M61.06,31.14c-1.82-.09-2.42-10.28-.44-17.46l.44,17.46Z"/>
  <path class="st31" d="M33,127.41c-1.77-1.33-3.33-1.52-4.67-.57-.71.19-2.2.26-2.15-.38l.25-3.14c.16-2.01-.08-4.25.89-4.86s4.62-.17,5.28-1.08c1.34-2.11.52-6.73.43-9.27l11-.05c.41,3.03,1.16,7.55-.89,9.96-1.66,1.95-6.06,1.09-9.01.59.39,4.02.93,6.97-1.12,8.8Z"/>
  <path class="st21" d="M33,127.41c-1.62.08-3.12-.09-4.67-.57.83-1.91.28-5.32.41-7.54.43-.68,3.79-.77,4.43-.08l-.17,8.19Z"/>
  <path class="st11" d="M144.86,108.71l.09,8.97.43,1.61c2.01,1.3,3.06,4.15,3.13,8.55,2.49-.5,4.05-.7,5.15,2.11l.17,5.93c-.9,2.27-2.85,2.96-5.86,2.07.75,7.59-2.15,11.3-8.71,11.14.4,7.66-2.73,8.63-9.54,9.24.58,3.25-.4,5.17-2.94,5.74h-19.39c-1.17-3.34-.94-5.97-.8-9.1-2.94-.74-5.29-.52-7.64-.38l-.06-35.73,7.06-.32c3.22.52,4.31,3.27,3.27,8.26-5.71,3.24-2.97,14.11,4.69,8.72-4.21.42-3.77-7.5.25-8.05.07-1.3.53-1.33,1.32-.2.83-1.89,1.35-4.26,1.56-7.11l2.72-1.3c1.14-.24,2.63-.44,3.39-1.22s.77-1.92.8-2.81l.24-6.77,20.68.65Z"/>
  <path class="st13" d="M153.66,40.8h-18.12s-.25,8.45-.25,8.45c-7.05,1.29-13.38.13-19.83.02-.96-.32-1.05-1.44.38-1.79,1.15-3.6,3.41-6.06,6.76-7.38l.85-8.68,29.99-.17.22,9.55Z"/>
  <path class="st10" d="M118.35,117.45c.24.34.22,1.28.21,1.66-1.12,2.72-2.15,5.44-3.09,8.16-.34-.11-1.01.19-1.32.2-.46,2.22-1.94,3.04-4.45,2.44-.24,2.37,1.16,4.24,4.2,5.6-.38,2.44-7.3,2.79-7.92.62-.36-6.15,1.45-12.14-.03-17.59l12.41-1.09Z"/>
  <path class="st23" d="M118.55,119.11l1.2-.25-1.26,7.09c-.21,1.22-2.29,1.56-3.02,1.32-.96-2.2-1.72-5.04-.78-7.81.94-.62,3.08-.19,3.87-.35Z"/>
  <path class="st32" d="M122.61,40.1l-2.92,6.01c-.72,1.49-2.9,1.95-3.85,1.37-.26-1.3-1.06-5.1.24-6.16,1.87-1.53,5.06-.96,6.52-1.22Z"/>
  <path class="st9" d="M153.83,135.88l-.12,18.92c-3.27-.71-5.94-.95-7.65.68-2.25,1.61-.92,6.06-.99,8.43l-18.29.16.21-8.72,9.05-.6.63-8.79,8.42-.38c-.67-4.89-.43-8.92,2.05-12.23,2.46,2,4.55,2.55,6.68,2.54Z"/>
  <path class="st33" d="M97.12,40.66c-.17,2.01-.72,4.51-1.9,5.66-4.28,4.21-9.52-3.41-13.35.55l.31-6.41,14.94.19Z"/>
  <path class="st9" d="M153.66,129.95l-6.14.94c-3.28-2.62-2.78-8.22-2.14-11.6l8.23-.45.05,11.11Z"/>
  <path class="st14" d="M42.83,117.44l-8.79.44.48-8.04c2.26-1.19,5.68-.72,8.11-.37l.2,7.97Z"/>
  <path class="st18" d="M114.14,127.47l-.25,8.05c-1.07,1.08-5.84,1.11-6.36-.59s-1.25-6.71.36-7.47c1.78-.84,4.69-.07,6.25,0Z"/>
</svg>