<?xml version="1.0" encoding="UTF-8"?>
<svg id="_레이어_1" data-name="레이어_1" xmlns="http://www.w3.org/2000/svg" version="1.1" viewBox="0 0 177.48 177.48">
  <!-- Generator: Adobe Illustrator 30.3.0, SVG Export Plug-In . SVG Version: 2.1.3 Build 182)  -->
  <defs>
    <style>
      .st0 {
        fill: #7e5528;
      }

      .st1 {
        fill: #894808;
      }

      .st2 {
        fill: #c0a16d;
      }

      .st3 {
        fill: #7e4d17;
      }

      .st4 {
        fill: #7b5024;
      }

      .st5 {
        fill: #794b1c;
      }

      .st6 {
        fill: #794d1f;
      }

      .st7 {
        fill: #813c05;
      }

      .st8 {
        fill: #fbb850;
      }

      .st9 {
        fill: #fcc05a;
      }

      .st10 {
        fill: #a182c5;
      }

      .st11 {
        fill: #72481b;
      }

      .st12 {
        fill: #73c982;
      }

      .st13 {
        fill: #7b5021;
      }

      .st14 {
        fill: #f2e5c5;
      }

      .st15 {
        fill: #954c09;
      }

      .st16 {
        fill: #7e4f1c;
      }

      .st17 {
        fill: #84470e;
      }

      .st18 {
        fill: #cd6e08;
      }

      .st19 {
        fill: #7d3f04;
      }

      .st20 {
        fill: #df8619;
      }

      .st21 {
        fill: #faf5df;
      }

      .st22 {
        fill: #ee746c;
      }

      .st23 {
        fill: #d3770e;
      }

      .st24 {
        fill: #874307;
      }

      .st25 {
        fill: #d97f14;
      }

      .st26 {
        fill: #874206;
      }

      .st27 {
        fill: #f6a73d;
      }

      .st28 {
        fill: #96a1ce;
      }

      .st29 {
        fill: #794a1b;
      }

      .st30 {
        fill: #833f05;
      }

      .st31 {
        fill: #7b4e1b;
      }

      .st32 {
        fill: #b9976a;
      }

      .st33 {
        fill: #fbfbfb;
      }

      .st34 {
        fill: #b9a07f;
      }

      .st35 {
        fill: #e2b87e;
      }

      .st36 {
        fill: #814407;
      }

      .st37 {
        fill: #703a06;
      }

      .st38 {
        fill: #fdfdfd;
      }
    </style>
  </defs>
  <path class="st21" d="M134.49,86.58l1.24,14.66-11.7-.17c-.64-3.16,2.14-4.21,8.36-3.14l-.05-2.68-14.58.38c-7.17-.94-8.32-6.08-3.7-10.04,1.84-6.32,10.44-1.65,10.78,4.1-.07-3.17-.33-6.28-.78-9.34-4.54.03-7.23-3.09-4.98-7.42,6.21-3.46,9.29-7.71.41-9.75-1.6-1.42-2.4-4.02-2.4-7.79.89-4.08,1.29-8.43,1.19-13.05l2.04-1.76.02-1.53c2.58.7,5.44,1.24,8.56,1.63-.42,4.6-.3,9.13.35,13.59,2.43-.4,4.39-.08,5.87.95l-.03,29.74c1.42.78,1.15,1.32-.59,1.64Z"/>
  <path class="st25" d="M116.03,123.19c-1.31,1.62-3.35,2.57-6.1,2.85l.37,17.81c3.25-.55,5.17.19,5.76,2.24-1.86,1.64-4.66,1.35-8.35,1.05l.34,13.88c.02.8-.48,1.26-1.04,1.16l-2.26-1.32c.97-1.85-.05-16.16-2.36-11.2l.04,10.86-2.29,1.61-.96.16c-1.94-.45-2.96-2.37-3.05-5.77-4.94,1.75-7.45-.97-7.53-8.15-2.22.11-2.19-.76.06-1.3.19-1.75,1.86-2.57,5.03-2.45.18-3.3.49-8.07,4.42-5.34,2.13-1.28,3.69.28,4.68,4.66,3.31,1.17,3.67-12.16-.39-10.94-2.44.56-3.98-.05-4.63-1.84-2.03,1.55-2.56-.1-1.59-4.95-4.6-3.31,1.91-5.88,5.58-6.54.24-2.16.95-3.98,2.14-5.48,3.49-.44,4.95-1.64,4.39-3.59-2.07.11-3.32-.7-3.74-2.45-3.48-.42-3.29-7.39.04-8.08.31-4.49,12.56-2.2,13.43.48.81,2.47.6,15.81.29,19.34l-2.27,3.29Z"/>
  <path class="st17" d="M114.06,85.59l-.29,7.55c6.92.5,12.85.08,19.99-.39,1.25,1.55,1.53,6.42-.16,7.43-3.31.28-7.46-.97-9.57.9v22.11s-8,.02-8,.02c0-7.05-.45-14.08.16-21.79-3.98-2.02-7.74-1.33-11.62-1.32-5.23-1.53-2.57-9.14,2.61-9.45-.84-5.34,4.05-10.8,6.88-5.04Z"/>
  <path class="st14" d="M50.65,85.19c2.24.47,3.22,2.34,2.94,5.59l2-.12c-.99-6.65,5.25-10.99,7.77-4.5,3.64-.29,4.67,5.56.97,6.25.06,1.89-1.24,2.85-3.9,2.89,0,2.09-.25,3.36-2.68,3.7.21.71-.23,1.98-1.32,3.82,1.07,6.13,1.44,12.39,1.1,18.78l-2.29,1.6c-.71-.2-1.16-1.03-1.16-2.22l.07-20.36c-4.21.5-8.13,1.38-11.77.25l1.65-15.36c-3.44,1.03-6.05,1.33-9.45.71l.03-29.63c0-.86.61-1.36,1.18-1.03l2.3,1.31-.05,25.87,3.33-.14-.11-19.26c-.62-5.29,1.07-7.85,5.09-7.67.43-1.5,1.15-2.15,2.16-1.96.74-4.26,1.41-8.58,2.01-12.94.88-1.77,1.68-1.37,1.22.52l2.32,1.97c.81,5.49,1.04,22.46-6.41,21.55-.47,5.99-.75,12.02-.84,18.09,1.6.31,2.89,1.08,3.87,2.3Z"/>
  <path class="st0" d="M107.98,17.39c4.4.16,3,6.71-1.02,4.79-1.21-.43-2.12-1.33-2.71-2.68l-31.52.16-1.36-2.29.08-8.1,35.55.06c.1,3.27.05,5.76.98,8.07Z"/>
  <path class="st31" d="M43.84,55.43c.87-2.96,1.87-2.79,2.48.22-4.99.48-1.48,16.47-2.89,29.5l-7.72-.05.06-29.56,8.07-.11Z"/>
  <path class="st20" d="M97.75,131.16c2.07,2.07,1.84,5.76.34,8.12-2.68.69-1.59,4.31-2.26,6.06-1.04,2.68-5.33,1.77-7.18,1.73-.5,3.5-8.39,3.18-9.03-.19.09,3.47-7.72,3.72-8.67.37-2.55.11-5.83.89-7.9-.93.31-3.49,7.27-3.51,8.04-.2.13-2.21,2.13-3,6.01-2.36-.57-2.61.17-4.17,2.22-4.69.43-2.35,2.62-3.4,6.57-3.17.14-2.65,1.01-4.85,2.62-6.59,3.03-.12,5.59-1.15,7.66-3.1-.11,1.78.86,3.72,1.59,4.95Z"/>
  <path class="st29" d="M142.81,85.22l-7.7.63c.27-10.51.06-20.94-.65-31.29,2.06,1.5,4.74,1.5,7.11.94.7.04,1.35.85,1.35,2.07l-.11,27.65Z"/>
  <path class="st24" d="M71.17,131.44c3.44-.42,3.23,6.12-.05,6.65,1.05.23,1.1.62.17,1.16,3.46-.31,3.08,6.37-.22,6.88l-8.04.2.28-23.22c-1.2-2.67,4.8-2.78,6.2-2.21,4.77,1.94,5.55,7.76,1.65,10.54Z"/>
  <path class="st26" d="M116.03,123.19l.03,22.9c-2.84.04-5.65.46-8.33-.44,1.03-7.78-.08-14.25-.16-21.91,2.88-1,5.86-.46,8.45-.54Z"/>
  <path class="st13" d="M58.67,24.38c3.24-.2,2.74,11.99,2.08,13.85-1.06,3.01-2.16,4.61-4.59,1.9-.68,2.64-2.43,2.56-4.45,1.14-.27.09-.89.22-1.22-.52-.45,3.05-.68,6.18-.69,9.42-2.09,1.06-3.99,2.43-5.72,4.12l-.47-14.91,7.67.25.4-15.15,7-.11Z"/>
  <path class="st7" d="M99.16,162.29c.1,2.46,1.12,4.93-.21,7.61l-19.7-.24c-.4-1.38-.9-6.98-.27-7.79l9.48-.07c.56-3.07,9.78-2.85,10.7.49Z"/>
  <path class="st30" d="M63.7,100.13c-.12,2.31-1.2,3.66-3.74,3.4.98,1.47,2.01,2.99,3.11,4.57.89.2,1.97.45,2.32,1.22.54,1.18,1.12,13.97-2.07,13.79l-8.1.07-.04-20.74c0-1.93,1.89-2.73,2.56-3.45,1.54-2.46,5.5-1.8,5.97,1.14Z"/>
  <path class="st34" d="M126.59,25.12c1.83,4.28,1.12,9.07.59,14.33l8.5-.02.03,15.72,5.86.35c-1.41,1.18-3.52.91-5.9.26v29.37s7.14.09,7.14.09c-2.3,1.84-5.52,1.22-8.32,1.35l.03-30.45c-1.89.39-6.15,1.02-7.21-.38-1.81-4.8-.61-10.08-.51-15.46l-6.48.28c-4.42-1.94-4.4-13.42-.73-16.14.26-1.02.64-1.04,1.16-.08l2.3,1.23c-.3,1.29-.06,14.56,1.43,11.51.07-3.44.02-6.9-.14-10.36l2.26-1.62Z"/>
  <path class="st20" d="M99.16,162.29h-19.67s-.25,7.37-.25,7.37c-1.55-2.33-1.12-5.15-.97-7.62-.76-1.11-.5-1.41.78-.93.41-1.98,2.87-2.88,7.39-2.7-.99-4.95-.28-8.3,2.13-10.03,1.5.71.97,2.9,1.32,4.69.38,1.94,6.38,2.23,6.73.17.36-2.16-.53-4.52,1.92-5.89l.61,14.95Z"/>
  <path class="st1" d="M79.61,146.88c.87.15,2.15.41,2.26,1.05.47,2.87.41,12.59-2.8,13.17-.46-.01-.75.48-.78.93-2.34.02-4.8.39-7.25-.48l-.1-14.31,8.67-.37Z"/>
  <polygon class="st37" points="107 162.19 100.12 162.13 100.07 147.37 107.44 147.17 107 162.19"/>
  <path class="st11" d="M120.74,24.36l-1.16.08c-1.11,4.5-18.83,2.82-12.62-2.26,1.47-.97,1.65-3.22,1.02-4.79l12.09-.41c.88,2.54.6,5.01.67,7.39Z"/>
  <path class="st6" d="M71.37,17.36c2.81-.97,2.73,5.72,2.06,6.82-2.05,3.36-12.99,4.09-14.76.19-.05-2.11-.87-4.31-.01-7.12,4.59-.71,8.73-.05,12.72.1Z"/>
  <path class="st4" d="M126.59,25.12l.38,14.4-6.16-.29-.07-14.87c1.92-.14,4.23-.21,5.85.76Z"/>
  <path class="st5" d="M50.48,40.75l.5,14.69c-2.14,1.22-3.64.11-4.66.2l-2.48-.22c-.12-.45.2-.88.23-1.14l1.3-14.03c1.61,2.65.37,5.76,1.01,7.86.35,1.14,2.89.61,2.94-.38l.13-2.97c.06-1.25-.44-4.06,1.04-4.02Z"/>
  <path class="st38" d="M106.96,22.18c-.07.58-.1,2.26,1.14,2.26h11.48c.07,5.43-.43,10.84.73,16.14.8,3.67.08,7.86-.23,12.12-.28,1.07-2.2,2.37-2.99,2.69l-.76,2.35c-1.87-.36-2.58.49-2.11,2.55,2.88.09,4.64,1.05,5.27,2.88l1.56-1.45c1.42-1.32,6.6,2.18,6.29,5.5-.67,7.11-9.02,4.46-6.31,10.16.83.76,3.92.43,5.45,1.17l.81,13.57-12.38-.3.55-4.43c.55,1.28.59,2.84,1.54,3.39,1.03.6,2.99.38,3.9-.23.75-.5,1.21-2.69.34-4.03-1.42-2.19-5-1.3-7.18-.94-.96.16-2.72-.49-3.76.24-1.63,1.15.04,5.57-1.12,6.61-.54.48-2.37.39-3.34.86-2.81,1.38-1.27,4.91-1.28,6.78.19,3.45-6.87,3.67-7.77.36-3.14.55-5.88.45-8.23-.31-2.03.37-2.85-.95-2.46-3.94-3-.13-4.85-1.11-5.52-2.94l-1.16-.52c-7.24.95-10.48-.71-9.72-4.98-3.2.76-5.32.23-6.36-1.61-1.35.19-3.45-1.54-5.36-.17.16,1.92.16,4.41-.37,5.78-.67,1.74-5.99,1.77-6.33.17-.51-2.41.08-4.59-.64-6.74-3.53-1.75-4.55-5.7-3.06-11.87.46-7.12,4.8-8.64,13-4.56,4.55,1.81,5.86.25,3.92-4.67,4.07-2.98,4.46-5.73,1.17-8.24-.18,3.45-6.63,3.04-7.13-.25-4.63,2.27-5.88-1.17-3.74-10.3-.73-2.58-.28-4.3,1.35-5.17,1.49-.09,2.39-1.21,2.4-3.05l.11-12.7h12.62s.09-7.01.09-7.01l35.35-.17c.45,2.2.4,3.68.24,4.99Z"/>
  <path class="st22" d="M117.09,55.39c.19-.12,1.98-.24,2.2.29,1.11,2.59.57,5.26.2,7.5l-7.6-.14.09-7.31,5.11-.35Z"/>
  <path class="st27" d="M96.47,108.08c.44-3.47,7.4-3.25,8.06.08,1.48.01,3.53-.28,5.14.38,1.3.54.8,3.38.77,4.8-.07,2.55-3.43,1.7-5.13,2.51-1.04.5-.78,3.84-1.42,4.79-2.14,3.2-6.92.24-7.73,5.56-.21,1.41-.3,3.33-1.13,4.13s-3.77.92-5.45.67c-1.32,2.14-1.08,4.39-1.31,6.91l-8.96,1.16c-.29,3.46-7.22,3.51-8.01.17.01-.36-.18-.81-.17-1.16,1.02-2.22,3.03-2.95,6.04-2.21l-.21-3.38c-2.2.38-4.13.02-5.78-1.06l-.21-8.22-7.65-.11-.25-15.01c-4.89-2.28-.67-7.62,2.56-9.61s9.45,2.79,8.14,6.67c4.47.61,9.15.77,14.05.49,2.08,2.1,3.15,4.59,3.23,7.46h2.96c-.45-2.86.37-4.53,2.47-5.02Z"/>
  <path class="st27" d="M98.08,139.28c-1.87-2.38-1.57-5.75-.34-8.12,3.07-.67,6.49-.81,9.35.81l.32,14.18c-3.25.22-5.34.31-7.69-.61.42-3.16-.48-4.79-1.64-6.26Z"/>
  <polygon class="st8" points="88.64 147.07 88.59 148.37 88.8 161.32 79.06 161.11 79.61 146.88 88.64 147.07"/>
  <path class="st15" d="M104.57,100.08l-.04,8.08-8.06-.08c-2.75,5.59-10.86-.06-10.63-4.56l.58-2.15,10.38-.93,7.77-.36Z"/>
  <path class="st33" d="M56.15,40.13c3.42,8.29-3.98,13.97,2.4,15.47,1.58.92,2.34,2.74,2.27,5.47,2.84.79,3.76-.38,2.77-3.52l2.08-1.69c1.47.05,2.97.23,3.84.89,1.16.88,1.36,3.56.48,4.5-.6.64-3.49,1.16-3.35,1.94l1.51,8.03c-6.13,1.29-10.89-1.06-16.62-3.14-2.37,5.35-2.68,11.81-.89,17.12-1.95.72-5.39,1.07-6.23-.72l.78-23.15c.52.99,4.74,1.97,5.12.72,2.16-7.06,1.4-14.07,1.38-20.76,1.13-1.36,2.93-1.7,4.45-1.14Z"/>
  <path class="st2" d="M80.59,93.26c-.43,3.52-8.35,3.38-9.09.03-.85,3.37-6.86,2.47-7.17-.89.15-2.06-.37-4.19-.97-6.25,2.5-.35,6.64-1.51,8.88.15-.03,1.33-.77,4.35-.05,5.19,1.51,1.78,8.46-.69,8.42,1.76Z"/>
  <path class="st3" d="M51.61,100.22l-7.72-.12.11-6.8c2.7-.45,4.94-.34,7.36.01l.26,6.91Z"/>
  <path class="st19" d="M64.32,92.4c3.54,1.63,3.45,7.19-.62,7.73-2.12.07-4.13-.17-5.97-1.14l.61-5.97,5.98-.62Z"/>
  <polygon class="st9" points="79.32 139.07 79.43 146.05 71.09 146.12 71.3 139.24 79.32 139.07"/>
  <path class="st20" d="M71.13,138.09l.05-6.65c2.46-1.41,5.68-1.71,8.28-.64l.02,8.28c-3.15-1.24-5.72-1.23-8.34-.99Z"/>
  <path class="st23" d="M71.5,93.28c1.96-.3,2.81,1.23,2.54,4.6,3.51-.66,5.65.12,6.43,2.35.38-3.48,7.37-3.41,8.11-.09l8.23.31c-2.16.07-4.21.95-7.44,1.04-1.6.06-1.8,5.18.12,5.93,2.44.95,4.91.65,6.99.67l-.2,6.97c-2.52.57-4.87.58-7.69-.03l-.29-7.15-16.16.2c-1.16-1.38-.35-5.01-.81-6.66-2.31-1.46-5.57-.8-7.76.04l-.5,6.65c-1.8-.05-3.43-.82-4.37-1.74-1.26-1.23-1.47-5.13-.17-5.3,1.9,0,4.41.66,5.18-.93,1.13-2.31.45-5.26.62-7.73l7.17.89Z"/>
  <polygon class="st16" points="134.65 55.5 127.63 55.19 127.35 40.2 134.51 40.11 134.65 55.5"/>
  <polygon class="st35" points="96.3 55.3 88.13 55.61 87.59 47.68 96.02 47.9 96.3 55.3"/>
  <path class="st28" d="M65.68,55.85c.19,1.59,1.04,5.57-.44,6.75-1.83,1.39-5.11.8-6.93.24-.34-2.76-.26-5.06.24-7.24l7.13.25Z"/>
  <polygon class="st10" points="105.81 40.17 98.18 39.76 98.24 32.36 105.73 32.37 105.81 40.17"/>
  <path class="st32" d="M88.57,100.14l-8.11.09c-3.45-.09-3.16-6.46.13-6.97l7.71.15.27,6.73Z"/>
  <path class="st12" d="M79.15,39.34c-2.6.57-4.97.41-7.24-.15l.61-6.67,6.56-.08.06,6.9Z"/>
  <path class="st18" d="M87.67,122.82c-2.27,1.78-5.51.93-8.06.97-.7-2.3-.91-4.78-.19-7.56,2.46-.49,5.63-1.02,8.17-.16,1.53.53,1.51,5.62.08,6.75Z"/>
  <polygon class="st36" points="80.59 93.26 80.46 100.23 71.61 100.16 71.5 93.28 80.59 93.26"/>
</svg>