<?xml version="1.0" encoding="UTF-8"?>
<svg id="_레이어_1" data-name="레이어_1" xmlns="http://www.w3.org/2000/svg" version="1.1" viewBox="0 0 177.48 177.48">
  <!-- Generator: Adobe Illustrator 30.3.0, SVG Export Plug-In . SVG Version: 2.1.3 Build 182)  -->
  <defs>
    <style>
      .st0 {
        fill: #bbe0fd;
      }

      .st1 {
        fill: #0674f3;
      }

      .st2 {
        fill: #b4dcfd;
      }

      .st3 {
        fill: #0779f2;
      }

      .st4 {
        fill: #0f78f0;
      }

      .st5 {
        fill: #0776f6;
      }

      .st6 {
        fill: #c6e6fd;
      }

      .st7 {
        fill: #b8defc;
      }

      .st8 {
        fill: #0574f1;
      }

      .st9 {
        fill: #b9ddfc;
      }

      .st10 {
        fill: #fff;
      }

      .st11 {
        fill: #0575f4;
      }

      .st12 {
        fill: #0674f2;
      }

      .st13 {
        fill: #0a74f1;
      }

      .st14 {
        fill: #0674ef;
      }

      .st15 {
        fill: #b7ddfc;
      }

      .st16 {
        fill: #0974ee;
      }

      .st17 {
        fill: #0474f6;
      }

      .st18 {
        fill: #0570ed;
      }

      .st19 {
        fill: #b2dbfb;
      }

      .st20 {
        fill: #0472f3;
      }

      .st21 {
        fill: #0574f2;
      }

      .st22 {
        fill: #fdfdfd;
      }
    </style>
  </defs>
  <path class="st10" d="M128.15,72.83v-28.85h-14.11v-8.85h-44.35v8.85h-13.17v29.94c-2.86.25-5.71.21-8.55-.17,2.99-1.73,1.65-7.31-1.33-8.78-1.21-.6-16.76-.97-15.2,3.7-2.52-.03-4.71.23-6.57.78l-.09,1.24-1.86,1.25-.04,9.73-8.17.18-1.02,1.85-1.86,1.34c-.74,5.54-.74,21.94-.08,27.55.06.53,1.13.75,1.85.84,1.11,1.3,2.83,1.61,5.15.93l4.15.14.15,7.5,1.88.99,1.33,1.85,21.13-.4c1.85-2.35,2.49-5.55,1.91-9.63l6.03-.22c-.08,3.32.32,6.41,1.19,9.26,2.81.5,5.5.96,8.07,1.36-.67,4.08-.01,6.65,1.98,7.7l1.35,1.86,30.28-.13c2.22-2.07,2.89-5.07,2.01-8.99l8.09-.58v8.04h55.81v-60.28h-35.95Z"/>
  <path class="st15" d="M127.93,122.76c.32-2.66,2.22-2.66,3.01-.15,2.31,2.74.34,6.63,1.59,10.14-2.62.67-5.59.87-8.91.59-1.93-1.98-7.81-1.97-9.27.55l-10.04-.21c2.58-1.26,2,8.77,1.58,9.09-.47.36-1.58.86-1.76.93-12.65.09-25.17-.1-37.57-.57-2.93-.64-2.79-9.34,0-10.23l31.62.07c.58-3.15.44-5.42-.06-9.05l15.73-1.13.21-10.23,11.09.09.26,9.87c.35.56,1.97.24,2.52.23Z"/>
  <path class="st22" d="M130.95,122.62l-3.01.15-.82-9.97c1.22-1.22,2.8-2.8,2.63-4.39-.1-1-1.94-3.13-1.43-3.91l4.7-7.2c.68-1.05-.82-3.08.09-4.19,1.97-2.4,6.56-1.79,9.34-11.49.9-1.18,2.74-1.95,4.24-2.76l1.91,5.59c.34,1,2.13,1.21,2.07,2.37-.2,3.48-6.73-.03-7.25,11.72-.1,2.3-1.01,4.75,1.14,6.16,1.19.78,4,2.07,5.17-.31.8-1.62,1.16-5.21,4.24-4.91,1.1.11,2.04,3.86.82,4.27-10.7,3.66-2.96,13.7-9.09,15.91-1.51.54-7.89-4.03-8.19-10.33-1.88,1.61-1.31,2.93-1.24,4.83-2.73,2.14-5.5,5.4-5.32,8.45Z"/>
  <path class="st14" d="M114.07,35.37c-.82,1.93-3.09,2.54-6.79,1.83-3.32.63-5.44,0-6.35-1.88l-31.08-.08.31-11.02,43.79.08.13,11.07Z"/>
  <path class="st12" d="M66.56,132.91v10.23s-41.73.19-41.73.19l.03-10.33,1.05-1.86,21.44.1c2.98-3.75,8.7-3.23,12.09-.23,3.64-.65,6.02-.02,7.12,1.9Z"/>
  <path class="st4" d="M13.69,83.69l-.09,29.73c1.94.47,2.57,2.83,1.88,7.08,2.78.09,5.61.34,8.48.76l1.01,2.35c2.9.59,2.68,8.61-.1,9.4l-.92.17-1.24-.07c-.64-2.18-.89-4.71-.75-7.59-5.29-1.19-7.37.94-6.25,6.39l-1.89,1.21c-1.58-2.64-1.11-5.96-.93-9.78l-9.27-.58v-38.84s9.99-.18,9.99-.18c-1.17-4.5-1.37-10.78.18-13.18,2.72-.53,2.09,11.22,1.76,11.9s-1.14.98-1.87,1.25Z"/>
  <path class="st8" d="M148.32,143.24l-44.1.04c.61,4.26,1.17,7.55-.43,10.32l-1.24-.05c-.51-2.46-.94-5.01-1.3-7.65h-33.67s-1.09-1.87-1.09-1.87l.06-.89h37.49s.26-9.46.26-9.46l3.7-.49c2.36.45,4.38.23,6.06-.67.67,6.22,3.63,6.12,8.85-.31l4.27,1.18,21.13.26c.45,3.16.83,6.44,0,9.59Z"/>
  <path class="st11" d="M134.42,73.32c.02,3.8-11.55,2.58-8.71-.39,0,0,.16-1.39.47-4.16l.05-13.84c-2.88-.41-2.85-7.65-.12-8.38-.81-.13-.77-.36.04-.67l8.81.34.13,16.89,16.92.14c.42,3.49.45,6.79,0,10.14-6.41-.02-12.01-1.45-17.6-.08Z"/>
  <path class="st21" d="M56.6,46.64c1.45.06,1.62.33.37.85.28,8.75.13,17.44-.43,26.07.16,1.44-.02,1.62-.56.41l-7.99-.21-.78-6.93-13.62.06c-.19,1.8-.37,2.83-.98,3.92l-7.81-.12-.14-8.83,22.74-.44.31-15.26c3.22-.14,6.17-.12,8.91.49Z"/>
  <path class="st17" d="M164.79,122.83c-.23.8-.5.76-.79-.06-2.55.73-2.21-7.35-1.83-9.06.07-.3.67-.48,1.42-.63l.04-28.27c-1.17-.41-.92-.77.47-1.09l9.59.47v38.59c-3.46.64-6.18.28-8.89.07Z"/>
  <polygon class="st20" points="103.79 153.6 66.59 153.65 66.5 144.03 103.62 144.05 103.79 153.6"/>
  <path class="st5" d="M153.05,122.69c.07-2.79,9.39-2.2,10.38-1.16.3.31.45.76.57,1.24l.79.06-.38,10.3-15.95.2c.99,3.91,1.49,7.26-.15,9.9l-.16-9.39-24.47-.07-3.83,4.05c-1.46,1.54-3.44,1.25-4.64.84-2.1-.72-2.4-2.61-2.12-5.07l-8.8.08c2.24-1.27,5.05-1.18,8.3-.29,1.41-2.86,3.87-3.9,6.88-2.65,2.97-1.45,4.25.38,5.91,1.66,1.97,1.27,5.26.29,7.14.36l15.54.58c1.18-3.25.47-6.58.48-10.53l4.5-.12Z"/>
  <path class="st3" d="M57.52,69.52c1.44,2.75,3.05,5.83-.99,4.03l.07-26.92c2.42-2.26.08-6.87,1.32-11.52l11.65.26.12,11.26-12.37.37.19,22.51Z"/>
  <path class="st7" d="M134.42,73.32l.55,10.66-15.81-.07.25-10.65,6.01-.29c-.63-2.03-.29-3.62.76-4.19l-.19,4.73c3.15.06,5.9.44,8.43-.18Z"/>
  <polygon class="st16" points="24.78 70.68 24.73 83.8 13.69 83.69 13.8 70.54 24.78 70.68"/>
  <path class="st19" d="M164.1,83.71l-.1,39.06-10.95-.08c1.52-2.97.75-6.37.76-9.98,3.37-.41,6.31-.58,9.33.55l.02-28.64c-3.84-.24-7.26.74-10.43-.62.78-3,10.23-3.08,11.36-.29Z"/>
  <path class="st0" d="M114.07,35.37c2.96.78,2.84,10.19.02,11.23l-13.36-.78-.37-5.87c-.1-1.51.15-3.05.57-4.64l13.15.06Z"/>
  <path class="st18" d="M126.15,45.88l-.04.67c-.86,2.98-10.88,2.88-12.02.04l-.02-11.23,12.03-.02.05,10.53Z"/>
  <path class="st13" d="M164.1,83.71l-11.36.29c-.19-3.72-.47-7.45.19-11.1l11.12-.08.04,10.88Z"/>
  <polygon class="st6" points="126.11 46.56 126.23 54.94 114.05 55.07 114.09 46.6 126.11 46.56"/>
  <polygon class="st1" points="23.94 133.17 13.82 133.11 14.07 123.78 23.98 123.62 23.94 133.17"/>
  <path class="st22" d="M119.19,57.55l-.69,6.14c-2.49-.71-4.21-.22-6.74.32-2.23.48-4.21-3.07-4.07-4.96.15-2.02,2.79-4.99,5.26-4.09,2,.73,3.36,2.73,6.24,2.58Z"/>
  <path class="st15" d="M66.56,132.91l-8.11-.05c-2.78-3.3-7.57-3.23-10.44.01l-23.14.12.1-9.4-.04-.62,22.38-.16.17-10.15,9.91.08.1,9.97,8.92.05.17,10.14Z"/>
  <path class="st2" d="M24.92,122.99l.04.62c-3.28-1.57-7.09-.95-11.33-.76l-.03-9.42c3.46-1.31,7.24-.92,11.11-.8l.21,10.37Z"/>
  <path class="st9" d="M64.81,75.26l-.09,8.49-8.25.03-.04-9.42c-3.04-.06-5.92.75-8.45-.61l8.55-.19c1.46,0,1-2.9.99-4.03,1.17,2.55,3.96,3.71,6.97,3.45.55.62.33,1.76.32,2.29Z"/>
</svg>