<?xml version="1.0" encoding="UTF-8"?>
<svg id="_레이어_1" data-name="레이어_1" xmlns="http://www.w3.org/2000/svg" version="1.1" viewBox="0 0 177.48 177.48">
  <!-- Generator: Adobe Illustrator 30.3.0, SVG Export Plug-In . SVG Version: 2.1.3 Build 182)  -->
  <defs>
    <style>
      .st0 {
        fill: #fac210;
      }

      .st1 {
        fill: #d77108;
      }

      .st2 {
        fill: #fde246;
      }

      .st3 {
        fill: #f9ae7c;
      }

      .st4 {
        fill: #fbb893;
      }

      .st5 {
        fill: #fdf79d;
      }

      .st6 {
        fill: #e68407;
      }

      .st7 {
        fill: #e78b05;
      }

      .st8 {
        fill: #dd7004;
      }

      .st9 {
        fill: #ed920a;
      }

      .st10 {
        fill: #facf19;
      }

      .st11 {
        fill: #db7c09;
      }

      .st12 {
        fill: #dc7b07;
      }

      .st13 {
        fill: #d87c0a;
      }

      .st14 {
        fill: #fbc60b;
      }

      .st15 {
        fill: #e58106;
      }

      .st16 {
        fill: #fcd623;
      }

      .st17 {
        fill: #e3830a;
      }

      .st18 {
        fill: #fbcd0b;
      }

      .st19 {
        fill: #fcc70b;
      }

      .st20 {
        fill: #0e0d04;
      }

      .st21 {
        fill: #fcc610;
      }

      .st22 {
        fill: #ed9006;
      }

      .st23 {
        fill: #151206;
      }
    </style>
  </defs>
  <path class="st2" d="M105.96,30c.58-.16.85.54.81,2.08,1.29.2,3.78.23,7.47.1l1.42,2.48c1.45,2.38,2.46,4.62,3.03,6.71,2.75,2.05,5.82,4.8,9.2,8.24-.62,2.41-.58,2.69,1.7,3.81-.33,2.35-.13,4.6.61,6.74l4.2,1.59c.83,7.19,1.2,14.42,1.12,21.7l2.03,3.03c2.38-4.25,5.85-2.33,10.43,5.76,2.15.35,2.83-.17,2.03-1.55l1.99-1.8c1.01.87,1.11,3.3,1.47,4.85l8.11.4.07,31.36c0,1.33-.46,2.27-1.28,2.35l-2.42-1.39-.03-28.82-3.2-.03-.46,23.35c-.38,4.24-12.48,3.25-14.15,1.66-1.89-1.8-2.86-11.28,1.07-11.61-4.85-.28-7.25-1.85-7.18-4.71l-.83.08c.81,7.65.89,15.37.25,23.16-3.68,4.39-7.5,8.69-11.44,12.92-6.23,1.88-12.32,4-18.29,6.37-2.76.59-28.66,1.65-30.78,1.15-2.42-.57-3.39-1.58-4.79-3.55-7.91,1.24-14.45-2.28-19.63-10.54-2.99-2.74-5.57-5.8-7.74-9.18l-.73-13.75c-3.55-3.86-5.37-.79-5.46,9.2-3.67-1.09-6.85-3.2-9.55-6.32-.94-.26-2.34-.66-2.41-1.38-.23-2.34-.19-18.33.4-19.08,2.17-2.81,9.37-5.32,11.51-1.33,1.44-2.61,3.01-5.4,4.71-8.36l.38-19.17c2.17-1.46,4.11-3.15,5.82-5.05.23-1.93,1.45-3.2,3.67-3.8-1.43-6.35,5.74-15.46,10.99-10.76,1.76.77,4.12.2,7.08-1.74.63-3.04,2.1-5.09,4.43-6.16,2.64-.15,3.17-1.13,1.59-2.92,1.45-3.02,3.9-5.39,7.34-7.11.34-1.04.72-.98,1.13.1.39-2.95,2.93-3.36,7.63-1.21,4.21-.91,6.99-.21,8.33,2.09,2.92-.72,5.71-.71,8.38.05Z"/>
  <path class="st1" d="M111.78,150.9c9.47-.17,14.21-.25,14.21-.25,1.38,7.95-1.52,11.03-8.68,9.26l-1.7.72c-.22,1.43-.44,3.57.15,5.16.34.92,2.9.88,3.75,1.8,1.38,1.49.9,4.71.28,6.66-3.28.31-6.04.73-9.44-.27.7-2.03-.14-4.2-1.29-4.33-1.06-.12-2.29.9-2.54,2.16-.52,2.61-3.35,3.07-4.7,2.15-.93-.63-1.54-3.61-.48-5.12s3.4-1.87,3.93-3.05c.73-1.62.35-5.21-1.51-5.21l-30.32.09c-1.05,1.92-1.04,5.19.26,6.42l3.38.07c.83.02,1.06,5.86-.56,7.03-.69.5-3.08.44-3.37-.33l-1.14-3.13c-.65-1.79-2.82.38-2.42,1.09,1.44,2.52-3.82,3.65-11.07,2.12-1.66-.64-1.4-6.51.45-6.64,1.99-.14,4.26-.37,4.63-1.45.39-1.15.39-2.5.29-4.84l-12.34-.55-.03-8.52,2.14-2.69c16.6.67,33.13.92,49.57.75,5.22-2.41,8.07-2.1,8.54.9Z"/>
  <path class="st19" d="M141.17,110.99c-.51,1.24-1.36,2.25-2.53,3.01l.51,22c-3.56,2.39-5.52,4.82-7.11,8.95-3.17.57-4.54,2.32-4.09,5.24-5.06,1.6-10.45,1.83-16.16.71-2.29-1.18-5.86,1.5-8.65,1.51l-27.35.05c-8.39.01-16.42-1.75-24.25-.52l-.94-1.05c-1.02-3.31-2.99-5.35-5.92-6.11l-2.07-4.73c-4.09-1.88-7.09-9.03-2.35-12.01l.49-1.34c1.46-.12,3.99-.37,4.45.9l1.45,3.96c8.34,4.38,9.01,15.9,22.39,12.18l3.19,3.86,30.74-1.03c2.57-1.51,5.52-3.46,9.13-3.19,2.18.16,5.52-2.29,8.18-2.85,2.82-.58,4.21-6.09,6.36-7.12,5.72-2.74,5.81-8.68,5.11-14.07l-1.43-10.99c-.17-1.28.1-3.67.99-4,.94-.36,3.06-.65,4.18-.38.93.22.99,3.09,1.12,4.1l4.57,2.93Z"/>
  <path class="st7" d="M160.36,127.84l-8.31.07-.13,9.64-15.13.38-.44,12.79c-4.01.12-7.02-.55-10.53.7l.69,9-10.9.21c.44-2.92,6.19-.42,8.97-1.51,1.23-.48,1-3.5.79-5.28-.47-3.84-7.85.01-13.58-2.93l13.7-.27.61-7.1c2.4.67,4.37.03,4.92-.85.42-.69.11-2.99.09-4.07l5.69-2.03-.6-25.42c2.16-.4,3.51-.17,4.98-.15-.18,3.34-.49,6.66.32,10.08l10.34.55.53-27.06,8.03.92-.02,32.36Z"/>
  <path class="st6" d="M38.27,60.29c3.05,1.3,3.37,5.54,1.34,7.7,1.54,10.27-.16,18.95-5.11,26.05-2.14.25-6.34.8-9.38,1.17l-.12,20.62c3.78.8,2.83,9.7.43,11.45l-5.29.58c-1.25.02-2.54.06-4.24-.73l-.08-32.56,8.85-.55c-.91-3.75,1.91-5.1,4.4-5.79l.67-27.79c3.29-.52,5.99-.4,8.53-.15Z"/>
  <path class="st9" d="M106.1,4.65c1.15,4.76.63,9.87-.24,14.63l1.26,9.26c3.46.44,2.97,3.11-.36,3.56l-.81-2.08c-4.21-.06-8.03-.56-11.45-1.51.87-4.05.77-6.41-.31-7.07,1.2,9.68-11.93,8.22-10.88-.2-3.75.31-5.5-3.94-4.97-7.23l-2.45-2.48c-2.4,1.51-3.99-.45-4.77-5.87-.75-.37-.66-.7.18-.98l9.12.1c.71,1.86.16,4.94,1.05,5.94,1,1.12,2.75.63,3.48.75,3.05.5.39,6.2,3.49,6.98,1.8.45,3.54-.54,3.16-3.05-.18-1.24.1-3.02.78-3.4.75-.41,2.43-.62,4.19-.26,1.32-2.07.93-4.35.94-7.04l8.57-.03Z"/>
  <path class="st15" d="M40.25,128.03l.58,9.23c4.38-.34,4.43,3.2,5.38,5.88.96.85,4.87.25,5.01,2.43.1,1.65.06,3.68-.63,5.31l-10.63-.1-.28-13.1-14.62-.26-.07-9.65c.27-2.42,2.86-3.22,7.75-2.38-.26-2.67.44-4.28,2.09-4.82-.52-7.18,1.3-10.4,5.47-9.65l-.05,17.11Z"/>
  <path class="st16" d="M71.14,5.63c2.32,6.43,3.06,13.32,2.23,20.67,3.87-.54,6.25.35,7.13,2.67-.33,4.66-3.27,5.81-7.34,7.11l.12,2.41c-4.33,2.83-8.74,5.64-13.22,8.41-2.87.62-7.44,2.22-8.48,6.12-.41,1.54.69,5.19-1.01,6.57-1.16.94-3.29,1.37-5.16,1.86-1.04-.35-.97-.73.1-1.13-4.14-1.56-2.79-12.17-.16-14.43,1.48-1.28,1.85-1.5,3.92-1.26.33-6.37,3.01-9.38,8.01-9.02,2.65-2.5,6.1-3.5,10.36-2.98-.28-2.1.44-3.41,2.18-3.93l-.1-22.8c0-1.17.96-1.58,1.59-1.26l-.18.98Z"/>
  <path class="st17" d="M69.82,28.71c0,1.37,1.05,4.5-.56,5.74-1.83,1.41-5.43.64-7.84.49-1.92,3.49-4.82,3.62-8.8,2.96l-.54,9.16-6.27.02-.29,13.26c-.11,4-7,3.79-7.24-.04l.19-14.65,7.06-1.01c-.58-2.34-.32-5.05.55-6.23.6-.81,3.28-.15,4.48-.95,2.3-1.54,1.82-5.58,1.27-8.57l18.01-.18Z"/>
  <path class="st12" d="M152,88.89c.85,2.81,1.58,5.39-2.86,5.77-7.36.62-3.47-10.05-11.6-8.18-.6,0-1.12-.06-1.36-.35-.77-.94-1.66-22.96-1.14-24.14.4-.9,1.46-1.34,2.41-1.7l8.52.08.25,27.47c2.25-.03,4.45-.08,5.77,1.05Z"/>
  <path class="st11" d="M137.46,60.28c-1.16,4.51-4.42,2.52-7.27-.12-.19-3.3-.98-5.5-2.38-6.62l.22-3.41c-5.09-2.65-8.37-10.73-1.68-11.86,1.37-.65,4.4-.51,4.69.86.37,1.72.25,3.39-.07,5.74,2.02.82,3.95.59,6.43.72l.06,14.69Z"/>
  <path class="st13" d="M125.15,37.55c-.13,2.73-2.67,3.69-7.62,2.87l-1.86-5.76-8.34-.35c-1.03-.04-.74-1.71-.56-2.23l.36-3.56,17.8.2.22,8.82Z"/>
  <path class="st0" d="M125.15,37.55l1.2.72c-1.29,2.36-1.39,5.23-.77,8.35,1.94.22,3.23.42,4.68,1.24l-.06,12.29c-1.56-.96-1.56-3.58-1.26-5.7-1.36.24-2.5.62-3.09.3-.9-.48-1.22-3.03,0-4.69-2.86-2.76-5.78-4.82-9.43-6.93l-.76-8.47,2.38,3.72,7.11-.83Z"/>
  <path class="st14" d="M40.74,126.69l-.49,1.34c-.22-3.45-.13-6.97-.67-11.15l-.47-3.69c-.12-.9-2.05-1.41-2.72-.77l-1.44,15.4-9.95-.05-4.84.09c.65-1.2,3.35-.75,4.47-1.07l.39-10.95c3.68-.86,6.19,1.44,9.01,5.02l1.02-10.54c2.04.04,3.85-.54,4.46-1.4.67-.95.61-2.29.6-4.22,0-1.26,3.74-1.44,4.76-.69,1.38,1.01,1.35,3.46,1.09,5.19-.23,1.53-3.03,1.9-4.81,2.12l-.39,15.39Z"/>
  <path class="st10" d="M105.86,19.27l.24-14.63c1.39,0,2.19,9.73-.24,14.63Z"/>
  <path class="st8" d="M97.1,101.12l-16.35.23-.72-6.91c-1.28-.27-3.51-.56-3.7-1.51-1.03-5.09,1.2-8.57,6.98-11.98,3.49-2.06,9.66-1.13,13.21-.47l1.28,4.12c.31.99,2.78,1.2,3.59,1.74,1.03,1.66,1.16,5.35-.03,7.07l-3.84,1.59c-.84.35-.58,3.63-.43,6.11Z"/>
  <path class="st10" d="M105.96,30l-9.65.36c-5.04.19-9.69-2.33-14.69-1.3-2.77-.63-4.36-2.93-4.77-6.89-3.34-2.74-5.85-9.52-.95-10.67,1.23-.14,3.12-.11,3.99.48,1.44.97.56,4.52.88,6.08.19.94,3.25.74,3.99,1.36.79.67,1.15,2.8,1.06,4.17-.15,2.47,1.73,2.35,2.66,2.57,1.63.4,3.43.38,3.17-2.31-.11-1.14-.23-4.02.62-4.59.85-.57,3.42-.19,4.29.34,2.94,1.79-1.42,7.65,1,10,2.94-.63,6.55-1.92,8.38.4Z"/>
  <path class="st20" d="M116.87,85.83c-.28,1.07-.69,1.08-1.22.07-3.01.18-6.04.49-9.58-.28v-15.5s10.61,0,10.61,0l.19,15.71Z"/>
  <path class="st23" d="M69.86,85.63c-2.09.76-4.33.93-6.73.52-.53,3.09-1.99,2.39-3.05-.43l.27-15.55,10.09.24c-.23,5.29.93,10.52-.57,15.22Z"/>
  <path class="st22" d="M75.91,11.51c-.95,4.16-.12,6.43,2.99,9.45l2.73,8.11-1.13-.1-9.57-.2.21-23.14,4.77,5.87Z"/>
  <path class="st21" d="M45.51,60.33l-.1,1.13c-.12,1.34.42,3.64-.14,5.04-.36.89-3.22.82-4.4,1.17-1.56,9.77,2.69,17.19-2.1,23.31-.55.71-.81,2.65-1.4,2.72l-2.87.33c-2.44-4.23,2.43-6.29,2.98-8.6,1.93-8.12.59-17.47.79-25.15,2.42.24,4.81.59,7.24.04Z"/>
  <path class="st3" d="M60.08,85.72l9.78-.09c-.6,1.86-5.25,1.3-7.31.86.37,4.08.36,7.71-2.43,9.34-2.43,1.43-6.63,1.07-8.54-1.14-1.49-1.72-2.08-7.33.32-8.53,2.69-1.34,5.95-.41,8.18-.45Z"/>
  <path class="st5" d="M73.16,36.08c1-.07,3.72,0,4.25,1.14.38.79.18,2.81-.14,3.95-2.36-.86-4.92-.89-6.18.39-.91.92-.98,3.23-.81,5.73-6.1-.23-9.63,4.65-11.34,9.71-2,.93-4.68-3.56-3.07-4.77.77-.58,3.38-.23,3.92-1.45.5-1.12.47-2.68.27-3.86-.13-.75-.2-2.19.22-2.83-.86,1.31,9.32-6.85,12.88-7.99Z"/>
  <path class="st18" d="M137.46,60.28l.08,26.2c-.8.19-2,.05-2.65-.3-.8-.43-1.42-1.66-1.48-3l-.76-17c-.13-2.89-.42-4.72-2.45-6.02,2.4.62,4.8.16,7.27.12Z"/>
  <path class="st4" d="M115.65,85.9l1.22-.07c2.84-.17,5.73-.61,9.03.34.81,2.7,1.59,7.01-.41,9.41-1.59,1.91-8.13,1.67-9.18-.53-1.43-2.99-.54-6.67-.66-9.15Z"/>
</svg>