<?xml version="1.0" encoding="UTF-8"?>
<svg id="_레이어_1" data-name="레이어_1" xmlns="http://www.w3.org/2000/svg" version="1.1" viewBox="0 0 177.48 177.48">
  <!-- Generator: Adobe Illustrator 30.3.0, SVG Export Plug-In . SVG Version: 2.1.3 Build 182)  -->
  <defs>
    <style>
      .st0 {
        fill: #f3e9e8;
      }

      .st1 {
        fill: #a47651;
      }

      .st2 {
        fill: #fbb3c7;
      }

      .st3 {
        fill: #fa9bb4;
      }

      .st4 {
        fill: #c60b38;
      }

      .st5 {
        fill: #c85b6a;
      }

      .st6 {
        fill: #c10940;
      }

      .st7 {
        fill: #cd1546;
      }

      .st8 {
        fill: #ca0841;
      }

      .st9 {
        fill: #fdfafa;
      }

      .st10 {
        fill: #f6779a;
      }

      .st11 {
        fill: #fbf6ee;
      }

      .st12 {
        fill: #fb96af;
      }

      .st13 {
        fill: #f781a4;
      }

      .st14 {
        fill: #c2073b;
      }

      .st15 {
        fill: #fccfdb;
      }

      .st16 {
        fill: #fcdfe8;
      }

      .st17 {
        fill: #df6384;
      }

      .st18 {
        fill: #be0537;
      }

      .st19 {
        fill: #bf093c;
      }

      .st20 {
        fill: #fa80a3;
      }

      .st21 {
        fill: #f674a4;
      }

      .st22 {
        fill: #c6083e;
      }

      .st23 {
        fill: #fa759e;
      }

      .st24 {
        fill: #bd093a;
      }

      .st25 {
        fill: #c5113c;
      }

      .st26 {
        fill: #cd073e;
      }

      .st27 {
        fill: #c00538;
      }

      .st28 {
        fill: #f889a8;
      }

      .st29 {
        fill: #fbd2d7;
      }

      .st30 {
        fill: #c01040;
      }

      .st31 {
        fill: #c20b3d;
      }
    </style>
  </defs>
  <path class="st23" d="M88.71,91.86c1.01,5.31-1.81,7.19-8.45,5.66.06,1-.63,1.75-2.06,2.24.93.02.93.3.07.81.8,3-8.98,1.59-9.7,1.14-1.95-1.21-2.44-1.86-2.8-4.13-4.96.74-6.69-.25-5.17-2.97l.55-1.33c9.56-1.48,6.62-3.76-.26-1.54-2.96-.84-3.9-2.29-2.83-4.36-2.28-.61-3.86-1.72-4.75-3.31-3.97-3.85-5.39-1.85-4.26,5.98l-2.07,1.46c-1.78-3.02-1.11-6.44-.54-11.34-3.65,1.06-6.61,1.46-8.64-.27.7-1.73,2.74-2.67,6.1-2.8l.25-36.86c-3.65.67-5.8-.07-6.44-2.21,2.48-2.13,7.19.04,8.11-1.56.44-.78-.05-2.74.25-3.68,2.24-.39,2.89.42,2.82,2.51,2.4-.62,3.88,0,4.45,1.85l2.23,1.15c-2.03,10.74-2.75,20.62-.16,31.39,3.46-.33,5.32,2.31,5.59,7.93,5.05-.89,8.78.36,11.19,3.77l11.96-.07c1.47-2.84,4.11-4.16,7.92-3.98-.62-4.65,1.86-6.92,7.43-6.79-.83-5.64.8-8.44,4.88-8.41l-.16-10.04c-3.39-1-5.33-1.96-5.26-5.84-.83-.34-17.1-.39-17.92-.03-11.82,5.07,3.98,25.34,2.01,7.97,1.84-3.66,10.91-3.58,13.09-.36,1.62,2.39.65,12.52-4.29,11.83l-.47,4.6c-4.8,1.86-16.85,2.73-21.41.69-2.37-1.06-2.9-1.85-2.8-4.46-5.2.49-5.65-2.41-5.68-7.03-.63-5.41-1.47-18.05,5.3-18.01-.29-5.53,4.32-6.15,9.06-6.48.1-3.18,1.27-4.99,3.52-5.4,7.93-.32,15.7.06,23.34,1.14-.1,4.14,1.71,6.01,5.43,5.59l1.58,1.84c-.04,2.47,1.07,3.73,3.32,3.78,1.18,3.04,2.95,4.97,5.3,5.8.7,4.06,1.94,21.68.01,24.4-1.44,2.03-3.97,2.86-6.29,3.39-1.4,4.4-4.54,7.8-9.44,10.2,1.23,2.95-7.86,7.66-9.94,8.03-1.93.34-3.37.28-3.96-1.83Z"/>
  <path class="st31" d="M60.6,94.61c.19,2.11,4.59.28,6.55,1.14.83.36.91,2.63,1.14,3.87l9.98.96c7.9-.42,15.92-.52,24.07-.29l.49-1.87c3.57-.24,6.51-1.92,8.81-5.02l4.36-.09c1.08-4.12,7.92-6.91,9.38-1.96.9.02.91.31.12.87.52.97.29,2.49-.84,2.99-.55.24-2.24.5-2.22,1.56l.12,8.3c-4.83-.79-8.84-1.82-13.07.03,1.83,3.11,4.98,1.98,7.5,1.9.47.88,1.01,7.81.64,7.97-2.08.88-15.79-.08-18.32-1.11l.87-4.37c-3.27-.22-5.32-1.21-6.16-2.97-1.32,1.74-3.6,2.41-6.82,2.01.61,3.57-.13,5.8-2.23,6.68.5,3.14-6.31,3.16-6.89.15-.4,3.05-4.2,2.96-4.92.05-.77,3.29-10.58,3.01-11.55-.16-.69.52-1.04.1-.77-.78v-7.41s6.94-.23,6.94-.23c.61-.02.84-2.82.03-2.83l-9.35-.14c-1.03-2.57-.07-5.53-.41-7.9-1.09-.21-3.19.1-4.13-.43-1.21-.69-.64-2.73-.63-3.98-.6-2.99,5.9-3.13,6.39-.56,2.99-1.81,4.21,2.71.91,3.65Z"/>
  <path class="st1" d="M92.01,134.48c.61,2.2-1.01,3.3-4.86,3.31-.59.99-.41,21.95.02,23.02.35.88,4.41,1.15,4.78-.03l.13-24.63,2.1-1.49c.24-3.07,4.1-3.16,4.94-.3-.19-1.94.64-1.99,1.22-.03,3.75.03,4.53,6.68.91,7.24.94.21.95.56.09,1.04l-.03,29.26-23.62.05-.12-29.29c-.93-.24-.94-.59-.07-1.05-3.14-.14-2.82-6.04.17-6.53-.88-2.99,11.68-3.01,12.84-2.61l1.52,2.03Z"/>
  <path class="st27" d="M37.8,79.9l-.09-41.88c2.98.36,5.28.07,8.55-.47l-.29,42.25-8.17.1Z"/>
  <path class="st8" d="M141.18,38.12l-.02,41.81c-2.87.85-8.21,1.08-10.15-.49l.09-40.69c2.23-2.12,7-1.24,10.08-.63Z"/>
  <path class="st28" d="M60.85,114.44c.43.02.78.35.77.78,2.16.82,2.8,3.44,1.91,7.87,2.86.62,4.07-.41,3.63-3.08,2.28-1.29,4.29-2.84,6.01-4.63l4.92-.05c.81.23,2.02.58,2.07,1.2.17,1.91.29,16.99-.37,17.56-2.86.7-5.83.96-8.89.77-1.07,1.69-3.25,2.26-6.56,1.69-.39,1.98-1.29,3.32-2.7,4-.31.69-.66.68-1.05,0l-.15-5.31c-2.5.29-4.81.39-6.57-1.06-.1-1.71,1.55-2.56,4.95-2.57l-.26-13.88c-2.6.29-4.14-.48-4.62-2.31,1.99-1.55,4.7-1.09,6.93-.98Z"/>
  <path class="st13" d="M141.18,38.12h-7.99s-.09,42.03-.09,42.03l8.06-.22c-1.81,1.63-4.46,1.2-8.05.59.86,4.68,1.34,8.6-.45,11.81l-2.1-.88c.82-7.65-.34-10.44-3.49-8.38.98,4.1.42,6.85-1.69,8.26-1.69-.14-5.2-1.01-6.92.57-.26,1.01-.11,3.86-2.5,3.47-1.33-.22-3.71-.47-4.18.33l-1.53,2.61c-2.38,1.14-5.25,2.21-7.92,2.21l-24.07.06-.07-.81,1.24-2.06,20.72.23s.81-.7,2.43-2.09c1.39-1.68,2.73-3.64,4.02-5.88,2.78-1.28,5.76-1.87,8.92-1.79.34-4.4,2.55-8.68,7.04-10.11.35-3.72,1.03-5.68,4.6-7.26l-.04-24.57c-4.4-1.32-6.15-7.47-1.84-9.11.37-1.78,2.14-2.63,5.32-2.53-.76-4.51-.01-7.54,2.22-9.07,2.16,2.81.68,7.57.72,11.51,3.11,0,5.86-.52,7.65,1.08Z"/>
  <path class="st7" d="M67.66,16.15c3.18-.45,3.11,7.28.07,7.85.69,3.08-5.35,3.51-6.17.59-.41,2.13-1.12,2.59-3.15,2.72.46,2.19-.5,4.06-2.88,5.63.14,2.26-.58,3.66-2.19,4.2l-6.79.37c.39-2.32.26-3.76-.48-4.73.49-1.51,2.94-1.69,5.08-1.75-.96-3.49-.93-5.5.88-7.31,3.5-3.5,7.06-1.48,7.19-7.56l7.06-.39c.6-1.46,1.06-1.28,1.39.37Z"/>
  <path class="st19" d="M120.29,115.28c1.54-.14,3.06-.43,5.24.24l.22,18.8-7.85.74c-.93.04-.9-.21-.02-.71-2.75-.34-2.5-.95-.03-2.03-.7-5.2-.71-10.69.18-15.87-.93-.17-.92-.5-.05-.98-.7-1.55.07-1.62,2.3-.2Z"/>
  <polygon class="st30" points="53.86 134.17 53.93 115.42 60.6 115.56 60.95 134.07 53.86 134.17"/>
  <path class="st24" d="M117.89,134.35l.02.71-.41,6.9c-5.33.38-11.22.72-16.26-.37.19-2.45.18-5.01-.91-7.24l1.16-2.09c1.69-.25,14.31-.36,14.96.01.78.45,1.19,1.26,1.45,2.09Z"/>
  <path class="st14" d="M125.47,24.62c-.44,3.11-6.61,2.91-7.41.35-1.87.38-3.61.22-5.21-.46-.23-3.05-.7-6.35-1.39-9.9,0,0,3.99.21,11.98.63.71-.38,2.02.67,2.01,1.96l.03,7.42Z"/>
  <path class="st6" d="M132.66,92.33l-7.15-.14c-.12-.23-.11-.61-.12-.87l-.53-10.84,7.68-.26.13,12.11Z"/>
  <path class="st4" d="M132.81,25.53l-.17,11.47-7.37.13c-2.73.38-2.36-10.25-1.92-11.13.38-.75,1.3-1.09,2.11-1.38,1.88.02,5.86-.82,7.35.91Z"/>
  <path class="st5" d="M117.01,106.97c2.4-.08-.86,6.57,3.29,8.31l-2.3.2-1.19,2.09-13.95-.05-1.47-2.1c-.52,3.15-6.89,2.75-7.42-.3-3.21.39-3.01-8.12.08-8.65,2.16.25,5.52-.18,7.67,1.47,1.33,1.02-.21,4.67-.78,6.26l16.05.21.03-7.45Z"/>
  <path class="st17" d="M123.43,15.24c-3.14,1.66-6.49,1.04-10.9.55l.31,8.72c-.2.95-.58.98-1.11.14-1.68-.89-2.51-3-2.47-6.33h-12.75s-1.46-2.09-1.46-2.09l-2.11,2.09h-13.48s-1.46-2.09-1.46-2.09c-.58,3.26-9.51,3.05-10.32-.08l-8.45.02c1.67-1.39,4.09-1.39,7.21-.74l.93-8.55h44.29c1.63,1.31,1.61,5.08.89,7.73l10.89.63Z"/>
  <path class="st25" d="M53.31,84.06c3.17.4,3.03,6.79,0,7.45h-6.32s-.17-11.08-.17-11.08c2.28-.32,3.83-.43,5.46.03,1.07.3,1.04,2.41,1.03,3.59Z"/>
  <path class="st22" d="M77.65,135.06l-.17,6.53c-4.93.94-11.6.87-16.91,0v-1.05s1.06,0,1.06,0c.51-2.02,2.4-2.7,5.68-2.02.55-1.91,1.37-3.13,2.47-3.65,2.71-.23,5.33-.17,7.87.2Z"/>
  <path class="st28" d="M77.48,141.59l.07,1.05h-15.96c-.74,0-1.02-.6-1.02-1.04h16.91Z"/>
  <path class="st5" d="M117.5,141.96c-5.19,1.52-10.83.35-16.17.66l-.09-1.04,16.26.37Z"/>
  <path class="st9" d="M95.04,16.23c.89.99,1.08,2.16.56,3.5,3.75-.96,6.62-.06,8.6,2.69,3.92-.66,6.43.08,7.53,2.23l1.11-.14,1.89.56c4.4-.65,5.94.62,4.59,3.8l3.19,2.01c.4,2.43,1.33,4.51,2.76,6.25l-.26,4.72c-.07,1.35,1.99,2.29,4.18,2.18l.05,28.98c-1.83.17-3.4.61-3.82,1.42-.62,1.2-.68,2.85.05,5.19-5.61.4-8.06,4.74-7.85,10.48-3.26.38-7.8.07-10.25,1.77-.44.85-.5,3.16-1.46,3.66-1.06.55-2.31.33-3.33.31.5,3.06-12.32,2.27-13.31,1.79-1.85-.12-2.04-2.04-.57-5.78,3.05.7,5.93-1.08,7.44-3.09.99-.34,3.64-.07,4.12-1.11.29-.63.14-2.56.62-3.11,4.1-4.73,9.5-3.17,8.07-10.79,2.62-.09,8.13-1.32,8.13-4.19l-.07-20.71c-1.25-.35-3.79-.41-3.89-1.2l-.42-3.19c-.22-1.66-3.67-.97-4.47-1.28-.17-1.91.19-4.34-1.12-5.22-.8-.54-3.22.09-4.49-.42-1.41-.56-1.23-3.78-1.08-5.71l-23.13-.23-.39,5.23c-3.01.32-6.83.33-9.11,2.04.12,1.36.2,3.76-.59,4.3-.73.49-3,.2-4.07.8-1.26,6.23-.9,14.28-.23,20.63,2.3-.5,4.27-.39,4.85.33.45.55.5,2.28.2,3.77,6.97,1.28,14.02,1.51,21.07.44-.49-2.18-.48-4.17-.11-5.12.33-.84,2.85-.79,3.95-1.03.82-2.74.49-6.17.24-9.23l-9.2-.05c.11,3.56.42,6.25-.33,9.16-1.66.42-4.89.72-5.79-.33-1.16-1.77-1.56-3.62-4.4-4.01l.31-10.51c1.7-.53,3.82-1.95,4.74-3.92l21.59.04c-.03,1.8-.13,3.86.39,4.66s2.67.87,4.71.45l.4,14.78-4.98.41-.08,8.39-7.16.31c-.36,2.51.17,4.76-1.02,7-2.06-.46-4.4-.54-5.78-.05-.84.3-1.33,2.07-2.02,3.29l-15.45.1c-.48-1.3-1.12-3.17-2.06-3.75l-9.72-.05-.32-8.28c-2.12.64-4.23.38-4.72-.44.35.59-3.11-16.48-1.31-23.81.88-3.58,1.89-6.57,1.33-10.01,1.48-1.41,2.24-3.15,2.28-5.21l3.12-2.21c-.04-2.9.9-4.61,2.82-5.14l6.17-.59c.44-1.86,1.74-2.28,3.91-1.25,0,0,1.52-1.09,4.57-3.28-.38-1.72-.06-2.57,1.77-3.24h17.05Z"/>
  <path class="st29" d="M102.58,95.84l-.25,4.21-24.13-.29c-.07-.99-.21-2.67.32-3.52,1.23-1.96,6.99.65,8.94-1.22.64-.62.89-1.77,1.24-3.16-.03,1.28-.15,2.22.26,3.76l13.61.22Z"/>
  <path class="st15" d="M60.6,94.61l-.29-3.23-7,.14v-7.45c2.59.29,5.05.28,7.88,1.84-.95,1.84-1.76,2.62-1.49,4.64,3.41-4.52,12.43.73,12.28.33.45,1.24-5.99,4.54-11.38,3.74Z"/>
  <path class="st26" d="M101.38,115.43c3.15-.31,2.83,4.63-.1,5.11l.77,3.05c3.74,1.76-.16,8.85-2.95,10.79l-4.94.3c-.58,2.74-1.56,2.53-2.16-.18l-14.35.58-7.37.26-.43,5.32-8.21-.1-.16-6.07,16.35-.15.27-19.01,6.89-.15c-.37-3.22,8.32-3.12,8.97-.04l7.42.3Z"/>
  <path class="st0" d="M94.04,106.48l-.08,8.65-8.97.04.18-8.65c3.18-.42,6.01-.37,8.87-.04Z"/>
  <path class="st16" d="M73.18,115.37c.29.99.61,2.67-.09,3.65-.55.77-2.45,1.06-3.89.83l-.35,5.13-7.47.27.26-10.04,11.55.16Z"/>
  <path class="st11" d="M94.17,134.67l-.15,28.7c-3.19.32-5.91.35-8.95-.38l-.02-27.76c3.19.37,5.22.26,6.96-.75l2.16.18Z"/>
  <path class="st20" d="M116.96,125.16c.46,2.21.75,4.6.89,7.16.24.49.02,1.49.03,2.03h-17.56s-1.22.01-1.22.01c-.88-2.46,1.09-4.28,2.02-6.48,1.03-2.45.12-5.34.16-7.35,2.92-1.54,6.5-1.3,8.17,1.97,3.91-.2,6.42.69,7.51,2.66Z"/>
  <path class="st12" d="M77.99,16.23l.41,3.55c.21,1.77-2.55,1.65-3.43,2.39-1.15.96-1.76,2.63-3.4,2.63-1.15,0-2.85-.89-3.84-.8l-.07-7.85,10.32.08Z"/>
  <path class="st17" d="M61.56,24.59l-.67,6.38c-.09.88-3.39.75-3.42,1.61l-.13,3.31c-.11,2.71-2.85,1.37-4,1.26-.28-1.74-.17-3.69.28-5.95,2-.01,3.32-1.43,2.9-2.97-.23-.83-1.37-1.64-2.38-2.23l7.42-1.4Z"/>
  <path class="st2" d="M117.99,115.48l.05.98c-.34,2.98-.7,5.88-1.08,8.71-2.64-.55-5.8.52-8.67-.98-.7-.76-2.02-2.95-3.24-2.53-1.06.37-1.68,1.47-2.42,2.56-.18-2.17-.36-2.96-1.35-3.68l.1-5.11,16.61.06Z"/>
  <path class="st5" d="M117.86,132.33c-1.1-2.2-1.02-4.7-.89-7.16.15-2.9-.55-6,1.08-8.71l-.18,15.87Z"/>
  <path class="st10" d="M125.47,24.62l-.19,12.51c-.84-.06-2.43.19-3.23-.5s-.39-3.24-1.16-4.55c-.59-1.02-3.35-1.04-3.58-1.98-.33-1.33.3-2.95.75-4.72-1.77.51-4.87.53-5.21-.87l12.63.11Z"/>
  <polygon class="st18" points="111.92 15.03 68.08 15.14 68.08 7.79 111.71 7.79 111.92 15.03"/>
  <path class="st3" d="M111.73,24.65l-9.23-.17c-.65-1.35-1.22-2.58-2.05-2.86-1.41-.48-3.93.6-5.46.22-2.27-.57-1.52-4.54.05-5.61h17.08s-.39,8.42-.39,8.42Z"/>
  <path class="st21" d="M94.02,127.87l-8.23-.2c-.62-2.33-.6-4.15-.61-7.08l8.68-.02.16,7.29Z"/>
</svg>