<?xml version="1.0" encoding="UTF-8"?>
<svg id="_레이어_1" data-name="레이어_1" xmlns="http://www.w3.org/2000/svg" version="1.1" viewBox="0 0 177.48 177.48">
  <!-- Generator: Adobe Illustrator 30.3.0, SVG Export Plug-In . SVG Version: 2.1.3 Build 182)  -->
  <defs>
    <style>
      .st0 {
        fill: #2c6ec5;
      }

      .st1 {
        fill: #265dac;
      }

      .st2 {
        fill: #6090cf;
      }

      .st3 {
        fill: #cbe9fc;
      }

      .st4 {
        fill: #f8f4ea;
      }

      .st5 {
        fill: #2869bb;
      }

      .st6 {
        fill: #3674c3;
      }

      .st7 {
        fill: #c7f1f7;
      }

      .st8 {
        fill: #6a9cd8;
      }

      .st9 {
        fill: #f6ebde;
      }

      .st10 {
        fill: #c1e1fb;
      }

      .st11 {
        fill: #d9d1f9;
      }

      .st12 {
        fill: #2d6cbf;
      }

      .st13 {
        fill: #316fbd;
      }

      .st14 {
        fill: #326ebc;
      }

      .st15 {
        fill: #2e71c5;
      }

      .st16 {
        fill: #b8d9f9;
      }

      .st17 {
        fill: #3979c9;
      }

      .st18 {
        fill: #3572c2;
      }

      .st19 {
        fill: #2769c3;
      }

      .st20 {
        fill: #bad5f7;
      }

      .st21 {
        fill: #3877c5;
      }

      .st22 {
        fill: #fcfcfc;
      }

      .st23 {
        fill: #bfe0fa;
      }

      .st24 {
        fill: #2d6bc1;
      }

      .st25 {
        fill: #e8ebf3;
      }

      .st26 {
        fill: #2a6bbe;
      }
    </style>
  </defs>
  <path class="st2" d="M128.72,119.04c5.1.42,2.87,12.49-2.64,12.33-1.05,4.69-.98,9.62.22,14.77,6.56-.67,8.03,2.09,8.03,8.2,0,0,6.7-.06,20.09-.19,3.58-8.16,7.05-10.06,10.43-5.71,1.02-.27,1.38.09,1.08,1.1l-1.2,8.36c-2.97-.75-5.86.62-5.82,2.41l.17,6.49-28.52.16-.22-8.9c-3.24-.29-5.68.18-8.51-1.23.89-2.66.71-6.02-.95-7.12-1.11-.74-3.51-.76-5.71-.8l.03-19.9c2.98.06,5.16-1.62,5.15-3.27-.01-1.24-1.06-5.66.46-5.99l7.96-1.79c1.27.2,1.21.57-.05,1.09Z"/>
  <path class="st6" d="M13.27,52.87c1.13.3,2.8.79,2.89,1.67.34,3.64.64,32.31-.03,33.86-.47,1.1-1.74,1.65-2.89,2.08,4.34.05,4.1,8.08-.02,8.81-3.02.3-6.22.71-9.5-.25l-.03-46.03,9.57-.14Z"/>
  <path class="st8" d="M113.25,29.83c-2.61,2.04-3.92,3.07-3.92,3.07,4.32,17.78,6.05,20.2,5.18,7.27l2.93-1.8c.87.29,1.4,1.33,1.39,2.81l-.06,11.52,2.9,1.27.89,42.29c.63-13.44.81-27.3.55-41.56l2.89-2.12c.75.53,1.51,1.55,1.51,3.08l-.06,44.71c-3.21.31-5.59-.2-8.77-.99-.89,4.41-.52,6.39-.32,9.62l-3.9,3.15c-.93,2.1-2.08,2.71-3.89,1.6-.03,3.27-1.19,5.16-3.48,5.65-.11,3.33.93,7.18-1.19,9.99l-1.92-.15c-.37-4.04-2.05-7.33-5.03-9.86-1.17.1-2.79-.17-2.86-1-.63-8.41.43-12.34,9.79-12.18-.79-3.91.17-6.29,2.88-7.14,1.01-1.72,3.06-2.71,6.15-2.97l-.46-39.9c-7.3.21-10.22-4.27-8.77-13.47-7.5-.53-10.53-3.84-9.11-9.94-6.52.85-9.25-.52-8.19-4.09,1.88-3,5.98-3.77,12.31-2.33.54-3.45,1.91-5.62,4.1-6.52,2.02,0-.26,6.71,1.34,8.03,1.4,1.16,7.09-1.2,7.13,1.96Z"/>
  <path class="st26" d="M88.64,19.72c-.13,1.13-.48,2.8-1.29,2.89-8.75.98-34.57,1.27-43,.09l-2.11-2.88.32-8.9,45.82.07c1.16,3.35.26,6.12.26,8.74Z"/>
  <path class="st12" d="M88.62,129.36c.01,2.61.97,5.32-.23,9.24l-45.91-.12c-.92-3.84-.26-6.55-.28-9.2.14-1.13.48-2.79,1.3-2.89,8.79-1.03,34.34-1.07,43.02.07l2.1,2.89Z"/>
  <path class="st18" d="M42.24,19.81c4.36-.56,4.14,8.92-.03,9.63l-1.54,2.9-12.45.17c-.24,3.74-1.52,7.2-3.86,10.4.79,3.78,0,6.12-2.35,7.01,4.02-.37,3.9,1.78.17,3.01-.08,4.34-8.17,4.07-8.91-.05-.07-3.76-2.19-9.97-.12-13.69,2.02-2.84,3.89-6.22,5.26-9.87,1.85-.18,6.26.03,6.49-1.69.31-2.33.25-4.04-.31-7.41l17.64-.4Z"/>
  <path class="st16" d="M21.89,91.09c2.26,3.94,4.96,5.92,8.09,5.96,3.34,1.99,5.46,5.37,5.06,9.29,4.68-.95,13.84,5.84,7.4,8.43,2.79,3.29,2.68,4.84-.34,4.64.22,4.15-13.3,3.51-16.46,2.82l-1.99-2.9-2.92-1.45-2.13-15.62c-2.22.69-3.9.38-5.34-1.75l-.03-1.24.02-8.81c.32-4.32,8.23-3.55,8.64.6Z"/>
  <path class="st17" d="M164.98,119.19c.07,4.31-7.54,4.18-8.45.04-.31,1.12-.79,2.78-1.67,2.88-5.18.54-18.94.44-24.11-.17l-2.04-2.9.05-1.09c.13-2.7.12-5.51,2.13-8.58l33.85.03.23,9.78Z"/>
  <polygon class="st19" points="126 52.58 125.99 99.29 119.27 99.01 118.77 52.7 126 52.58"/>
  <path class="st0" d="M165.93,149.54c-.47.02-1.08-.61-1.08-1.1-1.11-.13-2.7-.37-2.9-1.19-.87-3.51-1.37-17.5,2.63-18.54-4.38.4-3.78-9,.41-9.52,2.63-.01,5.25-.74,8.79.19v29.8s-7.85.36-7.85.36Z"/>
  <path class="st13" d="M42.09,119.4c4.33-.08,4.31,9.07.11,9.88l-18.49.02-.07-9.96,18.45.07Z"/>
  <path class="st15" d="M23.64,119.33l-10.49.17.11-18.98c1.95-.74,4.34-1.32,6.64-.66,1.94.56,3.69,11.16,3.75,19.47Z"/>
  <path class="st21" d="M98.94,119.38l7.16.24-.2,9.77-17.27-.03c-4.37-.52-4.19-9.29,0-10.18.64-4.37,9.48-4,10.32.2Z"/>
  <path class="st24" d="M113.25,29.83l.09,7.04c.02,1.79,3.06,1.98,4.1,1.5l-.28,11.96c-.36,1.81-6.63,1.8-7.09-.07,1.53-13.66-11.28-21.65,3.18-20.42Z"/>
  <path class="st14" d="M104.79,19.84l-.43,9.58-15.98-.73c-3.82-1.57-3.43-7.33.26-8.97l16.15.12Z"/>
  <path class="st1" d="M114.46,112.15c.3,1.38,1.07,5.3-.37,6.49-1.9,1.57-5.34.77-7,.76l.29-8.99c3.05-.25,4.97,1.08,7.09,1.74Z"/>
  <path class="st25" d="M156.54,119.23c2.32,1.27,3.42,3.64,3.31,7.12,2.41-.62,3.74-.25,4.72,2.36l.27,19.73c-1.77.4-3.92.49-4.93,1.52-1.35,1.36-1.52,4.45-1.09,7.26-9.13-.28-17.74-1.28-27.26.48l-.54-8.89c-2.11.45-6.26.57-7.5-.79-1.37-12.55-2.88-20.32,4.51-19.64l.7-9.35,27.82.19Z"/>
  <path class="st5" d="M158.05,165.09l-27.16.26c1.62-2.29,1.99-4.17,1.17-6.81h24.16c.92-.01,2.17,2.66,1.83,6.55Z"/>
  <path class="st3" d="M22.18,52.93l2.88,1.65c-.05,7-.1,14-.15,21.01l-2.9,2.01c4.42.2,4.25,12.37-.12,13.49l-8.64-.6.03-37.61,8.91.05Z"/>
  <path class="st7" d="M88.64,19.72c0,2.86.55,5.91-.26,8.97,1.88,2.2,5.56.72,9.13.94,2.48.15,2.47,6.17,1.02,8.6l10,1.74.2,12.77,8.57.35.53,45.07c-1.57,2.33-6.11,1.72-9.07.91l-2.91-1.58-.24-18.34c-2.14,1.47-4.35,2.07-6.63,1.81-1.18.33-2.17.13-2.93-.75-.72-20.95-2.41-14.19-4.97.8-5.97.45-9.35,3.98-10.15,10.59l-6.91,2.34c-1.14,12.36-25.62,13.53-24.98-.07-5.01-.3-8.14-2.1-9.39-5.4-1.5-5.35-.63-8.62,2.6-9.81.66-2.42,2.8-3.4,6.44-2.95.03-7.18,3.32-10.44,9.86-9.76,2.68-3.71,5.57-4.86,8.66-3.45-.36-9.22,2.73-10.13,10.04-11.81,1.81-6.29-.6-9.77-7.25-10.44-1.47-2.11-2.22-4.64-2.25-7.58-3.48.15-5.66-.86-6.55-3.02-.74,2.82-3.39,3.75-7.95,2.81-5.65,1.02-9.34.02-11.04-3l.03-9.63,46.4-.09Z"/>
  <path class="st4" d="M108.75,99.06v10.2s-9.49.33-9.49.33l-.32,9.79-10.32-.2c-.14,1.11-.41,2.74-1.24,2.9-2.11.41-19.9.61-21.29.18l-2.05-2.87c-4.61-.94-5.77-9.25-.42-9.65l1.52-2.93,11.6-.3c-.37-7.4,2.46-9.78,9.71-9.56.09-6.68,1.4-10.26,8.88-9.42.08-3.68,1.3-5.87,3.65-6.57.49-3.32,5.21-3.15,9.43-8.24l.35,26.35Z"/>
  <path class="st10" d="M56.77,119.13c.26-4.31,6.61-3.76,7.27.25l24.58-.2v10.18s-46.41-.08-46.41-.08l-.11-9.88c.09-.74.31-1.66.86-1.82.76-.23,12.86-.49,13.82,1.55Z"/>
  <path class="st22" d="M61.2,29.63c1.11.16,2.76.48,2.88,1.29,1.05,7.16,1.6,22.67-8.35,20.47-1.34,7.73-2.06,9.63-10.66,10.25.66,9.05-2.96,10.62-11.32,10.1.78,6.82-7.58,13.1-11.74,5.85l.17-24.67-.17-3.01c-.31-2.48,1.67-3.89,5.93-4.22-.39-8.04,2.18-11.14,10.76-9.47.03-3.68,1.2-5.94,3.5-6.78l18.99.19Z"/>
  <path class="st23" d="M42.21,29.44v10.08c-4.2-.37-6.96-1.1-10.98-.5l-.54,9.4-8.67,1.49c-.14-2.46-1.5-6.84.31-9.44,2.33-3.33,3.7-6.13,2.67-10.89l17.22-.15Z"/>
  <path class="st9" d="M42.25,78.66l-1.74,2.76c-8.23-1.98-9.51,3.06-3.85,15.12,4.56.55,7.34,3.72,8.36,9.51l16.69.71,1.91,2.97c-1.51,3.23.54,6.51.42,9.65l-7.27-.25-4.82-1.89c-6.13,2.32-9.3,1.5-9.52-2.48-.19-1.3.16-3.23-.81-4.21-2.08-2.12-5.72-.85-8.56-1.58-2.21-.56.91-7.89-3.85-9.16-1.32-.35-3.32-.45-5.83.24-1.54-2.91-1.53-6.08-1.51-8.97l.12-13.49c2.65.2,5.28.55,8.47-.17l.49-8.47,10.84-.39.53-10.12,9.42-.53.5-9.26,8.78-.41.17-18.62c2.48.03,7.64-1.36,9.22,1.98.86,1.83.25,6.48,1.56,6.73l6.66,1.25c2.45,3.31,1.82,10.3,1.01,14.46-2.99.83-5.22.49-8.26.55-1.43,3.88-1.32,6.91-1.27,11.96-2.3,0-3.96-1-6.56-2.59-1.85,5.05-5.85,6.09-10.92,4.7l-.97,9.35c-3.52.99-6.49.85-9.41.64Z"/>
  <path class="st4" d="M56.77,119.13l-14.68.27.34-4.64c.17,1.18,1.6,2.27,2.57,2.52,1.4.36,3.84-.56,5.4-1.52,2.8-1.72,5.51,1.23,6.37,3.37Z"/>
  <path class="st20" d="M164.98,119.19l-.41,9.52-6.89.8.04,9.56-6.47,1.27c-.58,3.73-2.45,7.29-5.19,8.33-3.39,1.28-7.82,1.2-9.61-.94,1.45-6.2,6.62-8.74,10.8-11.13.23-2.07-.15-6.58,1.35-7.2,1.55-.64,4.14-.78,6.96-.05,1.44-3.31.68-6.89.98-10.12l8.45-.04Z"/>
  <path class="st11" d="M98.97,80.95l-.32,9.41-8.67.11-.86,9.29c-3.27.1-5.95.05-9.2.99l-.25,8.57-16.04.42-21.19-.9-2.13-7.88c-.41-1.52-4.07-1.08-5.13-1.47-.89-.32-6.52-12.53-4.13-20.39,4.05-1.17,7.67-.68,11.21-.43-.11,3.52-.47,7.07.66,11.11l8.81,1.29c.33,3.15.13,5.59,1.48,8.73,5.06.8,12.54,1.44,16.75-1.79l1.72-6.48,7.37-1.73,1.99-7.42c.58-2.18,4.75-2.69,8.2-2.91l1.15-13.45c.21-2.41,7.65-2.17,7.77-.03l.84,14.97Z"/>
</svg>