<?xml version="1.0" encoding="UTF-8"?>
<svg id="_레이어_1" data-name="레이어_1" xmlns="http://www.w3.org/2000/svg" version="1.1" viewBox="0 0 177.48 177.48">
  <!-- Generator: Adobe Illustrator 30.3.0, SVG Export Plug-In . SVG Version: 2.1.3 Build 182)  -->
  <defs>
    <style>
      .st0 {
        fill: #fbd436;
      }

      .st1 {
        fill: #f3b60e;
      }

      .st2 {
        fill: #8a4207;
      }

      .st3 {
        fill: #fcd436;
      }

      .st4 {
        fill: #ac6305;
      }

      .st5 {
        fill: #883e0b;
      }

      .st6 {
        fill: #803c03;
      }

      .st7 {
        fill: #e19d13;
      }

      .st8 {
        fill: #82370b;
      }

      .st9 {
        fill: #fcf5c3;
      }

      .st10 {
        fill: #8b450b;
      }

      .st11 {
        fill: #8c3d0c;
      }

      .st12 {
        fill: #954a09;
      }

      .st13 {
        fill: #f2b209;
      }

      .st14 {
        fill: #f5b60e;
      }

      .st15 {
        fill: #fdf4aa;
      }

      .st16 {
        fill: #fcd535;
      }

      .st17 {
        fill: #8b4510;
      }

      .st18 {
        fill: #88400d;
      }

      .st19 {
        fill: #edac09;
      }

      .st20 {
        fill: #8d4c20;
      }

      .st21 {
        fill: #fdfceb;
      }

      .st22 {
        fill: #813a04;
      }

      .st23 {
        fill: #fbf9e6;
      }

      .st24 {
        fill: #e9ae0f;
      }

      .st25 {
        fill: #964d0b;
      }

      .st26 {
        fill: #fdea87;
      }

      .st27 {
        fill: #843e0d;
      }

      .st28 {
        fill: #6f2d07;
      }

      .st29 {
        fill: #883d08;
      }

      .st30 {
        fill: #863e03;
      }

      .st31 {
        fill: #fdd839;
      }

      .st32 {
        fill: #fbfaf1;
      }

      .st33 {
        fill: #944c1d;
      }

      .st34 {
        fill: #884106;
      }

      .st35 {
        fill: #7f3c10;
      }

      .st36 {
        fill: #8f4911;
      }

      .st37 {
        fill: #944e10;
      }

      .st38 {
        fill: #7b3506;
      }

      .st39 {
        fill: #813a07;
      }

      .st40 {
        fill: #fdd93d;
      }

      .st41 {
        fill: #853a03;
      }

      .st42 {
        fill: #d17b01;
      }

      .st43 {
        fill: #f6bb0e;
      }

      .st44 {
        fill: #934a0d;
      }

      .st45 {
        fill: #893e04;
      }

      .st46 {
        fill: #fce97d;
      }

      .st47 {
        fill: #7e3706;
      }
    </style>
  </defs>
  <path class="st3" d="M139.53,106.28c.3-3.48,8.92-3.81,9.89-.55,2.41-.13,5.31-.58,7.23.99-.02,3.35-5.38,3.21-6,.09-2.24,4.96.33,7.16,7.72,6.59l.55,3.8c7.04-.36,6.56,4.23,5.35,9.63-.12.86-.35,2.1-1.01,2.23-1.34.26-16.34.22-17.52-.09l-1.59-2.24c-.02,1.82-1.15,2.48-3.4,1.99.25,2.69-.53,4.26-2.33,4.7.39,6.07-.91,9.1-3.89,9.1-1.01,2.48-2.65,4.71-4.92,6.71.37,3.09-.74,3.59-3.66,4.31-.08-4.47-.4-8.91-.96-13.33.28,1.59-.8,2.47-3.27,2.66l-.02,9.34-2.24,1.51c-.67-.26-1.19-1.02-1.18-2.21l.06-11.37c-1.44-.79-1.93-2.29-1.47-4.5-2.3.39-3.66-.36-4.06-2.23-.07-4.79-1.37-7.15-3.9-7.09-5.38,2.97-6.52-10.76-2.74-12.92-.99-.29-.99-.68-.05-1.17-1.89,0-2.56-1.26-2-3.79-3.92,1.03-3.89-8.55-2.7-10.18,1.84-2.5,15.23-1.7,13.72,5.41,1.53.17,2.5-1.51,2.93-5.04l6.31-1.34c1.57,2.18,4.45,3.01,8.63,2.48,1.37.1,1.8,1.36,1.3,3.78,2.75-.34,4.48.56,5.21,2.71Z"/>
  <path class="st16" d="M63.8,126.02c6.39,2.68-.99,13.78-5.91,7.46l-.58,1.8c.77,4.81-.58,7.45-4.06,7.9.04,6.7-1.15,16.17-9.58,11.46l-.18-1.18-2.27-.93c.83-2.42.02-4.24-2.43-5.46l-2.36-1-1.79-16.7-21.22-.65c-6.27-6.32-1.5-11.63,6.39-11.26-.43-2.55.36-4.03,2.39-4.43l.9-.72c.97-.23.99.04.17.76l2.25.64c-.51,1.76.34,5.8,2.29,3.92,1.04-1,4.21-5.16,1.99-5.14-.87-.1-1.98-.32-2.23-1.06-1.88-5.61,3.01-5.55,6.8-5.25.79.06,1.6-.1,2.32-.42-3.01-1.13-2.51-4.42.12-5.77,1.66-.84,4.85-.86,6.43.07,3.35,0,3.23,4.94.16,5.64.58,1.59-1.5,3.05-2.09,2.29s1.01-2,2.09-2.29c-.25-1.98,1.06-2.83,3.93-2.56-.38-2.23.51-2.87,2.79-3.08-.33-1.07.24-1.46,1.25-1.1l1.46-1.79c2.14.56,2.99-.73,2.55-3.87,6.89-2.1,9.98-.87,9.26,3.67,4.64-.27,6.5-.09,7.77,4.78,1,3.85-1.36,14.89-6.53,13.78l.13,8.96-2.22,1.52Z"/>
  <path class="st43" d="M164.5,25.17h.7c3.23.77,2.75,4.78.22,6.51l1.22,1.02c.26,20.04.52,40.06.76,60.07-14.09-.29-28.09-.1-42,.57-1.54-1.17-2.2-2.91-1.97-5.22l-10.2-.33c-1.16-1.6-1.54-2.62-1.15-3.06l-.05-5.14c-4.09.41-6.07-.98-5.93-4.18-3.72-1.42-1.84-9.76.92-11.64,5.25.65,5.15-3.05.24-2.53-3.47-2.34-4.9-11.59-1.18-13.85l.07-1.97c1.45-2.62,5.53-2.23,6.39.67,1.75.11,2.71,1.58,2.87,4.41,13.6-5.04,22.32,2.44,17.61,16.1-5.44,1.54-11.27,2.17-17.48,1.9-1.93,3.31.28,5.93,6.62,7.88,8.86,1.51,17.23,3.95,25.11,7.31-.68-5,1.17-5.88,5.27-7.33-.4-3.97,1.96-5.42,5.33-6.56.86-13.61.49-27.19-1.11-40.75-4.33-.14-6.35-1.42-6.08-3.85.11-.85.29-2.06.93-2.24,2.26-.61,12.51-.84,12.88,2.2Z"/>
  <path class="st12" d="M50.31,31.96c.93,3.12-10.07,2.77-11.33,2.31-3.84-1.42-4.35-2.08-4.24-6.45l-15.93-.09c-.66,4.42-2.91,6.64-6.75,6.66l.13,10.55c-1.64,1-2.35,2.98-2.15,5.94,3.41-.41,3.14,7.81-.13,8.32l2.22,1.28c-.06,5.64-.11,11.29-.17,16.94l-2.25,1.55c3.56.83,3.43,12.05.03,13.21-1.08,1.24-4.39.52-6.34.06l-.25-59.76c2-.08,4-.61,3.99-1.52l-.04-3.89c-.02-1.88,2.92-2.7,5.34-1.54l.69-6.8,24.56.07.13,6.42,12.29.03c1.03,2.44.33,4.54.19,6.72Z"/>
  <path class="st30" d="M106.09,47.39l.77,11.52c1.39.36,4.4.06,5.18.97.84.98,1.23,3.79.67,4.86-.63,1.2-3.71,1.39-5.62.8l-.96,9.86.94,3.32c3.64.24,7.1,1.58,5.05,5.92-.98,2.08-10.69,1.48-13.54,1.22-.09,0,.52-.58,1.33-1.32v-32.02c-2.09.22-4.9.18-8.45-.1-.63,2.3-3.17,3-7.62,2.1-1.15-1.82-3.54-2.45-7.15-1.9.16,4.41-.11,8.65-.81,12.7.51,2.07,1.26,19.67.69,20.63-.33.56-11.16-.02-12.88-.4-5.18-3.43-1.76-9.46,4.22-8.93-.09-2.14.61-3.63,2.11-4.47.26-3.15-.46-5.23-2.15-6.24-.56-3.51.15-6.18,2.11-8.01l-.31-5.32c-2.65-1.16-2.16-4.29.69-5.11,2.32.31,4.84.03,7.19-1.73l21.28-.1c2.33,1.92,4.9,2.13,7.27,1.74Z"/>
  <path class="st4" d="M173.24,92.41c-1.62,1.63-4.57.85-6.81.85l-1.3,2.24-36.33.02c-.23,2.24-1.18,3.45-2.85,3.61-3.13.3-3.29-1.29-3.5-3.86-7.86.61-11.82-1.52-11.9-6.4l-7.89-.12-.04,10.84c-2.65,1.09-2.26,5.95.03,7.38v2.83c2-.13,3.16.68,3.48,2.43l.05,1.17c-.13,3.36-5.55,3.07-6.12-.06h-.71c-.99-.21-.97-.57-.02-1.06l-2.23-1.3.11-22.1c-6.01-.18-12.05-.27-18.1-.26l-.49,19.93-2.27,1.54-2.26-1.23-.3-20-7.76-.19c.69,3.59-1.79,6.85-4.5,3.91-2.72-.5-4.44.13-5.16,1.9-2.85-.4-3.82.53-2.93,2.79l-2.06,1.68-1.25,1.1c-.52,3.29-6.02,3.28-6.89,0l-6.43-.07c-1.4-1.5-1.29-2.79.65-3.22,4.06.22,7.5-.08,10.31-.91l-19.74-.53-1.52-2.28c-.58-1.65-.4-2.95,1.33-3.05l20.45.23c-1.88-7.05,8.59-7.49,13.76-6.82l1.64,2.15,12.39-.03-.2-20.21c.31-.98.68-.96,1.11,0,1-.09.96.14,0,.66,3.62.41,3.38,11.87.04,12.94,1.79.06,2.58,1.58,2.37,4.55l17.76-.21-.07-9.54,2.22-1.53-2.24-1.28.02-14.9c-3.23-.39-5.11-1.59-5.63-3.59l9.02-.41-.14,33.52,10.94-.3c.14-2.08.8-3.9-.2-5.64-1.98.68-4.33.46-4.88-.38s-.17-2.87-.08-3.83c.78,2.76,2.91,4.17,6.53,3.26l.24,6.94,12.78.34.27,6.41,40.51-.19.07-54.8c0-2.41-.53-4-1.1-5.68,1.06-3.7,2.59-2.06,4.3.78l.07,56.66c1.73.74,2.87,1.84,3.44,3.29Z"/>
  <path class="st6" d="M173.24,92.41l-5.68-.42.02-59.07c0-1.29-1.75-1.56-2.16-1.24-.66-1.96-.25-4.48-.22-6.52,1.65-.03,3.18-.33,5.19.81-1.09,3.06,1.07,5.43,2.73,7.15l.11,59.29Z"/>
  <path class="st29" d="M99.33,112.29c-1.2.71-2.85.84-4.96.39l-.16-18.03c.05-1.16-.56-1.91-1.81-2.26l-10.52.37.34,20-6.54.82c-.25,3.59-5.67,3.44-5.63-.2-.23-2.56,1.87-3.66,6.3-3.29l.5-23.72,22.61.17-.13,25.74Z"/>
  <path class="st2" d="M22.21,113.03l-.22,6.75-8.73.33c-.57,2.37-.56,4.35-.07,6.51l23.47.26,2.17,20.19c-.03,1.05-.37,1.05-1,.12-1.27.02-2.54.01-4.35-.52l-.36-13.02-20.79-.13c.38-2.18.54-4.73-.26-5.99-.67-1.05-3.73-.95-5.49-.6-.9-2.75-.8-4.81-.65-7.05l6.72-.39.37-6.23,9.21-.22Z"/>
  <path class="st22" d="M166.43,93.26c.11,1.66.36,3.36-.14,5.79l-15.76.61c-1.51.39-1.4,4.73-1.11,6.06l-9.89.55c-2.17-.4-3.43-1.94-3.76-4.61-2.14.38-3.28-.26-3.43-1.9l-6.39-.63.46-5.84,40.03-.03Z"/>
  <path class="st45" d="M16.74,93.05c.42-3.43,8.99-3.32,9.77,0l23.62.63-.09,5.13-12.19.12c-.75,0-1.25.44-1.04,1.05.18,1.8.35,3.82-.12,5.77-4.34,1.47-6.57-.54-6.7-6.02l-20.34-.35v-6.1c2.05-.89,4.41-.97,7.09-.24Z"/>
  <path class="st7" d="M61.61,38.61l2.86.76c1.14.86,1.55,2.31,1.23,4.35,2.39-.17,3.9.6,4.52,2.33l.12,1.43-.33,24.68c-2.06.62-3.05-.62-2.95-3.7-3.79-1.9-7.43-2.89-11.92-3.75l-.64-3.51c-8.49,1.68-8.91-11.86-1.88-9.26.67-4.27,8.23-1.58,5.2,2.15,2.15.73,4.43.84,6.86.33,2.81,5.76,4.48.1.09-.68l-1.12-5.31c-5.81.37-8.96-1.81-9.44-6.53-2.81.07-4.36-.67-3.08-3.49-.29-3.48,9.83-3.16,10.49.19Z"/>
  <path class="st25" d="M164.5,25.17l-13.81.04c-.75,3.52-11.18,3.32-12.2-.06-.23-2.13-.43-4.22.02-6.39l25.7-.05.29,6.46Z"/>
  <path class="st17" d="M57.83,140.35l-1.07,13.09c-1.43.29-4.65-.25-5.59.88-.85,1.01-.33,3.93-.58,5.17-1.81,1.38-4.82.99-6.78.63l-.13-5.48c1.7-1.01,3.75-1.06,6.68-1.22.42-4.12-.12-8.87,1.27-12.82,1.06-.13,4.96.39,5.16-1.52.17-1.67-.75-5.01,1.1-5.6,3.36.07,3.13,6.33-.07,6.88Z"/>
  <path class="st39" d="M164.27,126.84c0,2.04.5,4.1-.06,6.53l-20.11.07c-3.36.38-3.13-6.13.06-6.7l20.11.1Z"/>
  <path class="st37" d="M138.49,25.16c.96.39,2.04.87,2.45,1.79,3.42,7.66-8.23,7.69-13.07,7.5.76,5.82-6.32,9.57-8.32,4-3.81-.96-.95-6.24.19-5.06,1.04,1.08-.33,3.41-.61-.63l5.55-1.38c1.46-.97.89-4.33.61-5.97l13.2-.25Z"/>
  <path class="st20" d="M106.18,113.41l.76,12.65,5.72-.33.16,7.69c3.36.08,3.13,6.34-.06,6.9-1.74-1.73-1.08-4.45-1.13-6.7-1.7-1.21-3.18-1.24-4.43-.1-1.74-1.24-1.67-3.93-1.1-6.57-2.29-.77-3.98-.61-6.22-.64l.18-12.96,6.12.06Z"/>
  <path class="st24" d="M138.43,146.92c-1.03,1.91-2.42,2.13-4.36,2.03.51,2.58-.24,4.13-2.26,4.65-.48,3.11-4.48,2.96-6.49.97l-.21-.95c-3.57-.87-3.52-12.16-.12-13.4,2.22,3.47,1,7.7,1.24,12.52,1.81-1.44,1.07-3.59.89-5.52,2.05-.36,3.51-.73,4.07-1.48.68-.91.82-2.87.44-4.69,1.91-.97,3.47-.75,6.55-.91-1.28-2.74-.96-4.93.24-6.72,3.56.92,3.41,12.25,0,13.49Z"/>
  <path class="st8" d="M70.26,125.77c.58-.95,1.02-.88,1.33.18l-1.7,7.26c-.95.62-4.6-.54-5.3,1.05-.65,1.48-.67,3.49-.22,5.77l-6.54.32.07-6.88c1.45-.46,3.41-.31,5.67-.33.57-2.6.28-4.83.24-7.13-.58-3.3,5.77-3.43,6.45-.24Z"/>
  <path class="st34" d="M156.24,112.26c2.41.03,4.76.88,8.1.81l.89,7.07c3.34-.53,3.4,5.95.24,6.65l-1.19.05.04-7.05-7.55.05-.17-6.08-6.01-.48c-1.67-.53-1.68-6.43.07-6.46,2.17.19,2.54,1.13,2.38,3.04,1.81.06,2.74.36,3.2,2.41Z"/>
  <path class="st28" d="M144.1,133.44v13.43c-2.29.42-3.95.22-5.66.05v-13.49c.09-3.35,5.05-3.08,5.66,0Z"/>
  <polygon class="st41" points="125 140.23 125.13 153.62 119.47 153.73 119.5 140.33 125 140.23"/>
  <path class="st47" d="M75.68,113.59c.88,3.84.6,7.58.44,12.6-1.54.37-3.09.09-4.53-.23-.38-.08-.95-.2-1.33-.18-3.55-.73-3.57-11.23-.21-12.39,1.85.52,3.73.44,5.63.2Z"/>
  <path class="st10" d="M36.69,105.75c-.34,1.42-3.86,1.29-5.86.13-1.43,2.59-.92,4.58-1.03,6.6.13,3.85-5.02,4.03-6.53.58l-.17-.76c-.43-1.91-.84-3.72-.38-6.2l8.03-.34c-.61-2.42-.92-4.23-.77-6.03,1.14.11,1.79,3.27.95,5.05,2.11,1.08,3.95.61,5.75.97Z"/>
  <path class="st5" d="M61.61,38.61l-10.49-.19c-3.79.2-3.96-5.11-.8-6.46l6.39.55c3.73.32,5.51,3.08,4.9,6.1Z"/>
  <path class="st44" d="M115.13,38.41c.17-3.2,2.71-2.98,3.38.1.46,2.17-.76,3.31-3.64,3.43.07,2.18-.71,3.56-2.33,4.14-2.18.17-4.35.02-6.39-.67l.11-5.79,8.87-1.21Z"/>
  <path class="st11" d="M138.43,146.92l-.22,6.63-6.4.05.03-6.71c2.54-.53,4.57-.19,6.58.03Z"/>
  <path class="st35" d="M118.35,140.15l-5.59.16.06-6.9,5.95-.11c.51,2.33.6,4.84-.42,6.85Z"/>
  <path class="st18" d="M70.22,46.05c-1.46-.08-4.3.58-5.86-.59-1.67-1.26-1.13-4.83.11-6.09,1.22.32,4.16-.92,5.08.53,1.19,1.88.54,4.56.67,6.15Z"/>
  <path class="st33" d="M131.82,153.6l-.04,6.29c-2.01.49-4.27.71-5.7-.08-1.23-.67-.93-3.84-.75-5.24,1.95-1.24,4.25-.96,6.49-.97Z"/>
  <path class="st27" d="M165.46,126.79l-.24-6.65c1.61-.5,4.87-1.16,5.63.52.62,1.37.74,5.08-.54,5.89-1.12.71-3.6.19-4.85.24Z"/>
  <path class="st38" d="M43.5,153.45l-5.68.06c-.42-2.4-.22-4.35-.01-6.33.29,0,.75-.03,1-.12.96-.32,3.37-.8,4.38.11,1.14,1.96.06,4.6.31,6.27Z"/>
  <path class="st22" d="M156.65,106.72c.4,1.74.12,3.65-.42,5.54l-5.33-.06-.26-5.39,6-.09Z"/>
  <path class="st35" d="M111.63,133.62l-4.43-.1c.07-1.85-.47-4.31.36-6.28.48-1.03,3.9-.44,3.92.59l.14,5.8Z"/>
  <path class="st20" d="M99.33,112.29l.02,1.07-5.61-.1.05-16.72c0-1.78-.4-3.2-1.4-4.15.48-.02,1.67-.43,2.42-.02l.06,19.72c1.89.4,3.19.26,4.46.2Z"/>
  <path class="st36" d="M119.13,32.76l2.14.49c-1.23,1.92-1.94,3.44-1.72,5.2-.17,1-.52.99-1.03.06l-3.38-.1c-.11-1.31-.51-3.81.28-4.97,1.16-1.72,2.89-.48,3.72-.68Z"/>
  <path class="st4" d="M9.75,92.17c1.4-3.66,6.95-3.22,6.99.88l-7.09.24c-1.99.07-4.08.46-6.24-1.05l6.34-.06Z"/>
  <path class="st14" d="M125.95,99.13l12.81.39c-.35,3.1-.23,5.12.77,6.76l-7.44-.66c-.3-2.29,0-3.63.48-5.4-4.01-.1-8.93-1.31-13.03-.25-.4,1.59-.22,4.61-1.21,5.26-1.11.73-3.88.94-4.9.33-1.19-.72-.7-4.22-1.13-5.33-2.86-1.31-8.13-.74-10.69.24l-.18,4.55c-.04,1.03,3.15,1.04,4.08,1.37,1.5,1.28.55,4.44.61,5.86l-5.7-.07-.11-25.79c4.51.23,8.17.69,12.27-.48l.39,6.28,11.85,1.05c.17,1.89-.35,5.16,1.11,5.9Z"/>
  <path class="st42" d="M144.16,126.74l-.06,6.7h-5.67c.43-1.39-.86-4.45.63-6.15,1.19-1.35,3.83-.56,5.1-.55Z"/>
  <path class="st1" d="M76.35,110.1c-.07,3.4-3.31,1.58-6.3,3.29l.21,12.39-6.45.24-.18-12.59,5.62-.36.99-11.91c.16-1.96-2.05-1.8-2.85-1.95-1.41-.27-3.58-.53-3.5,2.09.04,1.47-.03,3.63-1.02,4.2-1.61.93-4.07.72-4.93-.55s-.89-4.3.92-5.07c1.39-.59,2.85-.85,3.26-1.84.47-1.1.69-4.15-.35-4.64-1.2-.55-3.82-.19-4.61.35.73,2.03.24,3.66-.47,4.54-1.21,1.5-3.88,1.46-5.3.65l-.7-6.23,13.32-1.12-.37-5.24,12.37.18.35,23.56Z"/>
  <path class="st46" d="M23.28,113.06c2.08.04,4.58.28,6.53-.58,1.71-.76,4.04-.97,5.49-.38,2.15.87,1.44,3.76,1.08,5.78-.28,1.58-2.34,1.5-3.2.68-.54-.52-.9-1.48-1.08-3.34-2.11.46-1.44,2.95-1.8,3.83-1.76,1.28-4.58.76-6.92.45l-.1-6.45Z"/>
  <path class="st26" d="M43.4,105.69c.05,1.79.57,4.15-.55,6.31-.66,1.27-4.41,1.02-4.96-.27-.4-.93-.87-2.83-.82-4.47,1.06-1.42,4.4-1.36,6.32-1.57Z"/>
  <path class="st26" d="M50.13,100.05c-.84,1.4-.65,3.12-.23,5.16l-6.5.48-.16-5.64h6.89Z"/>
  <path class="st31" d="M150.69,25.21c1.69,1.34,4.17,1.38,7.58.41,2.31,9,2.36,17.84,2.17,27.47l-.36,18.34-4.46,1.75c-1.21.48-.85,3.35-.65,5.5l-5.73,1.06c.37,2.07.54,4.75-.33,5.65s-4.54.76-5.4-.33c-2.35-2.97-6.91-2.04-8.93-3.33-4.43-2.82-7.9-1.7-12.44-2.99-4.5-1.28-9.32-6.71-14.91-3.49-1.81-4.85,5.14-1.88,5.36-3.91l.56-4.96,18.39-.85c.26-3.59,1.09-7.86-.53-10.91-1.73-3.27-7.5-4.27-10.83-3.01-2.37.9-5.7,1.76-7.31.45l-.34-5.97c-.1-1.8-.74-5.22,1.51-6.19,1.61-.69,3.68-.43,4.46-1.39l1.03-.06c1.24-.08,4.09.87,5.12-.07,1.34-1.48.84-4.19.88-6.06l13-.66c.51-2.54.16-4.6-.05-6.51l12.2.06Z"/>
  <path class="st40" d="M50.31,31.96c.03,2,.14,4.5.8,6.46.71,2.09,4.97.69,5.17,1.63l1.09,5.15c.17.79,2.66.61,3.94.68,2.11.12,2.22,1.53,2.32,2.55,1.91,3.79,1.95,6.25.13,7.37-1.58-.89-3.57-1.46-5.96-1.71-.74-2.6-3.75-1.8-5.2-2.15-6.87-1.16-8.99,2.74-6.39,11.72l9.85.03,1.22,1.76c8.69-.52,12.38,5,5.43,10.35-2.77-.65-4.54.83-5.31,4.46-8.33,1.92-16.74,3.4-25.24,4.43-4.66,5.86-17.73,5.35-17.53-3.74-2.55.46-4.19-.21-4.93-1.99l.2-19.77c-.03-1.98,1.31-2.76,4.04-2.31.56-8.77.06-11.04-1.48-6.81l-2.42.8-.28-18.86c2.12.32,4.88.16,5.57-.94.8-1.27.57-3.57.37-5.59l21.34.12c-.06,2.87-.13,4.56.4,6.45l12.86-.08Z"/>
  <path class="st13" d="M52.61,51.94c-2.18.4-2.19,1.89-2.41,2.92-.39,1.81-.42,4.2,2.12,4.13,1.39-.04,3.56-.19,4.11.67.73,1.15,1.04,2.75.65,5.18l12.09,1.65c.3,1.75.25,4.38.84,5.67.73,1.58.3,4.24.07,6.49l-6.02.63c-.75,2.36-.53,4.29-.37,6.28l-13.46.71c.72,2.77.43,5.47-.85,6.36l-20.49-.49c-1.25-.03-1.95.49-2.37.91h-9.77c-2.09-1.32-4.64-.92-6.99-.88l-.03-13.21c1.81-.08,6.42-1.1,6.93,1.09l1.12,4.83c.17.73,11.68,3.36,12.87-2.32l11.19-.91c8.82-4.38,13.41-1.4,14.73-3.52.5-.8.07-3.57.85-4.07,1.31-.83,4.65.2,5.56-.76,1.02-1.08,1.06-3.72.69-6.38-6.28-1.3-12.87-1.32-20.24-.88l-.11-9.7c-.03-3.05.78-5.45,3.11-6.25,2.81-.97,5.06-.44,6.2,1.85Z"/>
  <path class="st23" d="M9.92,59.19l.13-8.32c.03-1.56,1.25-3.01.89-5.53,2.2.28,3.41.22,5.55-.06l-.36,13.81-6.22.1Z"/>
  <path class="st0" d="M91.45,52.44c2.12.04,4.76,1.33,7.88.47l-.02,19.3c-.69,1.51-2.06,2.39-4.1,2.64,1.04,8.14-10.71,7.07-16.65,6.33l-1.53-2.24-.04-12.94c.03-.96.28-2.07,1.11-2.34,1.78-.59,1.08,1.1-1.12,1.68h-1.11s.42-13.17.42-13.17l15.16.28Z"/>
  <path class="st19" d="M99.3,72.2l.16,13.28-22.72.27.29-6.82,15.42.06.77-6.36c2.32-.64,4.15-.49,6.08-.43Z"/>
  <path class="st32" d="M76.99,65.99v-.66s0-12.23,0-12.23l6.66.16-1.22,12.9c-2.34-.35-3.78-.37-5.44-.16Z"/>
  <path class="st13" d="M57.82,54.1l5.57-.12.25-5.54c.24,2.48,2.09,4.2,5.34,3.74l.75,5.71c.16,1.22-3.98,2.12-4.95.69l-2.32-3.44c-1.73.69-4.32.09-4.64-1.05Z"/>
  <path class="st9" d="M132.31,38.85c-.8-2.42-.63-3.85-.27-5.8,3.8-.36,9.31-.46,12.53-1.67l1.36-3.89c.16-.45,5.32.66,5.95,2.68.89,2.85-6.75.23-8.21,6.6l-11.36,2.07Z"/>
  <path class="st15" d="M131.46,44.84c-3.57.26-7.04,1.99-10.9,1.09-1.57-.37-1.95-4.56-1.07-6.11l12.2-1.32-.23,6.35Z"/>
  <path class="st21" d="M25.22,32.07c1.45,6.48-2.98,4.6-3.27,12.46-.05,1.3-4.58,1.66-4.9.41-1.12-4.35-.59-8.47-.32-13.05,1.82.71,6.38.58,6.36-.92-.11-3.49.02-5.5,4.04-4.79,1.71-.48,4.13.43,2.63,4.75.21,1.06-1.79,2.27-4.54,1.15Z"/>
</svg>