<?xml version="1.0" encoding="UTF-8"?>
<svg id="_레이어_1" data-name="레이어_1" xmlns="http://www.w3.org/2000/svg" version="1.1" viewBox="0 0 177.48 177.48">
  <!-- Generator: Adobe Illustrator 30.3.0, SVG Export Plug-In . SVG Version: 2.1.3 Build 182)  -->
  <defs>
    <style>
      .st0 {
        fill: #d06f07;
      }

      .st1 {
        fill: #f7d033;
      }

      .st2 {
        fill: #fdf9f4;
      }

      .st3 {
        fill: #fa6da0;
      }

      .st4 {
        fill: #fce1ea;
      }

      .st5 {
        fill: #db7806;
      }

      .st6 {
        fill: #d57505;
      }

      .st7 {
        fill: #fdea74;
      }

      .st8 {
        fill: #dc7a0a;
      }

      .st9 {
        fill: #cc6c09;
      }

      .st10 {
        fill: #fbce22;
      }

      .st11 {
        fill: #fcefbf;
      }

      .st12 {
        fill: #fdf9ef;
      }

      .st13 {
        fill: #dd7a06;
      }

      .st14 {
        fill: #fbbb06;
      }

      .st15 {
        fill: #da7b0f;
      }

      .st16 {
        fill: #de8208;
      }

      .st17 {
        fill: #dc7f10;
      }

      .st18 {
        fill: #d77309;
      }

      .st19 {
        fill: #d97607;
      }

      .st20 {
        fill: #faca0e;
      }

      .st21 {
        fill: #d87805;
      }

      .st22 {
        fill: #fbce10;
      }

      .st23 {
        fill: #fdf7e7;
      }

      .st24 {
        fill: #d66f06;
      }

      .st25 {
        fill: #cf7306;
      }

      .st26 {
        fill: #fddf39;
      }

      .st27 {
        fill: #d5750d;
      }

      .st28 {
        fill: #d1143c;
      }
    </style>
  </defs>
  <path class="st26" d="M79.75,62.8c.36-1.06.78-1.05,1.26,0-.19-3.37,11.45-3.05,13.51-2.43,1.34.4,2.11.85,2.39,2.43l2.43,1.05v11.98c3.29.91,5.47,2.5,4.52,6.04l2.66,5.46c2.34-.38,2.85.53,2.99,2.59,4.35.75,6.98,3.03,6.79,7.68.23.59,7.4,6.61,9.01,7.55.74.43,10.42-10.63,10.8-12.39,13.64-6.55,11.72,3.09,8.87,12.94-.37,1.58-2.6,9.86-3.17,10.46-2.13,2.28-3.06,2.76-6.26,2.51-.2,1.98-8.45,13.56-9.4,14-4.88,2.24-20.9,2.11-26.73,1.32l-2.53-2.45c-4.03.21-2.95-9.11-.56-11.21,7.19-1.03,11.51-11.4,3.83-15.31-2.89-3.03-5.04-6.31-6.44-9.85l-10.13-.22c-1.63,3.9-4.17,7.4-7.62,10.51-4.82,2.39-5.09,6.99-.79,13.81,7.57-.74,10.08,8.21,4.86,12.37-.24.95-.64,2.38-1.36,2.44-5.42.47-29.21.83-32.96-.53-7.29-2.63-9.34-8.64-9.12-15.66l-3.27-2.65c-.48-4.94-.94-9.85-1.39-14.75-5.2-15.6,14.6-1.89,17.9,4.19.46.31,1.1.31,1.61.13,4.94-1.74,10.23-7.44,11.25-12.55,3.72-.55,5.18-1.86,4.37-3.92l2.82-1.06c-2.1-2.64-1.95-7.11,1.29-8.74l.03-13.39c0-1.28.62-2.11,1.25-2.54l2.38,1.42c-.51,2.27-1.03,17.23,2.51,11.91v-11.42s2.42-1.69,2.42-1.69Z"/>
  <path class="st14" d="M60.25,87.24c.95-3.61,8.54-3.66,9.62.01-.72,1.16-.6,2.84.37,5.14-1.92,1.09-3.41,1.03-6.06.86,1.09,4.03-2.37,4.61-3.43,6.27-2.36,3.7-5.18,7.61-10.14,7.75-3.61.1-4.74-4.91-6.59-6.14-3.44-2.28-6.68-3.35-9.64-6.37-.4-.41-2.02.93-1.68,1.71l1.56,3.52.56,13.72c8.08,2.93,1.72,9.21,6.32,13.54,2.34,2.2,4.44,4.57,8.68,4.54l30.19-.19c.12-.93.33-2.25,1.04-2.44,2.79-.73,15.05-1.01,15.83,2.35,8.98-.05,18,1.18,28.01-.73,1.48-3.68,4.59-6.27,7.19-9.53l1.2-4.25c.33-1.17,4.28-.67,6.01-.89,1.02-3.24,3.35-8.35,3.32-11.78-.04-4.09,1.74-5.71,2.74-8.8.9-2.77-3.9-2.41-5.42-2.52-1.91-.14-2.68,2.92-3.64,4.17-4.16,1.87-4.23,7.1-11.37,11.26-3.25-4.19-7.15-7.11-10.97-9.32-.1-2,.28-5.42-2.5-6.17-.93-.25-4-.87-4.2-1.94l-.74-3.72c-.18-4.32,8.3-3.22,8.67.05,1.79.19,2.82.86,3.09,2.01,2.08.47,3.15,2.56,3.23,6.24,6.16,1.36,8.98-.51,8.44-5.62,1.51-1.55,3.04-2.12,4.61-1.71.68-2.08,3.17-2.93,7.49-2.54,1.14-2.82,2.77-4.49,4.89-5.03.2-3.4,3.78-3.51,4.12-.22,1.75.18,2.03.45,2.77,1.7.61,1.03,1.16,22.95.55,23.98-1.14,1.92-3.13,2.91-5.96,2.98-.73,10.41-1.03,20.93-.92,31.56-2.52,3.74-3.83,4.45-3.93,2.11l-5.51-.12c-.11.95-.4,2.37-1.08,2.44-7,.66-19.95.78-26.9.18-3.71.77-6.06-.03-7.06-2.38.35-3.21-.07-4.35-1.24-3.41-.78-1.66-2.65-2.48-5.6-2.47-.38,2.18-2.05,2.98-5.02,2.39-1.16-2.97-10.63-3.01-11.41-.06l-21.18.27-1.01,2.16c1.14-.06,1.09.26.03.92-.12.94-.37,2.31-1.07,2.43-2.29.4-20.71.44-22.89,0l-1.72-2.43c-2.81,0-5.97,1.2-8.79-.82-.02-2.26,2.2-3.14,6.64-2.65-.05-9.88-.36-19.7-.93-29.45-3.64.06-4.76-.64-6.46-3.73-.57-1.04-.57-22.85.08-23.84,3.74-5.68,9.96-2.07,10.98,3.97,2.27,2.65,5.87,3.43,10.78,2.33l3.53,2.01c-.52,5.42,2.53,6.99,9.15,4.73-.86-4.7.27-7.37,3.38-8.03Z"/>
  <path class="st24" d="M57.57,142.75c14.15-.5,28.56-.65,43.23-.43,1.76-1.38,2.5-1.18,2.21.61l35.04-.24c8.5-2.05,7.23,4.94,5.93,10.61-37.37.34-74.7.14-111.98-.62l-.09-9.95h25.67Z"/>
  <path class="st19" d="M60.25,87.24c-1.38,3.14-1.01,6.68-.8,11.07l-13.77-.05.09-7.34-8.83.21c-4.31.1-7.65-5.63-6.98-9.6-2.06-.27-4.17.48-5.5,1.59l.32,24.32c2-.53,6.35-.13,6.74,1.23l.69,33.14-9.12.1-.22-34.97c-2.61.09-4.17.22-6.66-.49l.08-20.22c-1.09-.69-2.79-.55-3.62-.26-1.67-8.25.29-9.44,8.16-8.38,3.58-.78,4.72-4.92,3.41-12.42,2.03-1.34,4.69-2.08,7.99-2.24.56,0,1.19-.1,2.3.57l-.36,14.21-3.25,1.55c-.37.17.36,1.69.82,1.84,4.18,1.38,11.33-1.35,13.44,3.75.44,1.06.18,4.13,1.01,4.61.78.46,2.32-1.73,3.5-1.78l10.54-.45Z"/>
  <path class="st18" d="M164.08,56.71l.49,6.21c-.38,3.38-5.95,3.34-6.91.69-2.29-.56-4.38-.4-6.27.49,3.69.38,3.65,7.77.14,8.58,1.95-.05,2.89,1.51,2.82,4.66,5.21-.88,8.68-.02,10.41,2.57.02,1.31.31,3.7-.3,5.02-.41.88-2.44,1.29-4.09,1.34l.38,20.21-6.26.87.1,35.02-9.29.5-.14,11.02-109.14.04c-1.95,0-3.06-.24-4.02-1.26h111.95c.45-3.34.21-6.14-.19-9.15l-5.71-.84c1.42-1.12,3.67-1.07,6.99-.25l.41-31.04c.02-1.58.54-3.53,1.36-4.11,1.09-.77,2.64-1.1,5.33-.82l-.39-22.1c-.03-1.68-.78-3.2-2.03-3.57-.79-.24-1.85-.2-2.78-.09-3.16,1.73-3.2.51-1.34-2.25-.51.4-2.55.01-2.55-1.02v-14.36c2.76,0,5.83.58,7.89-.73,1.05-1.22.45-4.41.37-5.61,4.16-.99,8.58-.96,12.78-.03Z"/>
  <path class="st10" d="M97.17,33.92c2.67,0,6.02-1.27,8.11.97.14,2.26-1.79,3.09-5.79,2.49l-.26,14.03-2.46,1.63c-.61,3.52-11.14,2.92-14.41,2.37l-1.66-2.44c-3.91-.85-4.32-13.17-.68-14.71l6.32.28c-.1-2.14.55-3.69,1.95-4.64-.52-3.69,8.33-3.53,8.89.02Z"/>
  <path class="st22" d="M26.78,62.91l5.47.03c-1.35,1.15-3.24,1.14-5.58,1.59-.46,4.05,1.19,9.99-1.15,13.52-2.13,3.2-8.95,1.62-12.27,1.62-.85,2.6-.36,4.43-.56,6.31-1.8-1.38-.71-3.91-.74-5.83-.93-.11-2.25-.31-2.45-1.03-.77-2.86-1.16-15.17,2.19-16.07l.94-2.78c4.08.46,8.25.54,12.49.24l1.66,2.4Z"/>
  <path class="st17" d="M79.76,33.85c.66.18.69.55.17,1.08,3.48-.32,3.34,2.49.08,3.34l.68,14.71c3.74.4,3.84,8.88.31,9.82h-1.26s-.08-9.52-.08-9.52l-7.86-.04-.02-18.98c2.98-.69,5.47-.45,7.97-.41Z"/>
  <path class="st13" d="M110.4,78.19c-1.87,2.21-2.48,4.54-1.82,6.97l-2.06,2.15-4.69-4.07c-.05-.87.31-3.11-.33-3.79-.76-.8-2.52-1.26-4.6-1.22v-15.44s8.31.05,8.31.05l.23,14.46,4.96.89Z"/>
  <polygon class="st6" points="105.28 34.89 105.3 52.91 96.77 53.04 97.11 34.92 105.28 34.89"/>
  <polygon class="st25" points="96.77 53.04 96.9 62.79 81.01 62.8 80.7 52.97 96.77 53.04"/>
  <polygon class="st8" points="11.69 63.05 11.95 80.14 3.16 79.79 3.12 63.17 11.69 63.05"/>
  <path class="st15" d="M164.77,79.92c-1.04.1-1.74-.34-2.44-1.03-.61-.6-1.13-16.09,2.25-15.97l8.62.14v16.71c-3.12,1.03-5.8.24-8.42.15Z"/>
  <path class="st21" d="M134.56,88.29c-3.26,1.69-3.28,5.56-2.32,9.76h-13.53s-.43-8.67-.43-8.67c-.35-2.21,2.36-1.9,4.18-1.15.42.55.95,2.74,2.24,2.18l7.46-3.25c2.08-2.32,2.58-1.92,2.4,1.13Z"/>
  <path class="st16" d="M97.17,33.92l-8.89-.02c-.01,3.65-6.75,3.5-7.38.04-.62-2.37-.77-5.04-.43-8.02l5.44-.63,10.75.41.51,8.22Z"/>
  <path class="st0" d="M79.75,62.8v15.53c-2.81.46-4.48.55-7.9.16l.59-15.92,7.31.22Z"/>
  <path class="st19" d="M26.78,62.91l-10.36.17c-1.03.02-1.96,0-2.7-.33s-1.22-1.51-1.09-2.47c-.28-.87-.56-3.75.41-4.15l13.19-.36c.71,2.64.54,4.86.55,7.15Z"/>
  <path class="st5" d="M110.4,78.19c1.28.23,4.32-.69,5.07,1.53.77,2.25.06,4.73-.02,7.31,2.33-.28,5.84-.34,7,1.18-1.23-.23-3.01.45-4.18,1.15-3.68-1.05-7.69-3.16-11.76-2.06-.46-2.58-1.47-5.88.32-8.53.63-.93,2.95-.68,3.56-.59Z"/>
  <path class="st27" d="M146.94,80.71l-2.37,6.44c-2.73,2.06-7.31,1.17-10.01,1.14-.82,0-1.79-.76-2.4-1.13-2.41-9.67,8.92-.36,13.43-8.69l1.34,2.25Z"/>
  <path class="st9" d="M71.16,78.51c0,2.96.31,6.18-1.29,8.74h-9.62c1.14-2.55,1.46-5.18,1.39-8.66l9.52-.08Z"/>
  <path class="st10" d="M85.91,25.29c-1.21.75-2.68,1.09-4.79,1.32l-.22,7.33c1.83,1.48,1.19,2.15-.97.99l-.17-1.08.04-8.61,6.11.06Z"/>
  <path class="st20" d="M164.08,56.71l-12.78.03c3.71-1.94,9.01-1.89,12.78-.03Z"/>
  <path class="st28" d="M96.88,131.53l-16.87.09c-.17-3.57.79-6.81-1.03-9.88-1.99.31-4.17.29-5.22-.1-.07-.02-6.76-10.55-2.69-16.35,4.61-1.29,10.23-8.03,9.26-12.86l16.28.36c-1.11,4.75,1.56,5.64,3.51,7.98,1.65,1.98,1.96,4.53,6.03,4.03-.09,3.63,1.38,7.91-.55,10.89l-3.66,5.63-5.07,1.09v9.12Z"/>
  <path class="st1" d="M103,142.93l-45.44-.19c.02-.2.07-.64-.03-.92.05-.97.32-2.13,1.06-2.25,3.44-.56,16.01-.67,19.49-.18l1.71,2.37c-.15-3.02,9.66-2.82,10.45.1-.02-2.44,2.14-3.21,6.5-2.31l-.59-2.51,29.62.19c1.39,0,2.48.89,2.4,1.59l-.36,2.95-22.63-.08c-1.14,0-1.92.5-2.18,1.22Z"/>
  <path class="st7" d="M96.16,137.06c1.53.95,3.17,1.21,5.34.96.25,1.6.25,2.3.05,3.69l-11.29.17c-3.78-2.42-6.39-2.94-10.45-.1l-22.26.06c-.42-1.13-1.19-2.27-2.07-3.28,4.09-2.25,7.88-1.55,12.12-1.54l28.57.06Z"/>
  <path class="st20" d="M164.58,62.92l.19,17-13.17-.18-.07-7.05c.56-1.37,1.86-2.21,3.9-2.54l.4-3.41c-2.41-.03-3.9-.91-4.45-2.63-.08-.84,1.14-1.38,2.4-1.35l10.78.16Z"/>
  <path class="st11" d="M151.54,72.69l-.14-8.58c2.15-.09,5.27-.51,6.8.6.13,3.04.34,5.98-1.32,7.4-1.17,1-3.63,1.4-5.34.59Z"/>
  <path class="st12" d="M88.28,33.9c1.22,2.05.93,6.12-.98,6.85-2.61,1-7.05.46-7.29-2.49l-.08-3.34.97-.99,7.38-.04Z"/>
  <path class="st23" d="M13.57,71.35c-1.61-1-1.15-6.07.21-7.33,1.54-.38,4.79-.3,5.14.7.47,1.33.26,3.33.19,4.8-.07,1.65-2.67,2.66-5.55,1.83Z"/>
  <path class="st3" d="M79.92,106.46c3.58,3.63,6.45,1.1,6.05-3.75-2.03.38-3.8.11-5.31-.82-.39-.39-1.28-2.4-.7-2.38l16.17.34c-.21,2.21-.19,4.29.18,5.29.33.89,2.57.78,3.62,1.9,1.2,1.28,1.1,6.17-.38,7.1-2.49,1.57-3.32,3.94-3.45,6.85l-16.27.86c.54-2.68-.03-4.34-.86-5.27-.51-.57-2.4-.94-2.66-1.64-.83-2.24-.52-5.96.27-8.09.39-1.05,2.7-.79,3.32-.38Z"/>
  <path class="st4" d="M79.92,106.46c.26-1.2,1.45-3.46.74-4.57,1.11-1.95,6.76-2.33,7.5-.41,2.09,5.39-3.25,9.79-7.31,10.84-.81-2.4-1.22-4.52-.93-5.86Z"/>
  <polygon class="st2" points="90.25 141.87 79.8 141.76 79.93 137.98 90.03 137.95 90.25 141.87"/>
</svg>