<?xml version="1.0" encoding="UTF-8"?>
<svg id="_레이어_1" data-name="레이어_1" xmlns="http://www.w3.org/2000/svg" version="1.1" viewBox="0 0 177.48 177.48">
  <!-- Generator: Adobe Illustrator 30.3.0, SVG Export Plug-In . SVG Version: 2.1.3 Build 182)  -->
  <defs>
    <style>
      .st0 {
        fill: #760806;
      }

      .st1 {
        fill: #de1f18;
      }

      .st2 {
        fill: #700402;
      }

      .st3 {
        fill: #642c17;
      }

      .st4 {
        fill: #f33326;
      }

      .st5 {
        fill: #730a08;
      }

      .st6 {
        fill: #6e0303;
      }

      .st7 {
        fill: #770804;
      }

      .st8 {
        fill: #60301b;
      }

      .st9 {
        fill: #dd1e18;
      }

      .st10 {
        fill: #710503;
      }

      .st11 {
        fill: #780403;
      }

      .st12 {
        fill: #7a0d0b;
      }

      .st13 {
        fill: #fcfafa;
      }

      .st14 {
        fill: #dd251c;
      }

      .st15 {
        fill: #770604;
      }
    </style>
  </defs>
  <path class="st4" d="M115.4,81.09c-.23,1.49-2.03,2.14-5.39,1.97.77,8.3-2.02,8.33-9.35,8.1l-.36,5.98c-.97,2.49-3.53,3.48-7.69,2.95-.95,4.8-2.56,5.85-6.86,7.46-2.1.79-5.35,1.85-6.5-.46-.17.74-.48.76-.9.11-.2.62-.49,1.55-.98,1.59-1.87.14-11.58-.12-12.99-.52-3.73-1.39-5.29-3.88-5.34-8.32-7.96-.11-9.64-10.91-9.86-17.14-.78-.55-1.82-.7-3.11-.43l-.19,12.3-1.63,1.14c-.52-.23-.86-.76-.87-1.65l-.21-13.3c-3.03.42-5.47.68-7.28-.57-.27-2.52,7.04-2.42,7.54,0,.48-5.87.6-11.86.33-17.96-1.22-.8-1.62-2.43-1.19-4.89,2.01-2.63,1.92-8.88-.05-11.09-.4-3.6-.56-8.1,2.4-9.74l4.13-.16c-.85-6.42,1-9.34,5.55-8.76l.25-7.28c.24-.34,1.71-1.52,2.28-1.88.49-.31,10.84-.76,10.66,1.56.12-1.38,1.47-2.1,4.04-2.15-.15-1.9-.13-3.7.06-5.41l27.62-.05c1.15,1.46,1.56,3.57,1.23,6.33,3.07-.42,5.48.11,7.21,1.6l.68,7.53c3.07-.42,5.77.09,8.11,1.54.25,5.49.75,10.76,1.48,15.82,3.72-.42,6.08.48,7.09,2.72l-.32,22.96c-.79,2.68-3.34,3.75-7.65,3.21.48,3.5-.17,5.79-1.94,6.89Z"/>
  <path class="st1" d="M67.79,12.03c.37-.65.65-.59.83.16l.75-1.63s12.99,0,38.97-.02l.97,1.62c1.73.58,2.33,2.64,1.79,6.17l9.34.21c1.99,1.83,2.06,4.18,1.95,6.78,4.68,1.15,6.64,4.85,5.88,11.11l4.41.13c.5,5.03.76,10.15.78,15.38.64.17,1.59.46,1.62.95.31,4.44.7,22.79-.14,26.14l-1.63,1.17c-.21,1.83-1.92,2.68-5.13,2.55.61,5.96-.54,8.39-3.46,7.3-.24,2.11-.34,2.39-2.32,1.91-2.42-.58-2.87-4.23-2.49-6.32-2.04-.78-4.75-2.1-4.49-4.56l.39-8.78c2.66.13,4.71.39,7.55-.15l.35-24.89-7.64-.47.21-6.32c-.88-3.42-1.36-6.49-.69-10.33-2.96-.9-5.5-.47-8.52-.63l-.52-8.98-7.36-.11-.29-7.7-26.11.14c.91,2.3.97,4.51.35,6.87l-5.33.33c-1.4-.91-1.84-2.68-1.33-5.31-2.15-.21-3.07-1.1-2.76-2.67l4.11-.09Z"/>
  <path class="st0" d="M63.68,12.12c.98.78,2.39.83,4.19.77.42,2.69.19,4.95-.1,7.21l-11.36.07-.24,8.9c-1.68.6-3.34.42-5.28.23l-.28,8.72-6.52.25.17,41.14c0,.58-.58.95-.86.88l-1.63-.71-.09-13.55c-7.02,3.68-6.15-4.5-3.77-8.84,3.67-.96,4.96-3.74,3.88-8.33-3.7-.26-5.64-2.63-5.8-7.11,0-1.07-.38-2.21.07-3.69h7.6s.06-11.84.06-11.84l6.23-.21-.22-6.03,5.94-.12-.08-7.71,8.07-.04Z"/>
  <path class="st15" d="M133.57,80.84c-.62.09-.69-.12-.27-.62l.15-28.27c-.47-4.45-.51-9.45.19-13.77l7.82-.06-.02,42.52-7.87.21Z"/>
  <path class="st6" d="M78.34,107.2c.79,1.95.7,5.93.04,8.32l-16.12-.08-.09-8.35-9.33-.33-.07-8.01c-3.18-.65-3.28-3.9-8.53-2.94v-14.79c2.25-.45,4.25-.51,6.51.16l.21,7.8c1.98,1.57,1.72,2.81,2.08,5.22.48,3.24,5.13,4.48,8.02,4.09-.6,2.66-.05,8.21,2.87,8.33l14.41.58Z"/>
  <path class="st2" d="M109.3,12.17l-40.69.02c-.78-2.24-.63-5.89-.01-8.49l40.58.02.13,8.45Z"/>
  <path class="st10" d="M97.79,124.38c-1.24,2.91-7.11,2.14-8.84-.41-.1-4.61-2.31-2.33-3.09,1-2.82.47-3.88,2.46-3.18,5.98,4.65.41,9.4.52,14.25.32-.62-3.08-.11-5.1,1.53-6.06-.02-1.92,1.04-2.44,1.53-.52,1.84-.25,3.64-.15,5.41.29l-.07,9.31-13.92.17c-.11.65-.27,1.2-.63,1.42-.41.24-9.24.55-8.66-1.42l-9.67-.25.02-9.23c2.22-.23,4.3-.54,6.25-.93l.05-8.37c6.76-.12,13.53-.07,20.29.15-.24,3.06-.04,5.92.59,8.59l-1.87-.04Z"/>
  <path class="st8" d="M105.34,134.3l-14.47.4-.16,10.44,8.46.11-.04,17.23-8.48-.12-.06-16.39-8.27-.25-.03-11.01c-3.46-.17-6.76.67-9.82-.49l32.87.08Z"/>
  <path class="st7" d="M133.63,38.18l-.19,13.77c-.31-.33-.64-.91-.63-1.67l.1-12.13-6.43-.11-.09-7.27c-.04-2.69-2.95-3.96-5.59-3.3l-.18-7.39-11.11-.12-.21-7.79,12.09-.06.17,7.88,5.68.12v5.8s6.1.32,6.1.32l.29,11.96Z"/>
  <path class="st6" d="M43.41,80.3h-7.54s.13-38.55.13-38.55c.87.72,1.09,1.93,1.52,3.08.85,2.24,4.03,2.11,5.84,2.32.09,2.75.4,6.49-.2,9.23-1.64,1.05-5.03,1.75-5.84,3.84-.67,1.72-.47,3.6-.43,5.41,2.83-.28,4.55-1.49,6.4-3.34l.12,18.01Z"/>
  <path class="st12" d="M115.63,107.06l-.09,8.34-16.27.19.25,8.68c2.32-.22,4.38-.48,5.89.71l-6.95.23c-1.19.88-1.6.36-.67-.83.68-.47.94-1.34.97-2.56l.12-5.76h-19.68s-.05,8.88-.05,8.88l-6.66.04c1.46-1.2,3.55-.92,5.83-.71l.06-8.75-.04-8.32.9-.11c1.69.77,2.22,2.78,1.61,6.05,5.23.56,10.67.72,16.32.49-.41-3.42.17-6.09,1.73-8l15.58-.2,1.15,1.63Z"/>
  <path class="st5" d="M133.57,80.84l-.09,14.92-6.38.52c-1.36.11-2.18.82-2.31,1.75-1.1,3.45-5.48.52-2.08-1.55.27-1.57.39-3.37.37-5.4l1.62-1.03c3.04-1.12,1.11-4.98,2.13-9.38,2.66.25,4.86.5,6.47-.46.25.16.27.43.27.62Z"/>
  <polygon class="st3" points="90.51 173.71 82.35 173.78 82.41 162.56 90.4 162.44 90.51 173.71"/>
  <path class="st11" d="M124.8,98.03l-.05,8.98-9.12.04c-2.68-.05-1.7-8.77-.62-9.75.39-.36,6.84-1.24,7.71-.82-.39.37-.27,1.24.21,1.44.56.23,1.25.21,1.87.11Z"/>
  <path class="st4" d="M68.62,12.19l-.83-.16-.04-6.56c0-.86.41-1.41.85-1.77v8.49Z"/>
  <path class="st9" d="M115.4,81.09c1.35-.02,1.84,1.43,3.16,2.14l2.39,1.29c1.22.66-.58,4.89,1.95,5.94.54.22,1.17.21,1.81-.4l.04,3.9c.02,2.24-1.42,1.98-2.02,2.52-1.77,1.61-3.83,2.6-6.93,1.77l-.16,8.8-16.67-.03-.1,8.22h-19.64s.02-8.16.02-8.16c2.21-.27,4.78-.29,7.22-1.66,1.23-.69,2.9-.87,3.39-2.02.55-1.32.71-2.69.54-4.83l8.23-.41.44-8.59,9.15-.28.23-8.13,6.96-.09Z"/>
  <path class="st13" d="M63.67,46.96l-.46,9.41-9.15.04.14-18,7.34-.22.09-8.02,13.69.03.16,9.87c.02,1.02-2.32,1.84-3.54,1.53l-.86,5.24-7.4.12Z"/>
  <path class="st6" d="M43.45,39.2c.02.85.11,2.27-.33,3.76l-3.07-2.96c.99-1.08,1.28-1.28,3.4-.8Z"/>
  <path class="st14" d="M97.79,124.38c.31.27.66.54.67.83l.14,7.68-17.61.07.28-8.67c1.64.38,3.41.1,3.56-.57l.68-2.93c1.12-1.21,3.39-.96,4.83-.63l.26,4.21h7.19Z"/>
</svg>