<?xml version="1.0" encoding="UTF-8"?>
<svg id="_레이어_1" data-name="레이어_1" xmlns="http://www.w3.org/2000/svg" version="1.1" viewBox="0 0 177.48 177.48">
  <!-- Generator: Adobe Illustrator 30.3.0, SVG Export Plug-In . SVG Version: 2.1.3 Build 182)  -->
  <defs>
    <style>
      .st0 {
        fill: #b27af2;
      }

      .st1 {
        fill: #f3ddbb;
      }

      .st2 {
        fill: #aa6cee;
      }

      .st3 {
        fill: #cfa294;
      }

      .st4 {
        fill: #fbeed6;
      }

      .st5 {
        fill: #5e2d98;
      }

      .st6 {
        fill: #3e156d;
      }

      .st7 {
        fill: #502085;
      }

      .st8 {
        fill: #d3ae85;
      }

      .st9 {
        fill: #582490;
      }

      .st10 {
        fill: #21054f;
      }

      .st11 {
        fill: #55278c;
      }

      .st12 {
        fill: #f9de9f;
      }

      .st13 {
        fill: #7e5895;
      }

      .st14 {
        fill: #441878;
      }

      .st15 {
        fill: #351168;
      }

      .st16 {
        fill: #fbca55;
      }

      .st17 {
        fill: #a688af;
      }

      .st18 {
        fill: #b479f2;
      }

      .st19 {
        fill: #9156d8;
      }
    </style>
  </defs>
  <path class="st9" d="M143.92,14.75c.85,5.14,1.17,12.46-.16,16.89-1.82,2.79-3.19,1.84-4.4-1.07.26-3.03-.88-5.37-3.43-7.01.02,3.94-5.76,3.8-6.57.19-23.03-.9-46.97-1.05-69.97.19-.5,1.02-.97.96-1.41-.12-.76,3.73-7.26,3.21-7.5-.28-2.09-.4-3.99-.3-5.68.28-.36,1.13-.74,1.06-1.15-.11-1.41-1.78-.85-6.23-.05-8.99l100.31.02Z"/>
  <path class="st11" d="M143.61,151.8c1.3,1.09,1.08,4.96.18,6.57l-.77,1.63c-34.44.38-68.92.26-103.41-.35-1.92.37-3.67.39-5.25.04l-.17-8.19c-.58-4,8.97-3.88,9.6-.04l1.22-2.63,87.48.11c.4-2.69,1.52-4.43,3.37-5.21,3.52-2.19,4.3.64,4.2,4.11,1.97.7,3.61,1.41,3.55,3.97Z"/>
  <path class="st6" d="M149.14,126.66c-3.1.13-4.58-.26-4.44-1.15l-.43-41.94c-3.13-.96-3.21-7.88-.03-8.74l.25-39.54c-.17-2.26.42-3.38,1.77-3.36l6.39.12.04,94.18c-1.37.66-2.63.48-3.55.42Z"/>
  <path class="st14" d="M34.41,58.21l2.64.88s.09,19.07.28,57.2l-2.63,1.57c3.93.15,3.64,6.61-.09,7.35,2.58-.05,2.49,1.01-.12,1.62,4.16.77,4.07,13,.11,14.19,1.66,2.01,2.49,3.02,2.49,3.02,1.05,6.81-2.55,9-10.81,6.59l-.09-92.07,8.22-.34Z"/>
  <path class="st7" d="M42.32,23.58c1.09,10.74,1.04,23.51-.07,34.55.52,3.95-7.11,3.83-7.84.08l-.12-34.25,8.02-.37Z"/>
  <path class="st13" d="M146.26,31.94c-.4,1.24-1.17,3.03-1.19,5.12l-.29,34.29.07,17.19.4,35.53c.02,1.38,3.24,2.25,3.88,2.58-1.08-.08-2.25-.16-4.03.37l-.03,32.59c0,.91-.76,1.45-1.29,1.37-3.5-.27-3.5-1.14,0-2.63l-.18-6.57-2.62-1.53c.06-7.34.11-14.69.17-22.04l2.65-1.86-2.64-.89v-39.59s-4.94.7-4.94.7c-4.04-.46-3.95-10.5-.03-11.41-.39-2.2,1.22-3.16,4.85-2.89l.07-38.73,2.64-1.91.16-16.89c3.01,0-.7,10.27,2.35,17.19Z"/>
  <path class="st10" d="M143.79,158.37v2.63s-108.02.02-108.02.02c-1.25,0-1.41-.91-1.42-1.34,1.26-.74,3.09-1.45,5.22-1.43l27.77.38,19.8,1.1c6.66.37,13.24.78,19.72-1.72,8.72,2.64,17.42,2.24,26.03.28,3.86,1.93,7.8,1.97,10.91.07Z"/>
  <path class="st17" d="M43.78,151.47l-9.6.04c-2.42,0-6.19,1.18-7.9-.88,2.58-.5,5.17-.23,7.8,1.02l.52-10.63c6.86-1.74,14.88,4.27,9.17,10.45Z"/>
  <path class="st19" d="M43.66,23.72c1.03.28,2.57.71,2.63,1.5.64,7.36.6,21.14-.05,28.49l-2.64,1.87c4.38,1.15,2.53,4.93-1.35,2.54l.07-34.55c0-2.96-.87-6.53,1.29-8.85l.05,8.99Z"/>
  <path class="st2" d="M129.36,23.76l6.57-.19,2.6.88c.13,16.38.23,32.77.29,49.16l-2.63,1.57.03,11.41c1.02.28,2.51.7,2.63,1.53.5,3.53.47,24.52-.18,27.65l-2.65,1.87-1.22,2.64c-27.69.04-55.38.07-83.09.11l-1.6-2.63-2.59-1.61,1.51-48.49c1.86-2.54,4.31-4.09,7.35-4.64l.28-31.96c-.92-3.36-.48-5.77,1.32-7.21l1.41.12c23.01-1.27,46.88-1.06,69.97-.19Z"/>
  <path class="st19" d="M57.99,23.83c1.08,2.15,1.34,4.96,1.32,8.01l-.3,33.53-7.31,1.58-1.58,50.8c.43,3.95-6.96,3.59-7.47-.18-1.02,0-2.6-.26-2.63-.9-.29-6.07-1.29-48.3.2-50.32,1.4-2.05,3.91-2.89,7.51-2.52-1.21-4.29-.43-6.79,2.36-7.48l-2.62-1.56.34-28.1c-1.81-.02-2.57-.98-3-2.86,0-.69.67-1.1,1.52-1.03l11.66,1.03Z"/>
  <path class="st19" d="M143.76,31.65l-.08,43.45-7.48.08-.26-51.6c1.22-.04,3.36-.88,4.6.11,2.41,1.94-.44,7.35,3.23,7.96Z"/>
  <path class="st18" d="M50.08,56.34c-.31,3.86-6.19,3-6.48-.75l.05-31.87,1.15.11,5.67.11-.39,32.41Z"/>
  <path class="st19" d="M129.36,23.76l-69.97.19c.33-.81,1.18-1.36,2.62-1.36l64.66.02c1.33,0,2.22.55,2.68,1.15Z"/>
  <path class="st1" d="M65.64,126.79c4.91.36,3.44,5.93.12,8.49l-19.9,2.15c-1.64,1.38,5.57,2.72,7.27,2.91,48.31.41,72.47.62,72.47.62l2.26,2.7c.06-3.96,7.37-3.7,8,.06l.08,7.85-92.16-.11c-1.24-2.4-.22-5.42-2.44-8.05-3.21.94-6-.12-6.73-2.4l-.11-14.19c9.54-1.35,21.39-1.21,31.14-.03Z"/>
  <path class="st15" d="M143.8,126.37l-.19,25.44c-2.11-1.04-4.12-.83-6.75-.73.97-2.92.76-7.23-1-7.35-4.19-1.04-3.93-14.3.09-15.66-1.17-.3-1.18-.74-.07-1.3.3-.77.75-.82,1.35-.21-.02-3.94,5.77-3.8,6.58-.19Z"/>
  <path class="st5" d="M42.64,117.57l7.47.18,85.91-.11c3.95-.49,3.76,7.14,0,7.82-32.73,1-68.56,1.27-101.41-.25l.09-7.35c-.12-3.95,7.15-4.02,7.94-.28Z"/>
  <path class="st0" d="M50.08,56.34c-.03,2.38-.37,3.79.56,7.67.5,2.1-4.41,3.65-7.91,1.87l-.09,51.68-7.94.28-.29-59.64,7.84-.08c.69,0,1.26-.2,1.28-.65l.08-1.89,6.48.75Z"/>
  <path class="st13" d="M136.03,125.45c1.79-2.08,2.55-1.38,1.2,1.1l-1.35.21c-1.96.79-4.4,1.02-7.3.71l-.76,1.93c-20.21,0-40.41.02-60.6.03l-1.57-2.63-31.14.03.12-1.62,101.41.25Z"/>
  <path class="st3" d="M143.8,126.37l-6.58.19c-.11-.31-.64-1.1-1.2-1.1v-7.82s.2-31.04.2-31.04c.38-1.4,1.1-2.63,2.1-2.9,1.5-.42,3.48-.65,5.48-.08v42.76Z"/>
  <path class="st16" d="M76.41,66.59l2.57,1.75c.84,5.47,2.34,4.44,4.5-3.09,1.61-1.22,3.52-1.89,5.74-1.99l.5-12.64,2.71-1.72.15-7.73,5.69-.78c1.64,5.82,2.18,11.3,2.28,17.44l8.6.56.69,7.47,7.07.71c1.7,1.72,1.42,5.17.86,8.23l-16.37,1.13c.53,2.57.78,5.19.16,6.49s-4.11,1.57-6.58,1.1c-1.7,5.67-.37,10.94-.81,16.79-2.58.67-6.17.43-7.68-.73l-.93-16.17c-3.08.39-5.87.8-8.81-.15l-.38-7.78-8.04-1.2c-1.53-.96-1.58-6.36-.16-7.48,1.87-1.48,6.13-.62,8.24-.21Z"/>
  <path class="st12" d="M92.43,48.9l-.69,17.54c-3-.67-5.72-.35-6.74.94-.77.97-.45,3.48-1.08,5.6-.52,1.76-5.51,1.34-6.6-.28-1.16-1.72-1-4.17-.91-6.11l.39-8.3,9.68-.59.44-8.49,5.51-.31Z"/>
  <path class="st4" d="M135.88,126.76l.07,1.3c.35,2.31-1.36,3.25-5.14,2.81l-.27,11.03-2.68,1.76c-3.97-.07-7.61-.37-12.09-.43l-30.63-.38-32.32.1-9.02-2.14c-1.35-.15-1.49-5.69-.05-5.82l20.95-1.98c1.6-.15,1.51-5.02.94-6.21l70.23-.03Z"/>
  <polygon class="st8" points="135.95 128.06 135.86 143.72 127.85 143.67 128.24 128.18 135.95 128.06"/>
</svg>