<?xml version="1.0" encoding="UTF-8"?>
<svg id="_레이어_1" data-name="레이어_1" xmlns="http://www.w3.org/2000/svg" version="1.1" viewBox="0 0 177.48 177.48">
  <!-- Generator: Adobe Illustrator 30.3.0, SVG Export Plug-In . SVG Version: 2.1.3 Build 182)  -->
  <defs>
    <style>
      .st0 {
        fill: #bc86f4;
      }

      .st1 {
        fill: #f8f4fa;
      }

      .st2 {
        fill: #512184;
      }

      .st3 {
        fill: #7e43c3;
      }

      .st4 {
        fill: #fcf9fd;
      }

      .st5 {
        fill: #42187a;
      }

      .st6 {
        fill: #c593f9;
      }

      .st7 {
        fill: #6930a8;
      }

      .st8 {
        fill: #9761da;
      }

      .st9 {
        fill: #b77df4;
      }

      .st10 {
        fill: #81c63f;
      }

      .st11 {
        fill: #f2e1fc;
      }

      .st12 {
        fill: #9f65e1;
      }

      .st13 {
        fill: #532682;
      }

      .st14 {
        fill: #56238f;
      }

      .st15 {
        fill: #bc88f4;
      }

      .st16 {
        fill: #f9f4fd;
      }

      .st17 {
        fill: #b278f1;
      }

      .st18 {
        fill: #542286;
      }

      .st19 {
        fill: #f8f3fb;
      }

      .st20 {
        fill: #522280;
      }

      .st21 {
        fill: #e7cff9;
      }

      .st22 {
        fill: #f5edfb;
      }

      .st23 {
        fill: #245617;
      }

      .st24 {
        fill: #bb86f3;
      }

      .st25 {
        fill: #f0e0fa;
      }

      .st26 {
        fill: #306022;
      }

      .st27 {
        fill: #481b79;
      }

      .st28 {
        fill: #c28bf8;
      }

      .st29 {
        fill: #bb84f4;
      }
    </style>
  </defs>
  <path class="st2" d="M152.37,50.65l-1.46,3.38c-6.03-.66-11.8-1.8-17.32-3.4-2.9-.37-4.71.2-5.45,1.7,4.3.21,3.96,3.55-.11,4.41-.38,2.81-2.29,4.21-5.72,4.18l-.05,13.62c5.15,1.4,10.53,2.79,16.13,4.16,2.55,5.26,7.79,6.66,15.73,4.21l2.36,2.62c.93-4.75,7.78-5.14,9.12-.45.94.45.92.97,0,1.54l-8.93.06-.19,8.88c-3.41.16-6.29-.17-9.08.85l.28,22.87-8.48.57c-1.66,2.17-1.11,5.58-.78,8.72-4.39.17-8.02-.65-12.23.74l-.42,11.28c-2.68-.85-5.2-.56-6.41.55-.93.86-.33,4.25-1.43,4.86-1.8,1-5.22.09-5.62,1.27-.42,1.22.28,5.04-.48,6.25-3.26,1.37-8.88.51-11.84.47-5.46.73-11.85,1.42-16.89-.26l-1.01.16c-4.81-1.34-4.76-17.47-.19-19.32,2.61-7.31,11.12-2.23,12.09,5.05l14.21.07c.2-5.13,1.62-7.09,6.6-8.37-.72-5.08.07-9.05,2.35-11.91l1.28-2.99h16.23c1.31-8.13,1.12-16.04-.55-23.74-5.04.37-6.67-2.3-8.63-6.5-3.5.34-5.43-.87-5.79-3.62l-2.23-.98c-10.03-.31-12.42-2.16-7.17-5.56-1.15-.13-2.85-.4-3.01-1.23-.41-2.19-.74-19.75-.32-20.69.49-1.1,1.8-1.65,2.96-2.1-.85-2.65.1-3.18,1.97-1.1,1.63.51,3.38,1.05,5.21.93,1.34-.09,2.56-2.87,4.05-3.6,1.9-.94,4.76-.19,5.09-1.43.3-1.14.22-3.5-.01-5.88l26.18.64c1.23,3.65-.12,6.43-.07,9.1Z"/>
  <path class="st26" d="M111.92,50.9c-.61.43-1.31.91-1.97,1.1-.62,6.42-10.67,3.59-12.16-1.64-6.13,1.2-12.24,2.86-18.31,4.97l-1.99-3.22c-1.57,2.6-2.64,1.83-1.82-1.22,2.2-1.64,1.95-4.41,2.02-7.73.04-1.6,3.98-2.03,5.18-2.08,1.57-2.68.84-6.57,1.2-9.14,1.6-1.88,7.19-.91,9.46.21,1.21,9.78,2.78,5.9,4.7-11.65,5.45-1.73,11.25-2.52,17.42-2.38.13-.07.63-2.2-.59-2.5-2.45-.6-39.86-.77-41.82-.03-2.92,1.1,3.06,3.22,5.59,2.51,1.15.29,1.55,2.39,1.82,3.87-.42,4.51-9.61,4.64-10.75.31l-9.14-.23-.03-19.12,67.25-.08-.37,19.87c-2.97-.52-5.87-.8-7.49-.19-1.6.6-1.52,4.84-.8,7.2l-11.04.82c-1.16,2.8-1.81,7.8-.19,9.85,4.74,1.95,5.06,6.14,3.83,10.51Z"/>
  <path class="st14" d="M29.42,52.25l2.95,1.39-.21,23.88c3.44-1.1,6.88-.59,8.06,3.07,6.53,0,12.99-.98,19.37-2.93l2.74,2.89c4.32.26,4.17,3.38.14,4.6-4.04,1.28-4.25,20.26-3.41,21.85,1.53,2.92,21.8,7.5,23.73,1.11,3.44-1.03,7.05-1.91,8.01,2.29,8.32,4.01-.42,13.68-7.97,8.72,3.56,3.31,4.44,13.35-.92,15.46-2.71,4.46-5.83,2.72-9.34-5.22-3.26,0-4.36-2.02-3.31-6.05-9.73-1.72-14.19-.76-13.36,2.87l-2.59,2.32c-1.22,4.19-8.06,4.39-8.97-.01-4.45.09-4.43-8.14-.15-8.98.15-2.38,1.7-3.26,4.67-2.65,2-1.31,1.46-3.41-1.63-6.3-.87-4.27-1.04-8.66-.51-13.15l-2.64-1.27c2.83-5.21-14.56-5.46-12.71-.8l-3.07,1.69c-.04,4.49-8.33,4.24-9.07-.02-.02-2.89-.78-5.95.77-9.14,3,1.44,7.02,1.12,7.85-.54.75-1.51.89-5.91-.71-6.37-1.44-.42-4.49-.37-7.55.14v-29.48s9.04-.48,9.04-.48c-1.12-3.26-1.29-8.51.63-9.32,4.96.26,4.81,9.68.16,10.44Z"/>
  <path class="st18" d="M75.66,50.89c.59.49,1.27,1.06,1.82,1.22,4.35.68,3.8,13.63,3.18,17.66l-2.97,2.09c2.9.23,3.02,1.64,3.05,4.01,3.11-.26,6.47.29,10.1,1.67,4,.09,3.97,1.5.31,3.04,0,4.49-8.34,4.33-9.14.07-1.19,4.87-10.2,4.34-12,.22.3,4.47-7.07,3.91-7.68-.33-6.71-2.17-3.97-11.97,3.78-12.61.34-.54.02-12.35-.48-12.75-2.46-1.95-9.08-4.8-12.51-4.13-.34-1.12-.73-2.02-1.29-2.13-3.51-.73-11.34-.67-14.65.52,2.68.67,2.57,1.75-.19,2.24.2,4.47-6.45,4.61-7.59.56.1-3.62.58-6.9-.16-10.44,3.02.99,5.61-2.07,8.08-2.09l21.84-.16c3.18-.02,6.63,2.04,9.53,3.28-.83,2.92-1.01,6.3.59,7.83,1.18,1.13,4.65.54,6.37.22Z"/>
  <path class="st10" d="M84.07,31.93c-7.4-1.66-12.46.7-14.24-2.17l1.24-3.01c6.25.66,27.4-1.14,11.88-1.98l-2.3-2.82c-2.97-1.75-6.59-1.38-10.46-.64l-.15-8.73,48.22.04c1.04,2.49.84,8.3-1.94,8.48l-16.22,1.01-.84,18c-3.02.32-5.87.4-6.93-.76-.88-.96-1.12-3.47-.85-5.75l-7.4-1.66Z"/>
  <path class="st27" d="M44.34,128.48c3.37.94,4.14,4.4,2.32,10.38,1.82,7.27.95,12.76-2.6,16.49l3.24,1.27c2.4,1.37,2.42,7.71-.84,7.82-1.42.67-4.67.7-4.39-1.83.21-1.95,1-5.34-.28-5.52l-6.15-.88-.38-20.5-15.69-1.11-.25-6.68c1.32-4.97,8.29-3.34,11.41-.38,3.23-3.15,12-3.93,13.59.92Z"/>
  <path class="st13" d="M83.11,153.74c1.24.61,1.15,1.12-.2,1.54-.3,2.22,1.23,5.94-1.25,8.49-5.73,1.53-7.29,2.89-7.74,9.05l-26.42.1-1.04-8.47.84-7.82c2.99-4.55,5.9-.54,6.54,3.8,6.11.2,12.21.3,18.29.27-1.81-6.79,5.7-11.77,9.96-6.8.3-.09.69-.16,1.01-.16Z"/>
  <path class="st5" d="M166.24,59.31c.41,8.81.2,17.4-.63,25.77-3.07-.33-6.02-.13-9.12.45l-3-1.64-.09-20.17c-3.18-5.97-3.52-10.33-1.03-13.06,2.21-.5,6.34-.18,8.73.83-.54,2.86-.53,5.53.02,7.13.42,1.23,3.19,1.37,5.11.71Z"/>
  <path class="st20" d="M19.22,97c3.14,1.35,4.16,5.05,3.06,11.08,1.08,5.4.1,8.88-2.92,10.43,4.47-.56,4.2,7.82-.07,8.47l-9.15-.05v-29.93s9.08,0,9.08,0Z"/>
  <path class="st12" d="M44.19,119.5l.15,8.98-25-.54-.04-.97.07-8.47c1.39-5.67,9.04-3.35,12.57.01,3.81-2.78,11-4.45,12.26.98Z"/>
  <path class="st23" d="M80.64,21.96c2.89-.08,6.61-1.17,9.95.8,1.31.77,1.17,5.76-.19,6.67l-20.58.33.07-7.5,10.75-.31Z"/>
  <path class="st29" d="M165.61,86.61v-1.54s.63-25.77.63-25.77l.91,25.77c.05,1.31-1.06,1.53-1.54,1.53Z"/>
  <path class="st12" d="M100,154c-5.24,2.38-11.36,1.11-17.09,1.29l.2-1.54,16.89.26Z"/>
  <path class="st29" d="M152.37,50.65c.08,4.43,4.04,8.74,4.01,13.41l.1,21.46c-5.15.95-11.81,1.83-17.41.46l-1.81-4.96-5.93-.48c-3.81-2.29-7.23-3.41-12.08-.93l.08-21.18,8.7-1.7c6.51,6.32,10.46-2.65,2.64-2.12l-2.53-2.29c.01-.57-.15-2.15.48-2.83l15.78.29c3.4.06,4.82,2.22,7.97.86Z"/>
  <path class="st9" d="M119.72,82.57l9.55,1.01c-.4,2.52.3,5.07,1.45,5.67,1.18.62,4.6.37,6.79.53,1.35,9.45,1.01,19.72.14,29.63h-20.46c-2.56-.4-3.3-2.51-2.21-6.33-2.72.09-4.39-.16-4.88-3.34-2.44-.49-3.4-2.34-2.9-5.53-7.17,1.25-8.92-6.34-7.12-11.95,1.89-5.88,6.23-8.33,8.86-2.3l.67-7.28c-2.43-2.86-.83-4.55,1.52-1.81,3.11.08,5.98.64,8.6,1.7Z"/>
  <path class="st15" d="M109.95,52l.37,24.03c-2.13,7.41-12.97,6-19.16,4.55l-.31-3.04c-5.68.02-10.06-1.88-13.15-5.68l-.21-19.75c5.57,1.66,10.01-5.45,21.85-4.05,2.15,4.88,6.5,5.12,10.62,3.94Z"/>
  <path class="st17" d="M110.09,109.74c2.77-.14,3.66,2.03,2.67,6.52,2.48-.03,3.95,1.02,4.42,3.15.38,4.29,1.76,10.22-.06,14.68-.56,1.17-4.79.39-5.28,1.56-.55,1.32-.43,4.2.37,7.05l-22.23-.11c.65-3.01.35-7.22-1.48-7.88-2.05-.75-4.82-.37-6.59-.13l.92-15.46,3.06,1.2c3.5-.54,6.99-1.7,10.47-3.47-.13-3.79,1.07-5.97,3.62-6.55-.83-4.48,9.08-4.83,10.11-.56Z"/>
  <path class="st12" d="M81.92,134.57l.19,19.32-7.23,2.04.45,7.95-24.58-.55c.17-2.66-.19-4.2-.48-5.43-.2-.88-2.03-1.61-2.96-1.29-.83.29-3.25-.13-3.24-1.27,2.46-4.87,7.38-9.67,11.46-3.09,2.83,1.15,5.13-.42,6.89-4.74,6.64-1.69,8.99-6.67,7.03-14.95-3.96.81-6.36-.17-7.19-2.95-.84,4.3-8.81,3.19-8.94-1.13-.31-1.99-1.85-6.72,1.31-7.7,5.48-1.7,12.34-.68,17.84-.24l-.49,7.08c-.09,1.33,3.61,1.61,4.36,3,1.6,2.98,2.84,4.31,5.6,3.94Z"/>
  <path class="st3" d="M110.32,76.03c.01,1.04-.25,2.61.25,3.66,1.11,2.3,7.81-.62,9.15,2.88l-9.56-1.21c.52,3.6.48,7.25-1.23,8.6l-3-.86c.55-4.38-3.38-5.43-11.78-3.14,2.67,7.99,1.7,13.26-2.9,15.8-2.91.11-4.05-2.6-3.42-8.11-7.27-.15-11.28-8.96-5.8-13.01l9.14-.07c3.31-.03,9.29,1.08,13-.65,1.77-.82,2.85-5.67,6.16-3.91Z"/>
  <path class="st4" d="M128.04,56.73l.11-4.41c2.46-1.23,6.64-1.05,8.32.54,1.79,1.69,1.6,7.86-.46,8.47-2.29.68-4.93.27-5.73,1.21-.6.71.38,3.19-1.89,4.82-1.89-2.95-.43-7.25-.35-10.64Z"/>
  <path class="st24" d="M62.34,80.54c-6.34-.41-11.66,4.38-23.45,2.55l-2.9-3.58c-2.05,1-5.28,1.55-7.32.1l.75-27.38,7.59-.56c1.59.06,1.48-.78.19-2.24-.46-.85.2-1.73,1.41-1.71l21.7.49c1.59,2.25,4.14,4.96,8.47,3.77l.38,18.4c-2.29.91-4.08,1.14-6.94,1.4-.97,3.32.03,5.99.12,8.75Z"/>
  <path class="st0" d="M82.02,80.66l1.36,9.02,7.28,1.13.58,10.97c4.5-.35,3.86,8.12-.43,8.63-4.4.05-8.51-1.05-10.29,4.74l-14.79-1.84c-3.01-.37-5.08-4.01-9.7-3.29l.38-24.63c2.67-.65,4.35-.45,6.07-.23,2.01,2.03,4.03,2.95,6.06,2.78-.5-2.89-.01-5.24,1.47-7.06l12-.22Z"/>
  <path class="st6" d="M28.3,97.02c3.98,3.16,4.5,2.89,8.3-.22,6.46-8.47,12.25-.81,9.88,8.58l.76,5.18c1.23.26,4.78-.35,5.54,1.27.57,1.21.47,4.32-.64,6.18-1.62,2.72-5.6,1.77-7.94,1.49-2.8-.33-6.61-1.01-9.59.67-2.14,1.22-2.58,5.21-2.58,7.18-4.87-1.03-2.25-5.78-3.04-7.14-1.69-3.04-7.39-1.64-9.62-1.71l-.14-21.51,9.07.02Z"/>
  <path class="st28" d="M53.31,128.5l2.01.52c.04,4.25,2.35,4.45,6.94.61l9.88-.05c.75,4.82.76,10.22-.44,15.18-.87,3.57-5.94,3.36-7.25,4.91-2.45,2.86-2.19,5.63-5.75,5.88-4.05.29-6.14-.72-7.51-5.11-1.83,4.02-4.09,5.14-7.11,4.91l.27-26.87h8.97Z"/>
  <path class="st8" d="M47.23,110.56c-2.43-2.71-1.25-9.24-.62-13.05-4.15-1.92-7.41-.24-10.02-.71-2.39,3.45-6.02,3.96-8.3.22l.35-7.5,18.35.13.23,20.91Z"/>
  <path class="st21" d="M99.98,110.3l-.43,9.24c-8.44.26-12.66,5.55-16.71-.42,2.38.18,5.9.25,7.1-1.14,1.45-1.68.94-5.66.87-7.58,0-4.49,8.35-4.35,9.17-.1Z"/>
  <path class="st22" d="M70.02,80.87c1.75,2.09,2.49,8.01.15,9.45-1.64,1.01-5.24.6-6.46.14-1.42-.53-1.18-3.67-1.23-5.32l-.14-4.6,7.68.33Z"/>
  <path class="st16" d="M37.01,51.68c-.04-.92.02-2.02.19-2.24l14.92.38c-3.06,2.23-5.8,1.49-9.16,1.05,2.26,3.2,2.8,6.21,1.62,10.63l-7.14-.2-.42-9.61Z"/>
  <path class="st3" d="M90.85,77.54c-3.82-.3-7.37.64-12.37,2.06-1.37-2.76-.77-5.34-.79-7.75,1.5-.34,3-.5,4.69-.27,1.28.17,2.04,2.8,2.89,3.64,2.14,1,4.43.66,5.57,2.31Z"/>
  <path class="st2" d="M108.93,89.96c-1.21.09-4.34-.75-5.09.1-1.16,1.31-1.43,9.1-.8,10.49.54,1.19,4.4.45,5.74.68,2.12,1.43,1.42,6.16,1.3,8.5l-10.11.56-9.17.1.43-8.63c.11-3.17,1.86-6.29.86-10.47-.72-3-1.34-5.67-.78-9.55,5.81.66,11.16.95,17.55-.21l.05,8.42Z"/>
  <polygon class="st7" points="117.18 119.41 109.6 119.72 110.09 109.74 118.59 110.33 117.18 119.41"/>
  <path class="st19" d="M111.04,90.33c.86-1.59,5.37-1.23,6.44-.09.99,1.06,1.58,3.54.81,5.29-.68,1.55-4.3,1.14-5.76,1.09-2.04-.08-3.47-2.61-1.49-6.28Z"/>
  <path class="st1" d="M84.6,61.25c-1.64-2.48-1.03-5.72-.37-7.57.62-1.74,5.82-2.12,6.44-.37.97,2.75.53,5.82-.49,7.71-.72,1.34-4.61,1.7-5.58.23Z"/>
  <path class="st11" d="M36.59,96.8c.32,1.24.39,5.02-1.48,5.2-2.41.22-4.69.42-5.33,1.89-.6,1.37-.39,3.25-.44,5.33-.03,1.11-3.82,1.49-4.23.25,2.34-4.73,3-8.41,3.19-12.45,2.78-.23,5.22-.77,8.3-.22Z"/>
  <path class="st25" d="M62.25,129.63c.19,1.22.03,5.03-1.75,5.28-2.29.32-4.27.04-5.86,1-1.37.83-1.6,3.58-2.28,4.47-8.27.17,1.65-7.35.95-11.88l8.94,1.13Z"/>
</svg>