<?xml version="1.0" encoding="UTF-8"?>
<svg id="_레이어_1" data-name="레이어_1" xmlns="http://www.w3.org/2000/svg" version="1.1" viewBox="0 0 177.48 177.48">
  <!-- Generator: Adobe Illustrator 30.3.0, SVG Export Plug-In . SVG Version: 2.1.3 Build 182)  -->
  <defs>
    <style>
      .st0 {
        fill: #406dd9;
      }

      .st1 {
        fill: #eff3fa;
      }

      .st2 {
        fill: #628dea;
      }

      .st3 {
        fill: #5684e8;
      }

      .st4 {
        fill: #6792ec;
      }

      .st5 {
        fill: #dde4f1;
      }

      .st6 {
        fill: #1c3686;
      }

      .st7 {
        fill: #1c3585;
      }

      .st8 {
        fill: #3a68d7;
      }

      .st9 {
        fill: #182f7c;
      }

      .st10 {
        fill: #bed4f9;
      }

      .st11 {
        fill: #87adf4;
      }

      .st12 {
        fill: #193185;
      }
    </style>
  </defs>
  <path class="st7" d="M62.92,163.58c-3.31,1.53-3.97.37-1.2-2.1-3.26-1.36-3.83-4.57-1.71-9.65,9.88-12.32,2.51-21.22-12.67-19.55l-1.54-2.84c-7.42.13-14.62-.39-21.59-1.54l.31-10.21,32.98.1c2.21-5.68,1.88-12.69.84-18.82l-.07-74.71c12.14-1.05,24.46-1.42,36.94-1.12,4.87-4.05,6.13,8.55,4.22,11.16-3.53,4.83-19.92,5.97-22.61.18.55,5.11-7.48,4.67-8.31-.07-1.33,3.72-2.32,10.87,1.85,12.09l.84,18.58c1.09.2,2.6-.9,4.55-3.29l.78-1.99c6.48-.55,12.99-.25,19.53.9,5.15-2.8,11.44-3.68,18.86-2.64,7.52-10.41,22.99-7.89,35.11-5.66-.26-4.13,1.01-6.59,3.8-7.39-3.12.12-3.33-1.13-.28-2.16,1-9.6,1.2-19.36.61-29.28-.61,6.38-10.22,4.87-10.73-.9l.05-8.78,20.26.24.5,127.08c.03,7.52-3.15,13.69-10.36,16-1.41,1.98-1.02,6.35-.69,9.4l-38.78.17-.85-9.52-11.06-.78-.11-32.22,11.28-.84.76-11.09,30.19-.22-.4-37.86-23.52.25c-1.94.02-2.56,5.91-2,8.46l-43.1-.27-.45,89.54c-4.75-.19-9.13-1.16-12.25,1.34Z"/>
  <path class="st4" d="M143.44,12.67c2.6,0,6.68,2.78,10.73.9.51,9.85.31,19.62-.61,29.28l.28,2.16-1.89,3.44-27.49.58c-.66,2.98-2.93,5.68-6.81,8.11-8.26-1.14-15.17.04-20.74,3.55-9.07-2.19-16.12-1.82-21.16,1.11.34,1.55.55,4.61-.37,5.77-1.04,1.31-4.68,1.45-6.02.84-1.23-.57-1.7-3.16-1.77-5.02l-.96-25.62c-.07-1.8.88-3.23,1.88-3.35,2.85-.01,4.17,2.85,3.95,8.59.54-4.35,1.99-7.19,4.36-8.52h19.06c1.03-3.59,1.1-6.66.21-10.2l-37.82-.02c0-.62.29-1.67,1.7-1.69l36.45-.58c-1.44-2.94-.67-9.21,1.22-9.22l45.78-.11Z"/>
  <path class="st2" d="M24.22,127.9l31.77,1.34c2.64.11,7.67,2.87,10.06,4.09,2.3,4.49,1.24,11.36.9,16.34-1.55,1.02-3.78,2.39-3.99,3.87l-1.24,7.94c-.15,1.32-.53,3.3-1.47,3.41-3.33.4-32.08,1.14-33.56.36-1.31-.7-2.01-2.01-2.46-3.37-5.14.03-5.04-10.81-.14-11.74.03-2.87,1.99-4.2,5.9-4.01-.23-3.76.55-7.12,2.34-10.06,20.96-1.81,3.94-3.38-6.07-3.05l-2.3-3.45c-.54,5.1-10.82,4.95-11.89,0,3.44-2.82,8.12-1.84,12.15-1.67Z"/>
  <path class="st6" d="M61.72,161.47c-.01,1.38.73,1.81,1.2,2.1l.18,10.4-38.66-.17-.22-11.93,37.5-.4Z"/>
  <path class="st9" d="M23.95,129.57c5.42,1.4,5.29,18.63.13,20.57l.14,11.74-12.03-.23-.13-32.08h11.89Z"/>
  <path class="st0" d="M57.51,117.79l.84-18.82c2.91,5.36,1.87,11.81.72,18.52,3.85-.64,7.8.4,8.1,2.53.26,1.92-.06,5.14-.51,6.79-.4,1.47-4.89,2.06-7.09,1.09-.95-2.38-2.18-7.46-2.06-10.11Z"/>
  <path class="st3" d="M112.75,127.07c1.3-3.07,2.58-2.43,2.03.97,1.41.36,2.92,1.08,3.11,2.4.88,6.17,1.25,5.05,1.3-.4,2.51-3.65,3.76-5.48,3.76-5.48,3.7-.86,7.29-2.59,10.77-5.17,9.31-.53,8.53-3.55.09-1.69l-2.57-3.12c-3.25.7-3.4-.68-.25-2.12l17.76-.5c-.93-3.31-.88-6.81-.69-8.47.16-1.46,5.26-1.12,6.05.28l.25,27.4-1.86,12.61c-12.26,4.18-24.79,4.39-38.18,2.63-1.72-6.66-1.7-12.69-1.56-19.35Z"/>
  <path class="st8" d="M153.84,45.02l.06,17.48-1.59,1.3-1.42-7.6c-11.8-3.87-30.6-1.71-31.09-.54l-2.39,5.78-41.65.36c-2.35-10.58,17.95-1.25,20.62-2.03,1.32-.38,1.81-4.04,2.1-5.91l21.48-.12c.87-2.24.86-4.51.88-8.02l33-.7Z"/>
  <path class="st5" d="M130.99,112.45l.25,2.12c4.43,4.72-1.25,6.64-6.28,7.18-.2,5.61-7.26,14.57-10.18,6.29l-2.03-.97.23-10.73c6.04.61,6.95-3.57,18.01-3.89Z"/>
  <path class="st1" d="M76.83,34.48c-.18,3.04.96,7.54-1.01,10.68-1.17,1.86-6.35,1.32-7.38.15l.08-10.9,8.31.07Z"/>
  <path class="st8" d="M153.56,42.85l.61-29.28,1.03,26.09c.07,1.72-.73,2.88-1.64,3.2Z"/>
  <path class="st12" d="M143.12,23.77l-46.05-.1c-.3-2.91.11-5.87.69-9.61l45.44.04c.59,3.2.74,5.42-.07,9.67Z"/>
  <path class="st10" d="M24.08,150.13l-.13-20.57,21.89.5c.06,3.19-.22,7.21-2.1,8.07-2.53,1.16-5.68.87-9.79-.01l-.82,11.35-9.06.66Z"/>
  <path class="st11" d="M114.78,128.03c1.55.22,4.18.25,5.33-.52,1.59-1.06,1.42-4.25,1.41-6.11-.01-5.17,8.26-1.14,9.72-6.83l11.9-1.41c.89,4.92.27,7.31-1.17,10.15-6.27-2.53-9.46-.21-13.13,3.35l-5.05,1.11c-1.72.38-1.14,4.37-1.34,6.79-.25,3.14-4.58,3.34-7.4,3.06-1.33-2.55-.71-6.29-.28-9.59Z"/>
</svg>