<?xml version="1.0" encoding="UTF-8"?>
<svg id="_레이어_1" data-name="레이어_1" xmlns="http://www.w3.org/2000/svg" version="1.1" viewBox="0 0 177.48 177.48">
  <!-- Generator: Adobe Illustrator 30.3.0, SVG Export Plug-In . SVG Version: 2.1.3 Build 182)  -->
  <defs>
    <style>
      .st0 {
        fill: #157007;
      }

      .st1 {
        fill: #177309;
      }

      .st2 {
        fill: #980706;
      }

      .st3 {
        fill: #930907;
      }

      .st4 {
        fill: #1e750d;
      }

      .st5 {
        fill: #a10503;
      }

      .st6 {
        fill: #146b0c;
      }

      .st7 {
        fill: #940b09;
      }

      .st8 {
        fill: #67cc29;
      }

      .st9 {
        fill: #f65449;
      }

      .st10 {
        fill: #8e0708;
      }

      .st11 {
        fill: #950906;
      }

      .st12 {
        fill: #860503;
      }

      .st13 {
        fill: #910a0b;
      }

      .st14 {
        fill: #fa5e49;
      }

      .st15 {
        fill: #900607;
      }

      .st16 {
        fill: #890f0c;
      }

      .st17 {
        fill: #960403;
      }

      .st18 {
        fill: #6acf2b;
      }

      .st19 {
        fill: #fca091;
      }

      .st20 {
        fill: #186f0b;
      }

      .st21 {
        fill: #a20503;
      }

      .st22 {
        fill: #990403;
      }

      .st23 {
        fill: #980f0d;
      }

      .st24 {
        fill: #9d0403;
      }

      .st25 {
        fill: #8f0808;
      }

      .st26 {
        fill: #940404;
      }

      .st27 {
        fill: #1b730c;
      }

      .st28 {
        fill: #f73c31;
      }

      .st29 {
        fill: #960302;
      }

      .st30 {
        fill: #f1231a;
      }

      .st31 {
        fill: #146d0a;
      }

      .st32 {
        fill: #65cc25;
      }
    </style>
  </defs>
  <path class="st30" d="M70.38,13.38c2.45-.14,3.44,1.28,2.95,4.24l16.27-.22-2.46-3.63c-.13-1.22.38-2.04,1.18-2.87.7-.73,18.88-1.56,18.82,2.38,2.54-.37,3.54,1.5,3,5.6l14.91-.11,1.99,2.82,2.84,1.55.02,14.22c2.63.34,4.45,1.42,5.44,3.22l.02,1.07c1.1.12,2.74.43,2.85,1.22.71,5.18.48,15.53.21,21.07,1.05,5.4.14,9.04-2.73,10.93,5.72,1.87-1.32,7.09-5.62,7.36l-1.35,13.53c-3.38,3.97-5.16,5.68-9.47,1.44-2.16,2.86-5.34,3.92-9.54,3.18.73,3.1.03,5.22-2.07,6.36-.1,1.11-.42,2.79-1.2,2.87-4.39.46-37.76,1.62-39.62.96-1.08-.38-1.65-1.68-2.13-2.79-.39.25-1.12-.18-1.44-.67-2.28-.05-3.52-2.32-3.72-6.81l-17.27-.66c-2.16-2.09-3.06-4.9-2.69-8.44-7.86.85-9.76-2.61-8.92-9.95-2.49.81-4.34.31-5.53-1.49l-.05-.92c-1.1-.14-2.67-.44-2.83-1.28-.43-2.27-.42-23.01.05-25.28l2.84-2.04-.15-18.37c0-.98.88-1.51,1.31-1.58l2.83,1.25-.07,15.69c2.44-.08,3.83.2,4.43,3.03,2.53.54,3.53,2.7,2.99,6.49,5.03-1.06,10.04,3.8,9.06,8.81,3.11-.06,5.17.99,6.17,3.17,2.55.16,3.62,2.42,3.23,6.8,3.8-.69,6.07.29,6.8,2.96,2.1,1.2,3.12,3.55,3.05,7.05l39.2.15c-.34-3.8.74-6.06,3.25-6.77-.29-1.8-.05-2.96,1.67-2.94,2.42.03-8.53,3.25-10.26,2.72-.47,4.27-9.15,4.19-10.11.05-3.74-.49-4.43-8.32-1.49-10.18.29-3.24,2.95-5.34,7.99-6.29l-15.24-.61c-3.92-2.39-5.58-9.41-.85-11.52-.17-2.29,1.98-3.44,6.44-3.44.67-2.91-.88-4.04-4.67-3.37l-1.71-2.86c-3.4-4.39,2.04-5.16,6.21-3.96-.37-2.97.36-5.05,2.18-6.22l2.08-2.74c2.37,1.6,8.39-1.51,5.52-2.65-1-.4-20.51-.62-21.48-.18.16,3.25-.96,5.12-3.35,5.61.17,2.45-1.41,3.51-4.73,3.18.87,7.69-9.46,13.34-13.61,6.99-2.65.76-2.85-.31-.3-1.59-2.44.43-3.48-1.35-3.13-5.35-2.68.09-4.49.14-5.04-3.04-.44,1.19-.8,1.06-1.09-.26-5.62-2.48-.98-8.66,2.41-11.37l15.46.03c-.39-3.3.67-5.19,3.18-5.66l-.14-6.66c3.31-2.8,4.3.43,4.22,4.04,1.37-.17,2.36.74,2.97,2.75Z"/>
  <path class="st4" d="M93.1,116.83c1.1.1,2.76.36,2.88,1.13,1.32,8.32,2.65,25.6-4.44,30.96l1.65,10.74c3.31.5,5.15,1.84,5.54,4.02.51,3.05.81,6.19-.07,10.08l-19.29.03.29-9.53c1.96.1,5.29-.19,5.89-1.53.75-1.68.98-6.17-.38-7.54-1.24-1.25-4.92-1.16-8-.63-1.33,2.29-.32,5.26-.44,8.9l-33.51.33-1.21-9.98c-4.5-1.12-4.41-15.48-.06-17.13,1.86-1.3,3.39-1.01,4.04,1.11l.03,13.82c.89.58,20.39.62,21.29.06.65-.4,7.64-10.99,6.52-13.45,2.42-3.09,8.43-2.45,12.35-1.82-.62,2.62-1.08,5.58.82,7.72l.32-27.31c.3-4.2,4.81-3.91,5.79.03Z"/>
  <path class="st8" d="M152.36,115.87c2.59-.01,5.61-1.24,7.89.95-.02,2.15-1.66,3.14-4.9,2.97,1.01,6.32-1.38,10.7-8.14,9.87-.2,3.62-1.29,5.98-3.26,7.08.31,2.98.8,6.41-1.28,8.91-2.89-.41-3.77-2.41-2.62-6.01l-23.82-.15-2.03-2.85c-5.5-3.76-5.33-13.3,2.67-12.92.08-2.73.72-5.12,1.93-7.17-.38-1.38.01-1.53,1.13-.53.29-1.1.73-2.72,1.61-2.84,4.9-.67,14.62-.34,19.87-.09,5.53-1.05,9.18-.12,10.96,2.79Z"/>
  <path class="st18" d="M76.18,135.83c3.26-.03,7.28-1.67,10.01.55l-9.83.38c2.27,7.94-4.91,9.87-7.04,17.73l-26.23-.07.12-16.26c0-.94-.39-1.67-1.26-1.49-.02,4.27-7.99,4.12-8.78.08,3.21-1.96,7.08-2.6,10.35-2.06.59-2.72,3.41-3.21,8.46-1.48l22.15-.19,2.04,2.82Z"/>
  <path class="st0" d="M118.8,116.55c1.73,2.72,1.69,6.31,1.06,9.83l-7.14.46c.92,3.86,1.69,6.74,1.48,9.81l-5.59.43-.72,26c-3.31,1.1-6.29.89-9.16.59-2.88-2.06-3.2-6-.97-11.81.62-11.02.47-21.98-.43-32.87l2.66-2.14c.78-3.95,4.48-3.9,7.2-1.23,3.32-1.72,6.68-2.39,10.09-2.01l1.52,2.94Z"/>
  <path class="st7" d="M63.26,107.11l-23.75-.06.36-9.17-11.19.02-.48-6.41c-2.94-4.07-3.73-7.52-3.07-11.74,1.44-.99,7.41-2.42,8.16.08.85,2.84-1.05,6.4,1.42,8.91,2.08-.7,6.26-.77,7.13.68,1.06,1.75.86,4.8.35,7.85l20.75.22.32,9.61Z"/>
  <path class="st2" d="M144.54,73.21c0,1.68.64,5.49-1.09,5.65l-7.06.67c-1.62,4.57-.57,12-.86,17.26-3.36,1.22-5.92.85-9.33.92l.36,9.05c.2,4.16-4.87,4.93-6.49,1.21-.88,4.25-10.67,3.31-11.31-.94-.47,1.04-.83.89-1.09-.3-.49-2.34-1.9-7.79.8-9.35,1.89-.18,5.8.88,7.4-.45.94-.79,1.52-2.17,2.57-4.54,2.63,2.25,3.64,4.55,7.3,5.03l1.87-18.77c2.96.65,5.19.53,6.8,0,1.19-.39,1.28-2.62,1.31-3.78.72-4.85,6.56-5.81,8.83-1.66Z"/>
  <path class="st13" d="M107.15,13.28l-20,.49c-1.17,4.48-15.41,3.96-16.77-.38-1.47-.03-4.95.69-5.6-1.68-.45-1.63.21-4.39-1.59-5.11-.01-.54-.12-2.26.44-2.73l43.32-.16.2,9.58Z"/>
  <path class="st3" d="M107.66,106.74c.34,0,.8.22,1.09.3,2.92,2.3,1.85,7.27-1.57,8.58-2.24,1.09-4.73,1.24-7.2,1.23-.2,4.24-6.08,3.87-6.88-.03l-5.79-.03-22.5-.18-.11-8.83,42.96-1.04Z"/>
  <path class="st27" d="M126.56,106.76l25.63.5.17,8.61-32.44.15c-4.25.49-3.91-7.48.14-8.05l6.49-1.21Z"/>
  <polygon class="st20" points="76.18 135.83 51.74 136.02 43.52 134.68 43.49 126.82 76 126.78 76.18 135.83"/>
  <path class="st26" d="M144.54,73.21c-2.95.3-6.31.39-8.83,1.66l-.34-33.23,9.04.2.12,31.36Z"/>
  <path class="st23" d="M63.34,13.25l-.38,8.51-19.49-.04-1.19,8.54c-.06,4.27-8.06,4.08-8.84.04,0-2.93-.37-5.75.57-9.2,3.35.11,5.95.4,9.1-.49l.5-7.27,19.73-.07Z"/>
  <path class="st10" d="M25.13,50.24l-.05,28.59c-2.7.26-5.36.69-8.74.04v-28.57s8.79-.06,8.79-.06Z"/>
  <path class="st31" d="M142.66,145.66l-28.4-.33c-.95-3.43-.24-6.06-.06-8.68l29.54.17c-1.13,3.28-1.44,5.87-1.08,8.84Z"/>
  <path class="st6" d="M160.25,116.82c.9,2.88,1.63,8.74-.52,11.49l-5.88.67c-1.34.15-1.81,3.96-1.01,6.87-3.07,1.64-6.05.9-8.89.9-.32-3.12-.74-6.09.06-9.99l8.58.19-.11-10.58,7.78.45Z"/>
  <path class="st25" d="M127.13,20.74c1.27.02,1.19.31-.08.84l-19.72.15-.18-8.46h19.87c1.12,2.96.34,5.24.12,7.47Z"/>
  <path class="st16" d="M135.36,40.58c-2.52.26-5.07.53-8.27-.43l-.03-18.55.08-.84,8.28,1.09-.06,18.74Z"/>
  <path class="st1" d="M41.95,136.66l.06,17.13c-2.72.61-5.35,1.05-8.7,0l-.15-17.04,8.78-.08Z"/>
  <path class="st15" d="M33.44,30.29c1.1.14,2.7.43,2.84,1.24.72,4.27,1.3,17.06-2.79,18.73l-7.28-.19.09-19.77h7.14Z"/>
  <path class="st28" d="M42.28,30.25l1.09.26c2.46.12,3.58,2.41,3.36,6.85,2.15-.63,3.41-.68,4.8,1.53l.3,1.59c2.6-.39,3.63,1.55,3.09,5.82,7.11.58,10.35,3.8,9.7,9.66,6.99.66,8.61,3.38,8.56,10.13l11.81-.3,2.04,2.77c1.6,3.38,1.56,6.83,1.49,10.18-.15,1.1-.48,2.74-1.26,2.82-2.17.25-22.63.46-23.58-.24-1-.74-1.69-1.61-1.96-2.86-2.6-.23-3.8-2.35-3.6-6.35-3.77.42-5.91-.72-6.42-3.4-2.32-.26-3.24-2.47-2.76-6.64-5.68.64-8.73-3.75-9.51-8.93-3.39.45-5.37-.51-5.95-2.89l-.05-19.97,8.84-.04Z"/>
  <path class="st5" d="M70.18,30.32l2.86,1.16.36,15.55c3.18-.37,5.03.67,5.55,3.12l.42,8.74,17.68.62c1.98.07,1.15,6.71-1,6.46-4.39-.51-6.45,2.51-9.01,2.6l-15.74.54c-1.4-2.67-1.21-5.54-1.27-8.85-2.7-1.26-5-1.11-8.03-1.51l-.66-8.4-9.11-.57-.4-9.29c2.4-.29,5.78.18,8.61-1.4,2.34-1.31,2.5-5.56,1.81-8.33l7.92-.45Z"/>
  <path class="st29" d="M88.54,78.75l10.11-.05c2.64-.39,5.24-.88,7.79-1.46l.8,1.68-.26,9.62-45.19-.17c-1.11-3.55.11-6.74-.04-9.88l26.8.27Z"/>
  <path class="st21" d="M107.23,78.91l-8.59-.21c.92-2.71,5.26-.76,6.7-1.62,2.27-1.48,1.38-5.58.92-7.45l8.2-.94c-1.13-4.66,1.86-7.81,1.96-11.65l.37-15.21c3.91-.93,6.63-.8,9.79-.18.5,9.46.45,17.77-1.05,26.97l-8.99.95-.84,8.85-8.46.48Z"/>
  <path class="st17" d="M98.17,58.36c-2.77-8.27,3.43-9.03,3.67-13.08.28-4.84-6.08-4.67-4.14-14.67,3.2-.5,5.76-.3,9.37.22-.04,17.99,3.16,31.58-8.9,27.53Z"/>
  <path class="st22" d="M87.42,30.28c-1.2,4.52-15.62,4.36-17.24.04l.42-8.45,26.44.07c1.08,1.91,1.43,6.76-.09,7.59-3.02,1.66-6.93.74-9.54.75Z"/>
  <path class="st24" d="M51.71,68.72c-2.9-.14-6.02.55-9.43-.59.5-2.45.94-5.98-.04-7.36-1.18-1.67-5.01-1.68-7.9-.44-1.11-3.62-.8-6.87-.85-10.07,2.35.06,6.52-.75,8.81,1.19l1.05,6.48c.3,1.84,5.17.95,6.6,1.55,3.24,1.34,1.7,6.85,1.76,9.24Z"/>
  <path class="st9" d="M87.15,13.76c2.36.05,5.43,2.01,8.77.51.92-.41,2.34,1.66,1.82,2.64l-1.71,3.23-25.46.35-.19-7.11,16.77.38Z"/>
  <polygon class="st12" points="61.74 78.48 51.95 78.3 51.71 68.72 60.89 69.51 61.74 78.48"/>
  <path class="st19" d="M51.54,38.9c-2.3,1.15-4.89,1.52-7.9,1.36l-.27-9.75,7.95.32.21,8.07Z"/>
  <path class="st32" d="M99.99,116.85l1.02,11.48-.42,23.71c-.07,4.07-2.43,7.76-1.86,11.62l-7.92-.83-2.5-16.26c4.53-1.21,5.71-4.09,5.56-8.36l-.77-21.39,6.88.03Z"/>
  <path class="st14" d="M87.42,30.28c.81,2.3,2.04,7.85-1.55,9.12-1.81-.05-6.36-1.84-6.84,1.07,4.3-.51,4.03,8.94-.07,9.68l-8.32-.22-.45-19.6,17.24-.04Z"/>
  <polygon class="st11" points="78.95 50.15 79.02 40.47 88.12 40.61 88.3 50.06 78.95 50.15"/>
</svg>