<?xml version="1.0" encoding="UTF-8"?>
<svg id="_레이어_1" data-name="레이어_1" xmlns="http://www.w3.org/2000/svg" version="1.1" viewBox="0 0 177.48 177.48">
  <!-- Generator: Adobe Illustrator 30.3.0, SVG Export Plug-In . SVG Version: 2.1.3 Build 182)  -->
  <defs>
    <style>
      .st0 {
        fill: #9c500e;
      }

      .st1 {
        fill: #fae26b;
      }

      .st2 {
        fill: #fbf6c8;
      }

      .st3 {
        fill: #8d4008;
      }

      .st4 {
        fill: #fbcf2e;
      }

      .st5 {
        fill: #a35809;
      }

      .st6 {
        fill: #d08502;
      }

      .st7 {
        fill: #af6206;
      }

      .st8 {
        fill: #9a4f07;
      }

      .st9 {
        fill: #f9f1d2;
      }

      .st10 {
        fill: #5d2301;
      }

      .st11 {
        fill: #fcd334;
      }

      .st12 {
        fill: #612601;
      }

      .st13 {
        fill: #106a06;
      }

      .st14 {
        fill: #f9f6db;
      }

      .st15 {
        fill: #fbf7e5;
      }

      .st16 {
        fill: #8b420a;
      }

      .st17 {
        fill: #91c729;
      }

      .st18 {
        fill: #fccf2a;
      }

      .st19 {
        fill: #8b3f03;
      }

      .st20 {
        fill: #fccf28;
      }

      .st21 {
        fill: #0b6104;
      }

      .st22 {
        fill: #592301;
      }

      .st23 {
        fill: #ab6329;
      }

      .st24 {
        fill: #0f6204;
      }

      .st25 {
        fill: #984a06;
      }

      .st26 {
        fill: #fbd12e;
      }

      .st27 {
        fill: #fcd331;
      }

      .st28 {
        fill: #904104;
      }

      .st29 {
        fill: #faed9b;
      }

      .st30 {
        fill: #b46505;
      }

      .st31 {
        fill: #fbe36f;
      }

      .st32 {
        fill: #9d5104;
      }

      .st33 {
        fill: #87420e;
      }

      .st34 {
        fill: #602701;
      }

      .st35 {
        fill: #f9c41e;
      }

      .st36 {
        fill: #8ec726;
      }

      .st37 {
        fill: #934609;
      }

      .st38 {
        fill: #fac621;
      }

      .st39 {
        fill: #fcf9e6;
      }

      .st40 {
        fill: #d38802;
      }

      .st41 {
        fill: #fbd12c;
      }

      .st42 {
        fill: #9b4a06;
      }

      .st43 {
        fill: #61a50f;
      }

      .st44 {
        fill: #5c9f13;
      }

      .st45 {
        fill: #c87901;
      }

      .st46 {
        fill: #95501d;
      }

      .st47 {
        fill: #974b08;
      }

      .st48 {
        fill: #f9ef9f;
      }

      .st49 {
        fill: #da9006;
      }

      .st50 {
        fill: #145508;
      }

      .st51 {
        fill: #fbd030;
      }

      .st52 {
        fill: #552302;
      }

      .st53 {
        fill: #954c0a;
      }

      .st54 {
        fill: #d28804;
      }

      .st55 {
        fill: #fbce28;
      }

      .st56 {
        fill: #c97d09;
      }

      .st57 {
        fill: #fbcd2a;
      }

      .st58 {
        fill: #8ac123;
      }
    </style>
  </defs>
  <path class="st24" d="M85.44,134.82l2,.88c0,9.15.04,18.3.12,27.45.87.25,1.43.1,1.67-.45l.18-26.41,2.01-1.42c0-3.62,4.25-4.02,5.21-.55,1.81.2,2.51,1.48,2.09,3.86,1.75.29,2.82,1.12,3.21,2.49,4.54,1.47,2.12,8.61-3.09,8.09-.3,2.17,2.2,2.89,7.51,2.15l1.33,2.01.87-2,15.84.02c.41-4.68,3.78-6.83,10.13-6.44-1.11-5.62,5.83-7.81,8.27-3.7.18-.89.38-.9.6-.01l-1.62,6.6c-1.76-.24-4.51-.29-4.63.51l-.69,4.74c-2.38,1.14-6.1.43-8.77.39l-.3,5.83-30.55.03-.13,12.2-16.01-.08-.15-12.14h-32.09c-1.31-3.5-1.08-6.04.7-7.62l19.02-.3,1.46,1.98,1-2.04c4.22.47,13.17-1.25,4.93-2.33-2.27-2.19-3.23-6.26-.03-7.66.04-.89.32-.91.82-.12.01-1.68.54-2.3,2.09-2.08-.17-2.22.61-3.48,2.32-3.76.65-4.01,4.78-4.11,4.69-.08Z"/>
  <path class="st51" d="M81.54,14.13c.01-.77.22-1.52.87-2,.61-.45,14.26-.84,14.15,2,3.02-.25,2.92,5.4.09,5.98,2.1.24,2.12,1.42,1.84,3.22,3.71.22,2.54,6.68,1.92,9.81-1.77,2.12-2.25,5.32-1.46,9.58l-1.98,1.39c-.1.77-.29,1.88-.87,2-2.02.4-6.9.13-9.22,0-3.28.65-5.35-.01-6.21-2-3.25-.57-4.02-10.69-1.09-12.09.82-1.9,1.32-4.03,1.5-6.38,2.83-1.06,2.94-2.88.34-5.46-1.64.38-2.39-.66-2.26-3.13-1.59.25-2.36-.31-2.8-2.02,1.38-1.6,3.43-.92,5.19-.91Z"/>
  <path class="st17" d="M69.63,152.91l-21.33.33.15,5.62c-.76,0-.98-1.11-.85-1.91.34-2.24-.88-3.12-2.11-3.88l.23-3.75c-3.41.44-4.95-.25-4.61-2.09-1.93-.39-2.68-1.82-2.24-4.3-4.32.32-8.74-6.14-3.45-8.03.63-.45,1.35-.49,2.1-.53,7.93-.36,19.9-.82,27.6-.28.38.03,1.23,1.73,1.55,2.69,1.47,4.35-2.12,6.14-6.03,5.88l.03,1.93c6.06-.4,14.94,1.71,8.95,8.29Z"/>
  <path class="st55" d="M65.58,20.24l2.04.7c-.66,2.42,1.38,3.84,6.11,4.24,1.97,5.84,3.31,11.8,4.04,17.87l-2.13,1c-3.42,3.41-10.02,8.7-13.39,2.27-2.99.12-5.06-3.32-5.49-6.24-4.09.46-3.09-4.59-2.31-7.42l.83-2.06c3.13.58,2.76-9-.78-8.6-.27.88-.59.87-.98.01-2.24,1.67-4.04,1.05-4.11-1.87,1.56.25,3.11-.5,4.26-1.11,1.13-1.33,2.9-1.57,5.3-.74,3.44-.56,5.64.08,6.6,1.93Z"/>
  <path class="st11" d="M47.5,58.77c-1.82,3-8.6.14-8.78-3.06-4.37.02-8.34-4.59-3.25-6.7.19-2.51.8-2.75,3.04-3.35-1.96-.05-3.03-.89-3.22-2.52-2.75-.64-3.07-2.97-.64-4.38.12-.24.56-.7.64-.53l14.13.55c1.59.21,2.54,1.22,2.85,3.03,8.33-.58,11.82,6.72,5.25,12.52,4.6.69,4.97,4.46,1.1,6.94-1.19.76-5.5.55-5.09-1.5-2.22.3-4.23-.03-6.04-.99Z"/>
  <path class="st47" d="M29.35,68c3-.01,2.91,5.51.06,6.03,1.22,1.82,2.72,2.56,4.5,2.23,1.9,1.87,4.17,3.01,6.8,3.43l.67,2.26c5.69-.27,8.56,1.17,8.6,4.34l-2.43.7c.18,1.77-1.24,2.72-4.27,2.86.22,3.28-1.76,5.04-5.95,5.28l.06,3.85c-1.28.94-1.92,2.59-1.93,4.96.85.36.81.7-.07,1.03l-5.99-.17.11-12.5c1.43.35,4.21.42,4.83-.36,1.15-2.9.69-5.93.21-8.85l-5.26,1.13c.39-2.08-.17-4.36-1.23-4.61-1.12-.26-2.84-.16-4.64.12v-11.62s5.91-.12,5.91-.12Z"/>
  <path class="st21" d="M124.24,128.54l23.17.23-.19,12.07c-.49.85-3.24.54-3.83-.06-.15-.04-.43.01-.6.01-1.89.12-2.79-1.37-2.7-4.47l-24.81.17c-3.3,1.33-5.59,1.1-6.88-.69-.8,1.88-.99,4.14-.02,5.96-6.16,3.89-7.27-2.06-5.88-7.03l.09-1.41c2.1-.82,4.6-1.34,7.48-1.55.33-1.73,1.13-2.77,2.4-3.11.7-3.18,10.72-3.17,11.77-.14Z"/>
  <path class="st13" d="M53.53,128.49c.72-3.13,10.04-2.78,10.89.25.38,1.98.97,3.85,1.76,5.62-10.32-.23-20.58-.05-30.76.55-.16,1.53-.71,4.15.3,5.76l4.29.36c1.42.12.8,3.4.89,4.69.21,2.69,4.29,1.09,5.56,1.51,2.07.69,1.46,5.93-.98,5.85-1.12.08-3.62.61-4.44-.11-.96-.84-.82-3.52-.09-5.3-1.84-.72-3.43-.43-5.48,0l-.85-6.45-5.06-.38.07-12.16,23.89-.17Z"/>
  <path class="st8" d="M34.64,38.75c.42,1.43.6,2.91.64,4.38,3.12.23,2.91,4.68.18,5.86.04,1.16-.85,3.58.41,4.84l3.26-.84c1.27-.33,1.68,2.38,1.64,3.79l6.74,1.99,2.57.92c4.76-.74,6.98,3.15,1.58,3.28-3.4-.64-6.75-.62-10.06.07-.05,1.33-1.67,1.7-4.86,1.1,1.14.48.73.78-1.24.92,5.92,1.74-4.05,8.49-6.15,2.95-.02-1.86-.43-3.64.19-5.82l5.65-.19-.28-7.34-5.48-.62-.04-15.15c2.14-.58,3.84-.23,5.25-.14Z"/>
  <path class="st7" d="M76.35,15.04l4.83.03.23,5.12c.87,4.14-.39,8.19-1.84,11.84l1.09,12.09c-.11,2.98-4.5,2.7-5.01-.06.97-5.24-2.83-10.94-3.14-17.73l-6.63-.58-.29-5.52c-3,.28-2.65-5.29.22-5.63.98,1.3.7,3.28.09,5.53l10.34-.04.11-5.06Z"/>
  <path class="st3" d="M148.67,63.01l.44,4.09c.1.92,2.81,1.29,4.9.68l.02,12.35c-2.15-.66-4.26-.47-5.1.4-.55.57-.38,2.62-1.12,3-1.67-.17-4.23-.76-4.93.35-.74,1.18-.54,2.8-.45,3.94.11,1.6.58,3.01,1.41,4.23l-5.89.36c-.71-1.3-1.19-3.1-1.45-5.4.07,2.94-4.43,2.75-4.94-.06-5.36-1.81-1.86-5.63,3.09-4.62l2.76-1.25c-.24-1.72.96-2.43,3.58-2.13.44-1.85,1.37-2.94,2.77-3.27,3.93,2.07,3.77-6.42.76-5.65l-1.16-2.04c-.31-1.15-.89-4.58-.75-5.47.05-.3,5.39-.26,6.04.49Z"/>
  <path class="st56" d="M125.4,38.84c4.24,1.37,1.49,8.32-3.77,7.37-.24,4.33-2.03,6.36-5.37,6.1-.44,1.65.5,2.47,2.84,2.45,2.36,3.2,5.91,3.95,10.65,2.23.86,0,1.4,1.03,1.62,1.95l.69,1.01,9.38.02,1.4,2c1.75,0,5.63-.83,5.83,1.04l-5.12.06-.18,4.91c-2.02,1.07-3.08.11-3.2-2.9-4.2.03-8.39.09-12.59.17.53,4.35-5.77,7.17-8.07,3.67-3,.37-2.85-5.43,0-5.95-2.01-.34-3.96-.63-5.84-.88-3.19-.73-3.22-10.79-.2-11.9-4.2-1.82-1.68-9.31,3.45-8.03.07-3.51.2-5.63,4.29-5.75l.39-9.11,2.02-1.34c4.68.64,2.88,9.7,1.77,12.88Z"/>
  <path class="st5" d="M142.84,61.97l-17.1-.04c0-3.71,5.19-.73,5.62-2.99-3.99-1.96.45-4.26,3.79-4.15-.6-4.5.69-6.58,5.23-7.48-.43-3.86.25-6.63,2.05-8.31l5.79.18-.03,15.84-5.56-.1.21,7.05Z"/>
  <path class="st16" d="M142.47,104.9l-.58,5.64-12.72-.07.04,12.39-5.64-.02c-.76-.1-1.84-.27-2-.85-.55-2.06-.71-11.26,2.01-11.63-3.9-1.33-.88-9.67,2.59-5.89h14.25c1.4-1.25,2.08-1.12,2.05.42Z"/>
  <path class="st37" d="M128.74,20.97l.64,12.28,12.73.57.33,5.18-1.14,1.99c-4.83-.05-9.67-.09-14.51-.14l-1.39-2.01c-3.01.76.67-5.56-1.77-12.88-2.97.37-2.86-4.56-.06-5.11,1.65-.6,3.56-.58,5.17.12Z"/>
  <path class="st19" d="M53.54,122.9l-5.06-.3-.2-11.83-12.94-.24c-.34-2.62-.03-4.07.08-5.56,5.7-.66,11.67-.9,17.91-.72,3.08-2.1,3.61,5.13,1.02,6.27-.13,4.24-.4,8.37-.81,12.37Z"/>
  <path class="st28" d="M123.57,122.85l.67,5.69-11.77.14c-1.12,3.21-4.73,1.43-6.7-.55-.35-2.4-1.72-4.2-4.12-5.41-3.08.82-2.03-11.56-1.57-12.35,1.42-2.41,3.72-3.32,4.77-.45l1.98.84c-.13,3.18,1.03,6.16,3.48,8.95,3.91.85,7.91,1.22,11.99,1.1l1.26,2.05Z"/>
  <path class="st25" d="M53.54,22.02c.5,4.92.64,10.04.43,15.38,2.08,4.01-3.19,3.96-5.6,1.28l-13.09-.45c.08-1.63-.09-3.26.34-4.9l12.58-.26.05-11.16c0-.97.61-1.84,1.18-1.75,1.36.62,2.93.83,4.11,1.87Z"/>
  <path class="st56" d="M128.74,20.97c-1.73.12-3.49-.06-5.17-.12,0,2.94-4.48,2.63-4.91-.19-.38,1.65-1.76,2.17-4.12,1.55.65,3.04-2.72,7.51-4.33,4.05-1.7-.07-2.58-1.2-2.64-3.38-4.89.7-6.86-.28-5.93-2.95l9.94.38.4-5.81,11.68.06c-.13,2.53-.25,3.86.63,5.69,1.47-.62,4.39-.31,4.44.72Z"/>
  <path class="st42" d="M65.3,122.66l5.28-.11c-.69,1.54-1.04,3.39-1.04,5.55.35,2.9-3,3.18-4,.48-.11,1.76-.47,1.83-1.12.17l-10.89-.25v-5.6c.32-.86.65-.84,1,.03.53-3.16,9.8-3.26,10.76-.27Z"/>
  <path class="st46" d="M142.45,87.82l1.39,3.87c.35,1.07,2.89.95,4.19.74l.14,12.18-5.7.29c-2.1-.09-2.75-.82-.76-1.4l.79-2.57c-1.96-.5-2.63-2.36-2-5.6-5.78.64-8.4-5.47-3.98-8.32,1.25.01,1.1,2.41,1.05,4.06-.03,1.15,3.36,1.29,4.19.57s.79-2.65.69-3.83Z"/>
  <path class="st0" d="M96.55,14.13h-15.01s.21-5.86.21-5.86l14.66-.18c.64,2.35.12,4.19.15,6.04Z"/>
  <path class="st53" d="M65.8,14.61l-.22,5.63c-3.86.17-8.53.5-11.89-1.19l.38-4.56,11.73.12Z"/>
  <path class="st32" d="M101.64,19.93c-.05.16-.31.63-.04,1.01l8.46-.08c-.36,2.45-.1,3.87.14,5.41-2.11,1.2-2.99,2.67-2.65,4.42l-2.01,1.2-.68,5.37c1.16,2.08-.08,2.32-2.02.9-3.96,2.84-5.24-4.68-1.95-7.18.67-3.14.15-5.14-1.57-5.99-.29-1.75-1.18-3.37-2.67-4.88l-.09-5.98,4.97.09c.62,2.12.51,3.9.12,5.71Z"/>
  <path class="st30" d="M107.59,98.03c.26,2.57-1.15,2.93-3.43,2.87.78,2.38,1.66,4.9,2.65,7.57l-1.95,1.45c-.59,0-2.98.27-3,1.11l-.21,11.7c4.59,1.65,2.46,8.19-2.91,8.31.12,1.8-.03,2.9-2.12,3.3-1.79-.38-3.68-.47-5.21.55.34,3-5.48,2.8-5.98-.05-1.37-1.13-3.37-1.1-4.69.08-1.67-.27-2.28-1.61-1.83-4.01-1.98-.21-3.53-.96-4.66-2.23.4-3.43-.3-4.84-2.13-4.22.7,2.65.33,5.17-2.61,3.64l-.5-4.85c-1.39-.41-2.57-.4-3.75-.59-.56-1.4.4-2.35,2.87-2.85-.56-2.64.34-5.23,3.28-5.4,1.2-4.19,1.99-8.45,2.37-12.79-2.11-.52-3.34-1.52-3.71-2.99-.82-.35-.7-.54.24-.6l.92-1.98c9.79-.02,19.55.28,29.28.91,2.31-.99,6.22-1.94,7.05,1.08Z"/>
  <path class="st36" d="M142.79,140.8l-6.18.18-.16,5.97-9.06.08c-.63,1.93-.55,3.53-.26,5.92l-19.46-.03c-3.89-2.22-2.14-6.97,2.29-8.08,14.77.4,9.92-3.05-1.38-1.86l-1.98-1.51c.92-1.55,1.52-3.44,1.79-5.66l6.71-1.29,26.72-.2.96,6.48Z"/>
  <path class="st44" d="M75.82,134.91c-.51,1.44-1.84,2.31-3.99,2.62-.31,1.42.41,1.92,2.17,1.51l1.54,1.83c.13,2.01-.25,3.96.78,6.16,1.61-.47,3.72-.27,4.15.54.46.85.42,2.96.15,4.85l-10.97.49c.09-1.73.1-3.49-.68-5.48-3.21-.68-6-.77-9.73-.48-.66-1.8-.8-3.7-.53-6.09l6.17-.54-.29-5.41h-29.15c.29-.53,1.02-1.04,2.03-1.04l27.77.02c-.54-1.96-.92-3.5-.8-5.13l1.12-.17c1.61.06,2.36,1.15,2.25,3.28,4.51-.84,7.19.18,8.03,3.04Z"/>
  <path class="st43" d="M108.4,135.81l-.39,5.17,16.54-.03c1.45,0,1.08,3.29.26,3.15-3.58-.63-4.43,1.47-6.46,2.42-2.84,1.33-6.68.03-9.75.37-1.24,2.14-.88,4.07-.92,6.03l-10.88-.07-.04-5.96c1.85-.14,3.37-.08,5.13-.71.29-2.02.37-3.88.04-5.51-3.88.04-3.59-7.37.57-5.92l.2,5.81c1.09.61,4.62.56,4.65-.53.05-1.41-.04-4,1.05-4.21Z"/>
  <path class="st58" d="M91.42,134.87l-.21,29.94c-1.79.52-3.61.53-5.69-.03l-.08-29.97,5.98.05Z"/>
  <path class="st50" d="M75.82,134.91l.53,5.84-.82.12c-1.53.23-3.98.48-5.72-.43-.11-.84.38-3.57-.37-3.82l-4.28-1.45c3.46-.83,7.04,0,10.65-.26Z"/>
  <path class="st34" d="M80.66,44.12h16.3c.46-2.81,3.15-2.47,4.49-.29.33,2.45,1.02,4.32,2.06,5.59l-1.97,1.05c-.06,2.62-8.48,2.63-9.21.21l-15.79-.16c-.5-1.14-.71-2.47-.64-3.98-2.77-.53-2.87-1.43-.24-2.48l5.01.06Z"/>
  <path class="st6" d="M102.83,38.15c2.52,1.28,1.77,4.09-.61,5.34.08.69-.19.78-.78.33-1.45.65-3.02.29-4.49.29l-.17-11.55c1.25-.2,3.36-.41,3.7-1.2.55-1.29-.04-6.02-.42-6.07-.52-.06-1.72.52-2.94,1.04-1.1-2.15-.46-4.19-.49-6.22l4.16.48c1.8,9.27-1.76,16.04,2.03,17.56Z"/>
  <path class="st9" d="M81.41,20.19l3.85.04c.05,1.95.35,4.37-.52,5.98-5.36.67-2.08,5.77-5.17,5.82l.12-10c.02-1.33,1.19-1.64,1.72-1.84Z"/>
  <path class="st2" d="M91.12,15.22c.28,2.22.35,4.16-.33,4.69-.84.64-2.99.18-3.9.11-1.26-.1-2.26-1.87-1.53-4.57,1.4-.94,4.03-.57,5.76-.22Z"/>
  <path class="st54" d="M54.46,32.66l.22,5.28c1.86.15,3.29.05,4.87.93-.7,1.89-.47,4.3.5,5.12.69.59,3.14.19,4.05.39.39,2.19.84,3.82,2.9,3.82,4.99,0,.36-4.24,8.65-4.14-.09.73.06,1.75.24,2.48,1.22,3.43-.68,4.78-5.72,4.06-.59,2.17-3.25,2.24-3.72.02-.83,1.48-1.45,3.7-1.87,6.67,2.92.42,2.77,4.14,0,4.78l-5.33.88,2.01,1.06c.07,6.83.07,13.66,0,20.5l-1.73,1.74c-.47.47-.8.36-.99-.31-1.93-.16-3.93.18-6,1.01-.79,2.81-3.53,2.41-4.96.03.64-.8.63-1.56.4-2.15-.53-1.34-2.58-1.77-6.58-2.89l1.49-1.96c5.94.7,9.15-1.36,9.62-6.19l2.05-1.11c3.45-.11,2.59-1.35-2.58-3.72-.26-3.47-3.22-4.79-8.88-3.96l-1.5-1.98c3.32-2.66,9.91.99,11.91-2.82-2.49.37-4.98.52-6.01-1.45l9.27.82c.98.08,1.86-.24,2.13-.76.24-.47.6-1.59.22-2.12-.32-.45-1.73-.35-2.54-.45l-2.46-.28c-.65-.08-1.03-1.86-.65-2.45.36-.55,1.65-.48,2.85-.97,2.84-1.18,3.03-5.43,1.88-8.16l-7.41-.73-1.64-4.51c-4.77-.64-9.4.86-13.87-.93,5.73-.56,11.2-.2,17.98.54l.27-16.75h.98c3.14.59,2.96,9.81-.05,10.65Z"/>
  <path class="st39" d="M54.46,32.66l.05-10.66c.92-.88,2.17-1.37,4.61-.99l-.11,11.36-4.55.29Z"/>
  <path class="st14" d="M35.46,49l-.18-5.86,5.18.56.07,4.09c-2.33-.03-3.71.39-5.08,1.21Z"/>
  <path class="st4" d="M41.6,63.03c3.21-.03,8.19-.27,11.26,1.46.82.46.39,3.94,1.31,4.15,1.11.25,2.72.06,4.2-.34l.11,6.57c-2.01-.53-4.67-.45-4.83.61l-.62,4.2c-2.85,2.05-8.24,2.45-11.63,2.29l-5.3-1.48c-1.28-.36-1.67-2.54-3.08-2.38-.72.08-2.46.65-3.15.37-1.08-1.07-.45-3.18-.46-4.43-.16-1.82,1.16-2.56,3.94-2.19.31-3.05,2.49-4.51,5.5-4.4-2.03.13-3.15-.67-3.35-2.39-.15-.51.17-1.97.99-1.97l5.11-.04Z"/>
  <path class="st49" d="M70.35,98.02l-.24.6c-.56,1.41-1.75,2.03-3.57,1.85-.46,3.66-1.48,5.27-5.34,5.6-.11,5.06-2.1,6.33-5.98,3.8,1.81,2.07,1.92,5.71-.76,7.05,3-.03,2.93,5.47.09,6l-.99-.03.36-18.21-18.48.28.07-1.03c.3-.88.68-.88,1.12-.03l1.1-2,13.69-.09,1.59-3.99c4.53-.58,5.85-3.95,3.95-10.11l1.59-1.76.99.31c2.05-4.6,7.83-1.47,7.31,3.88,2.87.24,4.04,2.87,3.51,7.88Z"/>
  <path class="st31" d="M47.58,86.99c1.53-.37,3.39-.11,4.96-.03,5.39-1.25,2.85,8.96-3.15,6.27-1.8,1.88-3.9,2.99-6.3,3.33l-1.01,3.68c-2.45.65-4.28,1.87-5.46,3.66l-1.12.03-.16-11.07,5.84-.25.28-5.74c2.62.81,4.24.57,6.12.11Z"/>
  <path class="st48" d="M29.41,74.03l-.06-6.03c1.83,0,3.87.55,5.92-.35.46-.57.39-2.04.22-2.6l5.76.55c0,2.02-.97,3.79-2.69,5.52-.19-1.23-2.58-2.57-2.69-1.81l-.65,4.43-5.81.29Z"/>
  <path class="st57" d="M143.38,67.99l5.04.18.03,9.73c-1.96.18-3.11-.17-4.87-.59-.2,1.61-.89,3.14-1.81,3.51-1.35.54-3.27,0-4.34.25-4.95,1.88-10.47,2.32-16.56,1.31-.65-2.67-1.11-5.49-1.38-8.47-2.99-.09-2.72-4.47.04-4.99l5.12-.96c1.08-.2,1.08-3.37.82-4.71l17.1-.19c-.35,1.69-.33,4.88.82,4.92Z"/>
  <path class="st18" d="M119.78,86.23c1.16-3.21,10.62-2.28,11.79.72l4.94.06.03,5.9c2.18.3,3.78-.04,5.95-.72v8.74s-.77,3.18-.77,3.18c-11.99-.17-17.98-.25-17.98-.25-.19-2.17-1.98-3.83-5.37-5l-1.25-3.99c-1.84.23-3.2-.3-4.08-1.6.78-1.74,1.24-3.89,1.39-6.46.04-3.31,3.94-3.52,5.34-.57Z"/>
  <path class="st45" d="M137.42,81.08c-1.02,2.87-5.08,1.1-6.17,3.02-.42.74-.4,1.88.32,2.85l-11.79-.72c-3.23-.87-3.3-11.07-.3-12.31,1.33,1.41,1.32,3.54.84,6.7,4.77-.72,9.26.47,14.06,1.19l3.03-.72Z"/>
  <path class="st33" d="M107.53,50.19l-1.52,1.98c-5.05.83-1.52,2.92,2.13,2.53,1.48,1.45,2.11,3.37,1.9,5.76,1.74-.24,2.74-.2,3.64,1.64,2.01-.23,4.38-.61,5.84.88.29,1.63-.99,2.39-3.84,2.3.83,6.73.46,11.33-5.47,15.53.24,9.05-1.67,10.31-9.92,11.5-6.67-.17-13.3-.04-19.9.39-.51,2.89-4.1,2.63-4.63-.17l-4.35.18c-.2,1.42-1.12,1.16-2.78-.79l-.4-8.3c-2.37-.48-4.15-1.54-5.34-3.18l-.33-15.54c-1.6.43-2.59-.39-3.31-1.94,1.48-1.39,3.51-.92,5.33-.88.41-2.93,4.82-2.7,5.33.11l1.33.03c1.09,6.02,2.3,5.72,3.62-.91l4.27-1.3c-.23-5.17,3.21-7.19,10.31-6.05-2.78-.96-6.26-1.27-10.44-.93-.4,1.91-1.38,2.95-2.92,3.12-1.67.13-2.42-.94-2.24-3.23l-1.21.07c-1.08,1.58-2.32,3.24-3.7,4.97-1.61.15-3.05-.07-4.33-.65l-.06-7.16,10.9-.1c.43-1.47.43-2.49.48-3.49l.86,3.49,24.58.2c.59-2.66.24-4.55.12-6.41l.78-.33c1.57-.05,2.31.34,2.18,1.82,4.65-2.75,7.97,3.39,3.12,4.88Z"/>
  <path class="st26" d="M142.43,39c.23,3.57.42,7.23-.53,10.98-1.97-.54-3.89-.15-4.45.61-.96,1.31.32,4.98-.81,6.02-.86.78-3.64-.26-4.97.96-.29.27-.24.98-.31,1.37-6.35-.05-9.75,2.98-12.54-2.13-.72-.86-4.03-.17-4.24-1.23-.26-1.27-.73-3.98.36-4.84.69-.54,2.46-.56,3.87-.46l.93-5.94,5.38-.42.28-5.1,17.04.16Z"/>
  <path class="st38" d="M123.57,20.85l.06,5.11-.23,12.21-4.68.55c.61,1.91.49,3.79-.11,4.7-.52.79-2.68,1.04-4.44.41-.73,2.25-.73,4.31-.69,6.36.37,3-5.43,2.85-5.95,0,.27-1.27.72-2.5-.33-4.38-1.36,1.17-2.61,2.2-4.52,2.49l-.46-4.82c-.16-1.68.1-3.8.61-5.34,2.83-.83.55-4.6,2.7-6.26,1.91-.42,1.12.7,1.1.61-.49-1.97,1.23-2.37,2.97-2.51,1.69-2.66,3.57-5.44,6.92-5.74,0-1.82.71-3.02,2.14-3.58l4.91.19Z"/>
  <path class="st10" d="M119.52,62.98v5.95s-.04,4.99-.04,4.99l.3,12.31c-1.63-.1-3.71-.06-5.34.57l-.5,2.19c1.77,5.81-3.37,7.71-6.32,3.65-.09.78-.34,1.95-.9,2-2.7.25-23.73.53-24.87.05-.77-.32-1.16-1.2-1.47-1.99.4-.35,1.12-.78,2.09-.78l16.03.12c3.75.03,5.82-1.11,8.06-3.5,1.91-2.03,1.59-4.45,1.57-7.35s4.34-4.4,5.11-6.18c1.41-3.88.16-8.04.47-11.93l5.8-.11Z"/>
  <path class="st22" d="M107.53,50.19h5.95s.2,11.9.2,11.9c-1.49.17-4.33.9-5.72-.37-.25-1.51.41-3.93-.67-5.52-1.57.27-3.8.3-4.83-.6-.8-.71-.68-2.88-.73-5.16,1.71-.46,3.85-.24,5.8-.25Z"/>
  <path class="st35" d="M123.58,110.37l-.02,12.48-9.88-.39c-2.19-.09-3.47-1.67-6.26-.13.75-3.81-.8-4.84-2.17-7.06-.69-1.14-.38-4.02-.39-5.36-.02-1.95-.12-4.4-2.41-6.26-.41-1.03-.34-3.32-.31-4.79,2.56.13,4.09.04,5.45-.83,0-.89.19-.84.56.04,2.77-4.03,8.23-1.47,7.62,3.59,4.13.56,5.26,2.78,4.99,6.65,1.56.02,2.5.71,2.82,2.06Z"/>
  <path class="st40" d="M142.5,100.93l-.03,3.97-18.33.24-.56,5.23c-1.29.21-3.44.31-4.35-.55-.82-.77-.17-3.58-.86-5.15-.41-.95-3.31-.57-3.96-1.3-.76-.84-.86-2.91-.6-4.59-2.1-.79-3.88-.58-5.65-.71-2.98.24-3.26-4.65-.52-5.42l6.16-.21c-.75-2.32-.59-5.15.66-5.64l.23,6.09c1.62-.17,4.23-.1,4.43.81l.93,4.44,4.5,1.29c.94.27.76,3.04,1.11,4.41l14.81.2c1.13-1.14,1.51-2.19,2.05-3.12Z"/>
  <path class="st1" d="M118.66,20.66c.17,1.55.42,4.45-1.22,5.32-1.32.7-3.58.47-4.13,1.29-.77,1.15-1,2.64-1.19,4.55-1.69.16-3.37,0-4.68.85l.54,3.73c.09.63-.75,1.7-2.45,1.29l.02-5.8.06-5.66c1.86-.27,3.25-.2,4.61.04.91.16,2.14-.11,2.18-.88l.18-3.21c.17-3.09,4.2-1.59,6.09-1.51Z"/>
  <path class="st41" d="M70.1,98.62l5.73.6c.19,5.04-1.15,11.55-2.89,16.36-.6.72-3.09.7-2.96,2.1l.38,4.12-5.06.85-10.76.27-.09-6c.14-2.03,1.03-2.22,2.7-2.39-.34-1.58-.98-3.13-1.94-4.66,1.15.46,3.03.24,3.32-.6.41-1.18.45-2.8-.05-4.67l5.71-1.23c-.19-1.94.22-4.37,1.78-4.87,1.27-.41,2.88-.03,4.14.1Z"/>
  <path class="st27" d="M79.47,116.42l.71-1.96c3.08.93,3.79-2.58.75-2.65l-.76-2.21c.09-.94-.44-3.63.74-4.62,4.83-1.17,11.25-1.33,15.71.4.02,1.51-.23,4.19.33,4.42l3.1,1.28c.91,3.02.76,7.84.04,10.78-.82.52-3.74.39-3.54,1.64.12.78.42,3.95-.35,4.23-3.69,1.24-9.57.9-13.52.4-.77-.1-3.7-6.75-3.2-11.72Z"/>
  <path class="st52" d="M75.75,92.53l4.63.17,27.25-.05.52,5.42-.56-.04-6.13.18c.09,1.23.57,2.47-.54,3.83-.12-.36-.46-3.48-1.46-3.51l-29.11-.51c0-2.13-.29-4.13-.85-6,1.86.62,3.94.79,6.25.51Z"/>
  <polygon class="st29" points="79.47 116.42 80.16 109.6 84.74 110.59 84.58 116.69 79.47 116.42"/>
  <path class="st20" d="M58.54,85.95c1.18,3.74,1.36,8.91.14,12.8-1.45.06-3.63-.08-4.39.48-.85.62-.95,2.83-.87,4.57l-16.8.11c-.4-1.31-.82-3.35.24-4.1.69-.48,3.38,0,3.8-.72.54-.91,0-4,1.39-4.33l3.56-.85,2.53-2.67c.52-.55,2.43.39,3.29.48,1.75.17,1.93-1.23,1.89-2.37-.03-.71.39-1.93-.79-2.39.47-1.49,1.71-2.39,2.72-2.9,1.98-1.01,3.49-.18,3.28,1.89Z"/>
  <path class="st12" d="M75.75,92.53l-4.93.53-.48,4.96c-1.42-.14-.4-3.15-.48-4.12-.16-1.85-3.42-2.28-5.17-1.19l-.21-6.42-4.96-.03c-.91-4.19-.06-8.54-.14-13.3l-.15-10c1.73.23,3.32,0,5.29-.8l.12,18.05,5.5,1.95.5,10.51c2.08-.9,3.5-.2,5.09-.14Z"/>
  <path class="st34" d="M76.06,56.15c-.27,1.8-1.58,2.44-3.93,1.92.08,2.31-.66,3.68-2.22,4.11l-5.33-.11v-4.78c2.5-1.15.88-4.32,1.95-6.32.72,1.23-.76,5.01,2.1,5.14,1.33.06,1.97-3.55.88-4.96l6.32-.35.25,5.35Z"/>
  <path class="st15" d="M54.44,116.93c-.02-2.31-.46-4.83.76-7.05,1.54.63,2.81,1.02,3.39,1.86.72,1.05.77,3.82-.1,4.39-1.07.71-2.96.57-4.05.8Z"/>
  <path class="st23" d="M69.9,62.18l-.13-6.16,6.28.12c.55-1.44.42-3.02.25-5.15l16.09.19c-.96,1.73-.87,3-1.06,4.75l-9.77.08-.68,6.31c-2.05-.52-4.77-.35-4.86.59l-.37,4.14c-.14,1.52-3.38,1.53-5.55.85l-.2-5.73Z"/>
</svg>