<?xml version="1.0" encoding="UTF-8"?>
<svg id="_레이어_1" data-name="레이어_1" xmlns="http://www.w3.org/2000/svg" version="1.1" viewBox="0 0 177.48 177.48">
  <!-- Generator: Adobe Illustrator 30.3.0, SVG Export Plug-In . SVG Version: 2.1.3 Build 182)  -->
  <defs>
    <style>
      .st0 {
        fill: #f28f05;
      }

      .st1 {
        fill: #e68407;
      }

      .st2 {
        fill: #fdde19;
      }

      .st3 {
        fill: #f59108;
      }

      .st4 {
        fill: #f08e0a;
      }

      .st5 {
        fill: #fdfcd9;
      }

      .st6 {
        fill: #fdfcdb;
      }

      .st7 {
        fill: #f3920a;
      }

      .st8 {
        fill: #f4960c;
      }

      .st9 {
        fill: #f18a09;
      }

      .st10 {
        fill: #fbc00f;
      }

      .st11 {
        fill: #fcc510;
      }

      .st12 {
        fill: #ed8504;
      }

      .st13 {
        fill: #fdd90f;
      }

      .st14 {
        fill: #f48f06;
      }

      .st15 {
        fill: #fbd91f;
      }

      .st16 {
        fill: #ed8f0a;
      }

      .st17 {
        fill: #fcd81c;
      }

      .st18 {
        fill: #fdf577;
      }

      .st19 {
        fill: #e17e07;
      }

      .st20 {
        fill: #f49308;
      }
    </style>
  </defs>
  <path class="st11" d="M150.43,60.54l-11.82.03.03-19.15-21.48-.51c-.8-5.12-.71-9.08-.12-13.97l21.66-.18.15-22.22,10.66.04.3,22.51,20.59.03.16,13.48-19.97.2-.17,19.73Z"/>
  <path class="st10" d="M156.28,174.59l-11.47-.11-.16-12.92-12.77-.64c-.75-3.61-.74-6.91-.14-10.66l12.49-.09.89-17.06,10.88-.09.38,17,13.2.14c.69,3.97.68,7.07.03,10.92h-13.47s.15,13.52.15,13.52Z"/>
  <path class="st15" d="M40.13,91.58l.82,1.71c-6.07,4.5-3.83,6.56,6.72,6.18,2.68.32,4.8,2.13,6.34,5.44,5.34,5.64,10.69,10.98,16.04,16.02.87,5.43,2.6,10.63,5.18,15.6l.57,6.52c3.7-.79,6.33-.07,7.89,2.14,3.78-2.04,2.96,10.5,2.49,11.13-2.79,3.56-13.21,5.43-15.93.58l-2.77-1.34-1.25-19.46c-2.52-.47-4.31-1.57-5.38-3.3-2.39.1-7.48,1.16-9.59-.96-2.36-3.2-.74-9.19-.75-12.38-2.2-.63-3.07-2.32-2.62-5.08-5.28-3.46-10.7-5.06-16.24-4.78.57,5.05-.4,8.33-2.91,9.83-2.09-3.14-1.4-7.4-.82-12.06l-6-.3c-.67-1.62.35-2.98,3.07-4.06-1.04-5.73-.15-9.57,2.69-11.53l-.14-10.78c-.01-.94.64-1.41,1.31-1.33,2.65,1.2,3.47,4.12,2.46,8.75,4.46,0,7.4,1.15,8.81,3.45Z"/>
  <path class="st4" d="M92.85,131.77c-.13,8.08-.27,16.11-.26,25.11l-7.8.39-.22,17.25-14.38.09.07-17.72,13.42-.25.03-11.46c-4.14.49-4.06-11.51-.07-12.34.24-2.49,2-3.72,5.28-3.68-1.06-5.84.33-9.14,4.15-9.9,4.16-.36,3.8,11.71-.21,12.5Z"/>
  <path class="st16" d="M70.76,41.36c2.92,2.9,3.33,14.6-.71,16.54,5.22,1.12,2.44,11.6-1.21,14.76,1.04,6.54-.32,11.74-7.84,7.75.85,3.74-9.26,1.97-9.56,1.52-1.2-1.81-.81-10.71-.23-13.46l9.65-.06.04-26.75c3.79-.22,6.84-.07,9.5-1.43,1.57-.16,1.68.22.36,1.14Z"/>
  <path class="st8" d="M101.46,68.51c.27,4.26.43,8.45.49,12.56-7.66,3.5-14.15-.1-12.83-8.81,0,0-1.29-.8-3.87-2.4-5.58-.13-5.97-9.58-1.44-11.95-4.33-.45-4.08-14.14-.1-15.39-4.06-.1-3.52-9.52.45-10.21.72,2.18,1.48,4.98.58,8.85l7.66.21.2,27.3,8.86-.16Z"/>
  <path class="st17" d="M134.76,91.38c3.36-1.32,2.86,7.81,2.31,8.66-2.3,3.55-3.78,3.53-7.73,3.42,2.69.08,4.03,1.28,4.03,3.59l-8.99.06c-.14,1.04-.44,2.57-1.19,2.67-3.01.4-18.54.47-20.02-1-.44-.44-.69-1.09-.87-1.79l1.53-3.01c6.69.39,8.48-3.66,5.3-9.19-4,.98-16.87-3.55-18.96-6.49-1.38-1.94-1.47-3.71-1.26-5.98-6.2.21-8.48-9.73-3.66-12.46,2.17-.42,3.87-.65,6.56.2.06,3.63-.38,6.55.53,9.89l8.67-.8.45-10.64c1.98,2.76,1.26,6.9-.09,11.13l22.4.25c2.21,1.4,1.87,7.29.92,10.66,3.54,1.39,6.81.86,10.07.83Z"/>
  <polygon class="st7" points="27.7 91.48 27.69 106.02 21.95 107.07 8.71 107.24 8.73 91.37 27.7 91.48"/>
  <path class="st20" d="M124.37,107.1l.15,11.98-22.17.34c-4.35.21-3.73-10.56-.05-12.44l22.08.12Z"/>
  <path class="st14" d="M50.52,119.46l-21.76-.03-.15-11.99c9.88-2.23,13.65,1.36,21.03,5.02,1.54,1.05.87,5.27.87,7.01Z"/>
  <path class="st0" d="M50,91.44c.62,4.06-9.16,4.03-9.86.13l-11.57-.08.3-12.12c.44-.19,1.12-.06,1.28.37,7.46.19,14.9.47,22.31.83,1.41,5.38.59,9-2.46,10.87Z"/>
  <path class="st20" d="M133.37,107.04c-2.38.04-4.6-1.86-8.63-.52-.72-1.79-.95-3.43-.59-5.58l10.24-.32.39-9.24,9.86-.09v15.58s-11.25.17-11.25.17Z"/>
  <path class="st9" d="M70.26,156.91l-9.33-.02-.06-24.08c2.4-.1,4.88-.46,7.87.4l1.52,23.7Z"/>
  <path class="st3" d="M84.16,32.31l-.45,10.21c-1.02,4.1-12.3,2.91-12.95-1.16.15-.54.26-.76-.36-1.14-.77-4.04-.43-8.24,0-12.98,4.47.02,8.98-.77,12.91.45,1.89.79.61,3.59.85,4.62Z"/>
  <path class="st13" d="M102.29,106.98l.05,12.44-.83.04c-.6,4-7.69,3.67-8.46-.19-2.24,3.24-1.51,7.67-1.34,12.11l-8.1,1.47c-5.98-2.93.05-13.9,4.84-16.71,1.71-4.83,9.66-13.84,13.82-9.16Z"/>
  <path class="st15" d="M61,80.41c3.32-1.04,3.94,3.8,2.8,6.09-.85,1.71-13.15,11.1-13.8,4.94l.2-10.75c-7.07-.45-14,1.17-20.05-.95l20.67-.54c-.73-3.87-1.51-7.97.39-10.73l.15,10.9,9.64,1.04Z"/>
  <path class="st19" d="M101.52,119.46c.46,3.23,1.83,8.48-.76,11.65-1.61,1.98-6.19.94-7.91.66l.21-12.5,8.46.19Z"/>
  <path class="st18" d="M83.81,57.91c.03,4.21-.93,8.44,1.44,11.95l.76,9.71c2.77-.69,5.51.5,5.59,1.9.06,1.1-.44,4.91.63,5.29,6.1,2.13,8.14,6.61,19.37,5.1.53,2.43.45,4.08,1.53,5.96,1.46-.33,2.26-.45,2.89-.36.9.13,1.83,2.51.51,2.99-1.04.38-3.54.17-4.11,1.37-.35.74-.52,3.55-1.1,4.19-2.67.03-6.84.47-9.01.98-3.48.82-11.74,6.56-11.05,10.67-5.93,2.86-7.65,8.8-7.62,15.2l.07,12.34c-3.41.24-6.7,1.18-10.98.02,1.37-6.31-.61-10.87-3.66-15.5-1.33-2.02.44-8.33-3.4-9.33-3.61-.94-3.74-3.21-5.34-5.94-1.93-3.3-9.91-7.05-10.72-12.08-3.98-.74-11,.41-14.66-2.65-.15-1.72.44-5.02-.49-6.51,1.72-.19,4.7-.14,5.69-1.63l9.86-.13c2.92-.04,4.59-.29,6.52-3.22.64-.97,4.03-.74,4.52-1.78.78-1.65.29-4.46-.03-6.04.62-1.39.82-2.53,2.13-3.72-.03,3.95,4,3.44,3.5.5-1.4-4.1-.33-7.58,3.15-9.13l.27-10.15c-.33-4.19,12.79-4.01,13.75.01Z"/>
  <path class="st12" d="M61.03,132.53c-3.21-.92-5.88-1.15-9.46-1l-.37-11.96c3.74-.69,6.29-.61,9.64.04l.19,12.92Z"/>
  <path class="st2" d="M83.71,42.52l.1,15.39h-13.75c.15-5.51-.78-11.2.71-16.55l12.95,1.16Z"/>
  <path class="st1" d="M123.62,90.88c-8.84,3.3-12.93-3.29-20.24-1.93-1.79-1.09-1.92-5.66-.79-8.55l21.15.26-.12,10.22Z"/>
  <path class="st5" d="M46.24,93.11l8.81-.65c2.84-4.77,9.79-5.33,10.5-4.9.87.53.98,2.22.61,3.08-.32.74-2.71.93-4.02.93-1.02,3.68-2.74,6.73-6.31,7.48-4.49.94-7.35-.64-9.59-5.94Z"/>
  <path class="st6" d="M69.13,85.61c-3.55-5.55-1.09-10.65-.05-16.34,2.42,5.09,3.59,10.76.05,16.34Z"/>
</svg>