<?xml version="1.0" encoding="UTF-8"?>
<svg id="_레이어_1" data-name="레이어_1" xmlns="http://www.w3.org/2000/svg" version="1.1" viewBox="0 0 177.48 177.48">
  <!-- Generator: Adobe Illustrator 30.3.0, SVG Export Plug-In . SVG Version: 2.1.3 Build 182)  -->
  <defs>
    <style>
      .st0 {
        fill: #e1104d;
      }

      .st1 {
        fill: #b9dffd;
      }

      .st2 {
        fill: #01aeef;
      }

      .st3 {
        fill: #4bd011;
      }

      .st4 {
        fill: #e3174b;
      }

      .st5 {
        fill: #0775ee;
      }

      .st6 {
        fill: #860cbb;
      }

      .st7 {
        fill: #0371ef;
      }

      .st8 {
        fill: #0676f2;
      }

      .st9 {
        fill: #0571ee;
      }

      .st10 {
        fill: #e8144c;
      }

      .st11 {
        fill: #badefc;
      }

      .st12 {
        fill: #0672f3;
      }

      .st13 {
        fill: #197ef2;
      }

      .st14 {
        fill: #056eed;
      }

      .st15 {
        fill: #05b5f4;
      }

      .st16 {
        fill: #e3104b;
      }

      .st17 {
        fill: #e21148;
      }

      .st18 {
        fill: #1379f0;
      }

      .st19 {
        fill: #03b2f5;
      }

      .st20 {
        fill: #0672ed;
      }

      .st21 {
        fill: #0677f4;
      }

      .st22 {
        fill: #0878ec;
      }

      .st23 {
        fill: #fcdc17;
      }

      .st24 {
        fill: #0974ee;
      }

      .st25 {
        fill: #0a75eb;
      }

      .st26 {
        fill: #fc7138;
      }

      .st27 {
        fill: #53cf12;
      }

      .st28 {
        fill: #04b1f5;
      }

      .st29 {
        fill: #086ef0;
      }

      .st30 {
        fill: #50d117;
      }

      .st31 {
        fill: #0976f4;
      }

      .st32 {
        fill: #fc9514;
      }

      .st33 {
        fill: #bce1fd;
      }

      .st34 {
        fill: #50ce0c;
      }

      .st35 {
        fill: #b5dffd;
      }

      .st36 {
        fill: #fdfdfd;
      }
    </style>
  </defs>
  <path class="st26" d="M113.76,40.16c1.5.65,2,2.41,1.48,5.3,3.64.42,7.48.58,11.52.45,1.64,1.68,2.27,4.02,1.9,7.02,6.73-.6,8.05,1.27,7.56,7.81,3.04-.24,5.48.35,7.32,1.74l.54,9.27c3.06-.46,5.07.09,6.03,1.64.57.07,1.42.25,1.45.65.45,6.04.05,13.45-.6,19.29l-4.62-.04c-.39,2.1-3.09,1.89-3.49-.14-1.09-1.11-1.42-2.98-.98-5.6l-.98-.56.13-5.91c-2.74.19-4.59-.39-5.55-1.74-2.07,1.38-3.12-.21-3.14-4.76-2.4-1.46-4.87-2.71-7.4-3.73-.41-2.34-.59-4.73-.53-7.17-6.2,1.09-8.95-.98-8.24-6.22l-7.36-.24c-1.67-1.31-2.31-3.53-1.91-6.67h-36.98c.39,3.45-.4,5.72-2.38,6.84l-6.55.2c.32,3.27-.53,5.33-2.55,6.17l-6.54.27c.01,2.55-.3,4.97-.94,7.28-2.19.67-4.53.99-7.04.97l-.13,6.26c-1.61,1.89-4.24,2.61-7.89,2.16l-.19,11.31-1.46,1c-1.22,2-6.41,2.35-8.04.74-.56-.07-1.4-.25-1.45-.66-.34-3.1-.48-15.86.05-18.61l1.45-1.06.75-1.46,5.58-.1.32-9.11c2.01-1.56,4.56-2.15,7.65-1.76l-.15-3.83c.23-3.49,2.86-4.99,7.9-4.52-.44-2.82.08-4.69,1.56-5.58l.13-.91,12.81-.41c-.27-2.9.33-4.75,1.81-5.55l.66-1.45,46.31-.06,1.82-.84.37,2.29Z"/>
  <path class="st16" d="M113.38,37.87c-.09.58-.05,1.34-.49,2.28l-48.3.07c-.65-2.51-.52-5.24-.14-7.77l48.76-.17.17,5.59Z"/>
  <path class="st6" d="M100.9,79.11l1.51.76.61,4.96c2.83-.04,4.54.72,5.13,2.28.05-2.18,5.28-1.22,6.07-.3.74.86.63,6.7-.57,7.65,1.03.51,2.1.62,2.37-.68.52.87,1.22,1.56,2.11,2.07.23.36.92,8.16-1.12,7.89-.56.18-1.73.35-2.32-.01l-.18-6.47-7.06-.53c-.07-3.08.42-4.98-.37-8.16-3.04,1.83-5.24-.95-7.1-.98l-22.97-.4-1.84,1.81h-6.62s-.54,8-.54,8l-6.37.14-.21,6.58c-.01.42-1.61.44-1.81.26l-1.45-.81c-.71-3.88-.49-9.85,4.32-9.74-.19-4.52,1.54-6.54,5.21-6.07,1.42-1.51,3.54-2.08,6.35-1.72l.49-5.77,1.52-.83c0-.56.13-1.41.49-1.45,4.98-.45,18.85-.67,23.49.06l.85,1.45Z"/>
  <path class="st4" d="M64.6,40.22l-.32,6.97-14.09.22c-.59,2.22-.49,4.26-.37,6.6l-7.64.57c-.62,2.73-.25,5.2-.05,7.95l-7.85.1-.28,10.73-7.74.08v-11.34s7.75-.19,7.75-.19l.15-7.85,7.31-.11.25-6.96,7.81-.19v-6.7s14.61-.18,14.61-.18c-.33-3.03-.62-5.32.33-7.48l.14,7.77Z"/>
  <polygon class="st17" points="150.1 73.41 142.64 73.17 142.26 62.58 134.72 62.11 134.63 54.53 127.24 54.36 126.95 47.29 113.79 47.33 113.76 40.16 127.58 40.12 127.7 46.75 134.84 46.91 134.93 53.97 142.69 54.39 142.85 61.9 150.07 62.1 150.1 73.41"/>
  <path class="st21" d="M125.68,111.28c-.59,1.55-2.51,2.06-5.74,1.52-.47,4.92-.56,10.02-.28,15.32l-1.44,1.07c1.96-.79,1.75,5.73,1.41,6.75-.25.77-.53,1.23-1.46,1.37-1.19-2.33-.87-5.21-.22-8.06l-7.62-.16v-17.84s6.72.34,6.72.34c.69-2.91.05-5.43-.05-7.84l-.35-8.45c-1.02-.07-2.6-.19-3.01-.82l.96-1.52c-.66-5.15.46-6.99,3.36-5.51l.69,6.36c2.13-.22,4.15-.03,6.05.57.73,5.65,1.05,11.29.98,16.91Z"/>
  <path class="st7" d="M133.43,137.21c.16-.56.39-1.39.84-1.45,2.56-.33,7.53-.12,10.26.02,2.85-.52,4.73-.03,5.65,1.46.36-2.25,6.54-2.22,7.16-.04l-.07,7.98h-31.03s-.09-7.96-.09-7.96c.42-2.27,6.65-2.17,7.26,0Z"/>
  <path class="st5" d="M34.24,93.04l8.32.36c1.03-.83,1.81-.26,2.34,1.73,2.52-.09,4.34.46,5.46,1.66.55,0,1.28.07,1.38.47.68,2.79.46,6.92-3.23,6.42-.65,1.48-2.4,1.95-5.26,1.39-1.57-.84-2.23-2.46-1.95-4.86l-13.42.04c.01,3.65-2.61,5.06-7.87,4.24l-.99-1.43-.07-9.16c.95-1.87,6.07-1.7,7.26-.12,2.47-.74,5.36-.81,8.04-.74Z"/>
  <path class="st22" d="M141.39,93.18c.14-1.47.88-1.41,1.44,0l3.49.14,3.19-.04c1.24-1.59,7.16-1.31,7.81,1.05v8.7c.64,2-6.23,1.63-6.63,1.41-1.92-1.07-2-1.87-2.02-3.89-4.32-.4-8.76-.51-13.3-.32.09,1.8-.48,2.84-1.72,3.13-2.82-.1-5.41.23-7.78.99-.78-2-1.73-5.9.06-7.01l.69-1.47c2.5-.23,4.79-.2,6.89.12-2.86-4.6,6.19-5.86,7.87-2.78Z"/>
  <path class="st7" d="M50.31,138.55c.28,2.05.49,4.15.01,6.64l-27.75-.03c-2.83-1.59.57-6.03,2.86-7.02,2.51-1.09,11.31-1.55,11.69,2.02l.69.07c3.68-2.41,8.39-4.04,12.5-1.68Z"/>
  <path class="st13" d="M18.23,102.93l.78.12c1.8.55,1.8,3.07,1.6,4.75-.7,5.84-2.58,6.18-8.37,5.28l.04,14.9-1.45,1.05c2.33.17,2.33,7.52.17,8.24-1.25-2.29-.72-5.1-.42-8.08l-7.42-.09v-17.91s7.39-.09,7.39-.09c-.24-2.96-.8-5.78.48-8.11l1.44.79c-.94,5.18.5,7,4.33,5.45-.58-3.13-.11-5.23,1.43-6.3Z"/>
  <path class="st20" d="M76.07,79.05l-.69,8.1c-3.74-.13-6.95.26-10.8,1.14-.45,1.83.1,3.98-.91,5.95-.54,1.06-2.73,1.04-4.04.86v8.89s-.38,6.05-.38,6.05l-.16,1.27-8.39.04c-2.32-.13-2.26-6.98-.13-7.59,1.3-2.24,1.69-5,1.17-8.29,1.21-1.52,3.18-2.16,5.93-1.91-.22-2.83.34-4.85,1.67-6.06l.73-1.49,6.59-.33.17-5.51,1.46-.94c.38-2.29,7.09-2.34,7.77-.17Z"/>
  <path class="st8" d="M59.52,129.21l.02,7.94c-2.89.24-5.8.49-8.74.75-.12.26-.27.48-.48.66-8.98-2.52-8.7,1.97-10.95,2.86-1.09.43-3.08.41-3.49-.65-.96-2.44-1.44-2.73-3.82-3-4.96-.56-9,2.64-9.47,7.4l-3.74-.12.1-7.86c.35-2.26,6.49-2.19,7.06-.03l.83-1.44c5.23.03,10.47.05,15.71.08l1.03,1.45c.25-1.47,1.9-1.93,4.96-1.38.37-2,.5-4.14.36-6.41,3.09-.67,6.3-.88,9.63-.63.48-.88.8-.7,1,.39Z"/>
  <polygon class="st0" points="157.33 94.31 146.33 93.31 150.06 92.88 150.1 73.41 157.33 73.46 157.33 94.31"/>
  <path class="st10" d="M26.25,73.45l-.05,20.33c-2.35.7-4.82.41-7.26.12l-.04-20.42,7.35-.03Z"/>
  <path class="st31" d="M165.91,129.19c-.57-.14-1.4-.34-1.47-.79-.39-2.32-.79-14.19-.46-16.32l1.42-1.08c-2.28-.54-2.08-7.34.12-8.01,1.01,2.27.48,5.12.38,8.09l7.33.15v17.88s-7.32.09-7.32.09Z"/>
  <path class="st18" d="M59.52,129.21c-1.11-.11-1.27-.38-.34-.83v-16.23c-.89-.49-.72-.83.38-1.03l7.44.33-.07,17.65-7.41.11Z"/>
  <path class="st24" d="M165.91,129.19l.08,8.04-8.64-.02c-2.29-.52-2.23-7.34-.05-8.09.58-2.3,7.86-2.14,8.6.07Z"/>
  <path class="st14" d="M18.92,129.13c2.28.5,2.22,7.31.02,8.06l-7.92.09-.17-8.24c.55-2.28,7.37-2.1,8.07.09Z"/>
  <path class="st29" d="M165.51,102.99l-.12,8.01c-.43,2.62-7.06,2.24-8.65,1.13-1.11-.78-1.77-8.83.59-9.11l8.17-.03Z"/>
  <path class="st12" d="M126.08,129.14c2.29.5,2.27,7.33.09,8.08l-7.99.09.04-8.13c.45-2.29,7.19-2.23,7.86-.05Z"/>
  <polygon class="st9" points="18.23 102.93 18.26 111.09 11 110.9 11.04 102.99 18.23 102.93"/>
  <path class="st11" d="M59.56,111.12l-.04,18.09h-9.23s.06,8.13.06,8.13l-6.78-.1c-2.04,1.13-1.82-7.35-1.61-7.74.61-1.13.76-1.23,1.8-1.9,4.66-.18,9.2-.5,13.62-.95v-13.31s-4.08,0-4.08,0c-1.93.15-2.8-.52-2.6-2l6-.15c1.22.02,2.04-.43,2.55-1.16l.3,1.08Z"/>
  <path class="st11" d="M59.54,137.15c0,.33-.08.77-.65.76h-8.1c.19-.42.7-.78,1.47-.78h7.28Z"/>
  <path class="st23" d="M135.46,79.37l1.47.58.16,5.6c1.83-.14,3.45.11,4.85.76.21.3.02,6.53-.54,6.87l-6.43-.07c-.75.93-1.05,1.94-1.44,2.85-2.36,1.04-3.16.04-3.19-2.35.15-1.89.03-3.6-.34-5.13-4.5.6-6.5-2.11-6-8.13-2.8.56-4.73-.02-5.81-1.74.53-6.52-3.47-7.26-9.03-6.55l-.97-1.46-1.42-.92c.22-1.86.26-3.73.13-5.59-12.51-.57-24.91-.53-37.2.12.57,3.18.08,5.33-1.46,6.46l-.77,1.45-6.78.03-.51,2.75c.67,4.41-2.05,6.22-8.14,5.44.44,1.68.02,2.74-1.27,3.17l-.55,4.71c-1.86.34-3.77.54-5.75.58.38,3.86-.4,5.39-2.33,4.6l-7.88-.34.16-13.68,8.02-.4c-.15-3.22-.42-5.79.42-8.23l7.23-.18.34-7.88,8.76-.36.47-6.18,8.49-.17.41-6.85,39.95.02-.05,6.66,9.41.3-.07,6.1,8.01.04.29,8.38c2.55-.35,3.96.43,5.38,2.24l2.37.68c.85.24-1.13,4.72,1.63,5.83Z"/>
  <path class="st32" d="M142.84,93.17c-.45-.02-1,.01-1.44,0l.04-6.02-5.75-.15-.21-7.64h6.75c1.07,5.14-.94,10.25.63,13.8Z"/>
  <path class="st19" d="M108.17,70.59c2.28.49,2.09,7.22-.11,7.84.58.3.51.49-.16.6-.32,2.26-6.44,2.24-7.01.08l-24.83-.06-7.77.17c-2.31-.53-2.28-7.8-.08-8.57l.67-1.45c12.8-.02,25.6-.04,38.41-.06l.87,1.45Z"/>
  <path class="st15" d="M125.94,97.31l.25,6.43c2.69-.96,5.04-.62,7.47-.41-.23,1.97-2.18,2.62-5.87,1.96l-.06,3.54c.11,1.89-.58,2.71-2.04,2.44l-.12-6.71-1.45-2.23-.17-7.08h-6.63s-.83-8.12-.83-8.12c-.93,2.03-.24,4.23-.51,6.63-.1.86-1.82.94-2.32.7-.92-1.79-.44-4.14-.32-6.88l-5.18-.47c-1.68-1.54-1.77-6.41-.24-8.09-.04-.14.16-.43.16-.6,1.44-2.33,8.21-.4,9.92,1.37l.5,5.71,6.62.25c.11.09,1.61,1.82,1.7,1.96.29.43,1.21,9.65-.87,9.6Z"/>
  <path class="st25" d="M107.9,79.03c.74,2.7.76,5.45.24,8.09l-6.19-.94c-.99-2.5-.84-4.77-1.06-7.06l7.01-.08Z"/>
  <path class="st36" d="M157.34,103.01l.02,8.16c2.86.3,5.47.38,8.04-.17l.51,18.19-8.6-.07c-.58,1.5-2.3,2.01-5.15,1.52-.5,1.62-.66,3.5-.49,5.64l-1.46.97-16.76-.03-1.41-.88.21-5.76c-3.07.57-5.13.09-6.16-1.44l-7.86.05-.2-17.81,7.67-.1c1.03-2.22.45-4.63.56-7.44,2.71-.12,5.17.6,7.41-.51l.2-4.57,16.14-.05.32,4.26,7.03.04Z"/>
  <polygon class="st35" points="133.43 137.21 126.17 137.22 126.08 129.14 133.84 129.12 133.43 137.21"/>
  <polygon class="st1" points="157.3 129.12 157.35 137.21 150.19 137.25 150.32 129.22 157.3 129.12"/>
  <path class="st36" d="M48.51,103.68c1.12-.41,1.81-.38,2.08.08l.13,7.59c2.46,1.05,5.15.29,8.12.48v16.61s-6.51.1-6.51.1l-8.92.55.17,8.16-17.57-.08-1.43-.82-.05-5.68c-2.85.49-4.72-.01-5.6-1.52l-8.07-.09-.05-17.73c2.51.54,6.49,1.38,7.81-.29,1.02-2.52.35-5.68.41-7.96l7.13-.11.22-4.14,16.42-.05.09,4.87,5.63.06Z"/>
  <path class="st28" d="M58.62,87.21c.47-.46.71-.36.73.29.07,2.45.18,4.91-.51,7.51l-5.73.29-.2,7.91c-.01.59-1.75.57-2.33.55l-2.08-.08c1.4-.26,2.35-1.19,2.2-2.89l-.35-4.01c-.63-.06-1.04-.39-1.42-.86-.3-.38-.26-9.11,1.75-8.87.53-2.27,7.29-2.05,7.93.15Z"/>
  <path class="st27" d="M50.69,87.06l-.33,9.73c-2.05,0-4.5.48-6.53-.56l-1-2.26c-.19-.43-3.74-.06-8.59-.93l8.67-.05.13-5.82,7.06-.05c-.02-1.47.02-2.67.65-3.63,2.13-.04,1.98,3.21-.06,3.57Z"/>
  <path class="st30" d="M133.52,95.96c-1.98,1.64-4.93,1.22-7.58,1.36l-.62-10.14-8.2-.2-.43-7.05-8.62-1.49.11-7.84c2.53.09,5.51-.37,8.16.24.52,1.24,2.23,2.23,3.08,2.82l.23,5.33,6.14-.12-.06,7.98,6.15.26c-.12,5.44-.64,9.45,1.65,8.85Z"/>
  <path class="st2" d="M68.3,79.22l-.12,7.83-8.83.45c-.19-.02-.55-.22-.73-.29l-.9-1.34c-.03-.32.36-6.12.54-6.39.16-.24,1.14-1.43,1.25-1.53.39-.35,9.05-.97,8.79,1.27Z"/>
  <polygon class="st33" points="26 137.16 18.94 137.19 18.92 129.13 26.18 129.23 26 137.16"/>
  <path class="st34" d="M108.17,70.59l-39.95.06.02-8.37,39.8.1c.77,3.12.16,5.67.13,8.21Z"/>
  <path class="st3" d="M68.22,70.65l.08,8.57-8.71-.07c.29,3.1.46,5.84-.97,8.05l-7.93-.15.06-3.57-.27-4.63,8.37-.24c-.33-2.89-.26-5.38.8-7.95l8.56-.02Z"/>
</svg>