<?xml version="1.0" encoding="UTF-8"?>
<svg id="_레이어_1" data-name="레이어_1" xmlns="http://www.w3.org/2000/svg" version="1.1" viewBox="0 0 177.48 177.48">
  <!-- Generator: Adobe Illustrator 30.3.0, SVG Export Plug-In . SVG Version: 2.1.3 Build 182)  -->
  <defs>
    <style>
      .st0 {
        fill: #c01039;
      }

      .st1 {
        fill: #c30d3f;
      }

      .st2 {
        fill: #bf0939;
      }

      .st3 {
        fill: #be0730;
      }

      .st4 {
        fill: #f68aa7;
      }

      .st5 {
        fill: #be0a3d;
      }

      .st6 {
        fill: #c01a44;
      }

      .st7 {
        fill: #da6383;
      }

      .st8 {
        fill: #fcc7d4;
      }

      .st9 {
        fill: #f06689;
      }

      .st10 {
        fill: #c30739;
      }

      .st11 {
        fill: #b50d37;
      }

      .st12 {
        fill: #c1083c;
      }

      .st13 {
        fill: #c71142;
      }

      .st14 {
        fill: #fcccd6;
      }

      .st15 {
        fill: #fccad5;
      }

      .st16 {
        fill: #f6658c;
      }

      .st17 {
        fill: #c2073c;
      }

      .st18 {
        fill: #c50c3b;
      }

      .st19 {
        fill: #fb98b4;
      }

      .st20 {
        fill: #fa98b4;
      }

      .st21 {
        fill: #c60c3c;
      }

      .st22 {
        fill: #cc0d3c;
      }

      .st23 {
        fill: #c72c52;
      }

      .st24 {
        fill: #c71443;
      }

      .st25 {
        fill: #fa96b1;
      }

      .st26 {
        fill: #c80d37;
      }

      .st27 {
        fill: #b70a38;
      }

      .st28 {
        fill: #fccdd8;
      }

      .st29 {
        fill: #fa9cb5;
      }

      .st30 {
        fill: #dc6f8f;
      }

      .st31 {
        fill: #c2113d;
      }
    </style>
  </defs>
  <path class="st27" d="M110.95,50.28c3.83-1.46,5.3,1.27,2.51,4.35l.15,10.05-2.61,1.64c-2.1.81-4.37.96-6.8.47-.2,2.04-.84,2.86-1.49,1.51-.38.89-1.04,18.78-.29,19.39.58.47,1.26.8,1.98,1.09-3.18,1.15-3.26,10.23-.02,11.37.62.89.41,13.92-2.01,14.69l-.29,14.41c4.93,6.35,1.8,8.72-5.57,6.2-1.27.08-1.79,2.99-2.26,4.3-3.1.76-6.88.53-10.58.34,0-1.87-.53-4.5-2.02-4.76-1.65-.29-3.67.32-5.14,1.37-1.15-.03-1.93-.57-2.66-1.4-.66-.75-.86-18.09-.68-19.98l2.55-1.94c-.37-2.76-1.27-4.87-2.7-6.33-.85-4.31-.08-7.28,2.31-8.91.23-4.31-.62-7.45-2.55-9.42l2.13-.99.18-21.82c-.22,3.82-4.58,3.41-5.23-.29-5.34-2.42,3.14-7.81,5.98-3.3.68,1.33,4.96,2.67,5.36,1.11l3.39-13.33c3.16-.25,7.88-.96,9.98.76.39,1.04-.27,4.23.82,5.24.84.78,2.48,1.18,4.85,1.26-.3,2.49-.69,4.52,1.05,6.36,1.35-2.76.73-5.08.55-7.68l6.06-.83c.67-2.54,1.54-3.85,3.05-4.93Z"/>
  <path class="st8" d="M54.99,108c6.05-7.06,15,3.14,6.33,8.3-9.93.89-1.31,17.48-.43,1.55,0,0,1.85-.45,5.54-1.35-.5-6.05,1.09-11.62,8.25-10.12l1.06,7,.79,23.32.42,13.17-14.77.48c.87,3.75.82,7.07-1.02,8.39-2.28-.11-3.21-2.6-2.79-7.46h-21.44s-1.82-2.63-1.82-2.63c-2.2-.01-3.21-1.89-3.05-5.63-3.04.25-4.58-.62-4.62-2.61-.87.07-1.61.05-1.93-.33-.88-1.07-.05-26.24.89-27.51,1.09-1.47,4.15-2.09,6.05-2.14.98-3.31,1.52-3.62,4.33-5.04.91-.46,18.56-1.21,18.23,2.6Z"/>
  <path class="st21" d="M154.16,100.08c-1.21.07-3.41-.19-3.99.94-1.21,2.33-.86,8.85.8,9.39,1.46.47,3.41.46,6.31.23l-.08,30.09c-2.54-.06-4.92.2-5.64,1.08-.76.93-.76,3.69-.01,6.13-2.99,1.21-6.32,1.64-9.28,1.68-.26,1.02-.66,2.53-1.44,2.63-2.4.3-23.02.81-24.08.23-1-.54-1.52-1.56-1.86-2.6v-1.3s1.45-2.62,1.45-2.62l23.31-.04c.28-5.58,1.24-8.17,7.46-7.78l-.32-22.32c-4.63.66-7.68-.55-8.39-5.36l-14.29.12-1.85-2.6c-2.85-.49-3.79-2.89-2.82-7.2,6.9-1.24,13.84-1.69,20.83-1.36.32-1.97,2.03-3.01,5.14-3.11,5.35-11.29,12.16-6.65,8.76,3.76Z"/>
  <path class="st2" d="M48.2,100.17c.28-3.9,6.02-3.35,6.57.29,3.91-.11,3.92,6.65.21,7.53l-19.34.02.11,4.67-7.54.89-.43,26.48,7.12.6.19,8.01-7.7-.09-.35-7.84c-1.7.7-6.27.46-6.6-1.04l-.16-28.77,8.09-.25.19-10.56c.2-3.99,6.18-3.42,7.99-.5,3.96-.43,7.84-.24,11.65.56Z"/>
  <path class="st5" d="M14.21,40.18c.85.62,1.16,1.44,1.3,2.43.21,1.55.3,21.4.12,22.51s-.46,2.03-1.34,2.78c3.95-.55,3.85,8.06.08,8.75H3.78s-.06-44.49-.06-44.49c4.13-1.22,8.68-.83,12.84-.37-1.42,1.94-2.21,4.74-2.35,8.37Z"/>
  <path class="st12" d="M172.45,76.61l-8.62.16c-3.92.7-4.11-7.83-.37-8.63-1.01-.28-2.53-.7-2.61-1.48-.56-5.62-.51-18.66.07-24.26l2.62-1.84c-.85-1.24-1.39-8.39-1.06-9.07.23-.47,10.38-.33,10.5.18.47,15.05.29,30.03-.53,44.94Z"/>
  <path class="st4" d="M110.99,66.32c1.8,3.97-1.41,4.09-4.84,3.99l-.4,14.12c10.67.54,9.91,7.74-.19,9.04-.28.52-.14,2.97.38,3.54,1.1,1.19,31.11.24,32.32-.83.29-4.22,3.22-5.27,6.95-5.6,0-3.1,1.68-4.68,4-6.5-4.1-5.13-2.11-9.84,2.95-13.17-.7-6.96,9.1-8.02,11.3-2.77l.37,8.63c-.14,2.19-2.22,3.36-6.24,3.5l.18,9.68c2.98-.76,4.81.03,5.49,2.36-1.3,2.54-5.29.79-7.55,1.37-.66,1.17.87,6.26-1.55,6.4l.15-7.15c-2.38-.93-5.09-.62-5.91.65-.68,1.05-.53,3.26.28,5.66l-26.59.99c-.59,2.44.02,5.27.17,7.76-1.58,2.19-4.85,3.06-9.8,2.62-.51,1.76-1.69,2.1-3.67,1.98l.27.82c.52,1.59,5.62,0,6.97,1.24,2.3,2.12,3.01,5.45,7.73,4.35-.58,3.77-.29,6.13.43,9.99-3.05.17-5.07.25-7.25-.29l-9.15-14.37c.44-.23.37-.79-.26-.81-1.91,4.08-2.52,8.93-1.85,14.54,7.72-1.33,9.64,8.74,4.03,11.63-.12,3.92-7.34,3.55-7.9-.19-.01-3.57-3.06-2.33-5.3-4.06l5.2-.33.11-68.78h9.18Z"/>
  <path class="st17" d="M45.56,20.2c.39,4.15.88,8.24,1.45,12.27-10.6-1.02-21.31-1.19-32.15-.5-.4-3.68-.18-7.62.67-11.81l30.02.04Z"/>
  <path class="st10" d="M161.95,20.12c.78,2.57,1.37,10.81-.28,11.6-1.4.68-31,1.31-31.17-.24.59-3.71,1.07-7.52,1.45-11.42l30,.06Z"/>
  <polygon class="st13" points="61.14 158.74 35.22 158.71 35.09 148.65 61.46 148.67 61.14 158.74"/>
  <path class="st18" d="M142.27,149.62c.32,3,.59,5.88.03,9.12h-27.42s0-8.86,0-8.86l27.38-.26Z"/>
  <path class="st23" d="M28.56,100.11c-1.89,0-5.04.85-7.03-.96-.14-1.4.27-5.33-1.4-5.55l-5.21-.71-.55-16.22c4.64-6.94,12.26-.08,9.29,7.61.12,3.66,1.34,5.84,3.66,6.54,5.25,4.46,5.67,7.56,1.24,9.3Z"/>
  <path class="st30" d="M161.95,20.12c2.1,2.81,1.42,6.66,1.14,10.86h10.65s.05,43.13.05,43.13c0,1.4-.51,2.33-1.34,2.5v-44.26s-9.33-.32-9.33-.32l.42,8.53c-3.87,2.21-4.48-1.97-4.26-5.63l-25.82-.13-1.86-2.62c-.48,4.04-10.45,3.92-11.32.06,2.98-2.92,9.28-.05,10.23-2.07s-1.39-7.06,1.45-10.1l.04,10.81,29.86.25.11-11Z"/>
  <path class="st1" d="M75.83,62.32c-1.7.48-3.89,1.71-7.29,1.27-.3,1.26.64,1.79,1.31,2.03.88,4.32-2.88,3.78-4.79-.33,1.49-5.47.29-8.13-3.6-8-2.04-2.73-3.97-5.33-5.81-7.8l-.94-8.31,7.9.2c1.86.1,2.45,1.59,2.35,2.78l-.4,4.71c3.37.8,5.53,3.57,5.02,7.37l5.78-.32c1.73,1.64.97,4.79.48,6.4Z"/>
  <polygon class="st3" points="163.83 76.77 163.25 92.31 154.86 92.71 155 77.32 163.83 76.77"/>
  <path class="st31" d="M109.7,139.69c4.71-8.3,12.34,5.25,5.17,8.89l-13.06-.02c-.62-3.44-.26-6.27-.01-9.06l7.9.19Z"/>
  <path class="st7" d="M45.56,20.2c2.17,2.85,1.28,6.36,1.28,10.86,2.44-.2,6.61-.97,8.17.79,1.94,2.19,1,6.49.88,9.15l6.72.37c-1.36,1.44-3.83,1.44-6.39,1.28l-.58,6.82c-2.35.62-3.6-1.21-3.76-5.5-6.35.81-9.78-2.77-8.98-9.02l-24.14.02c-.33,4.47-1.85,6.2-4.56,5.2l.12-8.25-10.62.25c2.64-2.13,6.48-1.39,10.79-.91-.43-4.53-1.14-8.28,1.04-11.11l-.12,10.83,30.03.07.11-10.86Z"/>
  <path class="st24" d="M131.59,32.17c3.14-1.6,3.18,6.09,2.47,7.36-2.05,3.63-11.11,6.98-13.88,3.1l.09-10.39,11.32-.06Z"/>
  <path class="st11" d="M120.18,42.62c7.71,3.51-2.21,22.2-6.72,12.01-.37-1.55-1.3-2.89-2.51-4.35,1.45-1.19.98-4.98,1.16-7.18l8.07-.48Z"/>
  <polygon class="st0" points="102.14 49.68 95.26 49.86 95.23 40.43 101.68 40.45 102.14 49.68"/>
  <path class="st6" d="M82.35,41.66c1.61,1.36,1.27,5.97.35,7.33s-4.83,1.63-6,.57c-1.04-2.38-.72-6.31-.33-8.55,2.12-.27,4.57-.54,5.98.66Z"/>
  <path class="st14" d="M55.65,49.48l6.98,1.07c-.45,1.51-.92,3.19-.55,4.06s3.56.81,4.62.95c2.06,1.89,1.3,6.42.82,9.33.19,1.59,1.77,1.41,2.33.73l5.23.29-.19,23.39-.99-.36c1.27,2.02,2.06,10.57.53,12.33-1.16,1.33-18.24,3.65-19.65-.8l-6.57-.29c-4.68-.67-9.43-.94-14.26-.81-.57-2.94-2.03-4.24-4.37-3.92-2.61-3.19-4.6-6.88-5.98-11.06,7.03-7.39,6.67-10.27-1.08-8.64-2.19-4.23-4.2-6.09-6.03-5.57l-2.19-2.25c-.45-.95-1.85-2.3-1.86-4.25l-.12-18.51c-.02-2.28.67-3.83,1.91-4.97,1.52-1.4,1.85-3.92.8-7.82l31.13-.02c-1.15,3.79-.88,7.3.68,8.34s4.37.94,7.2.3l1.63,8.5Z"/>
  <path class="st28" d="M163.54,40.56l-.08,27.59-8.89-.63c1.17,4.3-.53,5.98-3.67,7.65-1.77.94-1.56,6.97.55,7.33,2.65.45,3.11,1.12,2.93,2.72-.07.62,0,2.25-.91,2.18l-3.11-.24c-3.45-.26-2,5.53-3.11,5.73l-5.31.95c-.97.17-1.24,3.01-1.13,5.56-8.01-1.23-15.39.78-23.34.56l-15-.41c.59-4.22.7-6.2.1-10.3,3.59,1.72,6.76,1.81,9.27-1.21-3.55-1.27-6.12-.19-8.78-.03l.59-20.9c2.92.95,7.37.8,7.37-.77l-.04-7.99c-.01-2.18,1.15-3.38,2.5-3.7,1.03.61,3.77.98,4.77-.46,2.6-3.74,2.03-7.86,1.95-11.55l11.39-2.75.02-7.7,30.92.16c-1.14,3.87-.83,6.74,1.03,8.23Z"/>
  <path class="st25" d="M75.72,113.37c-1.03-.77-1.49-1.99-1.46-4.47-.38-.95-2.52-.15-3.47.17-3.46,1.19-.31,8.27-2.45,9.51-1.27.74-3.38.59-6.05.35,1.62,2.92,1.22,5.31-.98,6.87-2.03,1.44-4.45,1.97-7.26.93.54-4.5-.28-8.49,1.53-12.94,2.31.47,5.33.38,6.11-.62.63-.8,1.01-3.85.09-4.24-2.23-.85-4.91-.95-6.8-.95l-.21-7.53c6.78.3,13.76-.27,20.45-2.03-.95-3.33-1.03-4.94-.71-8.08-2.43-.82-4.87-.5-8.11-.53-1.73-4.84-6.91-5.83-10.97-6.7l-.93-4.43c-.26-1.24-2.98-1.8-4.96-1.13-2.29.77-2.84-2.75-1.05-3.17,13.94-3.27,12.81,4.79,18.73,2.79,2.03,4.17,3.8,7.13,7.18,10.66l.66-21.93.64,47.46Z"/>
  <path class="st16" d="M94.24,128.73c-.07,4-9.62,4.05-10.37,1.36l-.96-42.77h12.03s-.7,41.41-.7,41.41Z"/>
  <path class="st9" d="M93.94,80.61c-.86,2.57-7.63,2.42-10.2,1.3-1-5-.87-9.43-.34-14.38l11.17-.23c-.02,3.74,1.16,7.95-.63,13.31Z"/>
  <polygon class="st22" points="75.61 148.54 61.61 148.42 61.92 139.98 75.62 139.63 75.61 148.54"/>
  <path class="st15" d="M122.25,107.99l17.6-.15c1.43-.01,1.47,4.01,1.66,4.9,2.11,1.05,4.85.52,8.13.08l.1,28.05h-7s-.41,7.67-.41,7.67l-27.45.04.09-8.62-5.26-.27.47-8.78-8.1-.41c1.82-5.57.92-10.68.91-16.12.52-1.13,3.63-1.2,4.53-.86l1.27-.93c.52-.84,1.01-3.69,2.55-4.22,3.69-1.27,7.58-.35,10.91-.38Z"/>
  <path class="st20" d="M48.2,100.17l-19.64-.06c.09-1.75.85-6.02-.5-6.43l-5.38-1.66c-1.71-4.44-.89-10.96-1.4-15.25l-6.92-.1-.08-8.75c1.83-.3,6.12-1.47,6.86.44l1.78,4.63c.61,1.59,7.5-.96,8.95.96,1.1,1.46-1.81,7.47-6.24,10.38,2.65,2.4,2.64,5.83,3.75,8.5,1.24.33,4.17.09,4.94.91.94.99,1.33,3.12,1.32,5.39,4.53-.08,9.12-1.28,12.57,1.06Z"/>
  <path class="st26" d="M47.52,32.89c.77-1.24,5.18-1.18,6.4-.44,1.47.89,1.29,5.05.55,6.81-.59,1.4-4.18.94-5.79.88-1.95-.07-2.93-4.35-1.15-7.25Z"/>
  <path class="st19" d="M46.34,72.4c-1.63,1.95-6.15.95-8.46-.08l1.39-4.8-7.05-.31.52-11.28c3.61-.3,7.71-.97,10.87.4l3.09,6.55c1.06,2.25,1.45,7.35-.36,9.52Z"/>
  <path class="st29" d="M143.39,65.78c.44,2.83-.59,4.62-1.62,5.66-.91.91-4.38,1.91-4.91.68-1.27-2.95-3.72-2.94-5.41-4.47-2.85-2.57-1.35-10.01,1.77-11.95,2.5-1.56,6.37-.42,8.64.11l1.54,9.97Z"/>
  <path class="st4" d="M118.36,82.39l-2.1,3.42c-.43.7-2.27.75-4.62.41l-.45-9.23c3.1.07,4.86-2.63,6.44-4.12,4.17.29,7.47-.91,10.53-4.57,2.73.16,2.57,4.34,2.48,6.38-.14,3.02-4.4,1.72-5.81,2.35-1.33,2.89-2.55,4.69-6.48,5.36Z"/>
</svg>