<?xml version="1.0" encoding="UTF-8"?>
<svg id="_레이어_1" data-name="레이어_1" xmlns="http://www.w3.org/2000/svg" version="1.1" viewBox="0 0 177.48 177.48">
  <!-- Generator: Adobe Illustrator 30.3.0, SVG Export Plug-In . SVG Version: 2.1.3 Build 182)  -->
  <defs>
    <style>
      .st0 {
        fill: #66280b;
      }

      .st1 {
        fill: #511c04;
      }

      .st2 {
        fill: #b45e16;
      }

      .st3 {
        fill: #5d2508;
      }

      .st4 {
        fill: #da8c3f;
      }

      .st5 {
        fill: #612302;
      }

      .st6 {
        fill: #4f1a06;
      }

      .st7 {
        fill: #652809;
      }

      .st8 {
        fill: #521d09;
      }

      .st9 {
        fill: #c06e25;
      }

      .st10 {
        fill: #efb56f;
      }

      .st11 {
        fill: #b7651e;
      }

      .st12 {
        fill: #5e2609;
      }

      .st13 {
        fill: #5b2105;
      }

      .st14 {
        fill: #501b05;
      }

      .st15 {
        fill: #582611;
      }

      .st16 {
        fill: #652209;
      }

      .st17 {
        fill: #5d1d04;
      }

      .st18 {
        fill: #501d05;
      }

      .st19 {
        fill: #a45415;
      }

      .st20 {
        fill: #f6c385;
      }

      .st21 {
        fill: #b66822;
      }

      .st22 {
        fill: #db9041;
      }

      .st23 {
        fill: #ba6a24;
      }

      .st24 {
        fill: #d08337;
      }

      .st25 {
        fill: #f2b974;
      }
    </style>
  </defs>
  <path class="st5" d="M12.26,44.17l2.73,1.64c-.7,20.79-.74,41.59-.11,62.38,3.82.21,5.4,1.69,4.74,4.43,4.72.75,9.46.87,14.22.34l.7-1.97c11.21-.51,21.51-6.77,29.15-14.5,6.01-2.29,2.6-7.21-.69-10.15-4.2-.48-4.11-7.9-.12-8.84.36-2.67,1.52-3.1,3.87-2.79l.24-11.97,2.83-1.82c7.14-.74,14.66-.86,22.54-.38,5.42,1.32,10.98.99,16.67-1-.94,5.76-1.17,11.67-.71,17.72,3.64,0,3.6,8.31.47,9.32-.66,4.1-.54,8.13.34,12.11l1.07-3.04c5.91,1.24,11.25,4.46,16.03,9.67,3.54.87,6.62,2.31,9.22,4.3l29.2-.52,1.73,2.83c-.27,7.74-.73,15.43-1.37,23.09l-7.36-.12c-2.95-1.54-3.9-5.3-2.83-11.28-13.82.56-26.97-2.97-39.44-10.59-1.55-3.36-6.21-11.54-6.33-3.49l-2.74,1.72-33.61-.08-2.85-1.64c.39-2.7-.35-3.76-2.22-3.16-1.39,7.01-9.05,10.25-15.94,9.95-7.61,6.24-17.21,8.61-28.8,7.1,1.25,5.6.61,9.43-1.91,11.49l-8.25-.21-.55-22.08-8.45-.12.66-62.08c.04-4.21,5.4-7.69,8.16-7.49,1.14.54,1.02.95-.28,1.24Z"/>
  <path class="st4" d="M19.34,44.18l2.85,1.06c-.1,12.51,1.15,13.95,3.74,4.32,3.18-.93,5.73-2.72,7.64-5.38,3.56-1.19,12.16-2.39,11.21,4,9.42-1.24,14.3,1.51,14.63,8.25,4.48-.53,7.9.08,10.25,1.85l.16,1.23c1.21.42,1.18.89-.03,1.39l-.31,16.59h-6.63c-1.59-3.1-14.92-6.45-17.06-4.81-.42.32-.19,10.2.23,10.52l14.1.38,1.88,2.84c6.55,1.09,4.05,9.47-2.45,10.31-7.12,7.12-15.03,10.21-23.73,9.26-.63,1.2-.5,3.35.41,6.44-5.47,1-11.2,1.22-16.64.17-1.57-1.27-3.91-1.27-7.49-1.4l-.63-48.85.76-18.2c.35-1.98,2.71-1.97,7.08.01Z"/>
  <path class="st9" d="M165.26,44.08c1.1.01,2.33.58,2.81,1.61-.08,22.3.4,44.52,1.45,66.65-.4-.45-2.42-.43-2.96.15l-.05,19.81c0,1.54-.46,2.73-1.52,2.73l.1-23.3-33.03.77c.49-6.3-3.78.34-10.72-7.93-1.63-1.94-4.97-2.31-6.47-4.95-.98-1.74-4.45-1.31-5.77-.93l-.73-5.09c-.79-7.84,1.07-11.08,5.57-9.72.37-3.7,3.44-10.09,6.73-11.39-2.66-2.56-.99-3.82,2.2-4.68,12.77-3.41,18.16,13.29,10.68,20.98-17.45.92-20.34,2.19-8.68,3.81,3.5,7.43,13.13,7.67,20.7,7.6.26-3.99,1.76-6.7,4.49-8.12,3.7.8,5.88-1.91,6.53-8.11-2.72-4.64-3.52-12.28,2.07-14.92-4.93-2.87-4.2-17.21-3.38-23.06l2.81-1.97c1.29-3.18,6.14-4.34,7.15.08Z"/>
  <path class="st23" d="M72.68,111.18c-.88,3.66-4.65,3.45-7.16,1.4l-.81,9.38c-3.67-.14-5.18.48-4.55,1.87,3.06-.46,4.95.44,5.67,2.69-2.19,2.4-5.69,1.34-8.59,1.32-.45,2.24-2.82,3.24-7.11,3,.34,2.31-.05,3.39-2.59,4.25-.14,1.08-.47,2.7-1.24,2.79-4.98.53-18.36.44-23.39-.14l-1.95-2.81-1.52-14.17c9.83-.54,19.09,1,27.67-3.66,1.9-1.03,1.97-4.24,6.44-3.54,2.84.4,8.01-2.72,10.89-3.76.09-1.69-.24-4.9.8-5.61.79-.53,3.58-.93,5.05-.41,2.83,1,2.17,5.05,2.39,7.4Z"/>
  <path class="st21" d="M157.64,134.9c0,2.02,1.38,7.71-1.33,7.8l-22.1.7c-1.56.05-2.51-.72-2.89-1.46l1.24-2.79c7.45.27,14.48.06,21.1-.61-6.51-.74-13.24-.97-20.21-.7l-1.97-2.8c-2.19-.58-3.13-2.1-2.82-4.56-3.61-.81-5.09.07-4.42,2.63l-2.7,1.9c-2.44,0-.48-5.48-.72-6.83-2.52-.46-7.54.52-7.53-1.45l.27-1.89c5.98-1.1,6.58-1.96,1.81-2.58l-2.02-2.71c-2.45.54-3.48-1.02-3.09-4.66-2.24-.62-3.56-1.83-3.95-3.64.07-1.91-.79-6.12,1.12-7.15,2.32-1.24,5.79-.18,6.92,1.03.82.88.93,3.52,1.45,4.96,8.29,4.58,14.88,5.31,17.28,8.88,7.87,2.68,16.7.86,24.51,1.92l.05,14.01Z"/>
  <path class="st7" d="M165.26,44.08l-7.15-.08-1.59,2.8-19.65.05c-.16,6-4.24,8.57-12.25,7.71.57,6.34-3.76,9-12.99,7.98-.73,12.98.34,15.74,3.21,8.28,2.99-2.42,5.41-2.43,5.85,1.65l-3.54,8.12c-.57,1.3.5,4.85-.55,5.57s-4.36.64-6.9-.34c-1.21,4.37-.45,8.59-.57,12.85-2.37-2.87-.95-7.18-1.05-11.2l-.62-26.24c-3.71-.65-6.57.54-9.77,2.49l-5.49-2.44-22.39-.39.03-1.39,37.75.4c.66-2.39.71-3.77.26-6.24,4.25-1.84,8.07-2.83,13.21-3.51-.63-1.63-.09-6.23,1.64-6.36l11.43-.89,1.49-2.81c6.53-.02,13.14-.15,19.65-.3.77-.02-16.26,1.71-11.24-4.02l21.02.02.22,8.28Z"/>
  <path class="st18" d="M169.53,112.34c-2.46-.47-3.48-2.21-3.51-5.26l-.75-62.99c2.78-.24,8.14,1.39,8.16,6.15l.37,61.11c0,1.41-3.58,1.77-4.27,1Z"/>
  <path class="st0" d="M42.2,42.82l14.54.49.83,7.62,12.02.39.08,6.97c-4.1,1.87-9.14,1.18-13.65.49.79-3.35.77-5.11.15-7.57l-14-.11-.44-6.95-8.16.04c.37,4.37-13.26,4.2-14.23,0h-7.08s.28-1.25.28-1.25l.04-4.37c2.01-.93,3.17-.67,3.84,1.24l23.84.21,1.95,2.81Z"/>
  <path class="st15" d="M47.55,135.08l-.08,7.74-26.37-.36c-.83-3.3.1-5.44-.12-7.54l26.58.16Z"/>
  <path class="st12" d="M42.2,42.82l-26.7-.27c-1.4-.29-2.34-3.22-2.92-4,0-.83-.2-2.61,1.5-2.63l27.79-.17.33,7.06Z"/>
  <polygon class="st14" points="131.31 141.93 131.47 135.02 156.43 135.12 156.46 141.91 131.31 141.93"/>
  <path class="st3" d="M144.03,35.79c-.03.6.49,1.3,1.42,1.29l15.59-.09c-.38,4.32-3.61,5.69-7.21,5.73l-19.72.2.15-7.03,9.76-.1Z"/>
  <path class="st13" d="M131.47,135.02l-9.94-.02c-.03-1.56-.62-6.03,1.01-6.76,1.9-.85,6.04-1.06,7.91-.08,1.59.83,1.03,4.96,1.02,6.86Z"/>
  <path class="st16" d="M57.24,127.84l-.07,7.06-9.63.19c.02-1.56-.81-5.23.68-6.6,2.59-1.42,6.43-.67,9.02-.65Z"/>
  <path class="st17" d="M65.86,119.58l-.03,6.94c-2.28.02-5.46.74-7.67-.47-.94-.8-1.2-4.66-.47-5.63s3.45-1.18,5.89-.43l1.95-7.41c4.55.42,4.38,5.1.34,7.01Z"/>
  <path class="st8" d="M113.34,119.55c-1.58.06-5.18,1.07-6.7-.39-1.67-2.08-.3-5.83-.34-7.9l6.55.23.5,8.06Z"/>
  <path class="st6" d="M72.68,111.18c.15,2.03,1.67,5.94-.18,7.93-1.43,1.54-5.32.61-6.64.48,0-2.36.34-4.71-.34-7.01,1.92-2.05,4.94-1.4,7.16-1.4Z"/>
  <path class="st1" d="M113.28,126.72l.06-7.17c1.73-.12,4.5-.21,6.12.34,1.81.61,2.12,5.03.31,6.45-1.48,1.16-5.09.15-6.49.38Z"/>
  <path class="st24" d="M100.75,92.19c2.31,6.43-18.53,5.56-20.21,4.65-2.24-1.08-3.38-3.96-3.4-8.63l-.11-20.27,23.73.65v23.6Z"/>
  <path class="st11" d="M19.61,112.62l14.9-.59c-1.78-2.41-3.23-5.4-2.18-8.88,4.86-.34,11.19,1.74,15.01-1.01l7.24-5.2c2.06-1.48,4.15-3.79,7.63-3.59,1.2-1.54.52-5.34-.18-6.92-.13-1.24.21-1.22.97-.09l6.39-.08.11,12.02c-4.43-1.75-5.94,3.22-8.13,3.89-3.24.98-4.61,3-6.56,5-5.83,6-30.65,9.12-35.18,5.45Z"/>
  <path class="st2" d="M62.87,77.49l.12,8.84-.97.09-18.71-.45-.35-15.93c6.6-.65,13.08.04,19.63,2.73,1.01.71.27,3.62.28,4.71Z"/>
  <path class="st19" d="M100.75,92.19l-.11,10.18-23.08.1-.43-14.25c.85,1.94,1.19,3.55,1.59,5.8l16.52.33c2.65.05,4.5-1,5.51-2.16Z"/>
  <path class="st20" d="M33.57,44.19c.03,1.81.37,4.17-.31,6.17-.46,1.34-5.64.1-5.85,1.39l-.87,5.53c-.23,1.46-3.74,1.62-6.5,1.64l-.71-14.73h14.23Z"/>
  <path class="st25" d="M18.06,77.34c-1.22.2-3.86-.32-5.57.58l-.09-18.49,6.56.27c.77,4.9.26,12.18-.9,17.65Z"/>
  <path class="st22" d="M158.11,44l-.13,22.33c3.08.36,4.69-.82,6.81-2.49.53,5.53.56,8.3-.34,11.6-1.28-3.33-4.48-4.4-5.78-3.56-2.05,1.32-1.63,10.59,1.3,11.3,1.06.26,2.97-1.29,4.41-2.58l.83,5.19c-2.91-.6-6.68-.24-6.98,1.28l-1.21,6.15c-.53,2.71-5.49.72-6.74,1.67-1.85,1.44-1.44,5.43-1.12,7.71-10.29,1.48-15.51-.6-23.77-3.25l-1.28-3.79c-.7-2.06-7.45-.02-8.59-2.47-.48-1.02-1-3.88-.28-5.77l18.14-1.05c.48-3.5.94-7.28.1-11.08-1.18-5.3-11.17-6.43-12.79-2.71-2.22-.97-3.65-.44-4.26.68-.42.76-.47,3.31-1.04,3.83-1.33,1.1-4.16,1.02-6.6.54l.06-17.76,12.85-.47.22-8.01,11.4.24.66-7.45,24.13-.06Z"/>
  <path class="st10" d="M86.16,75.17c-2.16,1.97-2.33,5.86-2.28,9.1-2.09.77-3.36,1.08-5.95.63l.25-15.13c4.79-.8,9.89-.85,14.38,0,.25,3.09.12,5.56-.96,6.75-.92,1.01-4.12-.39-5.44-1.34Z"/>
</svg>