<?xml version="1.0" encoding="UTF-8"?>
<svg id="_레이어_1" data-name="레이어_1" xmlns="http://www.w3.org/2000/svg" version="1.1" viewBox="0 0 177.48 177.48">
  <!-- Generator: Adobe Illustrator 30.3.0, SVG Export Plug-In . SVG Version: 2.1.3 Build 182)  -->
  <defs>
    <style>
      .st0 {
        fill: #502182;
      }

      .st1 {
        fill: #9b61de;
      }

      .st2 {
        fill: #57278c;
      }

      .st3 {
        fill: #4b1c7b;
      }

      .st4 {
        fill: #3d146e;
      }

      .st5 {
        fill: #a269e4;
      }

      .st6 {
        fill: #995ddd;
      }

      .st7 {
        fill: #c996f9;
      }

      .st8 {
        fill: #be87f5;
      }

      .st9 {
        fill: #4b1e80;
      }

      .st10 {
        fill: #471c77;
      }

      .st11 {
        fill: #a166e6;
      }

      .st12 {
        fill: #481d79;
      }

      .st13 {
        fill: #9c60e2;
      }

      .st14 {
        fill: #55248d;
      }

      .st15 {
        fill: #bf8df2;
      }

      .st16 {
        fill: #9b68db;
      }

      .st17 {
        fill: #c794f8;
      }

      .st18 {
        fill: #502183;
      }

      .st19 {
        fill: #e3c9f8;
      }

      .st20 {
        fill: #531c8b;
      }

      .st21 {
        fill: #c490f8;
      }

      .st22 {
        fill: #57268e;
      }

      .st23 {
        fill: #efe5f7;
      }
    </style>
  </defs>
  <path class="st12" d="M113.8,44.09c1.62-.56,2.67-.53,3.15.11,6.98,1.77-.98,12.37-6.72,12.95.83,5.39-.2,8.86-3.11,10.39,4.29.7,4.1,11.53,0,12.6,4.16.55,3.95,9.05-.09,9.95,1.61,1.6,3.92,2.49,6.92,2.66l.27,2.28c.67,1.79.62,2.89-.15,3.33-1.44,5.35-6.33,3.31-10.14.77l2.66,11.98-2.3,2.41c1.78,1.21,3.67,1.42,5.68.61,4.21,1.98,7.87,14.48,3.95,17.41l-8.73.18-1.5-14.52-7.88.04-.29-16.92h-13.82s-.49,17.04-.49,17.04c-2.73-.45-5.78-.02-5.94,1.09l-.6,4.31c-1.97,2.79-4.08,4.61-3.75,8.72l-7.97,1.13c.98,2.82.94,6.1-.73,7.26-1.31.9-4.4.59-6.99.33l-.36,9.36-24.87-.05-.32-9.38-8.3-.23c-1.12-3.33-.03-5.95-.17-8.36.52-2.76,3.22-3.68,8.1-2.74,2.69,1.42,3.92,4.19,3.71,8.3l18.06.24c.1-6.31,2.62-9.11,7.56-8.4.8-4.45,2.75-8.37,6.99-10.04l.47-3.84c3.4.07,4.83-1.9,4.3-5.88,2.76-3.33,4.2-7.34,4.31-12.06,1.51,1.36,1.7.83.57-1.58-4.65,1.97-6.49-.35-5.52-6.98-2.62-2.68-3.9-6.89.24-8.59-4.13-.83-3.58-8.34-.04-9.43-.2-6.1.24-12.06,1.31-17.89,11.52.75,23.13.97,34.83.64.11-2.62-.55-6.09.74-8.08,1.33-1.73,5.22-1.17,6.97-1.11Z"/>
  <path class="st10" d="M165.15,107.84c-4.37.31-4-9.32-.13-10.58l-2.78-.91-.41-50.23c-1.33-2.5-2.01-5.05-2.03-7.64l-25.99-.93-1.87-2.84c-1.97,1.08-2.18.54-.65-1.63l.13-6.86,33.95-.03c-1.46,5.3.39,7.43,3.2,10.72l5.21,6.1-.06,64.56c-3.44.74-5.99.22-8.58.27Z"/>
  <path class="st22" d="M140.07,107.67c1.05-4.36,14.1-4.04,15.45.15.47-4.18,8.82-3.99,9.63.02l.13,23.68-8.37.22-.22,8.14-8.56.6.11,9.03-25.85.07-.12-9.61c-3.22,1.59-6.42,1.86-8.61-.19.51-4.18,7.84-3.99,8.69-.07l1.28-2.74,20.71.43c-.24-4.66,1.2-7.54,4.3-8.62,4.85.93,6.43-2.36,4.74-9.86l-21.79-.69c-1.64-.93-2.77-2.49-3.38-4.68-5.07.71-10.8-2.35-5.75-6.33-6.42.18.93-5.98,3.94-6.16,3.46-.21,6.78,1.96,9.08,4.28,2.21-.36,3.69-.23,4.59,2.36Z"/>
  <path class="st3" d="M12.06,107.95c-2.9.1-5.48.4-8.27-.27l-.08-65.69c2.42-1.62,4.52-3.52,3.82-6.14l3.25-.89c.62-1.96,3.65.83,4.54,2.3,1.78,2.96-.09,60.48-.49,69.07l-2.78,1.62Z"/>
  <path class="st14" d="M75.28,95.52c-.52,4.56-6.1,7.05-10.44,7.2.68,3.07.14,5.31-1.64,6.74-3.99-.26-7.28.67-9.85,2.8-2.5-.98-5.38-1.03-8.65-.16,4.52,1.04,3.04,4.14-.27,6.54l-20.48.34c-.72,3.43-.76,6.92-.1,10.48l-2.63,2.06-8.15.14c-.89-3.23-1.01-25.37-.05-26.34.79-.79,19.71-.45,22.4-.16l1.89,2.79c.12-1.18.53-2.57,1.58-2.81,7.63.38,11.79-1.57,12.47-5.86,2.47-.22,3.69-1.23,3.65-3.01,2.67.26,5.1-1.36,7.3-4.88,2.99.37,5.42.03,7.28-1.03l.19-1.85c.26,3.16,3.06,6.45,5.52,6.98Z"/>
  <path class="st16" d="M106.09,53.27l-35.04.72-1.06,25.95c-.27,1.08-.68,2.68-1.53,2.8-3.56.49-24.07.89-25.69-.58-2-1.81-1.57-18.51.16-20.21,4.76-4.66,18.76-.02,23.93,2.11-.94-5.41.04-8.94,2.94-10.58-3.46-1.65-2.66-3.16,1.12-2.44.44.81,1.41,1.59,2.93,1.59l32.23.63Z"/>
  <path class="st0" d="M45.24,34.5c-7.77.54-15.84,1.02-24.19,1.42,1.35,3.59-7.58,2.42-7.89,2.02-1.87-2.43-.91-8.63-.09-11.68l32.87.03-.7,8.21Z"/>
  <path class="st18" d="M131.96,34.72c5.01,2.31,3.64,10-1.59,12.38-1.27.58-13.99.77-13.43-2.9l-3.15-.11c4.14-.13,3.16-6.13,3.95-8.7,4.01-1.28,10.63,1.54,13.57-2.3.79.56.65.91.65,1.63Z"/>
  <path class="st2" d="M60.24,35.92c2.08,5.18.1,15.82-5.33,8.44-6.03,8.1-17.96-1.7-9.44-8.29-2.44-.17-2.54-.64-.24-1.57l15.01,1.42Z"/>
  <path class="st4" d="M70.94,51.06c-.25.64-1.11,1.57-1.12,2.44.16,4.13-7.21,4.21-8.22.27-4.2-.34-4.25-8.68-.27-9.6l9.45.18.16,6.71Z"/>
  <path class="st16" d="M61.32,44.16l.27,9.6c-1.32,5.2-9.24,4.21-10.72-1.87-.86-3.53.02-7.45,4.05-7.54l5.33-.58v-7.85c2.4,1.01,1.01,6.03,1.08,8.24Z"/>
  <path class="st9" d="M122.36,139.7l-8.69.07.25-8.22c-.77-3.07,4.85-3.43,6.69-2.71,5.74,2.23,7.27,7.55,1.75,10.87Z"/>
  <path class="st17" d="M21.05,35.93l2.6,1.94c-1.84,16.09,2.89,14.6,4.55-.54l3.09-1.31c3.37-1.27,10.22-1.25,14.2.05l.15,8.26,9.29.03c-1.77,2.81-1.54,6.49-.93,9.88l7.61-.47,8.22-.27-.29,17.66c-6.31-7.14-15.02-9.58-24.89-7.58l-.43,16.93,25.8-.56c-.11,2.78,1.05,5.77-.24,8.59-.2.43-.25,1.36-.19,1.85-3.09-1.45-5.94-.99-8.55,1.37-4.87-.27-6.54,1.73-5.03,6.02l-2.71,2.73-12.72.74c-.19,3.33-1.28,5.57-3.26,6.71l-24.18-.26-.06,23.97c-.76-.53-1.44-1.46-1.41-2.92l.41-20.8.51-71.97c-1.66-.67-3.4-.39-5.03-.13,1.42-.63,2.65-.88,3.41-1.59,2.14-2.03-.48-6.93,2.13-7.99l-.35,8.87,8.33.79Z"/>
  <path class="st7" d="M165.03,97.26c-.19,3.87-2.6,4.12-5.79,4.22.21,3.79-1.03,5.9-3.71,6.34l-15.45-.15c-2.3.17-3.39-2.06-3.27-6.71l-13.02-.16c-2.85-2.19-3.88-4.82-3.09-7.92-4.26-.09-8.52-.41-12.8-.95l-.85-1.85.09-9.95,1.53-2.77,20.71-.07c2.52-8.64.47-13.9-9.46-11.53-6.39,5.51-10.66,6.1-12.8,1.77l.44-13.53c3.53.35,5.81-.25,7.32-2.8,1.3-2.21,2.93-4.24,2.07-7.01l14.94.15.07-9.63,32.43,1.16c-4.45,3.71.17,7.31.19,9.94l.45,51.44Z"/>
  <path class="st8" d="M122.47,107.2c-.07,1.18.4,2.55,1.1,3.11,1.63,1.3,6.79-.61,7.55,1.69.25.77.33,3.74,1.27,3.76l23.39.42c1.06,5.24.77,9.99.28,15.14l-8.43.24-.48,8.65-24.8-.52c.37-2.54.67-5.03-.07-8.08l-8.37-.07c.1-3.48-1.87-6.21-2.49-10.05l-.64-3.99c-.13-.81-2.47-.83-3.55-.81-2.95.05-2.64-1.83-2.94-3.18,3.87-7.24,10.71-11.08,18.17-6.32Z"/>
  <path class="st21" d="M65.62,118.87c.89,3.02-1.76,4.37-3.06,6.17-1.21,1.68-.23,5.86-1.71,6.3-1.58.47-3.94.44-6.21.23l-.78,8.56-23.73-.31-.35-8.34-8.58.06c-.27-4.91-1.21-9.75-.03-15.3h22.26c1.21,0,1.62-3.55,1.25-4.12l6.21-.91c2.62-1.75,4.65-.66,6.11,3.26,6.28-7.46,13.55-2.71,8.61,4.42Z"/>
  <path class="st15" d="M79.28,80.24l1.78-10.2,4.89-1.19c-.68-3.08-.06-5.19,1.86-6.31l10.85.05.07,27.09-19.25-.05c-.73-3.4-.46-6.41-.2-9.37Z"/>
  <path class="st5" d="M107.13,80.14v-12.6c8.33,1.98,6.4-4.53,15.41-4.99,4.13-.21,9.27.62,10.19,5.61.65,3.53-.1,7.93-.55,11.9l-25.04.08Z"/>
  <path class="st1" d="M75.28,95.52c.42.09,1.46-.2,1.9.23.65.64.14,1.74-.01,2.89l-1.12,8.36c-4.29,1.76-3.67,5.67-2.29,9.82-3.68-.13-6.67-.04-8.14,2.06l-2.06-6.96c-1.91,2.61-5.12,6.26-8.53,5.37-.88-1.54-1.59-4.71-2.96-5.03-2.23-.52-5.17-.29-7.38-.16,9.4-1.37,10.29-5.55,11.87-5.32l6.19.89c-.62-2.44-1.49-5.69.03-7.83,8.68.98,8.4-5.08,12.49-4.33Z"/>
  <path class="st13" d="M140.07,107.67c-1.72-.02-5.37,1.21-6.88-.65-3.61-4.45-10.13-3.25-10.69-2.54-.47.6-.23,1.99-.04,2.71-3.75-.14-7.55.35-11.66,1.36-.82,3.82-3.57,5.55-6.51,4.96l-3.55-15.98c-.88-1.31.39-3.23,2.6-2.7,3.22,3.29,6.57,5.12,10.73,3.51.58-.67.63-1.78.15-3.33-1.23-1.22-3.65-.8-5.45-1-2.78-.32-1.75-2.87-1.74-3.94l14.11.03c2.85,0,3.07,5.63.79,7.9l18.07.22.07,9.44Z"/>
  <path class="st23" d="M87.82,62.54c1.08,2.97,1.37,6.17.22,9.83-2.09-.83-6.48-.43-6.76,1.06-.53,2.81-.17,5.32-2,6.82l.13-17.64,8.41-.07Z"/>
  <path class="st20" d="M114.08,98.36l.15-3.33c1.24,6.17,7.93,1.43,8.65,5.25.42,2.2-.34,3.81-3.43,3.71-1.7-.06-4.14.46-5.13-1.14-.63-1.01-.29-3.21-.25-4.49Z"/>
  <path class="st6" d="M165.15,107.84l-9.63-.02,1.34-9.27c3.42.29,6.03-.06,8.17-1.29l.13,10.58Z"/>
  <path class="st11" d="M69.57,90.38l.25,1.86c.44,3.3-6.97.9-7.32,1.84l-1.71,4.62c-.41,1.12-6.59-1.05-6.92,1.52l-.7,5.49c.06-.46-9.57,2.31-15.86,2.24l-.61-9.26,17.62-1.02c-2.23-1.78-1.93-7.64,0-7.69,4.65-.03,7.17-.73,10.38-4.17,1.75-1.09,4.44,3.1,4.88,4.57Z"/>
  <path class="st12" d="M70.67,96.39c-2.34,2.95-6.25,2.78-8.62.28,2.46-1.75,4.99-2.27,8.62-.28Z"/>
  <path class="st16" d="M45.24,34.5l.24,1.57-14.2-.05c-.64,4.12-9.36,4-10.24-.09-.04-.43.47-1.41,1.66-1.4l22.53-.02Z"/>
  <path class="st19" d="M31.28,36.02l-3.28,16.42c-2.43.44-6.5-.85-7.06-3.18-1.11-4.61-.2-9.2.11-13.33l10.24.09Z"/>
</svg>