<?xml version="1.0" encoding="UTF-8"?>
<svg id="_레이어_1" data-name="레이어_1" xmlns="http://www.w3.org/2000/svg" version="1.1" viewBox="0 0 177.48 177.48">
  <!-- Generator: Adobe Illustrator 30.3.0, SVG Export Plug-In . SVG Version: 2.1.3 Build 182)  -->
  <defs>
    <style>
      .st0 {
        fill: #e71213;
      }

      .st1 {
        fill: #fd818e;
      }

      .st2 {
        fill: #901415;
      }

      .st3 {
        fill: #960705;
      }

      .st4 {
        fill: #810303;
      }

      .st5 {
        fill: #820304;
      }

      .st6 {
        fill: #87090a;
      }

      .st7 {
        fill: #810304;
      }

      .st8 {
        fill: #8c0404;
      }

      .st9 {
        fill: #810202;
      }

      .st10 {
        fill: #870808;
      }

      .st11 {
        fill: #880303;
      }

      .st12 {
        fill: #7f0708;
      }

      .st13 {
        fill: #8c0505;
      }

      .st14 {
        fill: #8d0505;
      }

      .st15 {
        fill: #fdf9f9;
      }

      .st16 {
        fill: #fc3436;
      }

      .st17 {
        fill: #890605;
      }

      .st18 {
        fill: #8f0605;
      }

      .st19 {
        fill: #e91314;
      }

      .st20 {
        fill: #8c0303;
      }

      .st21 {
        fill: #8e0505;
      }

      .st22 {
        fill: #960c0c;
      }
    </style>
  </defs>
  <path class="st16" d="M150.81,21.95l1.98,1.19-.35,9.16c5.35,1.18,7.62.18,6.8-3l2-1.31c1.2,1.55.96,3.73.37,6.07l11.58.16-.65,54.22-2.03-.92-.42-49.61c-1.64-.77-3.65-1.02-6.02-.73-.77,11-1.02,22.25-.77,33.76l-2.03,1.47c.38,2.83.96,7.7-1.35,9.2l-7.11.11-.44,8.05c-2.41,2.34-5.6,3.32-9.55,2.92l-1.05,8.92c-2.29,2.17-5.53,3.16-9.71,2.97l-.29,7.96-2.04,1.33c-1.86,1.39-4.5,1.99-7.91,1.78l-1.28,7.39c-2.41,1.85-5.7,2.65-9.89,2.41l-.36,7.46c-3.07,2.23-6.96,3.21-11.69,2.94.06,4.71-3,6.5-9.16,5.38.93,5.59-10.88,6.28-12.93,2.7-.83,3.24-11.13,3.32-12.38.27-2.15-1.13-2.84-3.87-2.09-8.22l-6.94-.79c-2.08-2.17-2.88-5.18-2.41-9.06l-7.62-.32c-2.12-2.63-2.86-5.93-2.22-9.9-1.49-.17-2.43-.91-2.82-2.2-1.65.17-3,.72-4.05,1.67-2.29-2.7-3.03-6.27-2.24-10.71-2.36-.45-4.76-.48-7.21-.08-.18-1.61-1.2-2.41-2.71-2.77l-.21-10.92-9.74.52.26-55.82c1.14-2.7,4.35-3.65,9.63-2.84l.03-9.37,2.02-1.37,1.18-2.02c11.85,0,23.7,0,35.56,0l1.48,2.02,2.03,1.07.4,7.99,9.47.15c.77,4.11,1.03,8.33.8,12.66.44-1.12.73-.66.92.86,6.4.27,12.72.11,18.96-.5-3.2-.69-3.16-10.2-.12-11.23l.82-2.03,9.69-.15c-.51-4.38.32-7.28,2.5-8.71l.67-2.02c12.63.1,25.2-.05,37.71-.43-.78-4.35-.1-7.27,2.05-8.77.34,0,1.01.14,1,1.03l-.15,10Z"/>
  <path class="st19" d="M129.74,113.88c1.01,4.22.92,8.31-.27,12.25l-7.98.06c.55,4.47-.46,6.86-3.04,7.16-.64,2.14-3.19,3.04-7.65,2.71.66,4.24-.1,7.02-2.25,8.34l-1.13,2-8.82.1c.8,4.37.13,7.33-2.01,8.87l-.88,2.02-16.32.08-.1,7.74-2.02,1.37c-1.91-3.31-.71-7.42-.71-11.03-3.27-.35-3.03-10.68-.02-11.61l10.88-.27c-.08-1.7.09-2.83.45-3.52,1-1.91,6.49-.17,7.91-1.1.96-.63,1.02-3.21.55-5.29l12.07-.65.33-9.99,9.9-.06,1.15-8.99c3.62-1.03,6.93-1.08,9.97-.2Z"/>
  <path class="st13" d="M172.55,88.45c.99.53.67,2-.01,2.05l-2.36.2c-3.39.28-6.53-.43-9.15.94-.91-.19-.92-.39-.02-.61-3.21-.63-2.23-10.66.4-11.95l-.12-6.66.18-37.28,10.64.13.45,53.18Z"/>
  <path class="st5" d="M3.12,90.7l.12-55.52c3.91-.23,7.71-.6,11.4-1.11-.61,18.58-.79,37.24-.55,55.98.78.13,1.4.3,1.46.59.45,2.06-10.77.62-12.43.07Z"/>
  <path class="st20" d="M149.96,10.92l-.03,11.07-40.4.16c-1.94.38-2.01-.43-.12-1.25l.16-9.97h40.4Z"/>
  <polygon class="st14" points="64.06 22.03 25.83 22.03 25.89 10.96 63.98 10.9 64.06 22.03"/>
  <path class="st0" d="M161.01,91.03c-1.62,1.54-4.17,2.01-7.65,1.41-.15,3.2-1.07,5.27-2.76,6.21-.48,1.78-.07,2.83,1.21,3.14l-1.97.85-1.66,1.77c-4.76-1.48-6.55,1.21-5.34,8.08l-2.02,1.37c0,3.43.82,7.29-.97,10.35l-1.35-.07c-.69-2.41-1-5.19-.95-8.35-3.55.67-5.82,0-6.79-2.04-.22.95-.56.99-1.03.12l.21-11.1,9.9-1.04.93-10.95,9.57-.56.58-10.57,10.11-.07.26-7.18c1.22,1.57.67,3.77.52,6.05l-.8,12.56Z"/>
  <path class="st17" d="M64.15,144.2l-10.13.06-.05-10.16-9.9-.16.18-9.79-9.43.08c-.61-2.18-.11-3.74-.15-5.26.22-4.41.93-5.92,2.13-4.53l3.25-.73c1.45-.02,2.94-.37,4.84.27v9.93s9.76.2,9.76.2l.34,9.15,9.06.72.09,10.22Z"/>
  <path class="st22" d="M25.83,22.03l-.03,12.71-11.16.28v55.49s8.99.4,8.99.4c.86,3.03-8.1,4.43-9.21,1.56l-6.89-.63c-1.75-.16-3.34-.24-4.42-1.14l10.41.53.12-55.9-10.42-.16c2.97-1.67,6.63-1.12,10.91-.75l.32-12.35,11.36-.06Z"/>
  <path class="st9" d="M96.52,33.03l.12,11.23c-2.36.42-18.76,1.08-19.66.5-.51-.33-.48-10.42.02-11.94l19.52.22Z"/>
  <polygon class="st11" points="96.58 155.37 96.58 166.5 77.26 166.58 77.29 155.47 96.58 155.37"/>
  <path class="st3" d="M77,32.82l.27,11.43,19.38.02c-.37.51-1.1,1.06-2.15,1.06l-18.21-.05-.07-12.14-12-.03-.15-11.07h12.25s.69,10.79.69,10.79Z"/>
  <path class="st10" d="M109.53,22.14l-.52,10.7-12.49.19.4-11.3c4.91.22,9,.87,12.48-.84l.12,1.25Z"/>
  <path class="st12" d="M108.54,144.4c.92,3.4.73,7.47,0,11.05l-11.96-.09v-11.18s11.96.22,11.96.22Z"/>
  <polygon class="st4" points="76.53 143.94 76.55 155.55 64.06 155.46 64.15 144.2 76.53 143.94"/>
  <path class="st18" d="M161.25,28.01l.1,6.25c-4.14.39-7.46.52-10.99-.02l.46-12.28,10.35-.07c.59,2.48.05,4.29.08,6.12Z"/>
  <path class="st21" d="M118.45,133.35c.89-1.73,1.57-1.37,1.29.62l-.12,10.25-10.41.16c.38,3.91,1.11,7.89-.67,11.08v-11.05s.29-10.31.29-10.31l9.62-.75Z"/>
  <path class="st5" d="M40.06,113.71l-3.61,1.75-1.77,3.52-.13-5.06-8.68-.19-.11-10.96-11.23-.14c-.59-3.5-.34-6.69-.09-10.16l9.21-1.56c.33-.19,1.54-.47,2.13-.02l.1,11.8c3.5-.36,6.5-.68,9.92.03l-.04,11.06,4.3-.06Z"/>
  <path class="st2" d="M130.66,124.2l-.36,9.46-10.56.31-1.29-.62c1.16-2.75.95-5.77,1.06-9.21l11.05-.03c-1.25-3.72-.83-6.94-.82-10.23.31.09.76-.12,1.03-.12,2.77-.75,2.36,7.09,1.92,9.12l-2.03,1.33Z"/>
  <path class="st8" d="M161.01,91.03c-.01.17-.03.4.02.61.79,3.26.55,6.88.23,10.52l-5.49.43c-4.48.53-6.2-.78-5.17-3.94l.18-7.89c3.88-.72,7.08-.44,10.23.27Z"/>
  <path class="st6" d="M149.85,102.65c.26-.86.51-.78.73.14l-.09,10.71-9.66.36.02-11.11c3.33-.72,6.26-.65,9.01-.11Z"/>
  <polygon class="st7" points="139.86 124.22 130.66 124.2 130.77 113.76 139.8 113.78 139.86 124.22"/>
  <path class="st13" d="M161.26,102.16c-3.38,1.43-7.3,1.31-10.68.63l-.73-.14c-.34-1.44.72-2.77.75-4-.13.71.17,3.07,1.23,3.08l9.43.43Z"/>
  <path class="st15" d="M37.9,56.7c-.77,3.18-10.15,2.74-10.95-.31l-6.29-.15.1-11,7.23-.53.18-9.11,7.87-.05c.64-1.38.77-2.57,1.04-4.37l14.82.19-.03,13.84-13.83.13-.15,11.36Z"/>
  <polygon class="st1" points="37.9 56.7 37.88 67.43 26.86 67.46 26.95 56.38 37.9 56.7"/>
  <path class="st5" d="M41.1,123.34c-1.62-.04-1.44-1.99-.3-2.91.74-.59,1.77-2.28,3.15-.5.34.44.07,2.09-.21,2.41s-.75,1.04-2.65.99Z"/>
</svg>