<?xml version="1.0" encoding="UTF-8"?>
<svg id="_레이어_1" data-name="레이어_1" xmlns="http://www.w3.org/2000/svg" version="1.1" viewBox="0 0 177.48 177.48">
  <!-- Generator: Adobe Illustrator 30.3.0, SVG Export Plug-In . SVG Version: 2.1.3 Build 182)  -->
  <defs>
    <style>
      .st0 {
        fill: #136409;
      }

      .st1 {
        fill: #532b08;
      }

      .st2 {
        fill: #61b209;
      }

      .st3 {
        fill: #0a4a05;
      }

      .st4 {
        fill: #def391;
      }

      .st5 {
        fill: #1e6d11;
      }

      .st6 {
        fill: #a6da24;
      }

      .st7 {
        fill: #126c0a;
      }

      .st8 {
        fill: #085506;
      }

      .st9 {
        fill: #0b5807;
      }

      .st10 {
        fill: #c4e947;
      }

      .st11 {
        fill: #ddf575;
      }

      .st12 {
        fill: #0a5a07;
      }

      .st13 {
        fill: #b4732d;
      }
    </style>
  </defs>
  <path class="st2" d="M155.04,70.72l.95,3.73c2.24,4.19,2.62,9.44,1.13,15.73l.4,15.78-2.85,3.65.3,3.61c-2.1.01-4.23-.16-6.39-.53-.28,7.49-1.78,11.49-10.49,11.26.65,3.6-.44,5.7-3.27,6.32-.32,1.22-.8,3.03-1.75,3.14-3.59.44-26.66.74-28.27-.79-.53-.5-.82-1.25-1.05-2.08-.16,1.2-.48,2.94-1.39,3.12-2.16.42-24.2.35-26.28-.12l-2.2-3.14c-.11,1.2-.38,2.56-1.4,3.12-1.15.63-23.68.12-26.22-.23l-2.18-3.15c-2.33.28-3.67-1.82-4.04-6.3-6.76.7-9.31-5.21-8.78-11.41-7.56,1.65-13.41-8.98-6.11-12.77,2-3.63,5.86-5.03,11.6-4.2,6.92-1.16,10.37,2.44,10.37,10.81l12.49-.16c.08-13.85,18.27-15.36,16.73-.54,4.52,1.2,9,2.91,13.44,5.15-.1-10.81,3.29-15.75,10.17-14.82-.03-11.11,11.35-14.62,17.24-6.16l.79,16.81,13.85-.51c-.78-4.97.54-8.32,3.96-10.05,5.42.73,7.35-4.27,5.79-14.99-9.31,1.72-13.29-9.32-6.59-13.72,2.54-3.73,6.79-3.75,12.73-.08-.64,5.62.22,8.41,2.56,8.35.34-3.53,1.93-5.14,4.78-4.84Z"/>
  <path class="st1" d="M103.75,130.55c2.57-.24,3.95,1.72,4.14,5.87,3.27.1,5.34,1.28,6.2,3.54v34.04s-49.37-.09-49.37-.09l-.06-34.06c.44-2.44,2.36-3.58,5.76-3.42-.06-3.41,1.09-5.42,3.46-6.02l29.87.14Z"/>
  <path class="st7" d="M64.28,26.88c5.47,2.57,3.41,10.41-1.94,13.03l-15.42-.04-.03,14.77-3.13,2.17c6.32,4.06,3.07,15.96-6.38,13.77.68,7.62-1.26,10.38-9.26,10.38l.14,16.56-3.11,2.17.09,9.81c3.67-.32,6.18-.4,9.27.33l.1,10.68,9.29.38.19,9.28-10.61-.08-.25-9.14-8.97-.18-.05-10.8-9.21-.82.7-34.76c3.21.44,7.69.1,8.01-1.39l1.25-5.75c2.09-2.29,6.53-1.28,9.11-.98l-.31-29.82,8.95-.26.33-9.2,21.26-.08Z"/>
  <path class="st0" d="M114.79,14.45c-.18,4.69-7.68,4.25-8.42-.13-.42,1.86-1.18,2.9-2.28,3.11l-27.06-.22c-.49,1.95-1.65,3.21-3.5,3.78,1.39-.13,1.36.24.08,1.06.22,6.97-5.42,11.54-9.34,4.84.21-3.66-1.64-9.36.59-13.04,1.86-.58,5.54-.75,6.78-2.21s2.08-3.65,1.97-7.33l32.94-.38c-.15,2.85-1.09,6.33.74,9.01,1.86.4,5.88-.53,7.49,1.52Z"/>
  <path class="st5" d="M155.04,70.72l-1.98,6.35c-.58,2.08-4.79,1.82-6.19.87-2.17-1.48-2.85-5.45-1.03-9.35l-10.87-1.3-3.03-1.84c.05-17.39.07-26.09.07-26.09l3-2.3c-3.07.02-2.94-1.25.17-1.97,2.52,1.34,5.39,1.56,9.86,1.08l.15,29,8.51.83c1.83.18,1.07,3.67,1.33,4.72Z"/>
  <path class="st5" d="M154.67,109.61c-.94-11.25-1.42-24.3,1.32-35.16l8.26.04.06,35.05-9.64.08Z"/>
  <path class="st9" d="M134.83,130.27c-.06,2.91.8,5.67.06,9.9l-20.79-.22c-2.03-.02-6.24.66-8.16-1.1-2.14-1.97-1.74-6.26-2.19-8.31l31.07-.28Z"/>
  <path class="st8" d="M73.88,130.42c.02,2.25.51,5.69-.87,7.7-1.6,2.34-5.87,1.73-8.35,1.73l-20.41.02c-.95-3.99-.12-6.8-.18-9.71l29.81.26Z"/>
  <path class="st12" d="M135.19,35.09l-.17,1.97-1.82,3.09c-8.51,1.13-25,1.48-22.49-10.14-8.79,1.46-13.33-13.97-4.22-14.01l2.08-.08c2.11,8.74,3.11,8.92,3,.54l3.21-2.02c2.11,2.68,1.56,6.91.35,11.9l19.78.41c.86,3.5.49,5.89.28,8.33Z"/>
  <path class="st5" d="M154.98,113.22l-.27,7.38c-3.05-.17-6.64-.07-7.62,2.2l-2.59,5.98c-1.63,3.77-6.91,1.5-9.67,1.49l.21-9.59c3.84-.2,7.06.59,10.72-1.5-1.36-3.57-1.26-8.56,2.11-9.5,2.72-.76,6.26.25,7.11,3.54Z"/>
  <path class="st6" d="M106.37,14.32c1.4.38,1.42.94.13,1.68-1.7,1.68-1.81,4.7-1.45,7.18.47,3.2,3.81,4.75,8.69,3.02l.43,10.38,20.86.48.85,14.98-.89,15.25.26,9.85c3.19,1.01,6.26.65,9.65.78l-.6,20.69-9.28.56v9.88s-20.52.76-20.52.76l-.46-21.33-9.82.28-.62,10.22-9.46.14-.36,13.23c-5.07,3.43-9.42.47-12.76-2.9l-6.35-.96c-1.92-.29-1.48-4.82-1.42-8.29.04-2.22-5.74-2.06-7.82-1-2.37,1.21-2.77,5.37-1.62,10l-19.72.25c-1.02-3.34-.9-6.31-.52-10.48-6.32-.73-12.37-.3-18.41.7l-.19-22.33c3.85.34,6.52.54,9.53-.58-.35-2.93-.72-6.39.34-8.18s5.2-1.69,8.34-.56l.59-11.23,1.23-3.17,14.8-.78c-.05-6.24,3.82-9.55,9.99-9.38-.2-4.17,1.11-6.54,3.94-7.13-.03-2.83,2.08-3.94,6.31-3.32,1.35-7.23-.17-10.19-4.53-8.9l-1.96-3.15c-.15-1.92-.55-3.76.25-6.93l32.59.27Z"/>
  <polygon class="st13" points="104.07 163.68 74.01 163.88 73.84 140.05 103.87 139.87 104.07 163.68"/>
  <path class="st10" d="M73.71,36.35l-.86,10.27c-2.81-.03-5.44-.18-7.55.78s-2.99,4.59-1.99,8.77l-19.56.63.05-20.08,19.9.06.58-9.9c4.46.09,8.55.12,9.34-4.84,4.8-.64,4.79,13.3.1,14.31Z"/>
  <polygon class="st4" points="73.71 36.35 73.61 22.04 73.53 20.98 83.29 21.09 83.11 36.12 73.71 36.35"/>
  <path class="st3" d="M114.79,14.45c-.38,2.88.76,7.57-1.26,10.35-1.17,1.56-6.57.19-6.67-1.74l-.36-7.05-.13-1.68,8.42.13Z"/>
  <path class="st11" d="M44.24,84.87c-2.57,2.39-5.5,1.53-8.97,2.66-.93-2.7-1.49-6.19.07-10.13,2.4,1.5,8.29.93,8.3-1.69.01-4.33.1-6.89,4.32-6.99,2.95-.08,5.76-.56,5.37,4.46-.16,2.1.42,5.82-4.75,4.88-1.02-.18-2.99.03-3.55.51-.83.72-2.26,2.79-.79,6.3Z"/>
</svg>