<?xml version="1.0" encoding="UTF-8"?>
<svg id="_레이어_1" data-name="레이어_1" xmlns="http://www.w3.org/2000/svg" version="1.1" viewBox="0 0 177.48 177.48">
  <!-- Generator: Adobe Illustrator 30.3.0, SVG Export Plug-In . SVG Version: 2.1.3 Build 182)  -->
  <defs>
    <style>
      .st0 {
        fill: #8adcfc;
      }

      .st1 {
        fill: #44bffc;
      }

      .st2 {
        fill: #86ddfd;
      }

      .st3 {
        fill: #bbeefd;
      }

      .st4 {
        fill: #034db8;
      }

      .st5 {
        fill: #0e56c6;
      }

      .st6 {
        fill: #0557cb;
      }

      .st7 {
        fill: #0750c2;
      }

      .st8 {
        fill: #1453b7;
      }

      .st9 {
        fill: #d7f4fd;
      }

      .st10 {
        fill: #0d58bb;
      }

      .st11 {
        fill: #5ccdfd;
      }

      .st12 {
        fill: #165bc4;
      }

      .st13 {
        fill: #0d52c2;
      }

      .st14 {
        fill: #68cdf9;
      }

      .st15 {
        fill: #f4fafd;
      }

      .st16 {
        fill: #0c52bf;
      }

      .st17 {
        fill: #0756c5;
      }

      .st18 {
        fill: #0249c8;
      }

      .st19 {
        fill: #e5f7fd;
      }

      .st20 {
        fill: #044dbd;
      }

      .st21 {
        fill: #1461cf;
      }

      .st22 {
        fill: #0859ca;
      }

      .st23 {
        fill: #0b58c9;
      }

      .st24 {
        fill: #035cd3;
      }

      .st25 {
        fill: #43befc;
      }

      .st26 {
        fill: #72d5fc;
      }

      .st27 {
        fill: #1062d1;
      }

      .st28 {
        fill: #0647b6;
      }

      .st29 {
        fill: #25aafb;
      }

      .st30 {
        fill: #1354c3;
      }

      .st31 {
        fill: #0e54bc;
      }

      .st32 {
        fill: #f5fbfd;
      }
    </style>
  </defs>
  <path class="st26" d="M13.65,41.06c4.92.68,4.59,9.38-.13,10.36l3.25,1.51c-1.91,20.57,3.02,25.48,2.35,1.53,2.9-2.65,7.21-3.28,12.93-1.89,3.13-6.69,10.72-.17,9.1,5.72,3.67.13,8.77,2.1,4.78,4.65,1.65,3.53,2.24,8.12-.97,10.75l-1.47,4.12c5.63.08,8.76,4.07,9.39,11.96,7.3.39,7.12,5.01,6.32,10.84,5.68-.55,12.76,7.12,5.18,8.48l-4.82-.24c-.18,7.58-16.35,10.43-18.47,3.84-.4,4.92-8.35,4.16-8.99-.47-4.92-.15-4.54-7.44,0-8.36-4.32-.26-8.35-1-12.09-2.23.14-1.66-.45-19.16-3.49-13.05,1.42,6.99.42,11.74-3.01,14.25-2.73-5.13-1.54-10.73-1.02-17.53-3.75.64-7.93.96-9.33-1.03-.31-2.49,1.82-3.83,6.4-4l-.71-35.06c-3.24.04-5.05-1.21-5.42-3.76.01-2.32,5.09-1.49,6.71-1.78,3.23-.56,1.73-5.13,2.02-6.71,5.6-2.42,7.1,7.1,1.46,8.1Z"/>
  <path class="st1" d="M64.4,109.08l8.87,2.31c-.1,2.33,1.12,3.41,3.41,3.32l.81,4.11c2.86-.19,4.71.84,5.57,3.08,3.72,1.64,5.27,6.16,4.67,13.57.08-3.18.27-5.23,4.07-5.58l3.32,1.7.69,12.71c4.75-1.85,5.3,9.28,3.72,11.28-.74.94-20.58-.06-23.58-.69-2.85.09-3.95-1.6-3.31-5.05-3.58.61-5.69-.52-6.34-3.4l-2.19-.03c-2.25-7.5-3.22-8.15-2.93-1.94l-3.17,2.21c-1.76-2.38-2.39-6.83-2.31-9.35-1.64-2.38-3.56-4.05-5.76-5.01-2.73-3.67-5.51-7.14-8.34-10.42-4.92.21-5.02-8.12-.46-9.2,4.21.22,10.15.24,14.7-1.16-.04-2.69,1.15-6.6,4.31-5.93,1.59.34,3.89,1.42,4.28,3.5Z"/>
  <path class="st29" d="M121.23,104.06c2.35,1.03,3.26,3.18,2.74,6.44l2.03,3.61c3.18,1.95,6.2,3.86,9.05,5.73,3.14-.34,3.26.86.29,2.19l-.06,2.19c-3.33.74-4.92,2.24-4.77,4.49-5.04,2.1-4.29,4.48-1.82,8.27.07,1.91-7.05.33-7.49,1.99l-2.4,7.49c-2.36.14-3.65-2-3.88-6.41-.45,3.23-1.89,5.35-4.33,6.36.09,2.71-2.14,4.04-6.7,4.01,3.01,1.56,4.18,3.52,3.52,5.87l-7.04.18c-.17,1.26-.5,3.13-1.4,3.28-2.31.38-19.76.56-20.58-.06-1.13-.86-1.92-1.87-2.22-3.29l-1.95-.27c-2.03-2.7-.91-3.54,1.73-1.26l22.76-.22c.72-1.34.92-4.7.39-5.64-.71-1.26-3.93-1.83-6.92-1.35l-.39-17.79c-8.64-1.96.37-10.97,6.43-11.48,2.45-5.44,9.39-8.15,15.08-9.51,1.27-5.66,5.64-12.55,7.93-4.82Z"/>
  <path class="st14" d="M144.31,22.38c2.58.33,3.86,2.41,3.83,6.21,2.83-.26,4.6.81,5.29,3.22,1.5,2.87,1.03,6.52.02,9.5-.1,2.73-1.89,3.95-5.39,3.66-2.52,9.46-19.64,14.13-26.17,6.53-7.54-8.78-7.45-27.85,9.39-23.05-3.12-2.48-7.78-2.89-13.97-1.25.22,3.85-.9,5.85-4.94,4.48-4.88.75-4.91-8.71-.21-9.69.06-2.95-.83-6.55,1.51-8.78,2.64.05,3.91,1.87,3.8,5.43l24.57.42,2.27,3.32Z"/>
  <path class="st27" d="M66.2,21.87c-.24,4.99-8.96,4.58-10.06.47-4.97.68-9.86.52-14.67-.49.42,2.84-2.08,4.21-7.5,4.12,1.51,8.43-8.25,12.61-11.94,5.65-.39-2.3-1.45-7.18.4-9.37l6.71-.78c1.61-.19,1.48-5.14.39-8.92l36.52-.28.15,9.61Z"/>
  <path class="st31" d="M135.35,122.04l-.29-2.19c-7.68-2.55-2.1-11.85,5.47-10.88-.5-8.31,2.37-9.22,9.83-10.39-1.88-11.47,1.29-17.23,9.49-17.28l.48-25.99,3.33-2.25.92-11.46c2.66-.45,5.2-1.04,8.57-.33l.1,43.98c-3.97-.13-6.48-.33-9.64.39l-.02,16.72-9.41.76-.09,9.57-8.99-.34-.35,9.57-9.38.12Z"/>
  <polygon class="st24" points="3.19 84.27 3.46 41.45 12.09 41.71 12.95 84.25 3.19 84.27"/>
  <path class="st22" d="M117.01,12.04c9.14,1.4,19.17,1.28,28.35.09,3.27.01,3.02,7.16,2.07,9.58.43,4.36-1.05,4.5-3.12.67l-30.26-.51-.37-8.66c.84-.8,2.21-1.18,3.33-1.17Z"/>
  <polygon class="st10" points="100.38 156.48 100.34 165.83 76.37 165.82 76.17 156.41 100.38 156.48"/>
  <path class="st21" d="M164.57,41.61c1.68,4.15-.85,8.02-.92,11.46-3.1-.61-4.18-3.21-3.26-7.81-4.89-.66-7.2-5.14-6.96-13.45-2.06-.04-5.76,1.1-7.68-1.05-1.88-2.1-1.29-6.23-1.44-8.38l3.12-.67,8.79.12c-.73,3.19-1.27,8.14.24,8.6l6.11,1.86c2.06,2.74,1.07,7.02,2.01,9.33Z"/>
  <path class="st12" d="M102.47,32.14c7.45,3.2.86,12.19-5.45,13.11.43,2.76-.3,4.64-2.9,6.11-2.4,7.29-15.12,2.11-12.32-6.49-4.16.17-7.87-.13-5.87-4.98.4-5.14,7.17-5.27,8.43-.05,1.91.6,5.2,2.62,7.36,1.29,2.23-1.37,2.01-5.76,1.3-8.6,3.56-1.5,6.57-.8,9.45-.4Z"/>
  <path class="st6" d="M32.12,103.85c-1.74,4.84-7.17,4.69-8.66-.27l-9.92-.76-.34-17.41c3.94-.71,6.62-.62,9.92.8.26,5.03-1.12,11.31.59,16.54,2.14.22,6.92-1.44,8.41,1.09Z"/>
  <path class="st0" d="M112.38,31.68c4.84.94,3.2,8.68-1.47,8.76l.69.99c1.99-.43,5.24-.47,6.94,1.01,1.31,1.15,2.92,4.7,1.97,7.87-1.1,2.65-8.15,1.84-10.69.95-.42-3.92.28-6.29.89-8.84l-1.05-1.11c-.11,2.53-1.45,2.92-3.41,3.22,2.32,8.41-7.91,14.3-12.12,6.82-.32-2.99-.79-6.02.12-9.73l7.84-.73.39-8.77c.1-.62.86-1.51,1.25-2.03,2.48-2.83,7.2-1.89,8.66,1.57Z"/>
  <path class="st28" d="M135.35,122.04c.12,1.8,1.47,5.81-.54,7.68-1.17.58-5.1.02-6.01,1.55-.77,1.29-.15,3.93-.09,5.71-2.2-1.39-5.93.68-7.57.37-2.11-1.6-1.44-5.91-.52-6.11l4.73-1.07c2.6-.59,2.69-5.06,1.98-7.92l8.03-.21Z"/>
  <path class="st23" d="M55.68,137.31c-1.91.21-5.91.59-6.36-.53l-2.33-5.8c-.54-1.35-6.19-.46-5.94-3.27l.53-5.83c1.66.02,6.19-.29,6.57.86l2.12,6.44,5.95,2.05c2.23.77-.48,4.44-.53,6.08Z"/>
  <path class="st5" d="M76.03,31.46c3.1.7,2.86,1.94-.38,2.11-8.53,6.76-19.42-6.29-9.44-11.69l9.51.26.31,9.33Z"/>
  <polygon class="st7" points="41.11 112.68 41.58 121.88 32.37 121.81 32.15 113.25 32.13 112.21 41.11 112.68"/>
  <path class="st4" d="M75.95,154.88c-.6,0-1.38.84-1.73,1.26l-7.98-.21.05-9.5,9.61.09.05,8.36Z"/>
  <path class="st16" d="M110.6,146.43l.05,8.37c.01,1.96-2.37,1.48-3.23,1.5-1.73-1.16-3.48-1.71-6.77-1.84l-.07-7.57,10.02-.47Z"/>
  <path class="st18" d="M22.04,31.61c11,3.95-2.58,20.52-8.39,9.45.03-2.69.63-5.9-1.46-8.1,1.19-2.8,7.1-1.33,9.85-1.36Z"/>
  <polygon class="st20" points="66.29 146.43 58 146.66 57.48 137.29 65.91 137.15 66.29 146.43"/>
  <path class="st8" d="M118.81,146.47l-8.21-.05.18-9.12c2.39-.75,7.4-.87,8.41.8l-.38,8.36Z"/>
  <path class="st17" d="M32.12,103.85v8.36s.03,1.04.03,1.04c-2.84-.65-5.81-.77-9.08-.44-.48-4.27-.09-6.54.39-9.22,2.78.21,5.79.47,8.66.27Z"/>
  <path class="st30" d="M112.17,21.99l.21,9.69c-2.92.68-6.72.62-8.66-1.57-.17-2.51-.33-5,.3-8.04l8.15-.08Z"/>
  <path class="st13" d="M84.36,39.85c-2.59-.81-5.93-.06-8.43.05-5.09-1.32-5.19-4.71-.29-6.34l.38-2.11,8.46.35c.54,3.02.2,5.43-.12,8.05Z"/>
  <path class="st14" d="M145.36,12.13c-.49.85-1.73,1.48-3.45,1.48l-21.61-.02c-1.65,0-2.78-.72-3.29-1.55l28.35.09Z"/>
  <path class="st32" d="M41.48,21.84c5.79.71,11.6,1,17.41.87,3.69,9.28-.97,13.43-13.97,12.43l.9,2.91c8.5,1.59,7.85,17.45.97,20.01-.89,3.54-1.56,4.59-2.59,1.06l-3.03-.83c-1.49-.22-2.65-1.44-3.33-3.17-1.19-3.04-4.25-2.06-5.77-2.56-5.32-1.39-8.79-.76-10.42,1.9-4.28.95-6.99-.06-8.12-3.05l.13-10.36c1.81,0,5.61.91,7.83-.4,2.05-2.09.96-6.59.55-9.05l8.5-.13.25-8.93,10.69-.71Z"/>
  <path class="st32" d="M53.45,62.54c2.6.61,3.82,2.53,3.66,5.76l2.85,8.39c-.28,3.15,1.56,5.89,5.52,8.21l3.77,15.91c3.58.24,5.33,1.73,5.23,4.48.1,3.62,1.23,6.2,3.39,7.75,5.34-1.43,7.07,1.52,5.19,8.86-2.46.33-8.18,1.39-8.66-1.59l-.78-4.91c-.3-1.87-8.21-.85-8.57-2.81l-.64-3.5c.7-1.78.53-5.03-.88-5.04l-5.71-.04c-3.02-.02-1.54-7.26-1.19-10.33l-6.18-.97c-1.19-.19-1.84-15.43-6.55-11.49-5,4.18-10.35,5.13-15.32,1.97l9.98-5.29c2.49-1.32,3.14-4.5,6.45-4.19l2.3-5.22c-3.26-9.69-2.54-10.61,6.17-5.93Z"/>
  <path class="st15" d="M67.67,60.9c-1.44,4.63-10.4,3.91-14.23,1.64-2.23-.26-4.42-2.04-7.41-.46,2.47,2.88,3.75,4.99,3.31,7.37-.32,1.75-2.36,4.43-4.37,4.24l.27-9.28c.13-3.68-1.34-5.72-4.09-6.12l5.62-.22,4.35-1c-4.32-9.36,20.03-9.95,23.85-8.36,11.32,4.7,3.15,13.99-7.32,12.2Z"/>
  <path class="st3" d="M32.07,52.57l-9.67.46c.09,7.43.43,13.67-1.06,20.39l-8.31.99.49-23c6.14-.13,12.44-.86,18.54,1.15Z"/>
  <path class="st9" d="M125.44,92.5c.41,3.6.7,11.47-4.21,11.57-1.45-.79-3.78-.39-3.82.89l-.17,6.06c-4.24,1.76-10.99,2.52-15.02,5.97l-1.5,4.16c-.66,1.84-4.47.96-6.27,1.25-4.31.68-2.28,5.46-2.66,7.48-2.52,13.37,1.63,19.42-6.32,16l-2.42-23.98c-.26-2.6-.98-4.67-.18-7.96l-8.32-.41-.08-8.24c3.07-.81,4.06.27,4.77,2.97,3.87.12,6.56,1.55,8.06,4.27-.35,8.39.9,8.14,3.74-.75,6.24-1.18,11.32-4.56,15.24-10.16l4.79-1.72,2.08-14.77c7.26-7.53,16.27-3.68,12.29,7.37Z"/>
  <path class="st25" d="M163.65,53.07l-.59,32.23c-3.52-.47-6.74-.84-9.35.51l-.09,16.52c-4.05.29-6.83-.13-10.04,1.05.55,3.88,1.35,6.51.55,9.37-3.28-.73-6.92-.8-8.48.58-1.25,1.11-.77,4.85-.6,6.52-4.95,1.52-8.45-.1-11.51-3.56-3.2-3.61-3.75-7.61-2.31-12.23,1.48-4.73-1-8.48,4.21-11.57l1.25-8.43c2.49-2.51,3.74-3.77,3.74-3.77l.91-20.79c.52-3.68,3.63-5.76,9.34-6.21,2.61-3.56,5.72-5.31,9.32-5.27.04-3.3,1.19-5.54,3.46-6.72l-.02-9.5c2.09.04,2.39,5.57.75,8.41,3.36,1.37,5.45.87,9.51.98l-.04,11.87Z"/>
  <path class="st19" d="M153.46,41.31c.09,3.05,1.04,6.12-.09,9.82l-8.12.45c-.89,5.38-6.03,6.08-10.53,5.82l-1.15,26.3c-2.95.73-4.99.42-6.88.37l-3.32-1.75-.4-18.49-18.23.16c-3.89,8.83-28.22,9.64-31.84,2-1.2-2.53.29-3.96,2.95-4.82l1.43-3.45,12.81-1.3c.62-2.5,1.96-4.19,4.03-5.07l9.3-.31c-.86-3.34-.87-6.61.39-8.58,1.06-1.66,4.27-1.65,5.84-1.15l1.26-.88,1.47-8.76c1.59-.37,2.24-4.15,1.09-7.69,7.62-1.18,14.65-.73,21.59-.21l-.8,5.46c-.66,4.52-10.42,1.27-12.62,2.75-1.51,1.02-1.69,5.59-.8,7.85l4.31,10.98c1.37,3.49,17.46-1.26,18.19-2.1.88-1.02,1.28-3.48,1.17-6.01,3.2-1.49,6.09-1.19,8.94-1.39Z"/>
  <path class="st2" d="M66.2,21.87c.04,2.38-1.42,6.66.75,9.63,2.06.81,6.98-.17,8.69,2.06-.33,1.84-.33,4.42.29,6.34.78,2.39,6,1.44,8.01,1.77,1.89,2.47,1.21,6.26.87,9.3l9.31.39c.18,2.37.14,4.74-.56,8.02l-17.71,1.79c-.28,4.9-7.46,4.28-8.18-.28,1.53-1.76,3.99-.97,7.14-1.05,2.06-.05,2.52-6.27,1.11-7.9l-21.89.41c1.06,3.01.7,7.37-1.48,8.19-1.55.58-4.45-1.4-5.76-2.49.89-4.36,2.92-11.42,1.06-15.86-1.41-.81-5.09-1.19-5.52-2.46-.62-1.82-.8-4.05-.7-7.62,4.34-1.3,9.09-.26,14.5-.57.6-3,1.06-5.22.48-8.81-5.92.79-11.09,1.68-15.14-.91l24.73.03Z"/>
  <path class="st11" d="M67.67,60.9l8.18.28c-.12,1.39-.19,4.16.92,5.56,7.17,1.04,14.83,1.65,22.2-.56l3.45-5.43,23.75-.24.5,23.57c.05,2.46,1.55,6.77-1.25,8.43l-.09-7.71-8.94.16-2.51,18.54c-10.18-2.13-7.07,10.37-21.03,10.48-.77,1.72-.55,6.12-2.07,7.01-2.04,1.19-7.02,1.84-6.69-1.97.17-1.95.66-4.96-.02-5.95-.84-1.22-4.06-1.5-6.65-.53l-2.98-7.23-6.21-1.18c-2.99-.57-4.13-9.91-5.93-18.98l-5.05-1.25c-1.25-.31.07-4.54-.51-6.39-1.72-5.47-4.17-9.73-3.33-14.95,4.32-2.71,9.43-1.8,14.23-1.64Z"/>
</svg>