<?xml version="1.0" encoding="UTF-8"?>
<svg id="_레이어_1" data-name="레이어_1" xmlns="http://www.w3.org/2000/svg" version="1.1" viewBox="0 0 177.48 177.48">
  <!-- Generator: Adobe Illustrator 30.3.0, SVG Export Plug-In . SVG Version: 2.1.3 Build 182)  -->
  <defs>
    <style>
      .st0 {
        fill: #0f7206;
      }

      .st1 {
        fill: #1d6713;
      }

      .st2 {
        fill: #f7fceb;
      }

      .st3 {
        fill: #177607;
      }

      .st4 {
        fill: #1d700b;
      }

      .st5 {
        fill: #145f05;
      }

      .st6 {
        fill: #7ab630;
      }

      .st7 {
        fill: #136f03;
      }

      .st8 {
        fill: #0e5303;
      }

      .st9 {
        fill: #0a5708;
      }

      .st10 {
        fill: #176e0a;
      }

      .st11 {
        fill: #116e06;
      }

      .st12 {
        fill: #0e5c05;
      }

      .st13 {
        fill: #116b05;
      }

      .st14 {
        fill: #187208;
      }

      .st15 {
        fill: #177206;
      }

      .st16 {
        fill: #116006;
      }

      .st17 {
        fill: #0f6406;
      }

      .st18 {
        fill: #135c07;
      }

      .st19 {
        fill: #0f6003;
      }

      .st20 {
        fill: #116e07;
      }

      .st21 {
        fill: #0e6304;
      }

      .st22 {
        fill: #cdee86;
      }

      .st23 {
        fill: #90c62d;
      }

      .st24 {
        fill: #116404;
      }

      .st25 {
        fill: #1b750c;
      }

      .st26 {
        fill: #f8fcf0;
      }

      .st27 {
        fill: #116405;
      }

      .st28 {
        fill: #aedc4a;
      }

      .st29 {
        fill: #64a317;
      }

      .st30 {
        fill: #a6d543;
      }

      .st31 {
        fill: #0d6004;
      }

      .st32 {
        fill: #0c6906;
      }

      .st33 {
        fill: #bee266;
      }
    </style>
  </defs>
  <path class="st23" d="M115.31,46.84c2.03,4.51.56,9.32.99,15.05,5.24-.5,10.23-1.45,14.37.8l-1.49,2.55c-13.25-1.2-14.04,2.63-.2,1.59l1.76,2.57,12.82-.32c1.89-.05,3.37.57,4.35,1.41l-1.45,2.6c-18.08-.34-16.81,1.75.42,1.37l1.77,2.61,18.05-.11.19,7.64,7.59.18v8.98c-2.8.26-4.84-.03-7.57-.51l-.21,8.32-19.04-.4c.23,3.9-8.6,4.16-9.54.38-2.52-.95-7.11-1.33-8.23,1.62-2.97-.64-4.1.99-3.4,4.88-3.34.73-6.77.96-10.29.7-.24,1.81-1.81,2.67-4.71,2.59.67,2.97-.16,4.76-2.49,5.37,4.19.61,3.61,13.95-.28,15.15-.23,2.68-1.48,2.82-3.71,2.82l-.47,11.77c-3.58,1.65-6.6,3.95-9.04,6.9,3.97.54,3.78,9.55-.01,10.41-.67,4.04-11.71,3.87-12.73,0l-2.6-1.11-.07-12.78c-5.9-1.03-8.11-5.94-6.62-14.72-1.86-.85-4.77-2.49-5.49-4.09-.25-.55,1.57-10.25,1.91-11.61,4.86-8.3,19.74-7.02,14.71,5.72-3.13,2.15-2.73,3.55,1.2,4.23.74-10.24.96-20.7.66-31.38l2.59-1.9c-2.01-1.18-2.5-1.96-.04-2.38,14.27-.9,28.7-1.31,43.28-1.22l2.14-2.39,20.09-.59-.05-1.06c-4.56-.24-9.03-.89-13.41-1.98-2.42-5.67-2.95-6.05-9.39-5.96-6.93-.01-10.14-2.47-9.63-7.38-8.14-2.22-11.65-.92-10.53,3.9-1.3,2.36-3.69,3.38-7.18,3.07.33,2.37-.48,3.92-2.46,4.63-1.43,3.42-4.11,3.38-5.72.14-6.38-2-3.86-17.22,3.55-17.14v-18.83s2.57-1.87,2.57-1.87c1.74-5.84,5.73-2.5,8.58.94.37,13.2,1.83,16.24,1.84.58l2.62-1.75Z"/>
  <path class="st22" d="M82.47,31.68l2.91,1.75c-.33,16.29-.46,32.54-.36,48.76,2.47.47,3.79,1.69,3.96,3.67.91-3.21,5.32-3.72,7.17-.96,1.59-.48,4.03-.2,5.72-.14.15-1,.53-2.52,1.23-2.55,4.41-.17,29.31.6,31.2,2.32,3.43,3.12,1.98,6.64-2.1,8.04-14.51-.12-28.91.27-43.18,1.17l.04,2.38c-1.88,3.9-5.95,1.2-6.61-2.26-.14,1.01-.52,2.55-1.2,2.56-7,.1-57.53-.11-60.08-1.7-5.72-6.77-2.9-10.07,8.47-9.91-3.92-.68-2.69-7.38,1.01-7.82l1.42-2.59c15.92.37,14.71-1.81.23-1.35l-1.57-2.58c-.36,1.14-.81,1.14-1.36.04.19-.87,1.17-1.38,2.54-1.37h14.2s.27-7.68.27-7.68l15.82.36c.47,2.62-.99,3.83-4.38,3.63-18.4.31,1.25,2.72,8.89,1.46-.5-3.43.32-5.37,2.44-5.81-.55-2.63-.32-4.73.71-6.29-.51-1.88.74-3.02,3.76-3.44-.58-2.96.29-4.72,2.62-5.26-3.62,1.77-3.4-13.62-2.8-14.16,1.44-1.28,7.41-1.29,9.04-.26Z"/>
  <path class="st23" d="M12.44,84.79c.06-1.13.62-1.89,1.44-2.59.65-.56,16.11-1.01,15.76,2.6-1.36,2-5.26,1.53-8.59,1.04.45,2.43.21,4.56-.16,6.45l37.02.9,24.54.67c5.89,2.74,2.53,11.19-3.84,9.7.36,5.97-.61,8.25-6.87,7.99.34,2.56-.45,4.24-2.35,5.04-.09,1.15-.41,1.12-.94.02-.18,2.2-1.05,2.72-2.96,2.55,1.01,5.37.21,9.49-2.39,12.36-2.26-4.19-1.31-8.92-.74-15.49-5.71,1.5-10.82,2.01-15.02-.2l1.12-2.59c12.2,1.34,16.62-3.32,1.98-1.48l-3.15-1.17c-6.54-3.08-15.08.59-17.28-2.5-.94-1.31-.25-4.7-.39-6.72l-17.93-.3c-.37-2.84.64-5.36-1.16-7.93-2.21,1.19-5.87.78-6.05-.56-.06-1.88,1.58-3,4.94-3.35-2.91-.14-4.58-1.2-5-3.18,2.25-1.87,5.34-1.25,8.03-1.26Z"/>
  <path class="st11" d="M69.91,119.44l-.18,11.77,6.33,1.39.13,14.21,6.5.46.08,16.48-6.79-.13-.21-15.29-6.59-.87-.12-14.67c-.01-1.38-3.53-1.55-4.64-1.1.82-4.15,1.28-8.65,1.38-13.49l2.65-1.6.94-.02c3.62-.44,3.71,1.35.52,2.86Z"/>
  <path class="st1" d="M101.63,30.3l8.04,1.2-.03,14.53c.63,1.21,4.32,1.11,5.67.8l-.26,15.17-5.95-.09-.89-14.56c-1.29-1.05-4.73-.59-5.94-.3l-2.62-1.36-.19-10.68c-4.02-.81-5.33-2.31-3.93-4.51.39-3.79,5.16-3.78,6.1-.21Z"/>
  <path class="st13" d="M69.7,53.91c1.14-.2,1.14.11.15.88l-.67,14.71-22.6.31,1.19-7.1c5.11-.37,10.08,1.09,14.43-.91-.46-5.38-1.11-10,.52-14.02,2.72.49,3.7,3.23,2.92,8.2.09-2.95,1.64-3.82,4.07-2.07Z"/>
  <path class="st29" d="M138.13,101.53l-.03,1.73c-7.92,2-5.34,2.73,7.74,2.2l1.74,2.59c-5.13,2.31-11.25.77-16.72.84l-1.06,2.6-10.3.13c-.48,2.34-1.58,3.8-3.31,4.4l.1,12.84c.01,1.36-.7,2.29-1.35,2.81l-2.6-1.1-.23-11.31c-1.87.38-2.57-.66-3.11-2.57l-.16-8.32,15.25.04-.38-7.5,12.06-.7c1.34-.08,2.34.56,2.35,1.32Z"/>
  <path class="st15" d="M30.65,76.98l-1.01,7.82H12.44s.08-7.35.08-7.35l17.04-.06-.19-6.9,1.36-.04c4.06.34,3.92,6.23-.08,6.52Z"/>
  <path class="st17" d="M108.73,131.83c.78.19.77.29-.03.31.07,4.5.39,9.05.96,13.65,0,2.5-4.29,2.35-6.26,2.17-.29,2.48-1.24,2.36-1.75-.16.08,5.33-1.94,12.62-6.14,5.51,0-1.9-.4-3.79.18-6.11,2.37.11,3.99.12,6.4-.52l.41-14.59,6.23-.27Z"/>
  <polygon class="st27" points="147.91 70.48 148.66 77.06 130.58 76.85 130.49 70.55 147.91 70.48"/>
  <polygon class="st16" points="138.13 101.53 147.66 101.15 147.58 108.05 130.85 108.06 130.82 101.81 138.13 101.53"/>
  <path class="st3" d="M82.52,30.33l-.05,1.35-6.54-.25.29,14.66c-.31,3.82-5.98,3.81-6.79.2l.15-14.5,6.25-1.09c-.22-3.85,5.75-3.94,6.68-.37Z"/>
  <path class="st4" d="M95.47,14.73c-.72,4.05-11.82,3.86-12.88,0l.2-7.9c4.31-.62,8.22-.55,12.61-.11.73,3.34.07,5.66.07,8.02Z"/>
  <path class="st14" d="M47.34,115.83c-.32-1.66-.23-3.38-.05-5.24,4.14-3.16,10.11-1.77,15.17-1.23l-.05,6.49-15.07-.02Z"/>
  <polygon class="st25" points="95.5 163.74 95.25 171.46 82.76 171.56 82.77 163.75 95.5 163.74"/>
  <path class="st17" d="M82.59,14.72c2.52.63,3.38,2.96,2.56,7-1.58,1.99-2.45,4.86-2.63,8.61l-6.68.37.11-15.8,6.64-.18Z"/>
  <path class="st20" d="M101.63,30.3l-6.1.21c-4.14-1.11-4-14.28-.06-15.78,1.99,0,3.82-.66,6.78.16.35,5.39.75,10.53-.62,15.41Z"/>
  <path class="st0" d="M130.67,62.69l.07,6.71-13.96.19c-.73-1.86-.63-4.02-.46-7.26l14.35.36Z"/>
  <path class="st5" d="M114.95,131.66l-5.27.48c-.06,1.17-.39,1.13-.98,0l.03-.31.28-15.15,5.86-.05.08,15.02Z"/>
  <polygon class="st10" points="130.86 108.89 130.36 116.03 116.2 116.02 116.11 109.07 130.86 108.89"/>
  <path class="st8" d="M69.7,53.91c-3.07,1.1-.8,5.13-.98,7.15-.23,2.51-4.37-3.67-5.33.33l-.68-13.62c.15-.38.28-.65.65-.64,6.41-2.33,12.72,2.07,6.34,6.77Z"/>
  <path class="st21" d="M102,163.77l-6.5-.03v-10.41c1.16.2,4.57.54,4.91-.76l1.24-4.75c1.65,4.11,1.26,11.15.35,15.96Z"/>
  <path class="st31" d="M68.45,116.6l-.43,11.94-3.6,3.15c-.3.12-1.01-.07-1.32-.18l-.23-14.48c2.35-.86,3.98-.45,5.58-.43Z"/>
  <path class="st6" d="M69.44,46.29l6.79-.2-.05,7.92-6.33.78-.15-.88-.37-6.59-5.97-.18c1.33-1.93,3.87-.77,6.08-.85Z"/>
  <polygon class="st32" points="4.47 92.58 4.41 86.05 12.21 86.24 11.77 92.57 4.47 92.58"/>
  <path class="st23" d="M102,163.77l-.35-15.96,1.75.16-.09,14.51c0,1.09-.86,1.29-1.31,1.29Z"/>
  <path class="st23" d="M109.65,145.8c-2.13-4.11-1.41-9.22-.96-13.65.29,0,.67.02.98,0l-.02,13.66Z"/>
  <path class="st28" d="M89.02,93.73c0-.53.32-1.23,1.34-1.23l41.75-.13c1.71-.04,1.59-6.42-.12-6.49l-30.13-1.13c-.2-1.73-.52-4.07.23-5.77.96-2.17,4.67-1.36,6.87-1.77.53-1.29-.53-6.39,2.03-6.93,4.79-1,9.4.32,14.38.46-.75,1.96-1.11,3.51-.8,5.91,5.88,1.31,11.29,2.06,17.27,1.46-.31,2.12-.37,5.16.54,6.46l15.26,1.64c-.76,2.14-.65,3.9-.13,5.99l-68.5,1.54Z"/>
  <path class="st33" d="M89.06,96.11l-.04,36.43c-4.33-.32-8.14-1.75-11.23-5.06,3.08-1.86,4.58-3.06,5.09-4.62.59-1.8.02-5.86-1.39-5.95-4.62-.31-8.07,1.71-11.58,2.54l-.52-2.86c-.33-1.85-.8-4.62.32-6.52.96-1.61,4.4-1.18,6.53-1.23-.56-3.24-.59-5.73.63-7.24.76-.93,4.06-.34,5.13-.63,1.48-1.89.68-5.36.45-7.11l6.61,2.26Z"/>
  <path class="st19" d="M148.02,100.33l-.45-6.61,13.3-.69c1.25-.06,3.26.02,3.88.65.94.95,1.1,3.37.7,6.18l-17.43.47Z"/>
  <path class="st7" d="M165.62,85.05l-16.83-.46c-.58-2.87-.51-5.27.49-7.17,6.16,1.76,10.55.5,16.12.88l.23,6.75Z"/>
  <path class="st9" d="M167.05,86.83c.87-1.23,4.41-1.2,5.47-.66,1.28.66,1.15,4.26.53,5.57-.67,1.4-3.34.86-4.53,1.01-1.73.21-3.58-2.92-1.46-5.91Z"/>
  <path class="st30" d="M95.47,14.73l.06,15.78c0,1.72,4.82,1.06,6.46,1.08l.27,15.48.21,22.34c-1.7.9-3.3,1.2-5.5,1.45-2.17,4.56-1.91,9.41-.84,14.04-2.2.66-4.76,1.66-7.17.96l-2.59-1.18-.03-54.74c-.28,2.1-1.81,2.35-3.88,1.75l.05-1.35.07-15.61h12.88Z"/>
  <path class="st26" d="M88.98,85.85c-1.48-.43-4.83-.86-6.62.57-1.19.95-.59,3.53.51,5.9l-20.77-.77c5.13-1.5,7.01-2.09,9.18-5.9,2.46-1.39,7.88-.2,11.16.26l-.03-34.87c0-6.77,1.39-13.18.07-19.37,1.89-1.61,1.86-4.72.9-8.35,1.63-.68,3.51-.79,5.56-.54l.04,63.06Z"/>
  <path class="st18" d="M30.65,76.98c.27-2.08.42-4.45.08-6.52,5.05-.13,9.94.84,15.63-.98l-.05,7.51h-15.65Z"/>
  <path class="st2" d="M38.91,84.29c-1.56-.31-.96-3.84.82-3.53,6.57,1.11,9.11-5.57,13.6-2.77,1.06.66,1.32,4.14.46,5.84-4.25,1.5-10.03,1.42-14.87.46Z"/>
  <polygon class="st24" points="30.16 100.51 12.63 100.24 12.12 93.51 30.05 93.84 30.16 100.51"/>
  <polygon class="st12" points="46.84 108.14 30.73 107.96 30.24 101.48 47.09 101.52 46.84 108.14"/>
</svg>