<?xml version="1.0" encoding="UTF-8"?>
<svg id="_레이어_1" data-name="레이어_1" xmlns="http://www.w3.org/2000/svg" version="1.1" viewBox="0 0 177.48 177.48">
  <!-- Generator: Adobe Illustrator 30.3.0, SVG Export Plug-In . SVG Version: 2.1.3 Build 182)  -->
  <defs>
    <style>
      .st0 {
        fill: #0b6005;
      }

      .st1 {
        fill: #f8b8cb;
      }

      .st2 {
        fill: #0c5a0a;
      }

      .st3 {
        fill: #076502;
      }

      .st4 {
        fill: #5eac1d;
      }

      .st5 {
        fill: #569e07;
      }

      .st6 {
        fill: #e0f888;
      }

      .st7 {
        fill: #080904;
      }

      .st8 {
        fill: #5ca908;
      }

      .st9 {
        fill: #186c10;
      }

      .st10 {
        fill: #5cb10d;
      }

      .st11 {
        fill: #fab6d3;
      }

      .st12 {
        fill: #afdf2d;
      }

      .st13 {
        fill: #107802;
      }

      .st14 {
        fill: #75b414;
      }

      .st15 {
        fill: #086206;
      }

      .st16 {
        fill: #88c814;
      }

      .st17 {
        fill: #075c06;
      }

      .st18 {
        fill: #0d0e05;
      }

      .st19 {
        fill: #17680f;
      }

      .st20 {
        fill: #e6f994;
      }

      .st21 {
        fill: #0f6608;
      }

      .st22 {
        fill: #094d05;
      }

      .st23 {
        fill: #076302;
      }
    </style>
  </defs>
  <path class="st17" d="M162.62,122.68c0,2.55,2.1,9.05-1.09,10.57-5.09,2.42-6.02,5.92-10.33,8.81l-8.16,5.47-12.59,1.22c-.41,3-.18,5.84-1.37,8.23l-86.5-.09-.32-9.48,1.39-3.1,82.25-.62c1-5.3,3.15-7.38,6.45-6.24,1.24-2.63,3.83-3.54,7.78-2.75,2.41-2.98,5.42-4.64,9.31-4.46.08-4.48,1.29-7.01,3.63-7.57.84-4.39,8.4-4.49,9.54.02Z"/>
  <path class="st15" d="M20.61,40.48c1.2.32,2.98.81,3.1,1.75.32,2.52.83,24.68.09,25.73-.78,1.11-1.72,1.89-3.08,2.21,4.71.58,4.38,11.09-.15,11.95,6.76,2.12,3.26,14.59-5.95,11.76l-.17,26.48-3.08,2.23-9.4-.13.36-33.11c5.05-.54,6.47-3.5,9-7.57,1.14-1.82,6.32-1.46,4.92-6.71-.53-1.97-2.19-3.76-4.84-5.35l-.22-29.26c3.7-.93,6.5-.03,9.41.01Z"/>
  <path class="st2" d="M162.62,122.68l-3.1-1.36-.2-26.43c-1.99-.44-3.94-1.47-5.83-3.1-4.63.13-4.69-8.41-.31-9.32-4.62-2.17-4.67-10.51-.04-12.72-1.18-.18-2.89-.5-3.06-1.39-.43-2.22-.04-21.33.5-23.36l3.13-2.07c-1.43-2.38-1.6-3.18,1.18-2.25,2.29-.28,4.57-.83,7.81-.07l-.29,29.11c-2.41,1.57-4.31,3.38-4.73,5.4-1.06,5.07,3.03,5,4.63,7.29,2.59,3.7,4.45,7.03,9.28,8.08l.45,32.02c-3.82,1.25-6.68.15-9.43.17Z"/>
  <path class="st19" d="M154.89,40.68l-1.18,2.25c-8.81,2.04-12.75.31-13.65-8.98l-23.62-.65c.51,7.08-.74,10.93-8.66,10.44.49,4.53-.78,7.18-3.79,7.93-1.86,3.5-9.25,2.95-9.65-1.31.03-2.35-1.16-6.79.68-9.37,1.65-1.55,6.19-.85,8.84-.5l.24-10.38c2.59.45,6.98.94,8.38-.72,1.75-2.07.75-6.07.64-8.45l31.46.23c-.83,3.64-.89,7.1.48,8.68,1.19,1.37,5.98.38,7.92.53.86,3.2.08,7.58,1.91,10.29Z"/>
  <path class="st9" d="M68.38,40.54c.14,1.24-.07,2.98-.95,3.09-8.55,1.07-12-.97-11.59-10.03l-21.68-.37c.03,8.55-7.3,15-13.56,7.25l.33-10.52c2.66.43,6.46.99,7.89-.06,1.72-1.26,1.72-5.25.64-8.75l30.22-.06c-.92,3.44-1.06,7.58.41,8.65,1.65,1.2,5.26.87,8.12.32.72,3.8.15,7.21.17,10.48Z"/>
  <path class="st0" d="M42.28,137.54c4.64.62,4.4,8.87-.02,9.87-4.29.03-10.01,1.99-14.04-1.71l-5.94-1.16c-.88-.17-.48-3.64-1.14-5.68-1.03-3.17-6.07-3.28-9.37-2.6l-.39-13.66c-.02-1.25.37-2.99,1.22-2.98,11.1.06,12.35,2.52,11.55,13.68l15.77,1.17,2.37,3.08Z"/>
  <path class="st4" d="M94.33,50.36c3.12.11,6.44,0,9.65,1.31,3.44-1.39,3.73,6.53,2.97,7.7-3.01,4.68-10.76,6.27-13.34.91-2.42-1.45-2.89-3.26-2.59-5.82-7.43,1.39-13.31-.13-17.65-4.56-1.04-4.91-.06-8,2.93-9.25,2.16.77,1.69,6.04,1.1,9.1l16.91.61Z"/>
  <path class="st21" d="M76.32,40.65l.18,10.79,17.48-.09c.31,3.78.27,6.31-.37,8.93-.4,4.96-15.11,4.7-16.45.14l-3.17-1.65c.42-3.4-1.44-5.9-5.57-7.49-4.67-.49-4.52-9.8-.06-10.73,2.35.02,5.5-.77,7.94.1Z"/>
  <path class="st16" d="M162.62,122.68l-9.39.08c-.16,3.89.41,6.98-1.13,10.96-4.56-1.14-8.29-.03-9.91,4.06h-11.9s-.36,8.96-.36,8.96l-87.67.67.02-9.87,1.41-3.09c28.95.5,57.87.09,86.77-1.25.15-6.32,3.87-7.01,9.27-7.72.84-5.93,4.49-7.99,10.32-6.86.28-3.87,1.34-7.86,3.2-11.98-4.63.78-4.71-9.15-.27-9.96-.75-2.59-.59-4.22.5-4.88,2.7-.79,5.71-1.47,8.9-.15l.24,31.04Z"/>
  <path class="st12" d="M68.38,40.54l.06,10.73c2.73-.03,3.83,2.02,3.29,6.15,2.81-.33,4.6-.24,5.44,3l16.45-.14,10.25-.14.12-8.47.93-10.86,8.32-.48.11-10.21,30.52.84.31,9.95c4.15-1.08,7.99-1,9.53,2.02l-.57,26.82-1.51,4.05c-4.74-.81-6.24.62-4.5,4.3,4.09-.7,6.11.76,6.05,4.38l.31,9.32-.5,4.88c-2.26-1.33-15.13-2.62-16.83-1.63-1.16.68-.64,14.13.15,14.65.62.41,14.18.75,13.39-2.52l3.57-.54-.15,15.97c-2.96-.7-6.86-2.07-9.17-.34-.8,1.43-1.06,5.12-2.75,5.8-2.13.85-4.08,1.17-7.1,1.41-.42,2.88-.33,4.83-1.83,7.85-5.39-2.21-9.8.1-14.52.1l-75.46.11c-6.23,0-13.14.22-19.87-1.9-2.01-2.32-1.47-8.23-1.13-12.07l-9.91-.97-.17-31.98,9.41.49-.05-8.98,2.22-3.58c5.49.91,5.01-6.16-.43-5.13l-1.64-3.23-.1-29.69,9.2-.05c.74-3.73.45-6.62.17-10.37l29.04.5.28,9.97h9.08Z"/>
  <path class="st14" d="M20.56,82.12l.15-11.95,8.24.67c.6,3.7.6,6.86-.02,10.82-3.27-.13-5.88-.39-8.37.46Z"/>
  <path class="st5" d="M153.13,69.75l.04,12.72c-1.61-2.05-6.52-.72-8.34-1.71-1.91-2.82-1.32-7.65-.52-10.77,3.51.95,6.57,1.67,8.82-.25Z"/>
  <path class="st8" d="M77.16,60.42l-8.58.14-.15-9.29c1.7-.62,5.4-1.39,7.07.63,2.04,2.47,1.41,6.15,1.66,8.51Z"/>
  <path class="st1" d="M152.98,96.67l.27,9.96-2.4,5.81-17.44.4c-.96-7.11-1.53-13.78-.29-20.92l17.23.14c1.64.01,2.38,3.53,2.63,4.6Z"/>
  <path class="st11" d="M42.88,103.19c-.03,5.79-3.4,8.96-8.41,9.09l-13.39.34.32-20.37,21.52.15-.05,10.79Z"/>
  <path class="st18" d="M40.56,49.92l12.11.21.13,20.31c-5.35.5-10.15.83-15.13-.09l-.35-20.45c-.06-4.34,1.93-4.03,3.25.02Z"/>
  <path class="st7" d="M135.2,70.21c-5.19.88-9.34.63-14.66.11l.34-20.23,13.94.19.38,19.92Z"/>
  <path class="st10" d="M92.97,102.37c2.61-.37,3.71,1.66,3.31,6.1,4.23-.81,6.8.25,7.71,3.16-.6,1.32-2.45,1.74-4.54,1.74l-26.51.04c-1.74,0-2.99-.72-3.07-1.75,1.04-3.13,4.35-4.19,9.93-3.2-.68-2.91.1-4.77,2.98-6.07h10.21Z"/>
  <path class="st13" d="M82.76,102.38c-.15,2.95-.22,5.76,1,9.12l-13.9.16c-.21-2.79-.39-5.67.34-9.16,4.64-1.05,8.6-.1,12.56-.11Z"/>
  <path class="st23" d="M112.37,101.67c-1,1.4-6,1.08-7.48.21-1.86-1.1-1.71-5.4-1.32-8.2.3-2.18,5.2-2.94,8.51-1.49,2.18,1.03,1.86,7.28.3,9.48Z"/>
  <path class="st3" d="M103.99,111.63l-11.07-.1.05-9.16c3.34,0,6.66-.81,10.53.13l.49,9.13Z"/>
  <path class="st22" d="M69.45,101.62c-1.22,1.54-6.32,1.34-7.79.44-1.83-1.12-1.34-5.56-1.11-8.31.18-2.19,5.04-3.28,8.34-1.79,2.29,1.04,2.26,7.51.56,9.65Z"/>
  <path class="st20" d="M40.56,49.92l-3.25-.02c-1.72,0-4.57.5-6.02-.81-1.17-1.06-1.3-4.72-.89-7.41.53-1.76,7.72-2.29,8.23-.12l1.92,8.35Z"/>
  <path class="st6" d="M122.33,41.45c1.74,1.47-.8,4.15-1.87,5.53-1.75,2.24-3.08,3.51-7,2.21l-.14-8.25,9.02.52Z"/>
</svg>