<?xml version="1.0" encoding="UTF-8"?>
<svg id="_레이어_1" data-name="레이어_1" xmlns="http://www.w3.org/2000/svg" version="1.1" viewBox="0 0 177.48 177.48">
  <!-- Generator: Adobe Illustrator 30.3.0, SVG Export Plug-In . SVG Version: 2.1.3 Build 182)  -->
  <defs>
    <style>
      .st0 {
        fill: #11650d;
      }

      .st1 {
        fill: #0c6306;
      }

      .st2 {
        fill: #6bbe10;
      }

      .st3 {
        fill: #095808;
      }

      .st4 {
        fill: #d2f075;
      }

      .st5 {
        fill: #bee948;
      }

      .st6 {
        fill: #96d31d;
      }

      .st7 {
        fill: #522907;
      }

      .st8 {
        fill: #0f6809;
      }

      .st9 {
        fill: #452c0d;
      }

      .st10 {
        fill: #293505;
      }

      .st11 {
        fill: #0a5305;
      }

      .st12 {
        fill: #aa6a28;
      }

      .st13 {
        fill: #0c6307;
      }

      .st14 {
        fill: #0f5d08;
      }

      .st15 {
        fill: #6fba0f;
      }

      .st16 {
        fill: #70be0a;
      }

      .st17 {
        fill: #4d2c0d;
      }

      .st18 {
        fill: #68b50b;
      }

      .st19 {
        fill: #a4db26;
      }

      .st20 {
        fill: #095a07;
      }
    </style>
  </defs>
  <path class="st12" d="M83.92,120.75c2.21.46,3.2,2.16,2.98,5.08,3.14,1.02,4.21-.11,3.19-3.42l3.01-2.15c1.51-4.9,18.15-4.5,20.07.29,2.35.9,3.32,3.11,2.9,6.63,3.78-.3,6.32.63,7.61,2.77,3.32-.35,7.14-1,9.54,1.45-.46,2.59-2.62,3.56-6.49,2.9.1,5.16-1.77,8.4-5.61,9.7l-64.74.83c-5.57-.56-5.71-5.48-5.41-10.37-3.58.39-5.68-.73-6.3-3.36,1.99-1.96,5.62-1.14,8.7-1.94.31-1.78-1.94-8.55,1.13-8.64l3.07,1.25c-.9,4.6.52,6.32,4.28,5.14.02-12.7,13.3-10.43,22.05-6.17Z"/>
  <path class="st7" d="M133.22,131.41l-.03,13.97c0,3.46-3.92,6.17-7.61,6.15l-72.43-.26c-3.1-.01-6.73-3.27-9.06-4.19l.59-15.96,9.53.12c-.19,4.31-.45,6.9.31,10.56l66.58-.83c2.37-.03,2.78-6.99,1.66-8.73,4.01-1.7,7.17-.94,10.45-.83Z"/>
  <path class="st3" d="M154.71,75.95l.03,10.42-16.74.12-.07,9.26-35.18.29c-1.79,1.63-.31,4.67-.74,5.81-.75,3.5-.74,6.98.02,10.43-3.66,3.23-6.64,3.54-8.94.92l-3.08-1.76c0-7.55,0-15.1,0-22.65l3.08-2.19,1.38-3.09,38.93-.22c-.89-3.32-.18-5.61,2.14-6.89.13-1.18.34-2.85,1.23-3.11,3.13-.92,17.29-1.51,17.94,2.67Z"/>
  <path class="st13" d="M164.09,66.48l-3.07-1.75.12-25.4c-3.94.65-6.28-.43-7.03-3.22-.16,1.2-.55,2.99-1.4,3.07-3.71.32-32.25.47-33.23-.88l-.53-3.68c-.01-2.42-.29-4.76.81-8.24l43.94.42c1.48,4.71,3.07,10.15,9.99,9.09l-.23,30.38-9.36.21Z"/>
  <path class="st8" d="M57.83,35.76c.61,4.76-13.21,4.81-14.21.23l-1.77,3.05-26.23-.08.33,14.51-3.03,2.16c2.56.49,3.6,2.86,3.12,7.11,8.57-1.66,13.64,10.02,6.17,13.2-2.77.39-5.62.67-9.45-.03l-.2-9.44-8.94-.04.06-30.4,7.43-.87c.55-3.04.98-5.45,2.6-8.59l43.9-.09.24,9.27Z"/>
  <path class="st14" d="M105.86,43.38c2.71-1.3,3.36-.26,1.23,1.91,4.61-.06,4.43,7.87.04,8.75,1.68,2.52.26,4.47-4.29,5.84.15,5.44-5.26,13.19-8.66,6.37l-.95,9c4.03,1.03,4.16,9.87-.14,11.34.5,4.63-8.44,4.27-9.18-.14l-3.12-1.6-.38-15.35c-2.33.2-3.27-.82-3.88-3.26-2.91.27-4.04-2.18-3.41-7.34-5.83.14-8.38-3.37-7.66-10.53-9.4,1.87-14.66-7.43-7.64-12.6,3.82-.06,7.57-.75,11.78,0l.23,9.09,8.2.38c-.23,3.18-1.01,7.01.56,9.76,1.38.23,4.86-.06,5.74.86.73.76.83,3.07.56,4.55-.69,3.9,1.43,5.31,4.42,4.82,4.64-.77,1.43-8.5,3.55-9.08l4.09-1.13c2.37-2.09.43-7.27,1.01-9.33,2.8-.71,6.39-.1,7.88-2.28Z"/>
  <path class="st20" d="M83.91,86.45c1.19.14,2.96.47,3.09,1.35.69,4.57.35,14.68.08,19.71,1.13,5.94.12,9.84-3.03,11.72-5.65,1.95-14.11-2.54-8-7.87l-.34-15.65-36.38.24-.06-9.55c.14-1.21.54-3.01,1.4-3.08,4.64-.35,39.29-1.11,40.98.04,1.13.78,1.94,1.71,2.26,3.08Z"/>
  <path class="st5" d="M154.11,36.12c6.22,1.23,4.44,8.67-.06,12.05l-26.9.79c.27,5.24-.96,6.64-5.14,8.89-4.17,2.25-18.32,3.53-14.88-3.81l-.04-8.75c.98-2.46,3.7-3.54,8.17-3.26-.46-3.39.46-5.54,2.77-6.45l.92-.95c.63.61,1.78,1.16,3.34,1.18l31.82.32Z"/>
  <path class="st9" d="M76.05,111.36c.1,4.35,3.66,7.37,8,7.87,1.3.55,1.24,1.05-.13,1.52l-18.43-.02-.83,9.69-10.22-.46.08-9.42,9.29-.28c.96-2.93.9-5.38.63-8.75l11.62-.14Z"/>
  <path class="st17" d="M113.17,120.56l-20.07-.29c-4.48-.59-4.31-6.11-.01-7.08l6.73-2.73,2.19-8.61c.45,2.31-.65,6.6,1.22,9.16,1.35,1.85,6.71,1.04,8.99.84,1.22,3.35.97,6.14.95,8.71Z"/>
  <path class="st0" d="M39.24,76.63c4.63.58,4.44,8.77.03,9.77h-16.93s-.14-10.44-.14-10.44c1.7-5.18,15.19-3.98,17.05.67Z"/>
  <path class="st1" d="M118.03,35.58c.28,1.87,1.3,7.05-.74,8.66-2.74,2.16-7.54,1.01-10.2,1.04l-1.23-1.91.17-7.67,12-.13Z"/>
  <path class="st7" d="M123.68,129.95c-2.45.26-7.59,1.72-9.76-.58-2.08-2.2-.77-6.69-.76-8.82l10.71-.09-.19,9.49Z"/>
  <path class="st11" d="M164.09,66.48l-.03,9.39-9.35.08c-3.38,1.11-3.78-5.94-2.94-7.53,3.3-6.23,8.49-8.15,12.32-1.93Z"/>
  <path class="st10" d="M93.1,120.27c-.07,2.14.61,5.1-.27,7.1-.87,1.97-5.84,2.27-7.93.89-1.96-1.29-1.24-5.27-.98-7.51l.13-1.52c-.04-4.65,8.76-3.41,9.05,1.04Z"/>
  <path class="st6" d="M164.09,66.48c-2.84-.02-5.72-.84-9.21.07l-.18,9.39-19.17.44c-.21,1.18-.64,2.95-1.49,3.01-6.46.49-20.71.3-24.18-4.46,2.48-9.23-6.24-8.66-5.01.18-10.31,9.71-12.82,1.48-10.68-8.88,2.94.49,4.61-.97,5.17-3.37.47-2.02.67-3.82-.07-6.74,3.56.18,6.17-.25,7.84-2.1,1.67,5.11,15.5.58,15.85.15,1.28-1.59,1.42-5.11.66-8.4l30.06-.33c1.63-2.98,1.21-6.41.42-9.34l10.13.08-.15,30.28Z"/>
  <path class="st15" d="M135.55,76.39c.85,3.31,1.21,6.43.72,10.03l-43.17.16c-.14-6.74-1.13-13.73,1.09-20.34.9,3.05.6,6.13-.58,9.26,3.46,1.22,7.94.34,8.42-1.24.26-2.61-.29-6.32,1.5-7.6,1.71-1.22,5.05-1.13,7.52-.53,2.29.56,2.7,4.91,1.27,9.08l23.23,1.16Z"/>
  <polygon class="st2" points="93.09 86.59 93.09 113.19 93.1 120.27 84.05 119.23 83.91 86.45 93.09 86.59"/>
  <path class="st19" d="M57.83,35.76l.39,9.27,10.52.37.06,9.98,7.28.57.45,10.29c-.03,4.45-3.54,4.24-4.64.1-2.66-.56-6.43-1.19-7.75.09,5.09.78,3.33,9.96-.26,12.31-1.31.86-24.47,2.65-24.65-2.11-5.31.13-11.35-1.24-17.05-.67-.03-2.38,1-6.25-.68-9-.96-1.58-5.94-1.27-8.28-.71-1.16-3.99-.25-7.19-.33-10.6-.53-2.72,1.22-3.81,5.24-3.28.18-5.61,2.1-9.01,5.75-10.21l15.62-.18c.62-3.05,1.98-5.05,4.1-5.98l14.21-.23Z"/>
  <path class="st4" d="M43.62,36l.02,9.02-21.02.25c-.93,3.6-.8,6.56-.78,10.05l-8.93.33-.46-20.14,31.17.49Z"/>
  <path class="st18" d="M71.89,66.34l4.64-.1,6.89.18.49,20.03-44.64-.05-.03-9.77,24.5-.6.4-9.61c2.2-.97,4.78-1,7.75-.09Z"/>
  <path class="st16" d="M71.89,66.34l-7.75.09-19.45-.4-.18-10.01,19.29.05.46,9.16c3.01-.23,5.64-.25,7.63,1.12Z"/>
</svg>