<?xml version="1.0" encoding="UTF-8"?>
<svg id="_레이어_1" data-name="레이어_1" xmlns="http://www.w3.org/2000/svg" version="1.1" viewBox="0 0 177.48 177.48">
  <!-- Generator: Adobe Illustrator 30.3.0, SVG Export Plug-In . SVG Version: 2.1.3 Build 182)  -->
  <defs>
    <style>
      .st0 {
        fill: #103eb3;
      }

      .st1 {
        fill: #0f3eb1;
      }

      .st2 {
        fill: #0937ae;
      }

      .st3 {
        fill: #1441aa;
      }

      .st4 {
        fill: #0e38a6;
      }

      .st5 {
        fill: #0934a5;
      }

      .st6 {
        fill: #0a42b6;
      }

      .st7 {
        fill: #164fbe;
      }

      .st8 {
        fill: #0b3cb8;
      }

      .st9 {
        fill: #c6e2fc;
      }

      .st10 {
        fill: #0a3ec1;
      }

      .st11 {
        fill: #8abcfd;
      }

      .st12 {
        fill: #f4f8fd;
      }

      .st13 {
        fill: #0e44ba;
      }

      .st14 {
        fill: #0f47ba;
      }

      .st15 {
        fill: #2e71fb;
      }

      .st16 {
        fill: #afd2fc;
      }

      .st17 {
        fill: #0833af;
      }

      .st18 {
        fill: #0f3ba5;
      }

      .st19 {
        fill: #1547ba;
      }

      .st20 {
        fill: #f1f7fd;
      }

      .st21 {
        fill: #70abfb;
      }

      .st22 {
        fill: #2454b6;
      }

      .st23 {
        fill: #1f57c9;
      }

      .st24 {
        fill: #4b89fa;
      }

      .st25 {
        fill: #4d83fa;
      }

      .st26 {
        fill: #f2f7fd;
      }

      .st27 {
        fill: #8fbffd;
      }

      .st28 {
        fill: #94b0e3;
      }

      .st29 {
        fill: #083bb5;
      }

      .st30 {
        fill: #093ab9;
      }
    </style>
  </defs>
  <path class="st15" d="M162.35,66.5c1.53,6.16,1.52,14.95.03,21.26.08,5.22-9.58,5.19-10.59.26-2.9-.06-4.19-2.5-3.87-7.34l-13.26.1c-.17,7.92-3.26,11.72-9.27,11.41-.48,9.85-3.35,19.2-8.9,27.33-.42,2.96-.52,4.78,2.93,4.37,3.05-.32,4.23,2.11,3.54,7.31,3.66-.65,5.79-.62,6.5,3.43-1.5,3.16-7.53,1.08-10.4,1.28-.57,4.48,1.48,10.12-1.82,12.96-3.32.09-4.47-2.85-3.44-8.81-3.02-.42-4.8-1.36-5.28-4.74l-1.29,14.89c-1.69,1.54-4.11,2.51-7.26,2.91.83,4.11-.34,6.58-3.49,7.41-.38,1.56-.98,1.59-1.81.17-5.12-.91-4.41-17.28-3.48-22.04,4.21-6.81,5.99-14.79,5.34-23.92.93-3.22,3.55-4.51,6.76-4.67,1.01-6.95,3.38-15.04,7.18-20.72l-45.2-.67c-.8-3.47-1.97-6.78-3.51-9.94l7.08-1.34c.49-1.53,1.09-1.51,1.81-.03l1.55-3.48,43.19-.18.04-14.07c-7.47-1.73-8.85-4.96-8.68-12.02-4.47-4.71-7.58-12.24-.7-15.24,5.18.98,10.11.64,14.78-1.04,2.1,5.99,3.02,12.45,2.76,19.39,9.1-.18,11.13,3.23,10.35,11.86l26,.38,2.41,3.51Z"/>
  <path class="st24" d="M59.99,54.7l3.39,1.56-.19,17.25c3.4-.28,5.29,1.02,5.67,3.91l-5.97,2.43c2.51.66,4.89,1.02,5.64,1.97.66.84.23,3.09-1.65,5.4l40.08.34c1.84.02,3.04.85,3.53,1.8l-2.06,3.45-40.18-.43c-.86,3.79.7,6.97,4.68,9.55,2.55,10.31,5.72,20.57,9.53,30.76,3.52,4.79,7.36,13.45-.05,15.61-.26,1.57-.83,1.64-1.71.26,1.21,4.2-7.64,4.74-8.99,3.49-1.96-1.81-3.1-10.72-3.39-14.14-.05-.57.26-1.17.67-1.78-2.8-.97-3.82-3.89-3.07-8.79-2.68-.43-5.02-2.03-7.04-4.79-1.16-10.1-3.14-20.23-5.93-30.39-5.84,1.07-9.14-2.72-9.89-11.37l-13.74.24s-1.88,2.77-5.65,8.32c.4,5.19-8.24,4.62-9.02-.3-3.5-.15-8.03,1.5-10.76-1.15.73-2.61,3.21-4.07,7.45-4.38l-.15-14.67,3.45-2.37,1.92-3.51,27.79-.5c-.64-4.45.58-7.1,3.66-7.95l1.44-3.46c2.44,1.67,4.93,2.54,7.46,2.59.67-3.83,1.76-2.67,3.09,1.04Z"/>
  <path class="st21" d="M151.79,88.02l3.4,2.26.3,11.13c-.93-.45-3.23-.06-3.28,1.82l-.29,10.54c-4.07-.1-7.32-.77-10.79.91,1.08,4.14.75,7.89-1.34,9.41-3.28.2-4.46-2.57-3.53-8.31-3.48-1.27-4.54.53-3.17,5.39l-2.93,2.82c-.11,5.23-9.86,4.89-10.75-.08-2.96,1.17-2.13,5.62-2.18,8.97-.04,3.19-4.37,2.04-5.95,1.81-3.06-.44-3.41-2.58-3.1-6.24.18-2.08,1.76-4.27,5.15-5.19-1.39-6,1.46-8.42,4.65-12.25l3.5-13.36.55-7.37c.16-2.15,5.87-1.57,8.08-2.02.69-3.02-.78-7.43,1.17-10.91l20.5-.15v10.84Z"/>
  <path class="st9" d="M68.98,136.14c.87,2.05-1,2.04-5.61-.05-.56,4.61-2.11,4.41-3.36-.02l-.12-1.62c-2.89-.47-4.01-2.95-3.37-7.43-3.52.64-5.81-.37-6.86-3.04-1.18.03-1.66-.42-1.44-1.63-5.2-.06-4.93-7.77-.16-8.82-3.23-.93-6.63-1.17-10.19-.72,0,0-.13-3.73-.38-11.19-1.58,4.12-9.69,4.29-10.97-.12-4.66-1.74-5.16-8.29-2.85-12.16-1.55-1.87-3.32-3.18-7.25-2.44,1.05-1.25,1.06-2.39.71-4.04,2.38,1.93,5.48,2.79,7,1.83,1.31-.82,1.24-5.48,1.74-7.08l21.69-.38.34,12.08c3.2-1.11,7.78-.99,9.21,1.37-1.66,5.04.73,9.03,1.9,13.1l3.64,12.67c.38,1.31-1.44,5.7-.33,6.11l5.61,2.07c3.75,3.36.25,8.75,1.05,11.5Z"/>
  <path class="st23" d="M164.06,54.76c1.34.17,3.28.5,3.48,1.5.47,2.32.61,26.68.12,28.93l-3.47,2.45c-.41,1.55-1.02,1.57-1.82.13l-.03-21.26c-3.25.01-4.27-2.8-3.06-8.43-9.38.96-11.02-2.74-11.61-11.28-3.19.49-5.18.12-7.66-2.09-3.65-3.24-4.09-16.06-4.19-21.24-4.14.28-6.74-.88-7.79-3.48-1.6-.27-1.69-.91-.35-1.9-.39-2.56,1.87-4.11,6.78-4.65v-2.29s-88.93-.02-88.93-.02c-.53,3.78-2.1,6.31-4.7,7.58-.94,1.12-1.53.9-1.79-.59l.22-12.2,100.32.03c.72,3.88-.87,8.88.46,11.64.96,1.98,4.04,1.47,5.05,1.7,3.52.82.42,12.19,2.87,12.6l7.28,1.22c1.52.25-.36,6.44.43,8.35s5.29,1.75,7.22,2.06l1.17,11.25Z"/>
  <path class="st6" d="M14.74,54.53c5.26.08,4.92,11.13-.11,11.96l.22,21.54-10.97-.12-.16-33.53c4.65-1.32,7.78.11,11.03.14Z"/>
  <path class="st14" d="M173.44,88.03c-3.93,1.02-7.01.89-9.24-.39l-.13-32.88c2.73-.61,5.17-1.15,9.73-.66l-.35,33.93Z"/>
  <path class="st28" d="M39.04,18.12c.49,0,1.34.24,1.79.59l1.57-3.49c27.72-.2,55.45-.39,83.19-.59l2.09,3.46.35,1.9c-.57,3.65-1.08,4.15-3.72,2.03-5.84.84-49.19,2.84-51.37,1.35-1.28-.88-2.18-1.93-2.54-3.48l-1.93,3.47-16.16-.04c-2.69,6.4-11.08,2.96-13.04-2.14-.94,2.44-3.92,3.22-8.92,2.34,1.04,5.28-.12,8.53-3.47,9.76,5.8,1.73,5.05,11.87-1.61,10.99-3.09.55-4.3-1.5-3.65-6.13-3.65-.22-5.87-1.61-6.67-4.18,1.07-2.3,5.16-2.66,9.28-1.44,1.8-4.73.72-9.14.83-14.28l13.97-.12Z"/>
  <path class="st22" d="M94.66,160.72l1.81-.17c.54-1.5,1.13-1.47,1.76.04-1.25,3.08-1.49,6.24-1.21,11.28l-15.52.08-.51-10.88-7.86-.36c-1.11-3.76.5-4.99,3.87-6.19-.22-3.18-.02-5.19,3.67-5.96l1.71-.26c3.14.71,4.34,3.66,3.58,8.84,4.77-.9,7.67.29,8.69,3.57Z"/>
  <path class="st0" d="M25.28,44.27c4.09-2.29,4.07,7.97,3.3,9.17-3.32,5.16-11.01,7.04-13.84,1.09l.22-20.56,10.03-.08.29,10.39Z"/>
  <path class="st10" d="M108.07,148.85l-1.16,11.68c-3.57.67-6.14.13-8.68.07l-1.76-.04.03-11.6,10.93-.33c-.9-5.1-1.42-9.61,1.09-13.28,5.29.78,4.67,12.63-.44,13.52Z"/>
  <path class="st13" d="M68.98,136.14c1.01,3.43,2.11,7.32,1.18,12.12,4.28.89,7.4.84,10.52.31l-.31,9.67c-3.32-.1-5.64.77-7.23,2.48-3.11-.14-3.78-3.58-4.32-12.18l-2.32.02c-1.39-3.82-2.43-7.97-3.12-12.47l5.61.05Z"/>
  <path class="st3" d="M23.66,89.36c2.98,3.59,2.72,8.05,2.85,12.16,5.2-.81,5.28,9.32.36,10.42-.22,1.09-.77,1.14-1.6.28l-.03-10.66-10.37-.27-.24-12.23,9.02.3Z"/>
  <path class="st5" d="M59.89,134.45c-3.41,1.5-7.24,1.77-11.71,1.22l-.08-11.54c.32-.94.84-.94,1.55-.15,2.32-.22,7.52-1.47,9.43.81,2.04,2.42.63,7.31.8,9.66Z"/>
  <path class="st2" d="M162.38,87.76c3.21.51,3.85,1.83.85,2.68.6,3.85.41,7.49-.55,10.91l-7.18.06c-5.3-1.74-3.7-8.79-3.7-13.39l10.59-.26Z"/>
  <path class="st18" d="M139.79,124.08l-9.63-.1c-.63-2.52-1.52-6.92-.32-10.45,1.31-1.9,6.75-1.7,9.88-.92l.07,11.47Z"/>
  <path class="st29" d="M130.16,123.98l-.7,10.66c-4.13-.33-6.74-.02-10.26.68l.22-11.42,10.75.08Z"/>
  <path class="st8" d="M117.23,148.88l-9.16-.03.44-13.52c2.82.78,5.22,1.17,8.78.48l-.06,13.06Z"/>
  <path class="st1" d="M63.37,136.09c1.8,1.14,4.78,1.95,4.88,3.56l.57,8.89c-2.78.56-5.45,1.02-9.03.25l.22-12.72,3.36.02Z"/>
  <path class="st24" d="M48.06,113.54c-.15,2.77-1.99,4.13-5.52,4.07,3.07.83,4.97,2.41,5.68,4.74l1.44,1.63-1.55.15-10.88-.19c.29-3.98,1.46-7.41-1.03-11.07-3.52,1.41-10.91,1.82-10.92-.66l1.6-.28c.45-3.14,2.73-4.27,6.82-3.4-.13-3.83,1.13-6.13,3.79-6.9,3.17.96,1.07,7.26,1.47,10.11,2.21.64,9.06-.87,9.11,1.79Z"/>
  <path class="st21" d="M173.44,88.03l-9.94,2.53c1.33,3.9,1.61,9.88-.82,10.79l-.3-13.58,1.82-.13,9.24.39Z"/>
  <path class="st11" d="M162.35,66.5l-32.02-.47.14-11.35-10.12-.32-1.32-20.82-12,.1c-3.48,5.32.1,9.4,3.07,12.45l.61,7.57c.14,1.76,4.69,2.2,8.17,1.29l.24,22.24-48.45.2c-.8-6.85-1.31-14.08-1.52-21.7,0,0,2.71-.54,8.14-1.63-4.21,1.36-3.5-8.88-2.64-10.16,3.58-5.27,15.24-7.02,18.31-1.16,1.03-2.64,1.45-5.55,1.26-8.74-4.97-3.4.24-6.52,5.6-7.14,9.02,3.23,14.07,1.92,15.13-3.95,4.5-.69,8.87-1.67,13.09-2.93,3.61,0,7.24-1.41,11.38.69-.71,10.61,1.84,23.03,4.66,22.86l7.19-.44.79,11.37,10.95.2-.66,11.84Z"/>
  <path class="st27" d="M110.47,89.37c1.92,5.4-.52,10.55-3.16,15.61l-.46,7.33c-.08,1.26-4.94,1.24-6.82,1.91l-1.39,18.52-4.16,6.67.18,21.32-12.47-.13.21-12.27c.04-2.3,1.5-7.54-.32-9.69-3.27-3.87-3.57-7.04-4.92-11.1l-3.87-11.73c-1.27-3.84-4.72-7.23-3.29-12.66-2.63-1.82-5.13-3.7-5.28-6.08-.24-3.72-.22-8.36,3.16-8.31l42.6.64Z"/>
  <path class="st16" d="M128.04,19.99c.36,2.75.94,5.94-1.21,7.83-2-5.25-5.34-5.62-8.74-3.04-1.48,1.12-4.16,3.41,1.28,6.55-11.16,2.85-21.68-4.03-23.77.64-1.56,3.47.4,10.65-2.64,10.76l-3.41-1.51c4.23-6.35-13.86-5.89-15.17-5.1-2.32,1.4-1.73,17.07,2.9,17.92-.19,2.26-4.36,2.54-6.74,2.56l.12,20.77-1.81.03c-1.31-.1-3.32-.32-3.47-1.09-.87-4.37.11-12.69.68-16.99-2.66.2-3.03-2.06-2.75-4.66,6-16.1-1.18-28.83.17-2.33l-3.48,2.36-11.99-.17c-6.84-4.53-3.87-15.59,6.53-15.48-.94-10.18,3.75-11.16,12.51-10.65-.99-4.65.13-7.49,3.37-8.5l57.63.1Z"/>
  <path class="st12" d="M70.41,19.89l.15,12.1-12.35-.04-.59,20.83c-3.2-.58-4.27.1-5.18-.55,3.94-1.9,3.95-4.01,4.17-5.55.48-3.37-2.41-3.65-4.52-3.61-3.58.06-5.04,2.13-3.75,6.02.77,2.32-.34,4-.34,5.45v11.36s-33.37.6-33.37.6l.11-11.96,10.35-.26.19-10c2.52-3.03,1.61-7.31,1.61-10.99-.24-3.05,2.58-4.38,8.46-3.98-.67-4.66.65-7.37,3.94-8.12,2.79.42,5.62-.13,9.24,3.71-.19-1.52,1.07-5.04,2.53-5.03l19.36.04Z"/>
  <path class="st26" d="M63.3,54.68c1.66.8,3.73,1.43,5.59,3.15l-.04,19.6-9.2-.49.34-22.23c.37-4.73,1.87-4.61,3.31-.03Z"/>
  <path class="st30" d="M149.75,102.17c1.7,3.9.56,6.8,0,9.33-1.93.92-7.54,1.21-8.54-.61-1.09-1.97-.47-6.43.41-8.26s7.16-2.68,8.12-.46Z"/>
  <path class="st4" d="M37.48,101.63l.33,10.42-10.94-.12-.36-10.42c3.5-.63,7.53-.93,10.97.12Z"/>
  <path class="st17" d="M48.06,113.54l.16,8.82-9.85-.33c.91-2.78.95-5.14.13-8.36l9.57-.13Z"/>
  <polygon class="st7" points="127.69 18.09 40.84 18.71 41 7.65 138.33 7.67 137.68 17.67 127.69 18.09"/>
  <path class="st19" d="M39.28,21.18l-.66,11.88-11.73.21v-12.95c5.13-2.11,8.98.33,12.39.85Z"/>
  <polygon class="st20" points="92.95 42.74 78.17 43.27 77.27 54.06 69.97 54.91 69.85 32.58 93.41 32.99 92.95 42.74"/>
  <path class="st25" d="M63.3,54.68c-.87-.42-2.43.05-3.31.03l.04-20.91,9.07-.65-.27,21.65-5.54-.11Z"/>
</svg>