<?xml version="1.0" encoding="UTF-8"?>
<svg id="_레이어_1" data-name="레이어_1" xmlns="http://www.w3.org/2000/svg" version="1.1" viewBox="0 0 177.48 177.48">
  <!-- Generator: Adobe Illustrator 30.3.0, SVG Export Plug-In . SVG Version: 2.1.3 Build 182)  -->
  <defs>
    <style>
      .st0 {
        fill: #fcaec2;
      }

      .st1 {
        fill: #fcc8d3;
      }

      .st2 {
        fill: #c0073a;
      }

      .st3 {
        fill: #fa7b9e;
      }

      .st4 {
        fill: #ca0c3a;
      }

      .st5 {
        fill: #f5779a;
      }

      .st6 {
        fill: #bc083c;
      }

      .st7 {
        fill: #bb083a;
      }

      .st8 {
        fill: #bf0a3c;
      }

      .st9 {
        fill: #ca063a;
      }

      .st10 {
        fill: #fba9bf;
      }

      .st11 {
        fill: #fa7898;
      }

      .st12 {
        fill: #d74e72;
      }

      .st13 {
        fill: #fb84a5;
      }

      .st14 {
        fill: #fdf7f8;
      }

      .st15 {
        fill: #bf0a3a;
      }

      .st16 {
        fill: #fcb6c8;
      }

      .st17 {
        fill: #fcf2f3;
      }

      .st18 {
        fill: #fccfd7;
      }

      .st19 {
        fill: #fba7bd;
      }

      .st20 {
        fill: #dd5679;
      }

      .st21 {
        fill: #be0633;
      }

      .st22 {
        fill: #c70a39;
      }

      .st23 {
        fill: #be0738;
      }

      .st24 {
        fill: #c10b3a;
      }

      .st25 {
        fill: #bc0939;
      }

      .st26 {
        fill: #bf043c;
      }

      .st27 {
        fill: #b80835;
      }

      .st28 {
        fill: #bf0c3f;
      }

      .st29 {
        fill: #fcc5d3;
      }

      .st30 {
        fill: #b80736;
      }

      .st31 {
        fill: #f986a4;
      }
    </style>
  </defs>
  <path class="st28" d="M126.26,58.01c4.03-1.23,4.1,1.49,3.32,4.78,1.84-.2,2.6,1.17,2.28,4.11,2.63.32,4.46,1.31,5.5,2.96,2.17-.04,3,1.45,2.49,4.49,4.2-.34,6.86.57,8,2.74,5.7,1.13,13.05,1.18,18.71-.18-.63,3.11-1.14,6.38-1.54,9.78l-24.18-.97v22.45s-8.52.38-8.52.38c0,3.41.72,6.51-1,9.34-2.78-.58-5.72-.5-7.26.96-3.02,2.84.57,9.74-2.25,11.37-4.21-.45-8.34-.82-12.4-1.12-1.07-.29-1.07-.69-.05-1.18-.86-3.08-.97-6.47-.13-9.59l1.67-2.16c3.89.65,7.41.25,10.57-1.21-1.06-8.9,1.51-12.5,7.72-10.82-.76-4.53-.02-7.53,2.21-9l-2.41-1.5c1.21-7.82.28-14.28-2.98-21.53-4.52.74-10.17-.86-5.44-4.58l.44-9.03c-.56-2.69,1.19-2.84,5.26-.47Z"/>
  <path class="st5" d="M59.81,117.22c.23-4.57,7.26-3.77,6.22.69-.05,1.96-1.23,2.94-3.53,2.94.89,4.13.14,7.21-2.25,9.25l-.88,10.24-4.3,2.12v11.33s-2.41,1.67-2.41,1.67c.78,3.55-15.04,2.97-16.41,2.44l-1.67-2.41-2.44-.98-.29-11.92c-1.08-.04-2.17-.05-3.25,0v11.36s-2.43,1.67-2.43,1.67c-.37.02-1.1-.39-1.15-1.3l-.67-13.48c-2.99.38-7.61,1.14-9.18-.63-2.21-2.51-.86-6.63-.73-10.44-2.99.77-8.29,1.34-9.49-.8-.8-6.78-.02-13.3.41-19.26l2.44,1.33.54,15.66c1.6.35,2.7.22,3.31-.4-.07-3.9-.06-7.65.46-11.54.09-.69,1.94-.67,3.04-.29l2.43.98.16,10.77c6.95.13,13.95.73,21,1.79l6.35-7.54c-9.2,1.66-13.2-5.97-4.3-9.89-1.25-1.55-1.79-3.1-1.62-4.66,2.37-5.08,12.73-1.79,11.56,4.33,1.74,1.21,2.86,3.11,3.36,5.72,2.58-.53,4.49-.11,5.73,1.25Z"/>
  <path class="st7" d="M49.03,69.91c.94.11,2.35.42,2.41,1.1.36,3.9.27,30.12-.89,31.87-.29.43-.9.65-1.61.81l2.01.67c2.8-2.57,5.07-1.63,6.81,2.82,4.9.63,6.44,8.2,2.06,10.05-1.78.79-5.85,2.4-7.71.13-.99-1.21-.84-4.75-3.3-5.85l-.96-5.2-8.68-.39c-7.24.48-14.61.65-22.1.51l-1.72-2.4c-1.19-1.92-.91-6.07-.29-8.86l23.35-.1.02-25.14h10.61Z"/>
  <path class="st26" d="M108.27,38.35c.65,3.41.85,6.9.59,10.45-14.42.15-28.61.11-42.56-.13.06-3.45.39-6.91.99-10.37l40.98.04Z"/>
  <path class="st2" d="M109.38,130.26l-.11,9.9-38.51.34c.35-4.42.96-7.94-1.01-10.62-.64-2.53.22-2.79,1.57-.52-.77-3.27,12-2.67,13.78-2.09.41.14.62.92.76,1.88,8.01-.1,15.86.27,23.53,1.11Z"/>
  <path class="st8" d="M66.03,117.91c5.79.83,11.55,8.12,5.29,11.44-.64-.02-1.28-.16-1.57.52-2.67-.15-5.36-.5-8.47.32l-.43,24.86c-3.09.71-5.69.41-8.18.41v-15.41c1.98.1,4.25-.18,4.99-.98s-.15-3.74.21-4.95c1.69-5.66,3.72-9.83,1.3-16.52,3.5.56,4.87.71,6.86.3Z"/>
  <path class="st31" d="M165,38.44c-.93,4.38-9.26,3.54-9.75-.9-2.57-1.47-3.35-4.88-2.35-10.21-1.66-.87-3.25-1.96-4.78-3.28-.11,4.33-.45,8.81-1.01,13.42l-2.75.09c-4.06-1.95-8.02-2.73-11.88-2.32-.07,2.51-1.14,3.29-3.58,2.32l-2.4-1.35-.08-9.67c-3.28.6-5.25-.23-5.91-2.51,2.24-2.07,5.6-1.11,8.44-1.07l1.39-2.39,14.37.22c-.48-2.62-.57-4.37,2.32-5.35,1.47.53,1.55,4.39.75,6.65,2.93,1.28,5.52.65,8.74.75l.15,14.65c3.08-.28,6.57-.96,8.34.95Z"/>
  <path class="st25" d="M14.17,103.57c.39,1.99.72,4.08.98,6.27,3.56-.23,3.36,3.8,0,4.63-.52.41-1.05,1.25-1.05,2.41l-.04,12.55-8.36-.45-.33-19.27.42-5.89,8.39-.25Z"/>
  <path class="st20" d="M165.03,86.69l.41-8.28-16.15-.05c-.97,0-1.41-.82-1.43-1.27l1.34-2.41,13.63-.02c.28-5.25-.04-10.19-.96-14.82-5.29.46-9-2.23-8.34-7.72-4.25.38-6.15-.86-5.71-3.73l1.37-2.38,12.53.29c.16-3.94,1.25-6.56,3.28-7.86,1.97,1.92,1.5,5.56.83,9.03,2.91,1.02,5.53.55,8.84.79v29.96s-9.12.06-9.12.06c.94,3.37,1.26,6.49-.52,8.4Z"/>
  <path class="st12" d="M108.27,38.35c1.77,2.14,1.55,5.44.86,9.31,3.89,1.14,7.62.48,11.23.47.09-3.58,2.45-3.27,3.47-.16l1.26,2.27c-2.03,2.19-1.63,4.3,1.21,6.33,1.22.49,1.19.97-.05,1.44-.71-.54-4.57-.55-4.63.7-.16,3.6.55,6.45-1.07,8.8-3.69.55-3.75-9.31-.21-10.04-2.04.2-2.97-1.68-2.79-5.64-4.28.82-7.02,0-8.23-2.42-.41,3.74-9.7,3.82-10.62.28-3.2-.15-5.81.3-7.83,1.36l-.69-1.63c-1.68.31-3.33,1.09-4.96,2.35l-15.86-.12c.74,3.72.04,6.46-2.09,8.21-4.87,1.35-8.17.67-9.89-2.03-1.5-3.98,2.85-3.9,6.27-3.67,2.6-3.71-10.49-2.96-10.86-2.4l-.04,16.49-2.41,1.69c-.41,1.04-.84,1.01-1.31-.04l.1-21.71,17.26-.49c-.69-3.97-.9-7.22.9-9.41l-.18,10.09,41.06-.21.1-9.84Z"/>
  <path class="st22" d="M128.89,37.56c1.08,2.26.02,2.79-2.08,3.28.91,4.65-.08,7.02-2.97,7.12l-3.47.16.13-24.09,8.51.13-.12,13.4Z"/>
  <path class="st6" d="M52.67,155.47l-.43,8.32-17.74.5c-.95-3.49.08-6.12.08-8.78l18.09-.03Z"/>
  <path class="st21" d="M147.02,15.44c-.42,2.48-.04,4.5.95,7.81l-19.03-.29.42-8.02c6.15-.39,12.08-.88,17.66.5Z"/>
  <polygon class="st24" points="34.58 155.5 26.17 155.62 26.19 140.16 34.21 140.13 34.58 155.5"/>
  <path class="st13" d="M109.34,49.41c2.06-.19,3,1.72,2.79,5.72,4.26-.86,7-.07,8.22,2.34l.21,10.04c.03.76.09,1.74.68,2.51,3.12-.43,4.69-.49,8.01-.06-1.21,4.07,1.13,6.61,2,9.68,1.47,5.22,0,10.74.15,15.47.26,2.2-1.29,3.25-4.64,3.15l-3.52,6.4c-3.3,2.74-5.63,6.05-6.99,9.95-2.31,1.18-4.64,2.42-7.01,3.71l.13,9.59c-1.24.12-3.34-.66-3.17-1.1.4-1.05,2.85.63,3.22,2.28,4.01.08,8.45-1.19,12.4,1.12l-12.44.05-38.07-.91c-.03-1.71.73-5.53-1.14-7.04-1.94-1.11-4.63-1.68-4.15-4.41-1.43-1.36-4.39-1.5-6.22-.69l-.13-7.36c-4.05.53-4.51-2.6-5.83-4.83-.97-.39-4.91.53-4.9-1.34,2.86-6.78,7.46-8.79,13.79-6.02l.76,3.44c4.91.1,7.63,1.92,8.14,5.45l17.03.19c.45-2.82,1.68-4.58,3.71-5.28l9.81-.16c1.33-1.9,2.95-3.61,4.87-5.12l1.5-17.86c3.73-4.58,1.98-8.46-5.24-11.65-.89-1.85-1.45-3.87-1.66-6.06-4.96.5-9.06-.32-12.31-2.45-2.62-6.55.5-9.37,9.36-8.48l10.62-.28Z"/>
  <path class="st5" d="M15.34,104.02c3.51.63,3.19,5.14-.19,5.82-1.48-1.76-1.08-4.07-.98-6.27.13-2.75-.95-6.26.88-8.41l.29,8.86Z"/>
  <path class="st1" d="M131.4,95.12c.13,3.98.74,7.64-.21,12.23-2.46-1.05-4.51-1.46-7.11-1.1l-.23,10.66c-4.83,2.41-9.78,1.89-14.61,1.41-.02-1.1-.02-4.68.85-4.58l3.76.42,2.47-5.87c4.06-3.36,7.09-7.06,8.58-12.18l6.5-1Z"/>
  <path class="st3" d="M138.17,69.85c0,1.07-.28,1.04-.8,0-2.53.02-5.07.19-8.09-.74.67-4.67-.72-7.94-3.03-11.1.26-.47.18-1.07.05-1.44,1.51-13.54,18.46-15.08,11.61.06,12.81-4.25,15.69,4.19,3.72,10.36-.91,1.27-2.06,2.23-3.47,2.87Z"/>
  <path class="st18" d="M109.37,127.91l.05,1.18-24.18-.51c4.62-1.58,8.77-.53,13.44-.49l.32-9.47,9.65.12c-.82,3.98-.85,6.9.72,9.17Z"/>
  <path class="st11" d="M147.86,77.09l-10.37.08-.13-7.31h.8c4.52-6.27,17.61,1,9.69,7.23Z"/>
  <path class="st16" d="M39.16,105.91c1.04.96,2.93,1.53,3.59,2.44.87,1.2.47,4.13-1.21,4.45-2.41.47-2.86,1.07-3.03,2.37s-.19,2.68.54,2.89c.96.28,2.88-.09,3.96-.15l4.34-.24c4.8-.26-2.19,5.95-7.54,12.84-8.67-1.49-16.13-1.97-24.45-1.14l-.22-14.91v-4.63s.2-5.82.2-5.82l20.58-.18c1.96-.02,2.78,1.14,3.24,2.08Z"/>
  <path class="st19" d="M51.14,150.49c-3.41-1.58-5.52-2.42-9.08-2.42l.39-16.27c2.78-1.38,6.34-2.99,8.8-5.53l5.27-2.36,1.2-5.54c1.88,3.21.78,5.99.96,9.66-1.78,1.3-4.23,1.46-7.06,1.4l-.47,21.06Z"/>
  <path class="st23" d="M32.14,130.56c-3.36,4.09-7.58,2.41-6.64,10.12l-10.16-.77-.33-9.91,17.13.57Z"/>
  <path class="st10" d="M57.58,69.94l1.34.46c-.59,3.54-.24,5.87,1.05,6.98l.9-6.07c9.65-3.41,11.89,1.42,6.74,14.49l-1.41,13.57-2.71,1.73c-2.01-2.16-7.81-3.48-10.16-.65-.77.93-.87,2.71-1.47,3.09-.69.44-2.21.34-2.92.14l.09-33.78,1.31.04c-.44-3.62,6.58-3.45,7.23,0Z"/>
  <path class="st0" d="M147.09,37.47c3.64.14,7.28.83,10.9,2.05-.02,3.43-2.58,5.5-7.68,6.2l-2.5,2.67c2.17,1.82,5.43,1.05,8.64.85-.5,2.28-1.15,5.73.35,7.05,1.97,1.73,5.38,1.15,8.15.77l.33,20.05h-17.43s-.28-6.6-.28-6.6l-9.41-.65c-1.02-5.64,6.49-5.75,9.65-11.24-6.64-2.51-11.71,1.77-17.31,4.43-2.11-2.79,5.9-4.28,7.3-12.62.42-2.48-5.88-2.7-6.28-1-.77,3.59-2.05,6.07-5.21,7.15-1.11.37-4.21.48-4.6-.71-1.2-3.83.61-6.07,2.13-7.9,1.26-2.13.24-6.24.68-8.89l4.37-1.51c1.4-.48,1.13-3.34,1.28-4.86,1.84.23,3.85.2,6.13-.44l4.76,2.02c3.14-.08,5,.92,6.04,3.19Z"/>
  <path class="st4" d="M155.24,37.54c3.03,1.46,6.34,1.2,9.75.9l-.15,10.34-17.03-.39c-1.07-.9-.75-3.1-.01-3.8.98-.92,2.62-1.75,4.28-2.04l2.6-.45c.86-.15,1.3-2.2.85-2.86-1.3-1.95-7.23.9-8.44-1.77l-.19-12.25c-.02-1.01.77-1.18,1.2-1.17,3.01.38,4.32,1.33,3.91,2.84-1.46,2.29-1.98,5.01-1.57,8.18,2.74-.72,4.54-.69,4.8,2.47Z"/>
  <path class="st27" d="M155.24,37.54c-1.86-.9-4.58-.11-7.38.73l.43-10.55,1.96-1.9c.34-.33-1.75-1.38-2.15-1.78l7.21.12-.08,13.38Z"/>
  <path class="st30" d="M173.56,76.98l-7.7.25c.96-9.64.13-18.07-.86-27.94l8.46.23.1,27.46Z"/>
  <path class="st29" d="M98.71,49.69c-2.13.06-4.07,1.54-7.67.66-.39,2.86-.27,4.85.51,7.4l12.53.56.66,6.8c4.47,1.29,8.74,6.37,8.74,9.1,0,1.35-2.43,2.88-2.55,4.52l-1.38,18.2c-.68,1.71-5.33,2.82-4.11,6.74l-14.05.23c.4,1.96.81,3.28.59,5.3l-22.82-.26c-.65-1.49-.19-3.01.07-4.48l-3.85-.35c-1.66-.15-1.53-2.08-1.87-3,1.33-7.48.64-15.52,3.71-22.91.97-2.33,1.73-3.83.11-5.27-1.1-.97-4.44-2.56-5.8-1.14-.72,1.18.51,4.39-1.54,5.59-1.87-1.12-1.58-8.26.33-9.48l4.29-.56c5.31-6.62,11.85-11.52,19.61-14.69.72-2.22,2.71-3.3,5.98-3.23l8.53.27Z"/>
  <path class="st17" d="M90.19,49.42c-3.02-.27-3.1,4.3-4.59,5.2-3.25,1.95-11.23,3.69-13.84,9.54l-5.52,4.99c-.96.87-4.53,1.14-5.96.79l-.29,7.45c-.77,2.08-3.27.8-2.18-1.09l-.22-6.35c-3.79-.64-3.78-11.02-.19-12.11l9.76-.03-.28-8.67,23.31.29Z"/>
  <path class="st9" d="M57.39,57.83l.19,12.11h-7.23s0-20.53,0-20.53l15.93-.39c-.03,3.39.07,5.43-.91,8-3.43-.83-6.19-.78-7.98.81Z"/>
  <polygon class="st15" points="120.35 57.48 109.46 57.57 109.34 49.41 120.27 49.42 120.35 57.48"/>
  <path class="st14" d="M75.58,85.66c-1.87,1.85-4.15,2.25-5.37,6.14-.49-4.34.63-9.01,1.09-12.92,1.21-.73,3.63-1.49,3.63-2.52l-.03-5.22c2.68-1.01,7.18-1.01,9.99.14.89.74.85,3.91.55,5-.33,1.2-1.94,2.36-3.61,3.17-3.27,1.59-4.19,4.18-6.25,6.21Z"/>
</svg>