<?xml version="1.0" encoding="UTF-8"?>
<svg id="_레이어_1" data-name="레이어_1" xmlns="http://www.w3.org/2000/svg" version="1.1" viewBox="0 0 177.48 177.48">
  <!-- Generator: Adobe Illustrator 30.3.0, SVG Export Plug-In . SVG Version: 2.1.3 Build 182)  -->
  <defs>
    <style>
      .st0 {
        fill: #0b680f;
      }

      .st1 {
        fill: #6c0303;
      }

      .st2 {
        fill: #6c0403;
      }

      .st3 {
        fill: #720402;
      }

      .st4 {
        fill: #6c0404;
      }

      .st5 {
        fill: #fdfafa;
      }

      .st6 {
        fill: #54b92c;
      }

      .st7 {
        fill: #760909;
      }

      .st8 {
        fill: #f23326;
      }

      .st9 {
        fill: #6e0202;
      }

      .st10 {
        fill: #6e0503;
      }

      .st11 {
        fill: #740504;
      }

      .st12 {
        fill: #770d0b;
      }

      .st13 {
        fill: #6e0302;
      }

      .st14 {
        fill: #6e0404;
      }

      .st15 {
        fill: #790d0b;
      }

      .st16 {
        fill: #065809;
      }

      .st17 {
        fill: #6d0302;
      }

      .st18 {
        fill: #dd1f18;
      }

      .st19 {
        fill: #ca120e;
      }

      .st20 {
        fill: #711414;
      }

      .st21 {
        fill: #0a610e;
      }

      .st22 {
        fill: #632a0d;
      }
    </style>
  </defs>
  <path class="st8" d="M69.69,45.64c5.02,1.99,1.11,8.12-2.19,10.1-3.41-.2-4.63.71-3.64,2.73,3.51-.64,5.71.05,6.62,2.08,1.01-2.01,3.5-1.69,7.46.95,5.83,2.09,11.92,2.67,17.2-1.07,5.35-.21,7.33-1.51,5.96-3.9-3.85,1.02-6.47.54-7.84-1.45-4.28-1.09-3.74-12.01,1.95-8.73l1.21-1.9c8.49-.96,17.04-1.41,25.64-1.35l1.45,1.99c.84-1.86,1.59-1.57,1.31.47,2.29.63,2.45,2.9.47,6.82.7,2.78,2.66,5.31,5.86,7.59.63,4.35,2.72,6.78,6.28,7.29,1.38,16.53,1.54,33.12.47,49.77.08,5.26-3.51,7.38-10.76,6.37,1.37,8.77-1.77,13.11-9.44,13.03.58,8.57-5.91,8.9-12.63,8.75-2.78,10.44-12.94,9.78-15.33.01h-16.87c-.24,3.07-.78,6-1.64,8.8-2.67.82-19.41,1.59-21.34.68-.29-.14-2.94-1.76-3.15-1.94l-.67-8.3-8.46.07-1.39-2.01c-2.15-.76-9.68-3.21-9.12.83l-2.02,1.23c-.58-1.56-1.27-3.94-1.23-5.49l-2-.94.48-19.07c-3.77.7-6.2.03-7.29-2.03l-2.03-.92c-.09-15.44-.19-30.89-.28-46.34l2.02-1.22c1.26-1.86,3.66-2.93,7.21-3.22l.5-11.81c4.67-.38,9.38-.64,14.13-.78-3.71-1.11-1.59-7.85,1.71-9.51,1.34-.67,26.43.11,29.96.38l1.44,2.04Z"/>
  <path class="st18" d="M157.92,67.78c3.33.07,7.12-1.12,10.2.81l-.11,1.35c-2.41.66-5.2.85-8.35.59l.07,44.83-2.02,1.2c-.99,2.18-3.66,3-8,2.43l-.1,18.89-2.03,1.43-.86,2.03c-6.77-1.24-9.65.48-8.64,5.15-1.09,3.7,1.5,5.06,7.77,4.06l1.32,2.04c-4.11,2.19-9.86-.2-10.58,1.48-.9,2.11,1.15,6.96-1.12,9.68l-1.35-.07c-.68-2.33-.99-5.03-.93-8.12l-6.81.43c.72,3.95.03,6.54-2.07,7.74-.09.79-.34,1.99-.9,2.02-3.47.24-28.98.75-30.08-.28-.86-.8-1.07-4.07-.55-5.36l-1.82-3.46-11.14.11c.7,3.6.04,5.91-1.99,6.92-.24.91-.6.92-1.08.09-.09.79-.32,1.96-.88,2.03-3.6.43-22.08.93-24.93.29l-1.49-2c-.06.9-.35.92-.84.11l.05-.36c-1.68-1.76-2.27-4.48-1.79-8.15h-8.08s-1.38-2.02-1.38-2.02c-.77-.18-1.24-.46-.91-1.2-3.17-.45-3.29-9.09-.29-9.99l12.15-.09.12,10.24,21.5.3.76-9.76h21.12s1.36,6.15,1.36,6.15c2.12.88,5.53,2.09,7.5.6l2.75-6.13c1.85-1.41,4.6-.68,6.57-.67,3.86.02,6.05-2.48,5.66-6.07-.54-4.94,8.98-1.8,9.1-5.18l.39-10.48,10.5-.33c.88-17.9,1.07-35.15.4-52.95-1.67.14-5.11-.38-5.41-1.65.15-4.13-1.48-6.87-4.89-8.5-5.39-5.77-.57-7.55-.98-12.4,1.43-2.6,4.51-3.45,9.25-2.56,2.92,1.24,4.38,3.99,4.39,8.24,5.46-1.07,9.4.06,11.8,3.38l.23,10.92c3.86-.58,6.34.16,7.43,2.23Z"/>
  <path class="st22" d="M92.72,25.14c.77,3.07.95,6.64.53,10.7,1.27,1.58,1.55,4.16.82,7.73,1.29.44,1.29,1.35,1.12,2.79-.58-.1-2.1-.13-2.3.94-.51,2.72-.04,5.17.35,7.79-.2,4.92-10.89,4.27-13.39.9.23-1.48.5-9.5.14-9.83-.39-.36-.81-.7-1.24-1.02-2.31.23-6.74.61-8.78-.4-.07-.03.23-.65.64-1.43.11-1.99,2.06-2.62,5.86-1.9l.57-3.2c-7.02.52-9.8-4.61-6.32-10.44v-1.71c-.99-1.63-1.44-3.37-1.21-6.25l-8.72-.6.3-15.41c4.06.11,8.21-.46,11.32.36.38.9.42,3.25,1.24,3.44,1.14.27,2.66.31,4.58-.04l.28,6.98h5.95s.16,10.64.16,10.64l8.09-.03Z"/>
  <path class="st6" d="M137.59,4.88l-.91,2.02-30.64.27c-.52,2.45-.37,4.24.45,5.36l28.05-.11c4.78.08,5.04,11.89,1.68,13.63v17.56c-3.81.19-4.16-6.62-.87-8.21-2.1-.58-2.8-2.91-2.1-7.01-1.96-.67-4.22-.85-6.77-.54.82,5.34-.64,8.01-4.37,8-.09.79-.34,1.98-.9,2.02-3.25.25-27.15.43-28-.68-.46-.6-.28-14.31,2.04-13.97,6.08.57,7.47-.11,5.57-6.17-4.04.73-6.7.04-7.98-2.08,2.81-1.79,6.31-.9,10.21-.94l.49-10,31.97-.28c1.1,0,1.8.52,2.07,1.1Z"/>
  <path class="st2" d="M70.62,43.3c0,.36.3,1.02,1.1,1l8.33-.16c-.22-2.56-.82-4.91.5-7.09l1.07,18.6c4,1.25,8.29,1.06,11.64-.57l9.65-.71c.86,2.88.93,5.23-.39,7.57-5-1.08-7.94.76-11.12,2.8-12.67,1.95-18.19-4.17-20.91-4.19-3.52-.4-3.48-6.01-.2-7.73,5.4,1.68,7.6.26,6.6-4.25-3.85.5-6.24-.48-7.18-2.93l-32.33-.41-.78,7.5c-3.99.5-8.39.64-12.22-.17l-.15-8.23,10.12-2.2c.51-3.57,2.03-5.72,4.54-6.44l25.93-.1c5.79-5.26,11.59,4.05,5.83,7.71Z"/>
  <polygon class="st11" points="168.12 68.59 168.07 116.85 157.7 116.55 157.63 68.31 168.12 68.59"/>
  <path class="st0" d="M137.59,4.88c-.36.62-.1,2.71.9,2.74l6.91.22-.08,18.16-9.11.07-.2-11.61-32.46.12.6-9.72,33.43.02Z"/>
  <path class="st14" d="M14.74,68.55l.29,48.48-9.13.03v-48.46c2.82-.75,6.01-.94,8.83-.05Z"/>
  <path class="st16" d="M122.12,35.88c1.52-.7,2.29-.64,2.31.16,3.67.37,3.03,9.53-.92,9.06l-18.3.43c-3.42.08-6.92,1.37-10.01.84-.71-.32-2.62-1.01-3.15-2.02l.67-19.2.12-10.14,10.63.07-.11,10.18-9.21.03v10.66s27.96-.05,27.96-.05Z"/>
  <path class="st10" d="M135.36,35.43c.03,2.6-.42,5.66.87,8.21l12.31.55.09,8.47,9.19.16.1,14.96-9.41-.2-.29-13.76c-3.95-1.13-7.54-.56-11.93-.46l-.71-8.14c-4-.58-7.43-.17-10.77.35-.34-.15-.92-.48-1.31-.47,1.47-2.74,1.2-5.98.92-9.06.46-3.22,9.85-3.6,10.93-.61Z"/>
  <path class="st13" d="M124.3,163.74v9.97s-31.56.06-31.56.06c0-3.81.56-7.06-.68-10.01-3.5-.2-2.61-3.7.71-3.63-.18.52.1,3.71,1.06,3.71l30.47-.09Z"/>
  <polygon class="st9" points="157.7 116.55 157.87 139.2 147.58 139.31 147.66 117.07 157.7 116.55"/>
  <polygon class="st4" points="23.83 139.07 14.81 139.09 15.03 117.03 24.39 117.03 23.83 139.07"/>
  <path class="st12" d="M36.58,52.73c-3.74,1.51-7.91.37-12.29.66l-.38,14.32c-3.4.11-6.26.83-9.17.84l-8.83.05c2.11-1.57,5.14-1.26,8.67-.72l.34-14.58,9.45-.72,12.22.17Z"/>
  <path class="st7" d="M147.58,139.31l-.42,13.28-10.89-.15c-.39-4.5-.32-8.46.55-13.07l10.75-.06Z"/>
  <path class="st15" d="M36.2,142.49l.29,9.99c-3.2.34-6.73.68-10.6,1.01-1.87-2.33-.81-5.99-.82-8.93l-.03-5.33,9.4.05c1.07,0,1.74,2.37,1.76,3.21Z"/>
  <path class="st17" d="M92.77,160.13c-.34,1.09-1.26,2.32-.71,3.63l-14.24-.06-.06-8.93,15.19-.15c.16,2.04.3,3.91-.19,5.5Z"/>
  <path class="st20" d="M48.65,163.86l-11.29-.02c-.67-3.26-.98-7.1.04-10.15h11.19c.68,3.62.52,6.95.06,10.17Z"/>
  <polygon class="st1" points="135.46 163.75 124.3 163.74 124.36 153.73 135.43 153.5 135.46 163.75"/>
  <path class="st20" d="M48.6,164.22l.84-.11c1.96.22,2.7,2.42,2.24,6.59h22.91c-.53-3.63.19-5.93,2.16-6.91l1.08-.09-.06,10.04h-29.19s.03-9.52.03-9.52Z"/>
  <path class="st8" d="M36.49,152.48c.64,0,.91.63.91,1.2l-.04,10.15c-1.78-2.84-.91-6.47-.91-10.25l-10.57-.1c.5-.67,1.23-1.03,2.28-1.03l8.32.02Z"/>
  <path class="st5" d="M39.12,78.64l-1.01,13.43c-2.63-4.53-6.59-1.22-10.15-3.09l-.26-20.7,8.67.04c.58-2.57.44-4.79.31-7.88l17.91.33-.03,11.63c-1.81-.25-4.64-.54-5.58.55l-.61,5.64-9.24.04Z"/>
  <path class="st19" d="M70.47,60.55l-8.82-.08c.56-3.15-.59-6.04-.96-8.67,1.81-1.28,2.72,1.55,3.5,2.03,2,1.22,4.6-1.06,5.16-2.55.74-1.95.7-4.1.33-5.64,2.59.03,5.46,1.83,9.26.39l-.2,9.09c-3.31.35-5.99.53-9.05-.71l.77,6.14Z"/>
  <polygon class="st3" points="76.74 163.79 76.72 172.73 49.55 172.73 49.44 164.11 76.74 163.79"/>
  <path class="st21" d="M135.36,35.43l-10.93.61-2.31-.16c1.48-.33,2.28-1.58,2.29-3.63l.06-6.38,10.78-.1.11,9.65Z"/>
</svg>