<?xml version="1.0" encoding="UTF-8"?>
<svg id="_레이어_1" data-name="레이어_1" xmlns="http://www.w3.org/2000/svg" version="1.1" viewBox="0 0 177.48 177.48">
  <!-- Generator: Adobe Illustrator 30.3.0, SVG Export Plug-In . SVG Version: 2.1.3 Build 182)  -->
  <defs>
    <style>
      .st0 {
        fill: #fcedce;
      }

      .st1 {
        fill: #843e04;
      }

      .st2 {
        fill: #d1803c;
      }

      .st3 {
        fill: #d47c39;
      }

      .st4 {
        fill: #d6813c;
      }

      .st5 {
        fill: #260201;
      }

      .st6 {
        fill: #fbe3b7;
      }

      .st7 {
        fill: #914605;
      }

      .st8 {
        fill: #8a4003;
      }

      .st9 {
        fill: #8c4305;
      }

      .st10 {
        fill: #8c4205;
      }

      .st11 {
        fill: #fd99e0;
      }

      .st12 {
        fill: #cd7a3b;
      }

      .st13 {
        fill: #894507;
      }

      .st14 {
        fill: #8d4405;
      }

      .st15 {
        fill: #fca3e2;
      }

      .st16 {
        fill: #fdf1d8;
      }

      .st17 {
        fill: #dc8642;
      }

      .st18 {
        fill: #8a4104;
      }

      .st19 {
        fill: #f2ac63;
      }

      .st20 {
        fill: #914806;
      }

      .st21 {
        fill: #8d4507;
      }

      .st22 {
        fill: #dc8542;
      }

      .st23 {
        fill: #894105;
      }

      .st24 {
        fill: #280402;
      }

      .st25 {
        fill: #f2a459;
      }

      .st26 {
        fill: #a35c22;
      }

      .st27 {
        fill: #2c0907;
      }

      .st28 {
        fill: #924605;
      }

      .st29 {
        fill: #fcebca;
      }
    </style>
  </defs>
  <path class="st14" d="M163.19,28.42c-.09,2.69.22,4.96.95,6.82l-1.23.53-1.02,1.79c-8.75.72-9.57-1.31-9.14-9.62l-17.44.19-1.31-1.79-.44,1.84-6.03.36c.25,3.72-.58,6.09-2.49,7.1l-.93,1.87c1.07,4.71.16,7.65-2.73,8.83l-54.96.08-1.08-1.81c-.27,2.73-5.83,2.76-6.49.14-1.89-.97-2.48-3.36-1.76-7.18-2.89.18-4.58-.5-5.08-2.04-2.34.59-1.73-8.17-1.42-8.53.6-.69,2.42-1.82,2.65-.69,2.64-.25,5.24-.11,7.81.42l.47,8.82,54.2-.06.18-9.68,9.43-.42c.05-3.23-.35-5.93.28-8.28l30.95-.06.26,8.59,5.04.11c2.02.04,1.08,2.01,1.31,2.69Z"/>
  <path class="st28" d="M22.72,26.71c2.82.48,2.72,8.2.02,8.93-.9,1.77-3.26,2.48-7.07,2.13.62,3.53-.01,5.82-1.89,6.87,2.82-.24,2.71,8.58,0,9.21,2.82.53,2.67,8.29-.03,9.04h-3.6c-1.24-1.48-.46-2.03.99-2.79l-.16-9.71-1.71-.24c-1.78-2.29-3.64-4.07-5.58-5.36l.08-8.18c0-.79.61-.91.94-.91,3.03.94,5.82.89,8.38-.15.47-3.04.59-6.07.6-9.66,2.44-.44,4.46-.31,6.38-.13.56-2.65.73-5.48.49-8.5h31.34c.54.17.89,9.56-.94,10.9-.5.37-8.04.32-7.32-1.82-7.04-.32-14.01-.2-20.93.35Z"/>
  <path class="st22" d="M163.59,62.85l.21,7.31c.03.99-.37,1.58-1.12,1.71l-1.73-.94c1.43-6.27.13-8.63-6.1-5.5-.33,2.77-1,5.08-2.03,6.92-.75,3.18-9.69,2.99-10.04-.64l-.51-15.06c-1.71-.73-3.73-.9-6.06-.5-4.62.52-3.95-10.98-2.02-12.9,1.4-1.39,17.67-.35,20.31.35-.32,2.15-.45,4.4-.4,6.76,1.95,2.04,3.97,2.09,6.88,1.36-.71-3.88-.11-6.49,1.8-7.83-2.76-.44-2.51-6.74.14-7.31,1.78-.67,2.67-.13,2.65,1.7-.14,7.77-.22,15.52-.26,23.25l-1.75,1.32Z"/>
  <path class="st4" d="M153.84,132.04c2.85-.13,2.73,9.41-.01,10.17l-1.03,1.81-12.7-.02c-.05,1.89-.02,3.77.1,5.66l12.64.27,1.21,1.83-15.53.61c-.47.75-.78.69-.94-.17l-1.2,1.61c-26.16.38-52.41.49-78.75.34l-3.22-1.81c-.51,2.79-7.57,2.51-8.2-.17-5.47,1.67-7.72,10.84-.45,7.99l.55,1.21c.79.26.78.56,0,.9l-6.29-.05-.21-9.85-17-.02c-.52-.28-.5-.59.01-.91l.79-1.81h14.55c-.65-3.68-.04-6.13,1.82-7.35.75-1.81,2.8-2.36,6.15-1.64,3.08,1.12,4.16,4.1,3.23,8.92,27.05.25,54.08.21,81.07-.11-.73-4.45.18-7.39,2.72-8.82l9.71-1c-1.08-4.66-.11-7.68,2.9-9.04,3.91-.88,6.61-.39,8.1,1.47Z"/>
  <path class="st20" d="M20.37,62.92c4.45,4.21,3.61,11.03-3.59,11.33l-.27,12.94c3.11-.5,5.07.15,5.87,1.95-.21,2.48-2.46,3.36-6.75,2.62-.35,10.19-.16,20.16.57,29.9,4.18-.66,6.88.25,8.11,2.72l.03,15.33c3.76-.82,5.69.03,5.78,2.56-.19,2.77-6.35,2.9-6.99.28-.33,1.71-.99,1.57-1.21-.2l-8.24-.13.02-17.82c-1.63-.26-2.71-.42-3.99-.85-.33-.98.14-1.82,1.41-2.54l-.05-29.04c-3.68.47-6.1-.21-7.27-2.01.17-.56.8-.95,1.76-.95h8.2s0-26.12,0-26.12c-.37-2.75,6.21-2.61,6.63.03Z"/>
  <path class="st8" d="M172.96,90l-.25,33.42c-.14.59-2.07.23-2.59.21-2.13.38-5.02.61-6.68-.58-.27-11.15-.17-22.18.31-33.08-.11-1.43.07-1.58.56-.33,2.92-.35,5.81-.23,8.65.36Z"/>
  <path class="st9" d="M9.7,123.56c-2.04.17-3.79.6-6.01-.05l.1-33.55,9.07.07.06,33.26-3.22.27Z"/>
  <path class="st18" d="M170.18,35.59h3.14c.23,9.16.07,18.25-.49,27.27l-9.24-.02c-.1-3.45-.75-7.06.17-10.9l.03-13.56c0-.94-.34-1.6-.85-1.82-.8-.13-.8-.41-.04-.81l.37-1.21c1.88.65,4.18.99,6.89,1.04Z"/>
  <path class="st13" d="M162.69,71.87c-.09.93.07,1.21.07,2.07.67,3.24,1.49,14.78-.31,16.68-1.43,1.51-10.36,1.25-10.29-2.25l.03-12.34c-.89-1.68-.67-2.91.65-3.68-.95-2.53-.88-7.29,1.5-8.91,2.58-1.75,6.73-.76,9.17-.21l-.82,8.64Z"/>
  <path class="st21" d="M163.76,89.97l.26,33.33,6.1.33c-1.66,1.08-3.87.79-6.83.12l-.25,18.45-8.24.02c-.29.79-.62.77-.97-.01v-10.17c-.72.09-1.75-.06-1.79-.56-.64-7.75-.3-10.64,8.51-9.61.61-10.33.78-20.86.5-31.59,2.88-2.7,3.78-2.8,2.71-.3Z"/>
  <path class="st12" d="M61.06,26.72l-8.76.06-.1,8.46,6.71.61-.06,8.89c-.58,1.76-2.36,2.3-5.36,1.62-2.78-1.15-3.89-4.07-3.34-8.77-7.3.49-9.24-1.64-8.18-9.06l-17.94-.02-1.3-1.81c.22-.5.86-.98,1.82-.97l17.25.16c3.62.03,6.93.98,10.13.31l-.23-8.54h-30.62s-.05,7.31-.05,7.31c0,.7-.54.84-.95.8l-.05-8.88h32.19s.51,8.94.51,8.94c3.17-.05,6-.63,8.34.89Z"/>
  <path class="st10" d="M10.14,62.9l-6.4-.1-.05-18.01c.55-.1,1.15-.42,1.14-.8l-.05-3.07,4.72,7.3c.54.83,2.4.27,2.37-.38-.04-.95-.34-2.11.82-3.17l.27,16.4-2.82,1.83Z"/>
  <path class="st7" d="M46.29,162.26v-.9s.62-1.81.62-1.81c29.67.29,59.25.13,88.76-.48-.62-3.54,0-5.83,1.89-6.88.26.07.66.19.94.17l-.14,9.91H46.29Z"/>
  <path class="st22" d="M172.83,62.87l.49-27.28.45,26.36c.01.8-.66.92-.94.92Z"/>
  <path class="st10" d="M13.09,35.56l-.72,4.67c-2.98-5.2-6.29-2.68-7.66-4.52l8.38-.15Z"/>
  <path class="st19" d="M162.91,35.77l.04.81-.14,7.31c-.58,1.93-2.67,2.73-6.26,2.4.36,2.54-.45,3.9-2.43,4.07l-.46-5.55-18.41-.46c-.83,3.42-.52,6.78-.45,10.08,3.4-.19,5.96-.47,9.22.3l.61,17.96,8.2-.33,1.16,3.09-.03,13.72c2.99.51,5.65.5,8.87.07l-.07-15.3c.53-.35.98.01,1,.7l.32,14.69c3.6-.39,6.66-.81,8.89.67l-9.21-.03c.18-.33-.09-1.11-.91-.77l.02,34.47-9.01-.02-.02,8.38-9,.38c-.68,3.23-.55,5.91.21,9.01l-12.75,1.07-.11,8.98-84.81-.05c.26-3.24.5-5.9-.12-8.97l-7.3-.2c-.61,2.87-9.04,2.73-9.85.02-2-1.43-4.59-1.05-7.58,0l-.04-18.68-8.69-.16-.05-33.56c3.18.07,6.09.68,8.62-.72-.7-.1-1.74-.33-1.79-.82-.21-2.14.06-14.5.86-15.59.39-.53,1.45-.3,2.21-.06.37-1.79,2.57-2.43,6.58-1.93-.08-5.93.33-11.77,1.21-17.54,2.65-1.04,5.59-1.39,8.82-1.03,1.47-5.17-.91-7.11-7.14-5.83l-1.22-1.81c-1.36-1.61-1.82-4-1.38-7.16-3.84.73-6.43.15-7.78-1.75l-.02-8.93,21.48.03c-.76,2.83-.75,5.55-.23,8.8l7.88.26.52,8.72,6.48.22c1.93.96,2.58,3.38,1.95,7.26,2.5,1.42,3.4-.66,2.72-6.23l1.82-1.16,56.86-.08c1.21-6.23-1.91-9.8,2.83-8.89l.96-1.82c2.31.22,4.37.03,6.19-.56-.66-3.54-.05-5.85,1.82-6.92l20.62-.23.12,9.49,8.18.17Z"/>
  <path class="st22" d="M170.18,35.59l-7.27.17.27-7.35c.51,1.5.85,4.09.53,6.46,2.59-.08,4.75-.42,6.46.72Z"/>
  <path class="st19" d="M22.81,151.41v.91c-.35,0-.85-.12-.95-.88l.06-9.09,1.21.2c2.8.56,2.41,8.24-.32,8.85Z"/>
  <path class="st19" d="M154.03,151.75c-2.9-.18-2.86-8.75-.2-9.55h.97c-.24,3,.63,6.38-.77,9.55Z"/>
  <polygon class="st2" points="134 26.33 133.98 35.54 125.04 35.63 125.74 26.83 134 26.33"/>
  <path class="st3" d="M65.35,44.61l-.11,9.18c-2.17.55-4.12.52-6.2,0l-.18-9.05,6.49-.14Z"/>
  <path class="st17" d="M31.9,44.55h10.32s-.19,9.42-.19,9.42l-9.43.13-.62,18.58h-8.32s-1.81-.94-1.81-.94c2.03-2.64,1.01-6.78-1.49-8.82l-6.63-.03.03-9.04c1.5-1.56,3.92-2.1,7.24-1.62l.2-7.25c2.45-2.3,8.83-3.76,10.7-.43Z"/>
  <path class="st29" d="M31.9,44.55l-8.99.21-.07,9.07c-3.38.53-6.27.37-9.07.03v-9.21c.86-1.95,3.23-2.72,7.12-2.3-.62-3.45,0-5.69,1.85-6.7l9.53-.08c.26,3.01.35,6.17-.37,8.98Z"/>
  <polygon class="st25" points="22.74 35.64 22.69 44.07 13.78 44.64 13.89 35.74 22.74 35.64"/>
  <path class="st6" d="M154.12,50.35c.75-1.66.71-3.32.01-5.66l8.68-.81v9.87s-8.38.15-8.38.15c-.37-.93-.68-2.74-.31-3.55Z"/>
  <path class="st23" d="M46.19,152.16c1.62,1.61.73,3.36-2.66,5.28,3.27-2.5,7.16-2.72,11.66-.64l-.8-4.46,74.96-.04c3.05,0,5.67-.75,8.2-.1l-.1,9.18H46.29s-5.39-.08-5.39-.08v-9.16c2.05-.52,3.66,0,5.29.03Z"/>
  <polygon class="st7" points="30.12 142.28 39.97 142.26 40 151.42 22.81 151.41 23.12 142.56 30.12 142.28"/>
  <polygon class="st1" points="153.83 142.2 154.03 151.75 138.34 151.41 138.23 142.18 153.83 142.2"/>
  <path class="st7" d="M54.4,152.33c2.08,1.62,3.45,2.33,2.65,4.82-.54,1.67-2.82,1.99-4.52.93-3.67-2.3-6.62-.75-9.09,2.34-.63.8-2.21-.47-1.79-1.43.3-.68-.32-2.32.99-3.18,1.49-.98,2.97-2.1,3.55-3.65l8.2.17Z"/>
  <path class="st9" d="M23.66,72.68c-.26.39-.93,1.07-.95,1.93l-.34,14.54-7.73-.16.45-14.95c.07-2.18,4.52-2.11,5.92-2.82,2.66-1.36-.03-4.76-.63-8.3.61,0,1.3-.04,1.81.15.95.36,1.5,1.19,1.5,2.53v7.08Z"/>
  <path class="st0" d="M113.97,117.46l-.8,23.55-49.61-.19-.17-26.78c3.07-1.27,6.31-1.59,10-1.39l.09-9.1h30.35s.26,8.91.26,8.91c1.63.3,3.08.26,4.58.07,3.18-.39,5.43,1.47,5.31,4.93Z"/>
  <path class="st5" d="M46.38,99.79c.1-1.77,1.64-2.61,4.65-2.51,0-1.47.56-2.44,1.7-2.91l10.76.02.02,18.02-17.08.24-.04-12.86Z"/>
  <polygon class="st24" points="128.56 112.55 113.93 112.2 114.31 93.76 128.54 93.82 128.56 112.55"/>
  <path class="st15" d="M144.31,126.81c-1.58,1.37-6.25.92-7.98-.09-.51-.3-.41-2.3-.76-2.75-.49-.62-2.3-.62-3.56-.61-1.48-1.36-1.31-5.02-.44-6.8.95-.11,2.73.11,3.53-.4.66-.42.78-2.46,1.12-3.3,2.44-.53,6.33-.57,8.68.08l.8,2.8c.23.82,2.48.7,3.46.97,1.25.98,1.06,4.95-.2,6.37-.48.54-2.61.41-3.22.77s-.61,2.12-1.41,2.95Z"/>
  <path class="st11" d="M40.97,122.51c-.94,1.78-.6,3.34-1.01,5.14-2.42.29-5.75.64-7.5-.41-.57-.57-.51-2.66-.84-3.34-.56-1.18-3.37-.3-4.31-.65-1.92-.72-1.48-5.9.16-6.61,1.08-.47,2.51.14,3.12.09.86-.07,1-2.37,1.03-3.47,2.05-1.35,5.53-.9,8.19-.53l1.17,4.29c1.23-.38,2.39-.71,3.06-.57,1.89.38,1.68,5.79.57,6.53-.57.38-1.88.34-3.65-.47Z"/>
  <path class="st16" d="M153.88,44.48c-3.17-.91-5.82-.71-9.24-.35l-.08-8.53,9.27.05.05,8.83Z"/>
  <path class="st26" d="M52.73,94.38c.38,1.1.63,4.41-.86,4.61l-5.48.8c0-1.79-.15-3.73.45-5.63l5.9.22Z"/>
  <path class="st27" d="M103.32,131.8l-29.95.09c-.29-3.85-.83-6.94-.24-9.91,1.71-.28,3.31-.36,4.22-.08s1.21,2.56.77,4.29c1.52.54,4.27.96,5.95.21,3.22-2.91-2.38-6.65-.66-13.73h10.77c2.62,7.25-4.71,10.15-1.35,13.13,1.34,1.19,5.93,1.02,7.36-.06.89-.68.06-3.62.97-3.88,1.07-.31,3.35-.52,4.22-.06,2.43,1.3-1.91,5.72-2.04,10Z"/>
</svg>