<?xml version="1.0" encoding="UTF-8"?>
<svg id="_레이어_1" data-name="레이어_1" xmlns="http://www.w3.org/2000/svg" version="1.1" viewBox="0 0 177.48 177.48">
  <!-- Generator: Adobe Illustrator 30.3.0, SVG Export Plug-In . SVG Version: 2.1.3 Build 182)  -->
  <defs>
    <style>
      .st0 {
        fill: #fdf8f3;
      }

      .st1 {
        fill: #750603;
      }

      .st2 {
        fill: #6d0402;
      }

      .st3 {
        fill: #f23225;
      }

      .st4 {
        fill: #fdf4ea;
      }

      .st5 {
        fill: #6f0505;
      }

      .st6 {
        fill: #640505;
      }

      .st7 {
        fill: #ea281d;
      }

      .st8 {
        fill: #f7d5b3;
      }

      .st9 {
        fill: #fdf2e4;
      }

      .st10 {
        fill: #6a0705;
      }

      .st11 {
        fill: #fdf5ed;
      }

      .st12 {
        fill: #700705;
      }

      .st13 {
        fill: #61341b;
      }

      .st14 {
        fill: #61341d;
      }

      .st15 {
        fill: #700504;
      }

      .st16 {
        fill: #700303;
      }

      .st17 {
        fill: #e02019;
      }

      .st18 {
        fill: #fcefe2;
      }

      .st19 {
        fill: #683921;
      }

      .st20 {
        fill: #6b0302;
      }

      .st21 {
        fill: #6f0504;
      }

      .st22 {
        fill: #760605;
      }
    </style>
  </defs>
  <path class="st9" d="M67.68,132.3c0-.76.2-1.92.7-1.95,13.53-.67,28.6-.2,41.98.71,1.11,6.7,1.35,13.66.73,20.9-1.96,2.12-5.09,2.99-9.39,2.62.42,4.1-.51,6.73-2.8,7.87-.09.76-.35,1.91-.91,1.95-3.56.26-29.21.48-30.42-.39-4.75-8.05-5.99-.52-4.79,5.15h54.45s1.24,1.94,1.24,1.94c.03.24-.38.97-1.17.97h-57.84s-.14-12.73-.14-12.73c-.81-.08-2.03-.33-2.08-.86-.24-2.89-.76-24.29-.13-25.41,1.8-3.24,8.86-4.08,10.56-.78Z"/>
  <path class="st20" d="M68.77,110.61c-.05-.49-.06-.96.08-1.38.57-1.7,31.99-1.03,35.63-.7,3.1-.63,4.96.06,5.58,2.07l.71-2.07,39.69.13,1.22,2.08c.85,3.37.69,7.09-.08,10.46l-28.05.15c-.44,3.35-11.08,2.96-12.03-.14,0,.8-.2,2.04-.7,2.07-11.63.63-27.2.8-38.74.07-2.55.55-4.07-.14-4.58-2.06-.24,3.32-10.04,3.1-10.89.04l-29.49-.04v-10.71c0-.78.09-1.71.71-2.07,1.72-1,34.91-.24,39.72.02l1.22,2.07Z"/>
  <path class="st8" d="M111.51,121.21l2.07,1.11c-.3,3-.1,5.69.63,8.08,4.55-.66,7.3.5,8.24,3.48l-.61,24.24c4.56-.73,7.65,0,9.26,2.18-.67.82-1.75,1.21-3.23,1.14l-9.77-.45c-.92,1.76-2.82,2.29-5.68,1.57-.4,5.19-11.56,5.62-13.53,2l.91-10.51,9.33-.38.15-21.29-41.6.06c-3.27-.58-3.29-10.19-.19-11.16l44.02-.08Z"/>
  <path class="st21" d="M130.85,23.44l-1.2,2.06-15.06-.25c-2.28-1.89-3.16-4.93-2.63-9.13l-9.8.07-1.46-2.06c-.09,3.01-2.07,2.84-2.91.06-6.48-.53-13.01-.65-19.58-.36-2.07,2.48-10.02,2.9-11.32-.28-.71.58-1.09.42-1.14-.48l.73-9.29,47.25-.07.5,9.45,16.6-.02v10.32Z"/>
  <path class="st13" d="M98.89,164.56l10.3-.04c.94,0,1.16-2.94,1.35-3.66,2.43-.88,5.45.04,7.56.14l.37,12.78h-57.98s-.08-13.05-.08-13.05l7.04-.13c.28,1.62.45,2.82,1.16,4.13l30.29-.16Z"/>
  <path class="st22" d="M151.6,121.2l.08-10.46c-3.54-1.3-2.83-12.91,1.34-13.49l8.09-.33.5-29.25,2.1-1.46,10.16.33v32.84s-9.98.08-9.98.08l-.39,11.09c-4.29-.01-7.74-.57-11.17.45.44,4.1.93,7.59-.73,10.19Z"/>
  <polygon class="st19" points="67.49 121.29 67.68 132.45 59.18 132.65 59.32 161.25 48.43 160.93 48.44 132.79 56.55 132.42 56.6 121.33 67.49 121.29"/>
  <path class="st14" d="M123.55,121.35c-.47,3.45-.57,6.95-.05,10.91l7.52.35.08,27.69-11.38-.07.69-27.59-8.9-.25v-11.18s12.04.14,12.04.14Z"/>
  <path class="st16" d="M15.97,99.18c.08.92-.21.95-.82.17l-9.72-.08-.02-32.16c1.84-.61,11.33-.81,12.3-.15,1.27.87.6,27.14.34,30.74l-2.08,1.48Z"/>
  <path class="st12" d="M163.51,49.14l-.66,19.08c-3.9,1.3-6.35.87-7.33-1.28-4.66.42-3.68-3.87-2.87-7.08-.62-3.16-.77-6.64-.44-10.43-7.18-.4-8.7-2.24-4.56-5.53,2-2.86.45-3.03-4.65-.53-1.6-2.23-1.34-6.74-.92-9.58l10.37.29c-1.08,5.43-.66,10.47,3.22,14.75l7.85.3Z"/>
  <path class="st1" d="M142.07,33.79l.57,8.63c1.35-2.1,5.73-4.31,7.34-1.9,1.76,2.64-1.58,6.02-3.56,7.39,2.17.99,3.98.55,6.25.12l-.03,11.82c-.35.89-.71.85-1.07-.06l-1.38-.1c-.65-2.44-.92-5.26-.79-8.46-4.05.47-7.19-.29-9.44-2.28l-.72-12.93c-10.41,1.08-11.24-1.49-10.47-11.23l2.07-1.36,10.69.08.54,10.27Z"/>
  <path class="st5" d="M27.22,48.39c3.28.67,3.24,10.37.13,11.39,3.11.67,3.23,5.52.06,6.14-3.37,2.26-8.77,4.74-11.59.34v-17.74s11.4-.13,11.4-.13Z"/>
  <path class="st2" d="M65.75,13.07c.3,0,.86.31,1.14.48,3.19.52,2.91,8.53-.16,9.21-.07.8-.23,1.96-.83,2.1-1.25.31-14.33.83-15.37.59l-1.54-2.01-.06-10.44,16.83.07Z"/>
  <path class="st15" d="M37.53,33.93c.8.11,1.98.34,2.06.92.33,2.19.14,13.37-.95,14.58-1.21,1.33-11.23,2.21-11.42-1.04l-.17-14.42,10.49-.04Z"/>
  <path class="st10" d="M27.12,110.59l-11.65-.41-.32-10.82.82-.17c-.15-3.34,11.04-2.12,12.18-1.05,1.3,1.22,2.27,12.2-1.03,12.45Z"/>
  <path class="st6" d="M48.99,23.44c3.29-.11,2.15,10.39,1.05,11.57-1.21,1.3-12.27,2.23-12.51-1.07l.09-10.35,11.37-.14Z"/>
  <path class="st17" d="M163.7,66.22l-.57,32.92-11.2.21-.26,11.39-41.61-.14c-3.27.19-3.27-10.73-.13-11.63l.92-2.08,27.85-.08.28-2.68c-1.72-3.55-.88-5.11,2.52-4.68l1.67-1.9c1.78.31,9.32.18,10.14-.95.5-.69.53-16.29.2-17.07-4.26-1.05-5.7-7.84-1.93-9.72l1.07.06-.05,6.17c3.57.68,6.7,1,10.3.2l.62-17.09c.93,5.55.29,11.49.2,17.07Z"/>
  <path class="st3" d="M100.7,14.13l13.33-.09.28,9.26,16.54.15v10.54s10.39-.1,10.39-.1l.54,14.95,9.97.44-.17,10.53-.91,2.08-15.59.12c.19,4.54-1.6,6.71-5.37,6.5-.65,3.47-.84,7.15-.56,11.03,5.52.24,6.78,2.1,5.93,7.47,3.68-.59,5.82.23,6.42,2.46-.62.32-1.2.19-2.09,1.05,2.19.93,2.41,8.17-.37,8.21l-29.11.26-2.01-1.63c1.22-4.98-1.39-7.03-7.83-6.15-1.45-1.59-2.06-3.62-1.84-6.11l-17.62-.03c-.21,2.07-.85,3.96-1.9,5.64-3.41-.25-5.89.59-7.43,2.5l-.43,16.03-2.1,1.38-41.65-.02-.08-11.2-11.07-.21.14-31.95-10.7-.13c.31-.62.96-1.1,2.12-1.07l8.28.23c3.77.1,7.8.4,11.59-.34,1.23,1,.89,2.21-1.03,3.63-.26,1.29-.25,14.85.03,16.06.79,3.44,17.64,1.72,18.2.95-.13-4.7.3-7.51,5.68-7.77l.19-10.04c-4.09-.12-5.95-2.49-5.55-7.1l-16.1.18-1.48-2.05-.13-11.39,10.16-.05.15-14.41,11.25-.03.21-10.46,17.74-.68.53-2.1,7.3-.4c-.15-4.18,1-6.19,3.47-6.01l2.07,1.13c1,10.06-1.38,10.99-10.93,10.31l.06,17.82c8.29-1.2,11.94,1.44,10.94,7.91h18.26c-1.02-6.18,2.1-8.78,9.33-7.8l.14-17.91c-4.93.52-8-.65-9.23-3.51-.78-4.09-.1-6.77,2.03-8.06Z"/>
  <path class="st4" d="M109.93,98.98l.13,11.63h-41.29s.32-16.61.32-16.61c.09-4.05,5.13-5.94,8.8-4.64l.62-6.36,21.87.04c.14,2.52-.24,4.36.51,6.7,2.77-.67,7.17-.72,8.48,1.71,1.19,2.21.54,5.5.56,7.55Z"/>
  <path class="st11" d="M97.8,14.19l2.91-.06.05,9.15,9.24.27-.17,22.25-9.22.07-.05,7.61h-22.5s-.14-7.73-.14-7.73l-10.75-.09-.08-22.13,10.91.03.04-9.32c6.15-.7,13.33-.81,19.76-.05Z"/>
  <path class="st7" d="M97.8,14.19l-19.76.05c-1.38,1.76-1.31,4.49-.74,7.94l-10.57.58.16-9.21,27.82-.32c1.42-.02,2.48.05,3.08.96Z"/>
  <path class="st0" d="M27.4,65.92c.26-2.08-.01-4.11-.06-6.14l19.67-.22c.52,2.48.32,4.09.12,6.55l5.45.61-.27,13.87-5.41.89-.34,7.41c-8.35-1.18-14.9,4.28-22.23-1.81l-.04-18.97,3.1-2.18Z"/>
  <path class="st18" d="M151.58,59.8l.23,6.91,3.79.7-.14,20.48c-4.32,2.24-9.32,2.12-13.96,1.57-2.7-.32-5.23-.56-8.62-.07l.4-7.28-6.2-.52.02-14.91,5.69-.59c-.17-2.35-.33-4.06.13-6.16l18.66-.14Z"/>
</svg>