<?xml version="1.0" encoding="UTF-8"?>
<svg id="_레이어_1" data-name="레이어_1" xmlns="http://www.w3.org/2000/svg" version="1.1" viewBox="0 0 177.48 177.48">
  <!-- Generator: Adobe Illustrator 30.3.0, SVG Export Plug-In . SVG Version: 2.1.3 Build 182)  -->
  <defs>
    <style>
      .st0 {
        fill: #a65f16;
      }

      .st1 {
        fill: #fdf8ab;
      }

      .st2 {
        fill: #211005;
      }

      .st3 {
        fill: #f4cf1a;
      }

      .st4 {
        fill: #a95506;
      }

      .st5 {
        fill: #f0c51b;
      }

      .st6 {
        fill: #ac6213;
      }

      .st7 {
        fill: #a05307;
      }

      .st8 {
        fill: #a2530d;
      }

      .st9 {
        fill: #b46209;
      }

      .st10 {
        fill: #f4910a;
      }

      .st11 {
        fill: #fbd107;
      }

      .st12 {
        fill: #fdeb5c;
      }

      .st13 {
        fill: #a15606;
      }

      .st14 {
        fill: #fdf8c2;
      }

      .st15 {
        fill: #a25409;
      }

      .st16 {
        fill: #a45b0a;
      }

      .st17 {
        fill: #face07;
      }

      .st18 {
        fill: #954c08;
      }

      .st19 {
        fill: #f7b5b1;
      }

      .st20 {
        fill: #a5540b;
      }

      .st21 {
        fill: #f4c50b;
      }

      .st22 {
        fill: #fcf7d5;
      }

      .st23 {
        fill: #f7cf56;
      }

      .st24 {
        fill: #a45507;
      }

      .st25 {
        fill: #a04f05;
      }

      .st26 {
        fill: #aa5b11;
      }

      .st27 {
        fill: #ab6415;
      }

      .st28 {
        fill: #944b07;
      }

      .st29 {
        fill: #975109;
      }

      .st30 {
        fill: #a65806;
      }
    </style>
  </defs>
  <path class="st17" d="M138.63,33.18c2.15.35,3.01,2.7,2.57,7.07,2.94-.49,4.8.29,5.57,2.35l2.67,1.14c-.52,5.26.31,23.16,2.7,10.78l2.72-1.54c1.93,2.51.79,5.64.79,8.48,1.05.28,2.62.75,2.66,1.56.68,11.67,1.15,31.6-.09,42.82.77,3.8-.12,6.17-2.68,7.12,2.55,3.53,2.57,4.69.07,3.5-.37,2.76-2.34,3.88-5.91,3.35l-.35,11.36-2.72,1.76c-.56,1.95-2.46,2.82-5.7,2.61-.01,6.53-1.55,11.08-8.76,10.67.64,4.38-.36,7.06-3,8.03l-1.13,2.67-14.69.12c.02,3.62-.99,5.88-3.04,6.77.24,2.78,1.25,5.98-.81,8.75-2.02-.06-3.26-2.11-3.71-6.17l-51,.02-1.57-2.66c-4.1-.04-4.91-9.16-1.13-10.4-.1-1.13.29-1.27,1.15-.46l.88-2.67,46.87-.44c.14-7.9,5.62-10.92,16.43-9.04-.55-7.61.14-11.3,9.02-9.82-.05-6.36,1.21-9.12,8.09-8.64,3.34-5.75,6.42-11.67,9.23-17.76l.18-39.27c-7.44-.63-9.35-2.24-9.15-9.51-7.39-1.01-8.08-3.17-8.37-10.18-8.01.86-9-2.56-9.21-9.54-8.86,1.78-12.63-7.43-6.51-12.01-1.02-4.04,17.46-3.26,18.28-2.69,2.75,1.91,3.6,5.34,3.29,8.5,3.45.16,5.58,1.3,6.38,3.41Z"/>
  <polygon class="st15" points="109.49 172.54 53.41 172.78 53.21 163.73 109.17 163.71 109.49 172.54"/>
  <path class="st25" d="M164.37,115.81c-3.12.66-6.21,1.03-9.29,1.11l.47-3.96.11-51.5c2.89-.22,5.97-.94,8.91.54l-.2,53.82Z"/>
  <path class="st27" d="M85.51,41.64l2.74.92,1.12,15.04c4.5-.6,7.18.64,8.05,3.7l-.06,25.38c-.26,3.72-3,5.15-8.21,4.28v14.43c-.27,1.96-1.92,2.11-3.81,1.24l-2.69-1.09c.05-12.81-1.3-20.86-1.45-2.28-2.37,3.4-7.12,5.14-8,.06,9.97-1.58-3.23-19.21,12.87-14.73l-.27-27.36-7.66-1.09.33-17.9c-.05-4.24,6.23-4.64,7.03-.6Z"/>
  <path class="st24" d="M110.71,14.79c1.36,3.65-14.27,3.1-15.57,2.59-.49-.19-.7-1.06-.85-2.11-7.56.29-15.05.07-22.48-.66-.35,3.55-1.61,3.3-2.52-.11l.18-8.09h41.01s.23,8.39.23,8.39Z"/>
  <path class="st4" d="M85.35,106.62c.24,1.97-1.54,3.12-5.37,3.46.61,4.43-1.8,6.29-7.21,5.57l-3.36,1.36c-1.48,4.65-13.97,4.04-14.42-1.03,0-2.3-.28-4.94.64-7.46l12.88-.32,1.98-4.33c.35-.77,1.95-.43,2.71-.55,1.61.41,3.2.66,5.47.29l.04-14.47,6.21.45.43,17.04Z"/>
  <path class="st3" d="M69.41,117.01c9.12,4.49-4.65,15.59-9.18,7.76l-1.48,2.68c-9.57.08-19.2.19-28.89.32-.42,2.46-1.44,4.16-3.07,5.11-.52,4-7.58,3.8-8.42-.02l-.79-.06c-2.73-.19-2.84-13.36-2.45-14,.2-.33,3.03-4,3.24-4.21.43-.43,9.05-.84,8.29,2.43,2.5.92,2.79,2.32,2.56,4.62l22.63-.56c.49-1.95,1.54-3.4,3.15-4.36v-.74c4.61,1.6,9.64,1.25,14.42,1.03Z"/>
  <path class="st30" d="M130.72,15.79c-.05,2.31-.07,4.55.66,7.41l7.19.62.06,9.36-8.93-.13-.33-9.26-18.69.17c-3.44,1.49-2.82-7.45-2.39-7.8,2.29-1.88,18.53-.99,22.42-.37Z"/>
  <path class="st5" d="M110.71,14.79l18.55-.25c.98-.01,1.44.84,1.45,1.26l-19.83.02-.2,8.15-2.27,2.71c-11.76,2-17.23-.73-16.42-8.19l-18.73-.11c-1.99-.25-2.2-1.86-1.44-3.79l38.9.19Z"/>
  <path class="st13" d="M52.07,153.32l1.13,10.4-18.47.04v-10.64c.9-2.68,3.7-3.53,8.42-2.57,4.7-.86,7.67.06,8.92,2.76Z"/>
  <path class="st7" d="M55,116.72l.66,6.93-28.26.69c-1.42-2.06-.69-4.67-.73-7.33l28.34-.29Z"/>
  <path class="st20" d="M146.64,132.92l-.05,10.62-7.96.28-.48,9.9-8.98.52.41-10.48,8.62-.77c.07-2.65-1.03-6.09.34-8.58,1.54-2.8,5.91-1.68,8.1-1.48Z"/>
  <path class="st28" d="M129.17,154.23l-.24,9.42-18.63.13c-.25-2.87-.28-5.84.35-9.41l18.52-.15Z"/>
  <path class="st26" d="M164.37,115.81c-1.15,1.93-5.6,1.78-8.4,1.06l-.52,15.56c-3.3.66-5.97.75-8.82.49l.5-16.31c2.5.46,4.99.53,6.5.28,1.29-.21,1.91-2.12,1.91-3.94,1.04,3.74,5.59,3.12,8.82,2.85Z"/>
  <path class="st21" d="M85.51,41.64c-2.46-.05-4.8-.02-7.03.6l-.99-.7c-1.89-.79-2.61-2.84-2.17-6.16-3.07.51-5.04-.26-5.93-2.29-2.7.12-6.3.87-8.36-1.09.02-2.73,1.88-3.65,5.58-2.75-.57-3.22.37-5.13,2.81-5.73,2.29-6.66,12.54-1.68,11.33,5.46,6.74.93,10.2,8.77,4.77,12.65Z"/>
  <path class="st0" d="M154.87,52.97l-.25,7.56c-2.07,1.46-5.65,1.2-7.71.56l-.13-18.49,8.05.21c.74,3.57.15,6.87.04,10.15Z"/>
  <path class="st16" d="M69.29,14.48c3.89.9,4.04,8.01.12,9.04l-.24,9.46c-2.88-1.35-5.48-1.52-8.15-.98l.21-17.45,8.06-.06Z"/>
  <path class="st6" d="M26.66,117.01l-9.05.26c.81,5.66.57,10.55-.03,15.53l-6.84.06c-1.45-6.63-1.2-12.66.76-18.1,2.42-.11,4.34-1.98,5.76-5.59h8.99s.41,7.84.41,7.84Z"/>
  <path class="st9" d="M26.79,132.88c4.08.59,3.8,9.85-.11,10.71l-7.95-.23-.36-10.49,8.42.02Z"/>
  <path class="st29" d="M34.75,153.13l-7.94-.22-.13-9.32c5.37-9.09,16.14,4.33,8.07,9.54Z"/>
  <path class="st8" d="M146.78,42.6c-1.96,0-5.91,1.35-7.62-.68-1.83-2.17-.48-6.48-.52-8.74l7.99.04.16,9.37Z"/>
  <path class="st23" d="M17.26,109.18c.41,2.33.69,4.76,0,7.67l-6.96.27.44,15.75c-2.38-11.36-2.1-23.69,6.52-23.69Z"/>
  <path class="st18" d="M77.49,41.54c-1.68.26-6.08,1.11-7.49-.71-1.61-2.08-.55-5.9-.61-7.74,1.84-.08,5.89-1.33,7.71.38,1.98,1.86.81,6.25.39,8.07Z"/>
  <path class="st12" d="M71.82,14.6c.41.71,1.36,1.27,2.75,1.27l20.1-.05.07,8.04c5.79.69,10.86.16,15.95.11l.08,9.11,9.34.34.22,8.96c3.06.68,5.47.52,9.06.36l.14,9.16,7.72,1.2.69,8.75c3.04.2,5.44-.17,8.67.98l-.2,43.23c-3.4,2.02-3.34,5.94-4.39,9.4-.76,2.29-6.51,3.96-3.37,9.27l-9.26.41-.13,7.95c-3.22.85-5.74.45-9.17-.05v10.54s-15.11-.24-15.11-.24c-.84,2.68-.76,5.25-.55,9.05l-51.2.49c-2.49-.02-3.46-1.98-2.92-5.89l-1.02-.58c-8.97-.03-18.57-.65-16.95-11.27-2.79.5-4.63-.25-5.54-2.25-.17-2.23-.91-4.7.28-7.74l33.16-.37c2.51-.23,3.61,1.37,3.31,4.79l11.1-.24c-.03-3.1.9-5.58,2.78-7.46,14.85-1.65.09-3.68-6.13-2.27l-1.9-2.58c.34-2.42,4.72-3.4,7.57-2.48l.57-7.74,7.8-.16c.36-.18,1.26-.79,1.24-1.65l-.27-16.26c3.12-.7,5.18-.46,8.38-.14l.06-28.47c-2.47.37-6.27.63-7.91-.52l-1.33-17.95-.5-7.97c-1.57-1.61-4.71-1.17-6.96-1.34-.18-2.43.62-6.21-1.11-7.91-1.79-1.77-5.71-.97-7.53-.89l-.12-9.04,2.52.11Z"/>
  <path class="st11" d="M53.23,152.86c-.3.14-.82.46-1.15.46l-17.32-.19-.09-9.25c-3.03-1.01-5.59-.22-7.98-.29l.11-10.71c1.83,0,5.42-1.53,7.62.77,1.04,1.62.14,5.83.88,8.43,5.91,1.31,11.68,1.8,17.53,1.65l.4,9.14Z"/>
  <path class="st14" d="M60.24,124.77c2.29-.03,6.43.25,8.39-1.32,1.96-1.57.66-5.02.78-6.44l15.03-.68c1.71-.08,1.98,4.12,1.47,5.51-.81,2.25-4.09,2.91-7.28,1.87-1.48,2.72-.94,4.96-1.24,8.21l-24.18.53c-.83-2.44.92-3.67,2.29-3.03,1.48,1.15,4.21,1.47,4.78.3.72-1.47.2-3.55-.06-4.96Z"/>
  <path class="st22" d="M103.02,88.16l-3.26,1.46c-1.79.8.63,4.73-.92,6.7-5.7,7.25-1.89-19.92-3.01-36.45l7.72.67-.53,27.62Z"/>
  <path class="st19" d="M129.52,122.81c-2.26,2.87-11.93,3.38-14.88.96-3.61-2.96.22-9.03,3.84-10.78l4.29-4.65c1.29-1.4,6.54-.97,7.32.87.36,3.92,1.24,9.19-.58,13.61Z"/>
  <path class="st2" d="M120.11,110.37l-13.34-.05.06-12.89c4.67-.58,8.56-1.1,13.16-.49l.13,13.43Z"/>
  <path class="st1" d="M94.65,52.73c-2.28-3.48-1.64-6.23-2.01-9.54l-5.73-1.13-.24-8.14c1.81-.71,6.34-1.11,7.75.28.74,2.44-.26,5.04-.77,7,2.95,3.13,3.92,7.39,1,11.53Z"/>
  <path class="st10" d="M104.84,124.35l-9.96.13c-.53-2.31-.49-4.47.17-7.31,3.39-.83,6.54-.71,9.8-.06l-.02,7.24Z"/>
</svg>