<?xml version="1.0" encoding="UTF-8"?>
<svg id="_레이어_1" data-name="레이어_1" xmlns="http://www.w3.org/2000/svg" version="1.1" viewBox="0 0 177.48 177.48">
  <!-- Generator: Adobe Illustrator 30.3.0, SVG Export Plug-In . SVG Version: 2.1.3 Build 182)  -->
  <defs>
    <style>
      .st0 {
        fill: #b61f44;
      }

      .st1 {
        fill: #ab1d3f;
      }

      .st2 {
        fill: #af2246;
      }

      .st3 {
        fill: #b52147;
      }

      .st4 {
        fill: #b21937;
      }

      .st5 {
        fill: #8f4840;
      }

      .st6 {
        fill: #b32148;
      }

      .st7 {
        fill: #9f1031;
      }

      .st8 {
        fill: #f35a93;
      }

      .st9 {
        fill: #efc1c9;
      }

      .st10 {
        fill: #fb75ad;
      }

      .st11 {
        fill: #8e4244;
      }

      .st12 {
        fill: #f6c06a;
      }

      .st13 {
        fill: #aa1231;
      }

      .st14 {
        fill: #fc8dbe;
      }

      .st15 {
        fill: #944714;
      }

      .st16 {
        fill: #8e4a21;
      }

      .st17 {
        fill: #f7bacf;
      }

      .st18 {
        fill: #f2cdd3;
      }

      .st19 {
        fill: #bd2b51;
      }

      .st20 {
        fill: #f24d8b;
      }

      .st21 {
        fill: #ebbb94;
      }

      .st22 {
        fill: #b41f46;
      }

      .st23 {
        fill: #e39c3e;
      }

      .st24 {
        fill: #983642;
      }

      .st25 {
        fill: #7d3906;
      }

      .st26 {
        fill: #a61439;
      }

      .st27 {
        fill: #f3c4cc;
      }

      .st28 {
        fill: #bd8675;
      }

      .st29 {
        fill: #b92952;
      }

      .st30 {
        fill: #fdfbfc;
      }

      .st31 {
        fill: #f9f3f1;
      }
    </style>
  </defs>
  <path class="st27" d="M75.06,57.98l-.1,1.23c3.96.16,3.69,2.54.6,4.42l2.48.68c8.75-1.15,9.25,4.24.86,4.77.26,2.43-.24,3.7-2.93,4.26.21,2.56-1.62,3.69-5.47,3.41,3.25-.21,5.98,1.87,7.92,4.26h18.87c3.67-3.33,7.91-4.9,11.24-.75l.87-6.98c.29-1.09.73-2.71,1.58-2.82,9.63-1.18,26.09-1.44,33.75,4.47l-.06,1.14c4.1-.1,4.04,4.53.13,5.53.42,3.65,2.73,4.07,6.01,3.13-.42-3.68,3.32-.23,4.73,1.95.8,1.24.43,26.37.17,29.5l-2.8,2.03c-.17,2.58-1.57,3.18-3.95,2.92-.45,5.13-2.66,8.34-6.62,9.62.07,3.99-3.01,7.12-6.79,7.99.1,4.09-3.99,7.46-7.93,7.32.1,6.5-8.4,12.03-10.83,4.5-6.94-2.13-1.44-10.94,4.24-10.83-.47-4.89,5.55-8.32,10.03-7.21.17-5.89,1.17-8.03,3.02-6.43l3.95-.71c-4.59-3.63-2.19-10.56,3.68-12.09l-.05-20.21c-2.34.05-3.56-.32-4.13-2.96-2.49.7-3.72-1.04-3.7-5.21-7.7-.28-15.29,0-22.76.82-.27,3.02-.5,4.1-3.17,5.86-5.75,3.78-35.48,6.53-37.83-3.4-2.03,3.07-4.2,2.08-6.5-2.98.23,3.84-.2,7.39-4.31,5.03-2.5-.03-3.54-2.06-3.12-6.08-4.41.32-8.29-.3-11.65-1.85-.85-3.33-1.13-6.46-.85-9.39l1.67-2.77,17.98.47c.42-2.1,1.39-3.52,2.92-4.28-3.38-1.7-7.7-6.54-2.64-7.35-.28-3.66,3.56-4,11.5-1.02Z"/>
  <path class="st25" d="M115.81,12.35c.58,5.82.65,11.67.2,17.55,2.29,1.88.83,3.48-4.37,4.82-1.46,2.42-2.7,5.18-3.73,8.27-13.57.36-27.03.12-40.39-.7-4.02.13-3.72-3.09.14-3.88-2.26-.03-3.18-1.45-2.76-4.28-2.31.13-3.47-.28-4.37-2.83l.15-19.41c2.37.26,4.94-.32,5.52-1.4.68-1.28.54-3.71.39-6.14l44.38.04c.65,1.87.38,4.56.35,6.16-.03,1.34,2.25,2.46,4.49,1.79Z"/>
  <path class="st6" d="M66.2,66.34c.71,1.44.67,4.54-.11,7.17l-22.47-.59c1.88,1.96,1.15,2.76-1.39,1.62-1.72,4.56-2.1,4.68-7.04,4.4.33,6.2-.33,10.37-7.66,9.65l-.35,27.65-2.83,2c-2.26.11-4.44.96-7.55-.06l.07-33.53c2.78.8,6.52.75,7.34-.89.9-1.8.51-4.83.1-7.59l8.04-1.43c-.43-2.53.15-5.04.99-6.01s4.72.27,5.6-.63c5.84-7.23,15.1-.76,18.87-4.52.94-6.42,3.9-4.96,5.48.76l2.9,1.99Z"/>
  <path class="st11" d="M60.54,31.32c1.9-.09,5.45-.38,6.44,1.08,1.24,1.82.75,4.38.69,6.02l-.15,1.87c-3.85,1.01-8.21,1.22-13.08.62l-.08,4.69c3.43.22,5.55,1.41,6.38,3.56,2.21,2.61,2.87,6.5,2.82,9.85-.98,3.03.46,5.55,2.64,7.35-2.29.03-3.94-.88-5.06-4-.53-.85-2.66.59-3.32,1.25.23-1.63.34-4.77-.91-5.7-.94-.7-4.43.16-5.2-.7-1.05-1.17-.72-4.53-1.82-5.06-1.21-.58-3.76-.62-6.1-.32l-.06-14.78c2.4.33,4.68.25,6.19-.25,1.18-.4,1.61-3.27,1.93-4.73,2.7-1.24,6.1-.61,8.69-.73Z"/>
  <path class="st5" d="M121.04,57.57c-.78,4.18-2.07,3.68-4.32.26-7.13-5.08-2.21-12.04,5.67-8.43.14-9.24-.31-10.31-9.93-8.58-1.19,4.43-2,4.75-6.12,5.55-3.69.72-37.98.86-39.36-.55-.93-.95-.43-2.4.55-3.52l40.57-.04,1-10.35,6.31-1.22.4-18.33c2.02,5.43.8,11.05.78,18.07l9.26.79c.15,1.47.12,3.94.79,4.58,1.09,1.03,3.41,1.4,6.23.63l.03,14.84c-2.21-.32-4.36-.39-5.24-.04-1.11.44-1.46,3.24-.67,5.54l-5.94.79Z"/>
  <path class="st9" d="M108.35,158.72c4.16-.16,5.12,7.02,1.2,8.5.31,2.4.8,5.43-1.2,7.13-2.25.48-3.29-1.03-3.11-4.51l-35.48-.02-2.05-2.81c-4.2-.19-3.84-4.26,0-5.26.28-3.73,1.55-5.63,3.82-5.69l34.8-.14,2.04,2.8Z"/>
  <path class="st19" d="M152.91,118.2l-.72,10.75c-2.69-.64-5.58-.02-5.81,1.15l-.95,4.87c-.29,1.48-4.2,1.21-4.64,2.31-.65,1.61-.73,3.58-.55,5.86l-7.35.82-.96,7.74c-2.15-.5-5.75-.43-6.59.96-.81,1.35-.66,3.86-.34,6-3.09.93-5.66.25-8.2.2-4.18.56-4.05-7.54-.01-8.31,1.97-.09,6.35,2.06,7.8-.5.3-1.25-.44-4.88.61-5.82,1.42-1.26,4.21-1.4,7.07-1.02l.77-7.59c2.08.1,4.35-.02,5.37-.7,1.4-.93.77-3.94,1.2-5.89.33-1.47,4.94-.79,5.34-2.19.55-1.93.62-5.03-.06-7.77,2.76-1.03,5.63-.74,8.01-.88Z"/>
  <path class="st0" d="M121.04,57.57c.22,2.43-.09,4.73,1.01,7.27,4.25.06,9.16-1.36,12.65.38,3.2,1.58,5.31,4.53,10.27,2.57.34,2.86-.14,4.83-.25,7.14-4.17,2.43-7.37-1.81-11.11-1.81l-24.22.17c-6.52-1.15-2.53-8.35,2.88-8.84,0-2.84,1.01-4.61,3.01-5.29-2.01-2.21-1.18-2.98,1.43-1.32,1.36-.02,3-.08,4.32-.26Z"/>
  <polygon class="st26" points="108.34 174.36 67.86 174.42 67.71 167.01 108.24 167.04 108.34 174.36"/>
  <path class="st29" d="M152.91,118.2l-.19-33.12c-2.83.49-5.13.8-6.99.6-1.17-.13-.89-2.76-.92-4.09,3.35.57,4.75-.91,4.21-4.46l2.98-1.42c2.38,1.17,1.62,6.01-.04,8.25,3.96,1.48,5.52.91,8.54.79v33.25s-7.58.21-7.58.21Z"/>
  <path class="st9" d="M67.67,158.94c.33,2.33-1.11,3.4-4.31,3.21.31,2.54.21,4.13-2.71,4.89-1.63-.46-.85-4.76-2.06-6.2-1.09-1.3-6.46-.13-6.47-1.77.21-2.46,1.83-3.39,4.88-2.81.75-2.24-.23-2.87-2.92-1.91l-2-2.6c-4.22.07-4.23-7.79-.25-8.64,2.61-7.41,10.52-2.1,11.47,4.83,7.64-1.25,10.21,7.19,4.37,11Z"/>
  <path class="st3" d="M36.91,127.92c3.37-.59,3.73.8,1.09,4.18.56,3.42.14,4.5-1.27,3.24-1.35.15-3.69.42-4.8-.38-1.19-.86-1.58-3.43-1.01-5.55-2.2-1.25-4.09-1.16-6.86-1.47l.31-9.69c-.12-4.7,6.45-3.07,9.33-.86-.13,4.71.95,8.22,3.22,10.53Z"/>
  <path class="st1" d="M46.48,143.35c2.04-.77,3.83-.85,5.35-.23l.25,8.64-8.08-.16-.22-8.15c.32-1.26.81-1.28,1.48-.13.3-1.23.71-1.18,1.22.04Z"/>
  <path class="st2" d="M116.8,158.87l-.24,8.02-7.02.34-1.2-8.5c.09-4.21,7.83-3.87,8.45.14Z"/>
  <path class="st4" d="M67.67,158.94c1.3-.4,1.31.54.03,2.82v5.26c-2.26,0-4.7-.76-7.05.02l-.16-7.7,7.18-.4Z"/>
  <path class="st22" d="M151.99,75.7l-.88,8.01c-1.64,2.08-5.87.19-6.31-2.13l-.13-5.53c2.06-.55,5.17-1.42,7.32-.36Z"/>
  <path class="st7" d="M52.12,159.06l-.04-7.31c1.97-.07,4.77-1.08,6.5-.17,1.58.83,1.96,5.51.12,7.48h-6.58Z"/>
  <path class="st13" d="M43.78,143.44l-5.63-.06c-1.55-5.76-2.43-9.09,4.5-7.52,3.08-3.55,1.98,4.74,1.13,7.58Z"/>
  <path class="st8" d="M47.97,134.88c.29,4.33-.61,7.14-2.71,8.42l-1.48.13c-.04-1.85.43-4.62-.43-6.9-1.11-.19-3.53.04-5.04-.67l-.16,7.51c-2.05-1.96-2.38-5.61-1.43-8.03l1.27-3.24c3.84,1.15,5.37.54,4.59-1.81l2.51-1.95c-1.8-1.27-4.02-1.46-6.67-.56-2.36-12.53.38-17.14,8.2-13.82.78,4.79,3.01,9.03,6.68,12.71,1.81,5.27-.65,8.52-5.35,8.21Z"/>
  <path class="st14" d="M70.07,88.19c.78,4.36,3.98,7.35,9.6,8.95,4.57-.99,7.4,1.45,8.49,7.32.3-5.71,4.29-8.31,11.97-7.81,8.82-1.14,19.8-1.89,21.83,8.72.86,4.5-2.11,25.67-10.01,22.95-.94,5.08-3.05,8.09-8.27,8.61-.56,2.49-2.71,6.55-4.54,7.88-2.06,1.5-20.92.64-23.17-2.24-4.78,0-7.63-1.66-8.52-4.96-1.47,4.19-5.58,3.79-12.32-1.22-.02,2.4-.06,3.79-2.88,4.5-4.29,1.57-4.3-2.76-4.27-6,1.58-.11,2.88-2.32,3.15-3.68,1.29-6.6-7.98-6.91-5.96-15.67-2.05-.2-3.34.12-4.97.59-.59,3.39-1.28,6.26-.63,10.13,2.77-.47,5.13.37,5.53,2.1-1.33,2-4.35,5.18-7.1,3.76.41-1.04-1.07-2.98-1.09-4.18l-1.88-.58c.59-6.61-1.08-10.19-5.01-10.75-.66-4.03-.96-25.94,1.04-27.81,4.3-4.02,8.38-.63,6.24,5.13l.89,4.91c2.84-1.48,4.29.51,4.34,5.96,1.23.48,2.13-1.63,2.71-6.33,3.66-1.46,5.49-2.19,5.49-2.19-1.34-7.13,4.67-12.56,8.52-6.02,1.98-.26,1.46-4.05,1.47-5.59.03-3.09,3.21-2.84,4.61-1.57,2.47,2.24,2.17,5.56,4.73,5.12Z"/>
  <path class="st10" d="M137.53,90.12l2.16,2.25c1.09,10.86-.63,20.52-5.17,28.98,1.43.98,2.6,2.32,3.52,4.03-3.93.72-6.15,2.88-6.97,7.14-6.48,1.09-12.02,5.1-16.62,12.01-3.65.77-7.36,1.12-11.14,1.04-.43,4.68-.58,5.75-5.1,7.45-.93.35-18.85.28-19.95-.07-4.88-1.53-5.29-2.53-4.99-7.57-6.56,1.77-12.62-4.46-5.82-7.78,1.76-.39,3.44,3.08,4.84,3.47,8.82.18,17.66,2.54,27.48.91.49-2.78.34-5.87,2.49-7.41,1.69-.71,4.72-.92,5.49-2.4.9-1.73,1.14-3.74,1.36-6.33l7.25-.94,2.71-18.31c1.48-9.99-13.26-7.77-27.86-6.17.49,2.98-.1,5.05-.86,5.93-1.02,1.19-3.56,1.02-4.52-.04-2.08-2.3-.59-6.88-3.43-6.65-.9.07-2.52.6-3.5.14l-11.45-5.44c.61-2.92,1.75-4.32,2.63-6.17,2.46-.43,5,2.48,7.6,3.01,10.42,2.12,20.69.32,30.47-2.46-.33-2.48.29-4.74,1.28-5.34,1.23-.75,3.6-1.05,5.3-1.08l21.46-.34,1.34,8.15Z"/>
  <path class="st8" d="M131.06,132.52c-.52,2.7-3.95,2.83-6.96,3.15-.34,1.35.34,6.39-1.03,6.59l-5.18.75c-2.24,1.67-1.21,5.53-1.1,7.54.22,2.3-1.58,3.43-5.42,3.38.15,2.57-.03,4.19-3.02,4.79l-36.58.13c-2.11,0-3.51,1.67-4.07,2.9l-.03-2.82c-.03-2.62.51-5.11-.1-8.24-3.13.05-5.18.26-8-.49.61-2.63.2-5.87-1.22-6.87-1.95-1.37-4.64-.69-6.52-.23-1.74.42-3.62.29-5.35.23-1.44-3.89,3.4-5.66,5.76-2.46l-.12-6.27c7.02-3.97,7.16,5.06,15.32,3-.63,1.2-.02,5.43,1.4,5.44,2.58-.58,6.2-.96,7.08.9.56,1.18-.25,4.6.41,6.2l23.43.08,1.17-7.82c3.87-.44,10.36,1.41,13.82-1.23,4.48-10.41,13.74-6.4,11.39-14.92,1.54-.77,2.49-.89,5.01-.68l-.09,6.94Z"/>
  <path class="st21" d="M115.29,59.15c0,1.87.82,6.02-.76,7.65-1.02.65-4.18.13-5.05,1.63-.91,1.57-.58,3.19-.08,4.85.7,2.3.96,5.26-.87,6.98-2.81-.47-3.43-1.72-2.98-4.29-4.74,4.4-28.48,7.27-31.57,1.35-1.21-2.32-.6-3.06,2-3.97l.21-7.52c2.7.42,5.32,1.15,7.19-.75-3.14-.26-6.61.54-7.82-1.44l1.31-2.77,27.64.72c.24-3.11,1.5-4.78,3.78-5,2.14-4.47,7.36-2.38,7,2.58Z"/>
  <path class="st30" d="M59.25,90.24c-1.77.23-4.11-.56-6.12.97.76,2.43.79,5.31-.22,7.11-.69,1.24-4.87.3-5.48,1.65-.93,2.05-.43,4.8-.95,6.16-.72,1.88-5.4,2.18-6.25.42-1.28-2.66-.44-6.11-2.04-7.73l-1.61-10.07c4.53-1.28,5.21-5.19,2.03-11.75l3.63-2.45,1.39-1.62c.96,1.07,2,1.77,4.03,2.14l-2.11,5.75,13.47.7.24,8.74Z"/>
  <path class="st28" d="M122.39,49.4l-5.74-.18c-.58,3.42-.25,5.98.07,8.6-.56,0-1.43.8-1.43,1.32-1.93-1.66-4.41-2.51-7-2.58-3.25-4.8-5.14-4.47-5.68.98-6.1,2.17-17.76,2.53-24.53,1.74l-1.97-2.8c-4.65-1.6-2.09-3.89-1.21-1.89.5,1.14.7,2.19.16,3.37-3.91-.09-8.01-.68-11.5,1.02-3.76-1.88-4.6-6.08-2.82-9.85l5.33-2.76c17.84.93,35.62.43,53.33-1.51,3.49-.02,5.24,1.54,2.99,4.53Z"/>
  <path class="st20" d="M138.03,125.39c-1.72-.32-3.7-.12-4.81.2-4.24-6.73,1.75-9.36,2.74-12.67,2.32-7.81-1.28-16.4,1.57-22.79l6.93.06.07,26c-2.43-.03-4.55.56-5.37,1.52-1.49,1.74.57,5.57-1.13,7.68Z"/>
  <path class="st24" d="M75.98,73.34c-1.62,5.94,9.31,4.42,22.64,3.54,2.57-1.81,5.78-5.63,10.16-2.54-.71,2.45-.46,4.24-.25,5.91-.57.53-1.12.96-2.74.71l-3.54-.56-2.96,3.42h-22.47c-1.52-2.73-3.53-5.17-8.07-3.99-1.66.43-2.95-5.41-.26-5.69l7.49-.8Z"/>
  <path class="st15" d="M108.29,56.57l-.95,7.89-31.78-.83c-.69-1.12-.45-3.25-.6-4.42-.8-3.05-.42-3.95,1.15-2.71l24.65-.08c-.52-3.63.92-5.51,2.67-5.76,1.89-.27,4.39-.93,5.09.71.75,1.78.28,3.83-.24,5.21Z"/>
  <path class="st16" d="M76.11,56.49c-.08.95-.49,1.93-1.15,2.71-.06-.47-.07-.82.1-1.23-.7-1.85-5.12-.96-6.63-2.01-2.28-1.58-1.29-5.71,1.33-5.32,1.47.22,4.82-.92,5.97.97.63,1.05.31,3.59.38,4.88Z"/>
  <path class="st23" d="M67.93,18.89l1.89-.55c1.76,3.35,3.14,3.41,4.11.18,7.75-1.15,15.62-1.63,23.61-1.44.48-2.89,1.9-4.35,4.23-4.38,2.24-.02,4.01-.53,6.51.52.49,5.18,1.62,12.59-.89,17.03-1.5.15-5.52-.7-6.02.4-.58,1.28-.57,3.78-.26,6.47l-25.92.44c.21-2.54-.29-5.24-1.54-6.08-.97-.65-4.44-.13-5.19-1.02-1.57-2.44-.39-8.44-.53-11.57Z"/>
  <path class="st31" d="M67.67,38.42l-.14,3.88c-.02.49.33,1.43,1.51,1.43h39.36s2.36-6.4,2.36-6.4l14.12.56.05,11.15c-.64.45-2.04.38-2.54.36.04-.73-1.31-1.95-2.84-1.74-20.02,2.85-39.38,1.55-58.82,1.48l-8.7-.03c-.74-3.68-.79-7.11-.24-11.09l15.86.39Z"/>
  <path class="st12" d="M101.79,12.69c-.82,2.21-.69,4.48-2.17,7.14l-24.09.62c-1.03,2.4-3.04,7.4-6.22,5.97-.5-1.6.29-5.65-1.37-7.53-.07-1.39-.54-5.83.98-5.85l32.87-.35Z"/>
  <path class="st27" d="M38.19,98.82c-3.85-3.9,1.47-10.37-5.32-8.48l-.75,24.89c1.64.79,3.96,1.7,4.66,2.9l.14,9.8c-.63.39-3.36.73-3.93-.37-1.49-2.84-.86-6.04-.43-9.33l-8.18.02.39-32.45,7.48-.04.26-10.24c3.8.52,7.77,1.35,9.76-.98-1.56,2.62-.76,4.64.6,7.45,1.8,3.7-.11,8.06-4.43,8.43-.72,3.26-.36,5.7-.23,8.4Z"/>
  <polygon class="st18" points="116.79 150.56 116.8 158.87 108.35 158.72 108.69 150.91 116.79 150.56"/>
  <path class="st17" d="M47.97,134.88c3.06-.36,2.19,2.75,4.27,6l-5.76,2.46-1.22-.04-.46-5.69c-.1-1.19.58-2.56,1.14-2.6l2.02-.14Z"/>
  <path class="st27" d="M45.1,128.35c.57,2.42.84,6.95-2.31,6.92l-3.85-.04c-.86,0-1.09-2.27-.94-3.12l2.25-2.99c.98-1.56,3.59-1.08,4.85-.77Z"/>
</svg>