<?xml version="1.0" encoding="UTF-8"?>
<svg id="_레이어_1" data-name="레이어_1" xmlns="http://www.w3.org/2000/svg" version="1.1" viewBox="0 0 177.48 177.48">
  <!-- Generator: Adobe Illustrator 30.3.0, SVG Export Plug-In . SVG Version: 2.1.3 Build 182)  -->
  <defs>
    <style>
      .st0 {
        fill: #c2190f;
      }

      .st1 {
        fill: #b7100b;
      }

      .st2 {
        fill: #f02e23;
      }

      .st3 {
        fill: #c2170e;
      }

      .st4 {
        fill: #fdfcfd;
      }

      .st5 {
        fill: #fa4739;
      }

      .st6 {
        fill: #fa4c3d;
      }

      .st7 {
        fill: #c6180f;
      }

      .st8 {
        fill: #af110b;
      }

      .st9 {
        fill: #bc1a14;
      }

      .st10 {
        fill: #c3170f;
      }

      .st11 {
        fill: #7b0402;
      }

      .st12 {
        fill: #c3180f;
      }

      .st13 {
        fill: #730201;
      }

      .st14 {
        fill: #7d0502;
      }

      .st15 {
        fill: #c41a13;
      }

      .st16 {
        fill: #700403;
      }

      .st17 {
        fill: #bf1b12;
      }
    </style>
  </defs>
  <path class="st16" d="M163.45,138.7c-.75-.17-1.57-.44-1.9-1.1s-.61-12.08,2.1-11.74l-1.91-.89.09-69.98c-2.31-.67-5.07-.94-8.28-.81-.98-.99-1.7-1.93-2.14-2.83l-.37-10.64c-4.11.73-6.87.08-8.28-1.95l-.66,1.91c-38.91.02-77.83.04-116.75.06l-1.17-1.91c-.68,2.24-1.35,4.43-2,6.58,1.27,2.11,1.69,4.85,1.28,8.22-2,1.13-4.54,1.49-7.62,1.07.2,2.4-.41,3.7-1.83,3.91l.1,67.03c.75.07,1.38.21,1.61.6.37.62,1.6,12.71-1.16,12.51.88.12.8.38-.09.75-2.94-1.15-5.8-.82-10.64-.57l-.13-97.72,10.65-.19.38-12.69,148.66-.05.39,12.7,10,.39v97.34s-10.32,0-10.32,0Z"/>
  <path class="st13" d="M23.01,139.09c43.37-.02,86.72-.09,130.05-.2-.48-2.1,8.91-2.1,9.29-1.75,1.47,1.41.93,9.65.4,12.01l-148.31.05c-.7-3.7-.32-6.74.02-9.73.03-.22.11-.51.09-.75.54-2.94,7.91-2.49,8.46.36Z"/>
  <path class="st1" d="M163.66,125.86l-.21,12.84c-.05,3.41,1.15,7.29-.71,10.46v-10.17s-12.56.4-12.56.4l-127.17-.29.66-1.92c42.61-.07,85.2-.34,127.77-.82l-.19-8.96c.1-4.34,10.82-4.74,12.41-1.54Z"/>
  <path class="st2" d="M163.66,125.86l-10.52.2.27,12.43-130.39.6c-2.48-2.37-3.12-10.99.03-12.83-2.84.09-2.47-3,.19-3.38,1.01.43,8,1.75,8.55,1.08.32-.38.35-4.84.1-5.54-4.05.72-6.77.08-8.14-1.92l-1.92-.87c.14-16.85-.07-33.66-.61-50.43l1.83-1.36c.39-.79.71-.73.96.14l1.06-1.9c8.58-.69,11.46.51,10.6,9.63l7.8.48c2.4,2.42,3.27,6.04,2.61,10.84,8.87-.66,11.28,3.37,10.96,11.64,3.97-.49,6.62.19,7.94,2.06l.11-1.27c7.21-1.74,12.07-.75,10.96,8.15,4.29-.57,7.31.35,9.08,2.74.84,4.05.27,6.79-1.7,8.21,1.84.92,2.55,3.37,2.13,7.34l5.6.06.35-6.29c2.18-2.22,5.14-3.16,8.85-2.82-.48-3.6.26-5.91,2.21-6.92.87-1.89,3.32-2.7,7.35-2.44-.56-3.33.12-5.41,2.05-6.24l1.26-1.94,8,.02c-.84-3.19-.35-5.28,1.49-6.27-1.71.02-2.33-1.05-1.86-3.22l-7.62.13-1.32-1.89c-1.63-.43-2.33-1.8-2.08-4.11h-14.72c.56,4.13-.48,6.56-3.11,7.29-7.96,1.19-11.51-1.27-10.65-7.39l-14.33-.04c.4,2.72-.28,4.36-2.05,4.94-1.18,2.14-5.34,1.64-7.51.96-5.37-1.69-5.87-5.04-5.5-10.21-3.73,0-6.87-.85-9.43-2.52l-.37-7.59c-8.5.35-11.78-1.74-10.48-10.62l1.88-1.34c-3.53-.44-2.04-5.19,1.13-6.53l105.54-.52c-.37-3.96.48-6.51,2.55-7.65l10.45.05.12,13.57,10.41.1-.1,73.38Z"/>
  <path class="st6" d="M142.77,38.76l-.73,9.55-107.31.49c-1.33,0-1.21,3.56-1.18,4.65-.65,2.98-8.9,2.62-9.66-.26-.51-2.02-.7-4.15-.6-6.37-2.36-.47-2.43-2.61-.14-3.23-.21-1.9.13-3.49,1.03-4.78l118.58-.06Z"/>
  <path class="st17" d="M24.19,38.82c-1.23,4.78-.39,9.62-.3,14.38.69,0,1.73.05,1.92.58.5,1.36.74,10.25-1.81,10.2l-.96-.14c-1.55.27-2.28-.96-2.19-3.7l-4.52.18v63.12c1.29.8,3.13,1.09,5.51.87l1.21,1.96c-.23,4.02.46,8.13-.03,12.83l-8.46-.36-.75-12.45-.35-65.27.52-8.21,9.13-.1-.09-6.09c-2.58.32-4.11.61-7.05.03,1.26-2.5,1.01-4.2.78-6.89-.07-.77,2.13-1.1,2.55-.46,1.04,1.56.89,3.55,2.4,4.55,2.52,1.68-.4-5.02,2.5-5.03Z"/>
  <path class="st4" d="M111.91,84.07c2.55.89,2.57,3.45.03,7.66,2.86-.38,2.75,5.04.02,5.51-.94,1.86-3.42,2.59-7.44,2.17.62,3.39-.04,5.56-1.97,6.5-.73,1.84-3.16,2.55-7.3,2.12.58,3.9-.48,6.69-3.19,8.38-4.21.77-7.09.15-8.64-1.87l-.23-8.75-9-.33-.31-8.5-8.91-.26c-.73-.1-1.77-.26-1.91-.81-.53-1.97-.7-10.78,1.91-11.13l.1-6.86,18.25.05.15,7.18,9.62.23.04-7.31h18.35c.51,2.01.42,4.07.43,6.02Z"/>
  <path class="st11" d="M33.55,53.45l.26,9.5,10.22.62.14,9.31,9.66.49c.25,2.72-.75,7.14,1.25,9.08,2.57,2.49,7.07,1.31,9.87,2.32v11.94s-10.54.1-10.54.1c1.65-3.58.47-6.99-1.1-11.39l-9.11-.53-.3-10.79-10.11-.52-.23-9.54-9.55-.08-.11-10.77,9.66.26Z"/>
  <path class="st14" d="M122.71,89.05c-1.29,1.66-3.72,2.15-7.29,1.47-1.2.9-2.36,1.31-3.48,1.21l-.03-7.66,10.47-.18.13-10.57,9.72-.17.71-10.22,9.77-.1.3-9.53,9.85.18.21,10.21-9.4.17c-1.1,3.23-.96,6.12-1,9.88l-9.98.27-.56,10.75c-2.94,1.12-5.57.33-8.51.59-1,.2-.97,2.75-.9,3.7Z"/>
  <path class="st8" d="M122.71,89.05l.52,7.66,9.24.44.4,8.72-9.84.27-.58-8.68c-3.79-.79-7.2-.23-10.5-.22l-.02-5.51c.4-.63.95-2.65,1.96-2.93,3.18-.57,6.09,0,8.81.25Z"/>
  <path class="st7" d="M143.53,116.26c-.12.87-.44.92-.97.19l-9.46-.35c-.69-3.32-.7-6.54-.16-10.02l10,.37.6,9.81Z"/>
  <polygon class="st12" points="142.56 116.44 143.53 116.26 153.27 116.54 153.19 125.96 142.97 125.73 142.56 116.44"/>
  <path class="st5" d="M23.04,63.83l.52,7.9.18,44.77c2.91-.15,2.29,6.12-.51,6.38l-.19,3.38-8.63-.34V58.19s8.56.03,8.56.03l.07,5.61Z"/>
  <polygon class="st15" points="102.55 105.92 102.27 114.63 93.43 115.22 92.99 123.89 83.35 123.78 83.41 114.55 93.1 114.51 93.41 105.82 102.55 105.92"/>
  <polygon class="st10" points="44.09 116.13 33.71 116.32 33.8 106.25 43.83 106.68 44.09 116.13"/>
  <path class="st0" d="M23.24,122.87l.51-6.38h9.86c.43,3.33.42,6.13-.05,9.4l-9.26-.11-1.06-2.9Z"/>
  <path class="st3" d="M53.71,105.88c-3.35.59-6.23.46-9.52-.05-.42-3.05-.45-5.44-.09-8.49,3.36-.46,6.17-.57,9.45-.08l.16,8.62Z"/>
  <polygon class="st9" points="111.96 97.24 111.77 105.59 102.55 105.92 102.63 97.26 111.96 97.24"/>
</svg>