<?xml version="1.0" encoding="UTF-8"?>
<svg id="_레이어_1" data-name="레이어_1" xmlns="http://www.w3.org/2000/svg" version="1.1" viewBox="0 0 177.48 177.48">
  <!-- Generator: Adobe Illustrator 30.3.0, SVG Export Plug-In . SVG Version: 2.1.3 Build 182)  -->
  <defs>
    <style>
      .st0 {
        fill: #5d2001;
      }

      .st1 {
        fill: #562004;
      }

      .st2 {
        fill: #642b06;
      }

      .st3 {
        fill: #6f2602;
      }

      .st4 {
        fill: #662706;
      }

      .st5 {
        fill: #ad601d;
      }

      .st6 {
        fill: #7c3204;
      }

      .st7 {
        fill: #692a07;
      }

      .st8 {
        fill: #6a3410;
      }

      .st9 {
        fill: #c47627;
      }

      .st10 {
        fill: #9d4f13;
      }

      .st11 {
        fill: #5f2405;
      }

      .st12 {
        fill: #a65a18;
      }

      .st13 {
        fill: #7c3605;
      }

      .st14 {
        fill: #7a3101;
      }

      .st15 {
        fill: #602c0f;
      }

      .st16 {
        fill: #682a07;
      }

      .st17 {
        fill: #b3621b;
      }

      .st18 {
        fill: #572408;
      }

      .st19 {
        fill: #572205;
      }

      .st20 {
        fill: #6f2d05;
      }

      .st21 {
        fill: #f8d4a7;
      }

      .st22 {
        fill: #692b07;
      }

      .st23 {
        fill: #ce8230;
      }

      .st24 {
        fill: #ad5d16;
      }

      .st25 {
        fill: #662905;
      }

      .st26 {
        fill: #622808;
      }

      .st27 {
        fill: #5d2303;
      }

      .st28 {
        fill: #af5f1c;
      }

      .st29 {
        fill: #e5a151;
      }

      .st30 {
        fill: #5a1f02;
      }

      .st31 {
        fill: #5b2a0a;
      }

      .st32 {
        fill: #5e2605;
      }

      .st33 {
        fill: #572307;
      }

      .st34 {
        fill: #632504;
      }
    </style>
  </defs>
  <path class="st21" d="M47.64,54.92c2.65.47,3.72,2.39,3.21,5.76,5.41.3,7.06,1.74,4.94,4.33-.37,3.44.28,5.56,1.96,6.36l2.57-2.92c7.42,1.72,11.07.7,10.95-3.05,2.02-2.69,4.29-4.2,6.81-4.53,2.2-7.26,2.92-14.97,2.17-23.13l2.94-3.17h8.46c3.33,4.27,4.68,10.13,4.05,17.59-.02,7.14,1.45,10.19,4.4,9.13l2.22,2.92c.32,2.36.72,4.99,1.2,7.89l1.7-3.13h12.87c.31-3.92,3.64-7.08,7.6-8.18-.27-5.93,7.09-12.03,10.75-5.86,0,2.05-.46,4.75.87,7.27.56,1.07,3.37.81,4.05.36,1.37.47,1.34,1.01-.01,1.61-.36,4.87-.84,9.63-6.46,11.03l.07,16.97c2.75-.2,4.35.13,5.06,3.28,1.01.45,1.09,1.05.26,1.81,6.68-.12,3.84,11.38-1.89,7.65l-5.26-1.32c-2.13-.77-4.17-1.88-6.11-3.35l-3.49.99c-3.19-4.55-5.51-9.63-6.94-15.24-4.38-.25-8.71-.78-12.98-1.57-1.89-.63-3.14-2.02-3.74-4.18l-22.45-.09c-.21,6.27-3.87,9.5-10.04,8.62.21,2.41.2,4.14-2.65,5.23.26,2.7-1.27,3.85-4.58,3.45.18,3.2-1,5.04-3.54,5.5-.34,1.51-1.72,1.91-4.15,1.21-3.86,3.76-5.39,1.21-7.18-3.27-2.14,4.87-4.1,6.47-5.88,4.82l-6.66.67c5.9.18,4.77,9.27-1.03,8.05l-.27-7.19c-4.07,1.18-8.2,1.72-10.95-.67l.11-2.09c4.12-.52,7.67-2.01,10.65-4.47,1.61-2.03,3.83-3.58,6.65-4.64,5.33-5.77,4.79-21.66-2.56-24.97-.87-3.11-.95-5.39,2.66-6.21-1.42-.32-1.47-.89-.21-1.7,2.52-2.14,2.08-5.5,2.01-9.24l-.45-23.68c-.03-1.69.72-2.75,1.64-3.12l3.14,1.36.09,24.32,3.4,2.79Z"/>
  <path class="st5" d="M73.79,26.76c1.22.33,3.06.86,3.14,1.8.31,3.75.77,32.18-.18,33.57-4.43,3.75-10.09,5.36-16.99,4.85l-2,4.4c-.56.68-2.61,1.11-2.81-1.12.8-1.72.84-5.52-.56-5.86-1.56-.37-3.5-.3-6.12.1-.72-3.09-.77-6.74-.62-9.57l-3.04-1.92c.42-8.22.84-16.45,1.26-24.68l3.24-2.04-.07-3.1c18.35,1.84,32.59-1.96,2.02-1.36l-2.14-3.14c-.18-.76.49-1.5,1.69-1.47l21.38.63c3.26.1,1.81,6.51,1.81,8.93Z"/>
  <path class="st12" d="M30.61,63.02l7.2-.53.21,1.7c-1.49,1.9-3.1,3.2-4.83,3.92,2.4-.65,4.9,2.3,6.23,4.35.66,1.02,3.05,22.81-1.51,22.9.46,1.53.02,4.02-1.15,4.5-1.77.74-3.76.47-5.51.13l-2.64,2.66c-6.08-1.33-11.8-3.21-17.17-5.65l-8.33-2.65c.07-2.41,1.92-3.47,5.56-3.19l-.11-26.15,3.13-2.24-.42-4.98,3.45.37c1.94,2.7,6.42,3.33,13.44,1.89l2.44,2.96Z"/>
  <path class="st24" d="M165.02,62.8l1.24-.03c2.4,4.22,3,9.44,1.79,15.67,1.33,6.39.68,11.65-1.96,15.76-.04.79-.87,1.17-1.32,1.3l-1.38,3.26c-8.36,1.75-16.07,1.25-23.12-1.51-.19-.54-.27-1.31-.26-1.81-4.73.72-3.27-21.2-2.67-22.24,1.45-2.51,3.34-3.51,5.84-4.2-.61-2.15.41-3.42,2.49-4.64.67-6.4,17.16-6.86,19.35-1.57Z"/>
  <path class="st9" d="M141.33,114.35l3.14,1.37.06,26.24-3.13,2.22c.04,2.47-1.79,3.49-5.49,3.04.51,3.28-.38,5.52-2.69,6.74.42,2.01,1.18,7-1.14,7.62-2.7-.26-3.72-1.99-3.07-5.21l-22.63.2c-3.4-2.38-6.14-5.56-8.2-9.54l.59-3.68c7.35-1.72,14.93-2.2,22.76-1.44,1.86-3.99,4.54-6.91,8.04-8.75l.93-26.71c1.04-1.47,2.84-2.44,4.54-1.79l3.16.88c-.32,3.32.73,6.26,3.13,8.82Z"/>
  <path class="st22" d="M136.45,54.93l-7.59,1.34c.05,3.17.35,5.71-1.21,8.42-1.83-.44-5.12-.08-5.77.85-.78,1.11-.33,3.67.31,6.57l-18.64-.02c-1.08-2.19-.97-9.06.2-10.62l12.68-.56c.25-5.67.9-9.38,7.63-8.69l.32-23.39,3.13-2.23,8.83.24.13,28.09Z"/>
  <path class="st23" d="M92.73,144.81l-2.05,2.87c-7.23-.59-12.79,1.36-16.69,5.87l-1.83,3.11c-8.7-.12-17.4-.24-26.1-.36l-2.19-3.17-6.35.14c.7-2.3,1.83-4.17,3.4-5.61-3.06-.18-4.92-1.34-5.59-3.49-4.76-.38-4.85-11.04-.25-12.11,1.9-4.72,8.58-2.28,11.84.81-1.8,10.13,9.39,12.93,17.27,10.13,6.82-5.03,23.5-12.92,31.34-7.16,3.55,2.61,2.49,10.86-2.79,8.98Z"/>
  <path class="st32" d="M83.19,34.57c.71,8.75.27,20.31-1.69,29.05l-6.48.76c-1.17.14-.62,4.66-.6,6.63-4.78,1.93-11.91.69-16.67.36-.89-2.02-1.63-4.44-1.35-7.25l17.38-1.53V26.76s8.06-.22,8.06-.22c-1.51,3.6,1.2,6.1,1.35,8.04Z"/>
  <path class="st16" d="M92.73,144.81c3.35-2.1,4.76-1.67,5.45,2.21.98-.25,3.3-.08,4.33.64,1.09.77,1.62,3.04,1.6,5.78l28.11-.25-.15,8.38-27.81.38-1.13-6.95-14.98-1.72-14.17.26c.07-2.22-.15-4.58.5-6.94,6.42-.58,12.65-2.94,18.24-1.79Z"/>
  <path class="st15" d="M35.07,132.06l.25,12.11c-.01,2.95-.59,2.46-2.28.19l-7.04.04-.07-29.6,5.8-.4c2.56-1.3,1.47-5.43,1.03-8.05,8.47-2.61,14.19-1.23,8.72,8.64-.74,1.33-2.16,2.3-3.43,3.13,1.32,6.85.33,11.5-2.97,13.94Z"/>
  <path class="st25" d="M164.78,95.51v8.12c-7.13-.32-8.29,6.73-22.19,3.37-1.22,3.07-1.26,5.18-1.26,7.35l-6-.35-.29-9.35c.01-1.27,2.2-.36,3.35.26,2.97-.83,2.77-5.1,1.89-7.65,2.85-3.53,7.02-.29,10.85-.61l13.65-1.14Z"/>
  <path class="st2" d="M105.15,26.69l2.71,3.31c-4.95,9.72-5.69,20.3-2.22,31.72l-3.32,2.5-7.31.77c-2.99-10.07-3.07-20.21-3.37-30.4,1.66.35,3.42-.31,4.02-1.39.69-1.23-.19-5.2.73-6.03,1.96-1.75,6.76-.39,8.75-.48Z"/>
  <polygon class="st4" points="11.7 62.78 11.83 94.95 3.12 94.36 3.36 63 11.7 62.78"/>
  <path class="st1" d="M166.1,94.21c-1.38-10.27-1.82-21.24.17-31.44,1.67-.04,5.68-.46,6.93,1.17l-.04,29.88c-2.11,1.35-5.82.87-7.06.38Z"/>
  <polygon class="st11" points="73.99 153.55 73.73 161.91 44.09 161.73 43.87 153.13 73.99 153.55"/>
  <polygon class="st27" points="141.4 144.17 141.33 114.35 149.63 115.57 150.15 144.49 141.4 144.17"/>
  <path class="st33" d="M49.1,26.27l-1.46,28.64c-2.27.08-4.08.43-6.55,1.3l-.08-29.78,8.1-.17Z"/>
  <path class="st26" d="M49.03,23.17l-.13-4.5,23.38.1.4,7.92-16.11.14c-3.72.03-6.38-.78-7.54-3.66Z"/>
  <path class="st34" d="M127.49,26.61l-1.71,3.14c-4.86.77-18.85,1.48-20.63-3.06-.09-2.36-1.04-4.75,0-8.53l22.12.16c1.26,3.55.2,5.95.21,8.3Z"/>
  <path class="st18" d="M31.26,100l-.12,6.5-10.64.06c-1.09-3.07-4.03-3.07-8.03-3.23-1.76-.07-1.59-5.14-1.02-6.31,3.79-3.58,9.43,1.08,19.81,2.99Z"/>
  <path class="st7" d="M165.02,62.8c-6.46.15-13.04-.95-19.35,1.57-.07,4.66-3.31,4.3-4.33-.21v-1.61c1.73.77,3.69.23,4.39-.91s-.15-5.75.91-6.37c4.34-1.26,12.84-.48,17.76-.61l.61,8.13Z"/>
  <path class="st31" d="M30.61,63.02c-5.07.37-10.55,1-16.43-.08-1.69-.61-2.43-4.07-2.9-5.14-.07-.8-.13-3.09,1.35-3.09l17.52-.05c.83,3.4.54,5.9.46,8.36Z"/>
  <path class="st8" d="M37.51,153.27c-4.77.11-1.51-4.21-4.48-8.91l2.28-.19c2.15-.18,5.66-.59,7.78.88,1.22.85,1.28,5.47-.03,6.42-1.19.86-3.87.97-5.56,1.8Z"/>
  <path class="st3" d="M141.4,144.17l-.2,9.44-7.97.34c-.47-2.25-1.33-7.2.71-9.06,1.83-1.67,5.75-.67,7.46-.72Z"/>
  <path class="st28" d="M103.59,86.23c2.63,1.5,6.83,4.5,6.8,7.63,3.83,2.74,5.97,7.72,6.42,14.94,7.17.43,8.39,18.47,2.75,21.37-2.79,6.87-14.24,5.54-18.64.5,1.6-3.24-9.54-4.56-12.82-4.52-4.99.06-10.55,1.22-12.74,5.37,5.2,5.56-5.26,8.64-10.74,8.84-6.25.23-14.96-3.58-8.13-8.65-4.77.9-4.17-22.29-3.57-23.41.64-1.2,1.66-1.92,2.97-2.27-3.95-1.32-3.7-2.35.73-3.09l.22-8.42,7.9-.53c-.45-2.84,1.6-3.96,6.15-3.36.47-2.09,3.25-5.99,4.74-7.08,1.04-.76,22.87-.72,25.72-.44l2.25,3.12Z"/>
  <path class="st29" d="M127.02,100.24c2.54.65,4.58,1.77,6.11,3.35,1.65-.5,4.27-.35,5.26,1.32l-3.35-.26c-3.66-.28.43,17.68-3.06,30.28-3.11,1.82-7.09,5.4-7.47,9.93-8.48.88-18.87-1.69-26.33,2.17-1.98.5-4.18-.97-5.45-2.21,1.04-1.21,2.51-5.08,1.18-6.75-5.49-.5-13.42-1.67-18.32,1.5l-7.42,4.8c-6.89,4.46-14.12,3.75-21.53-1.36-2.32-1.6-3.39-4.5-1.9-8.75-3.49-1.76-6.58-1.38-9.67-2.2l-.19-15.96c4.44-1.47,5.72-4.95,5.25-9.49l-7.37-.26c-.28-1.71,4.96-1.53,6.62-1.58,1.95-3.2,4.21-9.48,9.18-8.61.28,1.29-.47,5.84,1.35,6.89,1.72.99,4.86.35,6.71-.12l-.73,3.09c-6.1,4.25-4.2,21.3.6,25.68-.08,1.85.54,3.55,1.54,4.39,1.25,1.06,16.07,3.31,17.33-4.58.34-2.58,4.15-4.12,6.53-4.53,9.37-1.6,15.53.44,21.91,6.14,7.09,2.77,10.9,1.7,17.24-1.84,4.18-6.76,3.31-16.4-2.2-21.55-2.46-5.44-4.81-10.65-7.04-15.61-2.54-.49-3.44-2.09-2.7-4.81-2.89.1-4.73-.93-5.5-3.08-3.04.24-3.02-.97.03-1.81l14.85-1.92c3.07,6.07,3.43,13.46,8.55,17.74Z"/>
  <path class="st17" d="M127.49,26.61l.09,26.95c0,1.92-5.75,2.35-7.52,1.31l-.58,9.15-15.6.21-.35,7.88c-2.16-.69-1.68-5.75-1.2-7.89,1.28-5.75-4.22-16.06-1.17-26.43,1.13-3.85,4.14-7.15,3.99-11.1l22.34-.08Z"/>
  <path class="st20" d="M103.62,84.42l-.03,1.81-27.97.19c-1.25,2.12-1.45,4.58-1.87,7.25l-9,.33c-.22-1.64-1.21-5.67.43-7.29,1.75-1.66,5.91-1.11,8.6-.77l.46-8.93,28.88.12c.7,2.89.46,5.12.51,7.31Z"/>
  <path class="st0" d="M141.35,64.17c1.19.08,3.22.65,4.33.21.33,1.7.74,3.51.47,5.29-.29,1.9-2.86,3.18-5.76,3.05l-.37,22.74-8.18-.17-.09-23.16c3.04.47,6.2-.74,6.19-3.18,0-1.99.29-3.68,1.11-4.54.43-.45,1.71-.51,2.31-.24Z"/>
  <path class="st19" d="M38.01,64.19l.12,5.23c.04,1.66,3.84,2.18,5.72,2.94l.26,21.86c-.12,1.61-5.14,1.77-6.22,1.15l-1.74-24.42c-1.84.06-4.52.88-5.38.21s-.8-3.72-.67-6.21c2.22-1.37,5.32-.91,7.89-.75Z"/>
  <path class="st10" d="M133.13,103.59c-2.44.73-4.74,1.45-7.3.16l1.19-3.5c1.24-1.71,4.1-2.67,5.32-.84.61.92.66,2.92.79,4.18Z"/>
  <path class="st13" d="M119.56,130.16c2.23-2.74,3.29-1.98,1.47,1.12-2.27,4.09-4.9,5.66-8.66,6.04-4.95.5-6.86-2.14-10.78-3.52-3.6-1.27-6.38-.69-8.39-4.73-8.25-4.94-12.01,4.53-17.85,2.44-.96-.79-1.74-6.88.24-6.88l28.26-.02.24,7.13c5.45.85,10.97.87,15.47-1.58Z"/>
  <path class="st14" d="M121.04,131.29c.37-.84-.82-1.48-1.47-1.12l-.12-18.64c-2.12.35-3.38.68-5.19.45l-3.86-18.12c.58-1.2,1.04-1.08,1.4.26,1.82.08,4.37.21,5.19,1.47s.14,4.69.92,6.08l7.93,14.11c2.25,4.01.34,9.71-.13,14.27-.21,2.05-3.73,1.87-4.67,1.24Z"/>
  <path class="st6" d="M55.89,106.03l.6,25.68c-.88.28-4.67.4-5.88-.6-2.42-16.16-2.2-31.15,5.28-25.07Z"/>
  <path class="st30" d="M111.79,94.12c-.42-.02-1.1-.08-1.4-.26-1.64-1.13-3.61-1.18-6.52-.19l-.28-7.44c1.89-.01,5.67-1.15,7.59.44,1.71,1.42.78,5.79.6,7.45Z"/>
</svg>