<?xml version="1.0" encoding="UTF-8"?>
<svg id="_레이어_1" data-name="레이어_1" xmlns="http://www.w3.org/2000/svg" version="1.1" viewBox="0 0 177.48 177.48">
  <!-- Generator: Adobe Illustrator 30.3.0, SVG Export Plug-In . SVG Version: 2.1.3 Build 182)  -->
  <defs>
    <style>
      .st0 {
        fill: #feda5a;
      }

      .st1 {
        fill: #237912;
      }

      .st2 {
        fill: #fcc351;
      }

      .st3 {
        fill: #890607;
      }

      .st4 {
        fill: #dc140d;
      }

      .st5 {
        fill: #63ca2c;
      }

      .st6 {
        fill: #fde499;
      }

      .st7 {
        fill: #960705;
      }

      .st8 {
        fill: #fcdbd0;
      }

      .st9 {
        fill: #1a790b;
      }

      .st10 {
        fill: #910809;
      }

      .st11 {
        fill: #a50c0c;
      }

      .st12 {
        fill: #fed844;
      }

      .st13 {
        fill: #870808;
      }

      .st14 {
        fill: #fdd355;
      }

      .st15 {
        fill: #287408;
      }

      .st16 {
        fill: #fdb03d;
      }

      .st17 {
        fill: #fb9d36;
      }

      .st18 {
        fill: #921616;
      }

      .st19 {
        fill: #1c7d0b;
      }

      .st20 {
        fill: #fea03b;
      }

      .st21 {
        fill: #e9100b;
      }

      .st22 {
        fill: #fb312d;
      }

      .st23 {
        fill: #83e647;
      }

      .st24 {
        fill: #8d0a0c;
      }

      .st25 {
        fill: #92110e;
      }

      .st26 {
        fill: #20790d;
      }

      .st27 {
        fill: #e0110b;
      }

      .st28 {
        fill: #970909;
      }

      .st29 {
        fill: #fdc85a;
      }
    </style>
  </defs>
  <path class="st22" d="M80,33.2c2.46.68,3.32,2.76,2.58,6.23,9.35-1.13,13.15,3.76,11.4,14.67,4.22-1.72,6.19.66,5.91,7.13,2.44,1.22,3.92,3.43,4.43,6.64,2.36,1.02,3.79-.5,4.31-4.56l3.47-.85c.11-4.58,8.69-4.28,9.47.07l3.06,1.29.11,14.98c6.17-.48,10.01,1.25,11.52,5.19,1.16,11-.03,21.34-3.57,31.02-6.63.18-9.61,5.29-8.94,15.33-4.75,5.33-8.86,6.16-12.32,2.47-.31,2.9-2.61,4.1-6.9,3.59-.39,6.03-5.3,7.26-10.42,8.05-3.87,4.66-10.53,2.09-12.53-2.94.59-9.1-.4-11.78-3.13.1.65,2.96-.88,3.72-3.4,4.24.4,8.13-1.65,11.87-10.42,10.62-.35,4.77-3.67,6.31-9.97,4.6l-4.79,2.27-.05,2.03c-3.27,1.3-7.17,1.77-11.7,1.41-.81,3.48-2.57,4.73-5.28,3.76l-.96-7.21-3.2-1.83c2.77-17.64-5.16-18.99-3.44-.01l-3.05,2.06c-2.95-5.7-1.08-12.43-1.08-18.52-1.2-.32-2.98-.85-3.05-1.78-.52-6.84-1.29-42.13-.02-46.59l3.05-2.23-.46-30.42c-.02-1.63.47-2.8,1.55-2.93l3.05,1.33c-.18,9.88-.05,19.69.38,29.4,1.44.42,2.56.32,3.37-.3l-.33-28.22,3.02-2.21c-.07-6.13-1.23-12.9,1.06-18.66l3.01,1.75-.3,13.8c2.28,1.34,3.09-.61,2.43-5.84l2.83-3.11c-.47-6.86,1.97-10.21,7.3-10.06-.51-4.23.49-6.47,3-6.73-.13-.8-.17-1.48.14-1.73,1.69-1.37,23.13-.9,26.84-.4l2.05,3.09Z"/>
  <path class="st15" d="M90.78,23.12c3.71-6.67,14.66-1.93,13.57,6.74,12.75-3.05,14.94,13.96,3.21,16.18l.36,2.83,23.29.06c2.87,1.65,4.29,4.82,4.25,9.51l17.01.43c-.39-3.95.79-6.23,3.54-6.84l7.88-.14c1.25,6.64,1.42,13.37.51,20.2l-13.02.39c-2.33,4.09-6.38,3.98-12.15-.31-3.04.73-5.14.52-6.32-.63-3.2.4-4.85-1.76-4.94-6.49.21-5.1-.63-7.88-2.52-8.32.21,3.56-1.09,5.49-3.9,5.8l-9.47-.07c-1.45,4.31-7.96,3.24-11.18,1.34-3.92-8.67-3.82-16.93-3.47-26.94-4.11.19-6.76-.93-7.96-3.36-7.1-.09-10.25-2.5-9.45-7.21-3.32.14-5.36-.96-6.12-3.29-.39-3.31-.71-6.69-.05-10.11l14.08.7c-1.5,3.3-2.44,6.24-1.42,9.07.94,1.16,3.33.37,4.27.48Z"/>
  <path class="st27" d="M132.92,71.53c3.7,0,7.69,1.06,11.97,3.16,2.7,10.86,3.59,22.04,2.64,33.56,4.09-.76,6.57.25,7.43,3.05-2.43,2.4-6.64,1.71-9.51,1.42-.59,2.43-2.65,3.33-6.19,2.69,1.49,6.58-2.04,18.13-7.5,9.67-1.12,2.22-1.01,4.62.36,7.22-1.91,2.11-4.63,3.29-8.17,3.52.89,4.83-.03,7.75-2.76,8.76-3.83,4.76-15.88,4.44-20.22.36-.98-2.8,1.04-4.71,6.04-5.72,1.07-2.79,2.54-4.93,4.39-6.43l9.33-2.01c.35-11.61,2.62-20.21,10.32-17.52,2.4-10.05,2.49-19.98,2.19-30.82l-11.55-.61-.14-19.31,1.27-8.96,7.56-.12c-.19,5.98.45,14.02,2.53,18.09Z"/>
  <polygon class="st18" points="21.07 94.42 21.09 145.02 11.88 144.94 11.84 94.68 21.07 94.42"/>
  <path class="st28" d="M121.34,152.47c.03,1.13-1.39,1.68-3,1.65l-16.94-.32-.65,10.22-23.55.45-.47,9.3-43.4-.08c-.56-.97-.43-2.63-.5-3.16,1.42-.96,1.95-3.26,1.27-6.68l15.76-.53c2.72-2.04,6.52-2.92,11.4-2.65,9.86,1.88,14.23.06,13.11-5.47.12-.86.29-1.85.95-2.46,2.73-2.53,18.57-3.1,23.53-2.63l2.97,2.49c.15-1.17.4-2.82,1.3-3.06,3.28-.88,17.46-1.24,18.22,2.92Z"/>
  <path class="st13" d="M151.39,72.48c-2.98,4.49,2.69,7.7,2.77,10.36l.81,28.46-10.53.1c.36-20.82.98-45.04-9.76-36.97-2,.17-1.39-2.17-1.76-2.89,6.54-1.05,12.54,1.12,18.47.94Z"/>
  <path class="st1" d="M144.02,42.68c2.09,4-9.98,3.2-10.95,2.61-4.57-2.79-6.29-10.58-1.09-13.11l2.29-2.95c5.36,1.09,7.15-.05,5.39-3.4-3.75.74-6.32-.21-7.7-2.84l.61-9.92,18.64.48.05,18.45c-2.26.78-4,.89-6.46,1.05-1.07,3.48-.7,6.56-.79,9.64Z"/>
  <path class="st25" d="M73.9,22.98c2.35-.03,5.5-.55,7.76.77,1.58.92,1.98,4.39,1.27,6.89,2.32,1.93,4.57,1.77,6.55,2.85-.22,4.58-8.79,4.08-9.48-.29l-28.64-.65-.55,10.28c-2.61-.2-6.24-.88-8.32.62-.72,1.14-.42,4.62-1.82,5.57-4.47-.31-4.66-5.84-.49-7.12l.71-9.64,9.71-.14c-.29-3.56-.35-6,.57-8.84l22.74-.3Z"/>
  <path class="st11" d="M31.64,61.08l.39,33.55c-2.95.64-5.99.54-9.88-.39v-33.18s9.49.01,9.49.01Z"/>
  <path class="st9" d="M121.7,22.94c-.89.56-2.13.59-3.71.11-1.16,8.56-11.08.95-9.26-6.47l-15.92.19-2.14-3.02c-3.77-.5-4.18-4.92-3-10.01l24.77-.04.14,9.89c2.33-.4,6.52-1.32,8.6.58,2.14,1.97.85,6.72.53,8.77Z"/>
  <path class="st7" d="M31.87,163.33l-9.7.21.02-18.24c3.76-.39,6.43-.2,9.83.48.93,6.22-.89,12.05-.15,17.55Z"/>
  <path class="st13" d="M145.46,112.72c-.09,3.39.9,8.01-.67,11.73l-4.44,2c-1.09.49.69,4.86-.19,6.29-.3.48-1.69.35-2.25.27l-4.47-1.02c-2.85,3.21-2.93-4.04-1.66-6.9,1.17-.15,4.14,1.02,4.74-1.88.46-2.25-1.49-7.46.68-9.89,1.59-1.78,6.2-.81,8.28-.59Z"/>
  <path class="st10" d="M121.2,144.59l.13,7.88-19.52.14c-5.17-.08-5.69-5.76-.83-7.66,6.88-.71,13.53-.16,20.22-.36Z"/>
  <path class="st3" d="M40.17,41.9l.49,7.12c.24,3.45.79,7.78-.71,11.63-1.37,1.02-4.93,1.11-7.66.26l.41-18.49c2.35-.73,4.91-.58,7.48-.52Z"/>
  <path class="st24" d="M137.91,133.01c-1.74-.23-4.36-.39-6.9.41-.06,3.93.41,7.33-.57,10.89l-9.24.28c-.12-3.58-.87-7.36.17-11.83l9.55-1.08c-1.31-2.67-.64-6.41.84-6.59-.05,1.1-.73,4.17,1.11,5.58,1.12.77,4.46.25,5.03,2.35Z"/>
  <path class="st19" d="M121.7,22.94l10.27.04c4.57.02,4.35,8.44.01,9.19-1.13,5.29-10.69,3.82-13.24-.49l-.75-8.65c.91-.28,2.71-.11,3.71-.11Z"/>
  <path class="st26" d="M156.01,52.03c-5.86,9.18-22.73-.26-11.99-9.35l11.3.12.69,9.23Z"/>
  <path class="st5" d="M164.41,72.09l-.51-20.2c2.13-.05,2.38,11.56.51,20.2Z"/>
  <path class="st21" d="M111.42,132.8c1.16,3.22-.39,8.4-4.37,9.88-2.09.78-4.71.45-6.06,2.27-.59,2.44-.11,5.02.83,7.66-7.34,1.85-14.92.8-23.89.79-1.18,3.51-.64,7.25-.77,10.89l-27.29-.95c.36-2.02,1.6-3.57,2.85-4.25,2.19-1.21,5.41.14,7.68.55l1.89-4.76c.96-2.41,6.69-.66,8.68-1.7,2.21-1.16-.6-7.44,2.19-9.61,1.19-.92,3.32-1.32,5.29-1.97.86-4.15,2.05-4.19,3.13-.1,2.76.2,5.41.99,8.26,3.33,3.96-8.08,13.98.76,10.72-11.19l10.86-.84Z"/>
  <path class="st4" d="M89.48,33.49c3.45.11,7.42-.95,11.01,1.21l-.02,27.08,11.62.67-2.31,7.28c-.76,2.32-7.98,1.61-8.55-.63l-3.23-12.86c-1.71.74-5.93,1.63-6.51.09-1.74-4.58-.44-8.92-.54-13.39l-10.96-.18c-.85-3.71-.4-6.61.01-9.56l9.48.29Z"/>
  <path class="st8" d="M41.15,80.42l-.34-19.13,9.92-.18c-.46-2.81-.44-5.29.39-6.77.77-1.38,4.24-1.09,6.04-.65,5.05,1.24.19-7.86,4.89-9.82,1.71-.71,5.85-1.43,6.17,1.43.28,2.52.22,5.78-.47,7.19-.77,1.56-4.67,1.73-7.2,1.09-1.33,3.14-1.18,5.43-.89,8.87l-8.61.24c-.03,4.13-2.44,6.93-2.13,10.4l.48,5.41c.14,1.54-4.04,1.94-8.27,1.91Z"/>
  <path class="st17" d="M32.81,100.65c2.87,1.18,4.06,4.7,3.57,10.56.32-5.11,1.83-8.57,4.53-10.37.17-3.37,2.37-5.1,4.91-5.02,4.23.13,5.43,1.9,5.22,6.58-.08,1.69.55,5.08-.93,5.82-1.72.85-4.29.9-7.16.03-1.37,2.19-1.12,4.57-1.04,7.53h-10.52s-.13-12.21-.13-12.21c-.02-1.61.55-2.72,1.56-2.92Z"/>
  <path class="st16" d="M99.42,94.42c-2.68.47-5.37.54-8.48.15l-.1-13.3,8.98-.13-.41,13.28Z"/>
  <polygon class="st6" points="40.92 100.84 40.25 114.25 32.92 114.25 32.81 100.65 40.92 100.84"/>
  <path class="st29" d="M50.62,142.37c-3.3,1.3-6.24,1.3-9.34.17l.73-9.65,8.63-.12-.02,9.6Z"/>
  <polygon class="st14" points="75.41 119.74 66.33 119.96 66.55 109.96 75.72 110.12 75.41 119.74"/>
  <path class="st20" d="M99.26,121.62c2.61,3.17.86,7.66-1.42,8.21-1.93.47-6.55,1.12-7.76-1.09-.95-1.72-.88-6.4,1.03-7.51,2.09-1.21,6.8-1.26,8.15.38Z"/>
  <path class="st0" d="M112.36,99.94c1.1-1.57,6.53-1.78,7.69-.57,1.4,1.45,1.04,6.16.31,8.03-.66,1.69-4.72,1.26-6.39,1.12-2.8-.23-4.19-4.92-1.61-8.58Z"/>
  <path class="st2" d="M76.5,80.77c2.4,2.13,1.47,7.73-.26,8.8s-6.9.73-7.42-1.22c-.69-2.56-.27-5.64,0-8.11,2.14-.13,5.99-.98,7.68.53Z"/>
  <path class="st12" d="M81.57,141.49c-.97-.07-2.19-.21-3.13.1-1.72-2.3-2.16-5.51-1.32-8.05.92-2.78,6.46-3.44,7.32-1.35,1.75,4.3-.05,8.1-2.87,9.29Z"/>
  <path class="st5" d="M117.99,23.05c1.78.24,3.01,1.2,3.3,2.39.49,1.98.49,4.18.12,6.72l10.57.02.36,10.04,11.68.46c-.13,2.81-.61,5.62.24,9.17,4.34,1.17,8.16.33,11.75.18l-.52,9.97-23.21-.59-.62-9.59-26.82.12c-.5-3.44-.62-5.64.18-9.08,2.7.4,6.16-.35,6.63-2.46.38-1.7.63-5.71-.97-7.36-1.2-1.23-4.78.52-7.47-.26-2.22-.64-2.49-5.46-2.09-8.17-3.54-1.58-7.81-1.19-10.34-1.47l-.12-9.38,21.06-.25c.77,3.23-.4,7.06.71,8.88,1.19,1.96,4.32,1.05,5.56.67Z"/>
  <path class="st23" d="M131.98,32.18v-9.19c3.15.04,6.48-.72,10.35.19,1.03,2.03,1.41,7.14-.04,8.43-3.23,1.7-7.44.5-10.31.58Z"/>
</svg>