<?xml version="1.0" encoding="UTF-8"?>
<svg id="_레이어_1" data-name="레이어_1" xmlns="http://www.w3.org/2000/svg" version="1.1" viewBox="0 0 177.48 177.48">
  <!-- Generator: Adobe Illustrator 30.3.0, SVG Export Plug-In . SVG Version: 2.1.3 Build 182)  -->
  <defs>
    <style>
      .st0 {
        fill: #f96074;
      }

      .st1 {
        fill: #f15f7b;
      }

      .st2 {
        fill: #7b300e;
      }

      .st3 {
        fill: #c1acce;
      }

      .st4 {
        fill: #6d2708;
      }

      .st5 {
        fill: #7a2613;
      }

      .st6 {
        fill: #732c08;
      }

      .st7 {
        fill: #f45471;
      }

      .st8 {
        fill: #71270c;
      }

      .st9 {
        fill: #f9708d;
      }

      .st10 {
        fill: #deb174;
      }

      .st11 {
        fill: #832d0b;
      }

      .st12 {
        fill: #702a07;
      }

      .st13 {
        fill: #7a2b0b;
      }

      .st14 {
        fill: #df9261;
      }

      .st15 {
        fill: #762b10;
      }

      .st16 {
        fill: #6d2808;
      }

      .st17 {
        fill: #e2b653;
      }

      .st18 {
        fill: #823812;
      }

      .st19 {
        fill: #702906;
      }

      .st20 {
        fill: #d56d02;
      }

      .st21 {
        fill: #7d2907;
      }

      .st22 {
        fill: #ed6078;
      }

      .st23 {
        fill: #832917;
      }

      .st24 {
        fill: #7f310d;
      }

      .st25 {
        fill: #7d2c12;
      }

      .st26 {
        fill: #f1546d;
      }

      .st27 {
        fill: #732c07;
      }

      .st28 {
        fill: #a57fb5;
      }

      .st29 {
        fill: #e93739;
      }

      .st30 {
        fill: #f9cbd0;
      }

      .st31 {
        fill: #ed355e;
      }

      .st32 {
        fill: #5e1e09;
      }

      .st33 {
        fill: #7a2b06;
      }

      .st34 {
        fill: #853020;
      }

      .st35 {
        fill: #90a2d2;
      }

      .st36 {
        fill: #7b310e;
      }
    </style>
  </defs>
  <path class="st20" d="M91.58,135.4c.26-3.82,3.91-3.44,4.52.32,3.06.34,5.66,3.64,5.37,6.7,3.98,1.1,7.68,2.74,11.11,4.94,3.14-.08,5.92-1.07,8.34-2.96l.79-8.24c5.13-2.67,8.13-6.59,9-11.76l14.44-.35c2.62-2.98,4.65-3.18,6.08-.59,4.92-.6,3.13,13.97,2.26,17.26l-2.73,2.04c.45,3.45,1.46,7.45-1.03,10.31-2.57-.6-3.73-3.22-3.49-7.86-.79,1.8-1.93,3.79-3.43,5.98l-.6,3.52c-5.46,1.46-11.53,1.8-18.21,1,.61,4.08-.46,6.52-3.22,7.3-.13,1.12-.39,2.74-1.23,2.93-3.64.84-16.44,1.39-17.54-2.63-5-.35-8.09.6-9.27,2.85-5.8.68-11.08-.02-15.83-2.12l-19.61-.59c-1.94-1.63-3.07-4.17-3.42-7.64h-15.86s-2.01-2.92-2.01-2.92c-4.38-.19-3.89-8.32.28-8.95-9.93,0-12.9-.14-13.08-11.33.54-8.23.82-12.35.82-12.35l3.5-1.6,1.9-.49c4.57,2.94,9.17,5.34,13.8,7.2,1.6,3.97,4.5,7.37,8.72,10.22,8.29,12.01,18.37,14.47,26.89,1.74,4.06-.98,8.31-1.62,12.75-1.93Z"/>
  <path class="st6" d="M150.76,142.76c-1.02-7.72,1.97-12.48.47-19.3-6-2.6,2.31-9.54,7.63-8.35-.47-3.23.44-5.23,2.74-6-1.15-.13-2.77-.32-2.91-.93-.5-2.22-.41-12.89,2.92-12.96-4.36-.26-4.06-4.31-.04-5.49-2.77-2.45-2.78-6.91-.04-13.38-1.35-4.9-2.05-9.76-2.11-14.56l2.97-1.99,10.53.46.27,57.68c-3.65.92-6.56.59-10.67.36l-.66,24.15-11.12.32Z"/>
  <path class="st36" d="M122,16.22c2.18.01,3.5,2.29,3.96,6.84,6.62,1.66,9.61-.7,8.99-7.09l7.51-.1c.79,2.69,1.05,5.61.77,8.77,5.49,6.64-11.12,7.95-13.95,2.94,1.38,2.01-4.98,1.88-5.41,1.75-5.62-1.72-6.58-4.88-6.89-10.35l-57.53-.21-1.73-2.92c.28-3.52-1.24-7.33.25-11.32l63.2.19c-.37,5.09.77,8.23.82,11.51Z"/>
  <path class="st2" d="M14.36,59.77c3.15,1.82,4.13,6.02,2.94,12.6-2.43,1.42-2.99,18.21-1.98,20.08.28.51,1.2.66,2.32.72l.64,20.56c5.36.55,7.97,2.36,7.84,5.43-.56,2.5-3.04,3.74-7.43,3.71l-.13,13.62-2.93,1.94c-.45-.1-1.31-.66-1.3-1.68l.15-18.45-11.36-.35.04-57.73,11.2-.43Z"/>
  <path class="st19" d="M120.77,163.01c-.13,3.58,1.06,7.29-.15,11.28l-62.7-.1c-.85-3.45-.48-6.76-.27-10.13,15.98.69,23.97,1.03,23.97,1.03.88,5.85,13.75,6.11,9.57-.67l10.81-1.11,18.77-.3Z"/>
  <path class="st22" d="M162.39,59.8l-.83,29.93c-4.11,5.41-9.64-1.05-6.75-7.97,6.53-5.58,2.66-10.11-4.12-12.83-3.77-11.26-7.7-18.04-16.8-25.9-1.58-2.18-1.76-3.76.47-5.55-1.17.19-1.81-.29-2.49-1.14-1.73-2.16-5.89-8.78-2.6-8.78l13.12-.26.06-11.44c3.06-.04.05,9.4,2.39,9.86l4.46.87c3.15.62,2.25,6.23,1.13,9.43l11.88.9.07,22.88Z"/>
  <path class="st33" d="M102,163.32c-2.55.03-5.05,2.04-9.23,1.22,2.29,2.4,3.15,3.92,3.16,7.09-5.35.23-9.23.81-14.41-.26-1.09-1.97-2.38-6.32-4.63-6.42l-19.24-.87c-6.74-1.83-13.72-.79-21.36-.87l-.29-10.31h21.81s-.15,10.13-.15,10.13l44.34.3Z"/>
  <path class="st24" d="M57.73,15.84c5.37,2.89,2.86,15.39-4.79,14.37l-13.36.14c1.19,9.21-6.61,15.24-11.98,6.82-1.24,2.24-1.83,2.08-1.61-.51l.67-9.91,9.26-.37.22-10.45,21.61-.09Z"/>
  <path class="st12" d="M26.12,119.15c.06-1.12.53-1.26,1.4-.49-2.88,8.49-1.29,16.68.49,25.06,3.88-1.9,6.68-1.49,8.27.23-.86,5.15-7.92,5.02-9.14-.14-4.76-1.98-9.87.64-11.33-1.95-.46-.81-.2-2.38-.19-3.44l.18-18.9,10.32-.37Z"/>
  <path class="st11" d="M27.6,37.16c2.63,3.2,3.63,10.48-.71,12.39,4.21,1.34,3.51,9.61-.91,10.41-.65,4.45-10.73,4.08-11.61-.2l.15-22.2c4.28-.04,8.02.54,11.47-.91l1.61.51Z"/>
  <path class="st21" d="M143.61,152.93l-1.11,10.04-21.73.05.37-10.26,18.52.3c1.64.03,2.64-.92,3.14-1.86,2.54-1.32,3.03-.2.81,1.74Z"/>
  <path class="st27" d="M134.96,15.96c4.64,1.83,1.02,5.15,2.6,9.93l-15.39.09-.16-9.77,12.95-.26Z"/>
  <path class="st4" d="M36.28,143.94l-.28,8.95c-2.04,0-6.13,1.67-8.45-.52-1.93-1.83-.77-6.58-.41-8.57,2.87,1.19,6.05.86,9.14.14Z"/>
  <path class="st32" d="M149.72,153.07l-6.11-.14-.81-1.74c-.93-2-1.1-5.6.15-8.24,1.23-.94,4.82-.73,6.57-.2l.2,10.32Z"/>
  <path class="st26" d="M25.97,59.96c-.38,4.36,0,6.2-3.12,9.92-1.66,1.98-2.7,5.21-6.95,4.79l.04,18.33c1.44-1.33,5.04-1.66,5.17.22l.89,12.71c.17,2.36,5.39,2.43,8.04,2.11.06,2.75-.75,7.06,1.02,8.99l5.31,1.17,1.93,4.9c.41,1.03,4.45.17,5.53.74s1.16,4.05,1.61,5.32c6.28,1.71,13.48,7.02,13.51,12.68,3.04,1.24,10.81,1.31,13.79-.3l1.42-5.26c.39-1.44,3.7-1.41,5.64-.97.59-4.33,10.7-3.88,11.79.09-2.18,2.76-6.86.54-9.14,1.65-1.12.55-1.41,3.31-1.67,5.04-4.43-.38-5.94,2.78-8.07,4.91-7.43,7.45-24.27-7.44-31.05-21.63-4.83-1.15-11.77-1.24-14.15-6.72-.71.65-1.15.49-1.4.49-2.65-1.98-6.3-1.56-10.63-1.24l-1.08-35.05-.04-23.09,11.61.2Z"/>
  <path class="st29" d="M161.61,109.11c0,2.29,1.42,8.62-1.66,8.84l-7.24.53c-1.37.1-1.89,3.1-1.48,4.98-6.29,1.99-12.85,1.79-20,1.67l-2,10.08-6.98,1.23c.06,3.5-.53,5.66-1.32,7.96-2.74.79-2.95-.37-.34-1.78-1.51-11.22,7.78-12.53,7.92-13.17l1.25-5.76,15.27-.33c1.96-.04,2.19-4.24,1.98-5.28.44-2.11.98-4.16,2.63-2.52-1.07-5.33.82-7.25,6.34-7.03.65-3.99,5.09-3.42,5.63.59Z"/>
  <path class="st31" d="M120.58,142.62l.34,1.78c-.43,1.25.33,3.97-2.53,4.92-11.86,3.95-12.09-5.43-16.92-6.9l19.11.19Z"/>
  <path class="st7" d="M96.1,135.72l-4.52-.32-11.79-.09c-.29-1.65-.46-3.27.31-5.69l16.58.7-.58,5.41Z"/>
  <path class="st22" d="M161.61,95.22v13.89c-2.43-.12-7.29-.8-9.36,1.58l-.55,5.36c-.15,1.5-2.7,2.17-4.71,2.03,1.89-1.65-.79-5.61-.3-7.26,1.07-3.54,7.38-3.41,9.71-2.67l-.22-12.98c2.14-.49,3.78-.24,5.44.06Z"/>
  <path class="st9" d="M129.29,27.57c-1.17,4.87,5.82,3.79,5.08,9.92-1.23.3-2.67.57-4.1.03-2.35-.88-.61-5.81-3.77-7.9-.85-.56-2.31.16-3.6,2.29-3.59-8.35-13.68-2.09-20.81-5.24-1.66-.73-4.65-4.73-7.09-2.6s-3.65,3.87-7.07,4c-3.97.16-4.37-2.23-6.84-4.54-1.58,1.33-3.82,2.24-6.73,2.74-.97,2.82-3.49,4.2-7.56,4.13-2.42,3.23-6.65,5.04-12.71,5.43-3.16,2.6-6.18,5.22-9.05,7.85-1.78.21-4.4,1.94-7.66,1.09-1.34.41-1.62,4.23-1.85,5.43-2.59,1.4-6.2.4-8.65-.65.36-4.11-1.37-8.38.71-12.39,2.51.8,5.11,1.04,8.63.55l.41-10.26,20.2-.21.89-11.42,63.66.24c-1.39,4.61-1.47,8.66.57,10.68,1.72,1.7,5.19.86,7.33.81Z"/>
  <path class="st16" d="M160.42,59.22c-.56,1.62-5.92,1.08-6.94.25-.36-.29-3.59-13.22-2.55-21.6l10.48.08c-.57,7.09,1.35,14.48-.99,21.27Z"/>
  <path class="st8" d="M149.28,36.8c-.63,1.47-4.92,1.33-6.02.65-1.77-1.09-1.16-8.87-.03-9.94,1.3-1.23,3.16-.62,5.8.17.83,1.91,1.83,5.44.26,9.11Z"/>
  <path class="st9" d="M161.61,95.22l-.04-5.49c-2.12-.27-4.58-1.6-5.03-3.26-.79-2.93,2.38-4.45,3.4-6.15,3.57-5.94-1.36-11.71-7.42-13.4l-4.92-13.77-10.81-11.12c-1.48-1.52-1.37-3.8-2.42-4.54-2.69-2.21-4.74-5.06-6.17-8.54-4.5.47-7.52-.86-9.08-4-8.25.89-15.48-.52-21.7-4.25-7.25,2.91-10.87,4.37-10.87,4.37-1.88-2.69-3.7-3.2-5.47-1.54-6.58,1.8-10.01,5.15-10.28,10.03-4.36-2.23-24.76,6.16-25.51,8.14-.23.6-.27,1.28-.25,1.98-3.3-3.93-11.65-1.82-12.06,4.02-3.18-.6-5.21.02-6.09,1.85l-.91,10.41c-2.23.93-3.63,3.1-4.21,6.51-4.41,5.05-6.62,7.58-6.62,7.58l.39,20.77,2.81.49c-1.05,9.39,1.84,14.88,8.67,16.47-.78,7.02,9.87,11.98,15.92,13.19,2.07,4.76,5.65,8.84,10.75,12.24,6.36,11.25,18.17,11.37,24.18.75l1.93-2.66c4.59-4.87,11.92-3.12,16.31.41-.35,3.27,2.36,5.78,5.37,6.7,5.19,2.6,16.32,6.12,19.11.19.73-5.81,1.74-8.09,7.51-9.96.9-3.56,2.12-6.32,3.65-8.26,2.68,1.02,22.96-.43,17.26-5.41-.53-.46-1.24-.72-2-.91l2.56-1.51c-1.08-5.57,2.07-8.5,9.44-8.79-.98-5.31-.11-9.5,2.62-12.55ZM108.6,88.48c-.91,2.86-.62,4.89.87,6.09l-3.09,1.1c-2.07,3.17-3.05,3.3-4.73-.11-2.08,2.27-1.48,5.34-1.51,8.12-.16,1.13-.5,2.78-1.33,2.9-1.98.27-21.66.15-22.69-.33-1.08-.5-1.61-1.79-2.03-2.94-2.27,0-3.07-1.63-2.4-4.89-3.04-.01-4.72-1.27-5.05-3.77-4.16.82-3.34-16.52-2.76-17.28.76-1,1.67-1.7,2.93-1.98l.32-2.01c2.49-1.44,4.76-3.58,6.83-6.41-.34-4.23,3.02-4.06,4.23-.21l24.57.31c-1.73,3.29-1.22,6.98.24,7.27.83-4.19,5.62-3.06,5.8,1.13,4.5.74,4.11,12.02-.21,13.01Z"/>
  <path class="st1" d="M71.06,67.22c.18,5.06-3.26,8.03-10.34,8.91,1.12.16,2.74.46,2.9,1.29.7,3.73.95,16.17-3.12,17.15l7.33,1.29c1.78,2.74,3.87,5.23,6.26,7.46,3.97.36,4.66,8.44,1.21,9.99-1.32.02-2.14.57-2.64-.86-.27-.76-.34-2.38-.21-3.74l-11.79-5.27c-.57-1.72.72-4.53,1.63-5.65l-8.45-.82c-.51-7.02-1.17-15.25.4-21.81,1.68-.63,4.3-1.18,4.93-2.15s-.13-4.74.78-5.24c2.04-.42,5.56-.02,6.65-1.68.69-1.06.33-4.78,1.43-5.39,2.84-1.47,4.45,4.68,3.03,6.54Z"/>
  <path class="st18" d="M100.14,103.68l-.07,9.17-24.76.44c-1.13-2.9-1.23-7.01-1.21-9.99l26.05.37Z"/>
  <path class="st30" d="M81.08,23.53c.22.23,1.2,2.72.41,3.2-1.2.73-4.27.93-6.32.49-1.42,2.8-.98,5.69-1.41,9.29-7.88-.18-15.95.09-22.03,5.11-2.61,2.16-4.35,1.77-6.7,2.06-.31-1.67-.87-4.22.16-4.77l4.2-2.25c4.48-7.55,13.01-3.18,14.08-5.83l1.45-3.59,7.3-.38c.85-3.07,6.64-5.41,8.85-3.34Z"/>
  <path class="st0" d="M95.91,59.71c-1.44,4.59-17.1,4.4-18.82-.1l.24-6.07,4.41-3.19c1.28-.92.46-4.78,1.97-5.2,1.75-.49,4.2-.6,6.58.1s0,5.07.08,6.35c2.01.84,5.69.92,5.64,2.87l-.1,5.25Z"/>
  <path class="st15" d="M77.09,59.61l18.82.1,5.79.62c1.64.18,1.51,5.08.12,5.08l-21.9.05c-1.08,0-1.62.91-1.72,1.31l-4.23.21-.23-5.13c-.05-1.28,2.11-1.97,3.36-2.24Z"/>
  <path class="st23" d="M101.69,97.48c1.98.11,3.54-.5,4.69-1.81-.05-1.95,1.56-5.19,2.22-7.19,2.3-.08,3.32.11,3.08.55,1.1-5.91.15-10.43-2.86-13.56l-5.8-1.13.22-6.54c.01-1.13,3.33-.89,4.29-.25,1.48.98,1.03,3.28,1.53,5.08.54,1.92,4.78,1.88,7.07,1.36l.39,21.91c-3.51.04-5.5-.39-8.38,1.1,1.71,2.91,1,6.28-1.27,6.59-1.28.17-4.21.55-4.91-1.11-.53-1.26-.24-3.51-.27-5Z"/>
  <path class="st14" d="M136.69,91.05c2.1,1.09,2.61,10.69-.04,13.02-1.43,1.25-6.79,1.64-7.07-.42-.62-4.68-.84-9.27.27-12.73,1.54-.97,5.49-.57,6.83.14Z"/>
  <path class="st10" d="M43.58,46.99c2.05,2.27,2.47,10.94-.15,13.17-1.42,1.2-6.06,1.48-6.62-.92-.99-4.27-.33-9.73,1.85-12.65.98-.89,4.3-.29,4.92.4Z"/>
  <path class="st3" d="M44.2,104.18c-.78,1.02-4.77.95-5.57-.59-1.89-3.62-1.66-8.77-.1-12.31.67-1.51,2.84-1.4,3.85-1.01,2.08.8.31,3.27.5,4.48.46,2.94,3.08,6.56,1.32,9.43Z"/>
  <path class="st17" d="M33.02,81.96c-2.16,2.06-5.52.7-6.04-.91-.6-1.86-1.76-4.37-.77-7.35.66-1.97,4.55-.61,6.07.59,1.78,1.41,3.22,5.3.73,7.67Z"/>
  <path class="st28" d="M137.12,52.05c1.41.74,1.53,5.3.6,6.58-1.02,1.39-4.51,1.21-6.33.95-2.5-.35-3.04-4.13-1.81-7.81,1.75-.47,5.06-1.01,7.54.28Z"/>
  <path class="st34" d="M73.97,66.98c.05,2.46.2,5-.8,8-2.55-.16-4.42.14-6.35.42-.12,4.3-4.61,4.68-6.09.73.02-1.63,4-1.44,5.12-2.91,1.63-2.14,2.06-5.74,5.21-6l2.9-.24Z"/>
  <path class="st35" d="M115.28,117.01c.68-1.48,4.16-1.26,5.79-.63,1.37.53,1.4,3.69.37,5.72-.53,1.05-2.33,1.19-3.84.92-2.14-.38-4.1-2.14-2.32-6.01Z"/>
  <path class="st25" d="M106.38,95.67c.04,1.37,2.08,3.07,1.06,5.41-.45,1.02-4.1,1.33-4.49.1l-1.26-3.71-.04-1.92c1.37-.59,2.94-.37,4.73.11Z"/>
  <path class="st25" d="M108.6,88.48l.21-13.01,5.94.23-.23,18.29c-1.01,1.13-5.31.96-5.42-.26l-.5-5.25Z"/>
  <path class="st13" d="M66.81,75.4l-.17,19.25c-1.83,1.06-4.17.7-6.14-.09l.22-18.43,6.09-.73Z"/>
  <path class="st5" d="M66.64,94.65c1.73.51,5.11.15,6.93,1.69,2.09,1.77.53,5.26.52,6.96l-7.11-.28c-.08-2.58.1-4.19-.76-6.98-1.74.52-5.49-.06-5.72-1.49,1.94-.3,4.1-.51,6.14.09Z"/>
</svg>