<?xml version="1.0" encoding="UTF-8"?>
<svg id="_레이어_1" data-name="레이어_1" xmlns="http://www.w3.org/2000/svg" version="1.1" viewBox="0 0 177.48 177.48">
  <!-- Generator: Adobe Illustrator 30.3.0, SVG Export Plug-In . SVG Version: 2.1.3 Build 182)  -->
  <defs>
    <style>
      .st0 {
        fill: #b06209;
      }

      .st1 {
        fill: #5b3458;
      }

      .st2 {
        fill: #f3e9f7;
      }

      .st3 {
        fill: #d69df9;
      }

      .st4 {
        fill: #f7f6f6;
      }

      .st5 {
        fill: #cd7a27;
      }

      .st6 {
        fill: #fcfbf4;
      }

      .st7 {
        fill: #bc6df3;
      }

      .st8 {
        fill: #f7f5f4;
      }

      .st9 {
        fill: #b05ced;
      }

      .st10 {
        fill: #cd85f9;
      }

      .st11 {
        fill: #e0cae9;
      }

      .st12 {
        fill: #fcf9fd;
      }

      .st13 {
        fill: #cc9cf1;
      }

      .st14 {
        fill: #fdd94c;
      }

      .st15 {
        fill: #683e49;
      }

      .st16 {
        fill: #723047;
      }

      .st17 {
        fill: #af6118;
      }

      .st18 {
        fill: #d7aef3;
      }

      .st19 {
        fill: #e2973f;
      }

      .st20 {
        fill: #faf8fb;
      }

      .st21 {
        fill: #7b3a0a;
      }

      .st22 {
        fill: #fcf4ca;
      }

      .st23 {
        fill: #674758;
      }

      .st24 {
        fill: #fdf8c4;
      }

      .st25 {
        fill: #ae5e0b;
      }

      .st26 {
        fill: #c06a15;
      }

      .st27 {
        fill: #592681;
      }

      .st28 {
        fill: #b88768;
      }

      .st29 {
        fill: #d9abf2;
      }

      .st30 {
        fill: #fdf19b;
      }

      .st31 {
        fill: #863f10;
      }

      .st32 {
        fill: #8559a9;
      }

      .st33 {
        fill: #7f525c;
      }

      .st34 {
        fill: #f6ebfa;
      }

      .st35 {
        fill: #67445e;
      }

      .st36 {
        fill: #f5cd3f;
      }

      .st37 {
        fill: #491669;
      }

      .st38 {
        fill: #4f1577;
      }

      .st39 {
        fill: #773909;
      }

      .st40 {
        fill: #b36709;
      }

      .st41 {
        fill: #f0bd1d;
      }

      .st42 {
        fill: #582673;
      }

      .st43 {
        fill: #502073;
      }

      .st44 {
        fill: #aa8fa5;
      }

      .st45 {
        fill: #65386e;
      }

      .st46 {
        fill: #c8790e;
      }

      .st47 {
        fill: #4a186c;
      }

      .st48 {
        fill: #8c64a6;
      }

      .st49 {
        fill: #551e76;
      }

      .st50 {
        fill: #f7f5f8;
      }

      .st51 {
        fill: #e2c3f7;
      }
    </style>
  </defs>
  <path class="st39" d="M102.49,31.08c-.06,1.82.25,3.42.93,4.79-.17,3.15-1.18,5.16-3.05,6.05,2.85-.79,2.21,5.46,1.09,6.67-1.51,1.62-42.31,2.03-44.16.82-2.68-1.75-3.04-5.32-.68-7.38-.99-.21-1.05-.57-.16-1.06l-1.94-1.12c-.47-3.32-.9-6.61-1.29-9.87-1.71-.34-3.14-1.36-3.06-3.88l.32-10.16c5.81-2.06,11.66,1.81,6.16,6.42l2.01,1.4.5,9.68c1.87-.31,3.01.34,3.43,1.97,1.81.02,2.56,1.27,2.24,3.75,2.76.05,4.18.76,4.27,2.13l12.2-.12c.06-1.69,1.58-2.27,4.56-1.73-.18-4.57,2.19-6.06,6.42-6.38-.53-4.67,1.22-6.3,5.7-5.96-.1-2.62.66-4.2,2.27-4.74-1.52.02-2.39-1.51-2.62-4.59l-39.74-.32-1.45-2.01.13-6.26,43.81.06.08,5.98,6.28.47c-.19,4.56.58,9.3-.42,13.11-1.48.28-4.07.46-3.83,2.28Z"/>
  <path class="st46" d="M147.48,97.97c-.16,3.25.48,5.56,2.68,7.15l.36,17.74-12.39.12c-1.82.43-2.74-.98-2.74-4.23-2.02.05-3.28-.61-3.76-1.99,0,3-5.52,2.9-6.05.06-.63,2.69-1.36,2.71-2.36.13-1.6,1.54-2.93,3.31-3.97,5.32-.2,3.43-7.79,3.79-8.41.85l-1.43-.27c.03,2.92-3.23,2.82-3.88.02-2.88-1.58-2.83-9.95-2.42-13.38.45-3.7,1.88-8.83,4.28-11.44,1-3.62,6.22-2.78,8.09.54.6,1.07.31,5.71-1.82,5.49,2.88.49,2.67,4.21-.15,4.79.81.42.75.74-.16.97-1.23,1.45-1.88,3.43-1.96,5.95l-1.37.49c2.24.56,3.44.09,3.59-1.42,3.08.55,4.43-.96,4.04-4.51,1.54-1.64,3.3-2.32,5.26-2.02,2.52-4.82,9.18-5.56,10.41.41,1.77-.17,3.41.1,4.94.79,2.24,6.82,3.81,7.74,4.71,2.77-2.44-2.21-4.53-6.81-.77-8.21-1.98-.76-2.56-2.94-1.75-6.52,3.67-3.06,6.02-2.93,7.06.4Z"/>
  <path class="st45" d="M43.24,42.04c3.16-.14,3.04,10.43.01,11.28,2.25.51,4.56.39,6.92-.38,1.83,1.32,2.39,3.44,1.68,6.37,1.62.36,2.42.81,2.4,2.74.77.11,1.92.35,1.99.9.46,4.17.64,15.24-2.48,17.47-1.12.8-3.06.08-3.41-1.46,0,2.85-.37,5.39-1.11,7.65l-9.04.8c-.12,2.59-1.02,4.07-2.7,4.41-.36,1.5-1.47,2.03-3.32,1.6,2.49,2.4,1.58,3.91-2.74,4.54.15,5.1-1.08,7.89-3.7,8.35,1.77.06,2.67.48,2.82,2.48.73.58.22.96-1.52,1.15.2,2.92-3.07,2.7-3.59-.11-.18.9-.53.94-1.04.14-.89-.23-.89-.57-.06-.99l.52-11.59,3.18-1.44.47-3.62c.19-1.49,3.05-1.83,3.02-2.87-.03-.93-.6-3.51.14-4.05,1.37-1.01,3.92-.54,5.61-.35l.11-6.05c2.43.2,4.33.6,6.19-.61-.43-1.63-.55-3.86,0-4.62.51-.72,2.48-.8,4.4-.46v-12.46c-1.87.48-4.23.71-5.09-.42-.65-.85-.63-3.12-2.18-3.15l-3.26-.05c-.61-5.03-.78-10.15-.5-15.36,2.32,0,4.22-.39,5.69-1.15l.63,1.32Z"/>
  <path class="st27" d="M49.41,153.87c.32-.86.66-.84,1.03.03,1.32,1.34,2.11,2.75,2.37,4.23l46.56-.17,1.2,1.99c.13-1.86,1.71-2.54,4.74-2.05-.09-2.61.07-4.76,3.07-4.15,2.99.47,2.73,5.81-.15,6.4l-.38,6.45-58.31-.02-.02-6.44c-1.73.09-2.42-.91-2.08-3-1.86-.51-2.57-1.24-2.03-3.25,0-2.92,3.35-2.8,4.01,0Z"/>
  <path class="st19" d="M56.44,15.43l43.74.35.06,6.57c-.12.76-.32,1.87-.89,1.98-2.43.48-11.14.55-11.7-2.22l-1.13,1.99-15.55.13c1.42,9.42-11.53,9.32-10.09.24-2.33.24-3.74-.46-4.23-2.12l-.14-6.17-6.02-.26c.46-1.53,4.47-1.08,5.95-.5Z"/>
  <path class="st31" d="M112.56,53.99c1.38-1.55,2.04-.96.97.89,0,.69.15,2.65,1.18,2.8l9.86,1.37-3.98,4.01c-.99,2.54,1.3,3.39,3.27,3.04,1.46-.27,1.93-1.56,2.49-3.13.51-1.42,4.75-1.7,5.48-.57.22,1.28-.52,4.02,1.04,5.08.96.65,2.45,1.1,2.78,2.03.23.65.16,1.83-.07,2.49l.7,1.5c-2.38,3.36-4.1,1.81-5.17-4.66-1.73,1.75-3.65,3.35-5.76,4.79l-2.44-1.17c-.76,2.29-1.21,1.67-1.77-.63-.29,2.27-1.66,2.25-3.43,1.22-2.73,4.09-6.81,1.44-4.66-3.33l-.52-2.61c-.19,2.99-5,2.62-5.43-.19-2.89-.41-2.69-5.31-.48-6.27l.7-6.69c-.67-1.73.06-1.88,1.14-.3.28-3.23,3.68-2.87,4.09.35Z"/>
  <path class="st42" d="M138.13,122.97c.72,4.27.55,9.95-.02,14.47-1.74,1.06-4.46,1.53-5.12,2.81-1.02,1.99-.9,4.37-.47,7.04l-5.91.53-.33,5.97c-2.71-.22-4.97-.17-6.82.99-.88-.15-.87-.44-.03-.84l-1.99-.83c-.83-6.07,1.13-8.56,5.87-7.48-.17-6.2,1.9-9.48,6.21-9.85l.09-17.62,2.01-1.4c1.32-.01,4.24-.87,5.51.4l.99,5.83Z"/>
  <path class="st49" d="M24.4,109.97c.88,8.71.83,19.02.04,27.96-.78.94-4.16.77-6.06.09l.08-27.89,5.88-1.15.06.99Z"/>
  <path class="st0" d="M135.6,71.99c3.37.21,2.87,4.48,3.01,6.71l12.78,1.12c1.76,5.09-.6,10.56-5.37,5.93-2.84.09-5.41-.19-7.72-.82-1.7.19-2.8-1.04-3.3-3.71-3.05.36-3.49.03-5.17-2.49-.37-.56-1.44-10.21,1.3-9.9,2.1.99.39,4.35,2.74,4.34.82,0,1.6-.22,1.73-1.17Z"/>
  <path class="st23" d="M119.47,42.04c-.05,3-5.65,2.83-6.16-.02-.96,3.2-11.75,2.98-12.94-.1.23-6.44,2.41-8.62,2.12-10.84.65,1.36.45,3,1.56,4.55l9.04-.02c-.49,1.75-.43,5.37,1,5.92,2.26-.51,4.4-1,5.38.51Z"/>
  <path class="st41" d="M152.27,84.93c4.05.84,1.74,9.29-2.7,9.04.41,2.27-.29,3.6-2.09,4l-5.04-.85-.27,6.97c-.85,3.7-6.02,2.19-7.71-.89-1.21-2.2,1.43-9.43,5.58-8.12.41-2.4,1.46-3.71,3.13-3.93.22-1.16.61-2.2,1.16-3.1-3.25.62-5.27-.06-6.05-2.02-.79-.38-.78-.75.02-1.1l12.86.43.23-5.54c1.71.15.94,3.77.88,5.12Z"/>
  <path class="st25" d="M147.48,97.97l.14-5.82,4.37-.51.29-6.71,6.15.25c.87,1.91,1.18,5.98-.76,6.83-1.44.63-3.73-.2-4.23.55-.56.85.14,3.55.18,4.61-1.27,1.58-4.47,1.07-6.13.79Z"/>
  <path class="st35" d="M56.46,40.97c-4.63.81-9.5.89-14.61.26.87-1.39,1.4-3.2,1.57-5.43l9.7-.73.12-5.1c.56.11,3.79,7.87,3.23,10.99Z"/>
  <path class="st1" d="M119.47,42.04l-.1,11.96-5.83.89c-.07-.31-.66-.79-.97-.89-3.13-1.01-2.37-11.08.74-11.98l6.16.02Z"/>
  <path class="st43" d="M45.4,153.87c.86.89,2.18,1.19,3.98,1.21l.14,5.04-11.97-.06-.08-6.17c.37-3.06,7.27-2.95,7.93-.03Z"/>
  <path class="st37" d="M119.44,153.93l.03.84c.05,1.54.72,3.13.11,5.41l-11.34-.05.15-6.4c.75-3.14,10.13-2.84,11.05.19Z"/>
  <path class="st48" d="M24.44,137.93c.28-.87.61-.87,1,0,.04-2.66.69-2.7,1.95-.11,2.88-5.44,7.47,2.17,6.03,6.9,3.35-.19,4.76.88,4.23,3.2.12,1.84-1.28,2.43-4.2,1.78.37,2.42-.29,3.88-2,4.38-1.42-1.43-1.24-3.67-.61-6.18h-6.44c-.1-3.4.6-6.14-.48-9.28-2.16.74-5.03.64-5.54-.59l6.06-.09Z"/>
  <path class="st44" d="M56.46,40.97c-.05.27.03.82.16,1.06.63,2.89-11.41,2.34-11.98,2.01-.75-.43-1.14-1.21-1.39-2l-5.81.12v15.08c-.51-.37-1.05-1.09-1.05-2.13l.04-13.96,6.09-.26c-.34-1.55-.31-4.71.91-5.09l.14,5.25,12.91-.08Z"/>
  <path class="st47" d="M37.65,147.92c3.01-.28,2.69,5.53-.17,5.98l-6.03.18-.21-6.49,6.41.33Z"/>
  <path class="st4" d="M56.62,42.03c.7,1.35.76,2.95.45,5.54l43.1.12.21-5.77,12.94.1-.74,11.98c-1.2-.39-2.81-.69-4.09-.35-3.62-.36-8.75-.74-11.9-.35s-7.8,1.29-10.31,2.74c-9.71.16-19.28-.39-28.72-1.65-.58,1.21-1.78.98-3.59-.68-2.89.16-5.78.15-8.68-.03l-2.03-.35v-11.28s13.36-.01,13.36-.01Z"/>
  <path class="st5" d="M87.65,22.12c5.04,1.63,1.55,9.13-4.03,8.62.42,3.14-.36,5.86-3.49,6.98,2.3.56,3.92,2.63,1.41,3.45s-12.36.32-14.62-.94c.76-2.19-.3-3.1-3.19-2.73l-1.14-2.09c-1.17-.08-3.87.52-5.09-.58-1.25-4.15-.76-8.57-.85-12.47,1.99.29,4.02-.54,6.31.25l-.23,5.27c1.19,1.74,4.42,1.35,6.27.68-.02-2.16-.35-4.12.41-6.49l18.24.06Z"/>
  <path class="st17" d="M100.25,22.35l.1,6.66-6.08.19c-.11,2.36.36,4.12-.56,6.52-2.17-.74-4.89-.48-5.43.86s-.4,3.12-.33,4.83l-24.97.25-.4-6.25,6.67.48-.39,5.09,12.79-.13c-1.57-1.51-2.87-1.32-4.02-1.51-.87-.14-1.45-2.1-.6-2.67,1.37-.91,3.31-.89,3.95-1.72.95-1.23.81-3.37.48-5.05,1.1-1.93,4.35-1.06,5.5-1.8,1.41-2.03.83-4.43.68-5.99l12.6.24Z"/>
  <path class="st10" d="M65.46,103.88c1.77.34,2.2,1.72,1.28,4.15,3.16-.07,6.22.31,9.19,1.14.79,3.48,1.57,5.41,2.34,5.79-.14-8,12.14-7.91,17.86-6.67,4.47.99,6.47,5.22,6.02,12.69,1.75-.16,2.87.47,3.36,1.88l3.88-.02c5.73.25,4.96,3.39-2.29,9.41l-.21,2.67c1.61,4.06,1.09,6.85-1.56,8.36l-14.96-.14c-.73,1.73-1.53,3.6-2.41,5.62-3.2.37-21.65,1.65-23.59.68s-3.15-2.75-3.79-5c-4.95-1.43-10.28-1.75-15.99-.97l-1.28-2.01c-.18,1.88-1.78,2.51-4.81,1.91-2.43-.45-3.6-2.57-3.5-6.38-2.94.46-7.11-1.34-4.29-3.51l.57-4.64c-.77-.1-1.9-.31-1.99-.87-.39-2.38-.16-8.37.05-11.09-.68-3.55,0-5.81,2.03-6.8,2.4-2.88,4.61-3.47,6.61-1.8l-.37,8.83c2.92.42,2.78,4.14,0,4.79l1.94.95c-.66,2.77-.23,3.84,1.27,3.21.18-2.14,1.07-3.27,2.67-3.4-3.96-2.25-.65-8.66,4.4-7.96.34-4.33.72-7.16,5.87-6.76.17-2.2,1.01-3.51,2.51-3.94,2.75-.12,4.52-.81,5.29-2.07,2.14-.47,3.44.18,3.9,1.95Z"/>
  <path class="st14" d="M131.13,68.83l.75,10.62c1.67-.23,4.76-.64,5.17.86l1.25,4.62c.06.24.06.87-.02,1.1.96,2.63,2.13,3.7,3.52,3.21l1.37,1.9-1.12,5.7-5.16.64-.48,6.47,5.76.15c-.1,2.7-.19,5.58,2.82,7.04l-.21,5.14c-2.02.86-6.36,1.29-6.69-.77l-.65-4c-.24-1.48-4.89-.01-6.4-1.45-.35-.33.22-1.64.19-2.13-.48-1.71-2.77-1.53-4.3-1.09-1.04.3-2.02,1.53-2.12,3.53l-5.28-.12-.39,5.76c-2.89.83-6.6,1.26-9.13.27,1.37-1.71,2.04-3.66,2-5.85l1.33-.58.16-.97.85-1.07c2.1.09,3.04-.55,2.81-1.92-1.9.36-3.07-.24-3.51-1.8l-.2-6.24-6.07.2c-1.79.13-2.42-1.34-1.88-4.41-4.55.79-7.43-6.43-3.12-8.67.36-.85.7-.81,1.04.07.58-2.88,3.71-2.65,4.3.21,1.74-.08,2.42.95,2.06,3.07.53.46,13.31,1.36,13.92,1,.66-.39,1.9-16.04-1.43-12.85-3.35-.06-4.28-3.65-1.12-4.65,4.33,2.44,5.74-4.99,9.98-2.99Z"/>
  <path class="st9" d="M125.58,116.81c4.18,2,3.14,13.85-.8,15.47-3.1-1.79-4.12.19-3.05,5.92-.14,5.13-4.23,7.03-12.29,5.68-.43,5.1-2.03,6.06-6.94,5.63-.28,2.39-1.19,3.84-2.73,4.34l-.67,2c-11.49.04-22.98.07-34.47.11l-1.19-1.99c-1.88.22-2.85-1.18-2.89-4.2-3.03-.78-6.15-.98-9.36-.6l-1.04-1.59c-3.91.55-6.14-.34-6.68-2.69-2.87-.41-2.85-2.54-.13-3.42,10.63.19,20.76-2.68,19.6,5.98l23.93.02,1.47-6.34,17.91.16c-1-4.35-2.57-8.28.07-11.71,1.19-1.55,4.48-2.1,5.19-4.9.24-.96-1.24-1.88-2.11-1.84,3.36-.02,6.64.31,9.85-.58.43-2.17,1.69-4.66,3.97-5.32.74.12,1.66-.13,2.36-.13Z"/>
  <path class="st7" d="M95.59,91.22c2.25-2.84,6.32-.74,7.77,1.55l-.05,3.44c2.01-.37,3.37.24,4.07,1.84,1.04,2.6-.78,5.54-1.62,8.14-1.75,5.44.15,11.49-.24,16.67-1.13,0-3.52.74-4.85-.38-2.62-4.93,1.14-12.16-4.61-12.2l-12.49-.07c-4.06-.02-1.61,6.81-5.65,6.87-2.93.05-2.13-2.83-3.14-6.65l-10.42-.43,1.1-6.13.84-2.02,25.51-.71-.32-1.34-19.19-.48c-5.88-1.41-7.73-6.85-2.4-9.66,1.58-.83,21.07-.75,24.25-.45l1.43,2Z"/>
  <path class="st13" d="M131.63,116.74l-.11,21.83-5.03-.54-1.31,8.65c-.22,1.47-4.28.87-5.62.34l-.12,6.91-11.05-.19c-1.33,1.43-1.17,3.8-.91,6.17l-6.9.03c-2.96.2-3.59-5.11-.81-6.1-.18-1.31.19-4.18,1.1-5.48.99-1.4,4.34-.81,5.99-.74l.59-5.74,11.69-.06c1.19-3.85.3-8.09.36-11.69,1.5-1.15,4.52-.32,5.69,1.03.85-5.37,1.22-9.82.4-14.37l6.05-.06Z"/>
  <path class="st22" d="M113.5,108.87l.15-4.79,4.66-.44.67-4.3c.44.11.78.42,1.08.8l-1.41,9.23c-1.93.46-3.54.28-5.15-.49Z"/>
  <path class="st24" d="M113.33,109.84l-.02,6c-1.37.29-2.33.2-3.31.44l.4-5.33c.09-1.2,2.15-1.34,2.93-1.11Z"/>
  <path class="st16" d="M123.21,116.94c-.33,2.83-1.34,4.58-3.97,5.32-.22-1.44-.71-3.33,0-4.74.51-1.03,2.92-.74,3.98-.57Z"/>
  <path class="st50" d="M62.44,61.16c.14-.89.43-.88.87-.05,2.84.35,2.42,3.85.11,5.01,2.04.37,4.05.69,6.03.95,1.75,1.99.33,3.77-4.28,5.35-.59,2.34-.65,4.67-.2,6.98,3.77.42,6.82,5.14,2.35,5.84l-1.09,2.01c-4.78.06-9.57.12-14.35.18l-1.41-1.98c-1.63-.37-1.73-.71-.17-1.02-.52-1.92-.52-3.74.03-5.48l3.65-.6.25-16.3c.51-2.34,1.27-3.39,2.64-1.39,1.96-.27,3.81-.1,5.55.5Z"/>
  <path class="st34" d="M29.03,109.94c1.22-.72,2-.67,2.35.14l-.09,18.77-1.03,6.86c-1.72.05-2.18.45-2.86,2.1l-1.95.11c-.83-8.78-.85-19.12,0-28.09l3.59.11Z"/>
  <path class="st2" d="M50.49,85.45c2.99.16,2.72,5.04-.1,5.58-.27,1.63-1.74,2.69-4.41,3.2.14,1.54-3.31,5.47-4.3,5.69-2.23.49-3.48-.41-4.13-2.5-2.9-.53-3.42-5.21-.04-5.6l.55-6.23,12.12-1.07c-1.24-2.19-1.24-5.33.19-5.56.58,2.14.18,4.31.14,6.5Z"/>
  <path class="st29" d="M50.38,91.03c4.24,1.99,1.62,9.53-4.13,8.2-.59,3.91-1.53,6.05-5.85,6.24.31,3.61.16,7.19-.45,10.74l-2.35.9-.11-8.14-6.12,1.11-2.35-.14,1.52-1.15c.12-.89.39-.88.81-.05.92-1.95,1.56-4.01,1.94-6.21,3.61.22,3.6-3.57-.11-2.72l-1.75-1.85c.5-.94,1.44-1.07,3.24-1.38-1.56-.52-3.41-2.63-1.88-4.69.7-.94,3.77-.3,4.71-.08-.13,1.45-.61,3.73.51,5.14.91,1.14,4.68,1.43,5.41.16.88-1.54.51-3.39.39-5.08l6.58-1.01Z"/>
  <path class="st44" d="M108.47,53.64l-1.14.3c-.37,2.11-.69,4.16-.93,6.15-2.83.13-4.68.94-5.54,2.41.03-1.66-1.04-2.15-2.56-2.42,1.05-5.01-8.18-4.15-10.25-1.23-8.38-.72-16.73-.77-25.03-.15-3.18-2.62-4.77-2.85-4.78-.67,2.75-.36,5.34-.11,4.2,3.12-2.7.15-5.84-.26-8.19.89l-4.59-1.12c.25-2.56.74-4.49-.08-7.2-2.44.25-4.65.83-6.32-.41,6.57.42,10.72-4.13,13.74.36l31.44.45c3.11.04,5.51-.02,7.39-2.97l12.39.31c.46.45.39,1.68.26,2.17Z"/>
  <path class="st32" d="M31.36,108.74l-.81.05-4.33-.7c-1.21-.19-1.26-3.48.12-3.72l4.09-.69c.03-1.97-.46-4.27,1-5.72.77.16,1.63.41,1.99,1.08.74,1.36-.86,8.35-2.06,9.69Z"/>
  <polygon class="st18" points="25.44 137.92 24.44 137.93 24.4 109.97 25.44 109.83 25.44 137.92"/>
  <path class="st51" d="M63.43,153.97l36.33-.12.81,6.1-49.94.18-.19-6.23c3.71-.59,7.58-1.22,11.62-1.89l1.37,1.96Z"/>
  <path class="st18" d="M43.33,141.47l.13,3.42c1.27,2.38,4.13,3.41,8.56,3.1.58,2.68.59,5.51-2.6,5.88h-4.01s-7.93.03-7.93.03l.17-5.98c-1.53-1.4-3.61-1.21-6.41-.56.12-3.2.7-5.6-.16-8.16-.47-1.4-2.71-1.43-3.69-1.38-.73-.71-1.06-1.74-1.08-2.48-.03-1.26,1.87-1.76,3.15-1.14,1.62-1.9.95-3.77,1.83-5.34l.28,6.09,5.79.09-.03,6.32,6,.11Z"/>
  <path class="st10" d="M63.43,153.97c-9.12.04-10.48,3.96-12.99-.07l-1.03-.03c.74-1.69,1.03-3.48.77-5.91l-6.6-.06c-.33-1.38-.1-2.18-.13-3.01,3.06,4.61,11.12.4,18.79,3.22l1.19,5.86Z"/>
  <path class="st15" d="M107.11,66.91l1.9,1.21c-.51,1.92.27,3.56,2.34,4.9,2.95.2,3.01,4.59.24,5.26-2.27,2.14-4.91,3.8-7.93,5-1.46-.98-3.82-3.2-3.13-5.08.45-2.42,1.02-15.52.55-16.18-.33-.45-.7-.86-1.09-1.27,2.26.18,4.4-.04,6.42-.65.02-1.93-.61-4.69.93-6.15l-.22,12.96Z"/>
  <path class="st40" d="M121.15,71.82c-.12,1.72.2,3.32,1.12,4.65,2.66.35,2.53,1.3-.02,2.06-1.11,1.57-1.62,3.47-1.52,5.7l-1.3.91c-.39,3.24-10.7,3.07-11.71.1l-4.3-.21c-2.62-.49-2.37-1.36.24-1.75.46-3.47,4.35-5.43,7.93-5,1.75-2.03,3.79-3.78,6.13-5.24.25-1.16,2.54-1.72,3.43-1.22Z"/>
  <path class="st28" d="M117.72,73.04c-.36,1.7.07,3.03-2.2,4.41-1.16.71-2.14,1.05-3.93.83l-.24-5.26c-1.77-1.65-1.16-5.09,1.19-5.93,1.22.06,1.35,3.41.33,5.06,1.79.99,3.16.77,4.84.88Z"/>
  <path class="st8" d="M112.54,67.09c.1,2,.27,4.31-1.19,5.93-.74.1-2.85.37-3.56-.38-1.55-1.66-.7-4.27-.68-5.73l5.43.19Z"/>
  <path class="st30" d="M143.17,91.15l-5.04.37c-.75-2.1-.55-4.06.15-5.49l7.33.02c.99.15,1.07,3.06.29,3.89-.65.68-1.64,1.12-2.73,1.2Z"/>
  <path class="st38" d="M30.58,147.14c-1.92-.32-3.31-.35-4.97.2l-.08-8.37h4.83s.22,8.17.22,8.17Z"/>
  <path class="st3" d="M67.35,85.24c.09-.78.32-1.94.89-2.01,4.28-.52,21.89-.91,25.72-.22l1.48,1.98c3.01-.02,2.99,5.61.15,6.22l-22.16-.07c-1.66,0-3.02.24-3.67.89-.91.92-1,2.54-.62,3.42.81,1.88,2.23,1.85,4.23,1.9l19.05.47c1.98.05,1.88,5.31-.03,5.36l-26.93.69-9.18.12c-.59-1.81.43-3,3.08-3.58l-.38-7.06c-4.3.51-7.16-.26-8.59-2.33l.1-5.58,16.86-.21Z"/>
  <path class="st12" d="M56.28,103.99l-.11,5.82-5.75.28-.5,6.37-5.52.66-.9,5.53c-.77,3.4-5.5,2.78-5.89-.75v-4.79c1.52-4.32.67-8.96.8-13.95,1.87.34,4.38.26,5.02-.76.58-.92.48-2.88.2-4.48,2.12-1.09,4.27-.58,6.48-.8l.28-6.09,10.48.23.63,11.72c-2.29-.23-4.08-.12-5.22,1.01Z"/>
  <path class="st29" d="M43.5,122.66l-.5,4.13c-.16,1.33-4.33,1.94-5.07.83-1.08-1.61-.32-4.25-.32-5.71,1.79.97,3.94.94,5.89.75Z"/>
  <path class="st11" d="M100.53,78.2l2.31,1.35c1.03.6,1.08,2.71.82,3.73l-.24,1.75-1.04-.07c-.29,3-6.31,2.95-6.94.04l-28.09.24c.56-1.25.11-2.97-1.08-3.46-.7-.29-2.91-.47-3.18-1.38-.88-3.05-.18-6.84.47-10.11,2.73-.48,4.97-1.21,5.9-3.22,7.62-.57,15.41-.75,23.39-.54.86-1.14,1.35-2.69,1.48-4.64-.87-.21-.8-.47.1-.78-.06-3.61,5.03-2.89,6.65.06.36.66-.02,13.01-.11,14.97-.03.72-.08,1.42-.44,2.07Z"/>
  <path class="st6" d="M107.73,85.25l11.71-.1c1.14-1.32,1.72-3.33,1.75-6.03l1.08-.59.02-2.06c.08-.95-.65-2.02.27-4.07,2.19.81,4.84,4.31,4.07,6.29-1.6,4.14-.38,7.95-.94,12.7l-17.84-.76-.11-5.39Z"/>
  <path class="st26" d="M102.38,84.97l.15,6.83c1.46-.2,3.55-.55,4.77.61.9,1.04-.26,4.34.08,5.65-1.87.06-3.58.49-6.1-.05l.09-6.3c-2.43,1.28-4.37-.47-5.78-.48l-.15-6.22,6.94-.04Z"/>
  <path class="st21" d="M94.43,61.11l-.1.78-.63,4.61c-10.14.31-20.23.18-30.27-.38-.63-1.39-.14-3.64-.11-5.01-3.41-2.82-1.55-2.97,1.76-2.98l20.8.5c2.56-1.93,6.62.29,8.55,2.48Z"/>
  <path class="st33" d="M106.4,60.1c0,.97-2.7,1.37-4.65.56l-.32,15.43c-.02,1.01-.37,1.72-.9,2.11l-.1-17.27c-2.12.03-4.59-.33-5.99.17-3.15,1.13-5.33-1.73-7.92-1.79l-20.19-.49c-1.23-.03-2.2.01-2.67.7-.25.37-.34,1.11-.32,1.58l-.87.05c-.67-1.58-3.15-1.35-5.23-.93-.93.18-1.45-3.5-.83-4.24,2.85-3.37,6.18.09,8.22,1.41l21.66.56,2.17-2.89,11.16-.46.78,5.99,6.01-.51Z"/>
  <path class="st33" d="M69.46,67.07c-1.72,0-5.13.67-6.03-.95l29.71-.09c.22-1.93.48-3.16,1.19-4.14l-.06,5.14-24.81.04Z"/>
  <path class="st20" d="M31.36,108.74l.07-10.78c1.79-.07,3.66-.63,5.84-.04.64,1.74.8,4.45-.19,5.48-.8.83-2.32.61-2.9.81-1.89.66.92,4.28-2.82,4.53Z"/>
  <path class="st36" d="M122.26,78.53l-.07,5.42c-.02,1.42-2,1.18-2.75,1.19-.02-1.53-.3-3.21.09-5.11.27-1.32,1.88-1.65,2.73-1.51Z"/>
</svg>