<?xml version="1.0" encoding="UTF-8"?>
<svg id="_레이어_1" data-name="레이어_1" xmlns="http://www.w3.org/2000/svg" version="1.1" viewBox="0 0 177.48 177.48">
  <!-- Generator: Adobe Illustrator 30.3.0, SVG Export Plug-In . SVG Version: 2.1.3 Build 182)  -->
  <defs>
    <style>
      .st0 {
        fill: #fabc5f;
      }

      .st1 {
        fill: #75300b;
      }

      .st2 {
        fill: #712c04;
      }

      .st3 {
        fill: #823203;
      }

      .st4 {
        fill: #7c3814;
      }

      .st5 {
        fill: #6d2d0b;
      }

      .st6 {
        fill: #401e08;
      }

      .st7 {
        fill: #85441d;
      }

      .st8 {
        fill: #83390c;
      }

      .st9 {
        fill: #973f07;
      }

      .st10 {
        fill: #923a05;
      }

      .st11 {
        fill: #d67424;
      }

      .st12 {
        fill: #843609;
      }

      .st13 {
        fill: #411e06;
      }

      .st14 {
        fill: #ca6a21;
      }

      .st15 {
        fill: #d87b2c;
      }

      .st16 {
        fill: #6c2906;
      }

      .st17 {
        fill: #712b07;
      }

      .st18 {
        fill: #722c08;
      }

      .st19 {
        fill: #632506;
      }

      .st20 {
        fill: #5f230d;
      }

      .st21 {
        fill: #fdeecf;
      }

      .st22 {
        fill: #d67826;
      }

      .st23 {
        fill: #7f360a;
      }
    </style>
  </defs>
  <path class="st2" d="M157.02,63.09c.77.23.67.62-.1,1.13l-1.2,2.79-19.79.18c-5.83,1.95,9.44,3.68,11.58,2.76,6.09,2.05,7.44,7.62,1.74,10.52-5.55-.55-11.04-.36-16.46.56l2.79,1.59.07,21.53c3.15-.66,5.02.26,5.61,2.75,3.07-.45,5.91-.29,8.53.5,5.76,2.89,2.55,7.46-1.67,10.09-2.45-.64-17.9.7-11.95,2.96l11.98.65,1.7,2.88c0,2.21.96,4.29.12,7.46l-23.98-.1c-.47,1.17-.89,1.07-1.26-.2l-2.78-1.29.41-70.69c-2.43.06-3.99-.26-4.87-2.9-6.29-1.5-2.05-11.34,4.99-9.86-.48-3.04.32-4.88,2.41-5.51l7.7.49.37,14.74,24.48.31c.44,2.77,0,4.74-.41,6.64Z"/>
  <path class="st8" d="M149.85,124c-2.83-.27-3.6-2.95-2.3-8.05,5.43-1.88,7.76-3.89,6.98-6.01-2.69.61-4.27-.23-4.74-2.52l-8.53-.5c.08-2.25,1.95-3.58,5.61-3.98l.12-20.14,2.8-1.93c.31-4.62,7.78-3.84,10.12-.59l.85,23.87c.02.1,2.01.1,2.03,0,.56-2.29,1.23-28.33-.09-28.98-7.78,2.32-11.3-7.31-5.77-10.94-.03-.35.03-.78.1-1.13,2.75,1.14,5.68.92,9.13,1.16l.44,8.04,7.1.44-.03,34.31-7.35.36.26,8.83-8.1.31c.77,2.94,1.55,4.71,1.04,7.71-3.66.41-6.64-.07-9.67-.24Z"/>
  <path class="st5" d="M11.13,42.68c4.05-.65,5.39,4.36,1.96,6.36,9.14.17,9.12,7.94,2.17,11.33l-.4,69.13-2.79,1.66-6.99.28c-.84-29.8-1.05-59.71-.62-89.72,3.02-.77,5.24-.45,6.67.96Z"/>
  <path class="st7" d="M114.81,25.7c1.09,5.64-11.91,5.43-13.68.71l-1.28,2.78c-20.28,0-40.56.01-60.85.02l-1.66-2.78c-.6,4.23-4.49,3.63-4.59-.59,1.56.32,4.14.33,4.54-1.12.52-1.86.57-3.73.09-6.86l63.32-.34.49,7.94,13.62.24Z"/>
  <path class="st16" d="M101.21,153.61c1.21.04,1.17.42.04,1.1.49,2.07.88,4.35-.18,6.89l-63.88.04c-.75-3.11-.19-5.7-.17-8.23-.65-4.03,8.06-4.13,8.37-.53,4.45.58,7.56-.16,9.31-2.2,14.99.05,29.95.09,44.89.14l1.63,2.79Z"/>
  <path class="st4" d="M32.75,25.84c1.83.57,2.42.59,4.59.59l1.91.33c3.2,8.36-2.17,11.59-16.1,9.7.38,7.32-6.43,8.97-12.02,6.23-1.74-.38-3.55-.83-6.06-.36v89.12c-.69-.52-1.47-1.5-1.46-3.06l.25-88.04c3.55.78,7.16.89,7.95-.49.68-1.19.42-4.26-.11-6.63l8.34-.74.29-6.97c4.46.06,8.97-.74,12.43.34Z"/>
  <path class="st18" d="M119.23,145.19c-2.57.92-1.34,6.02-2.51,7.63l-15.46,1.89c-.08-.34-.07-.76-.04-1.1-2.73-.3-3.39-2.88-1.98-7.74,3.35-3.11,8.19-4.26,14.51-3.44.28-2.7.5-4.39,3.69-4.64,4.09,1.24,4.62,4.38,1.79,7.4Z"/>
  <path class="st23" d="M36.86,144.51c2.71.06,2.8,1.15.2,2-1.19,4.41-15.24,4-16.68-.26l-8.16-1.01-.15-14.08.22-1.85c8.05-2.83,11.78,1.44,11.2,12.83l11.43-.35,1.94,2.72Z"/>
  <path class="st1" d="M117.76,33.48c4.14.06,3.95,6.8.02,7.59-2.59,1.8-4.02.45-4.26-4.06-10.79,1.35-15.91-1.47-15.38-8.45l3-2.15c4.07,0,10.4,1.37,13.68-.71.46-.29,2.1-.36,2.68.1l.27,7.68Z"/>
  <path class="st19" d="M37.06,146.51c4.09-.12,3.88,6.15-.04,6.9l-16.69.1c-.67-2.85-.3-5.02.05-7.26l16.68.26Z"/>
  <path class="st17" d="M124.72,131.16l1.26.2-.72,12.54c-.14,2.81-4.63,2.53-6.04,1.29-1.18-2.49-1.19-4.76-1.79-7.4-8.86-3.5,3.93-15.12,7.29-6.63Z"/>
  <path class="st20" d="M124.88,40.92c-.87,4.3-6.68,4.88-7.1.15l-.02-7.59c1.55-.24,5.17-1.08,6.82.44,2.11,1.93.33,5.35.3,7Z"/>
  <path class="st21" d="M101.14,26.41c-.24,2.34-.52,4.43.17,7.38l15.95.57c-1.14,3.01-.8,5.6.53,6.71,2.15,1.04,4.78-.24,7.1-.15-.04,2.1,2.06,6.84-1.75,8.14-1.48.5-5.58-.56-5.61,2.08l-.04,5.14c-5.59.13-11.05.48-16.39,1.05,4.17-.19,3.43,6.74-.51,7.13.07.65.08,1.29-.11,1.86-.9,2.65-49.88,1.24-55.59.83-4.6.89-7.38-.04-8.34-2.8-4.13-.49-3.26-6.56.64-6.96-5.23-.91-10.51-1.12-15.84-.64-2.94,2.84-4.68.79-1.49-1.61.72-3.84-1.53-5.86-6.75-6.09l-1.96-6.36c2.5-1.61,5.35-1.9,8.84-1.94l.47-7.09,16.73.11c.83-2.8.46-5,.17-7.33l63.8-.02Z"/>
  <path class="st14" d="M117.49,56.28c2.43.03,4.96-.36,7.71.9l-.47,73.98c-2.01-.32-5.3-.44-6.75.94-1.68,1.61-.04,4.36-.54,5.69-.7,1.84-.66,4.85-.88,7.31l-14.6.58-.74,7.92-64.19-.19.04-6.9-.2-2c2.13-8.87,11.86-2.71,11.04,4.54.97.15,2.33-1.15,4.1-3.91l1.59-2.79,31.6-.07c1.23-5.57,2.76-6.78,8.4-6.37-.43-4.79,2.07-7.33,6.86-7.1,2.72-8.31,1.08-17.24-1.76-25.25-.11-6,1.35-8.45,7.71-8.12l.11-6.46c-5.27-.81-9.8-5.42-3.96-7.88l-4.01-.8c-9.89,1.81-13.88-3.74-4.53-7.85-.55-2.11.76-3.18,3.93-3.2-.33-2.5-.24-4.04,2.65-4.78l1.5-2.8c14.33.62,18.25-2.42.98-1.58l-1.97-2.75c.03-.33.57-1.24,1.51-1.23l14.88.18Z"/>
  <path class="st22" d="M156.93,64.23l.69,8.55c3.67-.47,5.74-.61,8.59.08l-.65,31.93c-.06,2.96-7.53,2.96-7.59-.02l-.45-24.32-7.74.41c-1.17,4.45-15.33,4.41-16.98.18,4.6-2.3,9.88-1.54,16.21-.94.88-1.76,1.01-4.56.36-7.32l-16.19-.33c-.81-2.72-.8-5.16-.12-8.01l23.87-.22Z"/>
  <path class="st11" d="M149.85,124l-15.68-.85c-1.72-.09-2.17-5.31-1.19-7.94l16.56-.53c.59-2.98.34-5.22.26-7.26,1.8.05,4.64-.79,6.23.24,1.79,1.16,2.01,4.31,1.16,7.33-1.98.81-4.4.64-7.03.77l-.3,8.24Z"/>
  <path class="st15" d="M37.18,57.39l-1.56,2.75c-15.25-1.15-18.59,1.86-.93,1.42l1.85,2.79c2.41.22,3.48,1.97,3.21,5.26l52.21.05,2.04,2.79c-.18,2.42-2.65,4-2.59,7.58,4.04-.54,8.43-1.18,11.13,1.07-1.55,2.89-5.26,3.73-11.12,2.51.39,4.41-.96,7.03-4.06,7.85-12.93-.12-25.75-.05-38.47.2-2.88-13.72-19.53-6.86-18.06,3.66,8.89-1.34,11.76,7.95,4.98,13.31-1.75,5.02-4.04,19.26,3.29,20.91.84,4.7,3.69,7.16,8.56,7.37.8,3.23,2.25,5.97,4.34,8.22.24,2.2.29,4.33,1.72,6.59l-8.68.63.23-9.36c-3.71-1.63-5.95,1.44-8.41,1.51l-16.41.5-.52-13.35-7.87-.51.43-75.05c3.02.88,5.94.48,6.68-.71.66-1.06.02-4.69-1.52-4.76-2.07-.1-4.21-.39-4.57-1.59l7.15.09.25,7.34c5.92-.43,11.84-1.49,16.69.91Z"/>
  <path class="st3" d="M100.59,64.47l.22,7.84-6.81.14-56.75-.06c-.77-2.46-.25-4.87-.71-8.04l64.04.12Z"/>
  <path class="st10" d="M37.18,57.39l-.64,6.96-15.85-.09c-1.09-1.43-1.11-4.94-.12-7.19l16.61.32Z"/>
  <polygon class="st9" points="100.59 64.47 101.09 57.33 117.4 57.06 117.44 64.26 100.59 64.47"/>
  <path class="st0" d="M102.54,81.1c-.43,1.3-.06,3.58.99,4.09,1.47.71,3.44.8,5.81.42l-.2,12.03c-1.67.92-4.68.59-6.38.59-2.98,2.9-.7,6.71.3,9.96,2.3,7.48,1.57,16.22.21,23.42-2.32-.04-5.39-.18-6.3.6s-.46,4.22-.6,5.43c-1.81,1.56-5.01,1.2-7.52.8l-.74,6.6-36.12.08c-1.74,0-4.16.48-4.9-1-.65-1.29-.76-2.97-.94-5.46-2.96-.34-5.58.1-8.34-1.69.41-1.89.36-4.79-.52-5.52s-3.36-.87-5.52-.79c.31-7.89-1.04-15.74.84-23.29,2.28-1.27,4.59-3.35,4.15-6.25-.53-3.49-3.18-3.23-7.04-3.44-2.76-1.55-2.18-10,.82-11.65l9.41-5.19c5.19-1.2,10.05,4.25,10.31,9.03l7.81-1.35,30.52.13c-.26-3.24-.29-4.99.23-7.92l13.71.34Z"/>
  <path class="st12" d="M79.44,131.11l-21.22-.02c-1.13-1.39-.9-4.95-.22-6.04.8-1.29,3.64-1.91,6.08-1.61.68-2.78.62-4.69.48-8.04,2.75-.57,5-.72,8.26-.06-.14,2.36-.82,6.39,1.02,8.04l5.42.75c.91.12.92,4.08.18,6.97Z"/>
  <polygon class="st13" points="56.69 115.36 48.37 115.4 48.49 106.65 56.6 106.6 56.69 115.36"/>
  <polygon class="st6" points="88.62 115.28 80.26 115.27 80.36 106.66 88.57 106.56 88.62 115.28"/>
</svg>