<?xml version="1.0" encoding="UTF-8"?>
<svg id="_레이어_1" data-name="레이어_1" xmlns="http://www.w3.org/2000/svg" version="1.1" viewBox="0 0 177.48 177.48">
  <!-- Generator: Adobe Illustrator 30.3.0, SVG Export Plug-In . SVG Version: 2.1.3 Build 182)  -->
  <defs>
    <style>
      .st0 {
        fill: #702800;
      }

      .st1 {
        fill: #6f2c07;
      }

      .st2 {
        fill: #772e09;
      }

      .st3 {
        fill: #fddcb6;
      }

      .st4 {
        fill: #ba5d1c;
      }

      .st5 {
        fill: #6f3319;
      }

      .st6 {
        fill: #fdf4ea;
      }

      .st7 {
        fill: #6b2b0b;
      }

      .st8 {
        fill: #6c2a06;
      }

      .st9 {
        fill: #6f2a05;
      }

      .st10 {
        fill: #7c320b;
      }

      .st11 {
        fill: #e08745;
      }

      .st12 {
        fill: #722d06;
      }

      .st13 {
        fill: #772d06;
      }

      .st14 {
        fill: #eaa168;
      }

      .st15 {
        fill: #a44a10;
      }

      .st16 {
        fill: #f38e2b;
      }

      .st17 {
        fill: #e27418;
      }
    </style>
  </defs>
  <path class="st4" d="M117.11,52.13c2.41,2.21,5.32,3.74,8.74,4.58,7.37,7.55-2.43,19.52-8.15,9.93l-.93,1.02c7.45,1.64,2.43,11.44-4.81,11.39-.66,2.16-1.83,3.76-3.52,4.8-.87,4.56-13.44,4.35-14.71,0-4.84-.2-8.42-2.06-10.73-5.59l-48.52-.02-2.13-2.91c-3.13-1.68-4.17-5.73-3.11-12.16-2.98-.47-4.9-1.72-5.78-3.75,2.26-2.34,5.69-1.27,8.56-1.24-.19-4.35,7.32-4.49,8.36-.38,2.62.14,3.48,2.02,2.6,5.64,3.05,1.04,4.44-.39,4.19-4.31,1.26-3.37,4.11-4.5,8.56-3.37-.24-5.32,2.84-8.06,9.24-8.25-1.57-1.03-3.3-2.36-5.19-4.01-3.16,1.14-4.6-5.42-3.52-6.79,2.72-3.47,3.48-4.02,5.19-1.61.4.56,10.25.42,11.98-.13,1.6-2.45,5-3.51,10.21-3.18.11-6.08,2.33-9.87,7.58-12.62-.8-5.24-.9-7.2,4.88-8.7,14.76-3.84,21.51,9.03,8.04,15.54-.57,5.04-3.7,5.71-7.97,6.34,5.21.58,7.7,2.51,8.16,8.03,11.53-1.41,16.75,1.88,15.65,9.88l-2.87,1.86Z"/>
  <path class="st9" d="M93.73,83.85c.66,4.31-6.6,4.38-7.57.32l-1.67,2.91c-8.09-.02-16.18-.03-24.27-.05l-2.07-2.92-1.59,2.9-12.85-.12c.11,6.39-1.89,8.64-8.58,8.26-.09,11.96.07,23.91.48,35.83,6.88-.13,10.84,4.6,5.42,9.69,2.29-.37,2.91,1.03,3.33,2.85,6.65-1.56,13.6,6.8,7.38,11.37,1.26.32,1.12.59-.28.83-3.03-1.52-6.26-1.52-10.9-1.02l-.75-7.74-7.85-.35.09-11.63-8.6-.23.02-43.19h8.46s.39-16.25.39-16.25l52.36.02c2.31,3.89,5.29,6.74,9.03,8.51Z"/>
  <path class="st8" d="M132.94,44.68c4.32,14.2-6.69,15.93-15.82,7.44l-.2-8.29-16.01-.68c.6-2,.41-6.72-1.39-7.12-2.79-.62-4.88-.56-5.77-2.29-.76-1.47-.73-4.54,1.36-4.69s5.24.36,5.59-1.07l1.26-5.28c1.57-.7,5.64-.11,6.02-2.01.43-2.16.3-3.98-.01-7.03-4.6-.65-9.56-.67-14.6.08.64,2.98,1.31,7.55.16,8.02l-5.85,2.39-1.46,10.33c-4.57,1.19-8.85.69-12.77.5-11.62,2.34-16.13-.19-13.53-7.57l17.52-.85c2.14-.1,4.29-5.32,8.62-3.51l.14-18.52,30.51.06-.05,17.89c-1.97-.36-5.54-.34-6.28.86-2.43,3.97-2.91,8.28-2.41,12.83l13.19-.06.83,8.16c3.77.17,7.72-.72,10.96.4Z"/>
  <path class="st15" d="M140.67,54.86c-.22,1.95-1.75,3.21-4.59,3.8l.25,7.25c3.84.57,6.14,1.61,8.12,4.97.7,1.19,1.61,26.48-4.59,25.01l-21.29.03c.23,3.54-.91,5.58-3.43,6.11-5.37,1.83-6.53-8.3-.96-9.12-2.05-.79-2.58-2.76-1.59-5.91-2.47.2-3.67-.43-4.17-3.15-.78-2.35-.15-4.49,1-6.28,1.32-2.05,5.14-1.62,6.48-2.62,2.24-1.68,1.15-5.79.84-7.28l-.87-1.11c-1.41.12-5.38.75-6.67-.15-1.5-1.06-1.36-5.71-.64-7.48s5.73-1.08,7.45-.44.96,5.5.69,7.24l.96.93c1.63.28,4.96.92,6.83-.02,1.35-.69,1.04-4.09.69-6.11s-2.73-2.18-5.37-2.66c-2.48-.45-2.7-4.18-2.74-5.72,6.68-.52,12.62,5.01,15.35.98,1.52-2.25.29-6.43.47-8.42,2.56.89,1.1,6.09,1.19,8.65,1.73.56,5.68.11,6.55,1.53Z"/>
  <path class="st1" d="M140.67,54.86c1.84,3,1,7.4.9,11.74,3.04,1.04,5.39.87,8.97.58l.03,34.7c-3.48.28-6.7.76-9.67,1.44l-.27,17.57c-2.3.3-4.59.08-6.44-.39-.37,1.19-.64,1.17-.81-.07l-2.97-1.48-.51-13.05-12.92-.86-1.83-3.01.43-9.02,25.93-.04.03-23.34-8.02-.83-.48-13.78,7.63-.16Z"/>
  <path class="st2" d="M125.5,138.15c-.25,2.96.66,6.08-.76,9.5-2.36-.59-5.47-.76-6.25.21s-.76,4.03-.34,6.56l-17.29.91-.42,8.78-20.06.05c-5.3-1.33-4.46-9.47.62-12.35l16.07-.44c-.18-4.22,1.24-6.65,4.27-7.3l12.83-.15c-1.54-8.25,7.54-12.32,11.34-5.78Z"/>
  <path class="st10" d="M73.44,34.98c-3.93,1.83-8.36,1.41-14.02.54-.64,2.81-.31,5.49.37,7.99l-2.7,2.96c-3.03-1.1-4.88,1.17-5.57,6.81-4.33.92-8.04,2.43-11.14,4.52l-8.36.38.25-14.56,8.37-.38.13-7.69,17.66-.87c.38-1.93-.64-7.16,1.47-7.26l.56,6.95,12.97.62Z"/>
  <path class="st12" d="M80.37,164.16c.19,3.2.85,6.32.21,10.46l-22.03-.05.03-10.34c-1.28-4.38,18.77-3.44,19.77-2.97,1.07.49,1.59,1.77,2.02,2.91Z"/>
  <path class="st5" d="M133.38,120.43c.26-.01.55,0,.81.07l-.29,17.51c-2.96,1.01-5.72.14-8.4.13-4.66.13-2.95-16.71-1.63-18.4,2.04-2.6,8.71-3.37,9.52.68Z"/>
  <polygon class="st7" points="32.34 75.32 23.46 75.36 23.46 59.41 32.08 59.31 32.34 75.32"/>
  <path class="st13" d="M58.58,164.23l-7.25-.21c-.66-3.13-.68-5.86.15-8.31l.28-.83c4.05-9.68,15.42,4.84,6.82,9.34Z"/>
  <path class="st5" d="M150.56,101.88c-1.84,1.85-5.3,1.44-8.95,1.06-.47,6.61,1.17,12.52-.98,17.95l-.47-19.15,10.41.14Z"/>
  <path class="st14" d="M59.79,43.5c2.24-.17,4.95-.52,6.72.19,1.47.59,2.05,6.23.22,6.55l-8.23,1.46c.75,2.36.47,5.83-.73,6.52-1.26.72-4.37.47-6.95-.29-1.62,2.56-1.07,5.35-1.1,8.43l-9.83.27.49-8.84c.11-1.97.36-5.65,1.78-5.7l6.59-.23c1.64-.06,1.8-4.97.61-7.47,3.63-1.47,6.72-.61,10.43-.89Z"/>
  <path class="st0" d="M93.73,83.85h14.71s6.8.39,6.8.39c1.14,3.61-.23,6.04-1.05,8.68-.32,1.13-.82,2.81-1.7,2.89-2.85.24-24.75.19-25.8-.56-3.66-2.58-6-8.86-.53-11.07l7.57-.32Z"/>
  <path class="st11" d="M77.18,66.24c-5.05,1.03-11.57,1.36-16.87-.04-2-.53-2.14-6.04-.61-6.57,5.75.23,11.69-1.58,16.83-2.74-.95-3.02-.62-6.07,1.52-6.69,1.83-.53,6.02-.52,7.34,1.32,1.05,1.47,1.14,6.65-1.47,6.44-2.78-.22-5.43-.39-6.3.91-.75,1.12-.4,4.71-.43,7.37Z"/>
  <path class="st16" d="M58.16,84.11c2.49-.08,3.65,1.91,3.48,5.98l22.34-.05c3.06,2.31,4.6,5.1,4.6,8.37,9.02-.12,9.5,7.53,9.78,15.38.24,6.76-.85,18.04-8.89,18.43.35,5.43-2.86,8.2-8.06,8.16.64,6.5-2.06,8.67-8.15,9.42,1.15,7.1-8.2,10.49-12.98,7.19-1.88-1.3-4.86-5.06-4.12-7.57-4.04-1.32-9.16-4.66-8.99-9.2-2.2,1.8-4.25,1.94-6.13.44,0-1.49.11-4.53-.8-5.62-1.06-1.27-4.22-1.39-7.7-.89l-.44-41.22c3.29-1.09,5.25-.89,8.34-.71l.51-8.27,17.22.16Z"/>
  <path class="st17" d="M86.17,84.17c-.23,2.58-.55,5.32.18,8.34l27.85.41c-.87,2.8-.82,6.97.96,9.12l17.55.91.68,17.49-7.53.44-.36,17.27-8.21-.02-.3,8.67-17.19.2c.96,2.26.37,7.19-1.66,7.25l-18.32.5.55,9.4-21.79.07-.03-9.83-6.79.5-1.37-8.52-9.36.1.02-5.8c2.79-1.94,5.53-4.42,9.32-3.3-.46,3.11-.1,6.17,1.06,7.28,1.49,1.43,4.38,1.64,7.13,1.09.83,2.81.4,4.91.49,7.95,3.27.81,8.3,2.46,10.73.25.55-2.15.33-6.15,1.88-6.58l6.27-1.71c1.5-.41-1.06-6.73,2.52-7.84,1.49-.46,5.27-.48,5.7-2.12.51-1.96.45-3.72.37-6.23l7.16-1.29,1.73-13.3c.5-3.82-2.52-7.87-.57-12.53l-8.76-.91-1.23-8.47-26.22.06-.46-8.9,28.01.05Z"/>
  <path class="st6" d="M41.05,120.39l-.08-18.62,8.97.42-.42-9.11c2.84-.71,5.95-1.32,7.93-.69,2.08.66,1.83,5.82,1.09,8.29-.56,1.86-3.88,2.42-7.94,1.36l-.55,18-9,.35Z"/>
  <path class="st3" d="M51.73,128.74c-1.93-2.01-.88-5.7-.94-8.29,2.75-.18,5-.42,6.92.12,1.21.34,1.01,3.29.8,5.09s-2.21,3.18-6.79,3.08Z"/>
</svg>