<?xml version="1.0" encoding="UTF-8"?>
<svg id="_레이어_1" data-name="레이어_1" xmlns="http://www.w3.org/2000/svg" version="1.1" viewBox="0 0 177.48 177.48">
  <!-- Generator: Adobe Illustrator 30.3.0, SVG Export Plug-In . SVG Version: 2.1.3 Build 182)  -->
  <defs>
    <style>
      .st0 {
        fill: #742d06;
      }

      .st1 {
        fill: #fbd99d;
      }

      .st2 {
        fill: #72320e;
      }

      .st3 {
        fill: #80350f;
      }

      .st4 {
        fill: #752c04;
      }

      .st5 {
        fill: #7a2c04;
      }

      .st6 {
        fill: #b47542;
      }

      .st7 {
        fill: #6d2a08;
      }

      .st8 {
        fill: #7c3004;
      }

      .st9 {
        fill: #6e2e0b;
      }

      .st10 {
        fill: #7c350c;
      }

      .st11 {
        fill: #b75710;
      }

      .st12 {
        fill: #682907;
      }

      .st13 {
        fill: #e4923c;
      }

      .st14 {
        fill: #d5782c;
      }

      .st15 {
        fill: #fdefcb;
      }
    </style>
  </defs>
  <path class="st11" d="M103.23,22.1l-.98,3.11c-16.7,0-33.06.52-49.07,1.57l61.23.89c3.22,1.36,4.71,4.32,4.47,8.87,5.13-.75,8.22.75,9.27,4.5-1.33,3.9,1.18,6.12,7.53,6.64,1.81,12.77,2.6,25.77,2.37,39.01,2.36-5.48,5.93-8.23,10.71-8.23-1.02-9.02,8.77-13.07,11.59-4.41l.62,7.43c2.31-.19,2.57.75.67,2.01l-1.31,1.02c-.64,1.78-2.37,2.85-5.21,3.22l.12,57.58-3.1,1.83c0,2.59,2,6.81-1.25,9.11-2.76.39-3.78-1.47-3.06-5.58-3.22-.4-5.13-1.75-5.75-4.04-11.85-.26-16.88-15.97-3.73-16.17,8.79,6.4,11.88,3.86,9.27-7.61-20.8,1.99-22.47-15.42,0-12l.5-11.5c-5.25,3.96-11.92,5.48-20.01,4.54l-.02,41.3c2.47.86,4.8,1.91,6.99,3.16,4.58-.08,4.64,6.34.4,7.5-.15,1.19-.43,2.92-1.3,3.1-3.93.82-17.1,1.33-18.2-2.97-4.64.15-4.76-8.44-.38-9.4l-1.54-.73c1.49-3.98.99-6.77-1.52-8.37l.16-42.76c.06-3.92,2.76-6.08,8.11-6.47,7.08-11.36,6.95-20.1.32-31.5-5.19.29-8.31-.76-8.63-6.53-5.69,1.55-9.26-1-10.71-7.67l-59.34.13c-.89,5.96-3.66,8.83-9.71,7.85-1.18,7.12-11.74,10.96-13.21,3.41-.64,1.23-1.05,1.08-1.24-.36-4.79-.62-4.68-12.52-.12-13.62l.03-9.01,10.98-.16,1.64-3.11c5.17.16,10.24,0,15.2-.49l-.48-5.49c5.1.34,1.88-4.93,4.82-8.95,2.47-.15,3.68,1.69,3.65,5.5l46.99.72,2.21,3.13Z"/>
  <path class="st4" d="M106.24,156.61c.29-4.67,8.48-4.97,9.73-.61l19.5-.14,3.13,1.14c-1.94,1.62-2.88,4.79-2.82,9.49l-105.42.03c-.98-2.76-1.25-5.64-.81-8.65-5.01-4.97,8.35-7.44,8.68-1.64,22.62.49,45.28.62,68.01.38Z"/>
  <path class="st10" d="M134.08,12.64c.79,2.88,1.49,6.61.01,9.14-.32,1.21-.79,3-1.74,3.11-3.63.45-26.57.69-28.08-.73-.53-.5-.82-1.24-1.04-2.05l-52.55-.81-.29-8.54,83.7-.12Z"/>
  <path class="st12" d="M160.32,84.51l.45,61.87c-3.67,1.01-6.12.76-8.64.75l.07-54.77c0-2.65-.98-5.97,1.34-7.67,1.52-1.12,4.79-.79,6.79-.18Z"/>
  <path class="st8" d="M18.18,39.95l.12,13.62c.69,9.41.88,18.99.58,28.75,3.85.07,3.85,7.48,1.99,9.74-2.13,2.6-3.68,2.82-4.01-.62-2.86.69-5.58.58-8.15-.33l.55-51.01,8.92-.16Z"/>
  <path class="st7" d="M161.62,83.49c-1.29-.58-.74-1.42-.67-2.01-.51-14.11-.31-28.11.6-41.99l8.63-.28-.13,43.95c-2.7,1.69-6.68.95-8.43.33Z"/>
  <path class="st6" d="M37.82,147.07c2.58.63,4.08,2.57,4.5,5.81l62.13.62,1.78,3.11-65.01.74c-3.8.04-7.8-2.62-11.39-.35l.51,9.53c-2.26-1.88-1.7-5.24-1.07-9.18-3.52.39-9.4.71-11.05-1.66l-.65-64c-3.81,1.43-8.42,1.33-8.88-.56l10.09-.17-.5-37.37,1.24.36,3.07,1.39-.15,24.49c8.01-.56,11.63,5.12,10.86,17.06l-.17,46.67c2.72-.04,4.28,1.14,4.67,3.52Z"/>
  <path class="st3" d="M161.56,39.49l-.6,41.99-.62-7.43-3.09-1.79.09-29.39c-7.57,1.02-12.94-8.44-6.43-12.72-4.02-4.51-5.12-4.71-12.19-4.16.15,2.64-.36,4.01-3.34,4.57-5.91,2.38-6.78-7.65-1.28-8.77v-9.14c1.81,2.19,1.7,5.29,1.43,8.66l17.49.69c-1.12,3.4-1.05,7.21.39,8.37,1.15.93,5.1.27,6.47.61,1.21,2.53,1.73,6.2,1.7,8.53Z"/>
  <path class="st9" d="M45.55,21.7c1.99.01,3.23,2.27,3.49,3.73.24,1.36.12,5.21-1.56,5.22l-18.29.13-.16-9.18,16.52.1Z"/>
  <path class="st14" d="M150.88,156.25l-14.25,2c1.06,3.15.99,7.84-.85,8.24l-.31-10.64c.99-4.81,14.25-4.26,15.41.4Z"/>
  <path class="st15" d="M115.59,146.59c.1,4.35-2.15,4.28-3.69.31l-2.15-2.47c1.57-2.69,1.53-3.92-.12-3.71-3.61,14.3-14.12,11.99-19.22-.76-.49,5.17-2.5,8.48-6.03,9.94l-44.32.25-2.25-3.08-7.77-.23.19-49.79-1.42-13.71c-3.56-.73-5.77-.43-9.77-.25l.49-29.16c2.34.67,6.21,1.64,8.9-.63l1.62-5.54c.28-.97,4.5.16,6.82-.32,2.04-.41,2.59-4.65,1.56-7.86l67.33-.14c.21,3.62-.09,6.02,1.42,8.44,2.43-.81,5.81-.99,7.08-.3s1.77,3.39,1.53,5.88l9.04.31c-1.97,5,1.37,7.49,3.45,10.04.95,4.95,1.42,12.21-.1,17.14-1.81,2.95-5.87,5.34-3.76,10.85-3.73-.03-5.77-.06-8.65.66l-.2,54.12Z"/>
  <path class="st14" d="M134.09,21.78c-.02,2.37-1.35,7.83,1.28,8.77,2.51-3.53,13.08-4.14,15.53-.41l.85,8.99,8.69.49-.1,34.42c-2.29-.61-4.37-1.6-7.56-1.68-.94,3.1-.94,5.5-.97,8.7l-8.75,1.53c.15,3.63-1.63,5.17-2.69,6.39-1.3,1.5-5.38.59-5.42-1.01l-1.01-38.43-9.13-.52.28-9.29-9.41-.16-.38-8.81-63.3-.66c-2.44-.03-2.52-7-.36-7.04l51.59-.98,30.86-.33Z"/>
  <path class="st14" d="M142.07,146.63c-1.46,3.89-3.88,4.33-7,1.73-2.88,2.08-10.06,1.47-10.06-3.4l-.04-44.02,16.87-.75c2.57-.11,4.71-6.62,9.42-4.89l-.26,18.71c-6.34.11-11.56-1.31-18.07,1.26,4.85,5.43,12.34,6.15,17.87,3.14l.27,19.25c-6.07.36-10.12-2.72-15.67-5.14-1.74,1.89-2.35,6.4-.19,8.24,2.46,2.09,5.69,3.07,6.86,5.88Z"/>
  <path class="st5" d="M142.07,146.63l8.86.34-.06,9.28-15.41-.4-.4-7.5c2.17-1.57,4.46-1.83,7-1.73Z"/>
  <path class="st13" d="M111.9,146.91l3.69-.31.38,9.4-9.73.61c-8.14-3.43,2.12-17.42,5.66-9.7Z"/>
  <path class="st0" d="M29.93,155.78l-10.47-.11.02-63.28c3.12-.9,6.06-1.07,9.25-.03l1.21,63.42Z"/>
  <path class="st2" d="M150.9,30.14c-4.88,1.04-10.51,1.58-15.53.41l.33-7.67,15.55.04-.36,7.22Z"/>
  <path class="st1" d="M111.9,146.91c-1.58.14-4.45-.03-5.01,1.27-.91,2.1-.64,5.64-.65,8.43l-67.88-.67c.18-3.72.19-6.34-.54-8.87l46.72-.22c2.52-.01,1.19-9.27,5.36-9.79,5.31-.67,3.75,6.03,8.27,9.35,2.1,1.54,7.23,1.54,7.49-1.21.26-2.79.29-5.49,1.98-6.92,1.4-1.18,5.68-.64,6.14,2,.48,2.75-.99,5.09-1.88,6.63Z"/>
</svg>