<?xml version="1.0" encoding="UTF-8"?>
<svg id="_레이어_1" data-name="레이어_1" xmlns="http://www.w3.org/2000/svg" version="1.1" viewBox="0 0 177.48 177.48">
  <!-- Generator: Adobe Illustrator 30.3.0, SVG Export Plug-In . SVG Version: 2.1.3 Build 182)  -->
  <defs>
    <style>
      .st0 {
        fill: #c8e0fb;
      }

      .st1 {
        fill: #18408d;
      }

      .st2 {
        fill: #1a4396;
      }

      .st3 {
        fill: #6a87be;
      }

      .st4 {
        fill: #f9fbfd;
      }

      .st5 {
        fill: #dcedfc;
      }

      .st6 {
        fill: #1d3e90;
      }

      .st7 {
        fill: #cce5fd;
      }

      .st8 {
        fill: #6e85b8;
      }

      .st9 {
        fill: #2c4b9a;
      }

      .st10 {
        fill: #1c408f;
      }

      .st11 {
        fill: #78a2e2;
      }

      .st12 {
        fill: #f8fafc;
      }

      .st13 {
        fill: #1d4297;
      }

      .st14 {
        fill: #2248a2;
      }

      .st15 {
        fill: #eaf2fa;
      }

      .st16 {
        fill: #1e3d8d;
      }

      .st17 {
        fill: #1b4497;
      }

      .st18 {
        fill: #1b3f8e;
      }

      .st19 {
        fill: #153581;
      }

      .st20 {
        fill: #aaccf7;
      }

      .st21 {
        fill: #294c99;
      }

      .st22 {
        fill: #294a93;
      }

      .st23 {
        fill: #7699d1;
      }

      .st24 {
        fill: #aac8ef;
      }

      .st25 {
        fill: #1d3f8a;
      }

      .st26 {
        fill: #1f4ca2;
      }

      .st27 {
        fill: #1c418e;
      }

      .st28 {
        fill: #214294;
      }

      .st29 {
        fill: #214290;
      }

      .st30 {
        fill: #234995;
      }

      .st31 {
        fill: #1b4297;
      }
    </style>
  </defs>
  <path class="st11" d="M129.32,33.22c5.66,5.86,4.48,13.37-5.5,12.42l-1.89,17.06c-1.51,2.33-4.24,3.15-8.18,2.47.28,8.86-3.34,13.14-10.87,12.83.48,7.44-.31,10.46-8.66,10.66.63,4.25-1.31,7.79-4.46,10.48.29,5.53-.57,8.47-6.41,9.57.08,6.14-.19,12.21-.83,18.21-2.54,1.88-5.58,2.51-9.11,1.9.97,8.69-1.11,11.05-9.74,10.9.75,3.46-.21,5.56-2.87,6.32l-.93.58c-1.04,4.34-6.8,3.64-8.72-.12-3.92.73-7.02.27-9.31-1.41-4.46-.49-4.44-8.41-.22-9.48.27-3.31,2.35-4.84,6.25-4.58-.64-4.12-.64-8.25,0-12.38-2.58.19-4.53.21-6.06-2.32l-2.97-1.6-.05-13.76c-3.5-.35-5.76-1.63-6.77-3.83-.39,4.63-7.71,4.1-9.12.05,1.35-1.79,4.46-2.04,8.38-1.17l.43-21.19c.03-1.56.55-2.64,1.49-2.87l2.97,1.66.08,18.81c.39.5,1.11.56,2.16.17l-.58-18.45,2.9-2.13-.11-16.43c-.01-1.55.82-2.66,1.54-3.26,4.3.74,3.63,13.59,2.97,17.6l-2.96,2.04c1.29.43,1.27.92,0,1.48l2.96,1.27v17.81s1.43,1.09,4.27,3.27c3.33-.33,4.96,1.92,4.88,6.78.27,19.55,4.09,6.14,3.26-4.34,2.56-7.02,7.15-7.84,10.19-.84.68-4.85,4.93-4.83,8.91-4.79.19-9.37.9-11.28,10.56-10.97,0-4.21,1.16-6.82,3.48-7.83,1.4-2.33,3.13-2.87,5.59-2.61-.72-8.91,2.8-13.01,10.54-12.32-.84-3.29-.03-5.31,2.42-6.08-6.06-4.37-1.05-14.19,7.22-13-.79-6.77,4.61-13.7,11.2-10.31,1.57.81,1.88,1.57,1.71,3.75Z"/>
  <path class="st3" d="M33.21,125.25c1.31.41,1.3.93.05,1.56l3,1.53.34,14.69c2.66-.65,4.41.04,5.24,2.06l9.31,1.41c.34,2.72-1.87,4.29-6.64,4.69,13.89.72,28.07,1.1,42.56,1.15-.26-1.95,2.04-2.29,3.83-1.95.21,1.79.42,3.43-.15,6.09l-48.58-.27c-.54,2.71-2.72,3.56-6.53,2.53-1.19,2.23.27,2.96,4.4,2.19l2.23,2.83c-2.9,2.52-7.04,1.66-10.72,1.19-2.35,6.87-10.67,1.2-8.69-5.85,0,0-1.07-.91-3.21-2.74l6.65-2.47c-.56-2.61-.56-4.91-.07-6.59.35-1.22,3.52-1.31,5.21-1.69l.15-18.78c-2.05.3-6.99.24-7.24-1.55-.32-2.53,1.14-3.55,4.38-3.05-.56-3.36.48-5.36,3.12-5.98,5.53-.92,6.26,7.54,1.34,9Z"/>
  <path class="st2" d="M59.86,146.62c10.39.22,20.43-.2,30.11-1.25l.91,2c.06.94.27,2.31.01,3.01-.52,1.07-1.43,3.75-2.75,4.53l-46.13.02c-.63-2.7-.61-4.69-.02-7.75,4.08.97,6.58-.19,9.15-.68s6.22.06,8.72.12Z"/>
  <path class="st18" d="M122.07,3.97c8.83.88,17.79,1.07,26.9.59-.76,3.16-.8,5.77-.18,8.14-11.95.84-24.27,1.07-36.95.69-1.1.93-1.96,1.63-2.02,1.52-2.2-4.99-.31-12.41,6.51-10.7,1.6-.48,3.98-.27,5.73-.24Z"/>
  <path class="st24" d="M157.69,61.56c.56-1.24,1.08-1.17,1.54.15-1.03,1.78-4.47,2.06-9.07.88l-.22,22.19c0,.55-.83.79-1.23.53l-2.97-1.28-.08-18.12c-2.72-.03-4.66-1.03-5.84-2.99.13,1.32-.23,1.29-1.03.09-3.04-1.78-2.19-20.29-.91-21.89,2.52-3.14,8.47-2.45,8.78,2.24.45-4.21-.46-7.66-2.73-10.34-.72-3.62-.52-18.16,3.39-18.84.45-.98.94-.96,1.48.02l2.96,1.35-.15,43.3c3.3-.78,5.33.11,6.08,2.7Z"/>
  <path class="st31" d="M31.99,97.14c1.14.16,2.8.47,2.95,1.32.7,3.98,1.11,16.51-3.08,17.79l-.18,8.88-7.32.14c-.64-8.96-1.15-17.84-1.53-26.66l.05-1.42,9.12-.05Z"/>
  <path class="st25" d="M148.71,85.32l-8.94.02c-1.3-.26-1.27-.68,0-1.25-2.88,0-2.77-1.13.16-1.7-.25-4.97-1.26-8.96-3.03-11.96-.85-4.05.13-6.55,2.92-7.49,2.74-.25,5.55-1.08,8.79,0l.1,22.4Z"/>
  <path class="st22" d="M104.46,14l4.37-.23c1.12.61.86,8.19.58,8.54-.82,1.02-24.96.64-26.09,0-.62-.35-.58-7.66-.02-8.42.72-.98,18.14-.5,21.16.11Z"/>
  <path class="st17" d="M40.71,72.02l.72,22.97c-2.24.94-4.8.83-8.15.48l-.1-23.51,7.53.06Z"/>
  <path class="st29" d="M51.01,52.54c2.98.98,3.94,4.09,2.88,9.33-2.25,1.55-3.1,4.56-2.54,9.01,2.68,2.76,1.08,4.3-1.41,1.43-2.97.71-5.57.59-7.8-.35v-19.64c2.94-.79,5.97.19,8.87.22Z"/>
  <path class="st8" d="M116.34,4.21c-1.99.6-4.08.88-5.25,1.64-1.3.85-1.4,5.2-.19,6.76l37.89.09c2.59,0,8.28-.99,10.05,1.71l.39,47.3-1.54-.15-2.96-1.32.02-42.74c-3.42.32-5.41-.77-5.94-3.29l-1.48-.02-1.69,2.96-32.15-.02c.37,5.02-1.18,7.99-4.63,8.92l-24.61-.06-2.07-2.97c-.19-3.08-.47-5.92.74-9.86,7.4-.62,14.97-1.23,21.53.82l-20.69.25v7.33s24.88.03,24.88.03l.18-7.84.06-9.82,7.45.25Z"/>
  <path class="st30" d="M31.56,164.93l-.06,8.91-11.83.12v-17.62c1.5-.26,5.45-.76,5.97,1.3.47,1.86-.4,5.17.32,6.37.77,1.28,4.07.72,5.59.91Z"/>
  <path class="st28" d="M129.22,110.19c1.7,4.3,1.41,11.69.33,16.48l-7.48-.27c-.94.99-1.22.32-1.24-1.04-6.22-3.76-4.11-15.1,3.4-17.41,1.82-.56,3.38-.57,3.87,1.53.94-.95,1.3-.68,1.13.71Z"/>
  <path class="st9" d="M70.35,32.06c1.32.33,1.33.83.09,1.47.27,2.68-1.84,3.68-6.34,3.01,1.09,2.06,1.68,4.07,1.77,6.03l-2.45,3.31c.53,3.9-.6,6.15-3.4,6.74-.08,4.45-8.31,4.15-9.03-.08l.12-10.07,8.91-.12-.22-10.28h10.53Z"/>
  <path class="st21" d="M82.19,23.04c5.54,3.49,4.34,9.6-1.61,12.24-1.9.84-10.96.55-10.22-3.21-.18-2.73-.56-5.47.03-8.94l11.81-.09Z"/>
  <path class="st14" d="M129.64,95.54l1.86,1.4c-1.66,1.94-1.84,4.54-.55,7.8.93,1.34.1,3.76.1,5.2-.26,2.61-.84,2.72-1.83.25l-1.13-.71c-3.63-1.15-3.17-2.49.3-3.54l-3.45-.84c-5.14,1.67-6.57-1.47-4.28-9.44-.03-4.45,8.18-4.33,8.97-.12Z"/>
  <path class="st10" d="M139.77,85.34c0,3.29,1.25,7.61-1,10.37-1.25.73-8.08,1.06-8.47.7-.42-.38-.28-9.88.63-11.25.64-4.41,6.55-4.23,8.83-1.08v1.25Z"/>
  <path class="st3" d="M110.24,146.05c-5.86,2.81-13.12,1.47-19.35,1.32l-31.03-.75.93-.58,1.62-2.99,23.3-.37c.53-5.15,2.33-7.09,5.4-5.84,2.69.07,3.7,2.14,3.04,6.22l14.03.02,2.06,2.97Z"/>
  <path class="st27" d="M42.17,156.2l.11,7.55c-2.3-.06-6.23,1.16-9.19-.81-1.82-1.21-.51-7.34,2.24-7.17l6.84.43Z"/>
  <path class="st23" d="M120.82,125.37c.62.02,1.2.38,1.24,1.04.21,3.06.53,6.51-.72,10.02l-9.78,1c.48,2.44,1.06,7.82-1.33,8.63-2.64,0-3.67-2-3.11-5.98l-14.01-.23-2.02-3c-.43-6.45,17.79-6.17,19.4-1.12-.3-2.73,1.82-3.75,6.35-3.04,2.02-2.53.46-3.49-4.68-2.86l-1.86-2.96c-1.17-5.88,8.94-6.69,10.5-1.49Z"/>
  <path class="st23" d="M138.77,95.71c-1.46,1.8-4.74,1.73-7.44,1.38-.7,3.17-.34,5.29-.38,7.66-1.94-2.8-1.6-5.72-1.31-9.21-5.35-.09-4.57-13.33,1.29-10.38l.17,10.34,7.67.21Z"/>
  <path class="st8" d="M148.98,4.56l-23.99.81c-1.5,0-2.51-.64-2.92-1.4l26.9.59Z"/>
  <path class="st11" d="M24.36,125.28c-3.07-8.51-1.84-17.93-1.53-26.66,1.03.16,1.61,1.27,1.61,2.87l-.07,23.79Z"/>
  <path class="st23" d="M129.55,126.67l-.33-16.48,1.83-.25v15.48c0,1.11-.8,1.27-1.5,1.25Z"/>
  <path class="st5" d="M146.67,43.37c-2.18-1.44-4.49-1.15-6.84-.69-.03,7.14,1,13.96-1.03,20.34l-.09,1.98c-5.66.44-7.67,2.15-6.05,5.13,5.54-1.4,7.7,1.32,6.49,8.17l.78,4.09-.16,1.7c-2.36,1.51-6.45.56-8.83,1.08-2.93,1.94-1.05,7.51-1.29,10.38l-8.97.12c-.47,3.21-.96,6.27-1.49,9.17-.37,2.84-1.5,2.73-1.91-.17-3.78-4.37-5.34-5.11-4.68-2.21l-2.56,2.18c.35,4.43-9.06,5-10.17.76l-.52,2c-5.93.09-7.89,1.65-5.9,4.65,3.57-.39,5.73.57,6.49,2.89.94-2.38,3.21-3.29,6.83-2.73,3.44-4.38,8.95-6.43,13.94-4.62-2.44-3.62,4.73-2.72,7.69-1.64.51.81.04,2.73-.3,3.54-1.75.16-5.9.59-6.73,2.91-1.58,4.39-.56,9.03-.54,12.97-3.53-.1-7.85-1-10.5,1.49,4.44-.64,4.4,7.99.19,8.86-6.32.08-13.44-1.62-19.4,1.12-2,.92-2.12,5.4-1.25,8.74l-29.07.46-.13-9.41,10.05-.29c-.45-4.39-.59-6.9.2-10.57,3.45.03,6.2.54,9.59-.34.12-6.55-1.38-13.22.39-19.16l5.47-1.56c1.06-.3-.13-5.12-.02-6.61,3.11-2.33,6.75-5.85,4.21-11.35,3.27-1.65,5.65-1.53,9.28-1.43l.11-10.49,9.58-.53,1.19-10.93c1.53-1.66,5.75-1.31,8.57-.68l1.85-20.22,8.52.22-.33-9.46c12.32-5.19,18.25-3.74,17.34,10.15Z"/>
  <path class="st4" d="M147.33,14.19l-.66,29.18c-.78-2.3.05-6.34-1.48-7.81-3.46-3.32-9.53-2.45-13.12.51-1.37-.85-1.94-1.83-2.75-2.86-1.87-1.08-7.54-2.2-8.77-.02-1.53,2.7-.52,6.29-.21,9.11l-9.95,1.14-1.21,9.32c-6.16,5.78-13.62,1.09-12.78-7.58l-2.85.02-.78,26.5-3.02,2c-2.29,9.01-13.22,1.27-11.42-7.62-3.62-3.25-5.44-1.3-5.47,5.84-.73,4.47-18.32,4.6-20.33,3.2-1.81-1.26-3.88-4.33-1.18-4.25-.89-8.65,1.09-12.47,5.95-11.46-.69-3.81.22-6.08,2.74-6.8l.6-9.53c1.97-.75,3.83-.73,5.24-.52,1-3.92,2.53-6.93,4.56-9.05l-.09-1.47c3.68.06,7.35.8,11.81.02.7-3.56.24-6.3.02-9.04l27.97.06.27-8.93,36.9.02Z"/>
  <path class="st0" d="M60.04,52.62c-.16,2.47,1.1,5.92-.47,8.99-.98,1.11-4.89.87-6.97.32l-.84,10.17c6.95.86,12.17.88,18.44-.18l.72-9.67c3.79-.47,6.71-.58,10.52.22-.01,3.53-.83,7.68,1.33,10.96,1.2,1.81,5.41.96,6.98.27.03-1.36.34-1.29.89.07-.42,2.49,1.08,7.23-1.23,9.74-2.02,2.2-6.75,1.26-9.41.86-.08,4.27.44,7.28-.68,11.06l-8.51.35-.88,9.62c-6.42-2.15-4.39-11.92-7.75-9.83-.86.54-1.7,1.4-1.75,3l-.52,16.49c-3.07.56-5.81.53-8.55-.28,0-7.03.86-13.44-1.99-19.01-1.37-1.31-1.52-2.99-.43-5.04l-.73-14.08c-3.72.41-5.74-.67-6.07-3.23v-1.48s8.7-.16,8.7-.16l.18-19.25,9.03.08Z"/>
  <path class="st7" d="M109.19,52.77c-.26,2.03,1.66,5.96-.28,8.04-1.73,1.86-5.56,1.93-9.03,1l-.31,11.77c-3.24.92-6.1.57-8.93.21-.23-.03-.68-.14-.89-.07l.92-31.12c3.45-.66,5.89-.63,9.08.31-.36,2.61-.89,8.01,2.03,9.18,1.97.58,5.54-1.03,7.42.69Z"/>
  <path class="st15" d="M41.79,116.33c5.5,1.74,2.79,14.4-1.71,10.01-2.58-.13-4.87-.49-6.87-1.09-.09-3,.75-6.57-1.34-9l.13-19.11,9.72-.07.07,19.26Z"/>
  <path class="st20" d="M41.61,135.61c-2.26-.48-3.36-2.5-3.29-6.04-2.67.23-4.36-.69-5.06-2.76l-.05-1.56,8.09.35c.49-3.11.5-6.35.49-9.27,2.91-.67,5.87-1.17,9.2.06-.22,5.95-1.7,10.69.53,16.59,1.15-2.48,3.41-4.9,5.01-4.12,2.16,1.05,3.45,4.85,2.6,6.35-2.77,4.88-11.23-4.15-17.52.4Z"/>
  <path class="st12" d="M49.36,95.79c-2.22.18-4.3.35-7.22-.33v-22.02c2.8.27,5.44.02,8.8-.89l.94,17.34c.15,2.68-1.06,4.75-2.52,5.9Z"/>
  <path class="st1" d="M41.61,135.61l.22,9.48c-2.05-.21-5.81,3.42-8.13.88l-.44-19.16c1.52-.08,5.3-1.04,6.83.35,2.35,2.21,1.48,6.17,1.53,8.45Z"/>
  <polygon class="st6" points="157.69 61.56 148.64 62.02 148.81 14.21 157.72 14.37 157.69 61.56"/>
  <path class="st23" d="M138.79,63.02l1.03-.09.1,19.46c-2.18-2.51-1.56-6.3-1.54-10.14-2.89,1.12-6.94,1.3-8.11-.42-1.23-1.8-1.16-6.26-.34-8.71l8.85-.1Z"/>
  <path class="st16" d="M70.45,33.53c.16,2.46.73,5.6-.68,8.36-.74,1.02-3.03.81-3.88.68-3.75-1.5-5.74-4.32-4.17-9.07l8.74.03Z"/>
  <path class="st23" d="M128.39,105.94c-2.48-.27-6.07-.62-7.69,1.64-4,1.96-5,.08-1.52-2.74-.19-3.07-.92-6.85,1.49-9.17l.24,8.99c2.87-.42,6.21-.49,7.48,1.29Z"/>
  <polygon class="st19" points="110.24 146.05 91.16 146.02 91.11 136.84 110.16 137.16 110.24 146.05"/>
  <polygon class="st13" points="110.51 135.72 110.32 126.86 120.51 126.87 120.5 135.6 110.51 135.72"/>
  <path class="st26" d="M110.03,104.64c-.5-4.45,6.49-4.11,7.23.03l1.91.17c.08,1.24.27,2.23,1.52,2.74-2.92,4.06-5.39-.64-11.44,6.37-2.07,2.4-6.98.94-9.33.99-4.42.71-4.38-8.8-.07-9.53l10.17-.76Z"/>
  <path class="st4" d="M138.34,61.18l-6.66.7c-2.86-7.28-4.34-13.01-.22-20.32.87,2.85,4.92,4.12,6.29,5.57,1.75,4.11.57,8.44.6,14.05Z"/>
  <path class="st23" d="M99.86,105.4l.07,9.53c-2.44.05-5.91,1.05-8.63-.71-2.3-1.49-1.8-6.85.39-8.29,2.27-1.49,5.53-.34,8.16-.53Z"/>
  <path class="st23" d="M117.27,104.67l-7.23-.03c-.66-1.78-.9-7.28,1.24-7.49,2.74-.27,4.93,1.93,5.81,3.02.79.97.68,3.37.19,4.49Z"/>
</svg>