<?xml version="1.0" encoding="UTF-8"?>
<svg id="_레이어_1" data-name="레이어_1" xmlns="http://www.w3.org/2000/svg" version="1.1" viewBox="0 0 177.48 177.48">
  <!-- Generator: Adobe Illustrator 30.3.0, SVG Export Plug-In . SVG Version: 2.1.3 Build 182)  -->
  <defs>
    <style>
      .st0 {
        fill: #663613;
      }

      .st1 {
        fill: #592c0d;
      }

      .st2 {
        fill: #b3640d;
      }

      .st3 {
        fill: #d3a275;
      }

      .st4 {
        fill: #5f2b0c;
      }

      .st5 {
        fill: #592d0d;
      }

      .st6 {
        fill: #4d2108;
      }

      .st7 {
        fill: #65310b;
      }

      .st8 {
        fill: #fdfbdf;
      }

      .st9 {
        fill: #f9cd12;
      }

      .st10 {
        fill: #fcec75;
      }

      .st11 {
        fill: #fcfbde;
      }

      .st12 {
        fill: #fac023;
      }

      .st13 {
        fill: #b76710;
      }

      .st14 {
        fill: #b75f14;
      }

      .st15 {
        fill: #d8ab82;
      }

      .st16 {
        fill: #edcaa5;
      }

      .st17 {
        fill: #fded5e;
      }

      .st18 {
        fill: #f9ca0c;
      }

      .st19 {
        fill: #5b3010;
      }

      .st20 {
        fill: #cd9d71;
      }

      .st21 {
        fill: #fdf9cc;
      }

      .st22 {
        fill: #fbf9d3;
      }

      .st23 {
        fill: #6d330f;
      }

      .st24 {
        fill: #b3650c;
      }

      .st25 {
        fill: #b2630f;
      }

      .st26 {
        fill: #ae6416;
      }

      .st27 {
        fill: #f1ab03;
      }

      .st28 {
        fill: #f8d928;
      }

      .st29 {
        fill: #ad5804;
      }

      .st30 {
        fill: #b68256;
      }

      .st31 {
        fill: #f4c41e;
      }

      .st32 {
        fill: #e9c298;
      }

      .st33 {
        fill: #986236;
      }

      .st34 {
        fill: #b56412;
      }

      .st35 {
        fill: #aa5706;
      }

      .st36 {
        fill: #f8b823;
      }

      .st37 {
        fill: #6e380e;
      }

      .st38 {
        fill: #532807;
      }
    </style>
  </defs>
  <path class="st33" d="M84.68,80.82c.55-4.17,8.08-4.26,8.3.15,2.04.51,2.97,2.31,2.78,5.41,10.44-.86,13.22,14.29,1.06,13.07l-9.56.11-1-1.27c-.29,5.19-1.87,8.45-4.74,9.77l-.94,9.46-9.61-.54-.44,8.38-7.6.34-2.06,2.57c-6.38-2-5.98,4.85.25,3.07l1.89,2.62c-1.84,2.05-4.97,1.55-8.7.47l-.8,10.57-8.38.03c-3.29-2.15-3.78-6.31-1.47-12.49.08-3.42-1.16-4.76-3.71-4.01l-1.67-2.77c-.16,1.21-.48,1.11-.95-.13.19-2.97-.73-5.78.92-9.15,2.16,1.27,7.22.46,7.11-1.19-.22-3.29-.95-5.89,1.07-7.49,2.28-.07,3.35,1.75,3.21,5.48.48-2.71,1.75-4.44,3.82-5.18.18-3.01,1.05-5.6,1.24-9.22,2.46.5,6.41.89,7.65-.61,1.53-1.85.53-5.21.6-6.78,2.46-2.04,4.02-.52,4.67,4.56.31-5.21,1.96-7.17,4.93-5.88l2.69,1.17c-.84,3.46-.03,2.83,2.44-1.87,4.54-1.24,5.44-4.1,2.72-8.58.05-3.92,3.25-3.78,4.27-.05Z"/>
  <path class="st25" d="M154.39,72.41c-2.65-.51-3.63-2.86-2.94-7.04-6.9.38-8.51-2.09-8.48-8.62-3.2.48-6.32-1.08-8.09-3.64-.74-1.07-.55-21.61.04-23.97l2.83-1.71c-2.66-.98-3.37-3.68-2.12-8.1-4.63,1.03-9.17,1.94-13.62,2.74l-1.82-2.74c-.25,1.19-.54,1.09-.88-.17.23-2.52-.15-5.26.8-7.89l25.43.27-.43,27.63c-2.56-.18-4.86.32-5.71,1.19-.69.7-.36,3.82.91,3.92,2.15.19,5.37.42,5.46,1.83l.4,5.97c.12,1.76,4.9,1.8,7.39.89l1.28,8.44c1.22,1.54,5.25.91,7.12.57,1.04,3.74.8,6.59.47,10.34l-8.06.07Z"/>
  <path class="st2" d="M119.31,19.16l.88.17c6.32,4.04.12,10.3-7.36,8.63-3.53,1.88-8.44,4.22-10.31-.61-1.96.26-3.19-1.51-3.67-5.29-4.78.49-8-1.98-9.65-7.41-3.44-.81-4.89.12-4.34,2.82l-2.8,1.54c.63,2.59.81,5.36.53,8.33,1.09.02,2.01.14,2.36.66.48.72,4.16,16.58-.07,15.8-.82,5.48-9.53,4.48-8.52-1.17-1.09-10.11-1.81-20.31-.84-30.95,2.35.12,5.32.13,5.58-.73l1.57-5.07c2.3-2.01,7.13-1.39,9.76-.42.4,2.5.57,4.15,1.56,6.01l12.01.13.81,7.69,12.49-.13Z"/>
  <path class="st30" d="M45.13,145.02c-.6,2.63-2.99,3.55-7.17,2.74.56,3.26-.27,5.46-2.48,6.6-1.08,2.24-3.28,3.14-6.6,2.68l-.03,4.33c3.83-.82,6.05.1,6.64,2.75-1.77,1.78-4.71,1.54-8.08,1.21l-.78,9.3-22.15-.03c-.53-6.88-1.08-13.13.11-19.92.32-1.85,5.67-1.83,7.89-1.07-.28-4.1-.83-6.81,1.15-9.01,2.53.28,3.43,2.58,2.7,6.89l1.15-.09c-.15-4.05,1.29-5.71,4.32-4.97,1.02,1.07,2.72.65,5.08-1.25-3.53-5.14,2.22-12.92,8.04-13.16-.35-4.02.77-6.11,3.36-6.28l7.95.15c-.9,2.5-.59,6.52.92,6.7l6.37.75c-2.23,2.11-5.48.22-8.1,1.82l-.31,9.86Z"/>
  <path class="st36" d="M128.01,163.49c-.13,1.68-6.53,1.9-7.45.45-1.61-2.53-.94-6.17-.71-9.32l-9.14-.18-.73-8.76c3.07-.78,5.78-.58,9.45-.33l1.02-9.76c.17-1.59,7.49-1.38,7.61.2l.68,9.01c2.45,1.73,6.32.42,8.51.96,1.95,1.91,1.45,6.05.69,8.55l-9.26.23-.67,8.95Z"/>
  <path class="st12" d="M164.96,126.36c-1.98,1.37-1.12,6.44-.94,8.28l-8.32.18c-.19-3.13.63-6.18-.83-9.67-2.42.53-6.24.92-7.18-.32-1-1.32-.93-5.23-.17-6.6.81-1.46,4.47-1.78,6.99-.88,1.84-2.96,1.03-5.86,1.1-9.17l8.23-.06.33,8.51,8.8.23c.56,3.23.59,5.3.1,8.87-1.94-.07-5.46-1.2-8.11.63Z"/>
  <path class="st9" d="M119.03,80.57c3.19.71,3.96,3.72,2.31,9.02l-4.48,17.02-3.02,1.17c-.57,3.92-3.41,3.87-4.55.14-2.27-.43-3.2-2.78-2.79-7.05-1.66.6-3.33.56-5-.1-1.58-.81-3.06-1.38-4.68-1.31,2.77.28,4.84-1.14,5-3,.23-2.67.26-5.17-.71-6.52-1.33-1.84-5.28-.29-6.54-1-2.53-1.53-1.83-5.99-1.59-7.95-2.61-.44-2.47-1.48.22-1.76,2.42-2.07,5.59-2.38,9.51-.94,3.4,9.73,5.21,10.68,5.43,2.84,2.71-4.4,9.29-5.77,10.89-.53Z"/>
  <path class="st24" d="M128.48,80.44c.56-1.1.96-.97,1.21.3l-.02,7.89c-5.22.83-3.75,5.95-5.13,8.35-2.08,3.63-4.61,5.59-3.23,10.47l-6.37.41c-.33,1.18-.7,1.12-1.1-.09l1.46-7.4c.27-1.46,5.03-12.04,3.73-19.8-.03-4.14,8.69-4.07,9.44-.13Z"/>
  <path class="st35" d="M154.39,72.41l-.71,8.8-23.99-.47-1.21-.3c-5.97-1.72-3.11-5.21-.32-8.51.34-.41.28-1.15.11-2l24.21-.27,1.91,2.74Z"/>
  <path class="st29" d="M84.23,72.26c4.12-.14,4.31,7.6.45,8.55l-4.27.05c-.63,3.93-3.58,3.85-4.76.12.82,4.05-4.89,4.23-5.93.59l-6.84-.95c-.8-3.14-.04-5.67-.06-8.14.54-3.95,14.26-3.62,17.64-2.93,2.05-.39,3.1.59,3.75,2.69Z"/>
  <path class="st13" d="M75.34,44.11c4.13-.55,4.43,8.25.55,9.2-.93,2.2-1.84,2.96-3.97,2.53.73,5.94-1.4,9.18-6.39,9.7.78,3.77-.12,6.08-2.69,6.95l-1.43.04c-3.55-.66-3.89-8.18-.97-9.81,2.35-1.53,2.85-4.6,1.69-8.33l6.46-2.14-.07-8.16,6.82.02Z"/>
  <path class="st0" d="M37.34,125.62l.95.13c-.73,2.35.29,6.65-1.78,9.06-1.3.32-6.03-.18-6.57,1.74-.91,3.26-1.35,6.48-3.06,8.64-.76,4.01-4.45,3.24-4.99-.64-1.11-.19-1.05-.53.06-.99l.07-8.14,7.09-.9.32-9.1,7.91.19Z"/>
  <path class="st4" d="M75.66,80.99c6.17,1.19,2.43,13.58-3.1,9.15-2.21.63-1.72,4.43-1.41,7.26.17,1.55-5.64,1.96-6.37.2-.67-1.62.21-5.02-1.82-6.13.11-2.3,3.62-1.88,5.17-2.42,2.85-1,1.85-5.55,1.61-7.47l5.93-.59Z"/>
  <path class="st19" d="M87.26,99.55c.3,2.52.95,5.36.26,8.27l-5.99.24c.38-3.84,1.03-6.8,3.37-10.55,1.89-3.05,2.27-6.67,7.86-8.35.61,2.91,1.17,6.14,1.06,9.62-2.87-.95-6.22-.43-6.55.78Z"/>
  <path class="st37" d="M35.48,154.36v9.76c-3-.16-5.89-.17-9.39.54l.07-10.14c3.44-.94,6.37-.06,9.32-.16Z"/>
  <path class="st5" d="M45.13,145.02c-.09,2.83.6,5.8-.51,9.02l-9.13.32c-.05-2.88-.89-5.77-.04-9.33h9.68Z"/>
  <path class="st31" d="M84.87,43.79c3.41-1.43,3.07,7.91,2.53,8.76-2.59,4.08-9.37,5.51-11.52.75l-.55-9.2c.26-.49.55-1.02,1.02-1.49,2.07,2.34,5.63,2.16,8.52,1.17Z"/>
  <path class="st26" d="M109.29,107.91l-7.61.06-.17-7.22c.82-2.55,6.75-3.66,7.52-1.26,1.04,3.21.21,6.21.26,8.42Z"/>
  <path class="st38" d="M62.93,125.69c.35,2.8.5,5.6.08,8.26-2.19.03-5.42.84-7.8-.61-1.68-1.02-1.94-5.95-.38-7.12,2.67-2,5.93-.43,8.09-.52Z"/>
  <path class="st23" d="M21.89,144.55c2.63.21,2.54,1.23-.1,1.89-1.85,1.27-1.11,4.36-1.73,6.55-.95,1.45-4.38,1.42-6.62.96l.19-9.35c2.85.01,5.72.14,8.32-1.05l-.06.99Z"/>
  <path class="st34" d="M60.44,62.73c1.37,3.05,1.19,6.51.97,9.81l-6.72-.34c-.36-2.89-.82-6.24.52-9.14.64-1.38,4.28-.9,5.23-.33Z"/>
  <path class="st1" d="M53.47,108.09l-.47,7.88-6.28.08-.27-8.25c2.28-.33,4.61-.12,7.03.3Z"/>
  <path class="st14" d="M113.84,107.77l1.1.09-.02,8.19c-2.21.52-3.52.61-5.43.18l-.2-8.32,4.55-.14Z"/>
  <path class="st16" d="M80.42,80.87c3.07.51,3.96,2.26,4.36,4.45.84,4.52-3.5,4.05-5.44,6.33-2.18,2.57-1.46,7.89-7.1,6.71l.32-8.21c3.93-1.12,3.78-5.5,3.1-9.15l4.76-.12Z"/>
  <path class="st20" d="M63.48,115.34c-1.65,1.83-6.09,1.4-8.65,2.02l-.07-9.18c3.23-.67,6.12-.85,9.22,0,.67,1.76,1.36,5.09-.5,7.16Z"/>
  <path class="st27" d="M93.2,79.21l-.22,1.76c-2.83-.58-5.56-.19-8.3-.15l-.45-8.55c2.6-8.95,18.45,2.24,8.97,6.94Z"/>
  <path class="st15" d="M71.62,100.29c1.41.69,1.34,4.31.69,5.55-.7,1.32-3.59,1.67-6.26,1.82-2.95.16-2.71-3.98-2.23-5.99.63-2.65,4.34-3.08,7.8-1.37Z"/>
  <path class="st3" d="M53.64,118.11c.93,2.47.41,5.76-.56,6.9-1.03,1.22-4.69,1.32-5.99.54-1.51-.91-1.87-4.57-.78-7.01.8-1.79,6.63-2.28,7.32-.44Z"/>
  <path class="st6" d="M79.51,109.08c.13,1.99.26,5.59-.68,6.72s-5.83.98-6.2-.5c-.44-1.76-.24-5.07.29-6.51.73-2,6.47-1.53,6.59.3Z"/>
  <path class="st18" d="M135.63,19.33l.26,1.89c-6.93,2.99-7.2,4.33-.81,4.03l2.67,2.18-.71,13.67.61,12.73,7.81.21.78,8.51c3.16-.2,5.3-.36,7.86.24l.28,9.62-25.84-.06c-.92,3.21-.48,5.65-.07,8.09l-9.44.13c-6.61-3.05-2.38-12.36,5.32-11.4,0-5.26,1.95-8.47,5.85-9.64,6.51-.54,5.23-1.78-3.84-3.72-1.66-5.36-3.88-17.38.91-20.52-1.81-.66-2.79-2.25-2.93-4.76-2.69.61-4.45-.05-5.28-1.96.07,2.27-1.84,3.22-5.73,2.83-2.55,6.73-9.86,10.01-13.34,2.21-1.09-2.45-.57-5.96,2.52-6.27l16.59-.21,1.08-7.81h15.44Z"/>
  <path class="st17" d="M137.75,27.43c-2.82.85-5.73.99-9.78-.25-.07-1.64-.36-5.11.43-6.3,2.38-.52,5.67-.69,7.23-1.54,3.37.65,2.24,5.66,2.12,8.1Z"/>
  <path class="st17" d="M88.56,19.22c2.45-4.39,6.1,1.77,6.61,5.67,3.94-.93,6.39-.11,7.35,2.46.06,1.89-.52,4.07.42,6.69.51,1.42,4.05,1.52,5.16.79s1.57-3.26,2.6-4.62c2.24-2.94,6.09-1.22,8.36-1.63,2.13.25,3.15.92,2.84,2.94,3.72-.4,5.51.86,5.37,3.78l.52,18.79,8.71.75c.42,2.97.53,4.87.1,8.01-2.33-.65-6.28-1.38-7.84.27-1.89,1.99-1.07,5.94-.91,8.39l-8.75,1.06c-.33,3.06-.45,5.67-.06,8-2.26-.03-7.41-1.66-8.41,1.39l-.3,14.42c-4.39,2.03.18-6.79-2.92-7.31l-4.4-.74-1.4-8.15c-3.61.42-6.28.41-8.4-.98.18-1.46.63-4.73-.79-6.09-2.36-2.26-6.03-.87-8.18-.85l-21.39.23-.06-9.92c2.69-.21,4.53.04,6.8-1.22-.93-2.52-1.09-6.45.78-7.78,1.17-.84,3.98-.25,5.53-.27l8.77-.1.21-9.41c.13-5.65-3.43-9.24-2.81-24.78.35-1.2.8-1.2,1.35-.04,2.12,1.43,3.84,1.51,5.15.25Z"/>
  <path class="st28" d="M102.52,27.35l-8.33.32c-3.72.13-.04-8.18-5.63-8.45.08,4.03-4.41,3.6-5.15-.25l-1.35.04.27-6.77c3.52-.66,6.73-.58,10.3.22l.58,6.54,9.08.52.24,7.83Z"/>
  <path class="st7" d="M25.6,165.1c.61,3.27.53,5.5.13,8.57H5.43s.04-19.08.04-19.08l7.29-.5.19,11.46,12.64-.45Z"/>
  <path class="st32" d="M26.88,145.19c-.74,1.08-.61,3.64-.45,4.95.23,1.86-1.97,4.76-4.37,2.61-.9-1.23-.34-4.81-.26-6.3l.1-1.89,4.99.64Z"/>
  <path class="st10" d="M137.55,63.57c.75-1.42,5.31-1.26,6.56-.46,1.5.96,1.28,5.22.52,7.19-.54,1.39-4.13,1.12-6.01.84-1.78-.26-2.9-4.14-1.07-7.57Z"/>
  <path class="st21" d="M127.27,35.29c-2.31-1.5-5-1.01-7.96.46l-.25-7.19c2.13-.39,5.01-1.52,6.6-.44,2.67,1.82,1.55,5.1,1.61,7.16Z"/>
  <path class="st8" d="M84.35,62l-8.76.99-.29-8.44c3.43.35,5.93.32,9.35-.21l-.3,7.66Z"/>
  <path class="st11" d="M93.33,47.15c.08,2.9.52,6.49-2.32,6.76-1.94.18-4.91.03-4.77-3.35.09-2.16-.54-4.68,1.75-5.73,1.77-.82,5.2-2.81,5.34,2.32Z"/>
  <polygon class="st22" points="88.56 19.22 88.74 27.11 83 27.78 83.41 18.97 88.56 19.22"/>
</svg>