<?xml version="1.0" encoding="UTF-8"?>
<svg id="_레이어_1" data-name="레이어_1" xmlns="http://www.w3.org/2000/svg" version="1.1" viewBox="0 0 177.48 177.48">
  <!-- Generator: Adobe Illustrator 30.3.0, SVG Export Plug-In . SVG Version: 2.1.3 Build 182)  -->
  <defs>
    <style>
      .st0 {
        fill: #a27a59;
      }

      .st1 {
        fill: #da7308;
      }

      .st2 {
        fill: #0d6f09;
      }

      .st3 {
        fill: #a07a5b;
      }

      .st4 {
        fill: #fcf9f7;
      }

      .st5 {
        fill: #d56f08;
      }

      .st6 {
        fill: #0d6607;
      }

      .st7 {
        fill: #9e765a;
      }

      .st8 {
        fill: #a07859;
      }

      .st9 {
        fill: #066a06;
      }

      .st10 {
        fill: #fccc19;
      }

      .st11 {
        fill: #996e4e;
      }

      .st12 {
        fill: #fcfaf8;
      }

      .st13 {
        fill: #fbf8f5;
      }

      .st14 {
        fill: #5ac32b;
      }

      .st15 {
        fill: #ce6008;
      }

      .st16 {
        fill: #50c21a;
      }

      .st17 {
        fill: #076905;
      }

      .st18 {
        fill: #5dcc2b;
      }

      .st19 {
        fill: #f5efe8;
      }

      .st20 {
        fill: #a57e5f;
      }

      .st21 {
        fill: #fbf6d3;
      }

      .st22 {
        fill: #fcf9f5;
      }
    </style>
  </defs>
  <path class="st3" d="M62.89,108.52c.23-3.62.84-6.87,1.81-9.76,4.46-1.92,7.83-1.74,10.14.53-2.2.78-1.98,13.95-1.5,14.55.4.5,1.15.73,1.99.88.38,1.47,1.52,2.97,3.42,4.5l11.82-.08c2.84-.85,4.9-.43,6.18,1.26-.64-1.99.27-3.23,2.75-3.71.48-1.83,1.34-2.96,2.57-3.41l.07-12.76c-5.34-5.31,5.47-12.48,6.59-2.65,3.99.02,6.1,2.72,6.33,8.09,5.2-.89,8.69-.05,10.48,2.52,2.79-.91,5.71-1.02,8.75-.31-1.42,2.29-1.19,5.08-.38,7.51-.02.53-.36,1.93-1.42,1.91l-20.17-.41-.72-2.73c-.19-.73-1.48-.96-2.14-.78-2.1.56.08,5.01-1.7,6.13-.68.43-2.71-.19-3.77-.18-1.89,1.99-1.53,6.25-.74,9.69-2.12,1.62-4.53,1.46-6.53,1.52.34,3.53-3.66,3.46-4.58.14-.36,3.54-5.62,3.42-6.31.06l-1.5,2.22-.22,13.06c-1.08.61-2.06.34-2.97-.62-.02-4.69-.61-9.24.98-14.87l-9.22-.56c.24-3.29.97-6.99-.53-9.31-1.26-.17-4.18.21-5.12-.41-2.22-1.45-.11-5.44-1.72-6.77-.54-.44-1.08-.15-1.09.24l-.12,3.29-21.45-.04c0-3.02.79-6.62-.73-8.43-1.4-1.67-5.39-.91-7.53-.7l.21-13.49c2.28-1.09,3.61-2.42,3.38-4.9-.15-1.62.51-4.23-2.88-3.94-1.5.13-3.7.37-4.95-.82-.71-.68.18-2.32.18-3.13.26-.93.64-2.32,1.37-2.4,3.02-.34,19.49-.27,20.96.82,3.51,2.6,1.56,9.19-3.58,8.81l-.25,4.79c-6.78,5.11-5.54,11.11,3.39,12.73,4.51-.71,7.99-.08,10.44,1.91Z"/>
  <path class="st20" d="M141.8,26.6c-.08,1.77-1.94,2.84-5.58,3.19l.05,16.81c-1.28,2.08-1.66,2.53-3.6.41l-2.39-1.39.12-16.9c-.54-.58-15.11-.45-15.83-.11-.91.43-6.94,6.01-4.86,8.27-.59.92-1.48,1.34-2.62,1.37-2.12,1.04-3.86,3.72-1.64,5.79-1.83.94-3.38.16-4.82-1.28l-.62-22.25c-.32-.97-3.52-5.36-4.18-5.69-.81-.41-17.61-.53-18.16.19-4.01,5.22-2.9,20.27.12,26.21-.05,1.38-.7,2.35-2,2.84-4.09,1.55-11.87-2.78-7.91-6.83l-2.56-.72c2.72-10.47-19.6-8.51-20.39-7.08l.15,14.85-2.39,1.73c-1.55,2.5-3.04,1.55-3.68-1.23l-.25-15.41c-2.93.28-4.63-.64-5.09-2.76,2.05-1.64,4.83-1.34,8.26-.2l.6-9.28,20.22.41,2.35,2.23c2.26,2.15,2.55-5.85,3.62-6.07l4.5-.94.64-8.84,28.69.02.42,6.78,4.33,6.76,26.3-.41c-.14,3.28-.36,5.48.35,8.69,3.07-.54,5.77-.77,7.85.83Z"/>
  <path class="st17" d="M96.7,130.83l.3,13.97c.04,1.67,5.25,1.17,6-.49,1.08-.25,1.28.12.65,1.06,2.56.46,3.04,2.9,1.46,7.34,4.35.89,7.52.48,9.52-1.23.96-4.46,2.88-7.2,5.76-8.23,6.61-2.55,6.36,7.5,5.51,12.18l-7.64.05-.53,8.83h-21.24c.29,3.97.46,6.56-.3,9.7l-14.13-.22-.3-9.5-23.21-.2-.17-7.64c-.03-1.59-2.69-1.34-3.63-1.14-3.28.76-3.96-7.4-3.37-9.11,2.89-8.47,10.33-.38,10.57,6.61l12.63.47c-1.63-3.88-1.15-6.39,1.45-7.53l5.08-.06c.5,0,1.21-.21,1.24-1.16l.41-13.02c.04-1.18,2.35-.47,3.04-.48l2.43,1.02,1.1,32.34c.83-10.49.96-21.05.4-31.68l2.38-1.74,4.58-.14Z"/>
  <path class="st8" d="M42.7,46c-.13-3.55,3.87-3.23,4.6.14,2,1.66,3.11,2.18,6.5,2.45,5.98,7.4-9.6,10.58-12.42,5.62-1.41,1.86-2.62,3.96-3.62,6.31-1.38,1.03-2.94,1.64-4.71,1.84l-.1,17.8-2.41,1.71-9.44.09.02-22.84,8.4-.22,1.22-7.85c1.37-.29,4.29.16,5.52-.59,1.05-.65.99-2.86.29-3.41-.6-.47-1.47-.94-3.04-1.52l.17-18.92,7.47.32.16,16.73c.01,1.36.46,2.33,1.4,2.35Z"/>
  <path class="st0" d="M141.8,26.6l.04,18.62c-1.85.73-3.92,1.72-3.06,4.95l7.87.14.45,8.6,8.07.14.13,23.21c-2.53-.45-5.41-.57-6.88-.08-1.15.38-1.56,2.07-2.29,3.52-3.46-.55-3.41-3.15-.13-4.21-.45-.88-.16-1.07.8-.64.3-1.95,2.05-2.92,5.26-2.92,1.02-5.57-.14-7.92-3.47-7.05-.5-3.51-1.02-7.03-1.56-10.55-1.25,4.37-10.46.85-9.96-4.09-5.13.54-9.42-.32-12.87-2.58l1.3-2.61c-7.07-3.93,5.27-10.97,7.2-4.04.63.18,1.36-.03,1.35-.97l-.24-19.49,8.03.05Z"/>
  <path class="st18" d="M76.04,145.75l.27,5.24c.06,1.15,3.33.8,4.71.75,1.67-.06,1.71,2.26,1.24,2.92-.75,1.06-1.88,1.24-3.53,1.18l-18.9-.71c-1.23-3.63-1.13-7.54-3.07-9.85-2.23-.19-4.69.17-5.2.98.29-.46-.19,7.76,3.21,9.04-.92.2-2.13.03-3.65-.25l.11-9.4c-4.25-2.13-2.61-8.09,1.75-10.02l11.85-.23c-.47-2.13-.53-3.48,1.91-4.34,1.4.71,1.53,3.8,1.12,6.14,2.93.13,5.14-.41,7.53.69-.62,3.43.55,5.75.66,7.85Z"/>
  <path class="st14" d="M126.32,145.91c-.01,3.08,1.48,6.9-.41,9.52l-.38-9.61-6.39-.21c-.77,3.48-1.86,6.86-4.18,9.81l-19.23-.59c.89-3.94,4.13-3.89,7.37-2.65l.56-6.81c.03-1.96,1.35-2.78,3.95-2.43l.3-1.68c-2.51-.22-3.92-1.19-4.22-2.93.79-1.8,4.63-.64,6.31-1.03.22-1.54-.72-6.29,1-6.37,2.05-.02,2.89,1.45,2.52,4.41l12.49.71c3.43,2.2,4.35,8.31.31,9.86Z"/>
  <path class="st11" d="M145.97,81.49l.13,4.21c-2.19-.01-4.6-.6-7.21.3-1.31.46-.9,3.36-.77,4.44.15,1.3,2.47,2.1,3.57,2.95l.63,14.12c-2.46.62-4.97.67-7.53.16-.72,1.69-1.23,1.49-1.56-.44l-2.42-1.28-.32-13.94c-5.34,1.52-10.27-3.8-4.34-5.53-2.31.27-3.41-2.72-2.49-4.5,2.03-3.9,15.84-3.34,20.62-2.89l1.68,2.39Z"/>
  <polygon class="st17" points="66.74 131.07 67.54 137.85 51.69 138.07 51.23 145.66 43.01 145.67 43.23 130.89 66.74 131.07"/>
  <path class="st2" d="M126.32,145.91l.03-7.5-15.35-.8v-6.69s22.37-.05,22.37-.05l.09,14.28c-2.67.86-4.95.75-7.14.77Z"/>
  <path class="st9" d="M103.66,145.37l-.65-1.06c.16-1.85-.14-4.13.68-5.99l5.86.12c1.24,1.48.78,5.02-.1,6.06-1.04,1.21-4.07.97-5.78.87Z"/>
  <path class="st19" d="M133.24,107.24l9.09.28c-1.28,1.48-4.52,1.24-7.63.53-1.28,2.46-.74,5.58-.8,7.65-1.27-1.31-1.45-3.66-.86-6.63-2.54-1.18-5.12-.55-7.51-.57-1.2-4.68,6.71-5.39,7.71-1.25Z"/>
  <path class="st4" d="M41.38,54.21c1.36.34,2.39,1.14,3.12,2.4,5.48-1.21,14.15-1.19,17.46,3.41l2.39,1.4-.2,16.94c2.63-.46,4.2.36,4.71,2.46,1.6,2.03,3.45,3,5.56,2.91,2.15.31,2.44,2.55.84,6.73v3.66c-4.35,3.64-8.97,5.15-13.83,4.52,1.74,3.8,2.23,7.09,1.46,9.87-3.93.06-8.61,1.52-12.78-.07l-7.07-2.68c-.15-3.46-.65-8.1.15-11.03l3.24-1.03c1.27-.4-.66-5.84,1.73-6.74.99-.37,2.01-.66,4.03-.54l-.21-4.51-21.44-.05.12-22.46c1.89.58,5.61.54,5.89-1.38.26-1.8.2-4.15,1.78-4.04l3.05.22Z"/>
  <path class="st22" d="M108.67,81.08l5.46.07c1.07-4.41,7.19-1.71,8.15,2.33,2.22.18,3.67.33,3.88,3.01-.52.63-.46,3.32.64,3.48,1.44-.14,4.9-.85,6.23.25l.21,17.02c-2.57.01-5.75-.73-7.71,1.25l-13.25-.15-.48-7.78c-2.58-.27-4.94-.21-6.9-1.31.55-2.65,1.89-3.55.74-4-1.38-.54-2.81.09-2.82,1.04l-.26,21.74-5.82,2.37c-6.45-1.19-6.6-12.5,2.01-10.37,2.88-8.54-.33-10.47-9.61-5.77l-13-1.46.11,9.14c4.66.22,7.72,6.04,2.49,7.27-.97.12-5.53.21-5.57-1.22l-.43-18.56c-2.49.36-5.11.35-7.39,1.28.57,2.47.47,3.86.29,5.83-.1,1.04-.98,1.94-2.76,1.97-2.7-4.21-4.29-8.27-4.04-13.87,5.24,3.32,8.57,2.53,12.23-.75,1.32-1.18,3.64-1.57,4.19-3.42,7.88,1.36,15.95,1.88,24.2,1.56-.39-4.32,1.23-7.3,4.87-8.96,2-4.52,3.45-5.18,4.34-1.99Z"/>
  <path class="st4" d="M96.74,120.4c-4.23,1.72-9.33,1.04-14.46.99l-2.78-.03c-.72,0-1.01-1.29-.75-2.15.29-.97.51-3.25-.18-3.98-.76-.8-3.03-1.08-4.99-.99l.21-14.18,14.58,1.77c4.14.5,8.13-5.24,13.37-1.16l-.23,12.65c-2.43-.93-4.49-1.34-7.21-1.07,0,3.41,1.85,5.48,2.45,8.15Z"/>
  <path class="st16" d="M92.12,130.97l.42,28.04c.05,4.25-.68,9.03-5.65,9.87l-1.08-37.85,6.31-.06Z"/>
  <path class="st13" d="M107.09,38.25c.63,2.57,2.32,4.43,5.06,5.57,3.17,3.84.37,12.85-4.56,9.71-.56-.09-.98-.72-1.27-1.88.17,3.51-3.81,3.55-4.74.23-2.02.1-3.01-1.53-2.97-4.88-6.84-.37-13.4-.13-19.68.72-.31,3.71-3.79,7.06-7.73,6.41,1.46,5.57-6.5,12.59-9.24,5.9-4.23.11-8.57-1.37-12.44-2.67-1.55.49-4.16,2.17-5.79,1.37-1.84-.9-2.76-2.24-2.35-4.51,3.38.24,7.65.48,10.97-.77,1.27-1.34.19-3.89-1.52-3.64-1.33.19-2.58-.3-3.13-1.04-.45-.6-.47-1.84-.4-2.61,2.26-1.72,5.4-2.7,9.44-2.94,3.67-2.75,7.38-4.74,11.15-5.98.51,3.34,3.69,4.68,7.99,4.92l-2.55-6.17c-.42-4.92-1.23-10.16-.16-15.13.55-2.54,3.17-4.83,1.66-8.42h23.92c-.39,3.16,2.2,4.91,3.61,6.28l.7,25.06,1.47-4.86c.2-.66,1.84-.69,2.56-.65Z"/>
  <path class="st12" d="M132.67,47.02c-1.92-.41-4.63-.86-6.65.33-.72.91-.51,2.91-.55,3.71-3.91,2.73-7.82,5.98-11.72,9.76l-2.64-1.69c-1.53.64-3.47.87-5.83.71,1.14-1.91,1.91-4.02,2.31-6.31,2.51-.84,5.34-6.57,2.34-8.5-1.32-.85-5.85-1.66-4.94-3.21l2.1-3.57c.87-1.48-1.14-5.88.8-7.14,2.74-.44,4.39-2.96,5.71-4.53l19.22-.31-.15,20.75Z"/>
  <path class="st4" d="M67.89,37.23c1,2.6-2.22,2.43-3.04,3.31-4.62,5.02-11.12,6.96-17.55,5.6l-4.6-.14-.21-19.89,18.25.39c4.96.11,6.57,6.97,7.14,10.72Z"/>
  <path class="st19" d="M125.47,51.06c.51,1.18,1.11,2.56,3.61,2.56l10.28.02c.05,1.7-.07,4.03.9,5.34l6.74,1.35c.81,2.47,1.11,5.19.92,8.17,2.23,2.43,2.55,11.1-1.15,12.35-.16.19-.55.62-.8.64l-20.08.17.27,4.82-5.64-.82c-.51-1.16-.93-3.22-1.82-3.74-2.82-1.63-6.95,1.24-10.03-.85-.02-1.89,1.05-2.82,3.23-2.8l-.75-17.95c-1.06-.31-1.06-.71-.04-1.2,2.12.47,2.69-2.53,3.55-3.41,2.59-.96,4.32-1.7,5.69-4.34.99-.89,4.17-1.02,5.12-.33Z"/>
  <path class="st7" d="M146.77,80.85l.23-20.52c2.44.49,1.63,4.66,1.17,7.53.57,1.47,4.4.99,6.26-.57v13.41s-7.66.15-7.66.15Z"/>
  <path class="st6" d="M73.12,139.18c1.29.98,1.56,5.82,0,6.12-2.07.41-4.52.19-5.2-.63-.72-.87-.53-3.5-.55-4.6-.04-1.93,2.88-3.08,5.75-.9Z"/>
  <path class="st10" d="M101.58,51.87c1.55,1.38,3.13,1.3,4.74-.23.88-.03,1.18,1.13,1.27,1.88.19,1.54-.51,3.81-.78,5.11,2.16.94,3.44.53,4.29.49l.04,1.2-1.89,2.37c.13,4.79-.26,9.45-1.17,13.99.14,2.32-1.03,4.47-3.5,6.45-3.4.79-6.18,2.34-8.35,4.65l-17.18.51c-.95,1.58-2.22,2.3-3.8,2.17.15-1.19.58-4.27-1.42-4.46-1.62-.15-3.84.27-4.61-1.15-.51-.94-.4-2.89-.38-4.04l-2.38-1.38c-.21-2.23,0-17.78.54-18.53,1.22-1.73,5.72-4.84,8.13-3.05l2.39,1.07c.02,1.66-.83.93-2.56-2.19-2.39-1.14,1.51-6.08,2.4-6.76,2.11-1.6,18.72-1.02,22.53-.54l1.66,2.45Z"/>
  <path class="st1" d="M101.58,51.87l-23.29-.66c-.88,2.61-1.92,4.19-3.3,5.51,1.09.09,1.11.47.17,1.12-1.17,1.6-3.14,2.39-5.88,2.81l-.42,20.16h-7.15s.24-20.8.24-20.8c1.83-.05,5.17,1.12,6.95-1.27.56-1.65-1.18-5.38,1.07-7.32,1.83.38,5.17.46,5.95-.58.84-1.13.66-3.94.33-6.32l24.86.06.47,7.28Z"/>
  <path class="st5" d="M111.15,60.33c1.62-.02,2.86,1.27,2.9,3.48l.31,16.85-5.68.42c-.79-.54-1.99.04-1.9.68.59,4.27-4.83,3.83-4.7,6.79.07,1.62.56,4.15-.18,5.94l-26.23-.51c-.39-1.47-.61-2.8-.4-3.5l1.35-4.54,18.79-.27c.76-.11,1.8-2.44,2.04-3.77,2.69.94,8.03-.55,8.72-2.85.14-.66-3-.71-3.28-1.32-.23-.48.08-1.37.58-1.48l2.91-.65.58-15.38,4.2.13Z"/>
  <path class="st4" d="M67.91,50.91c-.04,2.92.76,5.29-.92,8.41.71-3.63-2.97-7.77-3.45-11.02,1.19-3.72,8.3-1.74,10.06,1.92-1.34.72-3.2.61-5.69.68Z"/>
  <path class="st15" d="M106.32,51.65l-.02,6.62c0,1.18-3.75,1.83-4.29.57-1.01-2.33-.3-4.97-.42-6.96l4.74-.23Z"/>
  <path class="st21" d="M75.16,57.85l-.17-1.12c1.9-.18,5.51-.53,6.68,1.26.71,1.08.03,2.83-.53,3.04s-1.81,0-3.08-.16c-.76,0-2.95.68-2.94-.08l.03-2.95Z"/>
</svg>