<?xml version="1.0" encoding="UTF-8"?>
<svg id="_레이어_1" data-name="레이어_1" xmlns="http://www.w3.org/2000/svg" version="1.1" viewBox="0 0 177.48 177.48">
  <!-- Generator: Adobe Illustrator 30.3.0, SVG Export Plug-In . SVG Version: 2.1.3 Build 182)  -->
  <defs>
    <style>
      .st0 {
        fill: #9b510a;
      }

      .st1 {
        fill: #f9f3d5;
      }

      .st2 {
        fill: #a15a10;
      }

      .st3 {
        fill: #984605;
      }

      .st4 {
        fill: #fdfdf7;
      }

      .st5 {
        fill: #fadd18;
      }

      .st6 {
        fill: #fde859;
      }

      .st7 {
        fill: #a35617;
      }

      .st8 {
        fill: #c78e35;
      }

      .st9 {
        fill: #fdeb58;
      }

      .st10 {
        fill: #fcf7bb;
      }

      .st11 {
        fill: #fac805;
      }

      .st12 {
        fill: #ac5806;
      }

      .st13 {
        fill: #f1cf1b;
      }

      .st14 {
        fill: #fdfbdd;
      }

      .st15 {
        fill: #fdfbf0;
      }

      .st16 {
        fill: #9c4e04;
      }

      .st17 {
        fill: #a25c0e;
      }

      .st18 {
        fill: #9c5108;
      }
    </style>
  </defs>
  <path class="st11" d="M118.37,36.88c3.21.34,4.68,3.03,4.42,8.09,3.67-.31,6.68.72,9.05,3.1.94,8.15,1.27,16.45.98,24.9,3.28-.21,5.37.74,6.27,2.85l.2,1.19,3.19,1.84c-.18,12.52-.09,25.02.26,37.47,4.35-.33,7.98.09,10.37,3.95.54.87.74,19.79-.01,20.48-.95.87-5.3,2.73-5.49,1.39-39.43-.63-78.7-.49-117.81.44-.54,3.03-1.71,2.81-2.19-.33-.71.15-1.28-.27-1.31-.99-3.56-.8-1.94-20.25-1.15-21.02s2.79-1.35,4-1.47c1.45-2.69,3.39-2.75,6.02-2.69l.86-37.13,3.24-2.24c-.42-.21-.38-.66-.16-.93,1.87-3.4,8.85-3.35,10.6.13,1.29-.14,3.1.14,3.17,1.05.67,8.3.25,14.14-9.81,13.16l.11,15.93,71.22.07c1.31-14.38,1.56-29.11.73-44.16-6.77.72-9.91-2.94-9.4-10.99-9.87,2.34-15.61-8.89-7.73-13.7.14-1.22.38-2.95,1.32-3.22,3.4-.96,18.22-1.52,19.05,2.81Z"/>
  <path class="st16" d="M149,151.21l-37.43.38-.93,11.83c-2.64,1.44-6.9,1.31-9.34-.04-4.84-.47-4.79-10.13-.19-11.17-8.11-1.3-18.91-1.8-26.38.49.58,9.98.82,14.12-10.45,10.9-.62-3.79,1.02-8.08-1.03-11.97l-34.83-.15c-1.07-3.41-.85-6.33-.8-9.21l2.19.33c40.02-.58,80.14-.93,120.35-1.05-.57,3.12-.95,6.34-1.15,9.67Z"/>
  <path class="st12" d="M118.61,35.62c.66.38.51.81-.24,1.26l-20.37.4c-.33,1.24-.84,3.08-1.82,3.19-6.52.76-19.57.56-26.3.07-5.52,1.1-9.06.05-10.62-3.16-1.35-.58-1.28-1.11.14-1.59.16-1.76-1.63-5.57.61-8.36l11.44-.57.6-11.61c4.27-1.73,5.47-5.22,3.9-10.62l20.73-.1c-.62,3.41-.87,6.22-.23,8.14.59,1.76,4.91,1.99,8.48.61l.81,14.32,13.39-.18c.42,2.92.06,5.59-.53,8.18Z"/>
  <path class="st0" d="M149,151.21c-.18-2.79.29-5.76-1.48-8.34l-117.72-.28c.07-1.13.95-1.64,2.52-1.63l117.69.35.19-21.05c-3.68-1.04-6.71-.81-10.98-.5l.08-42.73,8.59-.06.61,31.31c1.48,2.02,3.72,5.23,3.51,9.1.24,1.8,5.33,2.48,8.4,1.49l.59,23.14c-3.35.03-7.91-1.32-11.33.97.03,1.59,1.6,7.49-.67,8.24Z"/>
  <path class="st2" d="M59.41,35.8l-.14,1.59c7.36,6.05,2.61,14.32-6.57,14.47l.18,21.79-3.17,2.28c-3.39,1.19-7.25,1.19-10.6-.13l.19-28.74,9.17-.23.54-10.33,10.4-.69Z"/>
  <path class="st17" d="M139.09,75.83c-2.95.76-6.27,1.07-9.42.37l-.28-27.69-10.14-.53c.12-4.39-.04-7.75-.87-11.1-.09-.36.16-.92.24-1.26,2.92,1.97,6.58,1.89,10.97,1.64.9,3.54.7,5.98.39,9.74l8.77.34.34,28.48Z"/>
  <path class="st18" d="M39.27,76.73l-.97,41.75c-3.23,1.41-6.29.97-9.15.3-3.57,1.08-2.41-4.92-1.61-8.25,1.6-1.55,2.67-3.2,2.67-6.17l-.06-27.01,9.13-.63Z"/>
  <path class="st7" d="M29.15,118.78c-3.59,6.92.19,15.62-2.85,22.49-3.06.67-6.45,1.39-9.76-.03l-.03-22.27,9.51.02c-.42-3.65-.25-6.76,1.51-8.46,0,2.81.24,5.71,1.61,8.25Z"/>
  <path class="st3" d="M101.28,164.9l-.13,8.05c-3.82.76-24.48,1.73-26.17.76-.57-.33-1.42-14.2,1.41-9.51,8.53-.42,16.82-.18,24.89.7Z"/>
  <path class="st8" d="M101.1,152.22c-.59,4.81-10.44,4.69-11.56.04.62,4.78-8.51,4.56-9.39.02-5.75,7.54,2.9,11.8,9.83,7.91,5.86-1.14,9.63-.07,11.31,3.19l9.34.04c-.24,3.01-6.8,1.46-9.36,1.47l-26.29.12.5,7.84,25.65.09c-.48.86-1.61,1.68-3.25,1.68l-24-.08.02-10.64c-2.81,1.54-9.27,2.02-9.65-.31l9.47.37.19-13.37,23.97-.07c1.67,0,2.78.8,3.21,1.69Z"/>
  <path class="st9" d="M98,37.29c.06,2.78-.92,7.26,1.17,10.4,1.69.82,7.29-1.18,9.19,1.45,1.42,1.97.93,6.04.81,8.86,3.43,1,5.51.76,9.46.77l-.06,50.55H40.02s-.16-22.4-.16-22.4l9.68-.15.17-10.85-.22-26.29c-.02-1.97,6.17-2.55,8.81-.96,1.51-4.18.64-7.6.97-11.28l38.74-.11Z"/>
  <path class="st6" d="M38.77,128.29l2.95-2.34c20.36,3.32,18.58-4.53-1.38-2.36l-2.19-3.18c.41-.62.94-1.55,2.2-1.52l20.81.49,68.09.48c.69,3.75.63,6.72,0,9.92l-66.41.46c-7.08.05-22.43,3.39-23.98.4-.29-.56-.02-1.61-.08-2.35Z"/>
  <path class="st15" d="M38.77,128.29l-.63-7.88,20.95-.11.38,8.87c-6.77.88-14.33,1.75-20.7-.88Z"/>
  <path class="st5" d="M80.15,152.28c5.24,5.54,7.36,6.19,6.34,1.96l3.05-1.99,11.56-.04.19,11.17h-25.7s-.05-10.91-.05-10.91c2.07-.59,3.36-.2,4.61-.2Z"/>
  <path class="st13" d="M86.26,13.92l9.75.22-.15,13-16.78-.07c-.77-4.63-1.48-9.87,1.06-13.43,2.74-.26,3.88,1.34,3.44,4.8,2.23.26,3.12-1.25,2.67-4.53Z"/>
  <path class="st1" d="M86.26,13.92c1.41.49,2.28,1.53,2.7,2.49.6,1.37.47,4.2-1.08,4.52-2.92.61-5.01.55-7.41,2.06l-.32-9.34,6.11.27Z"/>
  <path class="st10" d="M89.54,152.26c.19,1.97.57,6-1.68,7.55s-5.05-.26-6.14-1.87-1.72-3.5-1.57-5.65l9.39-.02Z"/>
  <path class="st14" d="M70.13,58.15l-3.57,18.09c-2.2-.1-6.14-.61-7.23.24-1.81,1.41.49,8.8-2.25,10.15-4.81,2.36-5.07-11.07-1.56-16.97,1.83-3.08,5.54-4.63,2.89-10.82l9.84-.59c-1.25-4.16-1.49-7.74,1.08-9.89,3.92,1.07,5.1,8.35.81,9.79Z"/>
  <path class="st4" d="M70.13,58.15c-.09-2.64-2-7.33-.81-9.79,1.64-1,6.67-.63,8.37.55s1.47,6.48.61,8.35c-1.07,2.35-5.81,1.88-8.17.89Z"/>
</svg>