<?xml version="1.0" encoding="UTF-8"?>
<svg id="_레이어_1" data-name="레이어_1" xmlns="http://www.w3.org/2000/svg" version="1.1" viewBox="0 0 177.48 177.48">
  <!-- Generator: Adobe Illustrator 30.3.0, SVG Export Plug-In . SVG Version: 2.1.3 Build 182)  -->
  <defs>
    <style>
      .st0 {
        fill: #5b2cbe;
      }

      .st1 {
        fill: #d0bffc;
      }

      .st2 {
        fill: #501ec1;
      }

      .st3 {
        fill: #521db9;
      }

      .st4 {
        fill: #5b28c1;
      }

      .st5 {
        fill: #5622c1;
      }

      .st6 {
        fill: #5421bb;
      }

      .st7 {
        fill: #591fc5;
      }

      .st8 {
        fill: #b09bfa;
      }

      .st9 {
        fill: #b5a1fa;
      }

      .st10 {
        fill: #c3b3fc;
      }

      .st11 {
        fill: #9373f2;
      }

      .st12 {
        fill: #4c1fbd;
      }

      .st13 {
        fill: #5f2fc9;
      }

      .st14 {
        fill: #4e1bbb;
      }
    </style>
  </defs>
  <path class="st3" d="M88.92,13.18c-.23,3.25-3.05,4.52-8.47,3.81l-.04,22.86-3.52,2.47.9,16.93c1.35.27,2.44.61,2.57,1.17,1.49,6.27.45,37.4-.12,45.83.56,6.25-.98,10.04-4.64,11.37l.05,2.17c-14.37,1.89-28.77,2.18-43.22.87l-.12-10.27,34.84-.21.11-106.91,21.53-.42.14,10.35Z"/>
  <path class="st14" d="M99.3,58.79c.12-5.28,9.88-4.88,10.7.15,5.89.64,5.95,9.57.11,10.38,1.49.34,1.4.81-.1,1.39l-13.25,1.02-.28,78.29-6.7,1.11c-.98,2.59-2.08,2.75-4.02,1.09-2.5-2.14-2.61-24.96-2.21-29.63l3.53-2.16c-1.38-.38-3.45-1.02-3.5-2.08-.37-7.47-.21-58.15,1.64-60.57,2.35-3.08,13.31-4.2,14.09,1.02Z"/>
  <path class="st11" d="M87.07,120.42c-.04,4.42-.05,8.35.11,13.84l.43,15.8,8.87-.05c-1.16,1.79-4.99,1.67-6.91,2.22l-.76,9.83c-5.09.84-8.75.46-14.73-1.09,1.22,5.88,1.59,9.3-.88,11.94-3.22-.53-4.39-3.07-3.51-7.61l-33.58.43c.61,3.66-.57,5.79-3.54,6.39-1.98-2.89-1.62-5.74-1.5-10.68-3.6,1.16-9.48,1.91-10.75-.62.92-2.56,3.46-4.09,7.62-4.59l-.36-23.77c.25-2.49,2.35-2.78,4.84-2.04l3.51,1.56-.1,25.01h14.19c1.17-4.09,3.24-6.87,6.21-8.32,4.15.23,6.97-2.34,8.47-7.73,6.89,0,9.59-2.45,8.09-7.35-6.18-1.47-13.08-5.99-6.97-11.41,2.91-.99,9.25-3.09,10.93-1.39-.84-5.24,9.27-5.33,10.32-.35Z"/>
  <path class="st0" d="M156.19,48.09c-.63,2.72-3.17,4.2-7.62,4.44l.15,35.35c3.84,1.19,4.98,3.25,3.44,6.17-2.48-.9-5.7.33-8.11,1.11-.42,6.64-11.43,5.64-11.4-1.18-.07-3.07,2.35-4.43,7.28-4.09l-.24-32.08,3.5-2.5c-1.69-4.67-4.67-6.65-8.95-5.94-4.4,1.27-6.79-2.19-7.16-10.37-15.66,2.27-22.49-2.1-20.5-13.11l3.51-2.22,21.1.06.48,10.65,12.75.67c-.39,4.68-.68,7.89.69,11.3,4.66-.74,8.43-.64,11.07,1.74Z"/>
  <path class="st7" d="M76.75,120.78c-3.59.11-7.05,1.44-10.93,1.39l-1.58,3.5-28.17-.34c.22,2.94-.41,4.38-3.66,5.09-.75.68-1.53,1.95-1.49,3.64l.64,26.95-11.25-.18-.19-38.86,12.29-1.31,37.33-.37c2.93-.03,4.73-.68,5.84-2.67,4.5-1.38,4.84.3,1.15,3.15Z"/>
  <path class="st4" d="M156.19,48.09l-.02,44.01c0,2.07-2.98,2.32-4,1.95-1.23-1.67-3.53-2.36-6.94-2.43l-.19-43.47,11.15-.07Z"/>
  <polygon class="st6" points="73.19 172.92 32.57 172.12 32.45 162.27 73.25 161.75 73.19 172.92"/>
  <path class="st13" d="M131.23,93.89c2.63.98,4.01,3.26,4.13,6.86,4.77-.93,7.64.26,8.6,3.56-4.15,2.69-10.2,2.49-14.93.94l.26-10.85-6.48-1.26-.27-11.61-12.09.19-.45-10.99c-.02-.44.01-.96.1-1.39,1.41-3.46,5.18-4.39,11.32-2.78.39,3.43,2.53,3.7,5.48,3.01.41-3.48,4.29-3.21,6.6-.91,2.05,2.04,3.52,24.7-2.27,25.25Z"/>
  <path class="st5" d="M110.1,23.68c.9,4.87-16.86,4.21-18.74,3.44-7.74-3.19-9.83-10.48-2.44-13.93l20.94.07.24,10.42Z"/>
  <path class="st12" d="M144.06,95.16c.26,3.24.51,6.26-.09,9.15l-12.81-.07.07-10.35c.23-1.64.71-1.55,1.42.09,3.09,2.03,7.78,2.34,11.4,1.18Z"/>
  <path class="st1" d="M88.92,13.18c-.07,3.01-1.42,6.25.07,10.41l21.11.08.03,11.46,21.03.44.63,12.22c3.18-.48,8.61-1.82,10.86-.33,2.17,2.8.54,6.2.55,7.85-2.18,1.72-4.61,1.65-7.29-.22l-5.8,10.61c-.35,7.27-13.84,5-11.74-3.3-4.15.77-6.94-.39-8.37-3.47l-10.7-.15-2.99-.44c-.73-8.38-4.25-10.01-10.58-4.88-3.09,6.98-5.76,8.83-7.99,5.57.29-5.62,0-11.19-.86-16.72l.06-28.91,11.98-.22Z"/>
  <path class="st8" d="M99.3,58.79l-11.73.31-.5,61.33-10.32.35-1.15-3.15,1.13-11.5.16-63.8c2.92,4.85,1.1,10.06,1.86,17.11,2.17-4.38,2.72-7.74,6.18-9.64,3.43-1.89,8.91-4.36,12.28-.88l2.1,9.88Z"/>
  <path class="st9" d="M143.2,55.31l.29,38.15-10.83.52c-.33-.2-1.09-.15-1.42-.09l.31-23.17-21.43-1.4c.71-3.45.72-6.99-.11-10.38,3.39.05,7.57-.61,11.18.81,1.34,4.33.16,8.33,1.95,9.34.82.46,2.33.4,4.15-.54l-1.17-4.06c3.94-3.47,7.2-6.76,6.17-13.25,5.39-.2,7.92,1.86,10.92,4.07Z"/>
  <path class="st10" d="M65.82,122.17c.58,2.16,1.11,4.51,2.2,5.76,1.56,1.8,5.87,1.28,7.37,1.94,1.53,3.19,1.87,11.72-2.08,12.78-2.17.59-7.43-.29-7.73,2.59-.14,1.4.7,5.34-1.59,5.71l-8.53,1.39-1.98,8.14-21.19.09.13-30.16.12-8.65,33.29.4Z"/>
  <path class="st2" d="M86.68,160.05c-3.41.98-7.65.68-10.92.37-.54-3.04-1.1-7.52.47-8.71,1.83-1.39,6.6-1.03,8.56-.73,2.43.37,3.77,4.44,1.88,9.07Z"/>
</svg>