<?xml version="1.0" encoding="UTF-8"?>
<svg id="_레이어_1" data-name="레이어_1" xmlns="http://www.w3.org/2000/svg" version="1.1" viewBox="0 0 177.48 177.48">
  <!-- Generator: Adobe Illustrator 30.3.0, SVG Export Plug-In . SVG Version: 2.1.3 Build 182)  -->
  <defs>
    <style>
      .st0 {
        fill: #e3f4b1;
      }

      .st1 {
        fill: #bedd6c;
      }

      .st2 {
        fill: #14520f;
      }

      .st3 {
        fill: #8fcf15;
      }

      .st4 {
        fill: #095d08;
      }

      .st5 {
        fill: #b5e040;
      }

      .st6 {
        fill: #a8dc31;
      }

      .st7 {
        fill: #f8faef;
      }
    </style>
  </defs>
  <path class="st1" d="M128.68,110.2c-.21,2.39-2.1,3.21-5.66,2.46.85,6.96-2.1,13.14-9.31,13.43.4,2.64.39,4.46-2.43,5.65l-1.26,2.73c-24.52,0-49.04,0-73.58,0l-1.63-2.73c-2.8,0-6.38,1.45-8.54-.88l8.02.24c.99-3.75.95-6.97-.83-9.39-1.38-1.88-4.71-2.55-8.16-2.34l-.08-17.46c4.52-2.35,4.39,2.65,4.09,6.34,3.32.07,6.05,2.02,8.18,5.85,4.27-.29,6.97,1.31,7.24,5.8,15.48.58,30.81.51,45.98-.22,1.37-3.13,4.29-4.92,8.76-5.36-.28-4.33,2.55-6.66,8.48-6.98-.58-5.7,2.37-8.69,8.88-8.97l.33-41.89c2.3-4.23,7.35-5.02,11.61-4.72l-.1,58.43Z"/>
  <path class="st4" d="M111.27,131.74c1.89-.79,1.86.35-.09,3.41-.04,1.39.46,2.96-.35,4.99l-76.07.24.04-8.64h76.47Z"/>
  <path class="st2" d="M128.68,110.2c0,4.31.45,8.81-.95,13.36-2.9-.52-6.92-.33-7.12.97l-.96,6.51c-2.41,1.4-7.46.7-8.47,4.11l.09-3.41c.08-2.87-.79-5.49.13-8.89,2.04.4,6.15.64,7.23-.88,2.32-3.24,1.47-7.85,1.73-11.52,3.58-1.13,5.95-.19,8.31-.25Z"/>
  <path class="st0" d="M128.84,49.09l-.07,2.69c-1.56,2.85-4.68,3.82-8.87,3.13l-.37,46.98h-8.37s-.76,8.92-.76,8.92l-8.16.04c0,2.7.14,4.76-.78,7.31-2.34-.52-5.3-.57-6.86.33-.99.57-1.48,2.72-2.14,4.67l-50.36-.46c.09-2.61-.35-5.66-1.41-5.71l-5.94-.25-2.3-5.1c-.47-1.06-5.01-.21-5.95-1.18-.14-2.53,1.04-7.65-1.28-8.52-2.22-.82-5.09-.36-8.25-.39l.15-47.1c1.55-4.69,8.71-2,10.71,2.45-.82,2.28.46,20.33,3.25,13.58-.13-5.72.49-11.22,1.86-16.49l2.96-1.34,80.48-.51c1.62-6.29,7.81-5.02,12.45-3.04Z"/>
  <path class="st7" d="M128.84,49.09c-2.32,1.36-4.85.92-8.08-.44-.9,2.35-1.19,4.13-2.71,6.19l-83.39.53-.96,17.11c-1.57,1.61-6.13,1.73-8.39.72l-.24-17.45-7.96-1.3.12-8.34,111.26.1c.57.66.36,2.33.35,2.88Z"/>
  <path class="st5" d="M153.94,92.36l-1.16-19.33-5.28-.17c-2.42-.08-.37-6.89-1.75-7.64-1.63-.88-5.4.29-7.83-.4-1.22-.35-1.89-3.04-.98-5.88l16.22-.3c-.16,2.01-.19,4.52.55,5.48s3.52,1,6.2.67l.85,26.33c-.75.95-2.97,1.63-6.8,1.23Z"/>
  <path class="st2" d="M160.88,64.53l-.62-8.68-4.69.67c-1.62.23-2.81-2.63-3.76-3.84l-15.25-.63c1.69-8.48-5.94-6.75-9.17-14.49l-109.07-.05c-2.52,3.92-5.21,6.62-9.58,9.16l-.02,55.05,8.15.33.09,17.46c1.97-.11,5.13-.32,6.31.86,2.69,2.71,3,7.14,3,10.49,5.05,1.08,12.69,2.32,11.38-4.78-1.12-6.11-3.27-8.74-9.63-9.44.66-3.57-.05-5.77-2.14-6.59.4-2.91.18-5.62-.66-8.13-.42-2.3-2.26-3.59-5.51-3.87l.13-42.68-2.73-.94c2.46-.56,3.4-2.39,2.81-5.52,35.9.37,71.23.08,106.02-.87l2.9,1.03c-3.66,1.43-3.69,2.33-.07,2.69-2.4,3.47-3.27,5.32-2.75,9.74-1.12,13.65-.84,33.89-.08,47.77.03.55,1.67.85,2.73.92l23.56-.72c1.3-.55.5-4.57.82-5.86.52-2.14,4.99-1.79,6.48-2.37,2.19-1.74,2.15-5.81,2.37-8.43l6.8-.61.05-27.67h-7.88ZM146.09,91.64l-9.05.22-.21-18.44c3.69-.63,6.35-.51,9.38-.08l-.12,18.3Z"/>
  <path class="st6" d="M153.36,101.58c-4.23-.62-8,1.25-12.1.85l-3.45-.34c-1.11-.11-2.22-3.03-.37-4.06s6.92.79,8.22-.7c1.17-1.33.94-3.97,1.96-4.42s4.76-.9,5.39.12c1.3,2.11.92,4.85.35,8.55Z"/>
  <path class="st3" d="M85.29,101.59l-8.35.33-.15,8.16-9.35-.07-.17-8.08-8.79-.61v-8.96c-3.49.48-5.62.38-8.15-.57l-.06-18.48,17.13.08.22,9.04c3.31.27,5.67.32,8.92-.36-.24-3.28-.72-6.09-.1-9l17.38.33-.22,18.92-8.13.35-.18,8.91Z"/>
</svg>