<?xml version="1.0" encoding="UTF-8"?>
<svg id="_레이어_1" data-name="레이어_1" xmlns="http://www.w3.org/2000/svg" version="1.1" viewBox="0 0 177.48 177.48">
  <!-- Generator: Adobe Illustrator 30.3.0, SVG Export Plug-In . SVG Version: 2.1.3 Build 182)  -->
  <defs>
    <style>
      .st0 {
        fill: #116e02;
      }

      .st1 {
        fill: #89c815;
      }

      .st2 {
        fill: #89c11d;
      }

      .st3 {
        fill: #115709;
      }

      .st4 {
        fill: #0a5e00;
      }

      .st5 {
        fill: #13610d;
      }

      .st6 {
        fill: #0a6207;
      }

      .st7 {
        fill: #76bd0e;
      }

      .st8 {
        fill: #77ba21;
      }

      .st9 {
        fill: #0d5e09;
      }

      .st10 {
        fill: #10680b;
      }

      .st11 {
        fill: #117103;
      }

      .st12 {
        fill: #d0f061;
      }

      .st13 {
        fill: #4eab04;
      }

      .st14 {
        fill: #aedf2d;
      }

      .st15 {
        fill: #58aa07;
      }

      .st16 {
        fill: #348c02;
      }

      .st17 {
        fill: #136214;
      }

      .st18 {
        fill: #125b01;
      }
    </style>
  </defs>
  <path class="st10" d="M153.18,83.65c-.83,5.19-8.77,5.03-9.76.04-.91-.55-.87-1.12.05-1.72-.17-2.51,1.96-3.75,6.38-3.71l.09-57.8c-3.6.06-5.83-1.14-6.69-3.59l-1.53,3.31-48.68-.34c-.1,3.97-.99,7.52-2.69,10.64-6.4-2.93-13.46-3.58-21.18-1.95-1.03,2.46-2.29,3.55-4.52,2.42.44,4.32-.84,6.88-3.85,7.69-.53,2.64-2.7,3.76-6.51,3.34,1.15,6.75-9.44,16.28-12.46,6.79-.02-2.46-1.94-6.84.5-9.61,1.3-1.47,5.6-1.2,7.85-.75l.56-11.01c2.84.26,7.06,1.05,9.22-.86,1.75-1.68.91-6.53.78-9.13l16.08-1.02c2.85-1.4,4.54-6.66,10.8-2.98,1.57-3.35,1.52-5.66,1.2-9.49l65.78.14c1.48,4.23,4.05,6.52,8.62,7.27l.08,70.85-10.11,1.47Z"/>
  <path class="st6" d="M51.84,132.25c3.69-1.5,7.46.13,11.29,4.88l46.09-.18,2.46,3.32c1.49.12,1.51.6.17,1.4l-.49,9.94-51.69-.38c-.56-3.52-6.13-8.28-8.65-5.1-2.14,2.69-2.28,6.71-7.9,6.67.72,4.38.75,6.83.22,10.23-2.56-.39-5.47-.35-6.79.55-1.5,1.03-.58,4.85-.55,6.69.1,5.8-21.61,5.08-21.68-3.76l-.12-14.47c3.4-.84,6.54-.22,9.54-.24l3.27,1.53c-2.29,7.08,4.62,9.01,3.52,1.34l3.15-2.93c-.26-2.66,1.56-3.97,5.46-3.93-.32-3.37-.55-5.94,2.95-7.65,2.79-2.95,3.26-6.86,1.38-11.72,1.42-9.38,9.15-3.3,8.36,3.82Z"/>
  <path class="st9" d="M153.18,83.65c.51,5.83,2.63,13.54-.05,19.76-1.61,3.73-5.86,6.29-2.29,12.54l-8.45,1.81-.39,10.59c-3.54-.73-6.58-.56-8.6.96-1.44,1.08-.74,5.5-1.06,7.27-.66,3.29-5.71,1.5-7.07,2.24-3.49,2.08-9.21,4.88-13.41,2.85l-.17-1.4c-9.16-5.48-.85-14.97,8.94-14.28,6.65,0,9.54-3.07,8.66-9.22,10.27-4.6,11.92-12.02,10.93-22.47l2.91-1.3c-.78-3.41-.69-6.51.29-9.31,3.19.13,6.62.42,9.76-.04Z"/>
  <path class="st17" d="M32.46,71.98c5.08.75,4.64,12.25-.25,13.25.93,6.66,1.12,13.35.59,20.06,4.56.37,4.42,10.15-.34,11.42l-10.15-.1.53-44.78c3.04-.76,7.02-1.49,9.61.14Z"/>
  <path class="st5" d="M42.1,140.15c.19,2.87-1.45,4.04-4.93,3.51.72,4.45-.43,7.14-3.47,8.07.64,4.99-9.03,4.79-9.94.06l-.02-11.24,8.79-.5.06-22.05c.2-3.98,1.75-4.7,5.35-4.72,4.25-.03,10.79,10.56,5.58,15.37,2.74,6.15,2.27,9.98-1.42,11.49Z"/>
  <path class="st3" d="M41.83,48.77c4.83.77,4.19,15.19,3.48,19.68l-3.31,2.31c-3.12.91-7.37,1.22-10-.41l-.1-21.41,9.92-.17Z"/>
  <path class="st15" d="M61.82,103.54c1.65.54,1.67,1.12.03,1.72,2.66,2.86,2.72,10.45-1.68,11.57,1.44.39,1.37.86-.09,1.4l-2.83,2.42c-4.48-2.52-4.49,5.71.37,3.2l2.62,3.12c2.09,3.54-.71,5.3-8.4,5.28-1.24-1.22-1.8-5.06-5.13-5.31-5.58-.42,4.19,9.03,1.74,12.09-1.02,1.27-4.7,1.02-6.34,1.11l-.26-22.95c-3.5-1.13-6.67-.59-9.26.8l-.12-1.29-.25-31.48c3.54-.31,5.17,1.91,4.89,6.67l-.23,9.1c6.81.82,9.72,5.21,8.74,13.18l1.23-.54,1.88-31.22c17.39-13.18,16.98,10.15,13.11,21.12Z"/>
  <path class="st15" d="M32.01,70.35l10,.41c1.98,6.24-8.66,6.93-9.55,1.22l-9.61-.14c2.83-2.15,6.2-1.48,9.16-1.49Z"/>
  <path class="st14" d="M143.25,16.86c1.29.19,3.26.67,3.29,1.55.63,18.08.18,42.85-1.1,61l-3.36,2.36c3.07,11.64.92,16.89-6.46,15.75.24,8.08-1.78,11.51-10.31,11.22.1,9.26-1.18,12.19-10.27,13.79.71,4.26-1.45,7.08-5.33,9.05-1.81.92-38.58.63-40.51.01-6.09-1.96-8.6-3.4-9.02-9.78-4.65.29-4.42-2.25-.09-3.56l.09-1.4c.28-4.97,7.64-4.39,8.44.22.23-1.52.82-1.62,1.76-.34l5.27-3.13,31.7-1.56c.56-1.86.37-3.29-.57-4.3l-25.64-.3-2.34-3.35c-3.28-.72-4.25-3.95-2.89-9.69,1.93-3.35,5.38-4.65,10.34-3.91-.4-5.19,1.07-8.2,4.41-9.03.4-1.36,1.21-2.55,2.62-2.86,6.22-1.33,4.74-5.62-.82-4.06l-2.38-3.11c1.23,12.73-2.97,16.89-12.58,12.48-1.66-6.52-2.38-13.42-2.14-20.7l-1.63-.08-1.78,40.41c-3.14,2.94-4.68,3.35-4.63,1.25-2.29.11-4.12-.3-5.49-1.24-3.24-5.34-.91-13.27-1.17-20.03-.66-2.23-8.42-2.07-9.04.12l-1.76,30.88c-.11,1.85-3.99,3.29-5.29,3.39-5.47.43-1.29-10.02-2.67-11.66s-5.35-1.44-8.66-.92c.39-7.35,1.6-14.16-1.02-20.09l.25-13.25c3.11.05,7.4,1.17,9.55-1.22l-.18-21.99c1.99.11,5.98,1.65,8.03-.57,1.74-1.89,1.17-6.34.71-9.27,3.87-.87,6.73-.4,10.24-.29,3.22.6,4.58,3.02,4.09,7.26,8.23.84,11.03-4.44,13.5-10.51,16.91-2.68,1.35-3.73-7.02-3.48l-2.21-3.38c5.43-2.23,12.22-1.92,19.77-.16l.55-11.88,53.75.38Z"/>
  <path class="st7" d="M143.42,83.68l.2,16.7c.1,8.35-3.47,16.04-12.04,17.83.84,3.25.79,5.61.22,7.68-.18.65-11.62,4.73-19.77,4.1-.83,4.29-.72,7.19-.35,10.28l-50.98.2c-2.45-4.38-6.11-5.51-8.86-8.21-1.09-5.87,8.44-2.27,8.4-5.28-4.77-.06-4.6-3.93-.07-5.17,2.73,2.65,7.1,6.82,11.75,6.78l39.69-.35.17-9.62,9.49-.72.96-12.49,9.54-.44.71-10.68,10.57-.3c-1.73-4.99-1.02-8.33-.97-12.21.51-1.4.97-1.3,1.39.2l-.05,1.72Z"/>
  <polygon class="st1" points="143.47 81.96 142.08 81.76 142.59 42.28 143.25 16.86 153.27 16.23 153.17 82.48 143.47 81.96"/>
  <path class="st12" d="M69.17,28.52l19.39.49c.96,2.98.85,5.76.77,8.6l-9.92.26-1.04,8.55c-13.87,2.51-16.94,2.34-17.15,11.15-.06,2.58-6.38,2.99-8.32,1.66-2.37-1.62-1.75-6.28-1.2-8.26.71-2.53,6.26-2.18,8.35-2.6,2.89-2.32.45-7.45.76-9.73.38-2.86-.18-7.16,1.3-9.53,1.53-2.44,5.32-.64,7.07-.59Z"/>
  <path class="st2" d="M33.7,151.73c0,3.08.97,6.22-.04,10.05-2.31.96-7.88,1.27-9.07-.43-1.97-2.8-.76-7.04-.82-9.56l9.94-.06Z"/>
  <path class="st8" d="M42.1,140.15c.04,3.56.95,7.19-.15,11.15l-8.26.44.06-11.27,8.34-.32Z"/>
  <path class="st16" d="M90.07,71.42c5.3,1.08,5.91,8.58.58,10.02l-1.43,12.29-10.07.22-.35,10.12c.31,2.71-1.59,4.1-5.69,4.18,1.22,4.44.31,7.27-2.74,8.46l-1.76.34c-3.17-.14-4.38-2.82-3.62-8.05,0,0-1.05-1.25-3.14-3.75.16-.43.23-1.29-.03-1.72l6.87.53,1.65-43.2c1.63-1.79,8.46-1.21,8.51.86l.51,20.19c4.4.18,7.01.18,9.88-1.04-1.31-3.99-1.02-7.3.84-9.46Z"/>
  <path class="st15" d="M70.37,116.72l-.83-11.76,9.25-.88,32.06.37v10.51c-14.7,1.63-27.48,2.43-40.49,1.76Z"/>
  <path class="st0" d="M90.65,81.45c.37-3.14.15-6.5-.58-10.02l10.09-.98c-.37-2.98-.84-7.22.24-8.91,1.2-1.88,6.76-1.77,8.86-.78,2.38,1.13,2.15,5.83,1.39,8.96-.55,2.25-5.53,2.48-9.07,1.2-2.17,3.94-1.61,6.81-1.64,10.72-3.71.8-6.41.48-9.29-.2Z"/>
  <path class="st11" d="M120.97,59.64c-1.05,1.63-6.68,1.47-8.38.56-2.24-1.19-2.23-6.03-1.37-9.09.72-2.57,5.13-3.11,9.78-1.99,1.27,2.06,1.83,7.61-.03,10.52Z"/>
  <path class="st13" d="M122.6,39.71c1.05-2.04,6.49-1.79,8.17-.82,1.92,1.11,2.04,6.41.89,8.72-.84,1.68-5.07,1.62-7.43,1.25-2.2-.35-3.79-4.92-1.63-9.15Z"/>
  <path class="st4" d="M68.62,117.06l-8.44-.22c.25-3.82-1.24-8.68,1.68-11.57,1.95-.1,3.79-.17,6.36.55l.4,11.24Z"/>
  <path class="st18" d="M60.08,118.24l.09,3.56.07,5.17c-1.83-.16-5.84,1.28-7.81-.28-2.21-1.75-1.91-8.05.16-9.48,1.7-1.16,5.35,0,7.49,1.02Z"/>
</svg>