<?xml version="1.0" encoding="UTF-8"?>
<svg id="_레이어_1" data-name="레이어_1" xmlns="http://www.w3.org/2000/svg" version="1.1" viewBox="0 0 177.48 177.48">
  <!-- Generator: Adobe Illustrator 30.3.0, SVG Export Plug-In . SVG Version: 2.1.3 Build 182)  -->
  <defs>
    <style>
      .st0 {
        fill: #1c0602;
      }

      .st1 {
        fill: #904809;
      }

      .st2 {
        fill: #f4ac63;
      }

      .st3 {
        fill: #1e0702;
      }

      .st4 {
        fill: #944b0d;
      }

      .st5 {
        fill: #df853d;
      }

      .st6 {
        fill: #190703;
      }

      .st7 {
        fill: #8b4305;
      }

      .st8 {
        fill: #8b3f04;
      }

      .st9 {
        fill: #8c4205;
      }

      .st10 {
        fill: #1d0804;
      }

      .st11 {
        fill: #dd853d;
      }

      .st12 {
        fill: #1d0402;
      }

      .st13 {
        fill: #331004;
      }

      .st14 {
        fill: #230602;
      }

      .st15 {
        fill: #8a4105;
      }

      .st16 {
        fill: #914305;
      }

      .st17 {
        fill: #7b320e;
      }

      .st18 {
        fill: #8b4204;
      }

      .st19 {
        fill: #d5813f;
      }

      .st20 {
        fill: #92451f;
      }

      .st21 {
        fill: #7e3612;
      }

      .st22 {
        fill: #240502;
      }

      .st23 {
        fill: #7e3510;
      }

      .st24 {
        fill: #884005;
      }

      .st25 {
        fill: #924507;
      }

      .st26 {
        fill: #8f4808;
      }

      .st27 {
        fill: #bb793d;
      }

      .st28 {
        fill: #371b0e;
      }

      .st29 {
        fill: #864205;
      }

      .st30 {
        fill: #dd8742;
      }

      .st31 {
        fill: #924403;
      }

      .st32 {
        fill: #844007;
      }

      .st33 {
        fill: #220b04;
      }

      .st34 {
        fill: #df8640;
      }
    </style>
  </defs>
  <path class="st2" d="M62.24,20.49c18.36-1.04,37.46-.55,55.83-.05-.46,3.82-.35,7.62.35,11.39,7.88-.15,15.72.02,23.54.51.24,3.21.46,6.45.66,9.7l9.19-.02c.99,7.18,1.37,14.52,1.13,22.01,1.92-.03,2.62,1.62,2.09,4.94,5.26-.71,8.67.39,10.24,3.3.33,12.01-.02,23.91-1.05,35.72-2.99,1-6.24,1.47-9.75,1.42.19,5.49-1.45,10.65-4.91,15.49-2.17.07-4.33.08-6.49.02-.06,3.71-.59,7.3-1.61,10.74-7.07,1.27-14.29,1.85-21.65,1.73l-.49,8.55c-1.41.05-2.45.87-3.11,2.47l-8.53.44c.83,4.59.11,7.68-2.15,9.27l-.09,1.44c-15.11.82-30.51,1.02-46.2.61l-1.26-2.17c-3.42-.68-3.38-10.78-.12-11.82l-1.44-.05c-.85-2.5-1.17-5.42-.96-8.78l-15.36-.08-1.51-2.17c-1.67,3.94-10.46,2.32-12.52-1.33l.13-13.95c-4.6.88-7.7.19-9.29-2.07h-.92s-1.6-1.88-1.6-1.88l.17-49.74,2.16-1.27,1.19-2.17,8.62-.02-.23-17.62c1.27-.7,2.21-1.64,2.8-2.82l8.18-.35c-.8-4.62-.17-8.39,1.88-11.3l17.15-.62.46-8.32,2.21-1.39c.29-3.08,2.73-2.77,3.26.23Z"/>
  <path class="st19" d="M141.23,31.38l11.45.43.49,11.75c3.77-.33,7.2-1.03,10.31.7-.67,2.23-3.19,2.93-7.55,2.09-.69,4.97-.89,10.21-.6,15.71,4.25-.9,7.07-.25,8.46,1.94,3.33-.09,6.72-.62,10.89.37v53.62s-8.66-.17-8.66-.17c-.91-.02-1.69.31-1.96.72s-.3,1.2-.45,1.51c-6.95-2.12-9.97-.45-9.04,5.01l.5,8.64-2.08,1.5c.16,3.68.62,7.42-.34,11.52l-11.71.81c.47,4.36.96,7.96-.78,10.71l-2.17-.92-.21-8.43-18.06-.1c.77,4.53.05,7.56-2.16,9.08-.7,3.43-10.88,3.49-12.02.25l-.05-11.32,11.79-.6.26-10.88,22.61-.85.75-11.39c3-.62,5.22-.38,7.85.07,3.64-4.75,4.35-9.89,3.19-16.11l10.95-.17.22-35.57-10.18.02-.82-27.26-11.92.2-.09-11.79-21.69-.63c.21-.84.53-2.11,1.18-2.19,4.63-.57,15.42-.78,20.06-.4l1.57,2.13Z"/>
  <path class="st4" d="M105.53,158.14l12.02-.25c.87-3.53,5.73-3.04,6.51.57-1.89.02-3.92,1.4-6.66-.51l-.25,12.65-59.09.04-.07-12.62,47.55.12Z"/>
  <path class="st7" d="M117.79,8.58c.41,3.74.51,7.53.31,11.35-18.67-.14-37.29.04-55.86.56l-3.26-.23c-1.68-.18-1.89-.56-.46-1.17-.33-3.58-.16-7.1.49-10.58l58.77.06Z"/>
  <path class="st18" d="M16.72,64.87l.07,49.8c-.15,1.34-.43,2.35-.8,3.1l-11.3-.15-.08-52.73c3.92-.81,8.31-.95,12.12-.02Z"/>
  <path class="st1" d="M38.59,135.12c2.96-.86,2.62,9.8,2.24,10.23-1.73,2-10.44,1.42-13.21.69v-10.56s-10.52-.28-10.52-.28l-.2-17.43,11.15-.11c1.01,5.47.5,10.61.02,17.04l10.52.42Z"/>
  <path class="st24" d="M140.16,158.25l-16.1.21c-2.13-.85-4.34-.62-6.51-.57l-.1-11.26,22.61.13.09,11.49Z"/>
  <path class="st29" d="M141.06,28.22c.39.74.13,2.27.17,3.16l-22.81.46c-.69-2.35-1.08-11.48.16-12.04,1.01-.46,21.08-.07,22.11.32l.37,8.1Z"/>
  <path class="st30" d="M57.86,146.2c-.08.84-.25,2.05-.87,2.2-1.57.38-14.65.86-15.93.55l-1.59-2.11c-.08,1-.46,1.08-1.12.29h-9.66c-.93,0-1.06-.7-1.06-1.09l11.05-.06-.09-10.86,19.08.1.19,10.99Z"/>
  <path class="st1" d="M57.86,146.2l.12,11.82-18.81.15c-.42-3.68-.8-7.96.3-11.33l18.39-.64Z"/>
  <polygon class="st26" points="163.49 44.27 163.79 64.01 153.17 64.31 153.16 44.16 163.49 44.27"/>
  <path class="st27" d="M58.99,20.26l-.41,11.83-19.3.37.21,11.85-11.04.11.28,20.44-12,.02-12.12.02c3.13-1.79,7.12-1.16,11.9-.78l.64-20.29c3.66-1.04,6.83-.63,10.82-.21-.38-4.41-.79-7.91.19-11.8l10.22-.43.13-11.91,19.55-.05c-.04-4.1-.94-7.96.95-10.9l-.03,11.75Z"/>
  <path class="st32" d="M163.61,120.05l.14,14.56c-3.93,1.14-7.23.5-10.76.58-.21-4.83-1.45-10.83.41-16.3.97-2.84,10.18-2.17,10.21,1.15Z"/>
  <path class="st27" d="M141.06,28.22c-1.21-2.13-1.09-4.58-.81-7.68l-22.03-.31.2,11.6c-1.63-3.17-1.27-6.38-.51-11.26l-55.68-.08c.24-.61.99-1.1,2.14-1.1l53.32.23.08-11.05c1.33,2.58,1.02,6.02.21,10.77l23.14.14-.07,8.73Z"/>
  <path class="st4" d="M39.17,158.17c-1.52-3.45-.46-7.41-.82-11.04l1.12-.29-.3,11.33Z"/>
  <path class="st13" d="M81.68,56.25c-.11-.99.15-1.02.77-.17l1.43-1.95c1.87.96,3.08-.38,3.61-4.02,6.88-1.73,4.27-8.37-2.47-5.16.88,4.72.18,7.92-2.12,9.59-4.55.7-5.35-12.06-1.04-12.47l1.2-6.45,14.59.3.62,5.47c.11.99,3.32.96,5.63.45l.02,15.05c-1.91-.28-4.44-.57-5.35.24-1.05.94-1.11,3.61-.76,5.6l-15.01.09c-.07-2.82-.17-4.8-1.14-6.58Z"/>
  <path class="st33" d="M37.23,93.56c-.43-.87-.17-1.05.73-.57l2.13-1.75c1.55.31,9.51.73,9.86.09.23-.41.58-9.11.25-9.45l-10.33-.67-1.38-2.25c-.95-.23-.92-.58,0-1.02l-.11-5.74,13.96.09.16,6.36c2.6-.18,4.2-.26,6.53.29l-.14,15.07c-2.06-.26-4.53-.54-5.72.2-1.04.64-1.06,3.63-.38,5.95l-14.42.29c-.2-2.73-.32-4.84-1.15-6.91Z"/>
  <path class="st21" d="M128.39,92.03c.18-.81.44-1.97,1.08-2.08,2.25-.41,12.17.19,12.31,3.15.82.16,2.05.46,2.1,1.06.38,4.3-.05,13.39-4.13,14.63l-9.53.08c.26,2.39-.56,3.74-2.47,4.06-.61-2.34-.02-4.06-1.48-6.17-1.65.84-5.93.65-6.23-.92-.78-4.09-.93-8.59.03-12.59,1.13-2.24,6.03-1.39,8.31-1.21Z"/>
  <path class="st10" d="M127.76,112.93l.37-6.2,12.77-.11.89-13.51c.17-.93.57-1.02,1.2-.3,1.48-.65,4.37-.86,5.46.29l-.16,14.27c-2.39-.45-4.82-.48-5.95.36-.96.72-.29,4.03-.62,5.25-4.05,1.1-9.75,1.17-13.95-.04Z"/>
  <polygon class="st5" points="140.74 71.46 128.36 71.35 128.5 58.76 140.73 58.92 140.74 71.46"/>
  <path class="st3" d="M95.06,116.84l.32,4.84c2.5-.05,4.33-.27,7.14.41l-.16,13.26c-2.7.25-5.08.69-7.15,1.34l-.66-1.45-2.18-.87-.35-10.43-8.28.07-.9-2.36.71-5.27c4.01-.31,7.84-.15,11.5.48Z"/>
  <path class="st34" d="M53.67,129.91c-.68,1.99-6.79,2.22-8,.54-1.55-2.16-2.52-3.66-5.62-3.3l-.04-6.98,13.63.05c.56,2.85,1.23,6.17.03,9.69Z"/>
  <path class="st28" d="M94.55,135.23l7.81.11c-.47,1.51-4.46,1.17-6.17.79l-.89,6.23c-4.39.64-8.96,1.08-12.62-.59,2.15-2.64,2.14-3.04-.03-1.21-.91-.35-.44-2.98-.79-4.04l-6.04-.95.03-13.29c1.7-.58,3.47-.74,5.31-.46-.46-2.17.72-1.76,3.54,1.22l.28,10.45c4.64-1.06,7.83-.48,9.57,1.74Z"/>
  <path class="st11" d="M63.09,51.62c1.62,1.21,3.25,1.2,3.67,2,.56,1.07.07,3.88-1.06,3.9l-12.34.17.19-11,8.37-.17c-.27,1.78-.19,4.1,1.18,5.11Z"/>
  <path class="st14" d="M38.5,78.96c.82.23,1.83.52,2.12,1.25.44,1.12.33,13.13-2.65,12.78l-.73.57c-1.78.33-3.69.56-5.74-.34-.51-4.83-.52-9.77.05-14.61l6.96-.67v1.02Z"/>
  <path class="st22" d="M142.98,92.8c-.49.22-.98.32-1.2.3l-13.39-1.07-.04-6.62,13.01.08,1.63,7.31Z"/>
  <path class="st6" d="M81.86,42.08c-.73,3.92-.74,8.94,1.04,12.47,2.02.82,1.74,1.67-.45,1.54-.24-.04-.58.12-.77.17-1.57.42-3.21.69-5.34-.08v-13.93c2.15-.81,3.82-.56,5.52-.17Z"/>
  <path class="st3" d="M82.67,141.78c-.1-.24-.09-.59-.03-1.21l.45-4.19,11.53-.02v5.33s-11.96.1-11.96.1Z"/>
  <path class="st0" d="M94.72,115.76l.33,1.08-10.9.07c-.2,1.88-.29,3.35-1.31,4.73-1,.16-.49-5.94-.27-6.19.41-.45,10.54-.53,12.14.32Z"/>
  <path class="st17" d="M31.49,93.22c-1.03-4.66-1.08-9.9.05-14.61l-.05,14.61Z"/>
  <path class="st23" d="M94.72,115.76l-11.77.02-.11,5.85c3.37.81,6.84.02,11.45.12l.25,13.48-11.94.54-.08-13.64-6.68.15c1.04-1.14,3.06-1.41,5.23-.64,1.08-2.09.74-4.07,1.09-6.54,5.49-.68,11.49-1.16,12.56.65Z"/>
  <path class="st9" d="M173.75,116.52c-3.38.6-6.4.48-10.37.1l-.03-51.53,10.37-.08.03,51.51Z"/>
  <polygon class="st8" points="152.06 146.01 140.53 146.12 140.53 135.17 151.99 135.08 152.06 146.01"/>
  <polygon class="st31" points="152.06 43.6 141.29 43.28 141.29 32.48 152.02 32.46 152.06 43.6"/>
  <polygon class="st15" points="57.9 31.36 39.6 31.37 39.6 20.54 57.88 20.53 57.9 31.36"/>
  <polygon class="st16" points="27.73 63.66 17.9 63.74 17.89 44.36 27.95 44.08 27.73 63.66"/>
  <polygon class="st25" points="38.59 43.17 28.46 43.18 28.73 32.49 38.78 32.52 38.59 43.17"/>
  <path class="st20" d="M82.45,56.08c.12-.43.45-1.06.45-1.54l-.06-12.41,10.12.02c.33,2.37.95,6.1-.69,8.34-1.07.3-3.61.69-3.76,1.8-.1.72.64,2.7.27,3.35-1.44,1.35-4.79.72-6.34.44Z"/>
  <path class="st17" d="M37.96,92.99l.53-14.03,13.93.83-.36,13.74c-5.09.27-9.74.59-14.1-.54Z"/>
  <path class="st12" d="M128.25,106.52l-7.55-.72v-12.74c2.88.05,4.84.03,7.55-.61v14.07Z"/>
</svg>