<?xml version="1.0" encoding="UTF-8"?>
<svg id="_레이어_1" data-name="레이어_1" xmlns="http://www.w3.org/2000/svg" version="1.1" viewBox="0 0 177.48 177.48">
  <!-- Generator: Adobe Illustrator 30.3.0, SVG Export Plug-In . SVG Version: 2.1.3 Build 182)  -->
  <defs>
    <style>
      .st0 {
        fill: #43196e;
      }

      .st1 {
        fill: #4c1d7d;
      }

      .st2 {
        fill: #511e86;
      }

      .st3 {
        fill: #4d2578;
      }

      .st4 {
        fill: #471c75;
      }

      .st5 {
        fill: #411a6c;
      }

      .st6 {
        fill: #421170;
      }

      .st7 {
        fill: #a76ceb;
      }

      .st8 {
        fill: #431b71;
      }

      .st9 {
        fill: #592793;
      }

      .st10 {
        fill: #441673;
      }

      .st11 {
        fill: #441c6d;
      }

      .st12 {
        fill: #c189f7;
      }

      .st13 {
        fill: #351264;
      }

      .st14 {
        fill: #faf8fc;
      }

      .st15 {
        fill: #3b1563;
      }

      .st16 {
        fill: #441970;
      }

      .st17 {
        fill: #4b1d7a;
      }
    </style>
  </defs>
  <path class="st7" d="M161.48,76.29c1.07,2.04,2,9.22.06,10.81-1.06,2.27-3.23,3.22-6.5,2.86.5,5.23-1.21,7.67-5.13,7.31.38,2.82-1.44,4.18-5.45,4.06,0,2.95-1.02,5.02-3.08,6.18-.24,3.47-2.82,5.04-7.73,4.71.83,4.48-.31,7.17-3.43,8.06-1.4,2.51-3.86,3.44-7.4,2.81,1.18,7.77-3.64,10.94-10.94,10.86.91,4.5-.19,7.24-3.3,8.22-.37,2.97-3.1,4.47-8.2,4.49.76,4.69-1.37,7.79-5.17,10.11-.92.56-20.53,1.3-19.89-3.39-2.71-.59-3.74-3-3.1-7.21-3.63.32-5.95-.7-6.98-3.07-.65.06-1.09-.38-1.08-1.02-2.4-1.08-3.17-3.44-2.33-7.1-4.78.11-7.4-1.45-7.85-4.67-4.97,0-4.79-9.16-.06-10.01-1.55-.38-2.63-1.07-3.23-2.06h-3.34c-.61-3.46-1.82-6.67-3.61-9.64-.16,5.54-10.24,4.96-10.58-.3-3.86-.69-3.89-3.25-3.63-6.69-6.71.08-11-5.12-10.07-11.5-3.97.55-6.42-.51-7.34-3.19l-3.64-.5c-.21-1.54,1.31-3.63,1.62-2.97.16.36-1.29,1.92-1.64,1.48-.69-.86.35-9.94,3.88-8.64.59-5.7,10.05-4.79,12.94-.1l1.48,11.53c13.41-4.02,20.04-1.93,19.89,6.25,7.14.58,11.87,2.83,10.92,10.89,7.74.5,11.74,3.58,9.94,11.49,6.76,1.03,10.23,3.29,11.73,10.21l14.6.38c-.41-8.28,1.72-12.03,10.53-11.36,1.02-8.3,2.69-11.1,11.33-10.3,2.27-7.17,6.22-7.03,10.88-1.84-1.2-12.43,2.18-17.54,10.14-15.31-1.2-12.97,6.33-18.03,22.6-15.18l2.19,3.32Z"/>
  <path class="st4" d="M30.68,20.71c1.58-.57,1.69,1.27.33,5.53,3.83,3.67,1.57,6.14-6.77,7.41,1.28,6.89-2.91,7.71-8.43,8.69l-.15,31.63-3.33,2.33-.64,9.88c-.31.72-2.65.34-3.22.25l-6.5-.35.31-48.39c3.43,1.18,8.31.19,9.11-2.14.56-1.65-1.12-6.61,1.23-6.93l6.86-.95,1.64-6.17c2.51-2.27,7.1-1.02,9.56-.78Z"/>
  <path class="st17" d="M168.62,37.63c.79,2.37.38,3.66-1.65,4.72.43,14.8-.19,29.33-1.87,43.59-.82.26-2.48,1.32-3.56,1.16l-.06-10.81-3.29-1.53.38-33.21c-7.1.09-9.9-1.54-9.71-9.29-6.51.85-8.57-2.1-10.69-7.86l-27.43-.14-2.37-3.33.04-10.14,34.47-.1.5,8.96,9.58.88c-.25,2.74.31,5.85,1.57,6.58,1.35.79,4.78.68,7.17.46,1.18,3.13.27,6.48.51,9.64,1.1,1.39,4.96,1.06,6.4.41Z"/>
  <path class="st16" d="M118.82,142c-1.93,2.4-6.59,1.7-9.88,1.2l-.6,10.24-9.96.21c-.95,3.83-.77,6.92-.37,11.42h-22.63s-.06-11.69-.06-11.69l21.72.08.04-10.22,11.5-1.07c1.95-5.01,8-5.12,10.24-.17Z"/>
  <path class="st8" d="M165.1,85.93c-.93-.57-2.01-1.82-1.99-3.67l.58-42.38,4.93-2.25c.47-.21,2.08-.45,3.42.11l-.34,47.9c-1.14,1.36-5.69.85-6.61.3Z"/>
  <path class="st3" d="M43.73,108.6l2.16.76c-.37,4.2,1.22,7.17,4.79,8.88,1.39-.32,3.22.54,3.23,2.06-1.04,5.24-9.17,4.84-10.05-.28l-11.21-1.18-.38-10.11-10.04-.18-.66-10.79-10.21.12.75-10.97c2.42.33,6.99-1.36,9.45.66,2.25,1.85.7,7.2,1.27,8.98,2.61,2.25,6.87,1.26,10.36,1.31-.27,3-1.15,8.33,1.11,9.91,2.67,1.87,7.09.81,9.42.82Z"/>
  <path class="st1" d="M65.46,19.1c1.41.51,1.31,1.02-.19,1.53l-1.79,3.36c-11.08-.42-21.9.34-32.47,2.27l-.33-5.53v-9.99s34.98,0,34.98,0c.71,3.43.1,5.92-.2,8.37Z"/>
  <path class="st2" d="M108.37,20.93c5.84,2.42,3.89,11.87-1.45,14.93-5.95-1.74-8.29.8-7.02,7.62-4.17,5.64-16.03,5.17-19.69-1-.75-1.27-.4-10.91,3.4-10.08,3.43-.11,8.35.36,12.06-1.41,2.04-1.51,1.56-7.02,1.38-9.59l11.32-.48Z"/>
  <path class="st0" d="M130.22,120.28c-.04,2.54,2.15,6.62-.7,9.9-1.57,1.45-6.22.53-8.92,1.98-.56,3.45.08,7.51-1.79,9.84-3.36-.13-6.96-.14-10.24.17l-.03-11.75,10.97-.35-.02-10.47c3.76-.75,7.25.62,10.73.68Z"/>
  <path class="st9" d="M83.61,32.41c.81,4.45-13.69,4.2-15.79,3.45-6.95-2.48-8.36-11.53-2.55-15.24l.19-1.53c9.44,1.92,18.21,5.45,18.15,13.31Z"/>
  <path class="st10" d="M141.56,108.74l-.44,10.81-10.9.73.17-11.6c4.11.06,7.69.2,10.99-1.18,1.51-.24,1.49.2.18,1.23Z"/>
  <path class="st15" d="M64.15,142.09l-10.34-.36.05-10.48c-1.48-.05-1.39-.37.11-.94l9.91,1.62c2.17,1.53,1.23,7.99.27,10.16Z"/>
  <path class="st5" d="M53.91,120.3l.06,10.01-.11.94-10.37-.31.36-10.92c3.36.35,6.73.72,10.05.28Z"/>
  <path class="st6" d="M153.02,97.41c-1.53,3.23-1.29,6.82-1.2,11.04l-10.26.29c.06-.3-.07-.84-.18-1.23-.58-2.1-1.46-6.38,1-8.66,1.5-1.4,4.81-.99,7.54-1.58,2.22-2.91,3.25-2.86,3.1.14Z"/>
  <path class="st13" d="M161.55,87.1c.16,2.49,2.14,6.98-.48,9.89-1.66,1.84-6.13.75-8.05.43-.81-.14-2.26-.33-3.1-.14,2.2-2.2,1.29-7.1,2.24-9.49,2.4-2.48,7.13-1,9.39-.68Z"/>
  <path class="st11" d="M75.31,153.38l-9.98-.08-.1-10.19c2.12-.34,7.51-1.44,9.39.91s.68,7.1.69,9.37Z"/>
  <path class="st12" d="M65.27,20.62l.29,11.94,18.05-.16-.09,11.13,13.29.3-.09-11.43,11.28.15.37-11.63,34.54.17c-1.06,2.61-.75,7.57,1.96,7.85,2.24.23,5.74-.57,6.83,1.21.93,1.51,1.09,4.26.34,7.62l10.15.68-.7,37.82-12.72-.05c-2.47,0-5.04-.9-6.64.65-3.21,3.13.08,10.6-3.62,14.4-1.13,1.16-5.02-.94-6.85-1.09-3,3.98-.72,12.25-1.93,16.03-3.22,2.82-7.71-1.73-8.7-4.55-1.9,2.68-1.72,5.13-2.79,6-1.68,1.36-5.59,1.36-8.63.48-1.86,3.31-1.25,6.6-1.16,10.55l-10.88.54-.58,11.1-21.64-.57c0-2.69.16-5.68-1.26-7.51-1.31-1.68-5.62-2.32-8.53-2.42-2.83-2.3-.21-7.27-1.12-9.33-2.96-2.81-6.87-1.87-10.58-1.92.38-3.51,1.32-9.7-1.65-10.24l-7.4-1.34c-1.71-.31-1.79-4.91-1.45-8.41l-18.88,3c-1.78-4.72-2.07-9.73-2.32-15.88l-9.84.57.18-37.39,8.91-.81c-.58-4.2-.89-6.53.33-9.64,4.53,2.38,8.83,1.12,9.26-2.21.18-1.43.79-2.94,1.7-4.91l32.56-.72Z"/>
  <path class="st12" d="M50.68,118.25l-6.8,1.55c-.88-5.31-.39-7.89-.15-11.19,2.07,0,3.93-.28,6.6.72-2,2.88-2.09,6.73.35,8.93Z"/>
  <path class="st14" d="M33.1,54.2l-.77,9.94c-1.25,1.81-6.8,1.33-9.28.47l-.18-20.47,9.3-.36.45-11.22,21.28-.35c.69,4.45.71,7.51-.41,11.53-2.75-.56-7.35-1.07-9.05.88-1.79,2.05-1.08,6.37-.79,9.25-3.68.81-6.03.51-10.55.34Z"/>
</svg>