<?xml version="1.0" encoding="UTF-8"?>
<svg id="_레이어_1" data-name="레이어_1" xmlns="http://www.w3.org/2000/svg" version="1.1" viewBox="0 0 177.48 177.48">
  <!-- Generator: Adobe Illustrator 30.3.0, SVG Export Plug-In . SVG Version: 2.1.3 Build 182)  -->
  <defs>
    <style>
      .st0 {
        fill: #fc6d99;
      }

      .st1 {
        fill: #f7346a;
      }

      .st2 {
        fill: #f62c65;
      }

      .st3 {
        fill: #fb2f6b;
      }

      .st4 {
        fill: #fa5688;
      }

      .st5 {
        fill: #fdc2d4;
      }

      .st6 {
        fill: #f62c63;
      }

      .st7 {
        fill: #fdf6f8;
      }

      .st8 {
        fill: #f72d67;
      }

      .st9 {
        fill: #f7326a;
      }

      .st10 {
        fill: #fc89ae;
      }

      .st11 {
        fill: #fb7fa8;
      }

      .st12 {
        fill: #fa5787;
      }

      .st13 {
        fill: #f82f68;
      }

      .st14 {
        fill: #fb4b82;
      }

      .st15 {
        fill: #fc81a9;
      }

      .st16 {
        fill: #f97e9f;
      }

      .st17 {
        fill: #f5386d;
      }

      .st18 {
        fill: #f53368;
      }

      .st19 {
        fill: #f6316a;
      }

      .st20 {
        fill: #fc6493;
      }

      .st21 {
        fill: #f77297;
      }

      .st22 {
        fill: #fc6998;
      }

      .st23 {
        fill: #fa396c;
      }

      .st24 {
        fill: #f8366e;
      }

      .st25 {
        fill: #fdf9fb;
      }

      .st26 {
        fill: #fc80a9;
      }

      .st27 {
        fill: #f83169;
      }

      .st28 {
        fill: #f8356a;
      }

      .st29 {
        fill: #fa4c80;
      }

      .st30 {
        fill: #fcc3d4;
      }

      .st31 {
        fill: #f83369;
      }

      .st32 {
        fill: #f9366d;
      }

      .st33 {
        fill: #fc80a8;
      }

      .st34 {
        fill: #fc79a3;
      }

      .st35 {
        fill: #f9396e;
      }

      .st36 {
        fill: #fc89ad;
      }

      .st37 {
        fill: #f7316a;
      }

      .st38 {
        fill: #f82762;
      }
    </style>
  </defs>
  <path class="st13" d="M62.67,28.22c.73.09,1.82.28,1.91.81.39,2.29.32,8.55.11,11.16.66,3.18.05,5.21-1.84,6.09l1.89.86-.14,7.79c3.66.09,5.8,1.23,6.41,3.43.72-.3,1.85-.42,1.99.06.9,3.14,1.7,6.25,2.09,9.55,1.44,1.1,2.13,3.21,2.08,6.31,3.12.64,4.67.96,4.67.96,1.55.56,1.53,10.43,1.19,11.08-.21.4-5.47.53-6.15-.17-6.12,2.03-6.22-1.14-5.57-6.56-2.95-1.73-3.58-4.84-2.72-8.01-6.57,1.18-9.4-2.08-8.47-9.76-3.68.66-6.48-.11-8.38-2.32l-32.6.02-1.13-1.9v-11.25s35.95-.07,35.95-.07l-.05-18.03,8.77-.03Z"/>
  <path class="st27" d="M155.89,56.08l-.27.71c-9.19-.08-18.34.15-27.44.7-1.87,3.95-7.3,5.5-11.7,4.39l-.57,7.67c-1.21,1.87-3.39,2.69-6.53,2.46.49,2.56-.15,4.09-1.93,4.61-2.48,1.22-3.64.83-5.31-1.01-.3-.33-.53-8.5,1.56-7.84l.65-10.15.8-1.91,7.22-.24-.2-7.79,1.87-1.31-1.9-.83.06-15.2c-6.44,1.24-8.77-2.43-6.98-11l1.97-1.67c2.47.04,4.72-.21,7.26.46l.07,9.93,9.42.05.16,18.27,31.68.07c.59,3.31.37,6.39.13,9.62Z"/>
  <path class="st24" d="M153.77,103.22l-1.88-1.05c-1.96-9.99,2.49-10.6,10.88-10.66v-12.15c-3.17.16-6.25-.09-9.24-.74-1.85-4.6-1.7-9.63.47-15.09l.14-3.95-24.58-.19-1.39-1.9c.21-.48.79-.79,1.89-.81l25.82-.59c.53.52,1.28,1.38,2.64,1.4l10.78.14.23,9.9-4.48.57c-.4,2.93-.41,5.6.02,8.68l8.64.16.04,17.67-8.84-.05-.2,8.73-10.95-.06Z"/>
  <path class="st8" d="M82.06,150.72c1.45,2.3,1.05,7.36.49,10.3l-9.47.15-.11,10.38-27.44.09.03-10.49.83-1.91,24.37-.28c-.67-4.06,0-6.78,2.04-8.16,2.96-.63,6.49-1.05,9.26-.08Z"/>
  <path class="st9" d="M34.1,120.48c.74.09,1.85.32,1.9.85.48,4.94.81,22.84-.02,27.17l-1.9,1.37h-10.31s-.09-29.46-.09-29.46l10.42.08Z"/>
  <path class="st19" d="M131.9,171.53l-27.42.05-.1-10.46c.08-.74.33-1.87.85-1.9,3-.2,25.22-.77,26.18.12,1.66,1.54,1.15,9.77.49,12.19Z"/>
  <path class="st1" d="M23.7,93.79c.2,4.09.66,7.1,1.38,9.03,7.01-.16,14.01,0,20.98.47,1.15,4.02.6,6.9-1.64,8.64,2.95-.17,2.06,8.4,1.03,9.51-1.11,1.2-11.13,2.08-11.35-.95l-.05-7.84-10.05-.35-.31-9-9.53-.03c-.57-2.64-.71-5.33-.43-8.07-1.24-.57-1.04-.99.42-1.26.51-2.98,8.7-2.96,9.55-.14Z"/>
  <path class="st18" d="M153.77,103.22l-.29,9.04-9.71-.11-.28,8.19c-1.2,3.29-8.08,3.41-9.48.25-2.94-.29-3.03-7.57-.25-8.28-2.97-.46-2.9-8.54-.07-9.29.1-.74.33-1.84.85-1.89,4.2-.39,13.68-.29,17.9.17l1.33,1.91Z"/>
  <path class="st2" d="M153.21,121.3l-.07,28.46c-3.45.5-6.18.3-9-.01-.44-9.38-.51-18.93-.2-28.64,3.02-.39,6.33-.64,9.27.19Z"/>
  <path class="st38" d="M18,57.6l1.96.9.59,7.2c4.02-.68,8.35,2.94,3.98,5.15-.5,1.95-.63,3.94-.4,6-3.95-.03-7.8.28-11.54.92,1.54-2.91,1.83-6.19.88-9.84l-6.96-.06-.03-10.25h11.51Z"/>
  <path class="st32" d="M153.21,121.3l-8.81.07-.26,28.38-.62,11.17-10.8.29c-2.52-.67-3.55-2.79-3.08-6.37-.64-6.02,3.1-8.33,11.25-6.94.65-5.32.83-10.9.55-16.76l1.9-1.34c-2.96-.57-2.7-8.71.15-9.45l7.55-.03c1.01,0,1.69.51,2.17.99Z"/>
  <path class="st35" d="M45.57,161.15l-11.46-.2-.03-11.08c-.07-3.09,11.34-1.99,12.42-1.05,1.34,1.16,2.14,11.94-.93,12.33Z"/>
  <path class="st6" d="M82.57,7.18c.38,1.54,1.04,10.69.69,11.13-.4.5-11.96.06-12.52-.88-.38-.62-.14-8.74.46-10.16l11.38-.09Z"/>
  <path class="st37" d="M104.38,161.12l-10.29.02c-.26-3.75-.7-7.31-1.3-10.7l1.26-.6c-.73-2.77,9.54-1.93,10.01-1.63,3.01,1.91,3.54,11.16.32,12.91Z"/>
  <path class="st23" d="M106.4,7.28c.6,1.99.77,11.05-.06,12.2-.36.5-11.65,1.35-11.38-1.51-1.42.16-1.66-.02-.52-.59-.25-3.46-.11-6.83.44-10.12h11.52Z"/>
  <path class="st28" d="M94.14,18.6c3.08-.86,2.03,9.74,1.06,10.78-1.12,1.2-11.37,2.06-11.62-.98-.15-5.86-.23-8.78-.23-8.78-2.03-.89-1.31-1.41.85-1.86.62-.02.91.01,1.09.12,3,.26,5.95.5,8.84.73Z"/>
  <path class="st3" d="M71.25,18.64c3.02-.15,2.11,9.44,1.1,10.54-1.14,1.25-9.51,1.96-9.69-.96l-.04-10.04,7.64-.36c.73-.81,1-.28.98.82Z"/>
  <path class="st21" d="M24.53,70.85l1.9.99c2.72,7.82-4.8,8.01-10.54,7.75l.15,13-1.88,1.34v9.33c-1.58-2.19-.92-5.27-.83-8.49l-9.62-.12v-17.94s9.89.08,9.89.08l-.12-8.87c1.34,2.38.82,5.44.2,8.89l10.06-.2c-.22-2.35-.35-4.37.79-5.77Z"/>
  <path class="st16" d="M82.57,7.18c2.06,2.08.13,6.35,1.64,10.58-.68,3.05-1.02,7.1-.63,10.64-2.76-.61-3.74-3.13-2.93-7.53l-8.14-.28-1.26-1.94c0-.55-.44-.84-.98-.82l-.1-8.72c-.01-1.02.37-1.71,1.02-1.84v10.44s11.35-.02,11.35-.02l.03-10.51Z"/>
  <path class="st5" d="M94.05,149.84l.04,11.3c-.54.2-1.02-.19-1.03-.92l-.07-9.43h-9.44s-.06,9.44-.06,9.44c0,.65-.4,1.06-.93.79l-.49-10.3c1.86-3.61,9.91-4.3,11.99-.88Z"/>
  <path class="st16" d="M94.95,17.98c.26.92,0,1.13-.81.62-2.87.03-6.29.79-8.84-.73l8.62-.19v-8.58c0-.99.37-1.67.95-1.83l.07,10.71Z"/>
  <path class="st30" d="M107.17,17.69c-.09,3.55-.56,7.01-.33,10.83l7.25-.08-.07,17.96-.05,1.27c-2.22.78-4.83,1.04-7.81.78l.06,7.71-1.89,1.49-.68,11.03c-.51.74-8.84,1.42-9.24,1.15-2.32-2.06-3.11-5.25-2.38-9.57-7.51-2.18-7.44-.11-7.03,6.89-1.82,2.69-7.94,4.31-9.93.83-.62,0-1.97-.27-2.41-.8-.39-.47.24-1.83,0-2.72l-1.66-6.09-1.99-1.14-.67-8.69c-2.95.66-4.79-.09-5.5-2.25l-.17-18.05,8.53-.04.05-9.54,11.69.4c-.58,3.78-.94,6.98.65,9.36l10.48-.04.08-9.76c.25-.04.6-.45.81-.62l11.27-.13.18-10.57c.69,0,1.01.87.98,1.81l-.21,8.6Z"/>
  <path class="st5" d="M128.17,57.49h27.5c2.04,7.64-3.37,12.42-1.12,19.85l10.13.06v16.41s-10.73.07-10.73.07l-.17,9.35-20.08-.19c-.77,1.72-2.62,2.18-5.57,1.38-2.48.04-3.25,2-2.29,5.88,4-.67,6.64.01,7.93,2.03l.25,8.28c1.93.37,2.68,2.39,2.23,6.03,3.82.1,6.19,1.16,7.11,3.16l.04,20h-11.37c-.66,4.28-.78,8.12.72,11.42.54,1.19.74,9.58-.83,10.32l-.17-10.54-27.35.13-.03-11.06-10.3-.22c-3-.62-2.92-9.5-.06-10.41-.74-.09-1.82-.29-1.91-.83-.41-2.58-.31-9.15-.11-12-.67-3.23-.05-5.31,1.84-6.23.59-3.32,9.76-2.51,11.58-.28l.74,6.9c.62.33,5.65.18,5.98-.64.23-.57.03-11.69-.27-12.22-4.01.64-6.66-.05-7.96-2.08-2.92.15-3.42-8.01-.61-8.94-.39-2.87,5.94-2.8,6.48-.06,4.13.45,5.75-2.83,4.84-9.83l7.57-.43c-.48-2.53.16-4.06,1.94-4.61l.33-2.21c6.34-3.98-8.99-4.32-10.45-.84.4.86.37,1.51-.09,1.94l-1.65,1.63c-6.09.36-12.1.24-18.05-.34l-.38-2.21c-.25-2.97,9.02-2.85,9.68,0,.49-2.66.71-5.38.68-8.16-1.44-1.03-.36-1.49,3.26-1.36l.05-6.61,6.55-.2.51-9.93c2.37-.15,6.35,1.18,8.34-.13,2.19-1.44,2.74-2.26,5.29-2.26Z"/>
  <path class="st5" d="M76.86,86.13c.83.26.82.57.01.94l-.91,1.86-10.59-.36c-.2,1.34-.11,2.48.28,3.4l16.97-.07c1.65.23,1.8,1.36.92,2.81l-.83,1.9-17.99.06c-1.09,3.85.65,5.33,5.22,4.44,2.99-.06,4.31.95,3.96,3.03,2.48,3.14,2.08,8.43-1.88,10.27.18,2.24-.42,3.64-1.79,4.2-.79.42-2.07.59-2.29-.04.09-1.9-1.55-6.75-3.05-4.71-.59.8-1.09,12.58-.6,13.62.14.28,6.05.04,6.28-.18-1.35-8.72,4.1-8.7,11.26-8.48.32.18,2.96,2.56,3.23,2.93.48.66.26,14.75.1,16.33l-1.89,1.35c3.17,1.62,2.71,9.41-.79,10.81-3.25-.21-6.47-.02-9.65.56l-.17,10.05-27.06.29.02-11.13-11.5-.15.02-29.38,10.19-.06.12-8.5c1.61-1.5,4.16-2.11,7.68-1.83l-.2-5.39-6.91-.11-1.19-1.72-19.34-.06c-.04-3.13-.29-6.14-.74-9.03l-9.55.14-.19-16.55,10.57.17v-6.69c0-.87.15-2.52-.61-2.85-1.29-.55-3.22-.57-5.27-.11l-.66-10.3,35.45-.02c.08,1.19.28,1.66.6,1.96.25.23,1.17.4,1.77.39l6.06-.09.66,9.87c3.21-.18,5.72-.38,8.74.42-1.78,3.19-1.83,7,1.96,8.28l-.3,7.92,3.92-.19Z"/>
  <path class="st33" d="M104.34,57.64l-.35,18.28c-.02.93,2.89,1.12,3.44.71l-2.41,1.29c-1.74.93.64,5.92-1.53,8.24-1.79-.98-2.46-3.43-2-7.36-3.69,1.11-6.24.75-7.65-1.08-1.93-.3-2.54-2.45-1.82-6.44-2.11-.53-4.38-.66-6.83-.38l.17,14.77c-1.32,4.05-6.5,4.79-8.48,1.41v-.94s5.69-.08,5.69-.08l.04-8.99c-2.49.29-5.87.03-7.05-1.81-1.34-2.1-.49-5.28-.48-7.29l8.03-.3.04-9.94,10.78.08.02,10.3c3.19-.44,6-.99,9.24-.09l1.14-10.36Z"/>
  <path class="st15" d="M71,58.35c-2.36-1.14-5.04-1.09-8.36-.91l.2-11.16c1.99.72,4.42.34,7.26.26l.91,11.82Z"/>
  <path class="st34" d="M114.02,46.39l.29,11.18-9.97.07c.07-3.6-.63-7.26,0-11.07l9.68-.18Z"/>
  <path class="st17" d="M93.99,139.43l.06,10.41c-4.15-.09-8.08-.37-11.99.88l-9.26.08c2.81-1.68,6.08-1.04,10.19-.89l.25-10.48c2.65-2.38,8.12-2.39,10.75,0Z"/>
  <path class="st0" d="M44.42,111.93c.04-2.94.26-6.06-.16-8.86l-20.55.19v-9.46c.4,0,.94.11.94.82l.04,7.77,29.28.45.03,9.1c-3.39.67-6.44.33-9.58,0Z"/>
  <path class="st20" d="M133.69,103.03l.07,9.29-9.77-.16c.12-2.36-1.05-6.76.77-8.5,2.25-2.14,6.57-.64,8.93-.63Z"/>
  <path class="st36" d="M143.49,120.34l-.15,9.45-8.91-1.29-.43-7.9c3.09.23,6.27.31,9.48-.25Z"/>
  <polygon class="st31" points="13.29 93.61 4.66 93.67 4.65 77.63 13.43 77.47 13.29 93.61"/>
  <path class="st25" d="M93.84,77.72c2.94.43,2.78,7.77-.03,8.43,5.2,2.57,12.73-.68,20.08.92,2.07,1.51,3.28,5.63.44,7.55,0,0-4.78,0-14.35,0,.03,1.72-1.18,2.38-3.64,2-.99,1.12.01,1.9,2.99,2.32,2.15.97,3.46,2.37,3.94,4.18l.61,8.94c-.16,3.05-9.13,2.98-9.93.19l-1.93-.99-.21-7.56c-4.13.49-6.88-.27-8.26-2.3-.58-.26-.53-.54.08-.84-2.86.01-2.8-5.3-.1-5.84-.11-.64-.82-1.02-1.84-1.01l-18.34.2.16-7.38,13.36.55,6.6-.05-.2-18.04,10.68-.06-.1,8.8Z"/>
  <path class="st26" d="M93.81,120.37l.18,19.06c-3.53.48-7.11.46-10.75,0l-.12-18.75-10.72.31.06,8.36-10.32.03.43-17.25c2.79-.26,4.73-.34,7.15.27-.8,2.7-.81,4.81.5,6.22,1.9-.92.95.71.95.61-.17-4.56,3.91-10.29,8.9-9.12.07-3.98,1.2-5.96,3.41-5.93l1.86.92c-.45,4.62-.47,9.1-.06,13.42,4.18-.78,7.03-.16,8.54,1.86Z"/>
  <path class="st12" d="M83.54,94.71l.1,5.84c-.32,2.08-1.88,3.12-4.68,3.12-2.11,1.6-3.8,1.76-5.07.47-3.27-1.74-6.96-1.12-11.07-.97l-.07-8.39,20.78-.07Z"/>
  <path class="st22" d="M62.76,94.61h-9.05s-.65-13.15-.65-13.15c3.37-.54,6.29-.7,9.64-.13l.06,13.28Z"/>
  <path class="st7" d="M83.63,100.55l-.08.84c2.74-.02,2.52,2.16-.08,2.78-1.55,2.08-.91,4.58-.57,8.02-2.48,0-5.53-.83-7.1.48-3.22,2.69-3.88,11.95-5.58,5.94.09-1.44-.63-4.02.34-5.61.65-.36,2.89-.77,2.88-2.02-.03-2.61-.3-4.84.46-6.84l3.75-1.96c1.93-1.01,4.26-.52,6-1.63Z"/>
  <polygon class="st27" points="103.49 86.15 93.81 86.14 93.84 77.72 103.74 76.64 103.49 86.15"/>
  <path class="st11" d="M103.89,112.05l9.82.22.37,16.64-9.75-.02-.57-8.62-9.93.1c-2.93.28-2.67-7.61.15-8.13l9.93-.19Z"/>
  <path class="st4" d="M99.98,94.6c4.4-.52,8.82-.58,13.27-.19l1.54-.85c-.4,2.88-.6,5.82-.6,8.84l-4.44.64-6.48.06c-3.76.04-3.41-4.03-9.04-2.8l-.2-5.54,5.95-.16Z"/>
  <path class="st14" d="M124.11,88.16c.01,3.73-7.95,3.1-9.66,1.14l-.46-4.18c.04-.94-.27-3.59.73-3.78,4.65-.76,8.86-.21,12.95.1.41,1.79.59,4.03-.43,5.05-.64.64-2.09,1.25-3.12,1.68Z"/>
  <path class="st10" d="M124.11,88.16l-.06,6.62-9.35.06.13,8.3-5.07-.1c.93,0,2.99-.72,3.8-1.17.85-1.88.37-4.76.24-7.1l-13.82-.17c4-1.39,8.86-.95,13.98-.48l-.07-7.07.09-1.94c.66.91.85,2.08.99,3.67,3.3-.28,6.46.49,9.14-.62Z"/>
  <polygon class="st29" points="93.96 112.23 93.81 120.37 82.77 120.42 83.47 104.17 83.55 101.39 93.67 101.78 93.96 112.23"/>
</svg>