<?xml version="1.0" encoding="UTF-8"?>
<svg id="_레이어_1" data-name="레이어_1" xmlns="http://www.w3.org/2000/svg" version="1.1" viewBox="0 0 177.48 177.48">
  <!-- Generator: Adobe Illustrator 30.3.0, SVG Export Plug-In . SVG Version: 2.1.3 Build 182)  -->
  <defs>
    <style>
      .st0 {
        fill: #b75d07;
      }

      .st1 {
        fill: #bc6a0c;
      }

      .st2 {
        fill: #ba650d;
      }

      .st3 {
        fill: #c2650a;
      }

      .st4 {
        fill: #c16c06;
      }

      .st5 {
        fill: #fddb3b;
      }

      .st6 {
        fill: #fde86b;
      }

      .st7 {
        fill: #bc5904;
      }

      .st8 {
        fill: #b9630f;
      }

      .st9 {
        fill: #c36308;
      }

      .st10 {
        fill: #c06504;
      }

      .st11 {
        fill: #fbc10e;
      }

      .st12 {
        fill: #fcf4c6;
      }

      .st13 {
        fill: #bb6406;
      }

      .st14 {
        fill: #fdf3bd;
      }

      .st15 {
        fill: #bd6006;
      }

      .st16 {
        fill: #b95d09;
      }

      .st17 {
        fill: #fcfaf3;
      }

      .st18 {
        fill: #f6c00d;
      }

      .st19 {
        fill: #fbc109;
      }

      .st20 {
        fill: #b95f0c;
      }

      .st21 {
        fill: #c46909;
      }
    </style>
  </defs>
  <path class="st5" d="M81.12,13.82c.71-5.4,17.84-4.69,19.33.32,3.06.05,6.69-1.29,9.4,1.21-.34,2.89-2.25,3.93-5.71,3.12l-.38,7.52c1.2,3.5.78,6.12-1.25,7.87,1.46,3.51,2.43,7.48,2.92,11.92,2.18,3.39,4.69,5.87,7.53,7.43,1.82,5.37,1.09,8.94-2.19,10.72,2.21.01,3.81,1.8,4.78,5.38l33.67,1.15c-.48-3.8.73-6,3.62-6.61.12-5.24,9.17-4.54,11.19.17.36.84-.96,9.11-1.45,10.46-.06,2.89-1.79,3.92-5.2,3.08-5.02,2.71-11.06,6.65-13.1,11.49-2.41,1.33-5.13,1.92-8.17,1.75,1.01,8.19-2.94,9.65-10.25,9.58.24,10.94.68,21.91,1.34,32.91,2.79-.79,4.36-.45,5.55,2.58,5.42-.41,4.17,18.46,2.58,20.33-4.57,5.36-20.08,1.27-20.18-6.66-7.96-1.88-14.14-5.17-18.53-9.89-2.11-.66-4.28-.87-6.48-1.01-5.64-.34-18.33.81-17.92,7.73-8.34,1.77-12.83,4.06-16.86,11.82-2.54,1.45-19.61.92-19.36-4.24-4.87-.67-4.65-6.82,0-7.88.2-3.22.48-4.07,3.56-4.44-.09-3.97,1.39-5.84,4.42-5.6.52-1.45,1.11-1.42,1.76.02,2.98,5.37,4.81,2.97,5.49-7.2,2.05-7.49.72-10.57-4-9.26l-1.65-3.7c-2.95.59-4.15-1.3-3.6-5.66-3.53-.51-5.61-2-6.25-4.46-2.88-.45-3.89-2.55-3.01-6.29-2.36.58-4.55.28-6.56-.9l-2.42-2.68c-.1-4.67-1.3-6.6-3.62-5.78l-2.22-3.17c-7.44.93-6.74-15.38-5.79-20.81l3.35-2.27c-.02-5.01,9.2-4.84,10.05-.08,2.98-.36,4.02,1.59,3.13,5.85,1.34,1.41,37.15.99,38.9.11.85-.43.57-2.6-.75-2.63-7.19,1.34-12.03.25-14.53-3.28-.83-4.21,1.28-4.88,5.09-5.08-1.35-8.66,10.51-11.79,13.98-5.31,2.7.76,3.76,2.95,3.18,6.57,3.34.97,4.49-2.32,3.45-9.87-2.1-8.77-.64-14.74,8.94-9.67.78-.77,1.02-20.84.55-21.83-.25-.53-1.33-.08-1.75.88,1.1,7.26-.16,12.06-3.78,14.42l-3.45-1.6-.85-13.21c-3.44.27-5.41-.98-5.91-3.74,2.76-2.41,6.36-1.61,9.43-1.56Z"/>
  <path class="st13" d="M154.13,95.88c-.82,2.89-1.25,5.78-1.28,9.91l-9.3.99.53,28.96,8.7.52v28.06c-3.08.85-5.17.77-8.48.41l-.42,9.74-24.89-.03-1.31-10.64c-4.91.24-4.79-7.28-.11-8.25,4.55-1.05,4.87,1.25,4.93,5.22.81.3,16.62.94,17.18.28.72-.84.64-20.21-1.4-21.46-3.06.11-4.87-.39-5.57-3.72-1.29-.38-3.22-.95-3.3-1.95-.73-8.89.18-22.08,2.22-30.37,2.61-.83,5.44-1.14,8.47-.94-.76-6.63,1.2-10.1,8.41-9.75.63-4.76,2.55-6.67,5.77-5.71,4.96,2.12,5.12,7.01-.17,8.73Z"/>
  <path class="st21" d="M81.91,33.93c-.61,2.43-2.78,3.6-6.53,3.52l-.61,13.84-3.44,2.15-10.31.43-.55,8.41c-3.34-.2-6.31-.15-8.21,1.56.61,4.94-23.23,3.94-24.38,3.29-1.27-.71-1.94-2.01-2.37-3.35l-10.05.08c-.17,1.5-.55,1.41-1.11-.09l1.24-10.18,36.4-.8c-1.11-3.96-.69-8.65,1.13-8.85l7.01-.77c2.07-1.9,1.33-7.16,1.15-9.98l9.98-.18.44-17.63,9.04.29,1.18,18.26Z"/>
  <path class="st4" d="M164.05,64.01l3.39,1.72c-.32,7.62.33,14.83,1.95,21.61l-6.54.03c-5.11-.44-5.16-11.8-.3-12.9-.08-3.31.01-6.6,1.41-10.43l-11.15-.2c-.16,1.29-.52,3.18-1.48,3.35-4.11.7-13.74.27-18.45.04-6.77,1.23-11.29.12-13.58-3.32-5.34-1.3-5.16-17.94-.12-20.06l9.69.09.53,9.68,33.33-.1,1.32,10.48Z"/>
  <path class="st10" d="M45.56,115.89c5.33,1.35,5.24,18.28.16,20.17l-1.76-.02c-.63,4.89-7.09,4.7-8.26-.05l.02-30.22,9.42.43.43,9.69Z"/>
  <path class="st20" d="M35.69,135.99c5.07-.03,4.96,8.99.28,10.09v7.88c2.57.3,4.02,2.63,4.34,7.01l18.11.24,2.3,3.37c2.67-.23,2.92.09.57,1.01.77,3.1.62,6.02-.45,8.77l-25.01.27-.15-9.86c-3.98.38-6.57.44-9.72-.49l.04-28.31,9.68.03Z"/>
  <path class="st2" d="M109.84,15.35l.24,17.64,9.16-.22-.07,11.09c-2.05,2.23-3.08,3.35-3.08,3.35-4.51,16-11-1.63-9.92-10.61,0,0-1.23-.91-3.7-2.74-3.11-5.12-2.01-11.66-1.53-18.86l8.89.36Z"/>
  <path class="st3" d="M14.34,63.77c.34.07.78.1,1.11.09l-.08,16.94c-.01,2.78.8,4.89,2.52,6.14-.02,3.26-1.32,3.39-2.4.28l-9.65-.22v-23.13c3.15-1.05,5.87-.66,8.51-.11Z"/>
  <path class="st8" d="M107.96,155.49c.21,4.94-6.52,4.8-7.56.13l-19.33-.27-.53,9.33-18.85.43c1.56,3.47,1.24,8.81-.83,9.24l-.13-9.78-3.25-1.82c-.76-9.16,5.72-12.69,19.44-10.6-.44-13.9,15.87-10.62,25.71-8.27-.04,5.57,1.35,8.2,4.17,7.89l1.16,3.71Z"/>
  <path class="st16" d="M100.45,14.14l-19.33-.32.55-9.22,18.35-.05c.81,3.65.56,6.61.43,9.59Z"/>
  <path class="st15" d="M169.39,87.35c-.88-.56-4.77-1.61-4.81-3.42l-.53-19.92c2.94-.64,5.96-1.21,9.02-.79l-.23,22.53c-.02,1.84-2.54,1.59-3.45,1.59Z"/>
  <path class="st7" d="M107.96,155.49c.47-5.05,9.47-5.29,9.62.06l.11,8.25c-5.37,1.11-10.73,1.32-16.91.76-.81-3.79-.51-6.32-.38-8.94l7.56-.13Z"/>
  <path class="st1" d="M35.71,105.77c-3.11-.04-6.23,1.02-9.68.13l.12-7.31c1.9-2.41,5.36-2.89,9.47-2.15.89,3.13.1,6.3.09,9.34Z"/>
  <path class="st9" d="M23.72,95.9c-1.57.43-6.08,1.39-7.56-.39-1.93-2.31-.85-6.31-.68-8.29l2.4-.28c2.25-.26,6.55-.52,7.65,1.36,1.6,2.72.78,6.6-1.81,7.6Z"/>
  <path class="st0" d="M162.86,87.38l.62,9.23-9.35-.73c.76-2.66.19-5.95.17-8.73-.42-4.99,7.81-4.49,8.56.23Z"/>
  <path class="st11" d="M132.72,135.87c2.76-.2,5.6.89,10.43.21l-.11,28.37-24.58-.41c.18-2.53,1.56-7.07-.88-8.49-3.18-.62-6.46-.11-9.62-.06-1.97-.76-5-.43-6.27-1.55-1.62-1.43-1.74-5.21-1.06-8.45l-19.63.16c-.07,4.12.26,7.11-.79,9.79l-19,.3-.47,8.83-24.42-.32-.34-10.3,17.75,1.84c2.53-7.41,8.7-11.81,16.56-11.3-.18-3.09.39-6.47,1.63-6.59l5.4-.56c6.52-2.68,16.1-2.74,22.06-.24.89,1.25,1.35,4.96,2.76,5.03l5.15.27c4.05,1.92,6.58,4.34,11.3,4.02l1.19,7.44c4.38,1.12,8.1,1.46,13.42.53l-.46-18.52Z"/>
  <path class="st19" d="M162.56,74.48l.3,12.9-8.56-.23c-1.8,2.13-1.96,4.77-1.73,9.16-3.63.07-6.55-.68-9.55.92.69,2.73.75,6.34-.28,7.57-1.47,1.76-5.58,1.64-9.35.51l-.67,30.56-8.8,1.26-.46-16.11c-.23-7.97-2.48-15.48-.91-23.72l10.96-.94c-1.69-3.65-.93-9.07,2.03-9.12,2.52-.05,5.85.5,6.99-.97.87-1.12,1.05-3.77,1-6.58,5.33,1.14,9.14-.71,10.72-5.64l8.3.43Z"/>
  <path class="st12" d="M71.33,53.44l.85-19.44c3.6-.67,6.13-.51,9.73-.07l.57-18.81,8.32.13-.09,28.4c-4.78,1.32-7.3-1.43-11.06-2.9,2.5,8.13,1.76,15.51,1.13,22.55-3.02.42-7.04.8-8.64-.69-1.73-2.09-.92-6.48-.8-9.17Z"/>
  <path class="st17" d="M52.25,63.84l18.3-.08c.85,3.29.88,5.42.5,9.31l-45.9.27.35-9.56,26.75.05Z"/>
  <path class="st6" d="M119.3,63.92l33.52-.07-.18,10.07-41.4-1.41-.49-8.58c-.57-4.97,7.67-4.72,8.55-.01Z"/>
  <path class="st14" d="M45.71,136.06l-.16-20.17c2.22.49,5.51,1.06,7.49-.06,2.48-1.4,1.41-5.33,2.04-8.01.53-2.27,5.69-2.15,6.78-.46,1.43,2.22,1.71,7.16.61,7.56l-7.25,2.65c.43,13.17-4.06,26.57-3.86,26.56l-4.87.29c-.89-2.63-.76-5.68-.78-8.35Z"/>
  <path class="st18" d="M119.18,43.86l.12,20.06h-8.55s-.93-10.5-.93-10.5c-8.8-2.82-10.72-12.59-7.33-19.56,1.15-.55,5.39-1.1,6.78.21,1.35,6.48-.02,12.9,2.57,18.57.79-3.12.24-6.33,2.15-8.03,1.1-.98,3.68-.77,5.19-.75Z"/>
  <path class="st11" d="M43.95,136.04c-1.36,2.07-.39,4.7.47,7.73l-8.46,2.32-.28-10.09,8.26.05Z"/>
</svg>