<?xml version="1.0" encoding="UTF-8"?>
<svg id="_레이어_1" data-name="레이어_1" xmlns="http://www.w3.org/2000/svg" version="1.1" viewBox="0 0 177.48 177.48">
  <!-- Generator: Adobe Illustrator 30.3.0, SVG Export Plug-In . SVG Version: 2.1.3 Build 182)  -->
  <defs>
    <style>
      .st0 {
        fill: #fc89af;
      }

      .st1 {
        fill: #d30641;
      }

      .st2 {
        fill: #d6134c;
      }

      .st3 {
        fill: #c80441;
      }

      .st4 {
        fill: #d60743;
      }

      .st5 {
        fill: #d20541;
      }

      .st6 {
        fill: #d20b47;
      }

      .st7 {
        fill: #fb8db3;
      }

      .st8 {
        fill: #fdf5f8;
      }

      .st9 {
        fill: #de0942;
      }

      .st10 {
        fill: #fb73a3;
      }

      .st11 {
        fill: #fdc2d4;
      }

      .st12 {
        fill: #d1063e;
      }

      .st13 {
        fill: #ca0542;
      }

      .st14 {
        fill: #fdc6d7;
      }

      .st15 {
        fill: #ca1247;
      }

      .st16 {
        fill: #cf0642;
      }

      .st17 {
        fill: #fb73a4;
      }

      .st18 {
        fill: #fcc7d7;
      }

      .st19 {
        fill: #d10743;
      }

      .st20 {
        fill: #fb6fa0;
      }

      .st21 {
        fill: #d40545;
      }

      .st22 {
        fill: #f96b9d;
      }

      .st23 {
        fill: #d41046;
      }

      .st24 {
        fill: #fb75a5;
      }

      .st25 {
        fill: #f45a8b;
      }

      .st26 {
        fill: #f14a81;
      }

      .st27 {
        fill: #fdf9fb;
      }

      .st28 {
        fill: #c80644;
      }

      .st29 {
        fill: #f775a0;
      }

      .st30 {
        fill: #fb74a1;
      }

      .st31 {
        fill: #cd0443;
      }

      .st32 {
        fill: #fc9bbc;
      }

      .st33 {
        fill: #fdc5d7;
      }

      .st34 {
        fill: #d40943;
      }

      .st35 {
        fill: #e46e90;
      }

      .st36 {
        fill: #d30744;
      }

      .st37 {
        fill: #d20d44;
      }

      .st38 {
        fill: #ce0645;
      }

      .st39 {
        fill: #ce0741;
      }

      .st40 {
        fill: #fa6394;
      }

      .st41 {
        fill: #ce0642;
      }

      .st42 {
        fill: #d2124b;
      }

      .st43 {
        fill: #df1a55;
      }

      .st44 {
        fill: #fa7da7;
      }

      .st45 {
        fill: #ce0745;
      }

      .st46 {
        fill: #fa96b7;
      }

      .st47 {
        fill: #ca0340;
      }

      .st48 {
        fill: #fdf3f6;
      }

      .st49 {
        fill: #cf0b47;
      }

      .st50 {
        fill: #fb77a5;
      }
    </style>
  </defs>
  <path class="st31" d="M104.55,48.13c2.66.6,2.52,8.51-.03,9.33,1.48.12,1.93,1.43,1.36,3.94l6.02.82c3.22,1.47,4.08,5.98,1.13,7.78-2.48.73-6.06.69-8.46,0-.48,4.08-.74,8.26-.79,12.54-.22,2.99-7,2.88-7.61.17-.65-.07-1.54-.21-1.7-.73-.4-1.3-.6-8.68,1.24-8.65l.1-16.05c-.22,2.71-8.21,2.49-8.89,0-.59,2.66-8.51,2.54-9.33,0-.34,8.94-.6,17.92-.77,26.94-3.74.93-6.32.41-7.75-1.54l-1.69-.91-.16-9.34c-7.23,1.56-8.52-6.33-4.17-9.97l4.2-.21c-.53-2.81.05-4.69,1.73-5.66-2.41-.13-2.24-2.05.08-2.56l-.45-4.83c-1.61-.51-3.39-.88-5.36-1.11-.74-2.44-.67-6.71-.04-9.57l7.76.08.32,9.64,33.27-.1Z"/>
  <path class="st50" d="M69.1,91.11c.66.18,1.64.47,1.68.98.21,2.27.16,17.06-.63,17.9-.27.28-.68.44-1.13.56l-.06,18.06c-3.1.75-5.78.34-8.36.37.31,2.52-4.53,2.46-5,.05-.75-.1-.75-.34-.05-.72l-1.68-.97.17-15-15.24-.11-1.21-1.69c-.07.73-.12.73-.18,0-3.01-1.25-1.34-7.96-.61-10.88,5.53-.87,11.18-1.17,16.95-.89l.13-6.53,1.7-1.14c.08-.65.25-1.61.72-1.69,1.3-.21,11.14-.3,11.65,0,.63.36.95,1.02,1.16,1.69Z"/>
  <path class="st3" d="M28.54,91.21c.18-.66.44-1.62.96-1.69,2.59-.33,16.7-.45,18.89,0l1.2,1.69c.29-2.58,5.44-2.52,5.98-.1l-.09,9.34-17.67.14-.4,9.96c.12,2.75-6.55,1.99-8.4.9.41-3.69.22-7.23-.56-10.64l-17.6-.02.15-9.69c.09-.65.27-1.59.77-1.68,1.51-.26,14.11-.2,15.57.1l1.2,1.69Z"/>
  <path class="st16" d="M163.69,91.06c-.67-.07-1.67-.31-1.69-.78-.52-14.32-.62-30.94,0-45.26-.6-3.31-.03-5.41,1.69-6.3.04-.75.26-.74.66-.04,2.4-.16,4.86-.6,7.69.1v52.27s-8.35,0-8.35,0Z"/>
  <path class="st47" d="M162.77,100.5l-5.84-.05c-3.37.54-6.86.54-10.23-.05l-.75-.02c-.46,3.66-.74,7.44-.84,11.35-4.94.93-9.94,1.4-8.31-4.85-1.36-.69-1.85-2.21-1.49-4.57l-12.65-.1-1.21-1.69c-.55-2.89-.59-5.82-.1-8.78l41.85-.02c.21,2.99.07,5.91-.43,8.77Z"/>
  <path class="st41" d="M10.11,38.73l.84,3.69c.5,10.16.63,20.57.38,31.24.67.17,1.22.39,1.34.74.33.97.22,13.68.01,15.69l-1.69,1-9.03-.03.32-52.33c3-.58,5.47-.39,7.82,0Z"/>
  <path class="st42" d="M63.22,38.51l.04,9.57c-.17.76-.46.77-.84.08-.39.04-.78.04-1.12-.06-.7-.22-1.58-9.37,1.14-9.4l-1.69-.89c.79-4.97-.32-6.75-3.31-5.33.52,3-.08,4.9-1.8,5.7-2.53-.04-3.29-2.24-2.28-6.59l-31.7-.18c-.62,1.76-.82,3.89-.61,6.39-.1,3.62-8.14,3.92-9.23,1.01-.25.73-.53.72-.84,0-.29.72-.58.69-.86-.06,2.03-3.22-.3-7.31,1.71-9.26l1.69.91c-.75,5.21.36,7.01,3.34,5.39-.89-3.55-.32-5.61,1.7-6.17.64-2.66.48-5.32.44-9.19l36.41-.14.13,9.42,7.68-.11v8.92Z"/>
  <path class="st45" d="M155.4,20.44c.38,2.95.62,6.27-.25,9.04.13,2.34-7.38,2.06-9.37,1.74-.24-.04-.41-.58-.54-1.26-4.6.19-9.17.08-13.72-.35-.36,1.55-1.07,1.57-1.57.08-1.3.33-8.29.57-8.73.17-.53-.48-.25-7.89.01-9.31l34.17-.11Z"/>
  <path class="st21" d="M18.63,120.61l1.13.04c.66,1.97.92,4.27.77,6.9,3.99-.48,7.2.13,9.65,1.83,1.36,4.55.56,7.2-2.43,7.97l-17.61-.04v-16.69s8.49-.01,8.49-.01Z"/>
  <path class="st43" d="M104.57,70.84l1.66.8-.17,9.35c3.31-.57,5.46.03,6.45,1.79.48-2.63,7.67-2.4,8.3.13,1.79.73,2.43,2.81,1.94,6.23,1.56.17,2.58.81,3.03,1.93.18-.66.45-1.62.96-1.69,3.2-.39,9.44-.19,12.81.01,3.1-.59,5.12-.03,6.03,1.69.08-.65.26-1.61.75-1.69,1.66-.26,14.71-.34,16.13-.02l1.21,1.69-.04,7.66c0,.89-.44,1.48-.88,1.77l-.06-8.6-41.1.04-.15,8.59c-2.57-.57-3.37-3.06-2.4-7.46l-13.42-.26-1.16-1.71c-2.61.43-3.16-7.78-.68-8.56l-.03-11.66c0-.59.48-.94.82-.88.73.25.72.53,0,.85Z"/>
  <path class="st16" d="M163.63,120.55c.44,5.35.54,10.78.28,16.28l-17.24.39c-.74.51-1.32.89-1.34.81-.11-.79-.06-8.3.26-8.58l9.68-.12c-2.64.18-2.51-8.11.03-8.74l8.32-.04Z"/>
  <path class="st6" d="M60.6,128.98l-.15,8.15c-.88-.1-3.2.42-3.22,1.12l-.2,10.65-7.86.31c-1.75,2.79-8.52,1.89-11.5,1.18-2.17-2.42-6.01-.03-8.52-1.9.81-1.6,2.95-2.23,6.43-1.88l-.1-8.15,1.67-1.2c1.18-1.37,2.04-.88,2.37.82-.11,3.01-.03,5.96.26,8.83,2.8.33,5.34.19,7.63-.4l.08-8.16,1.7-1.14c.02-1.52,1.58-2.12,4.67-1.8-.59-3.28-.01-5.41,1.73-6.4l5-.05Z"/>
  <path class="st2" d="M121.38,136.75c3.42-1.13,2.82,8.31,2.38,10.56l-1.7,1.12c-.33,1.98-.89,2.3-1.15.3-2.36.33-4.68.22-6.96-.32v-8.42c-.02-3.89-1-7.41-.86-10.99-1.2-2.43,7.48-1.9,7.73-1.53.04,3.09.23,6.19.56,9.28Z"/>
  <path class="st28" d="M96.18,82.7c2.63.49,2.49,7.74-.04,8.43l-18.73.02c-2.63-.45-2.48-7.63.04-8.27.07-.66.27-1.64.74-1.69,2.15-.23,16.58-.39,17.42.4.29.27.45.67.57,1.12Z"/>
  <path class="st5" d="M104.44,103.8c2.53-.03,2.48,5.34.03,5.8l-.35,1.53c-2.69.04-5.33-.19-7.93-.68l-.05-19.31c.47-2.65,6.95-2.18,7.93-.34-.17,4.39-.05,8.72.37,13.01Z"/>
  <path class="st38" d="M76.75,110.59l-7.73-.04.08-19.44c-1.19-2.43,7.3-1.74,7.57-1.39,1.14,1.46.42,17.97.08,20.87Z"/>
  <path class="st25" d="M77.65,65.84c2.64.48,2.51,7.71-.01,8.4,2.64-.16,2.37,8.08-.18,8.63l-.04,8.27.22,17.69c.01.89-.44,1.48-.89,1.75l.06-19.29-7.71-.19c-2.64-.48-2.54-7.73-.02-8.45l7.68.1-.07-22.97c0-1.2.15-2.07.91-2.53,2.69-.14,2.51,7.82.05,8.58Z"/>
  <path class="st46" d="M104.58,110.59l1.69.76v15.09c1.96.52,3.68.51,5.15-.02l-.09-8.12,1.67-1.17c1.88-.78,2.46,0,2.64,1.87,2.59-.33,5.54-.6,7.08,1.86.39.62.48,12.99.34,14.67l-1.68,1.22c-1.43-2.01-.86-4.86-.42-7.74h-7.87s-9.35,0-9.35,0v-17.61s-6.03.03-6.03.03c-.87,0-1.51-.22-1.51-.97,2.78.04,5.79.55,8.28-.85,1.61-.33,1.68.33.11.99Z"/>
  <path class="st39" d="M49.16,149.21l.04,9.22-11.37.07-.17-8.11c1.43-1.82,5.32-.93,11.5-1.18Z"/>
  <path class="st34" d="M28.7,110.52c2.68.67,2.57,9.17,0,10.07-.66,2.68-9.16,2.58-10.07.02l.15-10.04,9.92-.05Z"/>
  <path class="st12" d="M155.31,120.59c-.82,2.66-9.38,2.22-10.23-.39-2.7-.49-1.91-9.09.66-9.7l9.46.07.12,10.02Z"/>
  <path class="st44" d="M37.41,110.55h.18c2.74-.14,1.94,9.87,1.12,10.83-1.05,1.22-9.71,1.89-10.01-.79v-10.07s0-9.3,0-9.3l-17.85-.43,17.94-.38c1.29,3.13,1.07,6.64.01,10.14h8.6Z"/>
  <path class="st23" d="M120.63,29.63c.58-.37.83.01.62.7,2.71.84,2.5,8.31-.6,8.37-2.2.26-4.47.5-6.83.71,2.75-.68,1.87,8.59,1.04,9.5-.99,1.07-10.05,1.91-10.3-.78l.12-6.43c1.61-.22,2.63.96,3.05,3.52,3.07,1.17,4.3-.72,3.7-5.69l1.75-1c.93-2.45.61-5.18.32-8.6,2.47-.83,4.85-.37,7.13-.3Z"/>
  <path class="st1" d="M37.15,137.26l.13,11.31-8.14-.08c-.42-.37-.49-1.33-.46-2.05-.58-2.75-1.17-9.04,1.17-10.8.33-.25,7.81-.64,7.3,1.63Z"/>
  <path class="st29" d="M145.74,110.5l-.66,9.7c-2.16,3.18-7.73,3.3-9.51-.52.18-3.29-.06-6.34-.71-9.17-.91-2.01-.27-3.29,1.94-3.62l.6,3.64,7.64-.15.02-9.24c0-.6.5-.76.89-.75l-.21,10.12Z"/>
  <path class="st37" d="M164.36,38.69l-.66.04c.23,2.64-7.99,2.53-8.57,0-2.66-.57-2.52-8.46.02-9.25l.25-9.04c1.18,2.94.61,5.73.42,9.14,2.99.14,5.51-.44,8,.35-.29,3.46-.51,6.33.54,8.77Z"/>
  <path class="st35" d="M113.95,148.4l8.11.02.97-1.68,11.86.04.12-8.25c.28-4.15,5.15-3.91,8.33-3.52l.18-5.76c1.67-2.68,10.38-2.77,11.76.09-2.79,1.19-5.96.33-9.27.52-.16,2.73-.45,4.95.17,7.01l17.43-.26.02-16.05c.28,0,.86.17.85.87l-.27,15.82-18.3.34-.31,11.23c-2.79.83-5.26.51-8.5.13.47,3.67.94,6.64-.37,9.54l-15.29.04-.36-9.53c-2.95.44-5.55.66-7.14-.6Z"/>
  <path class="st9" d="M113.17,38.52l-.41,7.05c-.11,1.86-5.95,2.14-6.6.31l-1.48-4.19c-.3-.85-.66-3.04.68-3.06l7.82-.12Z"/>
  <path class="st49" d="M18.56,29.6c-.62,2.57.05,5.21.1,8.25l-6.81.04-.03-8.42,6.74.13Z"/>
  <path class="st24" d="M129.95,29.68c.74,3.36-8.26,3.46-8.7.64-.38.01-.63-.33-.62-.7.1-2.88-.6-5.82.6-9.08l.26,8.95,8.46.19Z"/>
  <path class="st29" d="M156.93,100.45c-3.13,1.11-7.12,1.11-10.23-.05l10.23.05Z"/>
  <path class="st14" d="M55.54,128.32c-.07,1.83-1.63,2.68-4.67,2.54.62,3.26.06,5.38-1.68,6.37l-.12,11.56-11.31-.22.12-10.18c0-.54-.57-.98-.74-1.12l-8.18.07-.29,9.11c-.53.21-.89-.4-.9-1.32l-.04-7.77c1.73-1.79,1.13-4.68.93-7.87l-9.89-.29-.17-8.58,10.07-.02h8.94s-.05-10.04-.05-10.04l18.16.1-.2,17.66Z"/>
  <path class="st33" d="M55.63,38.16c1.12-1.78,2.3-1.5,2.77.59l1.7.9.09,6.73c1.27.04,2.02.62,2.22,1.77l.84-.08c1.65.49,3.4.65,5.26.49l.54,5.44-.08,2.56c-.17,1.59-.64,2.37-1.39,2.35l-16.94.15.11,12.63,10.53.21c3.83.22,4.05,9.47,1.18,10.84-.28,2.59-6.14,2.64-6.78.19-.37,1.5-1.83,2.1-4.39,1.81.61,3.3.04,5.45-1.7,6.47h-21.05c-1.76-.82-2.41-3.02-1.93-6.59-2.85.2-5.55-.09-8.1-.87-.71-2.72-1.08-5.55-1.11-8.48-2.85.65-4.87.35-6.07-.93-.2-11.97-.04-23.82.48-35.56l7.53.1.14-9.2,35.86.19c-.55,3.37-1.16,6.09.29,8.28Z"/>
  <path class="st14" d="M131.52,29.61c4.82.47,9.72.59,14.7.35l.94.97c-1.39,5.2.89,7.23,6.84,6.1l1.12,1.71c.66.07,1.67.32,1.68.78.45,14.51.02,29.77-.86,44.1-2.69.94-5.6,1.29-8.73,1.05.63,3.25.09,5.39-1.62,6.42l-19.81-.02c-1.75-.67-2.35-2.67-1.79-5.99-1.71-.25-2.77-.98-3.18-2.18l-8.3-.13-1.72-.83c-2.38-10.48,2.16-10.51,11.17-9.99l.25-12.8h-16.48s-1.22-1.7-1.22-1.7l.03-9.33,9.27-.11v-8.61c2.06-.42,7.98-.96,8.84.72.27.52-2.09.15-2.02-1.43.85-2.64.56-5.53.6-8.37,2.91-.08,6.05.66,8.7-.64.45-.22,1.11-.07,1.57-.08Z"/>
  <path class="st30" d="M69.08,82.66c-.27,2.58-6.05,2.55-6.61.09l-.02-9.14-13.36-.17-.14-16.1,17.72-.03c.99,0,1.78-.37,2.31-.75l-.05,7.54-6.39.02-.03,6.53,6.51.08.06,11.91Z"/>
  <path class="st50" d="M112.51,82.77l-8.37-.13.43-11.8c2.76-.27,5.58-.55,8.47-.85l-.2-5.98-7.91-.89c-1.45-1.49-.41-4.28-.41-5.67h19.41s-.3,16.17-.3,16.17l-11.47.13.35,9.02Z"/>
  <path class="st18" d="M95.83,57.27l-.32,17.85-16.62.78-1.24-1.65v-8.4c.66-2.4,3.05-3.19,7.17-2.37.68-1.42.84-3.16.46-5.24l1.67-.97h8.89Z"/>
  <polygon class="st32" points="96.18 82.7 77.46 82.88 77.64 74.25 95.39 73.66 95.83 57.27 96.18 82.7"/>
  <path class="st26" d="M103.79,82.53l.68,8.56c.65.09,1.61.26,1.68.74.2,1.22.3,10.36-.03,10.8-.44.59-.95,1-1.69,1.17-.38-.29-.73-.87-.73-1.7l.02-10.87-7.59-.1.04-8.43c2.5.05,5.04.49,7.61-.17Z"/>
  <path class="st27" d="M86.94,57.27c-.01,2.58.53,5.3-.45,8.01-3.48-.23-6.37-.57-8.83.56l-.05-8.58h9.33Z"/>
  <path class="st30" d="M69.06,54.02c-1.29-.97-.54-3.45-.96-4.99-1.24-.34-4.18.6-4.85-.95l5.84.04-.04,5.9Z"/>
  <path class="st26" d="M113.04,69.99c.01.31-.15.85-.84.85h-7.63s0-.85,0-.85h8.46Z"/>
  <path class="st36" d="M68.36,128.11c-2.77.08-5-.14-7.7.57v-18.14s7.74.13,7.74.13l-.03,17.44Z"/>
  <path class="st13" d="M62.47,82.76l6.61-.09.02,8.45h-13.52c-2.62-.44-2.41-7.57.11-8.17l6.78-.19Z"/>
  <path class="st7" d="M55.6,129.03l-.06,8.28-6.34-.09v-8.22c2.33-.09,4.43.12,6.35-.69l.05.72Z"/>
  <path class="st17" d="M28.54,91.21l-17.54-.12-.05-48.68c-2.53-.51-2.3-2.78.02-3.63h.84s-.13,35.15-.13,35.15l7.72-.47.03,9.28,8.88.25.23,8.22Z"/>
  <polygon class="st22" points="55.69 82.94 55.58 91.12 49.59 91.22 49.61 82.86 55.69 82.94"/>
  <polygon class="st20" points="163.7 38.73 163.69 91.06 145.6 91.09 145.5 83.03 154.9 82.73 155.13 38.73 163.7 38.73"/>
  <path class="st10" d="M121.45,100.53h15.18c.68,2.28.48,4.36.16,6.36-.23,1.43-.81,2.75-1.94,3.62l-.96,1.69c-3.71.48-12.21.96-14.16-2.17.97-5.03-.72-6.78-5.08-5.23.52,2.99-.08,4.89-1.79,5.69-.41,2.64-7.59,2.61-8.29.1l-.11-.99-.03-5.8.03-12.7,16.65.33c-.62,3.62-1.14,6.71.33,9.11Z"/>
  <path class="st49" d="M10.96,42.42c-1.93-.95-3.78.78-5.6,1.06-1.56.24-1.75-3.83-.48-3.8,2.22.05,4.02.33,5.23-.95l.86.06-.02,3.63Z"/>
  <path class="st15" d="M62.43,38.69c-.31,2.47-3.44,2.4-4.03.06-.93.01-2.12.05-2.77-.59l.14-7.62,6.62-.11.03,8.26Z"/>
  <path class="st40" d="M62.43,38.69l-.02,9.47c-1.26.12-2.56.21-3.89-.09l-.12-9.31,4.03-.06Z"/>
  <path class="st24" d="M155.15,29.48l-.02,9.25-9.33-.17c-.58-2.76-.53-5.29-.14-8.18h-12.47c-.85,0-1.42-.36-1.66-.78l23.62-.13Z"/>
  <polygon class="st0" points="125.79 91.06 121.16 91.41 120.81 82.9 125.64 82.94 125.79 91.06"/>
  <path class="st11" d="M134.86,110.51c4.21,0,1.25,3.27,2.55,9.97,2.79.75,5.63-.35,7.67-.27l10.23.39-.03,8.74-10.18-.29v7.95c-3.02-.51-5.87-.93-8.4.4l-.08,11.09-14.56-.05.15-9.31c.02-1.1-.4-1.78-.82-2.37l-.14-15.7c-2.89-.94-5-.62-7.33.13.23-2.18-.08-3.4-.91-4.06-2.58-.26-2.58-6.06-.13-6.64l.14-7.61,8.31-.08.11,7.71h13.43Z"/>
  <polygon class="st4" points="112.87 110.49 113 117.13 113.13 128.63 104.58 128.2 104.58 110.59 112.87 110.49"/>
  <path class="st8" d="M120.64,38.7l14.43-.05v9.16s-13.98-.18-13.98-.18l-.12-8.01-7.16-.21c1.84-1.37,4.6-.71,6.83-.71Z"/>
  <polygon class="st5" points="136.67 157.7 122.33 157.7 122.33 149.26 136.91 149.21 136.67 157.7"/>
  <polygon class="st19" points="145.17 148.38 137.47 148.68 137.47 137.45 145.5 137.19 145.17 148.38"/>
  <polygon class="st48" points="29.36 47.7 29.18 57.37 19.4 57.37 19.36 38.66 38.95 38.76 39.23 47.67 29.36 47.7"/>
</svg>