<?xml version="1.0" encoding="UTF-8"?>
<svg id="_레이어_1" data-name="레이어_1" xmlns="http://www.w3.org/2000/svg" version="1.1" viewBox="0 0 177.48 177.48">
  <!-- Generator: Adobe Illustrator 30.3.0, SVG Export Plug-In . SVG Version: 2.1.3 Build 182)  -->
  <defs>
    <style>
      .st0 {
        fill: #4e1370;
      }

      .st1 {
        fill: #dea8fa;
      }

      .st2 {
        fill: #4e1c73;
      }

      .st3 {
        fill: #4f1078;
      }

      .st4 {
        fill: #ecc3fd;
      }

      .st5 {
        fill: #521579;
      }

      .st6 {
        fill: #4f1a72;
      }

      .st7 {
        fill: #420c68;
      }

      .st8 {
        fill: #420c72;
      }

      .st9 {
        fill: #9d6eb8;
      }

      .st10 {
        fill: #491270;
      }

      .st11 {
        fill: #c77bf7;
      }

      .st12 {
        fill: #4e136e;
      }

      .st13 {
        fill: #e6bafc;
      }

      .st14 {
        fill: #57197e;
      }

      .st15 {
        fill: #4c1971;
      }

      .st16 {
        fill: #4e126c;
      }

      .st17 {
        fill: #a350e7;
      }

      .st18 {
        fill: #8a5dac;
      }

      .st19 {
        fill: #441269;
      }

      .st20 {
        fill: #b15ef0;
      }

      .st21 {
        fill: #622988;
      }

      .st22 {
        fill: #8e39d3;
      }

      .st23 {
        fill: #8a37cf;
      }

      .st24 {
        fill: #571a7d;
      }

      .st25 {
        fill: #4a126e;
      }

      .st26 {
        fill: #5f2884;
      }

      .st27 {
        fill: #4b156c;
      }

      .st28 {
        fill: #490f6f;
      }

      .st29 {
        fill: #fbf4fc;
      }

      .st30 {
        fill: #edc9fb;
      }

      .st31 {
        fill: #5a1e85;
      }

      .st32 {
        fill: #d590f9;
      }

      .st33 {
        fill: #4a106f;
      }

      .st34 {
        fill: #501877;
      }

      .st35 {
        fill: #592280;
      }

      .st36 {
        fill: #e4affa;
      }

      .st37 {
        fill: #4f1974;
      }

      .st38 {
        fill: #58207d;
      }

      .st39 {
        fill: #ebc1fc;
      }

      .st40 {
        fill: #e1b0fb;
      }

      .st41 {
        fill: #b965f4;
      }
    </style>
  </defs>
  <path class="st17" d="M162.39,71.86c.77,1.46.7,4.61-.09,6.21l-.35,1.36c-2.62.31-3.72,1.47-3.29,3.47-1.9.6-2.9,1.69-2.97,3.28-2.82-.11-3.94.55-3.37,2,2.22-.51,3.57.12,4.03,1.9-1.06,1.37-3.16.75-5.41,1.15-.15,1.22,1.04,3.97-.47,5-1.64-.25-2.31-1.4-2-3.45l-1.51-.1c-.22,1.75-1.02,2.99-2.41,3.71-.02,1.66-1.24,2.41-3.68,2.25.09,3.83-2.66,6.56-6.18,7.19.33,3.46-2.3,5.63-5.69,5.56-.16,3.16-2.83,6.79-6.17,6.23-.25,2.99-2.04,5.72-5.29,5.51.4,2.71-.39,4.2-2.37,4.49-.51,1.97-1.43,2.29-3.34,2.1.18,2.58-.65,4.03-2.48,4.38-.06,2.98-4.43,2.77-4.97.02-2.51-1.09-2.14-8.88,2.17-8.09.1-3.21,1.81-5.64,5.01-6.1-.87-4.74.81-7.88,5.57-8.92l1.08-17.75c-1.92-.31-3.38-1.17-4.38-2.56-3.05.02-2.09-6.48.84-6.62.25-2.98,5.13-2.56,5.58.27,2.04,1.56,3.44.83,4.21-2.18-.06-2.45.61-4.21,1.99-5.28l15.77-.65c.09-1.84.77-3.27,2.03-4.29l1.11-2,15.62-.06,1.4,1.99Z"/>
  <path class="st29" d="M54.38,35.25l-1.19,1.97c-5-1.29-7.68.04-8.02,3.99-2.74.97-4.15,3.16-4.24,6.58l-.93.96c-3.08-.07-4.4,1.78-3.98,5.56-3.11.91-4.99,2.78-5.65,5.61-1.43.01-4.41,3.14-2.81,3.92,1.17.58,25.01.66,26.09-.06.49-2.82,1.73-4.75,3.74-5.79-.75-4.1,1.16-6.51,5.75-7.22-1.26-8.65,1.05-12.51,6.94-11.59l1.26,1.98c.77.13,1.91.38,1.96.93.55,5.19.64,14.84-6.09,13.57l-.38,6.79c-.86,2.03-2.29,3.77-4.27,5.22.22,2.07-.27,3.48-1.47,4.22,1.69,6.25.54,9.87-3.46,10.86-.41-3.59-.81-7.21-1.2-10.86-.09.78-.34,1.96-.88,2-3.29.25-27.35.77-28.62.11-.78-.41-1.19-1.19-1.45-1.99-.8,3.18-10.9,3.09-12,.05-2.89-.8-2.4-5.22-.22-6.87-.72-3.9-.93-7.98,4.08-7.46-.51-3.28,1.81-5.75,4.89-5.75-.28-3.94.85-5.67,4.46-6.91-.2-1.98-.26-3.42,1.86-4.3v-.41c.89-1.35,2.28-1.75,4.21-1.2-.32-2.07.25-3.41,1.71-4.01.09-1.86,1.6-2.54,4.52-2.01-.04-2.22.7-3.55,2.22-3.99,20.53-.57,41.14-.68,61.82-.34,1.15,1.49.68,2.8-1.13,3.28l-28.73.19-.93,2.42c-6.05-.23-12-.04-17.83.56Z"/>
  <path class="st1" d="M25.43,72.02c1.86-.1,2.64,1.27,2.35,4.09,3.59.8,5.97,1.86,5.76,5.96,6.71.05,6.73,3.18,6.64,8.93,3,.31,5.06.88,5.38,4.25,4.04-.28,4.87,2.12,4.93,5.82,5.4-.57,7.5.8,7.01,6.45,3.4.16,5.05,2.36,4.95,6.57,5.04-.65,8.44,10.12,4.87,12.67l-.76,2.12c-1.32-1.43-3.41-1.92-6.26-1.45,1.92-4.3.29-6.42-4.92-6.35-2.99-.17-2.62-4.57.15-5.03-6.21.21-8.93-1.28-8.15-4.47-2.14-.16-3.43-.98-3.88-2.48-.87-.32-.86-.69,0-1.11-1.48.25-2.24-.71-2.28-2.87-1.88.34-2.21-.23-3.11-1.94-1.84.13-2.66-1.21-2.48-4.02-3.55-.11-6.17-2.9-6.27-6.38-1.84.2-3.06.13-3.79-1.87l-1.08-.03c-1.12-.92-1.35-2.44-.68-4.57-2.26.18-3.72-.5-4.39-2.06-1.78.29-2.46-.88-2.06-3.52-2.21-.21-3.54-1.06-4-2.56-3-.06-2.8-5.62.05-6.1l12-.05Z"/>
  <path class="st26" d="M140.36,29.07l-1.17,1.93c-1.62-.34-2.32.03-2.09,1.11,1.97-.25,3.13.43,3.47,2.05l.86.68c1.72-.3,2.38.65,2,2.87,1.81.31,2.87,1.18,3.18,2.59,1.21.06,2.35,1.02,3.75.69-.36,2.29-1.18,4.85-3.01,6.35-2.41,1.39-3.48-.04-3.2-4.29-4.58.59-6.18-1.16-5.81-5.55-2.26-.02-3.59-.8-3.99-2.34-.88-.27-.87-.62-.02-1.02-1.79.08-2.32-1.13-1.6-3.62l-29.75-.17-.65-1.57c-20.44-.35-40.82-.23-61.14.34l.15,5.98-6.9.02v-6.99s6.57.32,6.57.32c.03-2.1-.45-4.03.43-6.7l92.86-.06c.74,2.59.31,4.14.29,6.66,1.84-.4,5.18-.78,5.79.71Z"/>
  <path class="st21" d="M150.47,96.22c-1.32.91-2.91,1.31-5.61.63l-.25,6.2c-2.41.03-3.85-.05-5.79.7.07,2.47.34,4.23-.43,6.18-2.17-.63-4.65-.15-5.44.97-.6.84.19,3.98-.71,4.42-1.5.42-4.86.08-5.02,1.19l-.68,4.82c-1.12.58-4.42-.5-5.22,1.33-.53,1.22-.52,2.9-.4,4.85l-5.57.62-.13,5.75c-2.26.49-4.04.18-5.86.19l.59-6.57c1.74.27,3.99.39,4.77-.41.98-.99.99-3.47.42-5.28,1.67-.91,3.17-.75,5.17-.79l.63-5.65c1.65.22,3.93.51,4.86-.18,1.16-.87,1.25-3.31.71-5.14,1.89-.99,3.65-.66,5.91-.8l.52-6.32c1.93.53,3.78.54,4.79.04s1.29-3.3.57-5.13c2.01-1.81,4.3-1.35,6.26-1.48-.47-2.96,5.3-3.01,5.91-.15Z"/>
  <path class="st38" d="M28.51,40.77c-.05,2,.43,3.92-.12,6.39l-4.37.8c.28,2.04.65,4.25-.07,5.96-.77.22-3.29-.19-3.95.41-.92.84-.96,3.02-.21,5.25l-6.25.39-.33,5.23c-3.45.73-4.27-5.07-.63-5.4.83-1.97.52-4.01.69-6.61,2.34-.21,3.62-.08,5.57-.86-.76-1.77-.88-4.37.13-5.13.75-.56,2.99-.41,4.15-.3,1.06-1.6.28-4.11.62-5.32,1.32-1.22,3.6-.78,4.76-.81Z"/>
  <path class="st15" d="M96.44,146.9c.1,2.01.84,4.18.17,6.54-6.16.29-12.22.13-18.19-.47v-5.96c.38-2.3,1.06-2.74,1.44-.45,2.54.4,4.2-.13,5-1.59,1.93-.55,11.39-.65,11.58,1.92Z"/>
  <path class="st14" d="M12.58,59.8c-.84,2,.11,3.75.63,5.4.65,2.03.24,4.72.22,6.87l-.05,6.1-6.32-.11-.02-17.92c2.38-.64,3.89-.44,5.54-.34Z"/>
  <path class="st2" d="M38.12,103.18l2.44.74c.29,1.3,1.27,2.66,2.95,4.07v1.11c.86.33.83.67-.04,1.03l-6.1-.12c.29-2.48.53-4.42.05-6.75l-5.78-.14c.21-2.41.31-3.82-.18-5.96l-5.51-.48-.36-5.75c1.73.05,3.58-.48,5.78.25l.52,5.54,5.55.52.69,5.97Z"/>
  <path class="st33" d="M168.78,59.92c.28,6.18.13,12.29-.45,18.31l-5.03.05c-.63-5.54-1.03-12.96.02-18.53l5.46.16Z"/>
  <path class="st31" d="M109.36,134.08l-.54,6.48-6.13.41c.31,2.33.33,3.99-.29,5.77l-5.97.16c-3-.07-2.75-5.58.11-6.02-.14-1.92,1.3-2.73,4.33-2.43-.27-1.67-.2-2.68,1.71-3.26.38-2.44.98-2.81,1.79-1.08l4.97-.02Z"/>
  <path class="st9" d="M55.39,121.08l5.95.05.09,5.86c2.3.24,4.03.04,5.89-.22,3.04.38,2.96,6.56.07,7.25,1.8-.24,2.49,1.09,2.06,3.98,1.71-.21,2.59.16,3.01,2.04.3-3.48,7.04-2.72,5.92,1,.36,3-5.39,2.82-5.88-.03l-6.03-.06-.3-6.64c-.21-.44-1.51-.4-1.88-.32.58-3.45.28-4.83-.91-4.12.24,2.07-.5,3.23-2.22,3.48-1.12-.82-.13-3.81-1.25-5.16-.8-.96-4.7,1.31-4.71-1.16-.01-1.3,1.03-2.09,3.11-2.39-1.79-.38-2.86-1.24-3.23-2.59-1.54-.03-4.92.8-5.68-.89-.42-2.97,5.38-2.93,5.97-.07Z"/>
  <path class="st24" d="M157.73,47.98c-.63,1.1-1.48,2.07-2.54,2.9,3.26.99,6.52,6.3,2.14,8.25-.23.54-.55.56-.96.11-1.6-.87-2.26-2.56-1.97-5.07-4.38,2.04-4.5-.74-4.32-4.48-1.67-.03-2.45-.48-2.74-2.32-.76-2.87.06-5.33,3.01-6.35,1.4-.33,2.18.68,2.21,1.66l.11,3.5,5.05,1.81Z"/>
  <path class="st34" d="M55.54,116.04c-.09,3-5.63,2.72-6.07-.14l-5.64-.76c-1.04-1.57-.41-3.89-.37-5.02l.04-1.03,5.9.08-.05,6.35c2.5-.69,4.72-.92,6.18.51Z"/>
  <path class="st7" d="M24.5,90.88c-1.66-.05-3.36.34-5.22-.38.94-2.78.3-4.87-1.25-5.98-.14-1.94.63-2.08,1.4-.27,1.42-.27,3.92-.32,5.8.46,1.16,1.25.47,4.91-.73,6.17Z"/>
  <polygon class="st19" points="19.43 84.25 18.03 84.52 13.31 84.5 13.38 78.17 19.34 78.32 19.43 84.25"/>
  <path class="st18" d="M163.32,59.76l-.02,18.53c0,1.76.63,4.33-.7,6.09-.88,1.17-3.99.58-4.97.88-.4,1.93-.13,3.78-1.29,4.81-3.02.32-2.79-5.97,0-6.14.08-1.59,1.26-2.2,3.52-1.82.1-2.22.91-3.56,2.43-4.04l.09-6.21-2.03-.8-.29-8.83c-2.6.18-5.11.03-3.69-3l.96-.11c-.21-1.71.78-2.39,2.95-2.05-.31-2.25.42-3.55,2.19-3.91,1.58,1.07.84,4.75.84,6.59Z"/>
  <path class="st35" d="M78.38,141.03c.31,1.69.77,3.47,1.38,5.35l-1.33.63-5.76-.21-.18-5.8,5.88.03Z"/>
  <path class="st6" d="M34.43,35.14c.02,1.24.99,3.44-.23,5.24-.89,1.31-4.41.58-5.68-.02l-.03-5.25c2.26-.66,4.1.04,5.94.03Z"/>
  <path class="st25" d="M157.73,47.98c-.3,1.49-.57,4.08.34,4.87.98.84,3.49.07,4.41.32l-.22,5.88-4.93.08-.07-5.73-4.49-.75c.52-1.95.53-3.7,1.33-4.2.96-.6,2.54-.39,3.62-.46Z"/>
  <path class="st0" d="M55.54,116.04l-.15,5.03-5.97.07c-.65-1.44-.08-3.73.05-5.24l6.07.14Z"/>
  <path class="st27" d="M64.29,133.98c-.83.16-2.21.02-3.12-.65l.26-4.98c1.87-.82,4.69-.86,5.04.99.33,1.74-.37,3.83-2.18,4.63Z"/>
  <path class="st37" d="M140.36,29.07c.62,1.52.21,3.64.21,5.1l-3.82.08c-1.42.03-2.22-2.3-1.17-4.4.58-1.17,3.62-.84,4.78-.78Z"/>
  <polygon class="st10" points="55.21 127.01 55.09 122.03 60.34 122.15 60.29 127.39 55.21 127.01"/>
  <path class="st12" d="M146.62,40.32l-5.18-.27v-5.19c1.46-.34,4.23-.63,5.08.79.73,1.23.27,3.31.11,4.68Z"/>
  <path class="st18" d="M168.33,78.23l.45-18.31.58,17.18c.03.82-.72,1.14-1.02,1.14Z"/>
  <path class="st41" d="M96.62,153.44l-17.29.61c-.82.03-.91-.62-.9-1.08l18.19.47Z"/>
  <path class="st41" d="M114.69,84.05l-.84,6.62,2,1.1c.74,5.7,1.77,20.23-5.66,20.04.66,7.21-1.21,10.98-5.6,11.31.37,2.7-.34,4.32-2.15,4.86l-1.08,7.31-2.52.65c0,2.48-.76,4.12-2.29,4.93l-.11,6.02-18.01.12-.05-5.98c-1.49-1.52-3.94-.97-5.92-1-1.8-.02-2.46-1.29-1.97-3.82-1.75-.04-2.78-.77-3.1-2.2l-.07-7.25c-.04-4.31-2.82-10.57-2.55-10.56l-3.36-.17c-2-.1-1.22-3.32-1.24-5.01-.01-1.51-3.27-1.84-4.6-1.09l-.21-6.87h-6.97c-.11-2.26.27-4.19-.68-6.01-1.82.63-3.75.11-3.93-.69l-.67-2.95-4.84-.47-.36-8.37-6.53-.54c.25-1.73.33-4.12-.61-4.93-.86-.73-3.21-.56-4.78-.43l-.56-6.66,30.95-.11c.62,3,.86,6.06.74,9.17,3.88,2.7,5.3,7.35,4.26,13.97l3.34.84.55,7.3c1.81-.14,2.54,1.47,2.2,4.83,1.95-.37,4.57,1.04,5.83,2.35.42.44.52,11.21-1.06,11.62,1.5,3.17,3.68,4.2,6.93,4.48,1.52-2.14,1.04-3.76-1.45-4.86l-2.03-.78-.48-9.43c-1.78.06-3.67-.75-5.66-2.43l-.92-16.43,1.93-1.51-6.03.22c-1.05-3.81-4.92-19.17-2.78-21.47.78-.83,3.41,0,2.72,1.74l5,.45c.1-.77.29-1.86.87-2,2.5-.57,12.24-.75,12.98,2.03,8-.57,16.06-.75,24.16-.56,1.38-3.34,6.92-2.47,8.9.96.33.58,1.14,12.04-1.7,11.65Z"/>
  <path class="st32" d="M102.51,41.4l2.05.75.65,9.32c3.36-.16,6.23,2.83,5.49,6.3,1.68.09,2.93.7,3.75,1.83,3.19-4.38,8.37-.98,7.5,4.53l11.42.2c4.74.99,11.95,4.98,5.09,7.58-.06,2.94-3.24,2.92-4.07.16-4.68-.73-9.47-.81-14.16.05,3.19.87,3.1,11.04.06,12.21l-5.58-.27-.32-12.44-31.04.38c-.65-1.48-.52-2.65,1.07-2.8l21.03-.02.1-.9-39.21.41c2.44.43,3.49,1.52,3.16,3.27l-7.74-.43c-.34,3.33,1.37,5.79,2.68,8.79l1.23,9.64c1.06.39,4.84-.49,4.91,1.06-.54,1.2-1.59,2.05-3.16,2.55l-.11,8.31-2.02,1.32c-1.01-1.29-1.2-2.95-.63-5.57l-5.22-.62-.2-11.79c-.8-.5-2.35-1.32-2.57-2.14l-.26-11.16c1.76,2.49.87,5.79,1.31,9.68,3.55-2.85,2.43-7.35,2.78-11.48l.34-3.97,3.21-1.44c1.57-2.74.53-6.35,1.4-9.72.41-1.59,3.65-1.67,5.4-1.2l.49-12.6c.39-1.45,1.72-2.22,4-2.3-.02-1.52.06-3.47,1.08-4.61,1.19-1.34,16.57-1.98,18.38-1.27,3.74,1.46,4.16,2.3,4.01,6.55,1.7-.22,2.86.25,3.73,1.86Z"/>
  <path class="st11" d="M134.33,34.16l.02,1.02c-.87,2.12-3.36,2.91-7.47,2.39,2.46,1.19,4.8,2.47,7.01,3.85.3,13.05.44,19.57.44,19.57,4.75,3.41,9.98,3.51,15.63,2.79-2.63-5.36-2.11-11.5,4.46-9.62,1.43-.36,2.08.58,2.02,1.5-.08,1.27-.28,2.61-.05,3.56.4,1.7,4.28.74,5.63.96l.38,11.67-18.13.07c.37,2.99-5.34,2.82-5.82-.03.93-1.11.77-2.72.3-3.77-.58-1.31-1.78-1.94-3.38-1.93l-14.98.1c-.69-2.24-.57-3.82-.42-6.05-1.87-.4-3.95-.94-5.53-.66-1.85.09-2.64-1.3-2.39-4.16-2.31.03-4.58-2.2-4.96-3.89,1.02-1.3.8-2.93-.65-4.9.72-2.76-.32-4.22-3.12-4.4l-.91-3.17c-3.43-1.52-1.74-5.11,1.78-6.42l28.72-.6,1.43,2.1Z"/>
  <path class="st22" d="M104.39,134.1c-.6,0-1.34.67-1.79,1.08l-2.02-1.02c1.17-1.39,1.79-3.45,1.87-6.17l.07-6.74,4.96-.31,1.02-13.07c1.19,1.04,2.51,1.62,3.41,1.55,1.47-.12,1.98-1.64,1.98-3.32l-.03-15.44c2.17-.02,4.13-.28,6.5.62l-1.29,21.24c-1.8.71-4.2,1.04-4.9,2.04-.92,1.31-.96,3.91-.42,5.7-.58,2.07-3.65,1.62-4.35,2.4-.93,1.66-.58,3.08-.71,3.93-.29,1.88-3.07,1.18-4,1.64-2.1,1.03-1.1,4.59-.29,5.85Z"/>
  <path class="st23" d="M134.37,72.06l4.07-.16,5.82.03c.32,1.85.72,3.81.06,6.24l-17.71.38c.63,4.51-1.3,7.85-5.31,10.13-1.21-1.8-1.02-3.03-1.03-4.35l-.06-12.21c4.64-.87,9.5-.78,14.16-.05Z"/>
  <path class="st3" d="M162.3,78.07l-.03,5.97-5.87.15-.06,5.87-5.73.14c-.47-2.47-.66-4.48.45-6.37,2.03.93,4.56.75,5.27-.32.61-.93.63-2.89.11-4.83,1.9-.95,4.02-.44,5.86-.61Z"/>
  <path class="st16" d="M150.47,96.22l-5.91.15c.01-1.82-.16-3.75.42-5.49,1.94-.38,4.51-.32,5.15.7.58.93.42,3.54.35,4.64Z"/>
  <path class="st36" d="M54.38,35.25c5.01-.67,10.12-.83,15.36-.48,3.86-2.82,5.06,5.31,1.57,6.4l-6.03.08-.2,11.81-5.3.6c-.75,1.67-.34,3.59-.52,5.48-.79.64-2.44,1.13-2.69,1.92-.31.96-.37,2.77-.02,4.73l-31.11.07c.11-1.93-.31-4.48.58-6.27.74-.33,2.89-.45,3.15-1.22.39-1.16.48-2.39.46-4.01l4.99-.88c-.23-2.63-.49-4.39.45-6.28,1.76.51,4.32.22,4.4-.61l.48-4.96c.07-.73,2.71-.63,3.3-1.15.94-.84,1.24-2.61.8-4.79,3.56-1.19,6.98-.41,10.33-.42Z"/>
  <path class="st30" d="M134.33,34.16c-4.24-.49-8.49.72-13.1.67l-18.19-.19-.64,4.43c.97,1.48,1,2.26.11,2.32-1.87.15-3.77.37-5.91-.21.24-2.35.36-3.87-.4-6.2h-17.9c-1.28,1.2-1.16,4.21-.59,6.54l-6.39-.36-.19-5.98-16.74.06c.11-.75.82-1.16,1.93-1.14l13.96.24,1.42-4.08,30.18-.12c.28,0,.66-.55.58-.92l-61.27-.09c.39-.47,1.09-1.05,2.21-1.05l58.94.28,32.65.13-.64,5.66Z"/>
  <path class="st5" d="M43.5,107.99l-5.64-.14c1.34-1.94.99-3.25.25-4.67l5.32-.1.07,4.91Z"/>
  <path class="st17" d="M102.6,135.18c.03,1.39,1.09,4.93-1.19,5.16l-4.86.54c0-2.15-.34-4.03.25-6.99,1.03.13,3.98.33,4.5-1.19.42-1.23-.55-4,1.15-4.7l.15,7.19Z"/>
  <polygon class="st28" points="72.46 140.03 67.45 139.96 67.39 134.01 72.51 133.9 72.46 140.03"/>
  <path class="st20" d="M134.35,35.18l5.94.03.11,5.99c2.35-.07,4.14-.52,6.25.56-.74,2.16-.67,5.48.69,5.6l4.14.36c1.37.12-.26,5.49,1.42,6.35.35.18,1.08.2,1.51.09l-3.7,2.14c-1.07,3.26.88,5.64,2.49,9.18-8.81.77-14.55,1.82-20.58-3.68l-.43-20.09c-4.2-.35-7.69-2.58-9-5.99l11.15-.54Z"/>
  <path class="st8" d="M35.82,29.73c.52-.93,3.12-.87,3.91-.33.89.6,1.02,2.94.54,4.23-.34.9-2.56.64-3.42.6-1.5-.07-2.36-2.1-1.03-4.51Z"/>
  <path class="st39" d="M83.32,72l-13.85-.04c-1.29-.91-2.87-.88-5.34-.58l.33-5.1,38.93-.38c1.56-.02,2.99.41,3.62,1.12.59.66,1.34,3.2.47,4.16l-22.12-.1c-1.14,0-1.72.44-2.05.91Z"/>
  <path class="st4" d="M70.56,91.01l.78,17.28c.07,1.5,4.36,1.34,5.88.62l.5,12.7c2,4.18-4.38,6.46-5.48.38-1.59-3.53-.78-7.44-.77-11.88l-6.08-.15-.12-6.77.16-11.92c1.92-.4,3.73-.24,5.13-.25Z"/>
  <path class="st40" d="M72.24,121.99c.82,1.11,2.18,2.73,3.23,1.73l2.24-2.12c1.09-1.03,4.54-.36,6.09,1.27l-3.45,4.09c1.05-.06,3.58.53,3.59,1.31l.61,17.6-4.8.26-1.45-17.92-5.36-.73c-.22-2.09-.03-3.99-.71-5.49Z"/>
  <path class="st13" d="M114.44,59.59c-1.82.32-3.59,1.04-5.87.45.15-2.54.3-4.39-.15-6.66-1.99.17-3.27.23-5.2-.27l-.71-11.72-.11-2.32c1.31,2.78,4.27,1.57,5.33,2.16,1.56.87.04,4.81.98,6.13.52.72,2.07.79,3.88,1.02-1.42,1.42-2.89,1.73-4.06,3.93,1.87,1.24,3.51,1.04,5.36,1.18l.56,6.1Z"/>
  <path class="st11" d="M134.37,72.06l-14.16.05c3.18-1.62,10.57-1.52,14.16-.05Z"/>
</svg>