<?xml version="1.0" encoding="UTF-8"?>
<svg id="_레이어_1" data-name="레이어_1" xmlns="http://www.w3.org/2000/svg" version="1.1" viewBox="0 0 177.48 177.48">
  <!-- Generator: Adobe Illustrator 30.3.0, SVG Export Plug-In . SVG Version: 2.1.3 Build 182)  -->
  <defs>
    <style>
      .st0 {
        fill: #fc9ab5;
      }

      .st1 {
        fill: #fc9bb6;
      }

      .st2 {
        fill: #e76d0b;
      }

      .st3 {
        fill: #c89c86;
      }

      .st4 {
        fill: #c05511;
      }

      .st5 {
        fill: #b80a34;
      }

      .st6 {
        fill: #fbdfe4;
      }

      .st7 {
        fill: #874919;
      }

      .st8 {
        fill: #bb062e;
      }

      .st9 {
        fill: #8ecef2;
      }

      .st10 {
        fill: #91ceec;
      }

      .st11 {
        fill: #f83859;
      }

      .st12 {
        fill: #fc94b2;
      }

      .st13 {
        fill: #f96a92;
      }

      .st14 {
        fill: #946234;
      }

      .st15 {
        fill: #ac0727;
      }

      .st16 {
        fill: #f7905a;
      }

      .st17 {
        fill: #d7660d;
      }

      .st18 {
        fill: #edd3c2;
      }

      .st19 {
        fill: #fa6792;
      }

      .st20 {
        fill: #92582c;
      }

      .st21 {
        fill: #c20a37;
      }

      .st22 {
        fill: #a3714a;
      }

      .st23 {
        fill: #833809;
      }

      .st24 {
        fill: #fa6790;
      }

      .st25 {
        fill: #e5621f;
      }

      .st26 {
        fill: #bf073b;
      }

      .st27 {
        fill: #de630c;
      }

      .st28 {
        fill: #e8c9b4;
      }

      .st29 {
        fill: #ee5b85;
      }

      .st30 {
        fill: #a8734c;
      }

      .st31 {
        fill: #a90826;
      }

      .st32 {
        fill: #7d3e0b;
      }

      .st33 {
        fill: #ab7652;
      }

      .st34 {
        fill: #e1d877;
      }

      .st35 {
        fill: #fb97b4;
      }

      .st36 {
        fill: #fc9eb7;
      }

      .st37 {
        fill: #8a4a1a;
      }

      .st38 {
        fill: #eacfbb;
      }

      .st39 {
        fill: #f94c7c;
      }

      .st40 {
        fill: #944c18;
      }

      .st41 {
        fill: #926130;
      }

      .st42 {
        fill: #853d08;
      }

      .st43 {
        fill: #fb8096;
      }

      .st44 {
        fill: #fcf8f5;
      }

      .st45 {
        fill: #aa0221;
      }

      .st46 {
        fill: #efd3c2;
      }

      .st47 {
        fill: #e8426f;
      }

      .st48 {
        fill: #804614;
      }
    </style>
  </defs>
  <path class="st11" d="M115.37,16.38c-.65,2.39-3.17,3.24-7.58,2.55l.05,19.7-2.41,1.72c3.63-1.04,3.02,10.9,2.07,12.42-.49.78-2,.53-3.09.19l-2.43-1.65c.99-5.92.28-8.72-2.15-8.38-1.52,7.18-14.85,4.99-20.74,3.75,0-3.38-1.63-4.61-4.87-3.69-3.18-.57-2.97-1.69.14-2.43-3.71-.52-3.66-9.91-.07-10.87,2.47-1.01,3.37-2.33,2.69-3.96l2.2-2.24c-.16-2.15,1.26-3.06,4.26-2.71.74-1.7-.2-2.33-2.83-1.9l-1.5-2.44c-.51,9.52-2.14,11.87-4.9,7.07-2.07.05-2.99-1.58-2.76-4.89-3.71.85-6.04.12-7-2.19,2.12-1.77,5.39-1.75,9.25-.88l.62-11.17h31.25s.14,10.9.14,10.9c3.73-.35,7.24-.82,9.65,1.11Z"/>
  <path class="st26" d="M152.84,111.77l-.22,19.16-7.27.08.19,16.94c-1.43.81-2.84,1.09-4.85,1.48l-.13,15.18-8.33.14-.31,9.68-84.5.02c-.29-2.11-.97-8.9-.29-10.47,1.05-2.41,12.79-2.46,15.92-1.82,1.14,2.89,9.88,2.85,11.13.04,3.55-.64,5.73-.01,6.54,1.89,6.05-.18,12,.02,17.82.6.39-2.24,2.16-3.03,5.31-2.38.77,1.67,2.99,2.48,6.66,2.45.05-3.49,2.89-3.31,3.78-.06l1.35-2.42,13.84-.05v-4.85c1.86-.89,2.65-2.84,2.38-5.85-4.89-2.85-3.17-6.26,5.17-10.21l-.08-11.91,2.36-1.65c.33-1.85,1.04-2.64,2.68-2.01-.21-5.03.58-9.67,2.35-13.93,2.28-1.98,6.38-2.51,8.47-.02Z"/>
  <path class="st13" d="M52.67,118.69l2.45.95.52,12.31c2.94.44,4.65,1.79,5.12,4.03l.4,18.72,3.66,1.53c1.45,4.45,3.53,5.9,6.22,4.34-1.46-10.45-1.99-21-1.6-31.64l2.4-1.73c1.04-2.69,4.23-6.11,7.13-6.85.19-1.07.55-1.06,1.07-.05,3.01,1.76,2.94,5.28-.21,10.55.9,9.97,1.82,20.01,2.76,30.1l14.02.37,1.62,2.43c1.13-.26,1.2.06.32.92l-50.64-.16-.48,9.93c-1.63-2.25-1.05-5.87-1-9.56-3.25.16-6.47.51-8.31-1.34.47-2.09,2.56-3.05,6.26-2.87l-.04-10.07,2.41-1.64c3.65-.08,3.7,2.69,3.46,5.81.98-9.62-1.64-18.5-6.42-26.83-.94-4.69.02-7.76,2.87-9.22.06-3.6,5.36-3.36,6.03-.04Z"/>
  <path class="st22" d="M48.62,40.58l3.95.92c5.91,2.65,3.81,12.93-3.89,12.96.45,7.96-2.26,11.69-8.13,11.22.93,4.48-.37,6.67-4.85,8.02.3,3.75-.76,5.93-3.17,6.55-1.98,2.74-6.21,3.39-7.84.07-.28,1.92-2.24,2.95-5.86,3.09l-.05,22.18-2.42,1.74c-.71-.59-1.22-1.46-1.22-2.76l.06-25.38,9.66.03.24-8.63,6.95-.09.54-8.75,5.35-.8.31-10.43c2.31.46,6.56.96,7.58-.51,1.59-2.28.27-5.94.38-8.19.07-1.42,1.85-1.41,2.41-1.23Z"/>
  <path class="st4" d="M52.64,98.34l1.72.26c.76,2.77,2.16,5.17,4.2,7.2,3.5.49,3.32,4.79-.04,5.51,3.63.03,3.48,6.78.04,7.44.38,3.63-5.31,3.3-5.89-.07l-6.03.04c-2.02,3.9-12.22,3.57-13.46-.83-2.58-3.08-5.29-4.32-8.13-3.71l-.15-6.56c-.71.08-.66-.19-.03-.73,3.1-.87,6.46-.86,10.06.04.23,2.41,2.85,3.14,7.86,2.19.55-1.87,1.54-3.08,2.96-3.63-.93-7.14,1.36-9.52,6.89-7.14Z"/>
  <path class="st5" d="M33.19,117.9c2,.72,2.72,2.96,2.15,6.7,5.01,2.15,7.75,11.26,2.63,13.57,3.16,5.16,3.32,8.82.46,10.99l-8.96-.91.07-16.94c-2.02-.42-3.36-.62-4.85-1.38l.37-15.75c.03-1.31,3.01-2.6,1.56-5.43,4.71,4.1,6.87,5.02,6.58,9.15Z"/>
  <path class="st23" d="M152.64,107.79l.2,3.97c-2.79.96-5.93,1.63-8.47.02-4.35-1.82-2.23-5.95,2.41-5.97.27-2.39,1.51-2.46,3.55-2.29l.08-21.5,2.42-1.68c.43-.69,8.68-.94,8.82-.5.5,1.61.45,26.77-.52,27.77-2.88-.5-5.7-.44-8.48.18Z"/>
  <path class="st45" d="M115.37,16.38l-.06,15.71c2.11.25,2.25.85.19,1.57,3.6-.48,3.45,6.31.01,6.88.39,3.71-9.48,3.38-10.08-.19l-.07-24.8c4.11,1.15,6.72,1.1,10,.84Z"/>
  <path class="st42" d="M24.69,80.32c3.25.4,3.5,4.57.9,5.94l.07,11.52c2.81,1.41,2.86,6.76-.51,7.76,2.32.27,2.13,1.17-.29,1.34l.03.73-8.55-.29.06-26.9,8.27-.1Z"/>
  <path class="st31" d="M74.23,23.5c3.58-.44,3.46,5.51.08,6.18l.07,10.87c-.49,3.7-8.88,3.56-9.7.04-3.61.51-3.55-6.45-.13-7.13l-.08-17.04,9.52-.3.25,7.38Z"/>
  <path class="st21" d="M46.74,148.97l.05,14.45-8.68.13.07-13.83c.13-3.68,7.49-4.16,8.56-.75Z"/>
  <path class="st3" d="M126.15,40.57c2.42.73,3.25,3.2,2.52,7.41,1.91-.03,3.08.76,3.53,2.39l8.32-.03.38,9.18c1.5.27,4.03.28,4.57,1.5l-2.83,2.58c.43,3.64-.26,6.07-2.07,7.28-2.86.9-4.08-.91-3.64-5.44-5.38,1.48-9.33-4.38-3.46-5.59-.01-1.53,1.13-2.61,3.41-3.22.45-2.23-.16-3.13-1.81-2.71-.03,2.56-.96,4.11-2.8,4.65-1.18,4.25-6.38,2.94-8.53-.95-.58-1.05-2.24-17,1.22-17.09-2.1.32-2.96-1.23-2.57-4.66-3.67.82-5.96.08-6.88-2.23l-.19-1.57,10.75.08.09,8.4Z"/>
  <path class="st3" d="M152.8,70.71l-.92,2.42c-3.49-.76-4.78.42-3.87,3.54,2.74-.53,4.35.3,4.84,2.46l9.5.1v28.75s-9.7-.19-9.7-.19c1.41-1.43,4.52-1.28,8.16-.52l.35-26.82-8.34-.11c.51,2.8-5.49,2.96-6.99,2.35-5.04-2.05-5.85-9.34-1.57-12.07-2.97-1.3-3.22-9.62,1.2-8.41,0,2.42-.61,4.95.63,7.58,2.97-.75,5.42-.51,6.7.92Z"/>
  <path class="st30" d="M64.55,33.46l.13,7.13c-.43,3.82-10.8,4.42-12.1.91-1.48.11-3.06.42-3.95-.92,1.03.33,3.43.17,3.84-.8.43-1.03,0-4.11-.01-5.71,3.22-1.91,8.54-.94,12.1-.61Z"/>
  <path class="st47" d="M46.74,148.97l-8.56.75c-2.84.19-6.02-.22-8.71-1.46,2.79-.6,5.39-.57,8.6.4l-.1-10.49c5.15,1.12,14.31,5.26,8.77,10.8Z"/>
  <polygon class="st32" points="152.8 70.71 152.84 79.13 145.55 79.06 145.55 70.77 152.8 70.71"/>
  <path class="st41" d="M132.19,50.36c-1.76,0-3.57.8-5.91-.08l-.14-9.72,5.95.06.09,9.74Z"/>
  <path class="st48" d="M145.46,61.02v1.19c-1.96,2.25-1.21,5.6-1.2,8.41-.99,3.41-2.21,3.5-3.71.27.19-3.19.55-6.36-1.19-9.76l6.1-.1Z"/>
  <path class="st44" d="M64.68,40.59l9.7-.04-.14,2.43c2.07.77,3.07,3.16,3.02,7.16l25.48.38,1.69,2.44c.63-.55,1.29-1.4,1.26-2.7l-.24-9.92,10.08.19c.43-3.68,8.69-3.52,9.43,0l1.26,17.95,6.05.09c1.9-1.38,2.54-.68,1.19,1.28-.39.85-.74,2.33-.41,2.98.64,1.25,4.53-.36,5.77.18,1.76.76-.7,5.5,1.74,7.87,1.24.21,2.5,0,3.71-.27l.04,9.65,8.52.08-.09,25.25c-2.38.72-4.25.26-5.95.22-3.23,2.87-12.38,4.12-14.71-.3-2,.09-2.9-1.76-2.71-5.56-.19,2.83-1.23,4.71-3.12,5.66.56,3.57-5.44,3.64-6.24.29-.52,2.13-2.8,3-6.84,2.62-2.29,3.48-9.82,4.13-10.85-.48-2.88.44-4.57-.36-5.07-2.39-2.24.2-3.29-1.48-3.14-5.03-1.58-1.04-3.11-2.27-4.61-3.69l-2.61.11c-1.03,2.68-2.37,3.85-4.03,3.5.47,2.92-.41,4.63-2.63,5.13.29,2.19-1.26,3.08-4.64,2.67.09,3.92-9.87,3.15-12.59,1.82-1.1-1.6-2.57-3.05-4.41-4.34l-6.05-.26c.26-2.53.78-5.17.13-7.21-5.62-2.5-7.96.21-7,8.13-1.63,2.93-11.42,3.04-12.51-.73l-2.28-1.78c.74-3.95-.94-5.28-5.06-4-.55-.58-.7-15.26-.23-15.9.8-1.11,2.9-.63,4.24.08.11-2.2,1.02-3.49,2.72-3.89l1.03-9.06c1.39-.32,5.07-.19,4.93-2.27-.08-1.12-.74-3.86.06-5.04,1.35-1.31,4.48-.88,6.69-.59l1.37-11.76c2.52-.05,4.33.06,6.49-.62.26-3.55.19-6.56-.51-9.41l12.1-.91Z"/>
  <path class="st8" d="M104.82,15.27l-29.98-.06c.78-3.32.75-6.08.67-9.64h28.9s.41,9.7.41,9.7Z"/>
  <path class="st15" d="M104.42,52.97l-30.15-.45-.03-9.53c.7-1.34,2.04-2.38,3.18-2.51,2.33-.26,3.57,1.96,3.09,4.93l16.26-.32c.52-1.18.69-3.87,1.6-4.27,1.08-.48,3.15-.46,5.51-.51,1.2,4.02.39,8.3.53,12.65Z"/>
  <path class="st6" d="M79.2,23.49l-1.53-.07c.74-1.85,1.23-4.17,1.46-6.97l7.12.12-.52,6.47-6.53.45Z"/>
  <path class="st43" d="M79.2,23.49c.02,2.07.85,4.16.44,6.74-1.97,1.12-3.9.51-5.33-.54l-.08-6.18c1.24-.01,2.6.09,4.05-.87-.74-2.57-.61-5.02.85-6.19l.07,7.05Z"/>
  <path class="st1" d="M125.93,118.67c2.88,2.67,3.06,6.81.52,12.42-4.71,8.8-5.61,15.52-4.98,25.19-2.61,2.69-5,5.49-7.17,8.4l-3.78.06c-3.51-.06-6.4-.66-8.68-1.79.39-11.65,1.03-23.24,1.92-34.78l1.63-.76c.32-2.18,1.91-2.98,4.78-2.39,0-2.79.91-4.45,2.74-4.97,1.74-2.77,4.8-3.11,7.3-1.12,0-4.07,5.12-4.04,5.71-.26Z"/>
  <path class="st24" d="M144.37,111.79l.45,16.14c-2.08.75-3.96-.12-5.49-.19-2.3-.64-3.02-2.79-2.16-6.46-2.28-.81-3.29,1.02-3.01,5.49-2.67,4.11-3.84,8.2-3.52,12.28-2.86,5.49-3.69,10.72-2.5,15.71.85-2,2.1-3.08,3.73-3.24l.08,13.1-17.65.07c-.28-3.82.37-6.98,4.85-8.31.62-5.11-1.16-11.37.75-15.91,3.43-6.99,6.35-14.06,6.03-21.78l.84-2.48,12.07-.85c1.08-3.21,2.38-6.33,5.53-3.56Z"/>
  <path class="st19" d="M105.39,127.41l-1.18,36.7c2.79-.54,5.03-.8,6.31.63l-11.97-.06c.03-.21-.12-.66-.32-.92-3.34-2.11-2.79-10.89-2.39-15.06.42-4.4,1.07-7.68,3.73-11.27.4-2.36.37-4.91-.1-7.65-4.99-3.15-2.22-7.31,1.36-9.8.4-1.1.81-1.09,1.23,0,2.35-.28,3.13,1.36,2.34,4.93l.99,2.5Z"/>
  <path class="st0" d="M97.19,118.86c1.94-2.7,3.05-1.69,3.65,1.13.41,2.38-.03,4.36-2.91,6.35,1.99.5,3.86,1.03,3.9,1.95l.22,5.03c1.72,4.33-2.2,7.44-2.89,9.85-1.96,6.82-.26,14.26-.93,20.6l-17.84-.22-1.58-19.25c-.43-5.28-3.41-11-.32-16.32,1.41-2.43,1.33-5.33,1.56-7.66-2.29-.46-2.17-1.38.18-1.84.15-.92.39-2.22,1.11-2.39,2.86-.65,15.09-.58,15.85,2.78Z"/>
  <path class="st36" d="M58.56,118.76c1.91-2.04,5.4-1.43,6.09,1.46,2.1-.05,2.92,1.23,2.44,3.84,2.66.26,4.24,1.31,4.74,3.14l.22,22.98c.06,4.51,1.88,8.61,1.33,13.26h-10c.75-1.66,1.13-3.71.56-4.79-.64-1.22-3.54-1.22-5.14-1.43l-.48-22.26c-1.74-.07-5-.64-5.06-2.12l-.6-14.16,5.89.07Z"/>
  <path class="st12" d="M46.65,118.73c-.06,2.58-1.09,6.93-.34,9.81,7.79,9.93,6.99,28.22,5.56,28.85-1.22.53-4.4.33-4.45-.82.91-3.04.31-5.62-.68-7.6-.79-1.59-.24-5.44-3.31-6.3-2.77-.78-4.98-1.44-5.46-4.49-.03-2.82.38-5.72-.44-9.07l-4.25-2.8c-.98-3.25-.26-6.02-.09-8.41,4.39,1.04,8.95.86,13.46.83Z"/>
  <path class="st37" d="M80.35,111.63c3.61-.41,3.32,6.34-.13,6.83l-.18,1.84-1.07.05c-2.29,3.53-12.8,3.74-14.32-.14-2.21-.02-4.45.29-6.09-1.46l-.04-7.44c.56-3.46,5.34-3.18,6.99-.59,3.73,1.03,6.56.5,8.47-1.6,3.46-.65,5.58.18,6.37,2.5Z"/>
  <path class="st25" d="M78.97,120.35c-1.13,3.44-3.18,7.01-7.13,6.85l-7.13-.29-.05-6.69,14.32.14Z"/>
  <path class="st35" d="M139.33,127.73l.36,11.67c.13,4.3-2.59,5.72-6.33,6.31-2.32.37-1.17,4.27-1.49,5.78-.32,1.54-.59,4.49-1.63,5.32-.83.66-4.75.31-4.9-.75-1.76-12.66,3.9-15.22,2.87-19.05-1.59-5.85,5.65-6.95,3.63-17.67,3.04-.77,4.82-.62,7.83-.23l-.35,8.61Z"/>
  <path class="st38" d="M32.53,80.25l.15,6.97c-2.32-.09-3.81-.79-6.29-2.04l-.08,13.3c1.15-.97,4.22-1.88,5.28-.73,2.01,2.19,1.76,5.67,1.54,8l-.13,1.6c-2.37-.75-4.99-1.35-7.84-1.81l-.47-25.22c2.57-.03,5.02-.94,7.84-.07Z"/>
  <path class="st33" d="M52.64,98.34l-6.08.24c.09,4.54-.14,8.43-1.43,12.9l-10.79.19c-1.01.02-1.7-3.17-1.4-4.49l-8.07-.3.29-1.34,7.97.2,12.03.26.42-7.82c.1-1.92,6.46-1.72,7.06.15Z"/>
  <path class="st18" d="M80.21,105.67c3.54.09,3.48,5.26.14,5.97l-21.83-.31.04-5.51c1.44.06,5.01-.83,5.64.8l1.42,3.71,3.87.35c1.57.14,3.21.2,3.34-.83l.51-3.81,6.87-.37Z"/>
  <path class="st17" d="M126.23,105.63c.09-3.61,5.08-3.4,5.83-.1l14.71.3c-2.88.72-1.92,4.18-2.41,5.97-1.01.88-3.9,1.38-2.2,5.74l-16.24,1.14c-1.63.11-4.21-.75-5.71.26-3.62,0-3.49-6.72-.06-7.36-3.53-.38-3.51-4.77-.18-5.65l6.24-.29Z"/>
  <polygon class="st14" points="124.95 40.54 115.52 40.54 115.5 33.66 124.86 33.41 124.95 40.54"/>
  <path class="st20" d="M133.45,59.86l-1.19-1.28-.07-7.05h7.13s-.09,8.75-.09,8.75c-2.24-.61-4-.74-5.79-.41Z"/>
  <path class="st28" d="M97.23,105.65c-2.4,6.26-9.98.97-8.24-5.51.84,7.02-5.32,11.69-8.78,5.53l.36-8.54c1.45.65,4.12,1.51,4.52.67l2.42-5.05c2.01,4.08,4.39,5.31,8.57,4.73l1.14,8.17Z"/>
  <path class="st46" d="M119.99,105.91l.18,5.65c-.11.94-.39,2.34-1.06,2.42-1.98.24-19.08.64-19.92.09-2.47-1.63-6.12-6.7-1.95-8.42,2,.05,5.48-.66,7.4.84.29.93.6,3.91,1.58,4.24.7.23,2.44-.31,3.17-.62.67-.29.89-2.19,1.2-3.03,2.8-1.85,6.57-1.03,9.4-1.16Z"/>
  <path class="st34" d="M68.9,66.45c-5.88-5.45-11.2-.67-10.21-5.81.16-.81,8.3-6.09,13.42-2.51,1.87,1.31.02,6.5-3.21,8.32Z"/>
  <path class="st16" d="M112.5,68.09c-1.1.87-5.46,1.16-6.32-.15-1.44-2.83-.69-6.06-.73-9.81l6.93-.05.13,10.02Z"/>
  <polygon class="st7" points="132.06 105.52 126.23 105.63 126.23 97.72 132.2 97.39 132.06 105.52"/>
  <path class="st10" d="M104.46,83.18c1.33,1.13,1.04,4.48-.05,4.95-1.17.51-4.08.69-5.14.11-1.27-.69-1.27-4.95.12-5.43,1.63-.57,3.84-.67,5.07.37Z"/>
  <path class="st9" d="M66.64,83.34c.46-1.09,4.2-1.13,5.55-.61,1.11.43.73,3.48.38,5.03-.26,1.14-2.87.65-4.67.63-1.22-.02-2.43-2.27-1.25-5.05Z"/>
  <path class="st29" d="M50.84,75.22c2.27.16,2.27,2.46,1.79,3.28-.97,1.64-6.41,1.6-6.77-.23-.16-.82-.39-2.51.29-2.87.75-.4,2.86-.31,4.7-.18Z"/>
  <path class="st39" d="M131.76,79.37c-.76,1.02-4.49.56-5.11-.43-1.1-2.58.49-4.11,2.59-4.16,2.57-.06,4.81,1.5,2.52,4.58Z"/>
  <path class="st40" d="M97.23,105.65l1.23,6.02,21.7-.1.06,7.36c-2.17,1.46-4.63,1.56-7.3,1.12-1.9,3.09-9.08,3.16-10.85-.06-.31.03-.97-.14-1.23,0-1.32.68-2.68-.87-3.65-1.13l-2-1.78c1.29-2.65-.67-4.26-5.87-4.83-2.85,2.08-7.79,3.45-8.97-.61l-.14-5.97c1.89-.01,3.53.59,6.19-.21-.04-2.64-.47-5.41.67-7.72,2.72-.72,4.43,1.06,4.44,2.52,0,.88-.55,2.85-.04,4.27.7,1.96,4.16,1.25,5.76,1.13Z"/>
  <path class="st27" d="M112.92,120.05l.17,7.4-7.7-.04c-1.86,0-3.19-.94-3.22-2.12l-.11-5.3c3.42-.37,7.41-.5,10.85.06Z"/>
  <path class="st2" d="M97.19,118.86l-16.96-.39.13-6.83c3.76.07,7.38.86,9.02-3.82,1.6,3.65,3.73,3.27,6.84,3.94,2.3.49,1.63,5.42.98,7.11Z"/>
</svg>