<?xml version="1.0" encoding="UTF-8"?>
<svg id="_레이어_1" data-name="레이어_1" xmlns="http://www.w3.org/2000/svg" version="1.1" viewBox="0 0 177.48 177.48">
  <!-- Generator: Adobe Illustrator 30.3.0, SVG Export Plug-In . SVG Version: 2.1.3 Build 182)  -->
  <defs>
    <style>
      .st0 {
        fill: #592395;
      }

      .st1 {
        fill: #cea0f8;
      }

      .st2 {
        fill: #854bc5;
      }

      .st3 {
        fill: #501e86;
      }

      .st4 {
        fill: #59248e;
      }

      .st5 {
        fill: #6eb236;
      }

      .st6 {
        fill: #79b742;
      }

      .st7 {
        fill: #562287;
      }

      .st8 {
        fill: #5a2591;
      }

      .st9 {
        fill: #3c7a1c;
      }

      .st10 {
        fill: #501e89;
      }

      .st11 {
        fill: #2c641d;
      }

      .st12 {
        fill: #4e1e88;
      }

      .st13 {
        fill: #955ed0;
      }

      .st14 {
        fill: #be86f5;
      }

      .st15 {
        fill: #b982f3;
      }

      .st16 {
        fill: #cca1f8;
      }

      .st17 {
        fill: #a86ceb;
      }

      .st18 {
        fill: #326a20;
      }

      .st19 {
        fill: #54228c;
      }

      .st20 {
        fill: #985ede;
      }

      .st21 {
        fill: #c691f6;
      }

      .st22 {
        fill: #65309f;
      }

      .st23 {
        fill: #59248c;
      }

      .st24 {
        fill: #9556db;
      }

      .st25 {
        fill: #45177b;
      }
    </style>
  </defs>
  <path class="st17" d="M142.57,85.83c3.94,3.94,4.51,11.54,1.04,15.92.54,4.17,1.18,9.05-.95,12.59-2.68-.02-3.56-2.5-2.65-7.45-5.76-.5-8.23,1.27-7.38,5.32-1.54,3.5-4.74,5.23-9.58,5.19l.33,10.95-2.53,8.44c-2.03.04-3.15-1.29-3.37-3.98-9.29,1.8-14.52-.49-15.68-6.88-6.54.83-10.83-.65-12.86-4.44l-.09-23.14,2.75-1.96c1.41-2.81,4.98-3.75,10.72-2.81-1.24-8.02,4.04-16.72,12.68-14.59.14,4.22,1.41,6.12,3.8,5.7-.44-5.17,1.04-7.27,4.42-6.31,2.96,1.53,3.88,4.66,2.74,9.37-1.65,4.91-.71,6.61,2.83,5.09-.86-7.64,10-13.49,13.79-7.03Z"/>
  <path class="st11" d="M84.87,122.9c3.63-2.07,5.63,3.4,2.48,5.57-.31,1.91-1.05,3.57-2.36,3.66l-6,.4c-1.58.11-1.33,5.82.23,6.3,5.71,1.75,11.41.74,16.61.52,1.39,2.98,1.91,5.4-1.4,7.08-1.08.55.88-3.16,3.65-2.05,2.31-.11,4.43-.3,7.2.38l-.3,12.73-50.39.54c.45,3.35.22,7.4-1.13,7.55l-6.91.75c-.81,1.18.86,5.34-1.39,6.1-1.68.56-3.92.58-6.61.36-2.35-.2-2.92-4.45-1.64-6.15l3.25-4.33c.47-1.2-.09-4.14,1.44-4.52l4.45-1.09-1.73-14.63c-2.73-1.04-4.66-.96-8-.54l.27-7.81c-.84-3.05,2.52-4.77,6.34-3.56-1.62-6.46,1.94-8.69,10.68-6.69.27,3.92,1.44,7.23,3.53,9.91-.69,9.48.96,10.97,4.95,4.46-.46-2.07,1.06-3.15,4.56-3.25-.15-4.37,2.63-6.38,8.37-6.03-1.38-7.54,6.05-11.91,9.88-5.68Z"/>
  <path class="st8" d="M63.67,56.55c4.3-.15,3.17,12.14-1,12.63,4,2.42,3.37,10.03-1.58,9.32.43,2.44-1.12,3.38-4.64,2.83-.13,3.16-1.26,4.99-3.39,5.5,2.46.24,3.5,2.26,3.15,6.07,4.38-.36,6.49,3.69,6.32,12.14-.12-1.13.17-2.71.95-2.74,6.02-.19,12.74-.2,18.25,2.22-.63-4.41.39-7.13,3.04-8.14l4.15-.74c1.95-1.53,2.85-1.28,2.69.75l.1,26.3,12.82.61.74,6.35c5.32.77,9.98,1.02,15.14-.15l.43,7.28-23.98.29c.21-2.48.28-5.39-.85-6.51-2.29-2.3-6.07-1.79-8.66-2.1l-2.48-5.57c-1.63-1.08-2.53-2.94-2.69-5.59l-17.99-.07-1.9-2.77c-3.65,2.16-5.07-3.13-4.89-5.87.01-.22,2.32,3.36-.58,3.18-2.69-7.68-4.91-11.9-12.02-10.35l-.1-26.89c4.83.79,7.1-1.38,8.92-5.33s.84-8.13.51-13.02l9.45-.82c1.23.15,1.23.54.1,1.17Z"/>
  <path class="st15" d="M106.54,10.97c.6-2.49,2.58-2.96,5.94-1.41l18.62-.14,1.94,2.75,2.75,1.53c.26,1.85,1.01,26.65.54,27.97-.44,1.23-1.77,1.88-3.05,2.34-.11,2.7-1.2,2.54-1.68-.23-2.36.78-4.85.86-7.46.25-5.02,1.7-15.45,2.91-19.28-1.51.59,4.14-8.42,3.99-9.12-.03-4.15-.57-3.94-8.78.08-9.6l.9-1.08c1.27-1.37,3.12-1.76,5.57-1.19l.57-14.62c-3.12-.43-5.12-1.67-5.99-3.72,2.48-1.93,6.54-2.04,9.65-1.31Z"/>
  <path class="st19" d="M123.22,68.98l19.36.06.12,9.32c-.14,1.07-.43,2.63-1.21,2.76-4.17.7-16.63,1.25-18.27-2.73-1.61,1.13-1.53,3.12-1,5.97.61,3.25-4.01,3.55-6.53,2.69-1.79-.62-2.91-2.65-2.02-6.68-3.18.53-5.91,3.2-7.18,4.49-2.26,4.17-1.41,7.23-1.18,11.64l-13.7-.1-2.82-.98c3.57-2.14,2.28-5.65.04-8.42-.85-1.06,12.27-9.4,15.16-8.56l1.42-2.75c-4.31.43-4.34-13.02-.21-14.04-7.03-7.03,16.47-4.03,17.09-3.08.01,3.53.32,7,.93,10.41Z"/>
  <path class="st6" d="M46.27,122.53c1.96.17,5.04.86,7.29-.76-1.26-3.2-.97-6.08.76-7.29l2.66,2.07c-.2,6.23.39,11.56,4.46,15.95,4-.49,4.37,4.03.63,5.36.23,1.97.56,4.06.17,6.64-3.69-.68-6.05.6-7.6,3.34-.37-8.49.55-15.61-1.91-23.49l-7.11-1.19.1,17.56c-3.38-1.6-3.43-4.62-4.57-7.72-.59-1.61-4.15.11-4.6.73-2.13-1.44-5.05-1.72-8.52-1.35l-.13-23.65c-.01-1.93.31-3.38,1.54-4.09l2.76,1.21-.03,22.16c1.76,4.28,2.43-11.59,2.26-13.17,1.32-2.35,4.47-3.16,9.45-2.41.27,4.55,1.06,7.92,2.38,10.11Z"/>
  <path class="st2" d="M131.62,43.78c2.6,3.83-1.69,4.82-5.4,4.66.54,5.77-.42,9.8-2.91,12.08l-.1,8.46c-1.68-.53-1.95-4.68-.84-7.76l-12.72-1.38c-1.05-.11-2.5-.48-3.28-.18-.59.22-1.1,1.09-1.19,1.98-1.03,2.08-5.64,2.44-7.43,1.55-10.44-5.18-.57-11.32,6.7-12.41-3.29-1.75-3.07-6.87.41-8.28,8.98.06,17.97-.68,26.74,1.26Z"/>
  <path class="st0" d="M133.29,44c.86-3.49-.37-9.19-.34-13.7l.1-18.13c2.43-.12,5.08-1.19,8.68.07l.4,31.75c-3.14.75-6.09.77-8.84.02Z"/>
  <path class="st12" d="M142.66,114.34l-10.35-.3c-1.46,6.45-4.96,14.46-4.4,14.07-.95.65-3.34.48-4.54.24-1.2.04-2.58-.81-2.68-2.73l-.56-11.11,9.63-.74.55-9.01c4.88.4,8.44.04,12.54-3.24l-.2,12.8Z"/>
  <path class="st22" d="M133.05,12.17l-20.91.11-5.59-1.31c-.06-2.69-.28-5.18.34-8.1l26.03-.02.13,9.33Z"/>
  <path class="st18" d="M46.27,122.53c-.5-.04-1.64.04-2.12-.25-1.6-.97.13-5.6-.86-7.03-.74-1.07-3.54-1.11-6.36-.65l-.07,16.19-7.44.03.04-26.18c1.69-.3,6.01-1.09,7.39.67.54,1.15-.06,4.8,1.6,5.29,1.71.5,3.96.31,6.96-.57l.87,12.52Z"/>
  <path class="st13" d="M87.15,32.04l.06.92c2.32.26,3.15,2.06,2.5,5.41,5.82-.25,6.36,9.22,3.16,12.55,6.18,2.43-5.36,14.87-9.28,8.91l-.09-15.51c-5.85.81-9.69-.28-11.51-3.27-1.94,1.42-2.47.64-1.01-1.27-.29-3.7,2.12-6.56,5.26-8.33.2-1.51-.19-5.66,1.41-5.86,2.44-.35,3.34,1.23,2.7,4.73,2.76-.13,5.02.43,6.8,1.71Z"/>
  <path class="st10" d="M143.61,101.75c-.69-5.32-1.14-10.54-1.04-15.92-4.1-.13-3.79-6.78.12-7.47,2.51,0,5-1.05,8.68.13l-.13,23.22-7.63.05Z"/>
  <path class="st5" d="M98.07,144.37l-3.52,6-23.53-.18-.05-6.72,25.01.21c.34-2.08-.18-3.18-.16-4.33,1.64,1.22,1.48,3.43,2.25,5.03Z"/>
  <path class="st23" d="M96.74,31.81l.15-19.53,8.86.14-.63,20.35c-3.13,1.08-6.34.9-8.38-.95Z"/>
  <path class="st9" d="M62.28,114.48c4.71-.05,2.77,12.88,1.79,16.28l-2.65,1.74c-.82.05-4.03.05-4.86-1.13-2.27-5.32-2.62-11.75-2.26-16.89.83-.62,2.26-1.42,2.51-2.69.21-1.05-.75-2.42.79-4.73l4.67,7.41Z"/>
  <path class="st7" d="M70.98,39.79c.53.06,1.02.75,1.01,1.27,4.37-.13,2.9,14.65,1.59,16.29-1.94,2.43-9.26,3.19-9.91-.8l-.1-1.17.16-15.52c3.01-.6,5.12-.33,7.24-.07Z"/>
  <path class="st25" d="M123.31,60.52l.18-15.28c3.3.67,6.68.85,8.12-1.47l1.68.23.68,4.99c.24,1.76-3.36,2.87-5.81,2.42v8c0,1.47-3.91,1.65-4.85,1.1Z"/>
  <path class="st4" d="M95.84,32.89l-.08,9.6c4.09,1.73,4.2,5.53-.07,7.13,1.26,3.87-.4,4.6-2.81,1.31.04-2.35,1.28-6.62-.65-9.18-1.34-.58-5.12-.43-5.39-2.52s.51-4.32.38-6.26l8.63-.07Z"/>
  <path class="st3" d="M87.15,32.04c-2.68,1.4-5.8,1.82-9.59.69l.09-7.13c2.99-.37,6.16-.21,9.5.32v6.12Z"/>
  <path class="st21" d="M142.69,78.36l-.12,7.47c-2.97.14-8.28-.29-10.22,2.86-.97,1.57-.45,5.23-1.63,6.16-1.07.85-3.21,1.15-4.94,1.05-3.02-.17-4.44,2.02-4.13,5.2-13.18,2.27-15.47,15.05-22.42,13.27l-.62-8.32,9.2-.18c-.52-3.69,3.79-4.38,4.58-6.11,1.53-3.32,5.61-3.76,8.42-4.25,3-4.52,2.66-12.24,2.39-17.13l19.48-.03Z"/>
  <path class="st14" d="M92.87,50.92c1.16.21,2.22-.7,2.81-1.31,1.61-3.39,7.96-2.41,8.78,1.18-1.25,4.52-5.04,2.83-7.42,5.14-.72.7-1.25,4.11.17,4.41,2.83.6,5.79-.09,7.98,1.31l.21,14.04c-1.64,3.57-5.41,5.14-11.31,4.69-7.75-2.25-8.61.45-2.74,5.83-.54,3.1-.82,6.26-.86,9.48l-5.73.69-.22,10.44c-3.8,1.69-5.87-1.34-8.97-1.43l-13.04-.35c-1.3-5.47-2.17-10.92-2.64-16.36,2.63-2.45,5.68-4.12,9.14-5.01l-.52-10.92c-3.46-.04-5.41-1.23-5.85-3.57l1-12.63,8.05-.26.27-15.23,14.28.63.09,19.34c1.96-4.91,6.63-5.85,6.51-10.11Z"/>
  <path class="st20" d="M62.53,105.04c-2.51-.07-1.11-5.04-1.38-7.37-.3-2.59-5.71-2.29-7.75-1.38l-.34-9.45c.9-2.18,3.21-2.97,6.94-2.39-.55-2.36-.18-4.34,1.09-5.95,1.44-3,1.33-6.14,1.58-9.32l8.48.69.8,16.88-9.35,1.39-.06,16.91Z"/>
  <path class="st24" d="M105.4,75.69c.04,2.7-.65,3.45-3.31,5.14l-10.93,6.94.44,8.63h-6.83c.32-1.19,3.14-1.77,5.09-1.41l.57-7.01c-4.69.19-8.17.5-11.8-.48.08-2.68.38-3.9,1.23-5.02,1.62,2.29,2.15,2.65,2.91,3.24,1.28.99,4.36-.41,3.92-1.28-1.41-2.77-3.36-3.88-4.83-5.36,2.83-.12,5.14-1.9,6.97-2.89,2.9,1.67,6.19,1.82,9.72.82l4.56,1.07c.83.19,1.66-1.34,2.3-2.39Z"/>
  <path class="st16" d="M61.09,78.5c1.85,1.46,2.45,7.16.29,8.2-2.89,1.39-6.28.24-8.32.14l.22-8.22,7.81-.12Z"/>
  <path class="st1" d="M121.88,58.97l-8.14.33c-.51-3.63-.5-6.29-.11-9.23l8.67.72-.43,8.19Z"/>
</svg>