<?xml version="1.0" encoding="UTF-8"?>
<svg id="_레이어_1" data-name="레이어_1" xmlns="http://www.w3.org/2000/svg" version="1.1" viewBox="0 0 177.48 177.48">
  <!-- Generator: Adobe Illustrator 30.3.0, SVG Export Plug-In . SVG Version: 2.1.3 Build 182)  -->
  <defs>
    <style>
      .st0 {
        fill: #076506;
      }

      .st1 {
        fill: #5c300e;
      }

      .st2 {
        fill: #0e5e0b;
      }

      .st3 {
        fill: #0b5b06;
      }

      .st4 {
        fill: #065908;
      }

      .st5 {
        fill: #76bf1a;
      }

      .st6 {
        fill: #ab6826;
      }

      .st7 {
        fill: #115706;
      }

      .st8 {
        fill: #76bc10;
      }

      .st9 {
        fill: #aadc2c;
      }

      .st10 {
        fill: #573a10;
      }

      .st11 {
        fill: #106a0b;
      }

      .st12 {
        fill: #0d5e07;
      }

      .st13 {
        fill: #f8fbf3;
      }

      .st14 {
        fill: #7fc410;
      }

      .st15 {
        fill: #1c690f;
      }
    </style>
  </defs>
  <path class="st9" d="M64.02,46.24l2.1.21c1,3.75,1.21,8.08.63,12.99,2.42-.37,4.55.8,6.4,3.49l2.43-2.74c12.42,6.7,25.91,5.75,33.78-4.49-.29-4.17,10.35-4.1,13.35-3.46,4.89,1.05,11.63,7.34,12.27,12.48,3.04.07,4.75,1.71,5.31,4.68l.06,50.33c-1.19,2.56-3.95,4.39-8.27,5.5-1.65,5.97-3.36,11.85-5.13,17.65-6.26.82-11.63,3.08-16.11,6.79-6.9,9.66-17.2,11.41-19.64-2.07-4.62-.32-9.25-.3-13.9.09.43,13.09-17.99,11.92-23.14,2.21l-11.85-3.53c-2.79-4.32-4.57-8.51-5.33-12.57-3.28.58-5.47-.35-6.58-2.78-3,.17-4.1-2.41-3.3-7.74-3.29.32-5.41-.72-6.36-3.12-1.24-.14-3.11-.55-3.16-1.42-.38-5.84-1.43-47.84-.02-49.9.79-1.16,1.75-1.98,3.16-2.31.02-2.75,2.13-3.85,6.34-3.29-1-7.21,3.22-11.95,10.48-10.05-.51-3.71.42-6.12,2.79-7.24l1.05-1.68c5.81-1.99,19.55-3.4,22.66,1.98Z"/>
  <path class="st14" d="M136.65,46.36c2.57.5,3.5,2.63,2.78,6.42,4.15-.54,6.81.41,8,2.83,3.01.09,4.17,2.61,3.48,7.57,3.23.03,5.26,1.17,6.1,3.41,1.16.21,3.09.61,3.16,1.42.88,10.01,1.54,40.88-.04,49.88l-3.16,2.3c.29,2.4-1.82,3.68-6.32,3.86l-.6,15.32c-.92,3.93-4.13,6.11-9.63,6.53.67,7.95-3.39,12.06-11.34,11.64-.1,4.83-.18,7.01-5.04,9.42-2.59,1.28-27.26-.27-31.15-1.24-1.49-8.92-6.09-9.59-8.9-.71-9.47,1.81-19.23,2.52-29.26,2.12l-2.28-3.11-1.08.08c-2.09-1.57-2.99-3.88-2.72-6.92-8.76.53-10.96-5.38-11.56-13.28-7.28-.35-14.95-7.83-6.71-12.89,3.01-.31,5.8-1.09,9.91.4.04,3.26-.54,9.62,2.04,11.69l10.92,3.08c4.2,1.18,5.59,3.57,7.15,7.16,4.38,1.02,9.63.16,13.63-.08-.31-3.52-.38-6.01,1.2-8.78,5.87.12,13.76-1.06,18.88.52l1.34,7.5c.29,1.6,6.35,2.46,7.78.69,5.55-6.88,12.14-12.63,22-12.35l1.11-8.59c2.15-4.04,3.09-6.89,2.5-11.53,3.36.31,5.88.42,8.61-.63l-.34-52.09c-2.7.07-4.86-.6-5.02-1.39l-.89-4.39-7.49-6.85-14.35.33c.59,3.36-4.88,3.64-6.95,2.71-6.33-2.86-7.89-10.92-2.14-14.77,1.42-.95,30.23-.73,34.11-.44l2.26,3.16Z"/>
  <path class="st7" d="M102.05,24.77c.14,3.7.19,7.51.12,11.44l1.36-3.18,27.91-.34c-1.42-9.84,8.11-14.63,13.58-7.55.59,3.32,1.51,6.52-.18,10.55-3.7-1.39-8.31-.57-8.28,2.09.67,2.66,1.48,6.05.09,8.58h-35.99c-.65,3.07-.62,5.64-.04,8.77l8.74.57c.15,1.98.34,4.29-.89,6.54l-10.18,4.39c-9.87,4.26-20.9-3.49-25.14-3.7-9.53-1.95-4.92-11.38,3.58-10.72.52-3.11-3.09-4.05-10.81-2.82l-1.89-3.14-19.42-.21c-1.69-.02-2.8-.87-3.24-1.77-.31-2.31-.7-4.68.08-7.77l34-.07c4.79-6.72,7.65-3.5,8.6,9.66,2.9-.18,4.18,1.94,3.84,6.37,2.41,1.03,3.18-2.99,2.32-12.08l3.19-2.07c-1.07-4.23-.71-8.71.41-12.91l8.26-.63Z"/>
  <path class="st3" d="M156.95,120.19l.29,20.66c-7.39-.66-7.22,5.74-10.06,9.09-4.12,4.87-9.42,10.16-14.51,13.73-4.07,2.86-7.65,4.2-7.61,10.11l-29.31-.38c-2.61-.03-5.27-5.12-7.48-3.95l-6.58,3.49-28.71,1.07-.54-9.96,28.75-.7c1.63-.04,1.86-5.21,2.12-6.43,3.23-1.45,8.09-.85,11.47-.32l-.27,7.24,30.89-.03.78-9.77c2.95.23,7.51.88,9.67-1.32,1.94-1.98,1.29-6.52,1.38-9.21,3.34-1.62,6.03-1.39,9.56-2.04l.83-21.27h9.33Z"/>
  <path class="st5" d="M148.87,25.22l-3.86-.07-10.03.33-.23,10.34-32.59.4c-1.48-9.18.71-14.06,6.55-14.64,1.21-3.55-.36-5.11-4.69-4.69l-1.62-3.36,9.6-1.69c-1.61-2.43-1.02-7.58.72-7.6,2.55.55,3.52,2.56,2.9,6.02,10.99-.49,21.67.12,32.04,1.83,0,0,.4,4.38,1.21,13.13Z"/>
  <path class="st0" d="M20.7,66.53l.02,53.63-9.63-.39-.15-52.28c3.42-1.1,6.75-.82,9.76-.96Z"/>
  <polygon class="st4" points="156.95 120.19 157 66.59 166.34 67.75 166.53 120.11 156.95 120.19"/>
  <path class="st7" d="M148.87,25.22c-3.66-1.43-4.78-6.01-2.97-11.58l-32.72-.06c-1.19-3.22-.72-6.26-.46-9.33l34.13-.32c.72,3.6,4.97,5.53,6.72,7.16,1.56,3.76.73,8.92.25,12.91-.2,1.62-3.76,1.25-4.94,1.23Z"/>
  <path class="st3" d="M30.37,131.02c.05,3.01-.69,5.75.42,9.4,2.38-.45,7.02-.8,8.37.94,2.5,3.23,1.61,7.91,1.97,12.09l10.67.81c.64,3.72,0,6.84-.44,9.85l-10,.13-.57-10.11-10.37-.39c-.16-4.27.74-8.43-1.3-11.82-.95-1.58-5.83-1.33-8.28-1.08l-.11-20.68c3.04.05,5.97-.94,9.47.13l.18,10.73Z"/>
  <path class="st1" d="M93.79,25.4l-.41,12.91c-3.88.05-5.45-3.2-4.72-9.76-5.62-.58-8.35-4.67-8.19-12.27-1.85-.46-2.86,2.05-3.02,7.52l-4.36,1.43c-1.57-.09-5.4.48-6.47-1.07l.07-20.19,16.59.13c1.39,5.52,4.92,9,10.21,10.25l.29,11.05Z"/>
  <path class="st6" d="M93.38,38.31l-.21,17.05c-1.85.96-8,1.71-8.23-.59l-.9-8.68c-.18-4.86-1.52-8.52-4.01-10.99.45-4.24-1.2-7.49-4.94-9.75l-2-.12c2.48-3.19,2.52-7.31,1.95-12.21l9.17.18.07,11.81,9.32.82c-2.07,4.13-2.36,8.85-.22,12.5Z"/>
  <path class="st15" d="M40.31,45.95c.62,3.18.81,6.36.41,10.22-3.7.36-6.41.2-10.56-.75l.05,11.15-9.52-.05c0-2.64-1.89-8.04.82-10.53,1.57-.57,6.36.67,7.65-1.52.91-1.54.65-4.91.24-7.75,3.93-1.29,7.52-.86,10.89-.79Z"/>
  <path class="st12" d="M147.42,55.61c-2.63-.04-7.83,1.8-10.25-.71-1.95-2.02-.5-6.49-.52-8.54l-.09-8.58c1.55,1.96,1.6,4.66,1.47,7.92l9.6.31-.21,9.6Z"/>
  <path class="st11" d="M102.17,36.22c-.95-3.18-.81-7.43-.12-11.44.62-3.65.73-7.09.36-11.25l9.13,1.03c.85,3.63.77,6.92-.48,10.42l-7.82.48-1.06,10.77Z"/>
  <path class="st2" d="M157,66.59c-2.77-.1-5.83,1.03-9.13-.38l-.44-10.6,9.47.14.11,10.85Z"/>
  <path class="st10" d="M84.03,46.08c-1.45-2.51-2.01-5.48-1.36-9.42l-7.24-.24-.35-11.08c1.58.09,5.68-1.04,7.39.32l1.56,20.42Z"/>
  <path class="st13" d="M49.25,82.81c-1.94.81-5.7,0-6.84.89-1.56,1.22-1.98,5.06-1.02,8.2-3.47,1.14-6.4.78-10.36.59l.27-23.23,8.85,1.9c1.44-2.96.51-5.35.58-8.55,5.62-.5,12.05-1.98,17.02.58,3.09,1.59,3.1,7.83,2.35,10.84-2.58.03-6.33-.76-8.54,1.09-.59,1.48.75,6.41-2.32,7.7Z"/>
  <path class="st8" d="M73.15,62.93l-9.84-.5.71-16.19c5.08.06,10.96-.89,15.82.79.79,1.92.83,6.44-.11,7.61s-4.25.38-6.76,1.09c-3.04.85-2.01,5.96.17,7.2Z"/>
</svg>