<?xml version="1.0" encoding="UTF-8"?>
<svg id="_레이어_1" data-name="레이어_1" xmlns="http://www.w3.org/2000/svg" version="1.1" viewBox="0 0 177.48 177.48">
  <!-- Generator: Adobe Illustrator 30.3.0, SVG Export Plug-In . SVG Version: 2.1.3 Build 182)  -->
  <defs>
    <style>
      .st0 {
        fill: #ae163d;
      }

      .st1 {
        fill: #fcaeb7;
      }

      .st2 {
        fill: #aa0f37;
      }

      .st3 {
        fill: #fcdfe2;
      }

      .st4 {
        fill: #a30f39;
      }

      .st5 {
        fill: #9c788c;
      }

      .st6 {
        fill: #a80e39;
      }

      .st7 {
        fill: #c42b52;
      }

      .st8 {
        fill: #ae143f;
      }

      .st9 {
        fill: #a81036;
      }

      .st10 {
        fill: #fcf5f6;
      }

      .st11 {
        fill: #b52f4e;
      }

      .st12 {
        fill: #fca8b3;
      }

      .st13 {
        fill: #fca7b3;
      }

      .st14 {
        fill: #ee6e89;
      }

      .st15 {
        fill: #ab143b;
      }

      .st16 {
        fill: #aa1d3e;
      }

      .st17 {
        fill: #f37a91;
      }

      .st18 {
        fill: #ac1139;
      }

      .st19 {
        fill: #a4113b;
      }

      .st20 {
        fill: #a10b2e;
      }

      .st21 {
        fill: #b51b41;
      }

      .st22 {
        fill: #b3264c;
      }

      .st23 {
        fill: #a9123a;
      }

      .st24 {
        fill: #f892a5;
      }

      .st25 {
        fill: #a21038;
      }

      .st26 {
        fill: #ad143f;
      }

      .st27 {
        fill: #8a556c;
      }

      .st28 {
        fill: #af1d3f;
      }

      .st29 {
        fill: #fcabb6;
      }

      .st30 {
        fill: #ac173d;
      }

      .st31 {
        fill: #fcb6bf;
      }

      .st32 {
        fill: #ad143c;
      }

      .st33 {
        fill: #e46883;
      }

      .st34 {
        fill: #b21a3f;
      }

      .st35 {
        fill: #941236;
      }

      .st36 {
        fill: #f1758e;
      }

      .st37 {
        fill: #f7f1f5;
      }

      .st38 {
        fill: #a30d32;
      }

      .st39 {
        fill: #a2354f;
      }

      .st40 {
        fill: #c33958;
      }

      .st41 {
        fill: #fdcfd3;
      }

      .st42 {
        fill: #b11f45;
      }

      .st43 {
        fill: #fde1e3;
      }

      .st44 {
        fill: #85566c;
      }

      .st45 {
        fill: #960c2d;
      }

      .st46 {
        fill: #e0cada;
      }
    </style>
  </defs>
  <path class="st17" d="M131.26,29.92c1.9-.04,4.29-.53,5.67,1.01-.04,3-5.12,2.77-5.62-.04l-1.15,1.98-10.76-.15c-.34,3.05-1.46,4.11-3.36,3.2-1.61.04-2.28-.96-2.03-2.99-3.28-.5-4.64.1-4.08,1.81,2.25-.37,3.54.35,3.89,2.15,3.2.94,3.05,11.72-.02,12.92,2.88-.78,2.25,10.73,1.95,11.27-1.45,2.63-2.57,2.76-5.34,2.75l-.53,14.59c-.4,2.24-2.1,3.52-5.11,3.84-.19.66-.32,13.09-.02,13.71.39.81,9.85,2.13,7.33-3.51.98-2.02,2.88-2.8,5.72-2.32-.27-4.78,4.11-9.75,8.38-7.33,2.87-.42,2.83,1.86.22,2.67l2,.88c.93,5.87,1.15,15.15-6.39,14.84.3,3.96-1.37,6.19-5.51,5.86-2.76,4.48,12.76,2.88,13.5,2.29-.46-2.86.21-4.93,2-6.2l10.12-.75c-.21-5.22,4.54-8.2,7.44-3.66,3-.14,3.16,5.44.35,6.12-.39,1.42-1.65,2.04-3.77,1.87.25,1.68-.12,2.53-1.97,2.98l-.19,1.56-1.58,1.92-7.9.85-1.44,2.74c-.16.66-.38,1.32-.75,1.91-.72,1.17-19.13,1.25-22.06.99l-1.4-1.99c-1.89.16-2.61-1.42-2.18-4.75-1.64-.17-3-.33-3.72-2.15-1.48-.94-2.39-2.74-2.72-5.4-2.76.67-5.63-1.76-5.68-4.58-5-.59-9.87-.58-14.6.02.35,2.77-2.92,5.2-5.64,5.61.12,2.18-.66,3.66-2.32,4.43.11,1.62-1.21,2.45-3.97,2.51.39,2.35-.33,3.73-2.15,4.14-.12.77-.4,1.93-.96,1.97-6.15.4-14.38-.48-20.25-1.37-.03-2.1-.2-4.18-.52-6.25l-1.13,2c-4.83,0-9.67,0-14.51,0l-1.4-2c.1-2.12.2-4.78-.8-6.76-1.74-1.89-1.79-5.02.62-6.36,1.65-1.2,4.04-1.15,7.16.14,0,3.28,1.86,4.84,5.58,4.67,1.15,1.83,1.9,3.61,2.25,5.32,5.08,2.11,17.91,2.18,21.53-1.81-7.64.58-11.15-1.79-10.54-7.1-4.73-.5-6.51-4.27-5.33-11.32-5.04-1.1-5.78-2.5-5.67-7.67-4.3-.97-4.92-3.52-5.06-7.61-.34-10.15,11.09-11.72,10.26-1.61l2.62.76c1.94,3.03,2.66,6.81,2.16,11.32,2.79.28,4.56,1.3,5.31,3.06-.87,2.59.41,4.22,3.85,4.9.18,3.95,1.98,5.71,5.38,5.27,1.22,7.06,2.49,7.1,3.8.13,4.71-1.77,4.85-2.86.41-3.26-1.25-5.86-1.75-11.9-1.5-18.13-3.51.23-5.46-.95-5.86-3.52l-.02-34.06,2-1.46c-.37-2.97,5.33-2.81,5.82.06.64,1.55.62,2.91-.04,4.09-1.1.82-1.09,1.49.05,2,2.86.28,2.74,4.23.32,5.39l.18,5.58,1.83.52v16.72c2.33.37,4.1,1.21,5.34,2.52l.88,16.27,14.37-.08.75-15.54c1.11-1.58,2.87-2.57,5.27-2.98l.38-16.1c1.12-1.31,2.77-2.12,4.94-2.44v-13.68c-5.66.67-7.39-6.58-3.29-8.95-.45-2.97,5.33-2.97,5.93-.11l8.25-.2c-.36-1.44-.53-4.61.81-5.16,1.57-.02,2.29,1.16,2.18,3.54l10.67-.25,1.43,1.97Z"/>
  <path class="st12" d="M131.3,30.9c1.79-.02,2.45,1.18,2,3.63,1.91-.5,3.19-.02,3.83,1.46l.18.91c2.99-.23,3.36,4.94.58,5.87l.75,11.35c2.49,4.38.77,8.68-4.63,9.36v8.99s-1.99,1.36-1.99,1.36c-.23,1.68-1.49,2.27-3.8,1.76.67,3.75-.02,6.16-2.07,7.23l-6.02,3.39-.06,5.95-6.07-.02-.03,6.71c-3.94-.55-7.06-.63-11.24-.06l.03-18.58,5-.54c.6-6.07.65-11.53.19-17.67l5.79-.36.05-11.81c0-1.8,1.26-2.48,3.8-2.04-.24-4.93,1.8-7.29,6.12-7.09l.07-1.78-8.56-.05-1.41-1.97c-1.93-2.71.83-4.04,2.22-.96,1.18-.41,1.15-3.2.65-5.24l14.62.21Z"/>
  <path class="st24" d="M132.83,146.77c2.99-1.25,9.4-2.09,11.21.97-.29.59-.94,1.09-2,1.07l-8.94-.19c.27,3.12-9.48,3.03-10.19.03-.16,1.75-1.38,2.31-3.64,1.65-.6,2.26-1.62,4.5-3.07,6.7l-54.03-.02-1.2-2c-.67-1.73-.86-3.83-.56-6.29-2.55-.73-2.47-5.13.26-5.89,2.51-4.8,7.91-1.45,7.92,3.81l41.09-.08c.63-4,2.42-5.95,5.38-5.85l.08-3.2c-3.18.66-5.24.11-6.16-1.64-3.51.09-4.37-6.17-.34-6.09l10.97,1.1c2.33-2.01,9.32,1.11,8.87.97-1.3-.38-2.2-.67-2.54-2.22l-.1-1.44c2.69-1.58,6.13-2.02,10.31-1.32-2.64-5.88,11.58-6.04,12.4-5.21,1.47,1.49,1.98,13.77-2.43,10.63-1.07,5.25-6.33,6.06-11.44,5.53.18,3.23-1.11,5.58-4.29,6.68,1.61-.1,2.21.56,2.45,2.28Z"/>
  <path class="st17" d="M145.95,117.82c.55-3.7,3.56-1.66,5.69.06l.04,14.8c2.57-.27,4.04.5,4.43,2.31-1.53,1.36-4.09.94-6.2.67-.24,1.5-1.59,2.05-4.05,1.65-1.01,2.42-.03,3.23,2.95,2.42l1.26,2.09c-1.56,1.4-4.06,1.22-6.1.88-.99,1.67-2.95,2.14-5.87,1.41-2.03-.12-3.78.77-5.26,2.68l-3.37-.36-3.01-3.28c1.74-1.04,3.56-.78,5.97-.77l.21-6.5c3.94-.18,7.36.41,10.67-.83,1.05-.62.83-3.8.69-5.34.29-.77,2.34-.76,2.79-.21l2,2.46.36-8.31c-4.07.21-7.06-.59-10.86.56.09,1.71-.11,4.02-1.08,4.46-2.13.96-7.73-1.06-11.28.98-5.67,1.49-11.43,1.54-17.3.14-1.34,1.37-.09,4.06.34,6.09-.4,1.68-1.85,2.45-4.34,2.29.33,3.22-.6,5.18-2.82,5.86l-18.43.38-1.48-1.97.97-2.29c3.88-.48,7.77-.58,11.69-.29-.05-2.24.7-3.56,2.27-3.97-.07-1.57,1.23-2.31,3.9-2.24-.53-2.73,2.84-6.09,5.61-6.02.12-2.06.92-3.39,2.42-4l1.11-2.02,20.25-.33c.86-3.66,3.91-5.03,9.14-4.1l6.68.65Z"/>
  <path class="st26" d="M122.91,148.65c4.16,2.57,2.87,4.55-3.85,5.94l-1.31.33-.74,6.67-56.01-.02c-.18-2.48-.64-4.47-1.35-5.97l1.33-.61,56.15.02c.47-2.37.16-4-.03-6.28,2.07-.89,4.01-.07,5.81-.07Z"/>
  <path class="st0" d="M162.79,63.85c.78.2,1.94.52,2.01,1.13.48,4.4.52,13.84.11,18.25.62,2.98-.03,4.85-1.96,5.62l-.96-.02-2-1.14-.09-21.84c-3.17.18-5.15-.93-5.96-3.33l-7.97.41-1.67-1.84-2.05-1.39c.13-1.85-1.08-3.38-3.62-4.6l-.73-12.35-.58-5.87,6.43.02c1.03,5.58,1.32,10.43.84,16.31l11.07.04c.45,1.12.98,3.51,2,3.36.78-.11,3.71-.3,3.98.45.7,2,1.14,5.07,1.16,6.77Z"/>
  <path class="st9" d="M39.22,36.89c.79,2.96.34,4.97-1.36,6.02,2.41,1.58,2.91,8.69.19,10.09.14,1.68-.82,2.73-2.87,3.13.13,2.49-.57,4.04-2.09,4.64-.06,2.98-1.98,2.41-3.14.05-.38,1.79-2.33,2.28-5.85,1.47-2.92,2.04-8.16,5.26-9.17.66-1.6-.08-1.75-.35-.31-.81-.44-1.93-.33-3.72.34-5.4l5.39-.56c.3-.66.53-3.33,1.65-3.33l10.38.02c-.38-5.6-.15-10.32,1.24-16,1.69-.54,3.69-.3,5.62.02Z"/>
  <path class="st32" d="M44.09,111.87c.56,1.44.61,2.98.16,4.63,1.62.47,1.57.89-.11,1.28l-1.1,2-13.67.06c.31,2.01-.26,3.17-1.72,3.46-.38,4.31-.14,8.26.73,11.87l-1.34.64-6.16-.18.11-18.71c1.88.2,4.5.61,5.62-.41,1.28-1.16.39-3.53.44-4.63h17.04Z"/>
  <path class="st32" d="M143.95,111.27l5.89.54.59,4.86c.98,1.02,3.65.68,5.59.36l.1,17.94-6.46-.34.24-16.72-3.94-.1c-4.4-.43-8.7-.77-12.92-1.03-.53-.97-.93-3.74.03-4.51,3.77-.66,7.58-1.3,10.89-1Z"/>
  <path class="st22" d="M14.92,62.95c.88.05,1.46.48,2,1.12.47.56.26,12.98.05,14.54l-1.99,1.41c1.65,1.24,2.32,3.59,2.01,7.03,4.15-1.31,8.92,2.94,3.86,4.9-2.09.16-5.82.23-6.17-2.35l-6.33-.29-.3-26.48,6.3-.54c-.79-2.22-.7-5.42.61-5.55l-.04,6.21Z"/>
  <path class="st42" d="M101.98,23.9c-.21.77-.55,1.93-1.15,1.99-4.3.42-13.27.27-17.62-.16-3.22.62-5.24-.07-6.07-2.05-.9-.06-.93-.37-.16-.93-.3-1.74-.5-3.58.01-5.5h24.95s.04,6.67.04,6.67Z"/>
  <path class="st40" d="M77.14,23.67c3.56.49,3.04,5.57-.27,6.4-.14,1.74-1.4,2.6-3.77,2.6.43,2.35-.26,3.74-2.08,4.15l-5.82-.06c-2.59,4.43-8.31,1.23-7.47-4.23l-9.28-.21c-.12,3.03-1.25,4.47-3.39,4.31-.67,1.71-1.61,1.94-3.14,1.67.4,3.63-.9,8.51-4.06,4.61,1.7-1.68.91-4.14,1.36-6.02.54-2.24.49-4.44,1.79-6.81,1.86.61,4.45.28,4.78-.79s.18-2.94-.21-5.12l14.28-.26.16,6.08,10.87.1.16-6.3c2.41-.14,4.28-.18,5.93-1.06l.16.93Z"/>
  <path class="st17" d="M44.14,117.78c1.78-.18,2.57.98,2.36,3.48,4.84-.17,9.58.2,14.22,1.09.58,3.57,1.95,5.11,4.12,4.6.77.84,1.16,1.77,1.2,2.79-.1.78-.38,1.95-.93,1.98-3.11.18-25.34-.08-26.38-.91-.72-.57-1.13-1.41-1.41-2.28,2.13-3.86-4.95-4.41-6.6-3.41-.96.58-.92,7.44-.46,7.87l8.3.86c2.36.41,3.67,2.34,3.93,5.81,3.51.26,6.33,1.33,8.46,3.21,1.42,4.91,2.11,3.05,2.07-5.58,3.43-8.91,13.52.06,7.65,5.52l.3,12.18.02,6.58c-1.15-.77-1.35-2.86-.76-5.45l-14.29-.3c-1.06-.02-1.78-.55-2.19-1.05l.86-2h13.24s.1-1.94.1-1.94l-12.67-.17-1.4-1.98-9.84.04c-.69,0-1.1-.42-1-.89l.05-1.33c9.55-1.02,11.4-1.84,5.54-2.45-2.15.56-4.03.51-5.63-.16-1.68-1.68-4.22-.91-5.99-2.12.02-1.85,1.46-2.57,4.32-2.16.71-1.71-.32-2.32-3.09-1.83l-1.23-1.96.32-17.95,16.78-.07Z"/>
  <path class="st8" d="M162.95,88.85l-.16-25c1.86-.26,3.59-.82,5.56-.46l-.03,25.23-5.37.23Z"/>
  <polygon class="st19" points="43.75 154.76 43.89 148.67 60.02 148.51 59.84 154.76 43.75 154.76"/>
  <path class="st28" d="M131.26,29.92l-14.39.33.11-5.6c4.17-1.7,9.04-.36,13.94-.81l.33,6.07Z"/>
  <path class="st25" d="M133.1,148.62l-.03,6.42-15.32-.12c.06-.58-.3-1.92,1.48-2,.89-.04,3.02.14,3.51-.82s.27-2.43.18-3.45l10.19-.03Z"/>
  <path class="st2" d="M143.96,142.68l.08,5.06c-3.69-.28-7.83,1.12-11.21-.97-.26-.9-.26-3.81,1-4.14,3.61-.95,7.05-.47,10.13.05Z"/>
  <path class="st15" d="M161.98,88.83l.06,10.04c-2.36.31-4.32-.13-6.49-.13-3.46-1.79-2.1-9.84,1.17-11.82.95-.58,5.6-.18,5.26,1.91Z"/>
  <path class="st6" d="M20.85,91.95c3.38.29,3.04,5.57.12,6.82l-6.44.19.15-9.35c2.21.1,5.4-.36,6.17,2.35Z"/>
  <path class="st18" d="M33.05,147.82l-.03-3.95c1.83-2.88,9.76-1.63,10.35-1.11.83.73.71,3.49.04,4.88l-10.36.18Z"/>
  <path class="st30" d="M155.55,98.74l.47,6.26c-2.42.03-4.34,0-6.03.75-.9-.08-.91-.38-.11-.88l-.35-6.12c.01-3,5.52-2.85,6.02,0Z"/>
  <path class="st23" d="M26.87,98.75c.31,2.14.61,4.44-.62,6.36l-5.28-.26v-6.08c-.11-2.99,5.3-2.87,5.89-.02Z"/>
  <path class="st4" d="M149.92,135.65l.15,6.15c-1.9-.24-3.96,0-5.81.66-.7-2.4-.98-5.16.04-6.37,1.35-1.6,4.25-.62,5.63-.45Z"/>
  <path class="st38" d="M27.03,141.75v-5.95c1.54.06,3.94-.55,5.74.61,1.03.66.84,3.93.43,5.11l-6.18.23Z"/>
  <path class="st16" d="M107.93,30.02l-5.93.11c-3.01-.05-2.86-5.68-.01-6.23l5.86.09.09,6.03Z"/>
  <path class="st20" d="M136.92,30.93l.21,5.05c-1.79.5-3.63.72-5.83.52v-5.6s5.61.04,5.61.04Z"/>
  <path class="st35" d="M149.88,104.86l.11.88c.15,1.19.34,2.4-.06,4.02l-5.79-.06-.04-4.88c2.17-.5,3.99-.27,5.78.03Z"/>
  <path class="st1" d="M65.2,36.75l.02,36.68,5.81.53.51,18.68c1.99-.19,3.36.38,3.96,1.09.52.63.7,2.75-.52,3.29s-3.45.86-3.59,1.83l-.64,4.21c-.23,1.54-4.04,1.76-4.87.18-.63-1.19-.43-2.78-.45-4.98-1.25.25-4.83.85-5.05-.42l-.97-5.46c-1.63.31-3.97-.08-4.22-1.15-.3-1.27-.14-2.87.23-4.66l-5.5-.73-.44-10.82c-.04-1-2.96-1.51-4.11-1.26-.64-2.63-.33-4.32-.31-6.77-2.38.21-3.76.31-5.73,1.06-.23,3.06-1.23,6.72.22,9.58.61,1.19,3.72,1.24,4.09,2.37.46,1.4.46,3.93.32,5.72l5.5.91c.27,3.79-.45,7.68.59,10.98,1.32.27,4.13.19,4.52,1.2.51,1.3.55,3.26.29,5.53l9.83.75c.93.41.92,4.2-.04,4.52-3.7,1.02-7.8,2.9-11.57,2.79-4.87-.14-9-1.88-14.53-1.56.76-1.75,1.23-5.6-.4-5.89-1.79-.27-4.1.36-4.95-.83-.58-.81-.17-3.24-.39-4.11-1.8-.67-3.65,1.52-4.49,2.86.25-1.87.04-4.12-1.45-4.12l-5.9.02c0-2.15.46-4.8-.12-6.82.49-1.09.35-2.81-.47-3.01-1.11-.27-3.41.16-4.73.27-1.69-2.44-.66-6.47-.67-9.19-.12-1.83,1.18-2.6,3.9-2.3.06-4,1.29-6.57,5.59-6.11.14-3.9,1.74-5.95,4.79-6.15-1.21-2.28-.99-3.83.68-4.66l3.14-.05c.92-.99,2.15-1.25,3.68-.77.01-2.43.69-4.14,2.05-5.15-.13-1.75,1.11-2.55,3.74-2.4-.54-2.9.29-4.68,2.49-5.34,2.23.6,3.54-1.17,3.91-5.31,4.11-.49,5.34-1.38,3.66-2.67-3.96.47-6.48-.36-7.56-2.5,1.07-1.5,1.22-3.34.71-6.37l14.03.32.13,5.94,5.27.24Z"/>
  <path class="st29" d="M101.98,23.9v6.23s0,6.68,0,6.68l5.29.22v17.14c0,1.16-3.8,1.32-5.04.78l-.32,18.75-5.32.34-.59,17.76-18.36.18-.65-18.03-5.63-.77-.02-24.89c1.69-.22,2.77,1.03,3.23,3.74-.44-4.47.36-7.98,2.4-10.55,3.69.75,5.38-.89,5.06-4.92,1.29-1.34,3.06-1.89,5.29-1.66.88-2.66-1.84-3.6-8.16-2.82.16,4.04-.1,7.53-5.12,6.88,0,2.39-.31,3.85-3.02,3.95-2.66-.26-2.57-1.18-.05-2l.04-4.09.13-6.83c1.46.38,4.6.82,5.36-.24,1.31-1.81.88-4.56.63-6.07l24.84.23Z"/>
  <path class="st13" d="M161.98,88.83l-5.83.1-.6,9.81h-6.02c-1.9,0-3.38-.32-5.4.35.4,1.31.28,4.54-.85,5-3.43,1.38-6.76.56-10.58.79-1.05.06-.91,3.23-.25,4.15.72,1.01,2.84.18,5.39,1.27l-13.05,1.76-9.73-.43c-.82-1.69-1.16-5.17.25-6.4.96-.45,4.04.32,4.38-1.08.32-1.3.38-2.66.14-4.86l6.48-.97.05-12.84c.56-1.36,1.76-1.82,3.61-1.38l.05-8.91,1.99-1.36c-.01-1.79,1.37-2.52,4.13-2.17-.99-6.97,1.18-11.06,6.49-12.27l1.64,1.72c3.38-.36,7.4-.66,10.55-.21.84.86,1.67,3.04,2.72,2.85,1.23-.22,3.11-.45,4.31.03l.1,25.07Z"/>
  <path class="st5" d="M102.92,110.8c0,2.61-6.16,3.15-6.84,0-1.37-.78-2-2.14-1.88-4.08l-14.04-.16c-.1,2.24-.86,3.71-2.3,4.41-2.23.15-4,.56-5.32,1.25l-.59-1.34c.07-2.23-.04-4.45,1.04-6.91,1.86.56,4.37.26,4.67-.8.37-1.27.31-2.76.09-4.84l18.92.26c-.43,2.01-.04,4.18.87,4.82.77.54,2.94-.21,4.22-.22,1.58,2.08,1.09,5.45,1.16,7.62Z"/>
  <path class="st43" d="M71.35,48.29c-.35-1.58-.47-4.2-.32-5.39,1.18-2.13,1.24-3.61.14-6.01l5.83.13.22-6.97,11.59.19c.72,1.74,1.44,5.71-.94,6.64-.98.38-3.89-.46-4.38.99-.27.8.17,3.13-.29,3.97-1,1.83-4.05,1.59-6.12,1.26l-.59,10.4c-1.46.67-2.68.81-4.85.55.83-2.49.12-3.86-.3-5.75Z"/>
  <path class="st7" d="M65.83,117.52c1.81,1.31,2.44,3.9,1.88,7.76,2.87-.32,4.3.84,4.29,3.49.88.27.88.63.04,1.06-.06,2.99-5.56,2.75-6-.1-1.36-1.36-3.69-1.05-5.86-.53l-.42-5.53-15.07-.45-.55-5.44-.04-5.9c.98,0,1.28,2.49.15,4.92l21.58.73Z"/>
  <path class="st44" d="M108.82,117.7c3-.35,2.81,5.42-.05,5.91-.01,1.9.15,3.91-.88,6.06-1.83-.18-3.96-.02-4.81.87-.59.62-.13,2.89-.63,3.96-.92,1.98-4.07,1.18-5.61,1.36l-.54.06c-4.1-2-1.94-9.65,3.58-8.19.4-2.2,1.21-3.98,2.43-5.34.31-3.9-.17-7.31-1.43-10.22l2.03-1.38c1.79,0,3.59-.26,5.65.26l.25,6.64Z"/>
  <path class="st21" d="M145.95,117.82l-12.92.08-.79,5.34-23.47.38.05-5.91,18.16-.11c2.42,0,4.28.08,6.06-.8,1.6-.8,9.63-.45,12.92,1.03Z"/>
  <polygon class="st41" points="113.78 49.81 113.81 36.88 125.86 36.62 125.62 42.83 119.94 43.03 119.95 49.74 113.78 49.81"/>
  <path class="st27" d="M71.95,110.87l1.33.3c-1.03,3.69-1.24,7.75-.64,12.18,2.21,1.19,1.98,4.68-.65,5.43-.35-.71-.98-1.61-1.61-1.49l-4.08.77c-1.22-3.5-.61-7.13-.49-10.53l.24-6.33,5.89-.32Z"/>
  <path class="st36" d="M132.03,73.82l.08,11.93c-2.34.6-4.05.4-5.73-.27l-.22-2.67.09-8.84c2.02-.78,4.01-.22,5.79-.16Z"/>
  <path class="st34" d="M116.03,35.92c-.61.21-2.19-.15-2.22.96l-5.7-.22c-.32-1.98-.28-3.57,0-5.7l8.09-.04-.16,5Z"/>
  <path class="st40" d="M70.99,40.9l.05,2c-1.69,0-3.47.32-5.14-.4.03-.14.05-.9,0-1.2,1.63-.71,3.41-.42,5.09-.4Z"/>
  <path class="st14" d="M144.29,61.1c-1.63.18-5.76,1.48-5.82,3.11l-.39,9.44-6.05.17v-12s5.5-1.43,5.5-1.43l.37-17.64,1.74,11.42c1.09.61,3.42.87,3.91,1.76.8,1.45.65,3.55.74,5.16Z"/>
  <path class="st31" d="M66.04,129.74l6,.1c1.68.37,2.27,1.84,1.77,4.39,1.52-.17,2.58-.11,3.32,1.62l2.39,1.2c-.21,2.18.6,3.96,2.41,5.36l20.75-.43c-.35-1.97-.23-4.83.85-5.43,1.74-.97,3.98-.57,5.46-.71l8.23-.76-.2,7.5-4.69.39c.28,1.81.03,3.72-.84,4.82-.54.68-2.2.87-3.58.87l-41.86-.05.02-5.89-5.4.09-.67-6.13c-.16-1.13-3.57-1.34-4.93-.66l-.41,11.37c-1.36.62-3.38.57-5.41.12.55-1.4.52-2.76.05-3.58-1.47-2.54-7-.72-8.62-3.39-.64-1.05-.61-3.15-.94-4.56l-11.65-1.21-.03-11.64,11.68-.05c-.46,2.3-.98,4.25-.06,6.25l26.38.39Z"/>
  <path class="st31" d="M125.94,129.62c3.8.4,7.78.5,11.83-.43l-.02,5.65-9.59-.42-3.33-3.74c-6.58,4.83-10.26-2.25-15.77,1.21-.49-1.13-.16-1.68-.42-2.13,6.03-.35,11.63-.74,17.3-.14Z"/>
  <path class="st3" d="M29.94,60.81c-.14,2.94,4.98,6.33,1.71,6.6-1.48.12-4.07-.28-4.49,1.03s-.36,2.78-.1,4.66c-1.56.62-3.18.56-5.34.48-.88,1.97-.75,3.81-.92,6l-5.82.44-.06-17.08c3.01.88,4.94-.07,7.53-2.06,1.88-1.44,5.61-.05,7.49-.08Z"/>
  <path class="st10" d="M45.06,36.62l9.94.66c.43,2.24.42,4.86-.59,5.4-.95.51-2.69.3-4.29.18l-.25,6.07-5.57.19c.33,1.58.54,4.49-.42,5.29l-5.05.43c-2.57.72-2.82-.17-.77-1.85-.3-3.38-.87-6.76-.19-10.09,1.6.16,2.22-.76,2.14-1.54l-.34-3.5c.88-2.37,3.85-1.34,5.4-1.24Z"/>
  <path class="st33" d="M38.82,54.84c.56,1.36.55,3.99-.18,6.24-.49,1.47-4.7.95-5.55-.32-.05-1.51-.57-3.83.39-5.62.75-1.4,3.42-1.55,4.57-2.15l.77,1.85Z"/>
  <path class="st45" d="M28.45,105.45c.71-1.12,3.87-.94,4.53-.04s.75,3.28.03,4.68c-.49.95-2.7.21-3.76,0-1.47-.3-2.24-2.36-.79-4.63Z"/>
  <path class="st37" d="M96.09,110.8c1.28,1.51-4.77.74-4.49.71,2.69-.36,5.34.43,7.29,2.37,3.72-4.8,4.13,6.8,3.43,8.98-1.6,4.99-8.4,1.45-8.23-3.74-1.54-.59-2.54.71-2.98,3.88-1.45,1.38-3.29,1.98-5.54,1.78,1.06,8.8-10.16,7.73-9.6.26-1.36.35-2.47.11-3.31-.7l.03-13.04c1.8.32,3.53.21,5.18-.33.03-1.78-.53-3.91.26-6.43l17.82.21c.73,2.39.45,4.24.13,6.06Z"/>
  <path class="st46" d="M77.87,110.97c-.11,1.12-3.17,1.16-4.75.75-.12,4.31-.58,7.77.21,11.69,1.93-.42,4-.58,4.5.13s-.24,3.22.12,4.46c.42,1.46,5.3,1.36,5.72-.33.28-1.13-.96-4.48,1.44-4.85,1.38-.22,3.63.17,4.46-.96.57-.77.48-3,.64-4.07,1.55-1.1,4.77-.83,6.52.01-.59,2.03-.17,4.33.8,4.93.77.48,3.36.53,4.46-.08l-.44-8.98c-4.05,6.25-4.28-1.92-10.94-2.02,1.72-1.81,3.65-.84,5.49-.84h6.84s-.4,18.53-.4,18.53c-1.87.5-3.46.5-6.01.22l-.2,6.38c-.11.77-.34,1.92-.9,1.99-1.47.18-15.43.2-16.12-.2-.75-.43-1.14-1.22-1.39-2.02-1.84-.01-2.54-1.42-2.1-4.22-1.76.35-2.9.22-3.76-1.63l-.04-1.06-.05-17.9,5.92.1Z"/>
  <path class="st11" d="M96.31,135.93l.54-.06.02,5.93c-5.08.23-10.51-.72-14.95.62-.96.29-3.5.35-4.03-.53-.37-2.24-.01-4.36-.78-6.03-.07-.89.2-.91.77-.16l18.42.23Z"/>
  <path class="st39" d="M77.9,135.7l-.77.16c-1.14.23-3.85.83-4.72-.31-1.22-1.6-.31-4.28-.36-5.7,1.78-.07,3.62-.7,5.71-.15l.15,6Z"/>
</svg>